<?xml version="1.0" encoding="UTF-8" standalone="no"?>
<!-- Created by diasvg.py -->
<svg width="20.876cm" height="7.815cm" viewBox="10.550 9.235 31.426 17.050"
 xmlns="http://www.w3.org/2000/svg"
 xmlns:xlink="http://www.w3.org/1999/xlink">
<ellipse cx="11.600" cy="10.285" rx="1.000" ry="1.000" fill="#FFFFFF" stroke="none"  /><ellipse cx="11.600" cy="10.285" rx="1.000" ry="1.000" fill="none" stroke="#000000"  stroke-width="0.100" /><ellipse cx="11.600" cy="10.285" rx="1.000" ry="1.000" fill="none" stroke="#000000"  stroke-width="0.100" /><ellipse cx="25.925" cy="10.285" rx="1.000" ry="1.000" fill="#FFFFFF" stroke="none"  /><ellipse cx="25.925" cy="10.285" rx="1.000" ry="1.000" fill="none" stroke="#000000"  stroke-width="0.100" /><ellipse cx="25.925" cy="10.285" rx="1.000" ry="1.000" fill="none" stroke="#000000"  stroke-width="0.100" /><line x1="24.875" y1="10.285" x2="13.137" y2="10.285" stroke="#000000" stroke-width="0.100" />
<polygon fill="#000000" stroke="none" stroke-width="0.100" points="12.762,10.285 13.262,10.035 13.137,10.285 13.262,10.535 "/>
<polygon fill="none" stroke="#000000" stroke-width="0.100"  points="12.762,10.285 13.262,10.035 13.137,10.285 13.262,10.535 "/>
<ellipse cx="11.600" cy="16.000" rx="1.000" ry="1.000" fill="#FFFFFF" stroke="none"  /><ellipse cx="11.600" cy="16.000" rx="1.000" ry="1.000" fill="none" stroke="#000000"  stroke-width="0.100" /><ellipse cx="11.600" cy="16.000" rx="1.000" ry="1.000" fill="none" stroke="#000000"  stroke-width="0.100" /><ellipse cx="25.925" cy="16.000" rx="1.000" ry="1.000" fill="#FFFFFF" stroke="none"  /><ellipse cx="25.925" cy="16.000" rx="1.000" ry="1.000" fill="none" stroke="#000000"  stroke-width="0.100" /><ellipse cx="25.925" cy="16.000" rx="1.000" ry="1.000" fill="none" stroke="#000000"  stroke-width="0.100" /><line x1="24.875" y1="16.000" x2="13.137" y2="16.000" stroke="#000000" stroke-width="0.100" />
<polygon fill="#000000" stroke="none" stroke-width="0.100" points="12.762,16.000 13.262,15.750 13.137,16.000 13.262,16.250 "/>
<polygon fill="none" stroke="#000000" stroke-width="0.100"  points="12.762,16.000 13.262,15.750 13.137,16.000 13.262,16.250 "/>
<polygon fill="#FFFFFF" stroke="none" stroke-width="0.100" points="28.945,15.000 31.376,15.000 31.376,17.000 28.945,17.000 "/>
<polygon fill="none" stroke="#000000" stroke-width="0.100"  points="28.945,15.000 31.376,15.000 31.376,17.000 28.945,17.000 "/>
<text x="30.160" y="16.200"  fill="#000000" text-anchor="middle" font-size="0.80" font-family="sans" font-style="normal" font-weight="400">
input</text>
<polygon fill="#FFFFFF" stroke="none" stroke-width="0.100" points="28.945,9.285 31.376,9.285 31.376,11.285 28.945,11.285 "/>
<polygon fill="none" stroke="#000000" stroke-width="0.100"  points="28.945,9.285 31.376,9.285 31.376,11.285 28.945,11.285 "/>
<text x="30.160" y="10.485"  fill="#000000" text-anchor="middle" font-size="0.80" font-family="sans" font-style="normal" font-weight="400">
input</text>
<line x1="24.951" y1="10.674" x2="13.026" y2="15.431" stroke="#000000" stroke-width="0.100" />
<polygon fill="#000000" stroke="none" stroke-width="0.100" points="12.678,15.570 13.050,15.153 13.026,15.431 13.235,15.617 "/>
<polygon fill="none" stroke="#000000" stroke-width="0.100"  points="12.678,15.570 13.050,15.153 13.026,15.431 13.235,15.617 "/>
<line x1="24.951" y1="15.611" x2="13.026" y2="10.854" stroke="#000000" stroke-width="0.100" />
<polygon fill="#000000" stroke="none" stroke-width="0.100" points="12.678,10.715 13.235,10.668 13.026,10.854 13.050,11.132 "/>
<polygon fill="none" stroke="#000000" stroke-width="0.100"  points="12.678,10.715 13.235,10.668 13.026,10.854 13.050,11.132 "/>
<line x1="28.899" y1="10.285" x2="27.458" y2="10.285" stroke="#000000" stroke-width="0.100" />
<polygon fill="#000000" stroke="none" stroke-width="0.100" points="27.083,10.285 27.583,10.035 27.458,10.285 27.583,10.535 "/>
<polygon fill="none" stroke="#000000" stroke-width="0.100"  points="27.083,10.285 27.583,10.035 27.458,10.285 27.583,10.535 "/>
<line x1="28.895" y1="16.000" x2="27.412" y2="16.000" stroke="#000000" stroke-width="0.100" />
<polygon fill="#000000" stroke="none" stroke-width="0.100" points="27.037,16.000 27.537,15.750 27.412,16.000 27.537,16.250 "/>
<polygon fill="none" stroke="#000000" stroke-width="0.100"  points="27.037,16.000 27.537,15.750 27.412,16.000 27.537,16.250 "/>
</svg>