<?xml version="1.0" encoding="UTF-8" standalone="no"?>
<svg
   xmlns:dc="http://purl.org/dc/elements/1.1/"
   xmlns:cc="http://creativecommons.org/ns#"
   xmlns:rdf="http://www.w3.org/1999/02/22-rdf-syntax-ns#"
   xmlns:svg="http://www.w3.org/2000/svg"
   xmlns="http://www.w3.org/2000/svg"
   xmlns:sodipodi="http://sodipodi.sourceforge.net/DTD/sodipodi-0.dtd"
   xmlns:inkscape="http://www.inkscape.org/namespaces/inkscape"
   version="1.2"
   id="svg2"
   inkscape:version="0.48.4 r9939"
   width="635.92017"
   height="290.54547"
   sodipodi:docname="Braiten-1-2-full-connection-point.3-value-2.svg">
  <metadata
     id="metadata260">
    <rdf:RDF>
      <cc:Work
         rdf:about="">
        <dc:format>image/svg+xml</dc:format>
        <dc:type
           rdf:resource="http://purl.org/dc/dcmitype/StillImage" />
      </cc:Work>
    </rdf:RDF>
  </metadata>
  <sodipodi:namedview
     pagecolor="#ffffff"
     bordercolor="#666666"
     borderopacity="1"
     objecttolerance="10"
     gridtolerance="10"
     guidetolerance="10"
     inkscape:pageopacity="0"
     inkscape:pageshadow="2"
     inkscape:window-width="1920"
     inkscape:window-height="1026"
     id="namedview258"
     showgrid="false"
     inkscape:zoom="1.7940591"
     inkscape:cx="397.17341"
     inkscape:cy="166.67112"
     inkscape:window-x="1047"
     inkscape:window-y="-3"
     inkscape:window-maximized="1"
     inkscape:current-layer="GraphicsScene_1"
     fit-margin-top="0"
     fit-margin-left="0"
     fit-margin-right="0"
     fit-margin-bottom="0" />
  <title
     id="title4">pyqtgraph SVG export</title>
  <desc
     id="desc6">Generated with Qt and pyqtgraph</desc>
  <defs
     id="defs8" />
  <g
     id="GraphicsScene_1"
     transform="translate(-25.079834,-1.5723166)">
    <g
       id="AxisItem_1"
       style="fill:none;stroke:#000000;stroke-width:1;stroke-linecap:square;stroke-linejoin:bevel">
      <g
         font-size="11.875"
         font-style="normal"
         font-weight="400"
         id="g14"
         style="font-size:11.875px;font-style:normal;font-weight:400;fill:none;stroke:#969696;stroke-width:1;stroke-linecap:square;stroke-linejoin:bevel;stroke-opacity:1;font-family:Sans Serif">
        <polyline
           points="45.0,5.0 45.0,79.113566312"
           vector-effect="non-scaling-stroke"
           id="polyline16"
           style="fill:none" />
      </g>
      <g
         font-size="11.875"
         font-style="normal"
         font-weight="400"
         id="g18"
         style="font-size:11.875px;font-style:normal;font-weight:400;fill:none;stroke:#969696;stroke-width:1;stroke-linecap:square;stroke-linejoin:bevel;stroke-opacity:1;font-family:Sans Serif">
        <polyline
           points="45.5,42.056833688 50.5,42.056833688"
           vector-effect="non-scaling-stroke"
           id="polyline20"
           style="fill:none" />
      </g>
      <g
         font-size="11.875"
         font-style="normal"
         font-weight="400"
         id="g22"
         style="font-size:11.875px;font-style:normal;font-weight:400;fill:none;stroke:#969696;stroke-width:1;stroke-linecap:square;stroke-linejoin:bevel;stroke-opacity:0.49803904;font-family:Sans Serif">
        <polyline
           points="45.5,77.688361784 48.8333,77.688361784"
           vector-effect="non-scaling-stroke"
           id="polyline24"
           style="fill:none" />
        <polyline
           points="45.5,6.4252651664 48.8333,6.4252651664"
           vector-effect="non-scaling-stroke"
           id="polyline26"
           style="fill:none" />
      </g>
      <g
         font-size="11.875"
         font-style="normal"
         font-weight="400"
         id="g28"
         style="font-size:11.875px;font-style:normal;font-weight:400;fill:none;stroke:#969696;stroke-width:1;stroke-linecap:square;stroke-linejoin:bevel;stroke-opacity:0.33333297;font-family:Sans Serif">
        <polyline
           points="45.5,70.562035952 48.0,70.562035952"
           vector-effect="non-scaling-stroke"
           id="polyline30"
           style="fill:none" />
        <polyline
           points="45.5,63.43571012 48.0,63.43571012"
           vector-effect="non-scaling-stroke"
           id="polyline32"
           style="fill:none" />
        <polyline
           points="45.5,56.309384288 48.0,56.309384288"
           vector-effect="non-scaling-stroke"
           id="polyline34"
           style="fill:none" />
        <polyline
           points="45.5,49.183058456 48.0,49.183058456"
           vector-effect="non-scaling-stroke"
           id="polyline36"
           style="fill:none" />
        <polyline
           points="45.5,34.930507856 48.0,34.930507856"
           vector-effect="non-scaling-stroke"
           id="polyline38"
           style="fill:none" />
        <polyline
           points="45.5,27.804182024 48.0,27.804182024"
           vector-effect="non-scaling-stroke"
           id="polyline40"
           style="fill:none" />
        <polyline
           points="45.5,20.677856192 48.0,20.677856192"
           vector-effect="non-scaling-stroke"
           id="polyline42"
           style="fill:none" />
        <polyline
           points="45.5,13.5515707856 48.0,13.5515707856"
           vector-effect="non-scaling-stroke"
           id="polyline44"
           style="fill:none" />
      </g>
      <g
         font-size="11.875"
         font-style="normal"
         font-weight="400"
         transform="matrix(1,0,0,1.01064,5.5,5)"
         id="g46"
         style="font-size:11.875px;font-style:normal;font-weight:400;fill:none;stroke:#969696;stroke-width:1;stroke-linecap:square;stroke-linejoin:bevel;stroke-opacity:1;font-family:Sans Serif">
        <text
           font-size="11.875"
           font-style="normal"
           font-weight="400"
           x="31"
           xml:space="preserve"
           y="40.6562"
           id="text48"
           style="font-size:11.875px;font-style:normal;font-weight:400;fill:#969696;fill-opacity:1;stroke:none">0</text>
        <text
           font-size="11.875"
           font-style="normal"
           font-weight="400"
           x="19"
           xml:space="preserve"
           y="75.921898"
           id="text50"
           style="font-size:11.875px;font-style:normal;font-weight:400;fill:#969696;fill-opacity:1;stroke:none">-10</text>
        <text
           font-size="11.875"
           font-style="normal"
           font-weight="400"
           x="23"
           xml:space="preserve"
           y="5.4218798"
           id="text52"
           style="font-size:11.875px;font-style:normal;font-weight:400;fill:#969696;fill-opacity:1;stroke:none">10</text>
      </g>
    </g>
    <g
       id="ViewBox_1"
       style="fill:none;stroke:#000000;stroke-width:1;stroke-linecap:square;stroke-linejoin:bevel">
      <g
         font-size="11.875"
         font-style="normal"
         font-weight="400"
         id="g55"
         style="font-size:11.875px;font-style:normal;font-weight:400;fill:none;stroke:none;font-family:Sans Serif">
        <path
           d="m 45,5 616,0 0,73.3333 -616,0 L 45,5"
           vector-effect="non-scaling-stroke"
           id="path57"
           inkscape:connector-curvature="0" />
      </g>
      <clipPath
         id="ViewBox_1_clip">
        <path
           d="m 45,5 616,0 0,73.3333 -616,0 L 45,5"
           vector-effect="non-scaling-stroke"
           id="path60"
           inkscape:connector-curvature="0" />
      </clipPath>
      <g
         clip-path="url(#ViewBox_1_clip)"
         id="g62">
        <g
           id="ChildGroup_1"
           style="fill:none;stroke:#000000;stroke-width:1;stroke-linecap:square;stroke-linejoin:bevel">
          <g
             id="InfiniteLine_1"
             style="fill:none;stroke:#000000;stroke-width:1;stroke-linecap:square;stroke-linejoin:bevel">
            <g
               font-size="11.875"
               font-style="normal"
               font-weight="400"
               id="g66"
               style="font-size:11.875px;font-style:normal;font-weight:400;fill:none;stroke:#e6e6af;stroke-width:1;stroke-linecap:square;stroke-linejoin:bevel;stroke-opacity:1;font-family:Sans Serif">
              <polyline
                 points="661.00071664,41.6667 44.9999649216,41.6667"
                 vector-effect="non-scaling-stroke"
                 id="polyline68"
                 style="fill:none" />
            </g>
          </g>
          <g
             id="PlotDataItem_1">
            <g
               id="PlotCurveItem_1"
               style="fill:none;stroke:#000000;stroke-width:1;stroke-linecap:square;stroke-linejoin:bevel">
              <g
                 font-size="11.875"
                 font-style="normal"
                 font-weight="400"
                 id="g72"
                 style="font-size:11.875px;font-style:normal;font-weight:400;fill:none;stroke:#ff0000;stroke-width:1;stroke-linecap:square;stroke-linejoin:bevel;stroke-opacity:1;font-family:Sans Serif">
                <path
                   d="m 29.4743,41.662646 0.598144,0.02785 0.598144,0.04947 0.598144,0.0305 0.598144,-0.0459 0.598144,0.0563 0.598144,-0.0403 0.598144,-0.0094 0.598144,-7.1e-5 0.598144,-0.07689 0.598144,-0.111622 0.598144,-0.05831 0.598144,0.02531 0.598144,-0.156256 0.598144,-0.107567 0.598144,-0.07161 0.598144,-0.0067 0.598144,0.07728 0.598144,0.01255 0.598144,8.47e-4 0.598144,0.05426 0.598144,-0.08328 0.598144,-0.07485 0.598144,0.124596 0.598144,0.05997 0.598144,0.06149 0.598144,-0.05356 0.598144,-0.03254 0.598144,0.02598 0.598144,0.04379 0.598144,0.05648 0.598144,-0.04157 0.598144,0.04435 0.598144,-0.02916 0.598144,0.04897 0.598144,0.01625 0.598144,-9.52e-4 0.598144,-0.126288 0.598144,-0.04555 0.598144,-0.008 0.598144,0.0581 0.598144,-0.129814 0.598144,-0.02345 0.598144,0.17124 0.598144,0.07009 0.598144,0.0783 0.598144,0.08536 0.598144,0.01883 0.598144,0.09332 0.598144,-0.04594 0.598144,-0.07672 0.598144,-0.07605 0.598144,0.01287 0.598144,-0.08261 0.598144,0.05102 0.598144,0.128016 0.598144,0.117545 0.598144,-0.03572 0.598144,-0.0349 0.598144,-0.05183 0.598144,-0.07823 0.598144,-0.03074 0.598144,-0.10115 0.598144,0.03452 0.598144,-0.100234 0.598144,-0.04724 0.598144,0.01865 0.598144,-0.03131 0.598144,-0.04291 0.598144,-0.09343 0.598144,-0.04714 0.598144,0.01794 0.598144,-0.121952 0.598144,-0.139615 0.598144,-0.06783 0.598144,-0.109436 0.598144,-0.03053 0.598144,-0.0404 0.598144,-0.03649 0.598144,0.04358 0.598144,-0.04537 0.598144,-0.0041 0.598144,0.0053 0.598144,0.02969 0.598144,0.0232 0.598144,-0.01156 0.598144,-0.08677 0.598144,0.01259 0.598144,-0.07866 0.598144,-0.02489 0.598144,-0.0306 0.598144,-0.01763 0.598144,-0.05856 0.598144,0.04037 0.598144,-0.08916 0.598144,-0.05458 0.598144,-0.0099 0.598144,0.01597 0.598144,-0.126394 0.598144,-0.06695 0.598144,0.04887 0.598144,-0.0549 0.598144,-0.05204 0.598144,0.0147 0.598144,0.05288 0.598144,-0.05119 0.598144,0.02077 0.598144,-0.02926 0.598144,0.0048 0.598144,0.0028 0.598144,-0.05295 0.598144,-0.04129 0.598144,-0.08021 0.598144,-0.123503 0.598144,-0.06237 0.598144,-0.02034 0.598144,-0.0586 0.598144,-0.02207 0.598142,-0.06008 0.59815,-0.01185 0.59814,-0.05412 0.59814,-0.03406 0.59815,0.0012 0.59814,-0.01311 0.59815,0.02352 0.59814,-0.05779 0.59814,0.118496 0.59815,0.03952 0.59814,-0.01763 0.59815,0.05867 0.59814,-0.0275 0.59814,-0.06797 0.59815,-0.08959 0.59814,0.0037 0.59815,-0.07548 0.59814,0.014 0.59814,-0.01897 0.59815,-0.04277 0.59814,0.05317 0.59815,0.0083 0.59814,-0.03169 0.59814,0.09734 0.59815,-0.02087 0.59814,-0.122516 0.59815,0.01643 0.59814,-0.0214 0.59814,0.02366 0.59815,-0.07418 0.59814,-0.131224 0.59815,-0.153154 0.59814,-0.04382 0.59814,-0.01833 0.59815,0.0079 0.59814,-0.05867 0.59815,-0.111833 0.59814,-0.08218 0.59814,0.01773 0.59815,-0.08581 0.59814,0.04661 0.59815,0.01826 0.59814,-0.06621 0.59814,-0.04333 0.59815,0.02031 0.59814,-0.08581 0.59815,-0.104324 0.59814,-0.177833 0.59814,-0.01816 0.59815,0.03191 0.59814,0.02616 0.59815,-0.0035 0.59814,-0.07129 0.59814,0.03141 0.59815,-0.05098 0.59814,-0.008 0.59815,-0.02524 0.59814,0.113808 0.59814,0.04097 0.59815,-0.01812 0.59814,-0.05905 0.59815,0.122163 0.59814,0.0238 0.59814,0.03737 0.59815,-0.0514 0.59814,-6.35e-4 0.59815,-0.0076 0.59814,-0.144234 0.59814,0.04985 0.59815,-0.07097 0.59814,-0.06466 0.59815,-0.05606 0.59814,-0.0929 0.59814,0.0623 0.59815,8.46e-4 0.59814,0.01128 0.59815,-0.156115 0.59814,-0.08655 0.59814,-0.09681 0.59815,3.17e-4 0.59814,0.04636 0.59815,0.05394 0.59814,0.04506 0.59814,-0.03314 0.59815,-0.08846 0.59814,-0.05606 0.59815,0.04058 0.59814,-0.05165 0.59814,0.09861 0.59815,-0.0409 0.59814,-0.05786 0.59815,0.0508 0.59814,-0.05426 0.59814,-0.09054 0.59815,-0.174237 0.59814,0.02267 0.59815,-0.160381 0.59814,-0.01008 0.59814,-0.0623 0.59815,-0.01378 0.59814,-0.06445 0.59815,-0.108978 0.59814,0.01847 0.59814,-0.04626 0.59815,0.0153 0.59814,3.5e-5 0.59815,-0.09688 0.59814,-0.06279 0.59814,-0.0042 0.59815,0.03822 0.59814,-0.04143 0.59815,-1.77e-4 0.59814,-0.05898 0.59814,-0.103019 0.59815,-0.07799 0.59814,-0.0038 0.59815,0.02471 0.59814,0.04453 0.59814,-0.07774 0.59815,-0.06114 0.59814,0.02817 0.59815,0.0051 0.59814,0.0146 0.59814,-0.01932 0.59815,0.07936 0.59814,-0.07411 0.59815,-0.05458 0.59814,0.02803 0.59814,-0.03991 0.59815,-0.07601 0.59814,-0.03099 0.59815,0.04196 0.59814,-0.07626 0.59814,0.117968 0.59815,0.04435 0.59814,-0.03057 0.59815,0.01382 0.59814,0.08736 0.59814,-0.01798 0.59815,-0.106193 0.59814,0.03596 0.59815,0.02669 0.59814,-0.0088 0.59814,0.07393 0.59815,-0.08271 0.59814,0.0196 0.59815,-0.0099 0.59814,-0.06847 0.59814,0.03773 0.59815,-0.03198 0.59814,-0.0094 0.59815,0.03991 0.59814,-0.05398 0.59814,0.003 0.59815,0.01809 0.59814,0.03096 0.59815,-0.0134 0.59814,-0.01089 0.59814,-0.08733 0.59815,-0.08617 0.59814,0.12717 0.59815,0.06032 0.59814,-0.05588 0.59814,0.09925 0.59815,-0.07644 0.59814,0.0684 0.59815,-8.11e-4 0.59814,0.106333 0.59814,-0.02486 0.59815,-0.09886 0.59814,0.0116 0.59815,0.01657 0.59814,-0.05147 0.59814,-0.0041 0.59815,0.15125 0.59814,-0.136478 0.59815,-0.07809 0.59814,-0.0071 0.59814,-0.03589 0.59815,0.0032 0.59814,-0.0262 0.59815,-0.0037 0.59814,-0.01096 0.59814,-0.02464 0.59815,0.05623 0.59814,-0.0758 0.59815,-0.07189 0.59814,-0.115395 0.59814,-0.08518 0.59815,0.01424 0.59814,0.0048 0.59815,-0.04284 0.59814,-0.01548 0.59814,-0.06808 0.59815,-0.06699 0.59814,-0.07682 0.59815,-0.03321 0.59814,-0.07069 0.59814,0.0427 0.59815,-0.07221 0.59814,-0.04403 0.59815,0.07344 0.59814,-0.03222 0.59814,-0.0069 0.59815,-0.06022 0.59814,8.11e-4 0.59815,-0.05673 0.59814,-0.0453 0.59814,0.0305 0.59815,-0.06998 0.59814,0.03649 0.59815,-0.0088 0.59814,0.104641 0.59814,-0.01044 0.59815,-0.04562 0.59814,-0.05366 0.59815,-0.01202 0.59814,0.02725 0.59814,0.02415 0.59815,0.01527 0.59814,-0.07774 0.59815,-0.101609 0.59814,0.09674 0.59814,0.0094 0.59815,-0.04213 0.59814,0.01347 0.59815,-0.101821 0.59814,-0.09466 0.59814,0.03716 0.59815,-0.08335 0.59814,-0.03028 0.59815,0.06635 0.59814,-0.07386 0.59814,-0.0027 0.59815,0.0042 0.59814,-0.05384 0.59815,-0.05229 0.59814,-0.09174 0.59814,-0.136089 0.59815,0.01132 0.59814,-0.07601 0.59815,-0.06628 0.59814,0.05835 0.59814,-0.01594 0.59815,-0.0024 0.59814,-0.05616 0.59815,0.117016 0.59814,0.04308 0.59814,-0.07087 0.59815,-0.01333 0.59814,0.0691 0.59815,-0.006 0.59814,-0.04322 0.59814,0.02743 0.59815,0.103442 0.59814,0.03723 0.59815,-0.107744 0.59814,-0.05634 0.59814,0.02746 0.59815,0.07443 0.59814,0.06938 0.59815,-0.04259 0.59814,0.08053 0.59814,0.04827 0.59815,-0.02323 0.59814,-0.0075 0.59815,0.04411 0.59814,-0.02679 0.59814,0.04671 0.59815,-0.02119 0.59814,-0.08236 0.59815,-0.03734 0.59814,0.08729 0.59814,-0.02803 0.59815,0.08412 0.59814,-0.04273 0.59815,0.0064 0.59814,-0.05077 0.59814,0.01879 0.59815,0.02341 0.59814,-0.02962 0.59815,-0.05017 0.59814,-0.06064 0.59814,-0.139121 0.59815,-0.0066 0.59814,0.155798 0.59815,-0.0026 0.59814,0.01364 0.59814,-0.06924 0.59815,-0.0033 0.59814,-0.02993 0.59815,-0.09586 0.59814,0.07957 0.59814,-0.01851 0.59815,-0.01449 0.59814,-0.05348 0.59815,-0.03533 0.59814,0.09079 0.59814,-0.01572 0.59815,-0.0027 0.59814,-0.09643 0.59815,0.0117 0.59814,0.01431 0.59814,-0.02436 0.59815,0.02817 0.59814,0.0068 0.59815,0.01372 0.59814,0.07393 0.59814,0.09047 0.59815,0.102525 0.59814,-0.0085 0.59815,0.180548 0.59814,0.103266 0.59814,0.0495 0.59815,-0.06706 0.59814,0.127522 0.59815,0.0046 0.59814,0.02352 0.59814,0.0044 0.59815,-0.0293 0.59814,3.17e-4 0.59815,-0.02553 0.59814,0.03388 0.59814,0.01142 0.59815,0.003 0.59814,-0.01414 0.59815,0.0624 0.59814,0.09685 0.59814,0.0096 0.59815,0.04703 0.59814,0.12241 0.59815,-0.0094 0.59814,-0.03667 0.59814,-0.01865 0.59815,-0.01276 0.59814,0.04816 0.59815,0.04735 0.59814,-0.121317 0.59814,-0.07919 0.59815,-0.05419 0.59814,-0.05066 0.59815,0.05669 0.59814,-0.03423 0.59814,0.07813 0.59815,0.0035 0.59814,0.07471 0.59815,0.02084 0.59814,0.01943 0.59814,-0.01685 0.59815,-0.0034 0.59814,-0.0096 0.59815,0.008 0.59814,0.08511 0.59814,-0.06956 0.59815,-0.0354 0.59814,0.01315 0.59815,-0.01417 0.59814,0.02454 0.59814,0.06078 0.59815,-0.02429 0.59814,-0.04929 0.59815,0.0073 0.59814,-0.0093 0.59814,-0.047 0.59815,0.036 0.59814,-0.0021 0.59815,0.0073 0.59814,0.09607 0.59814,-0.0036 0.59815,0.01872 0.59814,0.06551 0.59815,-0.05345 0.59814,-0.05214 0.59814,0.110247 0.59815,-0.04167 0.59814,-0.05507 0.59815,0.05447 0.59814,0.04308 0.59814,-0.01579 0.59815,-0.06663 0.59814,0.04104 0.59815,0.05697 0.59814,-0.05271 0.59814,-0.0069 0.59815,0.02274 0.59814,-0.0281 0.59815,-0.02055 0.59814,-0.09495 0.59814,-0.04192 0.59815,0.02574 0.59814,0.06946 0.59815,-0.03134 0.59814,-0.09064 0.59814,-0.07682 0.59815,0.09822 0.59814,-0.0023 0.59815,0.02415 0.59814,-0.08264 0.59814,0.02616 0.59815,-0.04999 0.59814,-0.02778 0.59815,-0.04506 0.59814,-0.004 0.59814,0.0917 0.59815,-0.04573 0.59814,-0.07555 0.59815,-0.03727 0.59814,-0.09234 0.59814,-0.02672 0.59815,-0.05426 0.59814,0.0348 0.59815,0.02824 0.59814,-0.02454 0.59814,-0.07393 0.59815,-0.05676 0.59814,-0.08895 0.59815,0.02993 0.59814,-0.01953 0.59814,-0.02768 0.59815,0.05306 0.59814,0.03617 0.59815,0.0016 0.59814,-0.0104 0.59814,-0.04217 0.59815,-0.04791 0.59814,-0.112538 0.59815,-0.05278 0.59814,-0.06177 0.59814,0.01847 0.59815,-0.05197 0.59814,0.0072 0.59815,-0.0269 0.59814,-0.0048 0.59814,0.01865 0.59815,-0.02436 0.59814,-0.03416 0.59815,-0.08465 0.59814,0.0091 0.59814,-0.0025 0.59815,-0.02736 0.59814,0.02327 0.59815,0.03399 0.59814,0.09752 0.59814,-0.0046 0.59815,-0.07242 0.59814,-0.0099 0.59815,0.0082 0.59814,-0.0415 0.59814,-0.0574 0.59815,-0.03596 0.59814,-0.05722 0.59815,-0.117967 0.59814,0.0072 0.59814,-0.06247 0.59815,-0.09861 0.59814,-0.07912 0.59815,-0.01505 0.59814,-0.08571 0.59814,0.07217 0.59815,0.102808 0.59814,-0.05112 0.59815,0.01816 0.59814,-0.02119 0.59814,-0.07414 0.59815,-0.01199 0.59814,-0.05264 0.59815,-0.08098 0.59814,0.126605 0.59814,-0.03899 0.59815,-0.04322 0.59814,-0.04132 0.59815,-0.04083 0.59814,-0.07933 0.59814,-0.02267 0.59815,-0.02524 0.59814,-0.104042 0.59815,-0.0065 0.59814,-0.0048 0.59814,-0.122023 0.59815,-0.10732 0.59814,-0.05965 0.59815,-0.136231 0.59814,-0.06741 0.59814,-0.107285 0.59815,-0.02736 0.59814,-0.06942 0.59815,-0.04495 0.59814,-0.05468 0.59814,-0.110423 0.59815,-0.09153 0.59814,-0.02609 0.59815,-0.08197 0.59814,-0.0623 0.59814,0.0033 0.59815,-0.0057 0.59814,0.07728 0.59815,0.08701 0.59814,0.0064 0.59814,0.0067 0.59815,0.01111 0.59814,-0.01428 0.59815,-0.05222 0.59814,-0.02549 0.59814,-0.0024 0.59815,-0.07848 0.59814,0.0094 0.59815,-0.04939 0.59814,-0.02376 0.59814,-0.01199 0.59815,0.08493 0.59814,-0.08366 0.59815,0.0097 0.59814,0.02969 0.59814,-0.0043 0.59815,-0.05609 0.59814,-0.05856 0.59815,-0.04344 0.59814,-0.03547 0.59814,-0.125407 0.59815,0.04435 0.59814,-0.08761 0.59815,0.0159 0.59814,-0.06931 0.59814,-0.0537 0.59815,-0.06297 0.59814,0.02316 0.59815,-0.130061 0.59814,-0.0763 0.59814,0.04009 0.59815,0.105029 0.59814,-0.05757 0.59815,-0.16916 0.59814,0.002 0.59814,-0.08285 0.59815,-0.08941 0.59814,-0.06561 0.59815,-0.0019 0.59814,0.02376 0.59814,-0.111128 0.59815,-0.100481 0.59814,0.07287 0.59815,0.02253 0.59814,-0.108026 0.59814,-0.151814 0.59815,0.01629 0.59814,-0.04714 0.59815,0.0096 0.59814,-0.04361 0.59814,0.0019 0.59815,-0.103513 0.59814,0.02119 0.59815,-0.03494 0.59814,-0.15541 0.59814,0.0398 0.59815,0.02126 0.59814,-0.02376 0.59815,0.06198 0.59814,-0.0057 0.59814,0.04298 0.59815,-0.02898 0.59814,-0.02383 0.59815,0.110917 0.59814,0.02147 0.59814,0.07027 0.59815,-0.113807 0.59814,-0.01601 0.59815,-0.08324 0.59814,-0.04749 0.59814,-0.06995 0.59815,-0.117052 0.59814,-0.06621 0.59815,0.05405 0.59814,0.0019 0.59814,0.01008 0.59815,-0.05764 0.59814,0.007 0.59815,-0.04499 0.59814,-0.01241 0.59814,-0.03977 0.59815,0.120013 0.59814,0.06114 0.59815,0.0049 0.59814,-0.103513 0.59814,-0.03561 0.59815,0.05951 0.59814,-0.06861 0.59815,-0.08148 0.59814,-0.04379 0.59814,-0.06794 0.59815,-0.0073 0.59814,-0.05352 0.59815,-0.0021 0.59814,-0.08588 0.59814,0.0074 0.59815,-0.08528 0.59814,0.0562 0.59815,-0.08229 0.59814,0.06864 0.59814,0.08405 0.59815,-0.09889 0.59814,0.0097 0.59815,0.107144 0.59814,-0.0017 0.59814,0.0696 0.59815,0.05785 0.59814,0.100622 0.59815,0.05941 0.59814,-0.0039 0.59814,0.04248 0.59815,0.09255 0.59814,0.04827 0.59815,0.01474 0.59814,-0.06448 0.59814,-2.11e-4 0.59815,0.04379 0.59814,-0.04139 0.59815,0.09516 0.59814,-0.05151 0.59814,-0.02115 0.59815,0.0495 0.59814,0.02175 0.59815,0.03392 0.59814,0.129814 0.59814,0.06787 0.59815,-0.03727 0.59814,0.04026 0.59815,0.03667 0.59814,0.152484 0.59814,0.103724 0.59815,0.0012 0.59814,0.02412 0.59815,0.151109 0.59814,0.09198 0.59814,0.10175 0.59815,0.01354 0.59814,-0.0083 0.59815,0.0061 0.59814,0.01139 0.59814,4.94e-4 0.59815,-0.02838 0.59814,0.03413 0.59815,0.05084 0.59814,0.02288 0.59814,0.111904 0.59815,0.06801 0.59814,0.09621 0.59815,0.01386 0.59814,0.08296 0.59814,0.15467 0.59815,0.158089 0.59814,0.0983 0.59815,0.06209 0.59814,0.101644 0.59814,0.234808 0.59815,0.01047 0.59814,0.02362 0.59815,0.08257 0.59814,-0.0214 0.59814,0.0452 0.59815,0.09875 0.59814,-0.06614 0.59815,0.07968 0.59814,0.06276 0.59814,0.132141 0.59815,0.06385 0.59814,0.07802 0.59815,0.03201 0.59814,0.142436 0.59814,0.07305 0.59815,0.168561 0.59814,0.05451 0.59815,0.119872 0.59814,-0.0061 0.59814,0.103619 0.59815,0.07397 0.59814,0.05867 0.59815,0.07115 0.59814,0.03318 0.59814,0.09956 0.59815,0.08483 0.59814,0.124631 0.59815,-0.0037 0.59814,0.03159 0.59814,0.173603 0.59815,0.04365 0.59814,0.09798 0.59815,0.07608 0.59814,0.0361 0.59814,0.117509 0.59815,0.113914 0.59814,0.172474 0.59815,0.125195 0.59814,0.0012 0.59814,0.09597 0.59815,0.03822 0.59814,0.203183 0.59815,0.03522 0.59814,0.127804 0.59814,0.04964 0.59815,0.03441 0.59814,0.09445 0.59815,0.06138 0.59814,0.09533 0.59814,0.122834 0.59815,0.06353 0.59814,0.107426 0.59815,0.02383 0.59814,0.157208 0.59814,0.129391 0.59815,0.04777 0.59814,0.07407 0.59815,0.09124 0.59814,0.02845 0.59814,0.100234 0.59815,-0.02574 0.59814,0.103654 0.59815,0.126323 0.59814,0.145715 0.59814,0.08014 0.59815,0.04337 0.59814,0.03663 0.59815,0.13066 0.59814,0.131788 0.59814,0.02218 0.59815,0.06681 0.59814,0.158478 0.59815,0.1155 0.59814,0.02105 0.59814,0.07252 0.59815,0.02137 0.59814,0.170464 0.59815,0.155446 0.59814,-0.02948 0.59814,0.03074 0.59815,0.07682 0.59814,0.103089 0.59815,0.0245 0.59814,0.07171 0.59814,0.04178 0.59815,0.04287 0.59814,0.08028 0.59815,0.0171 0.59814,0.07273 0.59814,0.05063 0.59815,0.02944 0.59814,0.04181 0.59815,0.08306 0.59814,0.141872 0.59814,0.05937 0.59815,0.07707 0.59814,0.08849 0.59815,0.03769 0.59814,0.102067 0.59814,0.03924 0.59815,0.173849 0.59814,0.06914 0.59815,0.07213 0.59814,0.133657 0.59814,0.138629 0.59815,0.135596 0.59814,0.0085 0.59815,0.117544 0.59814,-0.06501 0.59814,0.03053 0.59815,-0.01516 0.59814,0.139686 0.59815,0.204593 0.59814,0.10249 0.59814,0.01333 0.59815,0.0092 0.59814,0.05172 0.59815,0.140955 0.59814,-0.03085 0.59814,0.09251 0.59815,0.0477 0.59814,0.09145 0.59815,0.03346 0.59814,0.09706 0.59814,0.09466 0.59815,0.08885 0.59814,0.03441 0.59815,0.005 0.59814,0.123221 0.59814,-0.01453 0.59815,0.103125 0.59814,-0.06113 0.59815,0.06734 0.59814,0.134962 0.59814,0.0074 0.59815,0.164753 0.59814,-0.0034 0.59815,0.002 0.59814,0.08328 0.59814,0.04453 0.59815,0.05948 0.59814,-0.02789 0.59815,0.144939 0.59814,0.06656 0.59814,0.06505 0.59815,0.0184 0.59814,0.183791 0.59815,-2.82e-4 0.59814,0.08645 0.59814,0.07986 0.59815,0.04284 0.59814,0.06219 0.59815,0.01699 0.59814,-0.02898 0.59814,-0.04812 0.59815,-0.0795 0.59814,0.02433 0.59815,0.112609 0.59814,0.0502 0.59814,0.04816 0.59815,0.03882 0.59814,0.05838 0.59815,0.06047 0.59814,-0.0088 0.59814,-0.01678 0.59815,0.02256 0.59814,0.02161 0.59815,0.0027 0.59814,-0.0023 0.59814,0.03455 0.59815,0.114795 0.59814,0.05352 0.59815,0.08962 0.59814,0.0789 0.59814,0.02792 0.59815,-0.01326 0.59814,-0.0036 0.59815,0.06741 0.59814,-0.03628 0.59814,-0.04061 0.59815,0.08162 0.59814,0.08892 0.59815,-0.07612 0.59814,0.0031 0.59814,0.0971 0.59815,0.01851 0.59814,0.03645 0.59815,0.06748 0.59814,0.06173 0.59814,-0.06554 0.59815,0.168384 0.59814,0.05733 0.59815,-0.0066 0.59814,-0.04957 0.59814,-0.03297 0.59815,0.08412 0.59814,-0.01241 0.59815,-0.0513 0.59814,0.07834 0.59814,-0.03275 0.59815,0.04439 0.59814,-0.159817 0.59815,-0.10926 0.59814,0.01206 0.59814,0.0043 0.59815,0.03303 0.59814,-0.0134 0.59815,0.06247 0.59814,0.02493 0.59814,-0.03536 0.59815,0.0015 0.59814,-0.0965 0.59815,-0.03977 0.59814,0.08532 0.59814,0.116875 0.59815,0.102631 0.59814,0.07563 0.59815,-0.07037 0.59814,-0.07524 0.59814,0.069 0.59815,-0.08589 0.59814,0.02531 0.59815,-0.04026 0.59814,0.01527 0.59814,0.01516 0.59815,-0.01149 0.59814,-0.03762 0.59815,-0.01706 0.59814,-0.05236 0.59814,0.08017 0.59815,0.0575 0.59814,-0.02983 0.59815,0.01576 0.59814,0.06103 0.59814,0.04456 0.59815,0.06343 0.59814,-0.06219 0.59815,0.08088 0.59814,-0.116769 0.59814,0.03349 0.59815,0.06826 0.59814,0.06008 0.59815,-0.0404 0.59814,-0.0642"
                   vector-effect="non-scaling-stroke"
                   id="path74"
                   inkscape:connector-curvature="0" />
              </g>
            </g>
          </g>
        </g>
      </g>
    </g>
    <g
       id="g3550"
       transform="translate(0,-74)">
      <g
         style="fill:none;stroke:#000000;stroke-width:1;stroke-linecap:square;stroke-linejoin:bevel"
         id="AxisItem_2">
        <g
           style="font-size:11.875px;font-style:normal;font-weight:400;fill:none;stroke:#969696;stroke-width:1;stroke-linecap:square;stroke-linejoin:bevel;stroke-opacity:1;font-family:Sans Serif"
           id="g96"
           font-weight="400"
           font-style="normal"
           font-size="11.875">
          <polyline
             style="fill:none"
             id="polyline98"
             vector-effect="non-scaling-stroke"
             points="45.0,163.667 45.0,237.780566312" />
        </g>
        <g
           style="font-size:11.875px;font-style:normal;font-weight:400;fill:none;stroke:#969696;stroke-width:1;stroke-linecap:square;stroke-linejoin:bevel;stroke-opacity:1;font-family:Sans Serif"
           id="g100"
           font-weight="400"
           font-style="normal"
           font-size="11.875">
          <polyline
             style="fill:none"
             id="polyline102"
             vector-effect="non-scaling-stroke"
             points="45.5,200.723833688 50.5,200.723833688" />
        </g>
        <g
           style="font-size:11.875px;font-style:normal;font-weight:400;fill:none;stroke:#969696;stroke-width:1;stroke-linecap:square;stroke-linejoin:bevel;stroke-opacity:0.49803904;font-family:Sans Serif"
           id="g104"
           font-weight="400"
           font-style="normal"
           font-size="11.875">
          <polyline
             style="fill:none"
             id="polyline106"
             vector-effect="non-scaling-stroke"
             points="45.5,236.355361784 48.8333,236.355361784" />
          <polyline
             style="fill:none"
             id="polyline108"
             vector-effect="non-scaling-stroke"
             points="45.5,165.092265166 48.8333,165.092265166" />
        </g>
        <g
           style="font-size:11.875px;font-style:normal;font-weight:400;fill:none;stroke:#969696;stroke-width:1;stroke-linecap:square;stroke-linejoin:bevel;stroke-opacity:0.33333297;font-family:Sans Serif"
           id="g110"
           font-weight="400"
           font-style="normal"
           font-size="11.875">
          <polyline
             style="fill:none"
             id="polyline112"
             vector-effect="non-scaling-stroke"
             points="45.5,229.229035952 48.0,229.229035952" />
          <polyline
             style="fill:none"
             id="polyline114"
             vector-effect="non-scaling-stroke"
             points="45.5,222.10271012 48.0,222.10271012" />
          <polyline
             style="fill:none"
             id="polyline116"
             vector-effect="non-scaling-stroke"
             points="45.5,214.976384288 48.0,214.976384288" />
          <polyline
             style="fill:none"
             id="polyline118"
             vector-effect="non-scaling-stroke"
             points="45.5,207.850058456 48.0,207.850058456" />
          <polyline
             style="fill:none"
             id="polyline120"
             vector-effect="non-scaling-stroke"
             points="45.5,193.597507856 48.0,193.597507856" />
          <polyline
             style="fill:none"
             id="polyline122"
             vector-effect="non-scaling-stroke"
             points="45.5,186.471182024 48.0,186.471182024" />
          <polyline
             style="fill:none"
             id="polyline124"
             vector-effect="non-scaling-stroke"
             points="45.5,179.344856192 48.0,179.344856192" />
          <polyline
             style="fill:none"
             id="polyline126"
             vector-effect="non-scaling-stroke"
             points="45.5,172.218570786 48.0,172.218570786" />
        </g>
        <g
           style="font-size:11.875px;font-style:normal;font-weight:400;fill:none;stroke:#969696;stroke-width:1;stroke-linecap:square;stroke-linejoin:bevel;stroke-opacity:1;font-family:Sans Serif"
           id="g128"
           transform="matrix(1,0,0,1.01064,5.5,163.667)"
           font-weight="400"
           font-style="normal"
           font-size="11.875">
          <text
             style="font-size:11.875px;font-style:normal;font-weight:400;fill:#969696;fill-opacity:1;stroke:none"
             id="text130"
             y="40.6562"
             xml:space="preserve"
             x="31"
             font-weight="400"
             font-style="normal"
             font-size="11.875">0</text>
          <text
             style="font-size:11.875px;font-style:normal;font-weight:400;fill:#969696;fill-opacity:1;stroke:none"
             id="text132"
             y="75.921898"
             xml:space="preserve"
             x="19"
             font-weight="400"
             font-style="normal"
             font-size="11.875">-10</text>
          <text
             style="font-size:11.875px;font-style:normal;font-weight:400;fill:#969696;fill-opacity:1;stroke:none"
             id="text134"
             y="5.4218798"
             xml:space="preserve"
             x="23"
             font-weight="400"
             font-style="normal"
             font-size="11.875">10</text>
        </g>
      </g>
      <g
         style="fill:none;stroke:#000000;stroke-width:1;stroke-linecap:square;stroke-linejoin:bevel"
         id="ViewBox_3">
        <g
           style="font-size:11.875px;font-style:normal;font-weight:400;fill:none;stroke:none;font-family:Sans Serif"
           id="g137"
           font-weight="400"
           font-style="normal"
           font-size="11.875">
          <path
             inkscape:connector-curvature="0"
             id="path139"
             vector-effect="non-scaling-stroke"
             d="m 45,163.667 616,0 0,73.3333 -616,0 0,-73.3333" />
        </g>
        <clipPath
           id="ViewBox_3_clip">
          <path
             inkscape:connector-curvature="0"
             id="path142"
             vector-effect="non-scaling-stroke"
             d="m 45,163.667 616,0 0,73.333 -616,0 0,-73.333" />
        </clipPath>
        <g
           id="g144"
           clip-path="url(#ViewBox_3_clip)">
          <g
             style="fill:none;stroke:#000000;stroke-width:1;stroke-linecap:square;stroke-linejoin:bevel"
             id="ChildGroup_3">
            <g
               style="fill:none;stroke:#000000;stroke-width:1;stroke-linecap:square;stroke-linejoin:bevel"
               id="InfiniteLine_2">
              <g
                 style="font-size:11.875px;font-style:normal;font-weight:400;fill:none;stroke:#e6e6af;stroke-width:1;stroke-linecap:square;stroke-linejoin:bevel;stroke-opacity:1;font-family:Sans Serif"
                 id="g148"
                 font-weight="400"
                 font-style="normal"
                 font-size="11.875">
                <polyline
                   style="fill:none"
                   id="polyline150"
                   vector-effect="non-scaling-stroke"
                   points="661.00071664,200.333 44.9999649216,200.333" />
              </g>
            </g>
            <g
               id="PlotDataItem_3">
              <g
                 style="fill:none;stroke:#000000;stroke-width:1;stroke-linecap:square;stroke-linejoin:bevel"
                 id="PlotCurveItem_3">
                <g
                   style="font-size:11.875px;font-style:normal;font-weight:400;fill:none;stroke:#00ff00;stroke-width:1;stroke-linecap:square;stroke-linejoin:bevel;stroke-opacity:1;font-family:Sans Serif"
                   id="g154"
                   font-weight="400"
                   font-style="normal"
                   font-size="11.875">
                  <path
                     inkscape:connector-curvature="0"
                     id="path156"
                     vector-effect="non-scaling-stroke"
                     d="m 29.4743,200.37795 0.598144,0.029 0.598144,0.0866 0.598144,-0.0291 0.598144,-0.004 0.598144,-0.0324 0.598144,-0.0378 0.598144,-0.0455 0.598144,-0.10446 0.598144,-0.0103 0.598144,-0.11067 0.598144,0.0143 0.598144,-0.0486 0.598144,0.0221 0.598144,0.0418 0.598144,-0.0178 0.598144,-0.0366 0.598144,-0.0797 0.598144,-0.0405 0.598144,-0.0844 0.598144,-0.0435 0.598144,0.0466 0.598144,0.002 0.598144,-0.0395 0.598144,-0.10715 0.598144,-0.0982 0.598144,0.0659 0.598144,-0.0724 0.598144,-0.0879 0.598144,0.018 0.598144,0.0151 0.598144,-0.043 0.598144,-0.13856 0.598144,-0.0573 0.598144,-0.0699 0.598144,-0.0165 0.598144,-0.10715 0.598144,-0.003 0.598144,0.008 0.598144,0.002 0.598144,0.004 0.598144,0.008 0.598144,-0.0675 0.598144,0.0402 0.598144,-0.0913 0.598144,-0.0898 0.598144,0.0132 0.598144,0.001 0.598144,-0.0301 0.598144,-0.007 0.598144,-0.0947 0.598144,-0.15767 0.598144,-0.011 0.598144,-5e-4 0.598144,-0.009 0.598144,-0.10267 0.598144,0.07 0.598144,-0.0414 0.598144,-0.10764 0.598144,-0.0638 0.598144,-0.0911 0.598144,0.0217 0.598144,-0.14723 0.598144,-0.0276 0.598144,0.0759 0.598144,-0.0975 0.598144,-0.0743 0.598144,-0.0772 0.598144,-0.023 0.598144,0.0146 0.598144,-0.11109 0.598144,-0.0276 0.598144,0.0217 0.598144,-0.18305 0.598144,-0.0562 0.598144,-0.0802 0.598144,-0.0231 0.598144,-0.0734 0.598144,0.0406 0.598144,-0.008 0.598144,-0.0756 0.598144,-0.0457 0.598144,-0.10721 0.598144,-0.0147 0.598144,-0.0878 0.598144,-0.0541 0.598144,-0.0576 0.598144,0.0583 0.598144,-0.0606 0.598144,-0.0501 0.598144,-0.0673 0.598144,-0.11719 0.598144,-0.10764 0.598144,-2.5e-4 0.598144,-0.0521 0.598144,-0.0964 0.598144,-0.0358 0.598144,-0.0758 0.598144,0.003 0.598144,-0.0848 0.598144,-0.0966 0.598144,-0.0847 0.598144,0.0216 0.598144,-0.006 0.598144,-0.118 0.598144,-0.045 0.598144,0.0776 0.598144,-0.0668 0.598144,-0.12699 0.598144,-0.0483 0.598144,0.0181 0.598144,0.0482 0.598144,-0.006 0.598144,0.0355 0.598144,-0.0613 0.598144,-0.0672 0.598144,-0.0108 0.598144,-0.0359 0.598142,-0.0131 0.59815,0.0333 0.59814,-0.0657 0.59814,0.0575 0.59815,0.055 0.59814,0.0264 0.59815,0.0159 0.59814,0.0673 0.59814,0.0454 0.59815,-0.1057 0.59814,0.0338 0.59815,-0.0323 0.59814,-0.003 0.59814,-0.0389 0.59815,-0.0377 0.59814,0.0621 0.59815,0.0186 0.59814,-0.13439 0.59814,-0.002 0.59815,0.0264 0.59814,0.004 0.59815,-0.0583 0.59814,-3.9e-4 0.59814,0.0612 0.59815,-0.19627 0.59814,0.0405 0.59815,-0.13997 0.59814,0.0246 0.59814,-0.11261 0.59815,-0.11352 0.59814,0.008 0.59815,-0.0152 0.59814,-0.0216 0.59814,0.0282 0.59815,-0.0488 0.59814,-0.0381 0.59815,-0.10559 0.59814,-0.008 0.59814,0.0188 0.59815,0.0248 0.59814,0.0149 0.59815,-0.0145 0.59814,0.0124 0.59814,-0.0206 0.59815,-0.0769 0.59814,0.028 0.59815,0.082 0.59814,-0.10904 0.59814,0.004 0.59815,-0.0361 0.59814,-0.0618 0.59815,-0.10771 0.59814,0.0644 0.59814,0.0468 0.59815,0.0408 0.59814,0.0675 0.59815,0.0187 0.59814,0.14526 0.59814,0.0526 0.59815,0.0361 0.59814,-0.0114 0.59815,-0.0633 0.59814,-0.0289 0.59814,0.14188 0.59815,0.0424 0.59814,-0.0918 0.59815,-0.006 0.59814,-0.007 0.59814,0.0366 0.59815,0.005 0.59814,-0.0551 0.59815,0.0133 0.59814,-0.0214 0.59814,-0.0528 0.59815,0.0715 0.59814,0.0178 0.59815,0.004 0.59814,0.11825 0.59814,-0.0239 0.59815,-0.0454 0.59814,0.0137 0.59815,-0.0562 0.59814,-0.068 0.59814,0.0423 0.59815,0.0395 0.59814,0.013 0.59815,-0.0471 0.59814,-0.11479 0.59814,0.0135 0.59815,-0.0311 0.59814,-0.009 0.59815,0.0614 0.59814,0.0251 0.59814,-0.0427 0.59815,0.027 0.59814,-0.0895 0.59815,0.0105 0.59814,0.0366 0.59814,-0.009 0.59815,-0.0732 0.59814,-0.0883 0.59815,0.0121 0.59814,-0.0635 0.59814,0.002 0.59815,-0.0114 0.59814,0.005 0.59815,0.0313 0.59814,0.0152 0.59814,0.0121 0.59815,0.0566 0.59814,0.008 0.59815,-0.0242 0.59814,0.0896 0.59814,0.12544 0.59815,0.054 0.59814,0.0603 0.59815,0.0874 0.59814,-0.0168 0.59814,0.11158 0.59815,0.024 0.59814,-0.008 0.59815,0.0985 0.59814,0.01 0.59814,0.0132 0.59815,-0.009 0.59814,-0.0521 0.59815,-0.0734 0.59814,0.0765 0.59814,-0.0968 0.59815,-0.0322 0.59814,0.0717 0.59815,0.04 0.59814,0.0325 0.59814,-0.0819 0.59815,0.0205 0.59814,-0.0404 0.59815,-0.0183 0.59814,0.097 0.59814,0.0116 0.59815,0.15322 0.59814,0.004 0.59815,0.0336 0.59814,-0.0461 0.59814,-0.0419 0.59815,0.0573 0.59814,-0.0127 0.59815,-0.0307 0.59814,-0.0295 0.59814,-0.0743 0.59815,0.11321 0.59814,-0.11081 0.59815,-0.0393 0.59814,-0.0462 0.59814,0.0754 0.59815,-0.0503 0.59814,0.0506 0.59815,-0.005 0.59814,0.12227 0.59814,0.1522 0.59815,-0.0169 0.59814,0.0666 0.59815,0.0765 0.59814,-0.0891 0.59814,0.0311 0.59815,0.0549 0.59814,-0.0468 0.59815,-0.0552 0.59814,-0.0386 0.59814,-0.0465 0.59815,-0.0138 0.59814,0.0272 0.59815,-0.006 0.59814,0.0169 0.59814,-0.0773 0.59815,0.10316 0.59814,0.0677 0.59815,0.0109 0.59814,0.0435 0.59814,0.004 0.59815,-0.0666 0.59814,0.15485 0.59815,-0.10591 0.59814,-0.17205 0.59814,-0.009 0.59815,0.0179 0.59814,0.0289 0.59815,-0.009 0.59814,-0.004 0.59814,0.019 0.59815,0.0115 0.59814,-0.025 0.59815,0.0262 0.59814,0.0597 0.59814,-0.0504 0.59815,0.0331 0.59814,0.0621 0.59815,-0.0645 0.59814,-0.0131 0.59814,0.0116 0.59815,0.0395 0.59814,-0.0586 0.59815,-0.052 0.59814,-0.0536 0.59814,0.002 0.59815,-0.009 0.59814,0.0701 0.59815,-0.042 0.59814,0.0226 0.59814,0.018 0.59815,-0.0172 0.59814,-0.068 0.59815,-0.0345 0.59814,0.0108 0.59814,-0.006 0.59815,0.013 0.59814,0.12255 0.59815,0.0654 0.59814,0.04 0.59814,-0.10729 0.59815,-3.1e-4 0.59814,0.0528 0.59815,-5.7e-4 0.59814,0.0845 0.59814,-0.0551 0.59815,0.0475 0.59814,-0.0194 0.59815,0.0256 0.59814,-0.088 0.59814,-0.0122 0.59815,-0.0374 0.59814,-0.009 0.59815,0.13211 0.59814,0.003 0.59814,0.0465 0.59815,0.025 0.59814,-0.0344 0.59815,1.8e-4 0.59814,0.0774 0.59814,0.006 0.59815,-0.0216 0.59814,0.0267 0.59815,-0.002 0.59814,-0.0231 0.59814,0.15167 0.59815,-0.01 0.59814,0.12679 0.59815,-3.9e-4 0.59814,-0.0806 0.59814,0.1003 0.59815,0.0484 0.59814,-0.0508 0.59815,-0.0434 0.59814,-0.11776 0.59814,0.1283 0.59815,0.11039 0.59814,-0.0294 0.59815,0.15809 0.59814,0.0554 0.59814,-0.0187 0.59815,0.009 0.59814,-0.044 0.59815,0.0153 0.59814,0.0282 0.59814,0.0502 0.59815,-0.0519 0.59814,0.062 0.59815,-0.0586 0.59814,0.0134 0.59814,-0.15417 0.59815,0.012 0.59814,-0.052 0.59815,-0.0381 0.59814,0.0161 0.59814,-0.058 0.59815,-0.0338 0.59814,-0.0456 0.59815,0.13965 0.59814,-0.0795 0.59814,0.0948 0.59815,0.0171 0.59814,0.0935 0.59815,-0.0591 0.59814,-0.0559 0.59814,0.03 0.59815,-0.0397 0.59814,-0.14515 0.59815,0.1069 0.59814,-0.008 0.59814,0.008 0.59815,-0.002 0.59814,0.0546 0.59815,-0.003 0.59814,-0.0229 0.59814,0.0221 0.59815,0.0164 0.59814,0.0849 0.59815,0.0116 0.59814,-0.0212 0.59814,0.006 0.59815,-0.0831 0.59814,0.0656 0.59815,-0.001 0.59814,-0.0211 0.59814,0.0674 0.59815,-0.0104 0.59814,-0.0626 0.59815,0.0316 0.59814,-0.063 0.59814,0.1315 0.59815,0.0397 0.59814,-0.047 0.59815,-0.0444 0.59814,0.0503 0.59814,0.0118 0.59815,0.007 0.59814,0.009 0.59815,-0.044 0.59814,-0.0235 0.59814,-0.0287 0.59815,-0.0563 0.59814,0.10365 0.59815,0.046 0.59814,-0.007 0.59814,-0.0188 0.59815,-0.13648 0.59814,-0.037 0.59815,0.005 0.59814,0.0416 0.59814,-0.0229 0.59815,0.009 0.59814,0.0155 0.59815,0.0257 0.59814,-0.0279 0.59814,-2.1e-4 0.59815,0.0119 0.59814,-0.05 0.59815,-0.0441 0.59814,-0.0929 0.59814,-0.0612 0.59815,-0.0806 0.59814,-0.0231 0.59815,0.003 0.59814,-0.0283 0.59814,-0.0181 0.59815,-0.003 0.59814,0.0173 0.59815,-0.0112 0.59814,0.0428 0.59814,0.0245 0.59815,-0.033 0.59814,-0.006 0.59815,-0.0631 0.59814,-0.0776 0.59814,-0.0388 0.59815,0.0786 0.59814,-0.14533 0.59815,0.0174 0.59814,-0.0877 0.59814,-3.2e-4 0.59815,0.0386 0.59814,-0.0994 0.59815,-0.0495 0.59814,-0.0801 0.59814,-0.10834 0.59815,0.0346 0.59814,-0.005 0.59815,-0.11687 0.59814,-0.0597 0.59814,-0.1191 0.59815,0.0207 0.59814,0.11769 0.59815,-0.0139 0.59814,0.0637 0.59814,0.007 0.59815,-0.0813 0.59814,0.0205 0.59815,0.0147 0.59814,-0.0602 0.59814,0.0516 0.59815,-0.0639 0.59814,0.036 0.59815,-0.0721 0.59814,0.0688 0.59814,-0.0766 0.59815,0.008 0.59814,0.0433 0.59815,-0.0645 0.59814,-0.0137 0.59814,-0.0995 0.59815,0.0587 0.59814,-0.0574 0.59815,0.0668 0.59814,-0.13164 0.59814,-0.0659 0.59815,-0.0578 0.59814,-0.0355 0.59815,-0.13373 0.59814,-0.005 0.59814,0.0378 0.59815,0.0315 0.59814,0.0538 0.59815,0.0434 0.59814,-0.009 0.59814,-0.0779 0.59815,-0.0517 0.59814,-0.10637 0.59815,-0.0178 0.59814,-0.0391 0.59814,0.01 0.59815,0.0607 0.59814,-0.0489 0.59815,-0.062 0.59814,-0.009 0.59814,0.0883 0.59815,0.0356 0.59814,0.0487 0.59815,-0.0356 0.59814,0.0537 0.59814,-0.0356 0.59815,-0.0893 0.59814,0.0591 0.59815,-0.0829 0.59814,-0.0318 0.59814,0.003 0.59815,0.007 0.59814,-0.10404 0.59815,-0.0121 0.59814,-0.0292 0.59814,-0.0529 0.59815,-0.0618 0.59814,0.0391 0.59815,-0.0318 0.59814,-0.0615 0.59814,-0.0791 0.59815,-0.0259 0.59814,0.0752 0.59815,-0.0782 0.59814,-0.0594 0.59814,-0.10517 0.59815,0.0577 0.59814,-0.0898 0.59815,-0.031 0.59814,0.0683 0.59814,-0.0551 0.59815,0.003 0.59814,0.11017 0.59815,0.0866 0.59814,-0.0559 0.59814,0.005 0.59815,0.0293 0.59814,-0.008 0.59815,5.2e-4 0.59814,-0.0694 0.59814,-0.003 0.59815,0.0245 0.59814,0.0476 0.59815,-0.001 0.59814,0.001 0.59814,6e-4 0.59815,0.0306 0.59814,-0.0874 0.59815,-0.14653 0.59814,-0.12593 0.59814,-0.011 0.59815,-0.0303 0.59814,-0.09 0.59815,-0.0573 0.59814,-0.0308 0.59814,-0.0183 0.59815,-0.0454 0.59814,0.007 0.59815,-0.0274 0.59814,-0.0805 0.59814,-0.0942 0.59815,-0.13913 0.59814,-0.0717 0.59815,-0.0839 0.59814,-0.0508 0.59814,-0.0961 0.59815,-0.16095 0.59814,-0.11916 0.59815,-0.0504 0.59814,-0.15781 0.59814,-0.10252 0.59815,0.0359 0.59814,-0.088 0.59815,-0.13644 0.59814,-0.085 0.59814,-0.15548 0.59815,-0.0759 0.59814,-0.07 0.59815,-0.13109 0.59814,-0.12748 0.59814,-0.0515 0.59815,-0.14621 0.59814,-0.0998 0.59815,-0.234 0.59814,-0.30317 0.59814,-0.14194 0.59815,-0.14053 0.59814,-0.15263 0.59815,-0.12949 0.59814,-0.0644 0.59814,-0.0547 0.59815,-0.0458 0.59814,-0.14808 0.59815,-0.17127 0.59814,0.007 0.59814,-0.15992 0.59815,-0.0367 0.59814,-0.0627 0.59815,-0.13538 0.59814,-0.11177 0.59814,-0.0118 0.59815,0.0261 0.59814,-0.01 0.59815,-0.0451 0.59814,-0.0808 0.59814,-0.11257 0.59815,-0.0799 0.59814,0.0298 0.59815,0.0836 0.59814,0.0152 0.59814,-0.0215 0.59815,0.0356 0.59814,0.0887 0.59815,0.0448 0.59814,0.0313 0.59814,0.0751 0.59815,0.0473 0.59814,0.10249 0.59815,0.0598 0.59814,0.0739 0.59814,-0.0575 0.59815,-0.0394 0.59814,0.17593 0.59815,0.045 0.59814,0.1271 0.59814,0.051 0.59815,0.16306 0.59814,0.10302 0.59815,0.11434 0.59814,0.1309 0.59814,0.0867 0.59815,0.10598 0.59814,0.0725 0.59815,0.0441 0.59814,0.21225 0.59814,0.005 0.59815,0.15824 0.59814,0.20491 0.59815,0.0809 0.59814,0.10482 0.59814,0.0459 0.59815,0.0404 0.59814,0.0753 0.59815,0.12181 0.59814,0.0763 0.59814,0.12276 0.59815,0.1949 0.59814,0.0958 0.59815,0.12954 0.59814,0.17998 0.59814,0.048 0.59815,0.10285 0.59814,0.11539 0.59815,0.14226 0.59814,-0.0536 0.59814,0.20029 0.59815,0.0334 0.59814,0.0993 0.59815,0.097 0.59814,0.15089 0.59814,0.0586 0.59815,0.11483 0.59814,0.10595 0.59815,0.12241 0.59814,0.10651 0.59814,0.10347 0.59815,0.0738 0.59814,0.0374 0.59815,0.0961 0.59814,0.0564 0.59814,-0.0131 0.59815,0.17779 0.59814,0.0426 0.59815,0.13182 0.59814,0.12083 0.59814,0.15368 0.59815,0.10196 0.59814,0.0482 0.59815,0.1632 0.59814,0.0361 0.59814,0.17487 0.59815,0.0333 0.59814,0.0822 0.59815,-0.0512 0.59814,0.23583 0.59814,0.0502 0.59815,0.14885 0.59814,0.14709 0.59815,0.0968 0.59814,0.20226 0.59814,0.009 0.59815,0.16496 0.59814,0.16807 0.59815,0.16916 0.59814,0.14631 0.59814,0.0843 0.59815,0.0723 0.59814,0.24948 0.59815,0.18083 0.59814,0.14744 0.59814,0.19927 0.59815,0.19003 0.59814,0.14258 0.59815,0.0897 0.59814,0.0914 0.59814,0.13965 0.59815,0.11606 0.59814,0.1186 0.59815,0.22032 0.59814,0.0883 0.59814,0.19871 0.59815,0.24214 0.59814,0.0726 0.59815,0.1979 0.59814,0.13542 0.59814,0.0505 0.59815,0.0327 0.59814,0.12837 0.59815,0.13358 0.59814,0.0438 0.59814,0.12431 0.59815,0.0833 0.59814,0.0845 0.59815,0.10178 0.59814,0.003 0.59814,0.1461 0.59815,0.12244 0.59814,0.0373 0.59815,0.0437 0.59814,0.074 0.59814,0.14208 0.59815,0.0465 0.59814,0.18041 0.59815,0.0936 0.59814,0.0929 0.59814,0.10157 0.59815,0.0443 0.59814,0.18721 0.59815,0.0836 0.59814,-0.009 0.59814,0.13098 0.59815,0.0322 0.59814,0.0557 0.59815,0.0473 0.59814,0.15027 0.59814,-0.025 0.59815,0.0484 0.59814,0.0756 0.59815,0.009 0.59814,-0.0487 0.59814,0.083 0.59815,0.0698 0.59814,0.17092 0.59815,0.0369 0.59814,-0.006 0.59814,0.0864 0.59815,0.2145 0.59814,0.0626 0.59815,0.0511 0.59814,0.0614 0.59814,0.0337 0.59815,-0.0733 0.59814,0.0559 0.59815,0.003 0.59814,0.11511 0.59814,0.0342 0.59815,0.11254 0.59814,-0.0661 0.59815,0.0413 0.59814,-0.0774 0.59814,0.1508 0.59815,0.10464 0.59814,0.0703 0.59815,-0.0404 0.59814,0.10024 0.59814,0.11106 0.59815,-0.0894 0.59814,0.01 0.59815,0.0311 0.59814,0.067 0.59814,0.05 0.59815,0.0446 0.59814,0.0644 0.59815,0.0245 0.59814,0.094 0.59814,0.15013 0.59815,0.15216 0.59814,0.0622 0.59815,-0.019 0.59814,0.0616 0.59814,0.10824 0.59815,0.079 0.59814,0.0438 0.59815,0.11275 0.59814,0.0588 0.59814,0.0159 0.59815,-0.0946 0.59814,0.057 0.59815,-0.0644 0.59814,0.1271 0.59814,1.8e-4 0.59815,-0.007 0.59814,-0.0147 0.59815,0.15664 0.59814,-0.0531 0.59814,0.0476 0.59815,-0.0897 0.59814,0.0385 0.59815,-0.0787 0.59814,-0.0503 0.59814,0.0231 0.59815,0.0111 0.59814,0.0547 0.59815,0.0217 0.59814,0.0426 0.59814,-0.0532 0.59815,0.0655 0.59814,0.0258 0.59815,0.0111 0.59814,0.0753 0.59814,0.13909 0.59815,-4.9e-4 0.59814,0.0266 0.59815,-0.002 0.59814,-0.0917 0.59814,0.0203 0.59815,-0.0155 0.59814,-0.0372 0.59815,-0.0574 0.59814,0.0179 0.59814,-0.007 0.59815,-0.0331 0.59814,0.0684 0.59815,-0.0235 0.59814,-0.0303 0.59814,8.1e-4 0.59815,-0.0153 0.59814,-0.091 0.59815,-0.0215 0.59814,-0.0396 0.59814,0.02 0.59815,0.031 0.59814,0.0891 0.59815,-0.01 0.59814,0.12018 0.59814,-0.0102 0.59815,-0.0276 0.59814,4.6e-4 0.59815,-0.0358 0.59814,-0.0691 0.59814,0.0934 0.59815,0.10641 0.59814,0.005 0.59815,0.002 0.59814,-0.032 0.59814,-0.0228 0.59815,-0.007 0.59814,-0.0598 0.59815,-0.0144 0.59814,0.0699 0.59814,-0.10256 0.59815,-0.0442 0.59814,-0.0916 0.59815,0.0306 0.59814,-0.0251 0.59814,0.0423 0.59815,0.0519 0.59814,0.0242 0.59815,0.0121 0.59814,-0.0468 0.59814,0.0309 0.59815,-0.0164 0.59814,-0.0174 0.59815,0.0167 0.59814,0.0604 0.59814,0.0389 0.59815,0.0308 0.59814,-0.0455 0.59815,0.0573 0.59814,0.0733 0.59814,-0.0871 0.59815,-0.004 0.59814,-0.0557 0.59815,0.01 0.59814,-0.0652 0.59814,0.009 0.59815,-0.0365 0.59814,0.04 0.59815,-0.006 0.59814,0.0411 0.59814,-0.096 0.59815,-0.10394 0.59814,-0.0339 0.59815,0.0328 0.59814,-0.0399 0.59814,-0.0635 0.59815,-0.0565 0.59814,-0.0796 0.59815,-0.13069 0.59814,0.002 0.59814,-0.10891 0.59815,-0.15625 0.59814,0.005 0.59815,-0.10492 0.59814,-0.11539 0.59814,-0.16779 0.59815,0.0919 0.59814,-0.16211 0.59815,-0.0166 0.59814,-0.0589 0.59814,-0.12681 0.59815,-0.0648 0.59814,-0.0261 0.59815,0.004 0.59814,-0.0634 0.59814,-0.0174 0.59815,-0.0524 0.59814,0.052 0.59815,-0.0629 0.59814,-0.0453 0.59814,-0.0415 0.59815,-0.0657 0.59814,0.0156 0.59815,0.0418 0.59814,-0.0947 0.59814,0.0279 0.59815,-0.002 0.59814,-0.0853 0.59815,0.0808 0.59814,-0.10958 0.59814,-0.0735 0.59815,-0.12879 0.59814,-0.0212 0.59815,-0.11473 0.59814,-0.029 0.59814,-0.088 0.59815,-0.0577 0.59814,0.005 0.59815,9.5e-4 0.59814,-0.0872 0.59814,0.0636 0.59815,-0.0704 0.59814,-0.0469 0.59815,-0.004 0.59814,0.0672 0.59814,-0.0289 0.59815,-0.0147 0.59814,-0.0632 0.59815,0.0241 0.59814,0.0766 0.59814,-0.0159 0.59815,0.015 0.59814,-0.007 0.59815,0.0111 0.59814,0.0543 0.59814,-0.0766 0.59815,-0.009 0.59814,-0.024 0.59815,-0.0174 0.59814,-0.0468 0.59814,-0.12777 0.59815,-0.0822 0.59814,0.0356 0.59815,-0.0818 0.59814,-0.009 0.59814,-0.0456 0.59815,-0.0487 0.59814,-0.0454 0.59815,-0.0357 0.59814,-0.0331 0.59814,-0.0314 0.59815,-0.0679 0.59814,-0.0566 0.59815,-0.0114 0.59814,0.095 0.59814,-0.13224 0.59815,-0.0783 0.59814,0.004 0.59815,-0.10235 0.59814,0.008 0.59814,-0.009 0.59815,0.0128 0.59814,0.004 0.59815,0.0217 0.59814,-0.0801" />
                </g>
              </g>
            </g>
          </g>
        </g>
      </g>
    </g>
    <g
       id="AxisItem_3"
       style="fill:none;stroke:#000000;stroke-width:1;stroke-linecap:square;stroke-linejoin:bevel"
       transform="translate(0,-144)">
      <g
         font-size="11.875"
         font-style="normal"
         font-weight="400"
         id="g178"
         style="font-size:11.875px;font-style:normal;font-weight:400;fill:none;stroke:#969696;stroke-width:1;stroke-linecap:square;stroke-linejoin:bevel;stroke-opacity:1;font-family:Sans Serif">
        <polyline
           points="45.0,322.333 45.0,396.446566312"
           vector-effect="non-scaling-stroke"
           id="polyline180"
           style="fill:none" />
      </g>
      <g
         font-size="11.875"
         font-style="normal"
         font-weight="400"
         id="g182"
         style="font-size:11.875px;font-style:normal;font-weight:400;fill:none;stroke:#969696;stroke-width:1;stroke-linecap:square;stroke-linejoin:bevel;stroke-opacity:1;font-family:Sans Serif">
        <polyline
           points="45.5,359.389833688 50.5,359.389833688"
           vector-effect="non-scaling-stroke"
           id="polyline184"
           style="fill:none" />
      </g>
      <g
         font-size="11.875"
         font-style="normal"
         font-weight="400"
         id="g186"
         style="font-size:11.875px;font-style:normal;font-weight:400;fill:none;stroke:#969696;stroke-width:1;stroke-linecap:square;stroke-linejoin:bevel;stroke-opacity:0.49803904;font-family:Sans Serif">
        <polyline
           points="45.5,395.021361784 48.8333,395.021361784"
           vector-effect="non-scaling-stroke"
           id="polyline188"
           style="fill:none" />
        <polyline
           points="45.5,323.758265166 48.8333,323.758265166"
           vector-effect="non-scaling-stroke"
           id="polyline190"
           style="fill:none" />
      </g>
      <g
         font-size="11.875"
         font-style="normal"
         font-weight="400"
         id="g192"
         style="font-size:11.875px;font-style:normal;font-weight:400;fill:none;stroke:#969696;stroke-width:1;stroke-linecap:square;stroke-linejoin:bevel;stroke-opacity:0.33333297;font-family:Sans Serif">
        <polyline
           points="45.5,387.895035952 48.0,387.895035952"
           vector-effect="non-scaling-stroke"
           id="polyline194"
           style="fill:none" />
        <polyline
           points="45.5,380.76871012 48.0,380.76871012"
           vector-effect="non-scaling-stroke"
           id="polyline196"
           style="fill:none" />
        <polyline
           points="45.5,373.642384288 48.0,373.642384288"
           vector-effect="non-scaling-stroke"
           id="polyline198"
           style="fill:none" />
        <polyline
           points="45.5,366.516058456 48.0,366.516058456"
           vector-effect="non-scaling-stroke"
           id="polyline200"
           style="fill:none" />
        <polyline
           points="45.5,352.263507856 48.0,352.263507856"
           vector-effect="non-scaling-stroke"
           id="polyline202"
           style="fill:none" />
        <polyline
           points="45.5,345.137182024 48.0,345.137182024"
           vector-effect="non-scaling-stroke"
           id="polyline204"
           style="fill:none" />
        <polyline
           points="45.5,338.010856192 48.0,338.010856192"
           vector-effect="non-scaling-stroke"
           id="polyline206"
           style="fill:none" />
        <polyline
           points="45.5,330.884570786 48.0,330.884570786"
           vector-effect="non-scaling-stroke"
           id="polyline208"
           style="fill:none" />
      </g>
      <g
         font-size="11.875"
         font-style="normal"
         font-weight="400"
         transform="matrix(1,0,0,1.01064,5.5,322.333)"
         id="g210"
         style="font-size:11.875px;font-style:normal;font-weight:400;fill:none;stroke:#969696;stroke-width:1;stroke-linecap:square;stroke-linejoin:bevel;stroke-opacity:1;font-family:Sans Serif">
        <text
           font-size="11.875"
           font-style="normal"
           font-weight="400"
           x="31"
           xml:space="preserve"
           y="40.6562"
           id="text212"
           style="font-size:11.875px;font-style:normal;font-weight:400;fill:#969696;fill-opacity:1;stroke:none">0</text>
        <text
           font-size="11.875"
           font-style="normal"
           font-weight="400"
           x="19"
           xml:space="preserve"
           y="75.921898"
           id="text214"
           style="font-size:11.875px;font-style:normal;font-weight:400;fill:#969696;fill-opacity:1;stroke:none">-10</text>
        <text
           font-size="11.875"
           font-style="normal"
           font-weight="400"
           x="23"
           xml:space="preserve"
           y="5.4218798"
           id="text216"
           style="font-size:11.875px;font-style:normal;font-weight:400;fill:#969696;fill-opacity:1;stroke:none">10</text>
      </g>
    </g>
    <g
       id="ViewBox_5"
       style="fill:none;stroke:#000000;stroke-width:1;stroke-linecap:square;stroke-linejoin:bevel"
       transform="translate(0,-144)">
      <g
         font-size="11.875"
         font-style="normal"
         font-weight="400"
         id="g219"
         style="font-size:11.875px;font-style:normal;font-weight:400;fill:none;stroke:none;font-family:Sans Serif">
        <path
           d="m 45,322.333 616,0 0,73.3333 -616,0 0,-73.3333"
           vector-effect="non-scaling-stroke"
           id="path221"
           inkscape:connector-curvature="0" />
      </g>
      <clipPath
         id="ViewBox_5_clip">
        <path
           d="m 45,322.333 616,0 0,73.334 -616,0 0,-73.334"
           vector-effect="non-scaling-stroke"
           id="path224"
           inkscape:connector-curvature="0" />
      </clipPath>
      <g
         clip-path="url(#ViewBox_5_clip)"
         id="g226">
        <g
           id="ChildGroup_5"
           style="fill:none;stroke:#000000;stroke-width:1;stroke-linecap:square;stroke-linejoin:bevel">
          <g
             id="InfiniteLine_3"
             style="fill:none;stroke:#000000;stroke-width:1;stroke-linecap:square;stroke-linejoin:bevel">
            <g
               font-size="11.875"
               font-style="normal"
               font-weight="400"
               id="g230"
               style="font-size:11.875px;font-style:normal;font-weight:400;fill:none;stroke:#e6e6af;stroke-width:1;stroke-linecap:square;stroke-linejoin:bevel;stroke-opacity:1;font-family:Sans Serif">
              <polyline
                 points="661.00071664,359.0 44.9999649216,359.0"
                 vector-effect="non-scaling-stroke"
                 id="polyline232"
                 style="fill:none" />
            </g>
          </g>
          <g
             id="PlotDataItem_5">
            <g
               id="PlotCurveItem_5"
               style="fill:none;stroke:#000000;stroke-width:1;stroke-linecap:square;stroke-linejoin:bevel">
              <g
                 font-size="11.875"
                 font-style="normal"
                 font-weight="400"
                 id="g236"
                 style="font-size:11.875px;font-style:normal;font-weight:400;fill:none;stroke:#0000ff;stroke-width:1;stroke-linecap:square;stroke-linejoin:bevel;stroke-opacity:1;font-family:Sans Serif">
                <path
                   d="m 29.4743,350.64423 0.598144,1.65705 0.598144,0.21154 0.598144,-0.88141 0.598144,-1.69227 0.598144,2.53843 0.598144,-0.42308 0.598144,1.02243 0.598144,-3.84294 0.598144,2.29166 0.598144,0.45834 0.598144,1.30448 0.598144,0.77564 0.598144,0.95196 0.598144,-1.09298 0.598144,-0.84616 0.598144,0.49359 0.598144,-0.59935 0.598144,-0.21154 0.598144,2.29166 0.598144,-2.57371 0.598144,1.09294 0.598144,-2.71474 0.598144,0.35257 0.598144,-0.17625 0.598144,-0.31734 0.598144,0.5641 0.598144,1.69231 0.598144,2.00965 0.598144,-0.17632 0.598144,-1.05769 0.598144,-1.72757 0.598144,1.79808 0.598144,-0.59936 0.598144,-0.98718 0.598144,-0.10577 0.598144,-1.375 0.598144,1.375 0.598144,2.11539 0.598144,-0.70513 0.598144,-1.41026 0.598144,-1.05769 0.598144,-0.14103 0.598144,0.52885 0.598144,2.67949 0.598144,-0.66987 0.598144,-2.67949 0.598144,2.53846 0.598144,0.49359 0.598144,-0.66987 0.598144,-0.42308 0.598144,0.42308 0.598144,1.48077 0.598144,-1.12821 0.598144,-0.49359 0.598144,-1.69231 0.598144,0.38786 0.598144,2.04484 0.598144,-1.41026 0.598144,0.66987 0.598144,1.02244 0.598144,2.15064 0.598144,-5.1474 0.598144,1.05766 0.598144,-1.6218 0.598144,0.74039 0.598144,1.55128 0.598144,-0.35257 0.598144,-0.45833 0.598144,-0.28205 0.598144,1.72756 0.598144,1.48077 0.598144,-3.8782 0.598144,2.04487 0.598144,0.31731 0.598144,0.38782 0.598144,-2.22116 0.598144,1.6218 0.598144,-0.2468 0.598144,1.30449 0.598144,-2.15064 0.598144,1.9391 0.598144,0.59936 0.598144,-3.41987 0.598144,1.55128 0.598144,3.80769 0.598144,-4.125 0.598144,0.0353 0.598144,0.21154 0.598144,-0.74035 0.598144,1.33971 0.598144,-2.50321 0.598144,-0.66983 0.598144,2.53842 0.598144,1.76282 0.598144,-1.33974 0.598144,-0.35257 0.598144,0.77565 0.598144,0.74038 0.598144,-0.91667 0.598144,-1.5865 0.598144,3.13778 0.598144,0.95193 0.598144,-2.67949 0.598144,-2.67949 0.598144,2.04488 0.598144,-0.10577 0.598144,0.0353 0.598144,0.63462 0.598144,-0.38782 0.598144,0.49359 0.598144,1.33974 0.598144,-2.1859 0.598144,-0.38778 0.598144,1.44548 0.598144,1.62183 0.598144,-1.86863 0.598144,-2.32692 0.598142,0.63461 0.59815,2.29167 0.59814,0.74038 0.59814,-2.74996 0.59815,0.95189 0.59814,1.05769 0.59815,0.8109 0.59814,-2.57372 0.59814,-0.74038 0.59815,-1.44552 0.59814,1.26927 0.59815,4.47753 0.59814,-4.05449 0.59814,3.38461 0.59815,-4.54807 0.59814,0.91667 0.59815,2.08012 0.59814,-4.19551 0.59814,3.59615 0.59815,-0.38782 0.59814,1.76282 0.59815,-1.23397 0.59814,1.65705 0.59814,-4.97115 0.59815,1.48077 0.59814,-0.77564 0.59815,0.45833 0.59814,2.15064 0.59814,-0.52885 0.59815,0.31731 0.59814,2.11539 0.59815,-3.91343 0.59814,5.25317 0.59814,-1.86859 0.59815,-1.16346 0.59814,-2.04487 0.59815,4.05448 0.59814,-2.85577 0.59814,-1.62179 0.59815,2.46795 0.59814,0.66987 0.59815,-1.05769 0.59814,-0.21154 0.59814,-0.8109 0.59815,0.74039 0.59814,0.14102 0.59815,1.33975 0.59814,-2.36218 0.59814,1.58653 0.59815,0.95193 0.59814,-2.57372 0.59815,-0.56407 0.59814,2.74997 0.59814,0.0705 0.59815,1.58654 0.59814,-2.39744 0.59815,-2.08009 0.59814,3.87817 0.59814,-2.50321 0.59815,0 0.59814,1.41026 0.59815,0.42308 0.59814,-1.16346 0.59814,-1.30449 0.59815,2.32692 0.59814,-1.48077 0.59815,-0.45833 0.59814,0.95192 0.59814,-2.92628 0.59815,3.03205 0.59814,-1.02243 0.59815,0.66987 0.59814,0.24679 0.59814,-0.63461 0.59815,1.58654 0.59814,0.66987 0.59815,-1.12821 0.59814,1.79808 0.59814,1.375 0.59815,-3.24359 0.59814,-3.10256 0.59815,1.09294 0.59814,2.82052 0.59814,-0.21154 0.59815,-2.60898 0.59814,0.84616 0.59815,3.13782 0.59814,-0.45834 0.59814,-1.41025 0.59815,-3.41984 0.59814,2.50317 0.59815,3.38462 0.59814,-2.29167 0.59814,-3.38461 0.59815,4.01923 0.59814,-1.30449 0.59815,0.38782 0.59814,-1.16346 0.59814,1.55128 0.59815,-1.55128 0.59814,-1.09295 0.59815,1.30449 0.59814,0.24679 0.59814,-0.42308 0.59815,-1.02243 0.59814,-0.10577 0.59815,1.9391 0.59814,0.0353 0.59814,2.96154 0.59815,-4.125 0.59814,0.88141 0.59815,0.66987 0.59814,3.3141 0.59814,-4.125 0.59815,0.2468 0.59814,-1.97433 0.59815,0.49356 0.59814,0.28205 0.59814,-0.0353 0.59815,0.84616 0.59814,-0.91667 0.59815,-0.28205 0.59814,-0.14103 0.59814,0.70517 0.59815,1.3397 0.59814,-0.52884 0.59815,1.86859 0.59814,-3.45513 0.59814,1.55128 0.59815,-1.30449 0.59814,2.1859 0.59815,-2.1859 0.59814,0.31731 0.59814,2.04487 0.59815,-1.72756 0.59814,2.46795 0.59815,1.02243 0.59814,-3.45512 0.59814,0.63461 0.59815,-0.49359 0.59814,2.11539 0.59815,-4.83013 0.59814,2.46795 0.59814,-2.29167 0.59815,2.67949 0.59814,3.56089 0.59815,-3.63141 0.59814,0.42308 0.59814,0.66987 0.59815,-1.1282 0.59814,1.23397 0.59815,0.63462 0.59814,-1.41026 0.59814,-0.28205 0.59815,2.25641 0.59814,-3.17308 0.59815,3.20834 0.59814,-2.53846 0.59814,1.26923 0.59815,-2.1859 0.59814,1.33974 0.59815,0.5641 0.59814,0.91667 0.59814,-1.86859 0.59815,-2.04483 0.59814,3.59611 0.59815,-3.3141 0.59814,4.51282 0.59814,-4.19551 0.59815,1.65705 0.59814,0.31731 0.59815,-0.81086 0.59814,0.88137 0.59814,0.59936 0.59815,-2.29163 0.59814,2.78522 0.59815,1.26923 0.59814,-1.69231 0.59814,-0.31731 0.59815,-2.29166 0.59814,0.74038 0.59815,1.76282 0.59814,-1.6923 0.59814,0.95192 0.59815,0.31731 0.59814,0.28205 0.59815,-1.23394 0.59814,-0.56414 0.59814,1.76282 0.59815,1.09295 0.59814,-1.51603 0.59815,2.53847 0.59814,-1.48077 0.59814,-1.44552 0.59815,-1.23397 0.59814,1.58654 0.59815,-0.84616 0.59814,-1.76282 0.59814,-0.77564 0.59815,4.86539 0.59814,-3.10253 0.59815,2.64419 0.59814,-2.36218 0.59814,3.45513 0.59815,-4.30128 0.59814,2.15064 0.59815,0.17628 0.59814,-2.64419 0.59814,5.07689 0.59815,-0.77565 0.59814,-2.08012 0.59815,0.49359 0.59814,-0.2468 0.59814,-0.98718 0.59815,-3.49038 0.59814,3.91346 0.59815,-0.74039 0.59814,-0.5641 0.59814,-0.24679 0.59815,2.46795 0.59814,-0.88141 0.59815,-0.31728 0.59814,2.04484 0.59814,-2.08013 0.59815,2.64423 0.59814,-1.26923 0.59815,-2.1859 0.59814,3.52564 0.59814,-5.53525 0.59815,4.26602 0.59814,-2.00961 0.59815,1.26923 0.59814,-1.90385 0.59814,0.98718 0.59815,0.88141 0.59814,2.89103 0.59815,-2.11539 0.59814,1.30449 0.59814,-2.92628 0.59815,0.88141 0.59814,2.78526 0.59815,-1.72757 0.59814,0.63462 0.59814,-3.38462 0.59815,0.98718 0.59814,-0.7756 0.59815,2.11534 0.59814,-1.33974 0.59814,1.12821 0.59815,0.5641 0.59814,-0.0705 0.59815,-0.31731 0.59814,-1.69231 0.59814,1.33974 0.59815,-1.48076 0.59814,-1.41026 0.59815,3.59615 0.59814,-1.19872 0.59814,2.82055 0.59815,-3.87824 0.59814,0.52885 0.59815,2.92628 0.59814,-7.26282 0.59814,6.52244 0.59815,-2.57372 0.59814,0.49362 0.59815,-0.17631 0.59814,0.77564 0.59814,-2.32693 0.59815,1.79812 0.59814,-0.5994 0.59815,1.16346 0.59814,-2.22115 0.59814,-0.21154 0.59815,2.53846 0.59814,0.17628 0.59815,-1.86855 0.59814,-1.76285 0.59814,0.24679 0.59815,1.90385 0.59814,0.35256 0.59815,-0.28205 0.59814,2.22115 0.59814,-4.51282 0.59815,1.02247 0.59814,3.17304 0.59815,-2.32692 0.59814,0.74039 0.59814,-0.38782 0.59815,5.64102 0.59814,-5.60577 0.59815,1.86859 0.59814,-0.8109 0.59814,-3.52564 0.59815,0.66988 0.59814,2.00961 0.59815,0.74038 0.59814,-0.5641 0.59814,0.5641 0.59815,-0.95192 0.59814,0.0353 0.59815,-0.70513 0.59814,-2.32692 0.59814,1.33974 0.59815,0.70513 0.59814,1.76282 0.59815,-3.5609 0.59814,1.44555 0.59814,-0.98721 0.59815,1.93913 0.59814,-2.11542 0.59815,1.51603 0.59814,-0.45833 0.59814,2.89102 0.59815,-0.84615 0.59814,-1.83334 0.59815,-0.70512 0.59814,2.75 0.59814,-3.10257 0.59815,-0.10577 0.59814,-0.21154 0.59815,0.0705 0.59814,3.63141 0.59814,-3.98398 0.59815,3.31414 0.59814,-1.90388 0.59815,0.74038 0.59814,-1.30448 0.59814,1.19871 0.59815,-0.3173 0.59814,1.05769 0.59815,-0.59936 0.59814,1.05769 0.59814,-2.32692 0.59815,1.09295 0.59814,-2.22115 0.59815,3.56089 0.59814,-1.83333 0.59814,-1.02244 0.59815,-0.66987 0.59814,1.79811 0.59815,-1.90388 0.59814,2.22116 0.59814,-1.0577 0.59815,-0.0353 0.59814,2.22115 0.59815,-3.03205 0.59814,1.19872 0.59814,-0.74039 0.59815,0.28205 0.59814,0.56411 0.59815,-1.23398 0.59814,2.11539 0.59814,-2.04487 0.59815,-0.31731 0.59814,0.49359 0.59815,-0.59936 0.59814,-0.14103 0.59814,0.66987 0.59815,1.02244 0.59814,0.74038 0.59815,-0.59935 0.59814,2.64423 0.59814,-2.92629 0.59815,-1.48076 0.59814,3.63144 0.59815,-2.89106 0.59814,1.26927 0.59814,2.50317 0.59815,-4.44231 0.59814,3.34936 0.59815,-1.76282 0.59814,0 0.59814,-1.30449 0.59815,1.23397 0.59814,-2.99679 0.59815,3.06731 0.59814,2.39743 0.59814,-3.80769 0.59815,0.84615 0.59814,-0.74038 0.59815,1.97436 0.59814,-2.60898 0.59814,2.78526 0.59815,-1.30449 0.59814,0.98718 0.59815,-0.10573 0.59814,-4e-5 0.59814,-0.49359 0.59815,-1.23397 0.59814,0.74038 0.59815,-0.81089 0.59814,0.14102 0.59814,0 0.59815,1.12821 0.59814,0.0353 0.59815,-0.10577 0.59814,0.10577 0.59814,0.52885 0.59815,0.0353 0.59814,-1.09295 0.59815,-0.49359 0.59814,1.48077 0.59814,-2.11539 0.59815,0.42308 0.59814,1.86859 0.59815,-2.43269 0.59814,1.23397 0.59814,0.84619 0.59815,-0.28209 0.59814,-0.63461 0.59815,-0.17628 0.59814,0.28205 0.59814,-0.10577 0.59815,3.06731 0.59814,-2.4327 0.59815,0.49363 0.59814,0.56407 0.59814,-1.30449 0.59815,-0.84615 0.59814,2.25644 0.59815,1.93907 0.59814,-4.9359 0.59814,1.9391 0.59815,0.88141 0.59814,-1.33974 0.59815,2.22115 0.59814,-2.43269 0.59814,0.0705 0.59815,-0.45833 0.59814,1.6218 0.59815,-2.75 0.59814,2.50324 0.59814,-3.41991 0.59815,-0.24679 0.59814,0.14102 0.59815,1.72756 0.59814,-0.98717 0.59814,0 0.59815,1.23397 0.59814,0.42308 0.59815,-1.76282 0.59814,-0.0705 0.59814,-1.58653 0.59815,2.53846 0.59814,-0.66988 0.59815,-0.77564 0.59814,-2.78525 0.59814,1.86859 0.59815,-0.21154 0.59814,-0.91667 0.59815,-0.52884 0.59814,-0.14103 0.59814,0.95192 0.59815,0.98718 0.59814,-1.05769 0.59815,-0.28205 0.59814,-0.35256 0.59814,-0.0705 0.59815,-1.16342 0.59814,-0.52888 0.59815,0 0.59814,0.95192 0.59814,-0.95192 0.59815,0.45833 0.59814,-3.27885 0.59815,1.83334 0.59814,0.14102 0.59814,-2.36218 0.59815,0.2468 0.59814,-1.48077 0.59815,1.69231 0.59814,-0.70513 0.59814,-0.31731 0.59815,-2.22115 0.59814,-0.49359 0.59815,0.0705 0.59814,-0.28205 0.59814,-0.21154 0.59815,-2.04487 0.59814,0.0353 0.59815,-0.28205 0.59814,-0.63462 0.59814,-0.98718 0.59815,-0.95192 0.59814,-1.02244 0.59815,-1.02243 0.59814,-1.02244 0.59814,-0.5641 0.59815,-1.05769 0.59814,-0.59936 0.59815,-0.88141 0.59814,-0.38782 0.59814,0 0.59815,0.0353 0.59814,0 0.59815,0 0.59814,-0.0353 0.59814,0.0353 0.59815,0.28206 0.59814,2.2564 0.59815,4.16026 0.59814,1.02244 0.59814,4.90064 0.59815,6.76922 0.59814,8.77885 0.59815,4.40705 0.59814,3.31413 0.59814,-1.93913 0.59815,1.55128 0.59814,0.63461 0.59815,-1.58653 0.59814,0.38782 0.59814,-0.0705 0.59815,1.69231 0.59814,-3.66663 0.59815,3.66663 0.59814,-2.32692 0.59814,-0.17628 0.59815,0.77564 0.59814,4.40705 0.59815,-5.32372 0.59814,2.25641 0.59814,-1.16346 0.59815,2.15064 0.59814,-0.77564 0.59815,-5.21795 0.59814,3.52564 0.59814,-1.86859 0.59815,2.08013 0.59814,1.72756 0.59815,-5.18269 0.59814,3.06731 0.59814,1.37503 0.59815,-1.69234 0.59814,3.70192 0.59815,-1.86859 0.59814,2.67949 0.59814,-1.55128 0.59815,1.33974 0.59814,-2.18589 0.59815,-1.375 0.59814,1.90388 0.59814,1.51599 0.59815,-3.84295 0.59814,1.48077 0.59815,0.35256 0.59814,-0.49359 0.59814,1.09295 0.59815,-0.70513 0.59814,-1.86859 0.59815,1.48077 0.59814,-0.28205 0.59814,-2.46795 0.59815,0.35257 0.59814,3.49038 0.59815,-5.14743 0.59814,-0.28205 0.59814,2.53846 0.59815,-2.15064 0.59814,2.64423 0.59815,-3.38462 0.59814,5.92308 0.59814,-4.3718 0.59815,2.00962 0.59814,0.91666 0.59815,0.74039 0.59814,-0.59936 0.59814,2.36218 0.59815,-0.91667 0.59814,-0.52884 0.59815,-4.08975 0.59814,0.28209 0.59814,1.76279 0.59815,0.38782 0.59814,0.0705 0.59815,0.49359 0.59814,-0.8109 0.59814,0.88141 0.59815,-1.30449 0.59814,2.1859 0.59815,-0.77564 0.59814,-1.1282 0.59814,1.48076 0.59815,-0.52884 0.59814,0.52884 0.59815,-1.1282 0.59814,3.49038 0.59814,-7.01602 0.59815,3.80769 0.59814,-3.3141 0.59815,1.26923 0.59814,2.08013 0.59814,-0.52885 0.59815,1.97436 0.59814,-1.48077 0.59815,0.14103 0.59814,1.76282 0.59814,-1.72757 0.59815,1.26923 0.59814,-2.43269 0.59815,-0.59936 0.59814,1.12821 0.59814,-0.42308 0.59815,-1.51599 0.59814,3.56086 0.59815,-2.25641 0.59814,1.76282 0.59814,-2.85577 0.59815,0.91667 0.59814,5.14743 0.59815,-4.58333 0.59814,2.08013 0.59814,0.14103 0.59815,-2.67949 0.59814,-0.21154 0.59815,3.94872 0.59814,-0.28205 0.59814,-2.36218 0.59815,1.05769 0.59814,-1.97436 0.59815,5.04167 0.59814,-2.89103 0.59814,-0.84615 0.59815,-1.97436 0.59814,1.9391 0.59815,-0.10577 0.59814,-2.32692 0.59814,2.08013 0.59815,1.72756 0.59814,-2.00961 0.59815,1.33974 0.59814,0.24679 0.59814,-4.47756 0.59815,-0.0705 0.59814,1.44551 0.59815,1.83333 0.59814,1.97436 0.59814,-3.73718 0.59815,1.79808 0.59814,0.1058 0.59815,-0.56413 0.59814,-0.42308 0.59814,2.89103 0.59815,-3.45513 0.59814,1.33974 0.59815,-3.41987 0.59814,6.83974 0.59814,1.30449 0.59815,-7.93269 0.59814,4.97115 0.59815,0.21154 0.59814,-1.90385 0.59814,-1.16346 0.59815,0.74039 0.59814,2.08012 0.59815,0.70513 0.59814,-1.19871 0.59814,-4.68911 0.59815,5.28846 0.59814,-4.51282 0.59815,4.19552 0.59814,-4.01923 0.59814,2.29166 0.59815,0.52885 0.59814,-0.21154 0.59815,2.36218 0.59814,-4.51282 0.59814,1.30449 0.59815,2.39747 0.59814,-4.75965 0.59815,4.61859 0.59814,-4.40705 0.59814,2.96153 0.59815,-0.38782 0.59814,0.95193 0.59815,-0.14103 0.59814,-0.0705 0.59814,-3.34936 0.59815,1.65705 0.59814,2.25641 0.59815,-3.20833 0.59814,2.46795 0.59814,-0.38782 0.59815,-0.17629 0.59814,-4.75961 0.59815,4.72436 0.59814,0.24679 0.59814,0.74039 0.59815,-0.28205 0.59814,-1.44552 0.59815,2.89103 0.59814,-1.76282 0.59814,-1.86859 0.59815,1.97436 0.59814,-0.2468 0.59815,-0.38782 0.59814,0.0705 0.59814,-1.41025 0.59815,1.72756 0.59814,0.0353 0.59815,0.10577 0.59814,0.91666 0.59814,-0.81089 0.59815,-1.33975 0.59814,-2.08012 0.59815,3.38461 0.59814,-0.88141 0.59814,1.65705 0.59815,-0.21154 0.59814,0.66987 0.59815,-2.04487 0.59814,-1.09295 0.59814,0.0705 0.59815,4.40705 0.59814,-1.86859 0.59815,0.63461 0.59814,1.23398 0.59814,-4.79487 0.59815,1.65705 0.59814,-2.50321 0.59815,5.21795 0.59814,-1.83333 0.59814,2.99679 0.59815,-2.57372 0.59814,-0.95192 0.59815,-4.47756 0.59814,6.24042 0.59814,0.2115 0.59815,-5.35897 0.59814,1.9391 0.59815,-1.55128 0.59814,3.45513 0.59814,-3.03206 0.59815,-0.91666 0.59814,2.00961 0.59815,-2.64423 0.59814,5.42949 0.59814,-4.01923 0.59815,5.53525 0.59814,-3.98397 0.59815,0.10577 0.59814,1.30449 0.59814,-1.69231 0.59815,-0.28205 0.59814,2.11538 0.59815,-0.95192 0.59814,-0.42308 0.59814,0.8109 0.59815,0.0705 0.59814,2.92628 0.59815,-4.90064 0.59814,2.04488 0.59814,-4.12497 0.59815,4.12497 0.59814,0.49359 0.59815,0.10576 0.59814,-1.86858 0.59814,1.09294 0.59815,1.02247 0.59814,-3.4199 0.59815,4.93589 0.59814,-2.89102 0.59814,-0.2468 0.59815,1.48077 0.59814,3.70193 0.59815,-2.89103 0.59814,-4.58333 0.59814,3.38461 0.59815,-0.42307 0.59814,0.59936 0.59815,-0.74039 0.59814,-0.63461 0.59814,1.02243 0.59815,1.6218 0.59814,-1.48077 0.59815,-1.0577 0.59814,1.97436 0.59814,-2.71474 0.59815,2.43269 0.59814,-2.25641 0.59815,0.98718 0.59814,0.59936 0.59814,-2.04487 0.59815,3.73718 0.59814,-0.8109 0.59815,-0.31731 0.59814,-0.88141 0.59814,1.02244 0.59815,-2.00962 0.59814,4.16026 0.59815,-0.91667 0.59814,-3.45512 0.59814,2.53846 0.59815,-1.19872 0.59814,-1.12821 0.59815,1.69231 0.59814,-2.60897 0.59814,1.26923 0.59815,0 0.59814,0.45833 0.59815,0.98718 0.59814,-0.5641 0.59814,2.00961 0.59815,-2.75 0.59814,3.52564 0.59815,-1.19871 0.59814,-5.71154 0.59814,0.8109 0.59815,2.18589 0.59814,1.33975 0.59815,-5.85257 0.59814,5.11218 0.59814,0.74039 0.59815,-2.71475 0.59814,3.5609 0.59815,-0.0705 0.59814,-4.86539 0.59814,3.66667 0.59815,-1.30449 0.59814,1.72757 0.59815,0.91666 0.59814,0.52888 0.59814,-2.50324 0.59815,0.91667 0.59814,1.05769 0.59815,-2.64423 0.59814,3.80769 0.59814,-4.37179 0.59815,3.03205 0.59814,-4.19551 0.59815,3.10256 0.59814,0.42308 0.59814,-0.77564 0.59815,-0.70513 0.59814,-1.79808 0.59815,3.77244 0.59814,-2.11535 0.59814,3.66663 0.59815,-3.06731 0.59814,-0.5641 0.59815,-1.69231 0.59814,0.17629 0.59814,0.49362 0.59815,4.9006 0.59814,-1.79807 0.59815,-1.69231 0.59814,3.70192 0.59814,-0.5641 0.59815,-0.59932 0.59814,-1.30452 0.59815,-4.68907 0.59814,1.48073 0.59814,0.45834 0.59815,2.5032 0.59814,0.21154 0.59815,-0.91667 0.59814,0.59936 0.59814,1.44551 0.59815,-2.92628 0.59814,1.86859 0.59815,-1.69227 0.59814,0.0705 0.59814,1.05769 0.59815,-1.23397 0.59814,-2.08013 0.59815,0.45833 0.59814,0.88141 0.59814,0.59936 0.59815,-0.63462 0.59814,2.04488 0.59815,-1.33975 0.59814,2.89103 0.59814,-1.19869 0.59815,-3.70195 0.59814,3.49038 0.59815,2.57372 0.59814,-5.39423 0.59814,2.11538 0.59815,2.15064 0.59814,-2.22115 0.59815,-0.0705 0.59814,1.58654 0.59814,-3.77244 0.59815,2.71474 0.59814,-1.44551 0.59815,1.41026 0.59814,-2.11539 0.59814,3.84295 0.59815,-1.55128 0.59814,2.75 0.59815,-4.40705 0.59814,0.21154 0.59814,-0.21154 0.59815,1.62179 0.59814,-2.67948 0.59815,1.55128 0.59814,-1.6218"
                   vector-effect="non-scaling-stroke"
                   id="path238"
                   inkscape:connector-curvature="0" />
              </g>
            </g>
          </g>
        </g>
      </g>
    </g>
    <g
       style="fill:none;stroke:#000000;stroke-width:1;stroke-linecap:square;stroke-linejoin:bevel"
       id="g3944"
       transform="translate(30.11257,8.26603)">
      <path
         sodipodi:nodetypes="cccc"
         inkscape:connector-curvature="0"
         id="path3237-3"
         d="m 367.72186,6.2747598 0,266.4810902 0,0 0,-0.22152"
         style="fill:none;stroke:#000000;stroke-width:0.56202096;stroke-linecap:butt;stroke-linejoin:miter;stroke-miterlimit:4;stroke-opacity:1;stroke-dasharray:0.56202098, 1.68606294;stroke-dashoffset:0" />
      <text
         sodipodi:linespacing="125%"
         id="text4007-6"
         y="280.81375"
         x="335.78943"
         style="font-size:9px;font-style:normal;font-variant:normal;font-weight:normal;font-stretch:normal;line-height:125%;letter-spacing:0px;word-spacing:0px;fill:#000000;fill-opacity:1;stroke:none;font-family:TeX Gyre Termes;-inkscape-font-specification:TeX Gyre Termes"
         xml:space="preserve"><tspan
           style="font-size:14px"
           y="280.81375"
           x="335.78943"
           id="tspan4009-1"
           sodipodi:role="line">Vehicle at point A</tspan></text>
    </g>
    <text
       xml:space="preserve"
       style="font-size:9px;font-style:normal;font-variant:normal;font-weight:normal;font-stretch:normal;line-height:125%;letter-spacing:0px;word-spacing:0px;fill:#000000;fill-opacity:1;stroke:none;font-family:TeX Gyre Termes;-inkscape-font-specification:TeX Gyre Termes"
       x="30.283724"
       y="289.07977"
       id="text4011-0"
       sodipodi:linespacing="125%"><tspan
         sodipodi:role="line"
         id="tspan4013-5"
         x="30.283724"
         y="289.07977"
         style="font-size:14px">Initial position</tspan></text>
    <text
       xml:space="preserve"
       style="font-size:14px;font-style:normal;font-variant:normal;font-weight:normal;font-stretch:normal;line-height:125%;letter-spacing:0px;word-spacing:0px;fill:#000000;fill-opacity:1;stroke:none;font-family:TeX Gyre Termes;-inkscape-font-specification:TeX Gyre Termes"
       x="52.01944"
       y="163.06294"
       id="text4023-1"
       sodipodi:linespacing="125%"><tspan
         sodipodi:role="line"
         id="tspan4025-7"
         x="52.01944"
         y="163.06294">Sensor unit </tspan></text>
    <text
       xml:space="preserve"
       style="font-size:14px;font-style:normal;font-variant:normal;font-weight:normal;font-stretch:normal;line-height:125%;letter-spacing:0px;word-spacing:0px;fill:#000000;fill-opacity:1;stroke:none;font-family:TeX Gyre Termes;-inkscape-font-specification:TeX Gyre Termes"
       x="52.439453"
       y="81.042877"
       id="text4027-4"
       sodipodi:linespacing="125%"><tspan
         sodipodi:role="line"
         id="tspan4029-6"
         x="52.439453"
         y="81.042877">Motor unit</tspan></text>
    <text
       xml:space="preserve"
       style="font-size:14px;font-style:normal;font-variant:normal;font-weight:normal;font-stretch:normal;line-height:125%;letter-spacing:0px;word-spacing:0px;fill:#000000;fill-opacity:1;stroke:none;font-family:TeX Gyre Termes;-inkscape-font-specification:TeX Gyre Termes"
       x="52.355438"
       y="257.14151"
       id="text4031-9"
       sodipodi:linespacing="125%"><tspan
         sodipodi:role="line"
         id="tspan4033-6"
         x="52.355438"
         y="257.14151">Input transducer</tspan></text>
  </g>
</svg>
