<?xml version="1.0" encoding="UTF-8" standalone="no"?>
<svg
   xmlns:dc="http://purl.org/dc/elements/1.1/"
   xmlns:cc="http://creativecommons.org/ns#"
   xmlns:rdf="http://www.w3.org/1999/02/22-rdf-syntax-ns#"
   xmlns:svg="http://www.w3.org/2000/svg"
   xmlns="http://www.w3.org/2000/svg"
   xmlns:sodipodi="http://sodipodi.sourceforge.net/DTD/sodipodi-0.dtd"
   xmlns:inkscape="http://www.inkscape.org/namespaces/inkscape"
   version="1.2"
   id="svg2"
   inkscape:version="0.48.4 r9939"
   width="635.92017"
   height="290.08301"
   sodipodi:docname="Braiten-1-2-S-S-and-M-M-self-connection-point.3-value.svg">
  <metadata
     id="metadata260">
    <rdf:RDF>
      <cc:Work
         rdf:about="">
        <dc:format>image/svg+xml</dc:format>
        <dc:type
           rdf:resource="http://purl.org/dc/dcmitype/StillImage" />
      </cc:Work>
    </rdf:RDF>
  </metadata>
  <sodipodi:namedview
     pagecolor="#ffffff"
     bordercolor="#666666"
     borderopacity="1"
     objecttolerance="10"
     gridtolerance="10"
     guidetolerance="10"
     inkscape:pageopacity="0"
     inkscape:pageshadow="2"
     inkscape:window-width="1920"
     inkscape:window-height="1026"
     id="namedview258"
     showgrid="false"
     fit-margin-top="0"
     fit-margin-left="0"
     fit-margin-right="0"
     fit-margin-bottom="0"
     inkscape:zoom="0.89702957"
     inkscape:cx="107.52693"
     inkscape:cy="-76.234066"
     inkscape:window-x="1047"
     inkscape:window-y="-3"
     inkscape:window-maximized="1"
     inkscape:current-layer="svg2" />
  <title
     id="title4">pyqtgraph SVG export</title>
  <desc
     id="desc6">Generated with Qt and pyqtgraph</desc>
  <defs
     id="defs8" />
  <g
     id="g3391"
     transform="translate(-25.079834,-1.5723166)">
    <g
       id="GraphicsLayout_1"
       style="fill:none;stroke:#000000;stroke-width:1;stroke-linecap:square;stroke-linejoin:bevel">
      <g
         id="PlotItem_1"
         style="fill:none;stroke:#000000;stroke-width:1;stroke-linecap:square;stroke-linejoin:bevel">
        <g
           id="AxisItem_1"
           style="fill:none;stroke:#000000;stroke-width:1;stroke-linecap:square;stroke-linejoin:bevel">
          <g
             font-size="11.875"
             font-style="normal"
             font-weight="400"
             id="g14"
             style="font-size:11.875px;font-style:normal;font-weight:400;fill:none;stroke:#969696;stroke-width:1;stroke-linecap:square;stroke-linejoin:bevel;stroke-opacity:1;font-family:Sans Serif">
            <polyline
               points="45.0,5.0 45.0,79.113566312"
               vector-effect="non-scaling-stroke"
               id="polyline16"
               style="fill:none" />
          </g>
          <g
             font-size="11.875"
             font-style="normal"
             font-weight="400"
             id="g18"
             style="font-size:11.875px;font-style:normal;font-weight:400;fill:none;stroke:#969696;stroke-width:1;stroke-linecap:square;stroke-linejoin:bevel;stroke-opacity:1;font-family:Sans Serif">
            <polyline
               points="45.5,42.056833688 50.5,42.056833688"
               vector-effect="non-scaling-stroke"
               id="polyline20"
               style="fill:none" />
          </g>
          <g
             font-size="11.875"
             font-style="normal"
             font-weight="400"
             id="g22"
             style="font-size:11.875px;font-style:normal;font-weight:400;fill:none;stroke:#969696;stroke-width:1;stroke-linecap:square;stroke-linejoin:bevel;stroke-opacity:0.49803904;font-family:Sans Serif">
            <polyline
               points="45.5,77.688361784 48.8333,77.688361784"
               vector-effect="non-scaling-stroke"
               id="polyline24"
               style="fill:none" />
            <polyline
               points="45.5,6.4252651664 48.8333,6.4252651664"
               vector-effect="non-scaling-stroke"
               id="polyline26"
               style="fill:none" />
          </g>
          <g
             font-size="11.875"
             font-style="normal"
             font-weight="400"
             id="g28"
             style="font-size:11.875px;font-style:normal;font-weight:400;fill:none;stroke:#969696;stroke-width:1;stroke-linecap:square;stroke-linejoin:bevel;stroke-opacity:0.33333297;font-family:Sans Serif">
            <polyline
               points="45.5,70.562035952 48.0,70.562035952"
               vector-effect="non-scaling-stroke"
               id="polyline30"
               style="fill:none" />
            <polyline
               points="45.5,63.43571012 48.0,63.43571012"
               vector-effect="non-scaling-stroke"
               id="polyline32"
               style="fill:none" />
            <polyline
               points="45.5,56.309384288 48.0,56.309384288"
               vector-effect="non-scaling-stroke"
               id="polyline34"
               style="fill:none" />
            <polyline
               points="45.5,49.183058456 48.0,49.183058456"
               vector-effect="non-scaling-stroke"
               id="polyline36"
               style="fill:none" />
            <polyline
               points="45.5,34.930507856 48.0,34.930507856"
               vector-effect="non-scaling-stroke"
               id="polyline38"
               style="fill:none" />
            <polyline
               points="45.5,27.804182024 48.0,27.804182024"
               vector-effect="non-scaling-stroke"
               id="polyline40"
               style="fill:none" />
            <polyline
               points="45.5,20.677856192 48.0,20.677856192"
               vector-effect="non-scaling-stroke"
               id="polyline42"
               style="fill:none" />
            <polyline
               points="45.5,13.5515707856 48.0,13.5515707856"
               vector-effect="non-scaling-stroke"
               id="polyline44"
               style="fill:none" />
          </g>
          <g
             font-size="11.875"
             font-style="normal"
             font-weight="400"
             transform="matrix(1,0,0,1.01064,5.5,5)"
             id="g46"
             style="font-size:11.875px;font-style:normal;font-weight:400;fill:none;stroke:#969696;stroke-width:1;stroke-linecap:square;stroke-linejoin:bevel;stroke-opacity:1;font-family:Sans Serif">
            <text
               font-size="11.875"
               font-style="normal"
               font-weight="400"
               x="31"
               xml:space="preserve"
               y="40.6562"
               id="text48"
               style="font-size:11.875px;font-style:normal;font-weight:400;fill:#969696;fill-opacity:1;stroke:none">0</text>
            <text
               font-size="11.875"
               font-style="normal"
               font-weight="400"
               x="19"
               xml:space="preserve"
               y="75.921898"
               id="text50"
               style="font-size:11.875px;font-style:normal;font-weight:400;fill:#969696;fill-opacity:1;stroke:none">-10</text>
            <text
               font-size="11.875"
               font-style="normal"
               font-weight="400"
               x="23"
               xml:space="preserve"
               y="5.4218798"
               id="text52"
               style="font-size:11.875px;font-style:normal;font-weight:400;fill:#969696;fill-opacity:1;stroke:none">10</text>
          </g>
        </g>
        <g
           id="ViewBox_1"
           style="fill:none;stroke:#000000;stroke-width:1;stroke-linecap:square;stroke-linejoin:bevel">
          <g
             font-size="11.875"
             font-style="normal"
             font-weight="400"
             id="g55"
             style="font-size:11.875px;font-style:normal;font-weight:400;fill:none;stroke:none;font-family:Sans Serif">
            <path
               d="m 45,5 616,0 0,73.3333 -616,0 L 45,5"
               vector-effect="non-scaling-stroke"
               id="path57"
               inkscape:connector-curvature="0" />
          </g>
          <clipPath
             id="ViewBox_1_clip">
            <path
               d="m 45,5 616,0 0,73.3333 -616,0 L 45,5"
               vector-effect="non-scaling-stroke"
               id="path60"
               inkscape:connector-curvature="0" />
          </clipPath>
          <g
             clip-path="url(#ViewBox_1_clip)"
             id="g62">
            <g
               id="ChildGroup_1"
               style="fill:none;stroke:#000000;stroke-width:1;stroke-linecap:square;stroke-linejoin:bevel">
              <g
                 id="InfiniteLine_1"
                 style="fill:none;stroke:#000000;stroke-width:1;stroke-linecap:square;stroke-linejoin:bevel">
                <g
                   font-size="11.875"
                   font-style="normal"
                   font-weight="400"
                   id="g66"
                   style="font-size:11.875px;font-style:normal;font-weight:400;fill:none;stroke:#e6e6af;stroke-width:1;stroke-linecap:square;stroke-linejoin:bevel;stroke-opacity:1;font-family:Sans Serif">
                  <polyline
                     points="661.001949,41.6667 44.99994235,41.6667"
                     vector-effect="non-scaling-stroke"
                     id="polyline68"
                     style="fill:none" />
                </g>
              </g>
              <g
                 id="PlotDataItem_1">
                <g
                   id="PlotCurveItem_1"
                   style="fill:none;stroke:#000000;stroke-width:1;stroke-linecap:square;stroke-linejoin:bevel">
                  <g
                     font-size="11.875"
                     font-style="normal"
                     font-weight="400"
                     id="g72"
                     style="font-size:11.875px;font-style:normal;font-weight:400;fill:none;stroke:#ff0000;stroke-width:1;stroke-linecap:square;stroke-linejoin:bevel;stroke-opacity:1;font-family:Sans Serif">
                    <path
                       d="m 29.4743,41.717822 0.6053,0.09946 0.6053,0.09223 0.6053,0.05172 0.6053,0.02979 0.6053,-0.03811 0.6053,-0.04478 0.6053,-0.0238 0.6053,-0.05377 0.6053,-0.08941 0.6053,-0.124773 0.6053,0.03095 0.6053,-0.0045 0.6053,0.09748 0.6053,0.0033 0.6053,-0.06015 0.6053,0.0122 0.6053,0.02662 0.6053,-0.08155 0.6053,0.03307 0.6053,-0.02412 0.6053,-0.02517 0.6053,0.05017 0.6053,0.08232 0.6053,0.06914 0.6053,-0.05144 0.6053,-0.0027 0.6053,0.06681 0.6053,-0.06797 0.6053,-0.0054 0.6053,0.0034 0.6053,0.04672 0.6053,0.09551 0.6053,0.06716 0.6053,0.0526 0.6053,-0.0624 0.6053,-0.03991 0.6053,-0.0219 0.6053,0.06621 0.6053,0.0081 0.6053,-0.101539 0.6053,-0.04904 0.6053,-0.01541 0.6053,-0.02683 0.6053,0.0056 0.6053,-0.02186 0.6053,-0.02348 0.6053,-0.04562 0.6053,0.02584 0.6053,-0.02433 0.6053,0.036 0.6053,-0.02221 0.6053,0.0094 0.6053,-0.03092 0.6053,0.02489 0.6053,-0.05391 0.6053,-0.0092 0.6053,0.0318 0.6053,-0.09822 0.6053,-0.0256 0.6053,0.01513 0.6053,-0.04601 0.6053,0.04421 0.6053,-0.09618 0.6053,0.06008 0.6053,-0.04901 0.6053,-0.111868 0.6053,-0.07689 0.6053,0.113984 0.6053,-0.06639 0.6053,-0.044 0.6053,0.06924 0.6053,0.04643 0.6053,-0.06448 0.6053,-0.05444 0.6053,-0.05881 0.6053,0.002 0.6053,0.04164 0.6053,-0.05366 0.6053,-0.07439 0.6053,0.100657 0.6053,0.05451 0.6053,-0.02577 0.6053,0.08063 0.6053,-0.110951 0.6053,-0.07097 0.6053,-0.05024 0.6053,-0.14374 0.6053,0.09981 0.6053,-0.09121 0.6053,-0.149134 0.6053,0.0089 0.6053,-0.05623 0.6053,-0.09389 0.6053,0.07679 0.6053,0.04033 0.6053,-0.03208 0.6053,0.05348 0.6053,-0.01548 0.6053,-0.0838 0.6053,0.03624 0.6053,-0.05024 0.6053,-0.02306 0.6053,0.0293 0.6053,0.05317 0.6053,-0.01153 0.6053,0.0057 0.6053,-0.0019 0.6053,-0.0083 0.6053,-0.02697 0.6053,-0.01629 0.6053,-0.0026 0.6053,0.04146 0.6053,-0.02263 0.6053,-0.0287 0.6053,-0.07171 0.6053,0.111939 0.6053,-0.142153 0.6053,-0.04696 0.6053,-0.01135 0.6053,-0.0764 0.6053,-0.02718 0.6053,-0.120295 0.6053,-0.01819 0.6053,-0.08137 0.6053,-0.01252 0.6053,-0.06374 0.6053,-0.09057 0.6053,-0.0257 0.6053,-0.144375 0.6053,0.108061 0.6053,-0.04213 0.6053,0.03755 0.6053,-0.06054 0.6053,0.058 0.6053,-7e-5 0.6053,0.0543 0.6053,-0.02225 0.6053,-0.105593 0.6053,-0.113737 0.6053,-0.07411 0.6053,-0.06145 0.6053,0.01241 0.6053,0.03131 0.6053,-0.01368 0.6053,-0.129285 0.6053,0.01703 0.6053,-0.02898 0.6053,0.03483 0.6053,-0.10866 0.6053,-0.117721 0.6053,-0.05676 0.6053,-0.09882 0.6053,-0.02764 0.6053,-0.08846 0.6053,-0.02944 0.6053,-0.03413 0.6053,-0.08239 0.6053,-0.09604 0.6053,-0.08292 0.6053,0.0868 0.6053,-0.003 0.6053,-0.02246 0.6053,-0.08391 0.6053,-0.0075 0.6053,-0.09251 0.6053,-0.04858 0.6053,-0.05334 0.6053,-0.136971 0.6053,-0.01488 0.6053,0.04626 0.6053,-0.09276 0.6053,-9.17e-4 0.6053,-0.02651 0.6053,-0.108766 0.6053,-0.0935 0.6053,-0.02524 0.6053,0.111586 0.6053,-0.101045 0.6053,5.64e-4 0.6053,-0.124878 0.6053,-0.06339 0.6053,-0.02961 0.6053,-0.02676 0.6053,-0.04047 0.6053,-0.05341 0.6053,-0.112961 0.6053,-0.120154 0.6053,-0.02189 0.6053,-0.05775 0.6053,-0.136901 0.6053,-0.02013 0.6053,-0.171769 0.6053,-0.04749 0.6053,-0.03646 0.6053,-0.066 0.6053,-0.07154 0.6053,0.0081 0.6053,0.0085 0.6053,-0.05613 0.6053,-0.02408 0.6053,-0.03924 0.6053,0.02775 0.6053,-0.02373 0.6053,-0.05722 0.6053,-0.08229 0.6053,-0.08356 0.6053,-0.0453 0.6053,-0.0158 0.6053,-0.04901 0.6053,-0.02581 0.6053,-0.0095 0.6053,-0.06255 0.6053,-0.04661 0.6053,-0.06455 0.6053,-0.01315 0.6053,-0.14025 0.6053,-0.07584 0.6053,-0.04601 0.6053,-0.05528 0.6053,-0.110635 0.6053,-0.02277 0.6053,-0.111269 0.6053,-0.08677 0.6053,-0.01862 0.6053,-0.111727 0.6053,-0.03057 0.6053,-0.08328 0.6053,-0.04365 0.6053,-0.09576 0.6053,-0.06709 0.6053,0.0117 0.6053,-0.0072 0.6053,0.05599 0.6053,-0.05394 0.6053,0.03614 0.6053,-0.05807 0.6053,-0.09646 0.6053,-0.02651 0.6053,-0.07182 0.6053,-0.109859 0.6053,-0.03906 0.6053,-0.01125 0.6053,-0.05951 0.6053,-0.0495 0.6053,-0.113561 0.6053,-0.0068 0.6053,-0.09872 0.6053,-0.08046 0.6053,-0.07802 0.6053,-0.11684 0.6053,-0.03219 0.6053,-0.146843 0.6053,0.0044 0.6053,0.06163 0.6053,-0.125583 0.6053,-0.07037 0.6053,0.03829 0.6053,-0.122621 0.6053,-0.04615 0.6053,0.05824 0.6053,-0.06963 0.6053,0.0213 0.6053,-0.088 0.6053,-0.07601 0.6053,-0.08095 0.6053,-0.06621 0.6053,-0.02112 0.6053,-0.04619 0.6053,-0.12858 0.6053,-0.03053 0.6053,-0.0978 0.6053,-0.011 0.6053,0.0051 0.6053,-0.0076 0.6053,0.01823 0.6053,-0.01456 0.6053,-0.05077 0.6053,-0.100375 0.6053,-0.06611 0.6053,-0.07887 0.6053,-0.07806 0.6053,-0.185519 0.6053,-0.03074 0.6053,0.06032 0.6053,-0.06921 0.6053,0.05542 0.6053,-0.05789 0.6053,0.01935 0.6053,-0.0129 0.6053,-0.140673 0.6053,-0.04537 0.6053,-0.02355 0.6053,-0.02715 0.6053,-0.06255 0.6053,-0.09202 0.6053,-0.09156 0.6053,-0.02976 0.6053,-0.0011 0.6053,-0.0764 0.6053,-0.137817 0.6053,-0.05715 0.6053,-0.104041 0.6053,-0.04742 0.6053,-0.05077 0.6053,-0.03279 0.6053,-0.05581 0.6053,-0.04689 0.6053,-0.141977 0.6053,-0.08497 0.6053,-0.104077 0.6053,-0.181324 0.6053,-0.08335 0.6053,-0.09738 0.6053,-0.02281 0.6053,0.02486 0.6053,0.0061 0.6053,0.05726 0.6053,6e-4 0.6053,0.04241 0.6053,-0.04855 0.6053,0.02475 0.6053,0.01072 0.6053,-0.0691 0.6053,-0.08292 0.6053,-0.02383 0.6053,-0.07397 0.6053,-0.05623 0.6053,-0.0077 0.6053,0.0048 0.6053,-0.03889 0.6053,-0.09008 0.6053,-0.04693 0.6053,-0.127064 0.6053,-0.147407 0.6053,-0.04679 0.6053,-0.0087 0.6053,-0.11134 0.6053,-0.110247 0.6053,-0.01576 0.6053,-0.195215 0.6053,-0.187529 0.6053,-0.06339 0.6053,-0.128227 0.6053,-0.102667 0.6053,-0.0617 0.6053,-0.0035 0.6053,-0.07439 0.6053,-0.0071 0.6053,-0.181182 0.6053,-0.07834 0.6053,0.04742 0.6053,-0.03617 0.6053,-0.108343 0.6053,-0.137817 0.6053,-0.0047 0.6053,-0.03187 0.6053,-0.01139 0.6053,-0.02528 0.6053,-0.07221 0.6053,0.0055 0.6053,-0.0045 0.6053,-0.113737 0.6053,-0.11 0.6053,-0.127311 0.6053,0.06381 0.6053,-0.180054 0.6053,-0.179173 0.6053,0.07245 0.6053,-0.06632 0.6053,-0.04612 0.6053,-0.03734 0.6053,0.02923 0.6053,-0.119978 0.6053,0.0037 0.6053,-0.09487 0.6053,-0.04671 0.6053,-0.0636 0.6053,-0.126535 0.6053,-0.151356 0.6053,0.03536 0.6053,0.0078 0.6053,-0.01565 0.6053,0.06537 0.6053,-0.033 0.6053,-0.06293 0.6053,-0.08458 0.6053,-0.01668 0.6053,0.139544 0.6053,0.0039 0.6053,0.01643 0.6053,0.02764 0.6053,-0.06106 0.6053,-0.0043 0.6053,-0.04506 0.6053,-0.0233 0.6053,0.0081 0.6053,0.02658 0.6053,-0.107038 0.6053,0.04344 0.6053,-0.03092 0.6053,-0.04326 0.6053,0.0026 0.6053,-0.02859 0.6053,0.05232 0.6053,-0.004 0.6053,-0.02852 0.6053,0.03346 0.6053,-0.117827 0.6053,-0.04798 0.6053,0.02066 0.6053,-0.0263 0.6053,0.08247 0.6053,0.09413 0.6053,-0.03744 0.6053,0.07467 0.6053,0.06128 0.6053,0.0153 0.6053,-0.0349 0.6053,0.01689 0.6053,0.01438 0.6053,-0.03356 0.6053,-0.09114 0.6053,0.02264 0.6053,-0.04418 0.6053,0.0795 0.6053,-0.02722 0.6053,-0.09082 0.6053,0.01121 0.6053,-0.09346 0.6053,0.02306 0.6053,-0.01773 0.6053,-0.01802 0.6053,-0.07386 0.6053,0.05253 0.6053,0.105734 0.6053,0.02651 0.6053,0.0317 0.6053,-0.04992 0.6053,-0.02228 0.6053,-0.07792 0.6053,-0.0123 0.6053,0.0514 0.6053,0.07989 0.6053,0.01463 0.6053,-0.0048 0.6053,-0.02129 0.6053,0.05451 0.6053,0.0189 0.6053,0.01456 0.6053,-0.07615 0.6053,0.162885 0.6053,-0.04506 0.6053,-0.03226 0.6053,0.03942 0.6053,0.01541 0.6053,0.07601 0.6053,0.01054 0.6053,0.0011 0.6053,-0.02193 0.6053,-0.02207 0.6053,-0.02369 0.6053,0.08232 0.6053,0.02457 0.6053,0.03064 0.6053,0.05373 0.6053,-0.07097 0.6053,0.08402 0.6053,0.13609 0.6053,0.0018 0.6053,0.04005 0.6053,0.0093 0.6053,0.01689 0.6053,0.06551 0.6053,-0.05331 0.6053,-0.0221 0.6053,-9.17e-4 0.6053,1.06e-4 0.6053,0.03797 0.6053,0.05006 0.6053,-0.02831 0.6053,-0.06152 0.6053,-0.02225 0.6053,0.07206 0.6053,-0.04964 0.6053,0.07005 0.6053,0.0044 0.6053,-0.05285 0.6053,-0.01964 0.6053,-0.01636 0.6053,0.08525 0.6053,0.0067 0.6053,0.07295 0.6053,0.03977 0.6053,0.05796 0.6053,0.03466 0.6053,0.05285 0.6053,-0.05387 0.6053,-0.05063 0.6053,0.07668 0.6053,-0.100869 0.6053,0.03709 0.6053,-0.01231 0.6053,0.09777 0.6053,-0.03036 0.6053,0.04767 0.6053,0.09942 0.6053,-0.03705 0.6053,-0.01928 0.6053,-0.0085 0.6053,0.05147 0.6053,-0.0104 0.6053,-0.0037 0.6053,-0.09784 0.6053,0.128439 0.6053,-0.06018 0.6053,0.129391 0.6053,-0.102702 0.6053,0.0022 0.6053,0.0916 0.6053,0.105452 0.6053,0.0323 0.6053,0.09272 0.6053,7.1e-5 0.6053,0.0068 0.6053,0.08088 0.6053,0.033 0.6053,-0.06103 0.6053,0.05496 0.6053,-0.08134 0.6053,-0.05401 0.6053,-0.02909 0.6053,0.05271 0.6053,0.02373 0.6053,0.129779 0.6053,-0.0349 0.6053,-0.0043 0.6053,0.03501 0.6053,0.09198 0.6053,0.08521 0.6053,-0.0093 0.6053,-0.04573 0.6053,0.144798 0.6053,-0.05708 0.6053,0.0069 0.6053,-0.05218 0.6053,-0.04753 0.6053,0.0256 0.6053,0.05119 0.6053,-0.04936 0.6053,0.05285 0.6053,0.02327 0.6053,0.03134 0.6053,-0.0091 0.6053,0.02711 0.6053,-0.0049 0.6053,-0.0064 0.6053,0.02069 0.6053,0.101539 0.6053,0.08987 0.6053,0.04968 0.6053,0.126429 0.6053,0.01439 0.6053,0.02535 0.6053,-0.0708 0.6053,0.02694 0.6053,0.05592 0.6053,0.0057 0.6053,-0.0079 0.6053,-0.0033 0.6053,0.01125 0.6053,0.02175 0.6053,0.0287 0.6053,0.04619 0.6053,0.0421 0.6053,0.08761 0.6053,0.05006 0.6053,-0.02158 0.6053,0.03212 0.6053,0.0049 0.6053,0.06907 0.6053,0.03004 0.6053,0.08271 0.6053,0.03871 0.6053,0.01516 0.6053,0.01188 0.6053,-0.02063 0.6053,0.02369 0.6053,0.02401 0.6053,0.02122 0.6053,-0.005 0.6053,-0.0018 0.6053,0.03011 0.6053,0.06942 0.6053,0.08423 0.6053,0.03543 0.6053,0.009 0.6053,0.09632 0.6053,0.06494 0.6053,0.01509 0.6053,-0.02228 0.6053,0.126571 0.6053,0.02933 0.6053,0.0764 0.6053,0.004 0.6053,0.06896 0.6053,-0.03727 0.6053,0.04234 0.6053,0.02052 0.6053,0.05144 0.6053,0.011 0.6053,0.06106 0.6053,0.113455 0.6053,-0.01653 0.6053,0.03473 0.6053,0.0083 0.6053,-0.0067 0.6053,0.03737 0.6053,0.01047 0.6053,0.09914 0.6053,0.06064 0.6053,-0.04129 0.6053,0.07397 0.6053,0.126711 0.6053,0.109295 0.6053,-0.03452 0.6053,0.0043 0.6053,0.02327 0.6053,0.111798 0.6053,-0.02958 0.6053,0.216121 0.6053,0.08409 0.6053,-0.05102 0.6053,-0.09195 0.6053,0.0409 0.6053,0.03272 0.6053,0.04544 0.6053,0.0954 0.6053,0.0081 0.6053,0.102843 0.6053,-0.01477 0.6053,0.06025 0.6053,-0.01713 0.6053,0.04904 0.6053,0.06847 0.6053,0.125689 0.6053,0.04604 0.6053,-0.0039 0.6053,0.130378 0.6053,0.02894 0.6053,0.137535 0.6053,-0.0039 0.6053,-0.01594 0.6053,-4.23e-4 0.6053,0.09801 0.6053,0.05884 0.6053,0.05334 0.6053,0.115606 0.6053,0.110917 0.6053,0.0434 0.6053,-0.0059 0.6053,0.03973 0.6053,0.01724 0.6053,-0.01301 0.6053,0.05666 0.6053,0.119907 0.6053,-0.01329 0.6053,0.01682 0.6053,0.03138 0.6053,0.0016 0.6053,0.04488 0.6053,0.04481 0.6053,0.101186 0.6053,0.07668 0.6053,0.09079 0.6053,0.06265 0.6053,-0.03716 0.6053,0.03698 0.6053,-0.09999 0.6053,0.07083 0.6053,-0.01636 0.6053,0.103231 0.6053,0.0022 0.6053,0.02486 0.6053,-0.0134 0.6053,0.07651 0.6053,0.08768 0.6053,0.0092 0.6053,0.0074 0.6053,0.07305 0.6053,-0.0036 0.6053,9.52e-4 0.6053,-0.04199 0.6053,0.04157 0.6053,0.0084 0.6053,0.163343 0.6053,0.04425 0.6053,-0.01227 0.6053,0.05359 0.6053,0.08557 0.6053,0.09614 0.6053,0.09361 0.6053,0.103513 0.6053,0.05126 0.6053,0.0757 0.6053,-0.03258 0.6053,0.0239 0.6053,-0.04802 0.6053,0.09438 0.6053,0.0184 0.6053,-0.02789 0.6053,-0.0831 0.6053,-0.05574 0.6053,0.03533 0.6053,0.04506 0.6053,0.0032 0.6053,-0.03942 0.6053,0.04467 0.6053,-0.02457 0.6053,0.09368 0.6053,0.121282 0.6053,0.141167 0.6053,0.08056 0.6053,-0.0017 0.6053,0.02831 0.6053,-0.05271 0.6053,0.110247 0.6053,0.02274 0.6053,0.04347 0.6053,-0.02577 0.6053,-0.08648 0.6053,0.04072 0.6053,0.07069 0.6053,-0.04002 0.6053,0.0094 0.6053,0.120118 0.6053,-0.07704 0.6053,-0.06857 0.6053,-0.05334 0.6053,0.132423 0.6053,0.0361 0.6053,-0.01354 0.6053,0.05426 0.6053,0.06092 0.6053,-0.03 0.6053,0.02754 0.6053,-0.09519 0.6053,-0.0299 0.6053,0.02013 0.6053,0.07996 0.6053,-0.02228 0.6053,-0.0032 0.6053,0.02782 0.6053,0.04904 0.6053,0.0067 0.6053,-0.01093 0.6053,0.134821 0.6053,0.0033 0.6053,0.07771 0.6053,0.03177 0.6053,0.01897 0.6053,0.148077 0.6053,0.01445 0.6053,-0.0059 0.6053,0.0086 0.6053,0.01675 0.6053,0.122798 0.6053,0.04883 0.6053,0.04657 0.6053,-0.02295 0.6053,-0.03875 0.6053,0.02133 0.6053,-0.03201 0.6053,0.03582 0.6053,0.01925 0.6053,-0.0016 0.6053,0.06082 0.6053,0.0055 0.6053,0.04841 0.6053,0.02581 0.6053,0.0568 0.6053,0.06392 0.6053,0.0044 0.6053,0.0065 0.6053,0.02602 0.6053,-0.0058 0.6053,0.0053 0.6053,0.0531 0.6053,-0.112256 0.6053,0.02856 0.6053,-0.02785 0.6053,0.06568 0.6053,-0.01019 0.6053,0.06529 0.6053,0.06639 0.6053,-0.0089 0.6053,0.05204 0.6053,-0.05838 0.6053,0.09244 0.6053,-0.0022 0.6053,-0.08719 0.6053,0.0077 0.6053,-0.0091 0.6053,-0.0057 0.6053,-0.03769 0.6053,-0.0519 0.6053,-0.03152 0.6053,0.07721 0.6053,-0.008 0.6053,0.04365 0.6053,0.02112 0.6053,-0.01484 0.6053,-0.0043 0.6053,0.07467 0.6053,-0.06628 0.6053,-0.114266 0.6053,0.06826 0.6053,0.06339 0.6053,-0.06159 0.6053,0.03811 0.6053,-0.04016 0.6053,0.0403 0.6053,-0.01523 0.6053,-0.0075 0.6053,0.08617 0.6053,0.12301 0.6053,0.0563 0.6053,0.101186 0.6053,-0.01537 0.6053,0.02182 0.6053,0.02514 0.6053,0.07954 0.6053,0.03459 0.6053,-0.05532 0.6053,0.05937 0.6053,0.04552 0.6053,0.04978 0.6053,-0.01759 0.6053,0.109789 0.6053,0.05168 0.6053,0.03399 0.6053,-0.05063 0.6053,0.106968 0.6053,-0.04107 0.6053,-0.0036 0.6053,-0.08754 0.6053,-0.134997 0.6053,-0.07629 0.6053,0.136935 0.6053,-0.04023 0.6053,0.01548 0.6053,-0.02175 0.6053,-0.07044 0.6053,0.125336 0.6053,0.02288 0.6053,0.04643 0.6053,0.0016 0.6053,0.08451 0.6053,0.06089 0.6053,-0.02944 0.6053,0.104888 0.6053,-0.0367 0.6053,0.0032 0.6053,0.03801 0.6053,-0.05814 0.6053,0.126148 0.6053,-0.05458 0.6053,-0.08599 0.6053,-0.03681 0.6053,0.114089 0.6053,0.02133 0.6053,-0.0079 0.6053,-0.01103 0.6053,-0.0526 0.6053,0.07686 0.6053,0.09516 0.6053,0.0054 0.6053,-0.07809 0.6053,-0.12234 0.6053,-0.0038 0.6053,0.0043 0.6053,0.04171 0.6053,-0.01308 0.6053,0.05348 0.6053,0.05535 0.6053,0.07555 0.6053,-0.05161 0.6053,0.07111 0.6053,-0.01304 0.6053,-0.02655 0.6053,0.02426 0.6053,0.05511 0.6053,0.04671 0.6053,-0.01735 0.6053,-0.07439 0.6053,0.08684 0.6053,0.0071 0.6053,0.02239 0.6053,-0.106403 0.6053,0.06138 0.6053,-0.01075 0.6053,0.05193 0.6053,0.01876 0.6053,0.05849 0.6053,0.05042 0.6053,0.11282 0.6053,0.06939 0.6053,0.04756 0.6053,-0.05525 0.6053,-0.02119 0.6053,-0.04819 0.6053,0.05052 0.6053,0.05398 0.6053,0.06057 0.6053,0.07457 0.6053,0.05627 0.6053,0.02828 0.6053,0.03184 0.6053,-0.0172 0.6053,0.08024 0.6053,0.05507 0.6053,0.0073 0.6053,0.0029 0.6053,-0.0047 0.6053,-0.03032 0.6053,0.0122 0.6053,0.03508 0.6053,-0.137183 0.6053,-0.02397 0.6053,0.09777 0.6053,-0.02549 0.6053,0.0415 0.6053,-0.04636 0.6053,0.02651 0.6053,0.04358 0.6053,-0.01125 0.6053,0.0067 0.6053,0.01943 0.6053,0.03631 0.6053,0.0076 0.6053,-0.01086 0.6053,0.0134 0.6053,0.0629 0.6053,-0.04555 0.6053,0.02898 0.6053,0.06448 0.6053,0.04495 0.6053,-0.03141 0.6053,0.0178 0.6053,0.09949 0.6053,0.04245 0.6053,0.01378 0.6053,-0.04566 0.6053,0.0758 0.6053,-0.0092 0.6053,0.08599 0.6053,0.02648 0.6053,-0.05754 0.6053,-0.03074 0.6053,0.0532 0.6053,-0.06512 0.6053,-0.02211 0.6053,0.08349 0.6053,0.09523 0.6053,0.05225 0.6053,0.01386 0.6053,-0.02764 0.6053,0.03832 0.6053,0.01096 0.6053,-0.05532 0.6053,0.03402 0.6053,0.145257 0.6053,0.09956 0.6053,-0.05285 0.6053,-0.02951 0.6053,0.05602 0.6053,0.04012 0.6053,0.04337 0.6053,-0.01502 0.6053,0.0075 0.6053,0.06917 0.6053,0.01051 0.6053,0.118179 0.6053,0.09689 0.6053,0.02147 0.6053,-0.09392 0.6053,0.04023 0.6053,-0.01745 0.6053,-0.0018 0.6053,-0.01844 0.6053,0.08814 0.6053,-0.02182 0.6053,0.01188 0.6053,0.0855 0.6053,-0.01569 0.6053,0.01213 0.6053,0.01393 0.6053,0.02119 0.6053,-0.06656 0.6053,0.04738 0.6053,-0.09227 0.6053,0.0427 0.6053,-0.08814 0.6053,0.07108"
                       vector-effect="non-scaling-stroke"
                       id="path74"
                       inkscape:connector-curvature="0" />
                  </g>
                </g>
              </g>
            </g>
          </g>
        </g>
      </g>
      <g
         transform="translate(0,-74)"
         id="PlotItem_3"
         style="fill:none;stroke:#000000;stroke-width:1;stroke-linecap:square;stroke-linejoin:bevel">
        <g
           id="AxisItem_2"
           style="fill:none;stroke:#000000;stroke-width:1;stroke-linecap:square;stroke-linejoin:bevel">
          <g
             font-size="11.875"
             font-style="normal"
             font-weight="400"
             id="g96"
             style="font-size:11.875px;font-style:normal;font-weight:400;fill:none;stroke:#969696;stroke-width:1;stroke-linecap:square;stroke-linejoin:bevel;stroke-opacity:1;font-family:Sans Serif">
            <polyline
               points="45.0,163.667 45.0,237.780566312"
               vector-effect="non-scaling-stroke"
               id="polyline98"
               style="fill:none" />
          </g>
          <g
             font-size="11.875"
             font-style="normal"
             font-weight="400"
             id="g100"
             style="font-size:11.875px;font-style:normal;font-weight:400;fill:none;stroke:#969696;stroke-width:1;stroke-linecap:square;stroke-linejoin:bevel;stroke-opacity:1;font-family:Sans Serif">
            <polyline
               points="45.5,200.723833688 50.5,200.723833688"
               vector-effect="non-scaling-stroke"
               id="polyline102"
               style="fill:none" />
          </g>
          <g
             font-size="11.875"
             font-style="normal"
             font-weight="400"
             id="g104"
             style="font-size:11.875px;font-style:normal;font-weight:400;fill:none;stroke:#969696;stroke-width:1;stroke-linecap:square;stroke-linejoin:bevel;stroke-opacity:0.49803904;font-family:Sans Serif">
            <polyline
               points="45.5,236.355361784 48.8333,236.355361784"
               vector-effect="non-scaling-stroke"
               id="polyline106"
               style="fill:none" />
            <polyline
               points="45.5,165.092265166 48.8333,165.092265166"
               vector-effect="non-scaling-stroke"
               id="polyline108"
               style="fill:none" />
          </g>
          <g
             font-size="11.875"
             font-style="normal"
             font-weight="400"
             id="g110"
             style="font-size:11.875px;font-style:normal;font-weight:400;fill:none;stroke:#969696;stroke-width:1;stroke-linecap:square;stroke-linejoin:bevel;stroke-opacity:0.33333297;font-family:Sans Serif">
            <polyline
               points="45.5,229.229035952 48.0,229.229035952"
               vector-effect="non-scaling-stroke"
               id="polyline112"
               style="fill:none" />
            <polyline
               points="45.5,222.10271012 48.0,222.10271012"
               vector-effect="non-scaling-stroke"
               id="polyline114"
               style="fill:none" />
            <polyline
               points="45.5,214.976384288 48.0,214.976384288"
               vector-effect="non-scaling-stroke"
               id="polyline116"
               style="fill:none" />
            <polyline
               points="45.5,207.850058456 48.0,207.850058456"
               vector-effect="non-scaling-stroke"
               id="polyline118"
               style="fill:none" />
            <polyline
               points="45.5,193.597507856 48.0,193.597507856"
               vector-effect="non-scaling-stroke"
               id="polyline120"
               style="fill:none" />
            <polyline
               points="45.5,186.471182024 48.0,186.471182024"
               vector-effect="non-scaling-stroke"
               id="polyline122"
               style="fill:none" />
            <polyline
               points="45.5,179.344856192 48.0,179.344856192"
               vector-effect="non-scaling-stroke"
               id="polyline124"
               style="fill:none" />
            <polyline
               points="45.5,172.218570786 48.0,172.218570786"
               vector-effect="non-scaling-stroke"
               id="polyline126"
               style="fill:none" />
          </g>
          <g
             font-size="11.875"
             font-style="normal"
             font-weight="400"
             transform="matrix(1,0,0,1.01064,5.5,163.667)"
             id="g128"
             style="font-size:11.875px;font-style:normal;font-weight:400;fill:none;stroke:#969696;stroke-width:1;stroke-linecap:square;stroke-linejoin:bevel;stroke-opacity:1;font-family:Sans Serif">
            <text
               font-size="11.875"
               font-style="normal"
               font-weight="400"
               x="31"
               xml:space="preserve"
               y="40.6562"
               id="text130"
               style="font-size:11.875px;font-style:normal;font-weight:400;fill:#969696;fill-opacity:1;stroke:none">0</text>
            <text
               font-size="11.875"
               font-style="normal"
               font-weight="400"
               x="19"
               xml:space="preserve"
               y="75.921898"
               id="text132"
               style="font-size:11.875px;font-style:normal;font-weight:400;fill:#969696;fill-opacity:1;stroke:none">-10</text>
            <text
               font-size="11.875"
               font-style="normal"
               font-weight="400"
               x="23"
               xml:space="preserve"
               y="5.4218798"
               id="text134"
               style="font-size:11.875px;font-style:normal;font-weight:400;fill:#969696;fill-opacity:1;stroke:none">10</text>
          </g>
        </g>
        <g
           id="ViewBox_3"
           style="fill:none;stroke:#000000;stroke-width:1;stroke-linecap:square;stroke-linejoin:bevel">
          <g
             font-size="11.875"
             font-style="normal"
             font-weight="400"
             id="g137"
             style="font-size:11.875px;font-style:normal;font-weight:400;fill:none;stroke:none;font-family:Sans Serif">
            <path
               d="m 45,163.667 616,0 0,73.3333 -616,0 0,-73.3333"
               vector-effect="non-scaling-stroke"
               id="path139"
               inkscape:connector-curvature="0" />
          </g>
          <clipPath
             id="ViewBox_3_clip">
            <path
               d="m 45,163.667 616,0 0,73.333 -616,0 0,-73.333"
               vector-effect="non-scaling-stroke"
               id="path142"
               inkscape:connector-curvature="0" />
          </clipPath>
          <g
             clip-path="url(#ViewBox_3_clip)"
             id="g144">
            <g
               id="ChildGroup_3"
               style="fill:none;stroke:#000000;stroke-width:1;stroke-linecap:square;stroke-linejoin:bevel">
              <g
                 id="InfiniteLine_2"
                 style="fill:none;stroke:#000000;stroke-width:1;stroke-linecap:square;stroke-linejoin:bevel">
                <g
                   font-size="11.875"
                   font-style="normal"
                   font-weight="400"
                   id="g148"
                   style="font-size:11.875px;font-style:normal;font-weight:400;fill:none;stroke:#e6e6af;stroke-width:1;stroke-linecap:square;stroke-linejoin:bevel;stroke-opacity:1;font-family:Sans Serif">
                  <polyline
                     points="661.001949,200.333 44.99994235,200.333"
                     vector-effect="non-scaling-stroke"
                     id="polyline150"
                     style="fill:none" />
                </g>
              </g>
              <g
                 id="PlotDataItem_3">
                <g
                   id="PlotCurveItem_3"
                   style="fill:none;stroke:#000000;stroke-width:1;stroke-linecap:square;stroke-linejoin:bevel">
                  <g
                     font-size="11.875"
                     font-style="normal"
                     font-weight="400"
                     id="g154"
                     style="font-size:11.875px;font-style:normal;font-weight:400;fill:none;stroke:#00ff00;stroke-width:1;stroke-linecap:square;stroke-linejoin:bevel;stroke-opacity:1;font-family:Sans Serif">
                    <path
                       d="m 29.4743,200.37471 0.6053,-0.0672 0.6053,-0.0352 0.6053,-0.0783 0.6053,-0.0386 0.6053,0.0198 0.6053,-0.0648 0.6053,0.0187 0.6053,-0.0325 0.6053,-6.3e-4 0.6053,-0.0447 0.6053,-0.0133 0.6053,-0.11458 0.6053,-0.0491 0.6053,0.0884 0.6053,0.0727 0.6053,0.0431 0.6053,-0.0168 0.6053,0.0211 0.6053,-0.0342 0.6053,-0.0318 0.6053,-0.0582 0.6053,-0.002 0.6053,-0.002 0.6053,-0.13564 0.6053,-0.0829 0.6053,-0.0348 0.6053,-0.002 0.6053,-0.0611 0.6053,-0.0661 0.6053,-0.0957 0.6053,-0.0581 0.6053,0.006 0.6053,-0.10464 0.6053,0.11776 0.6053,-0.0373 0.6053,0.005 0.6053,-0.10528 0.6053,-0.0825 0.6053,-0.0974 0.6053,-0.12925 0.6053,0.0404 0.6053,0.0543 0.6053,-0.0633 0.6053,-0.15146 0.6053,0.0582 0.6053,-0.0999 0.6053,0.0646 0.6053,-0.11177 0.6053,-0.18002 0.6053,0.0169 0.6053,-0.0902 0.6053,-0.005 0.6053,-0.0754 0.6053,-0.12184 0.6053,0.0592 0.6053,-0.0944 0.6053,-0.0789 0.6053,0.0868 0.6053,-0.0163 0.6053,-0.0371 0.6053,-0.0285 0.6053,-0.0113 0.6053,-0.0938 0.6053,0.044 0.6053,-0.0698 0.6053,-0.0376 0.6053,-0.0956 0.6053,-0.0465 0.6053,0.0823 0.6053,-0.13172 0.6053,-0.0159 0.6053,-0.0703 0.6053,-0.069 0.6053,0.0119 0.6053,-0.13013 0.6053,0.0527 0.6053,-0.0424 0.6053,0.1 0.6053,-0.0295 0.6053,-0.009 0.6053,-0.007 0.6053,-0.0541 0.6053,-0.0743 0.6053,0.0199 0.6053,-0.0821 0.6053,-9.9e-4 0.6053,-0.22969 0.6053,-0.0615 0.6053,-0.0696 0.6053,-0.001 0.6053,0.002 0.6053,-0.12171 0.6053,-0.14233 0.6053,-0.0341 0.6053,0.0143 0.6053,0.0275 0.6053,-0.0439 0.6053,-0.0808 0.6053,-0.004 0.6053,-0.0754 0.6053,-0.0914 0.6053,-0.11885 0.6053,0.0441 0.6053,-0.0374 0.6053,-0.006 0.6053,-0.002 0.6053,-0.11585 0.6053,-0.0502 0.6053,-0.0618 0.6053,-0.0331 0.6053,-0.0577 0.6053,-0.1284 0.6053,-0.0292 0.6053,-0.11303 0.6053,-0.0601 0.6053,-0.12746 0.6053,-0.001 0.6053,-0.004 0.6053,-0.008 0.6053,-0.0495 0.6053,-0.017 0.6053,-0.054 0.6053,0.0941 0.6053,-0.0265 0.6053,-0.0941 0.6053,-0.0991 0.6053,0.0135 0.6053,0.0926 0.6053,-0.0418 0.6053,0.037 0.6053,-0.10147 0.6053,-0.0297 0.6053,-0.0447 0.6053,0.0466 0.6053,-0.10542 0.6053,-0.002 0.6053,-0.12178 0.6053,-0.1277 0.6053,-0.13905 0.6053,-0.0942 0.6053,-0.0482 0.6053,-0.0505 0.6053,-0.0784 0.6053,-0.10415 0.6053,0.0369 0.6053,-0.0304 0.6053,-0.009 0.6053,0.0284 0.6053,-0.0302 0.6053,0.0587 0.6053,-0.0692 0.6053,-0.0729 0.6053,-0.17008 0.6053,-0.058 0.6053,0.0305 0.6053,-0.0409 0.6053,-0.0999 0.6053,-0.13697 0.6053,-0.0285 0.6053,0.0371 0.6053,-0.13341 0.6053,-0.0454 0.6053,-0.005 0.6053,0.004 0.6053,-0.12992 0.6053,-0.0155 0.6053,-0.10774 0.6053,-0.0289 0.6053,-0.0534 0.6053,0.014 0.6053,2.8e-4 0.6053,0.11194 0.6053,0.0575 0.6053,-0.0864 0.6053,-0.009 0.6053,-0.0196 0.6053,0.0324 0.6053,-0.0695 0.6053,5.6e-4 0.6053,-0.0799 0.6053,-0.003 0.6053,-0.0549 0.6053,-0.10278 0.6053,0.0426 0.6053,0.0561 0.6053,-0.0921 0.6053,-0.0848 0.6053,-0.0198 0.6053,-0.0564 0.6053,-0.0528 0.6053,0.0213 0.6053,-0.0267 0.6053,-0.0227 0.6053,0.0131 0.6053,-0.12001 0.6053,-0.11032 0.6053,-0.0289 0.6053,0.022 0.6053,-0.0494 0.6053,-0.0707 0.6053,-0.10115 0.6053,-0.0701 0.6053,-0.0183 0.6053,-0.0679 0.6053,-0.0693 0.6053,0.0523 0.6053,3e-5 0.6053,-0.0945 0.6053,0.0386 0.6053,0.0105 0.6053,-0.0816 0.6053,-0.0251 0.6053,0.0722 0.6053,-0.0377 0.6053,-0.0503 0.6053,0.0222 0.6053,0.01 0.6053,-0.0943 0.6053,-0.0179 0.6053,-0.0144 0.6053,-0.0288 0.6053,0.0318 0.6053,-0.0578 0.6053,-0.0154 0.6053,-8.1e-4 0.6053,-0.0641 0.6053,-0.083 0.6053,-0.0451 0.6053,-0.0695 0.6053,-0.13813 0.6053,-0.0704 0.6053,-0.0647 0.6053,0.0291 0.6053,-0.0692 0.6053,-0.0298 0.6053,0.0382 0.6053,0.0189 0.6053,0.0329 0.6053,-0.0424 0.6053,-0.13284 0.6053,-0.11169 0.6053,0.0396 0.6053,-0.0714 0.6053,0.027 0.6053,-0.0494 0.6053,-0.009 0.6053,-0.18259 0.6053,-0.0527 0.6053,-0.004 0.6053,0.0758 0.6053,0.0345 0.6053,-0.0644 0.6053,-0.001 0.6053,-0.09 0.6053,0.008 0.6053,0.005 0.6053,0.025 0.6053,0.10609 0.6053,0.0577 0.6053,0.009 0.6053,-0.0596 0.6053,-0.12368 0.6053,-0.0544 0.6053,-0.043 0.6053,0.0406 0.6053,-0.0431 0.6053,-0.16419 0.6053,-0.11197 0.6053,0.0482 0.6053,-0.0393 0.6053,-0.004 0.6053,-0.0261 0.6053,-0.0281 0.6053,-0.0898 0.6053,-0.11236 0.6053,-0.10817 0.6053,-0.0838 0.6053,-0.1074 0.6053,-0.0443 0.6053,0.0383 0.6053,-0.19286 0.6053,-0.18456 0.6053,-0.0837 0.6053,-0.0935 0.6053,-0.14906 0.6053,-0.0889 0.6053,-0.0846 0.6053,-0.13838 0.6053,-0.0848 0.6053,-0.0918 0.6053,-0.0756 0.6053,-0.0432 0.6053,-0.21143 0.6053,-0.088 0.6053,-0.1858 0.6053,-0.15714 0.6053,-0.0216 0.6053,-0.12164 0.6053,0.003 0.6053,-0.0534 0.6053,-0.0613 0.6053,-0.0754 0.6053,-0.0932 0.6053,-0.10485 0.6053,-0.23731 0.6053,0.0119 0.6053,-0.0546 0.6053,-0.0544 0.6053,-0.0472 0.6053,-0.0532 0.6053,-0.10009 0.6053,0.0329 0.6053,0.0614 0.6053,0.0132 0.6053,-0.0623 0.6053,-0.0257 0.6053,-0.0476 0.6053,0.022 0.6053,0.0735 0.6053,-0.0162 0.6053,0.028 0.6053,0.017 0.6053,0.063 0.6053,0.0256 0.6053,0.0472 0.6053,-0.10097 0.6053,0.0996 0.6053,0.0357 0.6053,-0.0848 0.6053,-0.0139 0.6053,0.0846 0.6053,0.17173 0.6053,0.11543 0.6053,0.0366 0.6053,0.008 0.6053,0.19913 0.6053,0.0669 0.6053,0.0517 0.6053,0.12777 0.6053,0.0445 0.6053,0.0409 0.6053,-0.0241 0.6053,0.037 0.6053,0.11882 0.6053,0.0322 0.6053,-0.0385 0.6053,0.0542 0.6053,-0.0811 0.6053,0.13376 0.6053,0.0909 0.6053,-0.052 0.6053,0.0215 0.6053,0.0143 0.6053,-0.0477 0.6053,0.0845 0.6053,0.002 0.6053,0.12696 0.6053,0.0968 0.6053,0.0645 0.6053,0.0575 0.6053,0.0138 0.6053,-0.0403 0.6053,0.0576 0.6053,0.0985 0.6053,0.15692 0.6053,0.054 0.6053,0.0721 0.6053,0.13422 0.6053,0.0893 0.6053,0.0875 0.6053,0.16814 0.6053,0.0921 0.6053,0.10947 0.6053,0.0969 0.6053,-0.0149 0.6053,0.0167 0.6053,0.0752 0.6053,-0.0192 0.6053,0.10499 0.6053,0.0189 0.6053,0.0434 0.6053,0.06 0.6053,0.0251 0.6053,0.12646 0.6053,0.0101 0.6053,-9.5e-4 0.6053,0.11 0.6053,-0.006 0.6053,0.007 0.6053,0.006 0.6053,0.0314 0.6053,0.11198 0.6053,-0.0312 0.6053,0.0409 0.6053,0.13856 0.6053,0.0487 0.6053,0.0644 0.6053,0.10996 0.6053,0.0408 0.6053,0.0907 0.6053,0.0764 0.6053,0.0312 0.6053,0.0457 0.6053,0.11977 0.6053,0.0365 0.6053,0.009 0.6053,0.14762 0.6053,0.0941 0.6053,0.0968 0.6053,0.1149 0.6053,0.0797 0.6053,0.0219 0.6053,0.0228 0.6053,0.009 0.6053,0.0215 0.6053,-0.0442 0.6053,0.0137 0.6053,0.0782 0.6053,0.0109 0.6053,-1.8e-4 0.6053,0.0686 0.6053,-0.065 0.6053,0.0271 0.6053,0.0162 0.6053,0.0209 0.6053,0.0884 0.6053,0.0822 0.6053,-0.0548 0.6053,0.12417 0.6053,0.0633 0.6053,0.0233 0.6053,0.0408 0.6053,0.0906 0.6053,0.10471 0.6053,0.1478 0.6053,-0.10708 0.6053,0.063 0.6053,0.0304 0.6053,-0.0303 0.6053,-0.028 0.6053,-0.0144 0.6053,-0.078 0.6053,0.0194 0.6053,0.0705 0.6053,0.0422 0.6053,0.14356 0.6053,0.0293 0.6053,0.0814 0.6053,0.0297 0.6053,0.0909 0.6053,0.0991 0.6053,-0.0801 0.6053,-0.05 0.6053,0.011 0.6053,0.15266 0.6053,0.0843 0.6053,-0.0295 0.6053,0.0732 0.6053,0.13162 0.6053,0.13386 0.6053,0.0733 0.6053,-0.0151 0.6053,0.0296 0.6053,0.12325 0.6053,-0.0868 0.6053,0.0928 0.6053,0.0476 0.6053,-0.002 0.6053,0.0181 0.6053,-0.025 0.6053,0.027 0.6053,0.0776 0.6053,0.13676 0.6053,0.0787 0.6053,0.0381 0.6053,-0.002 0.6053,0.0714 0.6053,-0.004 0.6053,-0.0102 0.6053,0.11173 0.6053,-0.0149 0.6053,-0.0111 0.6053,0.0149 0.6053,-0.0826 0.6053,0.12808 0.6053,-0.0429 0.6053,0.17089 0.6053,0.06 0.6053,-0.0181 0.6053,-0.044 0.6053,0.12248 0.6053,0.002 0.6053,0.15477 0.6053,0.0469 0.6053,0.1185 0.6053,-0.0597 0.6053,0.0515 0.6053,0.0516 0.6053,-0.0878 0.6053,-0.0761 0.6053,0.0837 0.6053,0.15044 0.6053,0.0857 0.6053,0.0172 0.6053,-0.039 0.6053,0.0401 0.6053,0.0355 0.6053,0.14624 0.6053,0.11635 0.6053,0.0499 0.6053,0.008 0.6053,0.0232 0.6053,0.13003 0.6053,0.073 0.6053,0.0832 0.6053,0.10763 0.6053,0.14382 0.6053,-0.0246 0.6053,0.0327 0.6053,0.0527 0.6053,-0.11225 0.6053,0.0823 0.6053,-0.0734 0.6053,0.031 0.6053,0.0502 0.6053,0.0483 0.6053,0.004 0.6053,0.0146 0.6053,0.0432 0.6053,0.0201 0.6053,-0.0427 0.6053,0.069 0.6053,0.0127 0.6053,0.086 0.6053,0.027 0.6053,0 0.6053,0.001 0.6053,0.004 0.6053,0.10076 0.6053,-0.0181 0.6053,-0.0273 0.6053,-0.0765 0.6053,-0.0565 0.6053,0.0264 0.6053,0.011 0.6053,-0.008 0.6053,0.0526 0.6053,0.001 0.6053,0.0402 0.6053,0.0154 0.6053,0.0801 0.6053,-0.085 0.6053,-0.11835 0.6053,0.0233 0.6053,0.0468 0.6053,0.0257 0.6053,-0.006 0.6053,0.0265 0.6053,-0.002 0.6053,0.007 0.6053,-0.0706 0.6053,0.0655 0.6053,0.0583 0.6053,0.11963 0.6053,0.0172 0.6053,0.014 0.6053,-0.006 0.6053,0.0143 0.6053,0.0419 0.6053,-0.0334 0.6053,0.0377 0.6053,0.0241 0.6053,0.046 0.6053,0.005 0.6053,0.11846 0.6053,0.0112 0.6053,0.049 0.6053,0.0772 0.6053,0.11331 0.6053,0.0406 0.6053,0.0866 0.6053,0.0134 0.6053,-0.0305 0.6053,0.0435 0.6053,0.0829 0.6053,0.002 0.6053,0.01 0.6053,0.082 0.6053,-0.0389 0.6053,0.002 0.6053,-0.0329 0.6053,-0.0157 0.6053,-0.0465 0.6053,0.0209 0.6053,-0.12326 0.6053,0.009 0.6053,-0.0871 0.6053,0.0448 0.6053,0.017 0.6053,0.0692 0.6053,0.0413 0.6053,-0.02 0.6053,-0.0322 0.6053,0.14678 0.6053,0.0621 0.6053,0.1154 0.6053,0.058 0.6053,0.0224 0.6053,-0.0342 0.6053,0.10781 0.6053,0.047 0.6053,0.0502 0.6053,-0.0739 0.6053,0.0123 0.6053,0.0111 0.6053,0.0524 0.6053,-0.12181 0.6053,0.0796 0.6053,0.0204 0.6053,-0.0396 0.6053,-0.10972 0.6053,0.0346 0.6053,-0.0685 0.6053,-0.0589 0.6053,-0.0168 0.6053,0.049 0.6053,0.0688 0.6053,-0.0378 0.6053,0.0197 0.6053,-0.0128 0.6053,-0.0477 0.6053,0.001 0.6053,-0.037 0.6053,-0.0708 0.6053,0.0237 0.6053,0.036 0.6053,-0.0601 0.6053,-0.0313 0.6053,0.0491 0.6053,0.0175 0.6053,-0.023 0.6053,0.0262 0.6053,0.0773 0.6053,0.0127 0.6053,-0.0858 0.6053,0.0407 0.6053,-0.0671 0.6053,-0.0254 0.6053,-4.9e-4 0.6053,-0.0211 0.6053,0.0107 0.6053,-0.0519 0.6053,0.039 0.6053,0.004 0.6053,0.0761 0.6053,-0.0848 0.6053,0.0117 0.6053,0.1118 0.6053,-0.0593 0.6053,0.0171 0.6053,-0.0139 0.6053,0.1515 0.6053,-0.0266 0.6053,0.0545 0.6053,0.0123 0.6053,0.0126 0.6053,0.002 0.6053,-0.0712 0.6053,0.008 0.6053,0.0735 0.6053,0.13401 0.6053,0.0632 0.6053,0.0477 0.6053,0.0328 0.6053,-0.003 0.6053,-0.009 0.6053,0.0119 0.6053,0.0262 0.6053,-0.0615 0.6053,0.0824 0.6053,-0.0488 0.6053,-0.0255 0.6053,-0.0332 0.6053,-0.001 0.6053,0.0738 0.6053,-0.0343 0.6053,-0.0767 0.6053,-0.007 0.6053,0.0414 0.6053,-0.0636 0.6053,0.0916 0.6053,0.0584 0.6053,-0.0255 0.6053,0.058 0.6053,-0.0302 0.6053,0.059 0.6053,-0.056 0.6053,0.0259 0.6053,0.0282 0.6053,0.0415 0.6053,0.14283 0.6053,0.0895 0.6053,0.0288 0.6053,-0.0434 0.6053,0.0598 0.6053,-0.038 0.6053,0.006 0.6053,0.0408 0.6053,0.0599 0.6053,-0.033 0.6053,-0.0701 0.6053,0.019 0.6053,0.11585 0.6053,-0.0177 0.6053,-0.0292 0.6053,0.0779 0.6053,-0.019 0.6053,0.0396 0.6053,-0.0182 0.6053,0.0549 0.6053,0.01 0.6053,0.0105 0.6053,0.001 0.6053,0.0795 0.6053,-0.012 0.6053,-0.0385 0.6053,0.0723 0.6053,-0.0366 0.6053,-0.0897 0.6053,-0.005 0.6053,0.0653 0.6053,0.0258 0.6053,-0.0476 0.6053,0.0168 0.6053,-0.0516 0.6053,0.0231 0.6053,-0.003 0.6053,-0.002 0.6053,0.0355 0.6053,0.11424 0.6053,-0.0257 0.6053,-0.0502 0.6053,0.0196 0.6053,0.11793 0.6053,0.13404 0.6053,0.0319 0.6053,0.022 0.6053,0.0624 0.6053,-0.087 0.6053,0.0378 0.6053,0.004 0.6053,0.0369 0.6053,-0.0916 0.6053,-0.0728 0.6053,-0.0703 0.6053,0.0686 0.6053,-0.0948 0.6053,0.004 0.6053,-0.012 0.6053,0 0.6053,0.0909 0.6053,-0.038 0.6053,-0.0964 0.6053,-0.1198 0.6053,0.0805 0.6053,-0.0481 0.6053,0.12329 0.6053,0.0342 0.6053,-0.0195 0.6053,-0.057 0.6053,0.12614 0.6053,0.0573 0.6053,0.001 0.6053,0.0213 0.6053,0.0912 0.6053,-0.0333 0.6053,0.024 0.6053,0.0643 0.6053,-0.004 0.6053,0.0547 0.6053,0.004 0.6053,-0.0224 0.6053,0.0648 0.6053,0.0605 0.6053,-0.1172 0.6053,-0.11617 0.6053,-0.037 0.6053,0.008 0.6053,-0.0536 0.6053,-0.10549 0.6053,-0.002 0.6053,0.0762 0.6053,-0.042 0.6053,-0.12241 0.6053,-0.0443 0.6053,0.03 0.6053,0.0125 0.6053,0.0194 0.6053,-0.0153 0.6053,9.2e-4 0.6053,0.0135 0.6053,-0.0189 0.6053,-0.0179 0.6053,-0.11871 0.6053,-0.0524 0.6053,0.10217 0.6053,-0.1362 0.6053,0.0279 0.6053,0.0356 0.6053,-0.0382 0.6053,0.0884 0.6053,-0.0313 0.6053,0.0245 0.6053,0.009 0.6053,0.0729 0.6053,0.0385 0.6053,-0.0842 0.6053,-0.0806 0.6053,0.11927 0.6053,0.0808 0.6053,0.0431 0.6053,0.13538 0.6053,0.0285 0.6053,-0.024 0.6053,-0.0456 0.6053,-0.0833 0.6053,0.0184 0.6053,-0.0582 0.6053,0.01 0.6053,-0.0689 0.6053,-0.0794 0.6053,-0.0115 0.6053,0.0212 0.6053,0.0934 0.6053,0.0452 0.6053,0.0553 0.6053,0.0739 0.6053,-0.0295 0.6053,-0.0959 0.6053,-0.0339 0.6053,-0.0124 0.6053,0.0653 0.6053,-0.0722 0.6053,-0.0836 0.6053,0.0169 0.6053,-0.0155 0.6053,0.0654 0.6053,-0.0227 0.6053,0.0496 0.6053,-0.0919 0.6053,-0.0396 0.6053,-0.0189 0.6053,-0.0207 0.6053,-0.0131 0.6053,-0.0128 0.6053,0.049 0.6053,0.0366 0.6053,-0.0541 0.6053,0.0413 0.6053,0.006 0.6053,-0.0343 0.6053,-0.0618 0.6053,-0.0267 0.6053,0.0118 0.6053,0.0517 0.6053,-0.0573 0.6053,0.0208 0.6053,0.0205 0.6053,0.0552 0.6053,0.11705 0.6053,0.069 0.6053,0.0869 0.6053,-0.0791 0.6053,0.0269 0.6053,-0.0739 0.6053,0.004 0.6053,0.004 0.6053,-0.045 0.6053,0.004 0.6053,0.0306 0.6053,0.0783 0.6053,-0.0698 0.6053,0.11038 0.6053,-0.0642 0.6053,0.0793 0.6053,-0.0314 0.6053,-0.006 0.6053,-0.11134 0.6053,-0.0838 0.6053,-0.059 0.6053,0.0177 0.6053,-0.0348 0.6053,-0.009 0.6053,-0.0175 0.6053,0.0381 0.6053,0.003 0.6053,-0.10616 0.6053,0.0357 0.6053,-0.0284 0.6053,-0.0137 0.6053,0.007 0.6053,0.0262 0.6053,0.0191 0.6053,0.0826 0.6053,0.0249 0.6053,-0.0331 0.6053,-0.0331 0.6053,0.003 0.6053,0.0239 0.6053,0.0366 0.6053,-0.01 0.6053,-0.0145 0.6053,0.0323 0.6053,0.0841 0.6053,-0.003 0.6053,0.0147 0.6053,0.006 0.6053,-0.003 0.6053,0.0655 0.6053,-0.031 0.6053,0.0257 0.6053,-0.0203 0.6053,0.044 0.6053,0.0316 0.6053,0.007 0.6053,0.0786 0.6053,0.0926 0.6053,-0.0551 0.6053,0.0228 0.6053,-0.11123 0.6053,-0.044 0.6053,-0.004 0.6053,-0.0357 0.6053,-0.0563 0.6053,0.0269 0.6053,0.0159 0.6053,0.04 0.6053,0.0687 0.6053,-0.001 0.6053,0.10919 0.6053,0.0401 0.6053,0.0181 0.6053,0.005 0.6053,-0.0553 0.6053,0.002 0.6053,0.0606 0.6053,-0.0655 0.6053,-0.0127 0.6053,-0.0877 0.6053,0.0206 0.6053,-0.004 0.6053,0.0295 0.6053,0.0637 0.6053,-0.0315 0.6053,0.0872 0.6053,0.0265 0.6053,0.0674 0.6053,-0.01 0.6053,-0.0306 0.6053,-0.0156 0.6053,-0.10302 0.6053,0.0435 0.6053,0.13697 0.6053,-0.0317 0.6053,0.0493 0.6053,0.0662 0.6053,0.0209 0.6053,0.12224 0.6053,-0.088 0.6053,-0.009 0.6053,-0.10971 0.6053,-0.0496 0.6053,0.004 0.6053,-0.0775 0.6053,0.0545 0.6053,0.0902 0.6053,-0.0527 0.6053,0.10834 0.6053,0.0138 0.6053,0.0539 0.6053,-0.0142 0.6053,-0.003 0.6053,0.0858 0.6053,-0.009 0.6053,-0.0444 0.6053,0.0893 0.6053,-0.16589 0.6053,-0.0582 0.6053,0.0502 0.6053,0.063 0.6053,-0.11342 0.6053,0.0309 0.6053,0.0366 0.6053,-0.0185 0.6053,0.0816 0.6053,0.006 0.6053,0.16923 0.6053,0.0257 0.6053,-0.026 0.6053,0.0742 0.6053,-0.002 0.6053,-0.0306 0.6053,0.0207"
                       vector-effect="non-scaling-stroke"
                       id="path156"
                       inkscape:connector-curvature="0" />
                  </g>
                </g>
              </g>
            </g>
          </g>
        </g>
      </g>
      <g
         transform="translate(0,-144)"
         id="PlotItem_5"
         style="fill:none;stroke:#000000;stroke-width:1;stroke-linecap:square;stroke-linejoin:bevel">
        <g
           id="AxisItem_3"
           style="fill:none;stroke:#000000;stroke-width:1;stroke-linecap:square;stroke-linejoin:bevel">
          <g
             font-size="11.875"
             font-style="normal"
             font-weight="400"
             id="g178"
             style="font-size:11.875px;font-style:normal;font-weight:400;fill:none;stroke:#969696;stroke-width:1;stroke-linecap:square;stroke-linejoin:bevel;stroke-opacity:1;font-family:Sans Serif">
            <polyline
               points="45.0,322.333 45.0,396.446566312"
               vector-effect="non-scaling-stroke"
               id="polyline180"
               style="fill:none" />
          </g>
          <g
             font-size="11.875"
             font-style="normal"
             font-weight="400"
             id="g182"
             style="font-size:11.875px;font-style:normal;font-weight:400;fill:none;stroke:#969696;stroke-width:1;stroke-linecap:square;stroke-linejoin:bevel;stroke-opacity:1;font-family:Sans Serif">
            <polyline
               points="45.5,359.389833688 50.5,359.389833688"
               vector-effect="non-scaling-stroke"
               id="polyline184"
               style="fill:none" />
          </g>
          <g
             font-size="11.875"
             font-style="normal"
             font-weight="400"
             id="g186"
             style="font-size:11.875px;font-style:normal;font-weight:400;fill:none;stroke:#969696;stroke-width:1;stroke-linecap:square;stroke-linejoin:bevel;stroke-opacity:0.49803904;font-family:Sans Serif">
            <polyline
               points="45.5,395.021361784 48.8333,395.021361784"
               vector-effect="non-scaling-stroke"
               id="polyline188"
               style="fill:none" />
            <polyline
               points="45.5,323.758265166 48.8333,323.758265166"
               vector-effect="non-scaling-stroke"
               id="polyline190"
               style="fill:none" />
          </g>
          <g
             font-size="11.875"
             font-style="normal"
             font-weight="400"
             id="g192"
             style="font-size:11.875px;font-style:normal;font-weight:400;fill:none;stroke:#969696;stroke-width:1;stroke-linecap:square;stroke-linejoin:bevel;stroke-opacity:0.33333297;font-family:Sans Serif">
            <polyline
               points="45.5,387.895035952 48.0,387.895035952"
               vector-effect="non-scaling-stroke"
               id="polyline194"
               style="fill:none" />
            <polyline
               points="45.5,380.76871012 48.0,380.76871012"
               vector-effect="non-scaling-stroke"
               id="polyline196"
               style="fill:none" />
            <polyline
               points="45.5,373.642384288 48.0,373.642384288"
               vector-effect="non-scaling-stroke"
               id="polyline198"
               style="fill:none" />
            <polyline
               points="45.5,366.516058456 48.0,366.516058456"
               vector-effect="non-scaling-stroke"
               id="polyline200"
               style="fill:none" />
            <polyline
               points="45.5,352.263507856 48.0,352.263507856"
               vector-effect="non-scaling-stroke"
               id="polyline202"
               style="fill:none" />
            <polyline
               points="45.5,345.137182024 48.0,345.137182024"
               vector-effect="non-scaling-stroke"
               id="polyline204"
               style="fill:none" />
            <polyline
               points="45.5,338.010856192 48.0,338.010856192"
               vector-effect="non-scaling-stroke"
               id="polyline206"
               style="fill:none" />
            <polyline
               points="45.5,330.884570786 48.0,330.884570786"
               vector-effect="non-scaling-stroke"
               id="polyline208"
               style="fill:none" />
          </g>
          <g
             font-size="11.875"
             font-style="normal"
             font-weight="400"
             transform="matrix(1,0,0,1.01064,5.5,322.333)"
             id="g210"
             style="font-size:11.875px;font-style:normal;font-weight:400;fill:none;stroke:#969696;stroke-width:1;stroke-linecap:square;stroke-linejoin:bevel;stroke-opacity:1;font-family:Sans Serif">
            <text
               font-size="11.875"
               font-style="normal"
               font-weight="400"
               x="31"
               xml:space="preserve"
               y="40.6562"
               id="text212"
               style="font-size:11.875px;font-style:normal;font-weight:400;fill:#969696;fill-opacity:1;stroke:none">0</text>
            <text
               font-size="11.875"
               font-style="normal"
               font-weight="400"
               x="19"
               xml:space="preserve"
               y="75.921898"
               id="text214"
               style="font-size:11.875px;font-style:normal;font-weight:400;fill:#969696;fill-opacity:1;stroke:none">-10</text>
            <text
               font-size="11.875"
               font-style="normal"
               font-weight="400"
               x="23"
               xml:space="preserve"
               y="5.4218798"
               id="text216"
               style="font-size:11.875px;font-style:normal;font-weight:400;fill:#969696;fill-opacity:1;stroke:none">10</text>
          </g>
        </g>
        <g
           id="ViewBox_5"
           style="fill:none;stroke:#000000;stroke-width:1;stroke-linecap:square;stroke-linejoin:bevel">
          <g
             font-size="11.875"
             font-style="normal"
             font-weight="400"
             id="g219"
             style="font-size:11.875px;font-style:normal;font-weight:400;fill:none;stroke:none;font-family:Sans Serif">
            <path
               d="m 45,322.333 616,0 0,73.3333 -616,0 0,-73.3333"
               vector-effect="non-scaling-stroke"
               id="path221"
               inkscape:connector-curvature="0" />
          </g>
          <clipPath
             id="ViewBox_5_clip">
            <path
               d="m 45,322.333 616,0 0,73.334 -616,0 0,-73.334"
               vector-effect="non-scaling-stroke"
               id="path224"
               inkscape:connector-curvature="0" />
          </clipPath>
          <g
             clip-path="url(#ViewBox_5_clip)"
             id="g226">
            <g
               id="ChildGroup_5"
               style="fill:none;stroke:#000000;stroke-width:1;stroke-linecap:square;stroke-linejoin:bevel">
              <g
                 id="InfiniteLine_3"
                 style="fill:none;stroke:#000000;stroke-width:1;stroke-linecap:square;stroke-linejoin:bevel">
                <g
                   font-size="11.875"
                   font-style="normal"
                   font-weight="400"
                   id="g230"
                   style="font-size:11.875px;font-style:normal;font-weight:400;fill:none;stroke:#e6e6af;stroke-width:1;stroke-linecap:square;stroke-linejoin:bevel;stroke-opacity:1;font-family:Sans Serif">
                  <polyline
                     points="661.001949,359.0 44.99994235,359.0"
                     vector-effect="non-scaling-stroke"
                     id="polyline232"
                     style="fill:none" />
                </g>
              </g>
              <g
                 id="PlotDataItem_5">
                <g
                   id="PlotCurveItem_5"
                   style="fill:none;stroke:#000000;stroke-width:1;stroke-linecap:square;stroke-linejoin:bevel">
                  <g
                     font-size="11.875"
                     font-style="normal"
                     font-weight="400"
                     id="g236"
                     style="font-size:11.875px;font-style:normal;font-weight:400;fill:none;stroke:#0000ff;stroke-width:1;stroke-linecap:square;stroke-linejoin:bevel;stroke-opacity:1;font-family:Sans Serif">
                    <path
                       d="m 29.4743,353.5 0.6053,-1.62179 0.6053,1.19871 0.6053,-1.90384 0.6053,0.63461 0.6053,1.83334 0.6053,-0.56411 0.6053,-2.15064 0.6053,-0.59935 0.6053,0.84615 0.6053,-2.1859 0.6053,3.77244 0.6053,-1.30449 0.6053,-2.78526 0.6053,2.92629 0.6053,0.35256 0.6053,0.84615 0.6053,-0.42307 0.6053,-0.42308 0.6053,1.26923 0.6053,-1.90385 0.6053,-0.21153 0.6053,1.26923 0.6053,-1.55125 0.6053,1.02244 0.6053,-3.52568 0.6053,3.34936 0.6053,-1.26923 0.6053,0 0.6053,0.45833 0.6053,-1.1282 0.6053,2.43269 0.6053,0.77564 0.6053,-2.46795 0.6053,2.96154 0.6053,-1.05769 0.6053,-1.12821 0.6053,0.74039 0.6053,-0.95189 0.6053,2.22112 0.6053,-1.79808 0.6053,1.19872 0.6053,-0.66987 0.6053,-1.58654 0.6053,3.10256 0.6053,-2.60894 0.6053,0.49356 0.6053,0.63461 0.6053,-1.51602 0.6053,0.21154 0.6053,3.10256 0.6053,-0.35256 0.6053,-2.32693 0.6053,-0.31727 0.6053,-0.8109 0.6053,1.33971 0.6053,-0.49359 0.6053,0.95192 0.6053,2.15064 0.6053,-2.15064 0.6053,-2.96153 0.6053,1.9391 0.6053,0.31731 0.6053,-0.84616 0.6053,3.34936 0.6053,-2.96154 0.6053,0.70513 0.6053,1.30449 0.6053,-1.8333 0.6053,0.66984 0.6053,1.1282 0.6053,-4.72436 0.6053,3.59616 0.6053,-0.2468 0.6053,2.39744 0.6053,-1.02244 0.6053,-2.22115 0.6053,-0.95192 0.6053,3.56089 0.6053,-1.65705 0.6053,1.26923 0.6053,-0.45833 0.6053,1.1282 0.6053,-2.00961 0.6053,3.17307 0.6053,-1.19871 0.6053,-4.33654 0.6053,4.26602 0.6053,0.45834 0.6053,-2.64423 0.6053,0.38782 0.6053,-1.16346 0.6053,1.16346 0.6053,1.19872 0.6053,-0.14103 0.6053,-0.17628 0.6053,0.21154 0.6053,-0.10577 0.6053,-0.95193 0.6053,0.17629 0.6053,1.16346 0.6053,-1.09295 0.6053,1.02243 0.6053,-1.05769 0.6053,-1.30448 0.6053,-1.58654 0.6053,4.05448 0.6053,0.0705 0.6053,-1.16343 0.6053,-0.17632 0.6053,-0.0705 0.6053,0.74038 0.6053,-0.14102 0.6053,-1.86859 0.6053,1.86859 0.6053,-0.84615 0.6053,0.88141 0.6053,-2.00958 0.6053,4.30124 0.6053,-2.5032 0.6053,-0.98715 0.6053,-0.3526 0.6053,1.72757 0.6053,-0.98718 0.6053,-1.41026 0.6053,4.33654 0.6053,-1.19872 0.6053,-1.41025 0.6053,-0.59936 0.6053,-0.74039 0.6053,2.11539 0.6053,-1.26923 0.6053,-1.12821 0.6053,0.95192 0.6053,1.41026 0.6053,-1.26923 0.6053,0.88141 0.6053,2.75 0.6053,-3.24359 0.6053,1.55128 0.6053,0.21154 0.6053,-0.88141 0.6053,-1.79808 0.6053,1.19872 0.6053,0.2468 0.6053,-2.15064 0.6053,1.41025 0.6053,2.46795 0.6053,-5.46474 0.6053,2.57375 0.6053,0.81086 0.6053,-1.58654 0.6053,3.66667 0.6053,-2.11538 0.6053,-0.98718 0.6053,-0.74039 0.6053,2.60898 0.6053,-1.48077 0.6053,0.9167 0.6053,-0.17632 0.6053,-0.14102 0.6053,0.14102 0.6053,-0.0352 0.6053,2.11535 0.6053,-0.98718 0.6053,1.58654 0.6053,-4.16026 0.6053,0.95193 0.6053,-1.19869 0.6053,0.21151 0.6053,0.59939 0.6053,1.02244 0.6053,-4e-5 0.6053,-1.16346 0.6053,0.0705 0.6053,-1.375 0.6053,0.28205 0.6053,2.04491 0.6053,0.77561 0.6053,-2.75 0.6053,1.375 0.6053,0.63461 0.6053,0.70513 0.6053,-0.77564 0.6053,-0.21154 0.6053,1.9391 0.6053,-2.53846 0.6053,1.09295 0.6053,-1.79804 0.6053,1.8333 0.6053,-0.59936 0.6053,2.29166 0.6053,-3.63141 0.6053,1.7276 0.6053,-0.31734 0.6053,1.69231 0.6053,-3.41987 0.6053,0.81089 0.6053,0.84616 0.6053,0.95192 0.6053,-0.63458 0.6053,-0.63465 0.6053,-0.98714 0.6053,0.66983 0.6053,1.6218 0.6053,-2.29163 0.6053,0.88141 0.6053,1.05765 0.6053,-0.81089 0.6053,1.86858 0.6053,-2.5032 0.6053,0.0705 0.6053,0.95193 0.6053,-0.14103 0.6053,0.5641 0.6053,0.28205 0.6053,-2.53846 0.6053,2.36218 0.6053,-1.65705 0.6053,-0.70513 0.6053,1.93914 0.6053,-0.0705 0.6053,0.35257 0.6053,0.52884 0.6053,-0.28205 0.6053,-0.31727 0.6053,-0.84619 0.6053,1.76282 0.6053,-1.97436 0.6053,1.33974 0.6053,-1.72756 0.6053,1.79808 0.6053,-0.45834 0.6053,2.53847 0.6053,-2.15065 0.6053,-0.17628 0.6053,-0.42307 0.6053,2.92628 0.6053,1.48077 0.6053,-5.14744 0.6053,1.58654 0.6053,1.41026 0.6053,-1.93907 0.6053,-3.34939 0.6053,1.41025 0.6053,3.77244 0.6053,-1.69231 0.6053,-1.58654 0.6053,1.26923 0.6053,-3.70192 0.6053,2.60897 0.6053,-0.38782 0.6053,-1.65705 0.6053,1.97436 0.6053,-1.30449 0.6053,0.74042 0.6053,-0.21157 0.6053,-0.42308 0.6053,0.0705 0.6053,0 0.6053,-0.56411 0.6053,1.72757 0.6053,-0.42308 0.6053,-5.07692 0.6053,2.96154 0.6053,-0.49359 0.6053,-0.98718 0.6053,3.94871 0.6053,-3.63141 0.6053,-2.15064 0.6053,1.72757 0.6053,-2.43269 0.6053,0.81089 0.6053,-3.24359 0.6053,1.1635 0.6053,0.42304 0.6053,-2.22115 0.6053,0.8109 0.6053,-2.64423 0.6053,1.55128 0.6053,-1.19872 0.6053,0.49359 0.6053,-1.72756 0.6053,-0.77564 0.6053,-3.17308 0.6053,-0.49359 0.6053,-0.84615 0.6053,-1.6218 0.6053,-1.72756 0.6053,-0.74035 0.6053,-0.95196 0.6053,0.10581 0.6053,0.70509 0.6053,0.49359 0.6053,4.125 0.6053,6.27564 0.6053,5.8173 0.6053,11.38782 0.6053,3.5609 0.6053,-2.96154 0.6053,-0.74039 0.6053,0.38782 0.6053,6.66346 0.6053,-5.0064 0.6053,0.21153 0.6053,1.23398 0.6053,0.45833 0.6053,-3.80769 0.6053,1.76282 0.6053,1.65705 0.6053,-2.67949 0.6053,0.14103 0.6053,-0.59936 0.6053,1.48077 0.6053,-0.14103 0.6053,2.92629 0.6053,-0.88141 0.6053,-3.56087 0.6053,3.06728 0.6053,-1.02244 0.6053,0.14103 0.6053,1.79811 0.6053,-2.36222 0.6053,6.02885 0.6053,-5.81731 0.6053,1.6218 0.6053,-3.91346 0.6053,2.18589 0.6053,-1.02243 0.6053,0.70512 0.6053,-1.44551 0.6053,1.30449 0.6053,2.99679 0.6053,-0.14102 0.6053,1.62179 0.6053,-3.80769 0.6053,1.76282 0.6053,-5.5 0.6053,4.65385 0.6053,-0.66987 0.6053,-0.21154 0.6053,3.10256 0.6053,-4.6891 0.6053,-0.98718 0.6053,0.35256 0.6053,-2.5032 0.6053,7.22756 0.6053,-5.14743 0.6053,4.93589 0.6053,-2.96153 0.6053,0.59935 0.6053,1.19872 0.6053,-0.24679 0.6053,0.70513 0.6053,-2.04488 0.6053,-2.46794 0.6053,2.32692 0.6053,1.30449 0.6053,-0.21154 0.6053,0.0352 0.6053,-2.46791 0.6053,0.77561 0.6053,1.62179 0.6053,1.79808 0.6053,-3.91346 0.6053,4.72435 0.6053,-4.01919 0.6053,-0.59939 0.6053,0.24679 0.6053,0 0.6053,0.77564 0.6053,-1.30449 0.6053,-1.48076 0.6053,-1.44552 0.6053,4.26603 0.6053,-1.30449 0.6053,2.22115 0.6053,-0.95192 0.6053,1.83333 0.6053,-1.02243 0.6053,-0.10577 0.6053,-1.69231 0.6053,-0.10577 0.6053,5.42949 0.6053,-4.05449 0.6053,-0.95192 0.6053,5.32372 0.6053,-3.84295 0.6053,-1.33974 0.6053,0.63461 0.6053,2.1859 0.6053,-3.66667 0.6053,3.10256 0.6053,-1.9391 0.6053,2.67949 0.6053,-1.30449 0.6053,-2.18589 0.6053,-0.0353 0.6053,1.30449 0.6053,0.81089 0.6053,-4.16025 0.6053,5.64106 0.6053,-2.96154 0.6053,-2.43273 0.6053,0.0705 0.6053,3.41987 0.6053,0.17628 0.6053,-3.66667 0.6053,1.12821 0.6053,4.83012 0.6053,-2.43269 0.6053,-1.41025 0.6053,-1.41026 0.6053,1.12821 0.6053,2.96153 0.6053,-0.17628 0.6053,-4.61859 0.6053,0.59936 0.6053,1.51603 0.6053,2.5032 0.6053,-1.79808 0.6053,0.74039 0.6053,0.24679 0.6053,0.98718 0.6053,-1.09291 0.6053,0.66984 0.6053,-3.34936 0.6053,3.4199 0.6053,-1.83336 0.6053,0.10577 0.6053,2.43269 0.6053,1.05769 0.6053,-2.64423 0.6053,0.21154 0.6053,-3.03205 0.6053,2.36218 0.6053,1.26923 0.6053,-3.31411 0.6053,2.96154 0.6053,1.12821 0.6053,-1.97436 0.6053,0.98718 0.6053,1.44551 0.6053,-1.05769 0.6053,-0.2468 0.6053,0.77564 0.6053,2.85577 0.6053,-6.59294 0.6053,1.6923 0.6053,1.6218 0.6053,-1.09295 0.6053,1.62179 0.6053,-0.70512 0.6053,-3.10257 0.6053,3.41987 0.6053,-0.77564 0.6053,-1.44551 0.6053,-0.21154 0.6053,0.35257 0.6053,0.24679 0.6053,1.19872 0.6053,-3.06731 0.6053,0.0705 0.6053,-0.14102 0.6053,4.79487 0.6053,-1.41026 0.6053,-0.88141 0.6053,0.63462 0.6053,2.08013 0.6053,-0.77565 0.6053,-0.49358 0.6053,0.28205 0.6053,-0.31731 0.6053,-1.79808 0.6053,0.74039 0.6053,-0.21154 0.6053,-0.0353 0.6053,-0.84615 0.6053,-0.0705 0.6053,1.375 0.6053,0.42307 0.6053,-1.26923 0.6053,1.55128 0.6053,1.33975 0.6053,-4.33654 0.6053,2.1859 0.6053,-0.38782 0.6053,0.74038 0.6053,1.30449 0.6053,-2.36218 0.6053,1.83333 0.6053,-4.97115 0.6053,1.48077 0.6053,1.05769 0.6053,0.95192 0.6053,-2.43269 0.6053,1.69231 0.6053,1.83333 0.6053,-1.83333 0.6053,1.30448 0.6053,0.49359 0.6053,1.375 0.6053,-0.14102 0.6053,0.59936 0.6053,-2.11539 0.6053,-0.95192 0.6053,0.31731 0.6053,0.6699 0.6053,-4.7949 0.6053,3.10256 0.6053,1.375 0.6053,-3.73718 0.6053,2.46795 0.6053,0.31731 0.6053,2.78525 0.6053,-2.96153 0.6053,2.22115 0.6053,-4.08974 0.6053,4.19551 0.6053,-0.77564 0.6053,0.24679 0.6053,-0.21154 0.6053,-3.03205 0.6053,-0.77564 0.6053,1.86859 0.6053,0.95193 0.6053,-3.38462 0.6053,1.97436 0.6053,0.38782 0.6053,1.76282 0.6053,-4.23077 0.6053,7.47436 0.6053,-0.0353 0.6053,-5.57051 0.6053,2.50321 0.6053,-1.33975 0.6053,0.52885 0.6053,0.10577 0.6053,-2.9968 0.6053,3.98398 0.6053,0.6699 0.6053,0.17625 0.6053,-3.98397 0.6053,1.44551 0.6053,2.22115 0.6053,-3.17307 0.6053,4.19551 0.6053,-6.09936 0.6053,2.67949 0.6053,-3.03205 0.6053,3.34936 0.6053,0 0.6053,1.41025 0.6053,-1.62179 0.6053,0.17628 0.6053,2.00961 0.6053,-3.63141 0.6053,0.10577 0.6053,2.85577 0.6053,-0.95192 0.6053,-0.98718 0.6053,-5.35897 0.6053,7.47435 0.6053,-2.78525 0.6053,2.75 0.6053,-1.72757 0.6053,-0.42307 0.6053,1.02243 0.6053,-0.14102 0.6053,-0.52885 0.6053,-0.0705 0.6053,1.375 0.6053,-1.65705 0.6053,3.0673 0.6053,-1.05769 0.6053,-2.08009 0.6053,-1.1635 0.6053,3.63141 0.6053,-1.72756 0.6053,1.55128 0.6053,1.72756 0.6053,-3.41987 0.6053,-1.86859 0.6053,1.55129 0.6053,2.53846 0.6053,-0.84616 0.6053,1.79808 0.6053,-2.82051 0.6053,1.79807 0.6053,-0.88141 0.6053,-0.59932 0.6053,-0.70516 0.6053,1.90384 0.6053,-1.6923 0.6053,-2.4327 0.6053,2.46795 0.6053,-1.44551 0.6053,2.89102 0.6053,-0.66987 0.6053,0.59936 0.6053,-0.21154 0.6053,-4.23077 0.6053,2.96154 0.6053,0.31731 0.6053,-0.31731 0.6053,2.82051 0.6053,-0.74038 0.6053,-1.86859 0.6053,-0.38782 0.6053,1.90385 0.6053,-3.03205 0.6053,-1.375 0.6053,3.984 0.6053,-2.82054 0.6053,1.375 0.6053,-0.91667 0.6053,0.95192 0.6053,0.52885 0.6053,1.51602 0.6053,-1.37496 0.6053,-2.57375 0.6053,4.54807 0.6053,2.25641 0.6053,-2.82051 0.6053,-3.70189 0.6053,1.86856 0.6053,-0.5641 0.6053,2.36217 0.6053,0.28206 0.6053,2.00965 0.6053,-4.9359 0.6053,2.67945 0.6053,-1.65705 0.6053,-0.45833 0.6053,1.72756 0.6053,-2.96154 0.6053,0.74039 0.6053,2.18589 0.6053,-1.23397 0.6053,-0.0705 0.6053,-0.2468 0.6053,-0.0352 0.6053,1.1282 0.6053,0.10577 0.6053,0.35256 0.6053,-3.91346 0.6053,4.83013 0.6053,-4.97115 0.6053,4.65384 0.6053,-2.29166 0.6053,0.5641 0.6053,4.40705 0.6053,-4.90064 0.6053,-1.86859 0.6053,1.58654 0.6053,1.51602 0.6053,-0.0705 0.6053,-2.39743 0.6053,-2.04488 0.6053,6.76923 0.6053,-7.12175 0.6053,3.59611 0.6053,-0.10577 0.6053,1.26923 0.6053,0.0705 0.6053,-0.95193 0.6053,-0.24679 0.6053,-1.79808 0.6053,1.76282 0.6053,0.59936 0.6053,1.09295 0.6053,-0.84615 0.6053,-2.53846 0.6053,1.44551 0.6053,-1.12821 0.6053,2.96154 0.6053,-0.42308 0.6053,-1.6923 0.6053,1.09295 0.6053,-1.41026 0.6053,0.24683 0.6053,2.53843 0.6053,-4.54808 0.6053,0.0353 0.6053,4.54807 0.6053,1.58654 0.6053,-2.25641 0.6053,-1.83333 0.6053,3.24359 0.6053,0.38782 0.6053,-2.29167 0.6053,-0.49359 0.6053,0.0705 0.6053,-0.0705 0.6053,3.77244 0.6053,-6.41667 0.6053,3.3141 0.6053,-1.6923 0.6053,0.1058 0.6053,-1.19875 0.6053,3.34935 0.6053,-0.52884 0.6053,1.86859 0.6053,-2.08013 0.6053,-2.00961 0.6053,1.19871 0.6053,0.45834 0.6053,-0.56411 0.6053,3.5609 0.6053,-3.70192 0.6053,-0.2468 0.6053,1.90388 0.6053,-2.99679 0.6053,4.30125 0.6053,1.44551 0.6053,-1.26923 0.6053,-1.05769 0.6053,-1.48077 0.6053,-0.88141 0.6053,-1.12821 0.6053,2.43269 0.6053,-0.10573 0.6053,-1.19875 0.6053,0.88141 0.6053,0 0.6053,-1.55128 0.6053,-2.1859 0.6053,2.71474 0.6053,-0.88141 0.6053,-1.79807 0.6053,3.03205 0.6053,0.77564 0.6053,0.88141 0.6053,-1.41026 0.6053,-0.59936 0.6053,1.26923 0.6053,-0.45833 0.6053,-0.8109 0.6053,1.9391 0.6053,-3.94871 0.6053,2.04487 0.6053,-0.49359 0.6053,2.0449 0.6053,-0.0353 0.6053,-1.9391 0.6053,-0.38782 0.6053,1.9391 0.6053,0.52885 0.6053,-3.24359 0.6053,2.89106 0.6053,1.86855 0.6053,-3.38461 0.6053,3.91346 0.6053,-3.77243 0.6053,1.48076 0.6053,0.2468 0.6053,-1.58654 0.6053,1.41026 0.6053,-3.34936 0.6053,3.45513 0.6053,0.59935 0.6053,-1.09294 0.6053,1.30448 0.6053,-4.4423 0.6053,1.44551 0.6053,2.04487 0.6053,-0.38782 0.6053,1.09295 0.6053,-2.85577 0.6053,3.24359 0.6053,-5.00641 0.6053,1.09295 0.6053,4.125 0.6053,-2.46795 0.6053,0.95192 0.6053,1.02244 0.6053,-0.98718 0.6053,1.05769 0.6053,-1.09295 0.6053,-3.24359 0.6053,1.93911 0.6053,6.59294 0.6053,-6.45192 0.6053,3.3141 0.6053,-2.39743 0.6053,-0.52885 0.6053,-0.17628 0.6053,-0.74039 0.6053,0.35257 0.6053,-0.0353 0.6053,2.96154 0.6053,-3.52564 0.6053,-0.0353 0.6053,-2.29163 0.6053,3.41984 0.6053,3.13782 0.6053,-3.20833 0.6053,1.19871 0.6053,-3.3141 0.6053,-0.0353 0.6053,3.03205 0.6053,-0.74039 0.6053,-0.95192 0.6053,0.8109 0.6053,2.32692 0.6053,-0.42308 0.6053,-0.0705 0.6053,-1.72757 0.6053,0.98718 0.6053,2.15064 0.6053,-0.88141 0.6053,-1.30448 0.6053,1.55128 0.6053,-2.78526 0.6053,1.6218 0.6053,-1.51603 0.6053,-1.02243 0.6053,1.9391 0.6053,-0.21154 0.6053,-1.23397 0.6053,1.1282 0.6053,-0.70513 0.6053,-1.62179 0.6053,3.34936 0.6053,-2.78526 0.6053,4.40705 0.6053,-2.89102 0.6053,3.70192 0.6053,-6.66346 0.6053,1.72756 0.6053,3.80769 0.6053,-2.53846 0.6053,1.72757 0.6053,-2.50321 0.6053,1.41026 0.6053,-0.77564 0.6053,0.70513 0.6053,0.66987 0.6053,-1.30449 0.6053,-0.84615 0.6053,2.78525 0.6053,-0.84615 0.6053,-1.30449 0.6053,1.30449 0.6053,-1.86859 0.6053,1.05769 0.6053,-0.88141 0.6053,0.42308 0.6053,1.48077 0.6053,-2.04487 0.6053,2.15064 0.6053,-0.77564 0.6053,1.44551 0.6053,-3.34936 0.6053,-0.95192 0.6053,4.40705 0.6053,-1.51603 0.6053,1.375 0.6053,1.09295 0.6053,-5.92308 0.6053,3.20834 0.6053,-0.66987 0.6053,0.49359 0.6053,1.55128 0.6053,-4.30128 0.6053,3.70192 0.6053,-1.65705 0.6053,-1.09292 0.6053,2.32689 0.6053,-3.27884 0.6053,4.30128 0.6053,-2.04487 0.6053,1.26923 0.6053,-0.49359 0.6053,1.05769 0.6053,3.38461 0.6053,-2.92628 0.6053,2.36222 0.6053,-3.73722 0.6053,-0.28205 0.6053,0.91667 0.6053,-2.04487 0.6053,-0.2468 0.6053,1.65705 0.6053,-0.42307 0.6053,-0.38783 0.6053,0.45834 0.6053,2.46795 0.6053,-5.18269 0.6053,4.16025 0.6053,0.45833 0.6053,0.70513 0.6053,-2.53846 0.6053,-4.01923 0.6053,5.71154 0.6053,0.24679 0.6053,-3.17307 0.6053,2.75 0.6053,-2.50321 0.6053,-0.14102 0.6053,0.52884 0.6053,1.26923 0.6053,-0.95192 0.6053,0.42308 0.6053,1.375 0.6053,0.84615 0.6053,-1.58654 0.6053,-0.98718 0.6053,2.71475 0.6053,-3.49039 0.6053,2.78526 0.6053,-1.69231 0.6053,-0.38782 0.6053,0.31731 0.6053,-1.02244 0.6053,0.88141 0.6053,2.18593 0.6053,-0.28208 0.6053,-1.86859 0.6053,1.41025 0.6053,-2.67948 0.6053,2.11538 0.6053,0.77564 0.6053,-1.33974 0.6053,-4.72436 0.6053,7.4391 0.6053,-3.41987 0.6053,-0.28205 0.6053,2.82055 0.6053,-2.25645 0.6053,-0.35256 0.6053,1.86859 0.6053,-2.04487 0.6053,0.66987 0.6053,-0.77564 0.6053,1.05769 0.6053,0.17628 0.6053,-2.46795 0.6053,2.57372 0.6053,-1.83333 0.6053,2.53846 0.6053,-2.85577 0.6053,1.44551 0.6053,1.90385 0.6053,-2.71474 0.6053,0.0705 0.6053,-2.22116 0.6053,3.70193 0.6053,1.375 0.6053,-3.17308 0.6053,-2.29167 0.6053,3.63141 0.6053,-0.0353 0.6053,4.16025 0.6053,1.90385 0.6053,-7.47436 0.6053,0.38782 0.6053,1.58657 0.6053,-2.53846 0.6053,1.16343 0.6053,2.60897 0.6053,-1.86859 0.6053,-0.21153 0.6053,-0.42308 0.6053,-0.38782 0.6053,1.02243 0.6053,0.88141 0.6053,-0.17628 0.6053,-2.29166 0.6053,2.46794 0.6053,-4.19551 0.6053,2.04487 0.6053,1.23398 0.6053,0.17628 0.6053,-1.09295 0.6053,0.84616 0.6053,-0.70513 0.6053,0.63461 0.6053,-0.77564 0.6053,1.02244 0.6053,0.84615 0.6053,-1.9391 0.6053,2.53846 0.6053,-1.33974 0.6053,-2.32693 0.6053,1.30449 0.6053,1.26923 0.6053,1.9391 0.6053,-4.86538 0.6053,2.60897 0.6053,-0.81089 0.6053,-0.38782 0.6053,-0.0353 0.6053,0.49359 0.6053,-0.45833 0.6053,0.70512 0.6053,0.91667 0.6053,-0.35256 0.6053,-1.55129 0.6053,3.52564 0.6053,0.52885 0.6053,-0.98718 0.6053,-0.84615 0.6053,-2.22116"
                       vector-effect="non-scaling-stroke"
                       id="path238"
                       inkscape:connector-curvature="0" />
                  </g>
                </g>
              </g>
            </g>
          </g>
        </g>
      </g>
    </g>
    <g
       transform="translate(-166,0)"
       id="g3386">
      <path
         style="fill:none;stroke:#000000;stroke-width:0.56202096;stroke-linecap:butt;stroke-linejoin:miter;stroke-miterlimit:4;stroke-opacity:1;stroke-dasharray:0.56202098, 1.68606294;stroke-dashoffset:0"
         d="m 372.18101,14.078295 0,266.481095 0,0 0,-0.22152"
         id="path3237"
         inkscape:connector-curvature="0"
         sodipodi:nodetypes="cccc" />
      <text
         xml:space="preserve"
         style="font-size:9px;font-style:normal;font-variant:normal;font-weight:normal;font-stretch:normal;line-height:125%;letter-spacing:0px;word-spacing:0px;fill:#000000;fill-opacity:1;stroke:none;font-family:TeX Gyre Termes;-inkscape-font-specification:TeX Gyre Termes"
         x="340.24857"
         y="288.61731"
         id="text4007"
         sodipodi:linespacing="125%"><tspan
           sodipodi:role="line"
           id="tspan4009"
           x="340.24857"
           y="288.61731"
           style="font-size:14px">Vehicle at point A</tspan></text>
    </g>
    <text
       sodipodi:linespacing="125%"
       id="text4011"
       y="288.61731"
       x="30.630304"
       style="font-size:9px;font-style:normal;font-variant:normal;font-weight:normal;font-stretch:normal;line-height:125%;letter-spacing:0px;word-spacing:0px;fill:#000000;fill-opacity:1;stroke:none;font-family:TeX Gyre Termes;-inkscape-font-specification:TeX Gyre Termes"
       xml:space="preserve"><tspan
         style="font-size:14px"
         y="288.61731"
         x="30.630304"
         id="tspan4013"
         sodipodi:role="line">Initial position</tspan></text>
    <text
       sodipodi:linespacing="125%"
       id="text4023"
       y="162.60043"
       x="52.36602"
       style="font-size:14px;font-style:normal;font-variant:normal;font-weight:normal;font-stretch:normal;line-height:125%;letter-spacing:0px;word-spacing:0px;fill:#000000;fill-opacity:1;stroke:none;font-family:TeX Gyre Termes;-inkscape-font-specification:TeX Gyre Termes"
       xml:space="preserve"><tspan
         y="162.60043"
         x="52.36602"
         id="tspan4025"
         sodipodi:role="line">Sensor unit </tspan></text>
    <text
       sodipodi:linespacing="125%"
       id="text4027"
       y="80.580383"
       x="52.786034"
       style="font-size:14px;font-style:normal;font-variant:normal;font-weight:normal;font-stretch:normal;line-height:125%;letter-spacing:0px;word-spacing:0px;fill:#000000;fill-opacity:1;stroke:none;font-family:TeX Gyre Termes;-inkscape-font-specification:TeX Gyre Termes"
       xml:space="preserve"><tspan
         y="80.580383"
         x="52.786034"
         id="tspan4029"
         sodipodi:role="line">Motor unit</tspan></text>
    <text
       sodipodi:linespacing="125%"
       id="text4031"
       y="256.67902"
       x="52.702019"
       style="font-size:14px;font-style:normal;font-variant:normal;font-weight:normal;font-stretch:normal;line-height:125%;letter-spacing:0px;word-spacing:0px;fill:#000000;fill-opacity:1;stroke:none;font-family:TeX Gyre Termes;-inkscape-font-specification:TeX Gyre Termes"
       xml:space="preserve"><tspan
         y="256.67902"
         x="52.702019"
         id="tspan4033"
         sodipodi:role="line">Input transducer</tspan></text>
  </g>
</svg>
