<?xml version="1.0" encoding="UTF-8" standalone="no"?>
<svg xmlns="http://www.w3.org/2000/svg" xmlns:xlink="http://www.w3.org/1999/xlink"  version="1.2" baseProfile="tiny">
<title>pyqtgraph SVG export</title>
<desc>Generated with Qt and pyqtgraph</desc>
<defs>
</defs>
<g id="GraphicsScene_1">
    <g fill="none" fill-rule="evenodd" id="GraphicsLayout_1" stroke="black" stroke-linecap="square" stroke-linejoin="bevel" stroke-width="1">
        <g fill="none" fill-rule="evenodd" id="PlotItem_1" stroke="black" stroke-linecap="square" stroke-linejoin="bevel" stroke-width="1">
            <g fill="none" fill-rule="evenodd" id="AxisItem_1" stroke="black" stroke-linecap="square" stroke-linejoin="bevel" stroke-width="1">
                <g fill="none" font-family="Sans Serif" font-size="11.875" font-style="normal" font-weight="400" stroke="#969696" stroke-linecap="square" stroke-linejoin="bevel" stroke-opacity="1" stroke-width="1">
                    <polyline fill="none" points="45.0,5.0 45.0,79.113566312" vector-effect="non-scaling-stroke"/>
                </g>
                <g fill="none" font-family="Sans Serif" font-size="11.875" font-style="normal" font-weight="400" stroke="#969696" stroke-linecap="square" stroke-linejoin="bevel" stroke-opacity="1" stroke-width="1">
                    <polyline fill="none" points="45.5,42.056833688 50.5,42.056833688" vector-effect="non-scaling-stroke"/>
                </g>
                <g fill="none" font-family="Sans Serif" font-size="11.875" font-style="normal" font-weight="400" stroke="#969696" stroke-linecap="square" stroke-linejoin="bevel" stroke-opacity="0.498039" stroke-width="1">
                    <polyline fill="none" points="45.5,77.688361784 48.8333,77.688361784" vector-effect="non-scaling-stroke"/>
                    <polyline fill="none" points="45.5,6.4252651664 48.8333,6.4252651664" vector-effect="non-scaling-stroke"/>
                </g>
                <g fill="none" font-family="Sans Serif" font-size="11.875" font-style="normal" font-weight="400" stroke="#969696" stroke-linecap="square" stroke-linejoin="bevel" stroke-opacity="0.333333" stroke-width="1">
                    <polyline fill="none" points="45.5,70.562035952 48.0,70.562035952" vector-effect="non-scaling-stroke"/>
                    <polyline fill="none" points="45.5,63.43571012 48.0,63.43571012" vector-effect="non-scaling-stroke"/>
                    <polyline fill="none" points="45.5,56.309384288 48.0,56.309384288" vector-effect="non-scaling-stroke"/>
                    <polyline fill="none" points="45.5,49.183058456 48.0,49.183058456" vector-effect="non-scaling-stroke"/>
                    <polyline fill="none" points="45.5,34.930507856 48.0,34.930507856" vector-effect="non-scaling-stroke"/>
                    <polyline fill="none" points="45.5,27.804182024 48.0,27.804182024" vector-effect="non-scaling-stroke"/>
                    <polyline fill="none" points="45.5,20.677856192 48.0,20.677856192" vector-effect="non-scaling-stroke"/>
                    <polyline fill="none" points="45.5,13.5515707856 48.0,13.5515707856" vector-effect="non-scaling-stroke"/>
                </g>
                <g fill="none" font-family="Sans Serif" font-size="11.875" font-style="normal" font-weight="400" stroke="#969696" stroke-linecap="square" stroke-linejoin="bevel" stroke-opacity="1" stroke-width="1" transform="matrix(1,0,0,1.01064,5.5,5)">
                    <text fill="#969696" fill-opacity="1" font-family="&quot;Sans Serif&quot;, sans-serif" font-size="11.875" font-style="normal" font-weight="400" stroke="none" x="31" xml:space="preserve" y="40.6562">0</text>
                    <text fill="#969696" fill-opacity="1" font-family="&quot;Sans Serif&quot;, sans-serif" font-size="11.875" font-style="normal" font-weight="400" stroke="none" x="19" xml:space="preserve" y="75.9219">-10</text>
                    <text fill="#969696" fill-opacity="1" font-family="&quot;Sans Serif&quot;, sans-serif" font-size="11.875" font-style="normal" font-weight="400" stroke="none" x="23" xml:space="preserve" y="5.42188">10</text>
                </g>
            </g>
            <g fill="none" fill-rule="evenodd" id="ViewBox_1" stroke="black" stroke-linecap="square" stroke-linejoin="bevel" stroke-width="1">
                <g fill="none" font-family="Sans Serif" font-size="11.875" font-style="normal" font-weight="400" stroke="none">
                    <path d="M45.0,5.0 L661.0,5.0 L661.0,78.3333 L45.0,78.3333 L45.0,5.0 " fill-rule="evenodd" vector-effect="non-scaling-stroke"/>
                </g>
                <clipPath id="ViewBox_1_clip">
                    <path d="M45.0,5.0 L661.0,5.0 L661.0,78.3333 L45.0,78.3333 L45.0,5.0 " fill-rule="evenodd" vector-effect="non-scaling-stroke"/>
                </clipPath>
                <g clip-path="url(#ViewBox_1_clip)">
                    <g fill="none" fill-rule="evenodd" id="ChildGroup_1" stroke="black" stroke-linecap="square" stroke-linejoin="bevel" stroke-width="1">
                        <g fill="none" fill-rule="evenodd" id="InfiniteLine_1" stroke="black" stroke-linecap="square" stroke-linejoin="bevel" stroke-width="1">
                            <g fill="none" font-family="Sans Serif" font-size="11.875" font-style="normal" font-weight="400" stroke="#e6e6af" stroke-linecap="square" stroke-linejoin="bevel" stroke-opacity="1" stroke-width="1">
                                <polyline fill="none" points="661.00268021,41.6667 44.999982536,41.6667" vector-effect="non-scaling-stroke"/>
                            </g>
                        </g>
                        <g id="PlotDataItem_1">
                            <g fill="none" fill-rule="evenodd" id="PlotCurveItem_1" stroke="black" stroke-linecap="square" stroke-linejoin="bevel" stroke-width="1">
                                <g fill="none" font-family="Sans Serif" font-size="11.875" font-style="normal" font-weight="400" stroke="#ff0000" stroke-linecap="square" stroke-linejoin="bevel" stroke-opacity="1" stroke-width="1">
                                    <path d="M29.4743,41.6582737204 L30.69097,41.6031679672 L31.90764,41.5676647724 L33.12431,41.6357448808 L34.34098,41.5271199124 L35.55765,41.4879147956 L36.77432,41.4939083836 L37.99099,41.4809692848 L39.20766,41.4478635252 L40.42433,41.4235366092 L41.641,41.3894789268 L42.85767,41.4144052016 L44.07434,41.4675365964 L45.29101,41.4540686516 L46.50768,41.2916071604 L47.72435,41.3400847104 L48.94102,41.3075077968 L50.15769,41.3192129216 L51.37436,41.2189084636 L52.59103,41.3013379268 L53.8077,41.349039836 L55.02437,41.31325459 L56.24104,41.2944276724 L57.45771,41.4475109612 L58.67438,41.4416936552 L59.89105,41.50628338 L61.10772,41.5473923424 L62.32439,41.6140621948 L63.54106,41.591427586 L64.75773,41.636379496 L65.9744,41.6129692464 L67.19107,41.6904275572 L68.40774,41.6794628168 L69.62441,41.6223474488 L70.84108,41.6644435904 L72.05775,41.5193635044 L73.27442,41.597421174 L74.49109,41.6793217912 L75.70776,41.655946798 L76.92443,41.6710717936 L78.1411,41.6826711492 L79.35777,41.5372737556 L80.57444,41.4500141656 L81.79111,41.4561135228 L83.00778,41.4887256928 L84.22445,41.535898756 L85.44112,41.5645974656 L86.65779,41.5279308096 L87.87446,41.464680828 L89.09113,41.4690173652 L90.3078,41.5081519692 L91.52447,41.5124885064 L92.74114,41.4728603128 L93.95781,41.4789949264 L95.17448,41.445113526 L96.39115,41.3156872816 L97.60782,41.3454789396 L98.82449,41.443174424 L100.04116,41.4108090488 L101.25783,41.5131936344 L102.4745,41.4435622444 L103.69117,41.430129556 L104.90784,41.519328248 L106.12451,41.549825034 L107.34118,41.4681359552 L108.55785,41.423607122 L109.77452,41.3882096964 L110.99119,41.3092353604 L112.20786,41.2695719104 L113.42453,41.3455847088 L114.6412,41.3466424008 L115.85787,41.2743667808 L117.07454,41.2535302484 L118.29121,41.190562318 L119.50788,41.1572097636 L120.72455,41.0942065768 L121.94122,40.9481393116 L123.15789,40.8411008812 L124.37456,40.7656521852 L125.59123,40.6328765828 L126.8079,40.646203502 L128.02457,40.6148958188 L129.24124,40.5608125012 L130.45791,40.60460095 L131.67458,40.5929310816 L132.89125,40.6948220776 L134.10792,40.7134022004 L135.32459,40.6446874768 L136.54126,40.5834823664 L137.75793,40.5698028832 L138.9746,40.5279535364 L140.19127,40.4949888024 L141.40794,40.5178349496 L142.62461,40.5432195576 L143.84128,40.5476266076 L145.05795,40.639504786 L146.27462,40.5932483892 L147.49129,40.5690624988 L148.70796,40.4326907436 L149.92463,40.3402132064 L151.1413,40.3282260304 L152.35797,40.1234216028 L153.57464,40.0872837928 L154.79131,40.0554120072 L156.00798,40.0693382852 L157.22465,40.0576684168 L158.44132,40.0942998164 L159.65799,40.1176748096 L160.87466,40.2401202868 L162.09133,40.2542581032 L163.308,40.1283222424 L164.52467,40.0216011196 L165.74134,40.0671876448 L166.95801,39.9776363888 L168.17468,39.9583158816 L169.39135,39.9019056416 L170.60802,39.8313223288 L171.82469,39.7632422204 L173.04136,39.689873652 L174.25803,39.5983127812 L175.4747,39.561716638 L176.69137,39.5965147048 L177.90804,39.5198320348 L179.12471,39.5508224104 L180.34138,39.5183160096 L181.55805,39.4581685912 L182.77472,39.4321141116 L183.99139,39.4944826832 L185.20806,39.4127936044 L186.42473,39.3911814312 L187.6414,39.2888673584 L188.85807,39.2709923636 L190.07474,39.2224443008 L191.29141,39.173896238 L192.50808,39.2540340352 L193.72475,39.2087295612 L194.94142,39.1755180324 L196.15809,39.1913128996 L197.37476,39.1378289408 L198.59143,39.0137616692 L199.8081,39.0314956384 L201.02477,39.0375597392 L202.24144,38.8254572368 L203.45811,38.7415117484 L204.67478,38.6880983024 L205.89145,38.6864412516 L207.10812,38.7234252152 L208.32479,38.737950852 L209.54146,38.7178194476 L210.75813,38.718912396 L211.9748,38.6782617668 L213.19147,38.73601175 L214.40814,38.625659218 L215.62481,38.4782169532 L216.84148,38.4865374636 L218.05815,38.5347682188 L219.27482,38.5002874596 L220.49149,38.3931080036 L221.70816,38.2635407336 L222.92483,38.1663740952 L224.1415,38.0540119484 L225.35817,38.0825696324 L226.57484,38.0144542676 L227.79151,38.0204478556 L229.00818,38.0588420752 L230.22485,38.0714991228 L231.44152,38.0940632188 L232.65819,38.0465023352 L233.87486,37.9856850452 L235.09153,38.0441049 L236.3082,37.8753677696 L237.52487,37.7970280488 L238.74154,37.8636626448 L239.95821,37.8381722676 L241.17488,37.7669190832 L242.39155,37.7395248604 L243.60822,37.763463956 L244.82489,37.8331306024 L246.04156,37.75588383 L247.25823,37.8491017516 L248.4749,37.8254447072 L249.69157,37.6703165472 L250.90824,37.6869223116 L252.12491,37.6090056676 L253.34158,37.5497749156 L254.55825,37.5480826084 L255.77492,37.5482588904 L256.99159,37.4621627616 L258.20826,37.4470025096 L259.42493,37.5606691432 L260.6416,37.508383902 L261.85827,37.495162752 L263.07494,37.6318870712 L264.29161,37.5715986272 L265.50828,37.5521723508 L266.72495,37.4806723716 L267.94162,37.5235794104 L269.15829,37.4434063568 L270.37496,37.5413133796 L271.59163,37.5150473616 L272.8083,37.5213582572 L274.02497,37.4365313588 L275.24164,37.450739688 L276.45831,37.5263294096 L277.67498,37.4708710924 L278.89165,37.3820954772 L280.10832,37.3797685548 L281.32499,37.2369448784 L282.54166,37.1446788796 L283.75833,37.1017365844 L284.975,37.11157312 L286.19167,37.0666564664 L287.40834,37.0200475056 L288.62501,36.9566564984 L289.84168,36.8459866588 L291.05835,36.7842879588 L292.27502,36.6866982436 L293.49169,36.6607847896 L294.70836,36.501108554 L295.92503,36.4908136852 L297.1417,36.3855380748 L298.35837,36.2704259288 L299.57504,36.1560894236 L300.79171,36.116813794 L302.00838,36.0180253612 L303.22505,35.9664099916 L304.44172,35.9410958964 L305.65839,35.9280862848 L306.87506,35.8279933652 L308.09173,35.877775402 L309.3084,35.8550702804 L310.52507,35.8373715676 L311.74174,35.8009517064 L312.95841,35.77094851 L314.17508,35.7751087652 L315.39175,35.7618523588 L316.60842,35.5621248528 L317.82509,35.5161857636 L319.04176,35.4795896204 L320.25843,35.5204870444 L321.4751,35.446765912 L322.69177,35.4181024588 L323.90844,35.3693076012 L325.12511,35.3765351632 L326.34178,35.29763134 L327.55845,35.263961478 L328.77512,35.1826249632 L329.99179,35.1535031768 L331.20846,35.1376025404 L332.42513,35.049778848 L333.6418,35.0516826936 L334.85847,35.1066474212 L336.07514,35.0607788448 L337.29181,34.9848718156 L338.50848,34.9683718204 L339.72515,34.8954968416 L340.94182,34.7955096912 L342.15849,34.582984112 L343.37516,34.5213206684 L344.59183,34.5858398804 L345.8085,34.4965354192 L347.02517,34.4258110808 L348.24184,34.3880867328 L349.45851,34.4002501908 L350.67518,34.283657276 L351.89185,34.1578976972 L353.10852,34.13857719 L354.32519,34.1644201312 L355.54186,34.099618868 L356.75853,34.0783240024 L357.9752,33.9879971056 L359.19187,33.9482983992 L360.40854,33.9288368664 L361.62521,33.903945848 L362.84188,33.8413304816 L364.05855,33.8660804744 L365.27522,33.7805837044 L366.49189,33.7186029532 L367.70856,33.6748850172 L368.92523,33.6538369464 L370.1419,33.5828658132 L371.35857,33.5603369736 L372.57524,33.4463882888 L373.79191,33.4674363596 L375.00858,33.4363754712 L376.22525,33.3671319016 L377.44192,33.4321799596 L378.65859,33.3633947232 L379.87526,33.2875582068 L381.09193,33.2854075664 L382.3086,33.2632665472 L383.52527,33.2065037432 L384.74194,33.1429717104 L385.95861,33.241478092 L387.17528,33.1418082492 L388.39195,33.1341928668 L389.60862,33.0413627656 L390.82529,33.052856352 L392.04196,33.0539845568 L393.25863,33.0102666208 L394.4753,32.9297057468 L395.69197,32.9852345768 L396.90864,32.937567924 L398.12531,32.8988916532 L399.34198,32.8995967812 L400.55865,32.836029492 L401.77532,32.733785932 L402.99199,32.6830519724 L404.20866,32.687952612 L405.42533,32.7301545228 L406.642,32.61021225 L407.85867,32.6381353188 L409.07534,32.57407444 L410.29201,32.4485969124 L411.50868,32.4246930732 L412.72535,32.4443661444 L413.94202,32.3790712916 L415.15869,32.3769559076 L416.37536,32.3416289948 L417.59203,32.1429591808 L418.8087,32.115388676 L420.02537,32.1213470076 L421.24204,32.1604463552 L422.45871,32.1249784168 L423.67538,32.0801675324 L424.89205,32.0200906268 L426.10872,31.8538567008 L427.32539,31.875468874 L428.54206,31.7743182624 L429.75873,31.6491580424 L430.9754,31.62832151 L432.19207,31.6026548508 L433.40874,31.5243503864 L434.62541,31.4963215484 L435.84208,31.4346581048 L437.05875,31.4544016888 L438.27542,31.4251741332 L439.49209,31.3823376072 L440.70876,31.3124594224 L441.92543,31.2397607256 L443.1421,31.1342735768 L444.35877,31.0898152564 L445.57544,31.0621742388 L446.79211,30.9082447964 L448.00878,30.9273185088 L449.22545,30.844042892 L450.44212,30.848449942 L451.65879,30.7489211248 L452.87546,30.6925108848 L454.09213,30.577857072 L455.3088,30.446879546 L456.52547,30.2911520272 L457.74214,30.1672257812 L458.95881,30.1328155348 L460.17548,30.136623226 L461.39215,30.1126136176 L462.60882,30.1012610568 L463.82549,30.0472129956 L465.04216,29.9771232724 L466.25883,29.9191617508 L467.4755,29.832184212 L468.69217,29.7884310196 L469.90884,29.7078701456 L471.12551,29.6639054148 L472.34218,29.676174642 L473.55885,29.6108445328 L474.77552,29.4729920088 L475.99219,29.4814535448 L477.20886,29.4141138208 L478.42553,29.3446234564 L479.6422,29.1243062128 L480.85887,29.077344688 L482.07554,28.9693895912 L483.29221,28.937553062 L484.50888,28.7862678496 L485.72555,28.5544570196 L486.94222,28.469171788 L488.15889,28.3790211732 L489.37556,28.2153962208 L490.59223,28.1776366164 L491.8089,28.1250340676 L493.02557,28.1498545732 L494.24224,28.1155148396 L495.45891,28.1054315092 L496.67558,28.0480693464 L497.89225,28.0246943532 L499.10892,27.7859732688 L500.32559,27.6663130472 L501.54226,27.6464989504 L502.75893,27.513194502 L503.9756,27.4207169648 L505.19227,27.3999862016 L506.40894,27.3340214772 L507.62561,27.3380054504 L508.84228,27.2687618808 L510.05895,27.1947939536 L511.27562,27.1149382076 L512.49229,26.9954190116 L513.70896,26.9156690348 L514.92563,26.8620440504 L516.1423,26.7651947196 L517.35897,26.7002171744 L518.57564,26.4938967216 L519.79231,26.4631178844 L521.00898,26.4721435228 L522.22565,26.4097749512 L523.44232,26.3494159944 L524.65899,26.2873647304 L525.87566,26.2150891104 L527.09233,26.154412846 L528.309,26.121095548 L529.52567,26.1287109304 L530.74234,26.1215891376 L531.95901,26.001576352 L533.17568,25.9290186808 L534.39235,25.817714226 L535.60902,25.66822709 L536.82569,25.586784806 L538.04236,25.5537495592 L539.25903,25.4769258636 L540.4757,25.384765634 L541.69237,25.326592574 L542.90904,25.2873874572 L544.12571,25.2884451492 L545.34238,25.195262484 L546.55905,25.1086727656 L547.77572,25.059701626 L548.99239,24.987249724 L550.20906,25.0809964916 L551.42573,25.0406984264 L552.6424,25.0654836756 L553.85907,25.0016343352 L555.07574,24.9659901148 L556.29241,24.9313330736 L557.50908,24.8176311836 L558.72575,24.77271453 L559.94242,24.7920350372 L561.15909,24.828419642 L562.37576,24.7810350404 L563.59243,24.6481889252 L564.8091,24.5632210012 L566.02577,24.468451798 L567.24244,24.4518107772 L568.45911,24.3999133564 L569.67578,24.3928620764 L570.89245,24.3699454164 L572.10912,24.3509774732 L573.32579,24.2863172356 L574.54246,24.1404262524 L575.75913,24.11958972 L576.9758,24.0895512672 L578.19247,24.086801268 L579.40914,24.0734390924 L580.62581,24.0336346168 L581.84248,24.029509618 L583.05915,24.0559871744 L584.27582,24.13898074 L585.49249,24.0567980716 L586.70916,24.1314711268 L587.92583,24.06846794 L589.1425,24.064413454 L590.35917,24.0669519148 L591.57584,23.9944295 L592.79251,23.9742628392 L594.00918,23.9440481044 L595.22585,23.9223654184 L596.44252,23.8686346648 L597.65919,23.827314164 L598.87586,23.79523084 L600.09253,23.7771090504 L601.3092,23.805631478 L602.52587,23.8800577384 L603.74254,23.8016122484 L604.95921,23.8131763476 L606.17588,23.8341186492 L607.39255,23.7321923968 L608.60922,23.5391636068 L609.82589,23.5298911736 L611.04256,23.5297854044 L612.25923,23.4819424696 L613.4759,23.4479200436 L614.69257,23.3980322376 L615.90924,23.3971155712 L617.12591,23.3436316124 L618.34258,23.3517758408 L619.55925,23.3429617408 L620.77592,23.3446893044 L621.99259,23.2765034268 L623.20926,23.2766444524 L624.42593,23.2002085772 L625.6426,23.1881861448 L626.85927,23.125535522 L628.07594,23.0772695104 L629.29261,23.0670451544 L630.50928,23.1200002672 L631.72595,23.1103400136 L632.94262,23.1670323048 L634.15929,23.2125130608 L635.37596,23.143692568 L636.59263,23.024525936 " fill-rule="evenodd" vector-effect="non-scaling-stroke"/>
                                </g>
                            </g>
                        </g>
                    </g>
                </g>
            </g>
        </g>
        <g fill="none" fill-rule="evenodd" id="PlotItem_2" stroke="black" stroke-linecap="square" stroke-linejoin="bevel" stroke-width="1">
            <g fill="none" fill-rule="evenodd" id="ViewBox_2" stroke="black" stroke-linecap="square" stroke-linejoin="bevel" stroke-width="1">
                <g fill="none" font-family="Sans Serif" font-size="11.875" font-style="normal" font-weight="400" stroke="none">
                    <path d="M5.0,84.3333 L661.0,84.3333 L661.0,157.6666 L5.0,157.6666 L5.0,84.3333 " fill-rule="evenodd" vector-effect="non-scaling-stroke"/>
                </g>
                <clipPath id="ViewBox_2_clip">
                    <path d="M5.0,84.3333 L661.0,84.3333 L661.0,157.667 L5.0,157.667 L5.0,84.3333 " fill-rule="evenodd" vector-effect="non-scaling-stroke"/>
                </clipPath>
                <g clip-path="url(#ViewBox_2_clip)">
                    <g fill="none" fill-rule="evenodd" id="ChildGroup_2" stroke="black" stroke-linecap="square" stroke-linejoin="bevel" stroke-width="1">
                        <g id="PlotDataItem_2">
                            <g fill="none" fill-rule="evenodd" id="PlotCurveItem_2" stroke="black" stroke-linecap="square" stroke-linejoin="bevel" stroke-width="1">
                                <g fill="none" font-family="Sans Serif" font-size="11.875" font-style="normal" font-weight="400" stroke="#550000" stroke-linecap="square" stroke-linejoin="bevel" stroke-opacity="1" stroke-width="1">
                                    <path d="M29.4119,156.256 L30.62869,156.256 L31.84548,156.256 L33.06227,156.256 L34.27906,156.256 L35.49585,156.256 L36.71264,156.256 L37.92943,156.256 L39.14622,156.256 L40.36301,156.256 L41.5798,156.256 L42.79659,156.256 L44.01338,156.256 L45.23017,156.256 L46.44696,156.256 L47.66375,156.256 L48.88054,156.256 L50.09733,156.256 L51.31412,156.256 L52.53091,156.256 L53.7477,156.256 L54.96449,156.256 L56.18128,156.256 L57.39807,156.256 L58.61486,156.256 L59.83165,156.256 L61.04844,156.256 L62.26523,156.256 L63.48202,156.256 L64.69881,156.256 L65.9156,156.256 L67.13239,156.256 L68.34918,156.256 L69.56597,156.256 L70.78276,156.256 L71.99955,156.256 L73.21634,156.256 L74.43313,156.256 L75.64992,156.256 L76.86671,156.256 L78.0835,156.256 L79.30029,156.256 L80.51708,156.256 L81.73387,156.256 L82.95066,156.256 L84.16745,156.256 L85.38424,156.256 L86.60103,156.256 L87.81782,156.256 L89.03461,156.256 L90.2514,156.256 L91.46819,156.256 L92.68498,156.256 L93.90177,156.256 L95.11856,156.256 L96.33535,156.256 L97.55214,156.256 L98.76893,156.256 L99.98572,156.256 L101.20251,156.256 L102.4193,156.256 L103.63609,156.256 L104.85288,156.256 L106.06967,156.256 L107.28646,156.256 L108.50325,156.256 L109.72004,156.256 L110.93683,156.256 L112.15362,156.256 L113.37041,156.256 L114.5872,156.256 L115.80399,156.256 L117.02078,156.256 L118.23757,156.256 L119.45436,156.256 L120.67115,156.256 L121.88794,156.256 L123.10473,156.256 L124.32152,156.256 L125.53831,156.256 L126.7551,156.256 L127.97189,156.256 L129.18868,156.256 L130.40547,156.256 L131.62226,156.256 L132.83905,156.256 L134.05584,156.256 L135.27263,156.256 L136.48942,156.256 L137.70621,156.256 L138.923,156.256 L140.13979,156.256 L141.35658,156.256 L142.57337,156.256 L143.79016,156.256 L145.00695,156.256 L146.22374,156.256 L147.44053,156.256 L148.65732,156.256 L149.87411,156.256 L151.0909,156.256 L152.30769,156.256 L153.52448,156.256 L154.74127,156.256 L155.95806,156.256 L157.17485,156.256 L158.39164,156.256 L159.60843,156.256 L160.82522,156.256 L162.04201,156.256 L163.2588,156.256 L164.47559,156.256 L165.69238,156.256 L166.90917,156.256 L168.12596,156.256 L169.34275,156.256 L170.55954,156.256 L171.77633,156.256 L172.99312,156.256 L174.20991,156.256 L175.4267,156.256 L176.64349,156.256 L177.86028,156.256 L179.07707,156.256 L180.29386,156.256 L181.51065,156.256 L182.72744,156.256 L183.94423,156.256 L185.16102,156.256 L186.37781,156.256 L187.5946,156.256 L188.81139,156.256 L190.02818,156.256 L191.24497,156.256 L192.46176,156.256 L193.67855,156.256 L194.89534,156.256 L196.11213,156.256 L197.32892,156.256 L198.54571,156.256 L199.7625,156.256 L200.97929,156.256 L202.19608,156.256 L203.41287,156.256 L204.62966,156.256 L205.84645,156.256 L207.06324,156.256 L208.28003,156.256 L209.49682,156.256 L210.71361,156.256 L211.9304,156.256 L213.14719,156.256 L214.36398,156.256 L215.58077,156.256 L216.79756,156.256 L218.01435,156.256 L219.23114,156.256 L220.44793,156.256 L221.66472,156.256 L222.88151,156.256 L224.0983,156.256 L225.31509,156.256 L226.53188,156.256 L227.74867,156.256 L228.96546,156.256 L230.18225,156.256 L231.39904,156.256 L232.61583,156.256 L233.83262,156.256 L235.04941,156.256 L236.2662,156.256 L237.48299,156.256 L238.69978,156.256 L239.91657,156.256 L241.13336,156.256 L242.35015,156.256 L243.56694,156.256 L244.78373,156.256 L246.00052,156.256 L247.21731,156.256 L248.4341,156.256 L249.65089,156.256 L250.86768,156.256 L252.08447,156.256 L253.30126,156.256 L254.51805,156.256 L255.73484,156.256 L256.95163,156.256 L258.16842,156.256 L259.38521,156.256 L260.602,156.256 L261.81879,156.256 L263.03558,156.256 L264.25237,156.256 L265.46916,156.256 L266.68595,156.256 L267.90274,156.256 L269.11953,156.256 L270.33632,156.256 L271.55311,156.256 L272.7699,156.256 L273.98669,156.256 L275.20348,156.256 L276.42027,156.256 L277.63706,156.256 L278.85385,156.256 L280.07064,156.256 L281.28743,156.256 L282.50422,156.256 L283.72101,156.256 L284.9378,156.256 L286.15459,156.256 L287.37138,156.256 L288.58817,156.256 L289.80496,156.256 L291.02175,156.256 L292.23854,156.256 L293.45533,156.256 L294.67212,156.256 L295.88891,156.256 L297.1057,156.256 L298.32249,156.256 L299.53928,156.256 L300.75607,156.256 L301.97286,156.256 L303.18965,156.256 L304.40644,156.256 L305.62323,156.256 L306.84002,156.256 L308.05681,156.256 L309.2736,156.256 L310.49039,156.256 L311.70718,156.256 L312.92397,156.256 L314.14076,156.256 L315.35755,156.256 L316.57434,156.256 L317.79113,156.256 L319.00792,156.256 L320.22471,156.256 L321.4415,156.256 L322.65829,156.256 L323.87508,156.256 L325.09187,156.256 L326.30866,156.256 L327.52545,156.256 L328.74224,156.256 L329.95903,156.256 L331.17582,156.256 L332.39261,156.256 L333.6094,156.256 L334.82619,156.256 L336.04298,156.256 L337.25977,156.256 L338.47656,156.256 L339.69335,156.256 L340.91014,156.256 L342.12693,156.256 L343.34372,156.256 L344.56051,156.256 L345.7773,156.256 L346.99409,156.256 L348.21088,156.256 L349.42767,156.256 L350.64446,156.256 L351.86125,156.256 L353.07804,156.256 L354.29483,156.256 L355.51162,156.256 L356.72841,156.256 L357.9452,156.256 L359.16199,156.256 L360.37878,156.256 L361.59557,156.256 L362.81236,156.256 L364.02915,156.256 L365.24594,156.256 L366.46273,156.256 L367.67952,156.256 L368.89631,156.256 L370.1131,156.256 L371.32989,156.256 L372.54668,156.256 L373.76347,156.256 L374.98026,156.256 L376.19705,156.256 L377.41384,156.256 L378.63063,156.256 L379.84742,156.256 L381.06421,156.256 L382.281,156.256 L383.49779,156.256 L384.71458,156.256 L385.93137,156.256 L387.14816,156.256 L388.36495,156.256 L389.58174,156.256 L390.79853,156.256 L392.01532,156.256 L393.23211,156.256 L394.4489,156.256 L395.66569,156.256 L396.88248,156.256 L398.09927,156.256 L399.31606,156.256 L400.53285,156.256 L401.74964,156.256 L402.96643,156.256 L404.18322,156.256 L405.40001,156.256 L406.6168,156.256 L407.83359,156.256 L409.05038,156.256 L410.26717,156.256 L411.48396,156.256 L412.70075,156.256 L413.91754,156.256 L415.13433,156.256 L416.35112,156.256 L417.56791,156.256 L418.7847,156.256 L420.00149,156.256 L421.21828,156.256 L422.43507,156.256 L423.65186,156.256 L424.86865,156.256 L426.08544,156.256 L427.30223,156.256 L428.51902,156.256 L429.73581,156.256 L430.9526,156.256 L432.16939,156.256 L433.38618,156.256 L434.60297,156.256 L435.81976,156.256 L437.03655,156.256 L438.25334,156.256 L439.47013,156.256 L440.68692,156.256 L441.90371,156.256 L443.1205,156.256 L444.33729,156.256 L445.55408,156.256 L446.77087,156.256 L447.98766,156.256 L449.20445,156.256 L450.42124,156.256 L451.63803,156.256 L452.85482,156.256 L454.07161,156.256 L455.2884,156.256 L456.50519,156.256 L457.72198,156.256 L458.93877,156.256 L460.15556,156.256 L461.37235,156.256 L462.58914,156.256 L463.80593,156.256 L465.02272,156.256 L466.23951,156.256 L467.4563,156.256 L468.67309,156.256 L469.88988,156.256 L471.10667,156.256 L472.32346,156.256 L473.54025,156.256 L474.75704,156.256 L475.97383,156.256 L477.19062,156.256 L478.40741,156.256 L479.6242,156.256 L480.84099,156.256 L482.05778,156.256 L483.27457,156.256 L484.49136,156.256 L485.70815,156.256 L486.92494,156.256 L488.14173,156.256 L489.35852,156.256 L490.57531,156.256 L491.7921,156.256 L493.00889,156.256 L494.22568,156.256 L495.44247,156.256 L496.65926,156.256 L497.87605,156.256 L499.09284,156.256 L500.30963,156.256 L501.52642,156.256 L502.74321,156.256 L503.96,156.256 L505.17679,156.256 L506.39358,156.256 L507.61037,156.256 L508.82716,156.256 L510.04395,156.256 L511.26074,156.256 L512.47753,156.256 L513.69432,156.256 L514.91111,156.256 L516.1279,156.256 L517.34469,156.256 L518.56148,156.256 L519.77827,156.256 L520.99506,156.256 L522.21185,156.256 L523.42864,156.256 L524.64543,156.256 L525.86222,156.256 L527.07901,156.256 L528.2958,156.256 L529.51259,156.256 L530.72938,156.256 L531.94617,156.256 L533.16296,156.256 L534.37975,156.256 L535.59654,156.256 L536.81333,156.256 L538.03012,156.256 L539.24691,156.256 L540.4637,156.256 L541.68049,156.256 L542.89728,156.256 L544.11407,156.256 L545.33086,156.256 L546.54765,156.256 L547.76444,156.256 L548.98123,156.256 L550.19802,156.256 L551.41481,156.256 L552.6316,156.256 L553.84839,156.256 L555.06518,156.256 L556.28197,156.256 L557.49876,156.256 L558.71555,156.256 L559.93234,156.256 L561.14913,156.256 L562.36592,156.256 L563.58271,156.256 L564.7995,156.256 L566.01629,156.256 L567.23308,156.256 L568.44987,156.256 L569.66666,156.256 L570.88345,156.256 L572.10024,156.256 L573.31703,156.256 L574.53382,156.256 L575.75061,156.256 L576.9674,156.256 L578.18419,156.256 L579.40098,156.256 L580.61777,156.256 L581.83456,156.256 L583.05135,156.256 L584.26814,156.256 L585.48493,156.256 L586.70172,156.256 L587.91851,156.256 L589.1353,156.256 L590.35209,156.256 L591.56888,156.256 L592.78567,156.256 L594.00246,156.256 L595.21925,156.256 L596.43604,156.256 L597.65283,156.256 L598.86962,156.256 L600.08641,156.256 L601.3032,156.256 L602.51999,156.256 L603.73678,156.256 L604.95357,156.256 L606.17036,156.256 L607.38715,156.256 L608.60394,156.256 L609.82073,156.256 L611.03752,156.256 L612.25431,156.256 L613.4711,156.256 L614.68789,156.256 L615.90468,156.256 L617.12147,156.256 L618.33826,156.256 L619.55505,156.256 L620.77184,156.256 L621.98863,156.256 L623.20542,156.256 L624.42221,156.256 L625.639,156.256 L626.85579,156.256 L628.07258,156.256 L629.28937,156.256 L630.50616,156.256 L631.72295,156.256 L632.93974,156.256 L634.15653,156.256 L635.37332,156.256 L636.59011,156.256 " fill-rule="evenodd" vector-effect="non-scaling-stroke"/>
                                </g>
                            </g>
                        </g>
                    </g>
                </g>
            </g>
        </g>
        <g fill="none" fill-rule="evenodd" id="PlotItem_3" stroke="black" stroke-linecap="square" stroke-linejoin="bevel" stroke-width="1">
            <g fill="none" fill-rule="evenodd" id="AxisItem_2" stroke="black" stroke-linecap="square" stroke-linejoin="bevel" stroke-width="1">
                <g fill="none" font-family="Sans Serif" font-size="11.875" font-style="normal" font-weight="400" stroke="#969696" stroke-linecap="square" stroke-linejoin="bevel" stroke-opacity="1" stroke-width="1">
                    <polyline fill="none" points="45.0,163.667 45.0,237.780566312" vector-effect="non-scaling-stroke"/>
                </g>
                <g fill="none" font-family="Sans Serif" font-size="11.875" font-style="normal" font-weight="400" stroke="#969696" stroke-linecap="square" stroke-linejoin="bevel" stroke-opacity="1" stroke-width="1">
                    <polyline fill="none" points="45.5,200.723833688 50.5,200.723833688" vector-effect="non-scaling-stroke"/>
                </g>
                <g fill="none" font-family="Sans Serif" font-size="11.875" font-style="normal" font-weight="400" stroke="#969696" stroke-linecap="square" stroke-linejoin="bevel" stroke-opacity="0.498039" stroke-width="1">
                    <polyline fill="none" points="45.5,236.355361784 48.8333,236.355361784" vector-effect="non-scaling-stroke"/>
                    <polyline fill="none" points="45.5,165.092265166 48.8333,165.092265166" vector-effect="non-scaling-stroke"/>
                </g>
                <g fill="none" font-family="Sans Serif" font-size="11.875" font-style="normal" font-weight="400" stroke="#969696" stroke-linecap="square" stroke-linejoin="bevel" stroke-opacity="0.333333" stroke-width="1">
                    <polyline fill="none" points="45.5,229.229035952 48.0,229.229035952" vector-effect="non-scaling-stroke"/>
                    <polyline fill="none" points="45.5,222.10271012 48.0,222.10271012" vector-effect="non-scaling-stroke"/>
                    <polyline fill="none" points="45.5,214.976384288 48.0,214.976384288" vector-effect="non-scaling-stroke"/>
                    <polyline fill="none" points="45.5,207.850058456 48.0,207.850058456" vector-effect="non-scaling-stroke"/>
                    <polyline fill="none" points="45.5,193.597507856 48.0,193.597507856" vector-effect="non-scaling-stroke"/>
                    <polyline fill="none" points="45.5,186.471182024 48.0,186.471182024" vector-effect="non-scaling-stroke"/>
                    <polyline fill="none" points="45.5,179.344856192 48.0,179.344856192" vector-effect="non-scaling-stroke"/>
                    <polyline fill="none" points="45.5,172.218570786 48.0,172.218570786" vector-effect="non-scaling-stroke"/>
                </g>
                <g fill="none" font-family="Sans Serif" font-size="11.875" font-style="normal" font-weight="400" stroke="#969696" stroke-linecap="square" stroke-linejoin="bevel" stroke-opacity="1" stroke-width="1" transform="matrix(1,0,0,1.01064,5.5,163.667)">
                    <text fill="#969696" fill-opacity="1" font-family="&quot;Sans Serif&quot;, sans-serif" font-size="11.875" font-style="normal" font-weight="400" stroke="none" x="31" xml:space="preserve" y="40.6562">0</text>
                    <text fill="#969696" fill-opacity="1" font-family="&quot;Sans Serif&quot;, sans-serif" font-size="11.875" font-style="normal" font-weight="400" stroke="none" x="19" xml:space="preserve" y="75.9219">-10</text>
                    <text fill="#969696" fill-opacity="1" font-family="&quot;Sans Serif&quot;, sans-serif" font-size="11.875" font-style="normal" font-weight="400" stroke="none" x="23" xml:space="preserve" y="5.42188">10</text>
                </g>
            </g>
            <g fill="none" fill-rule="evenodd" id="ViewBox_3" stroke="black" stroke-linecap="square" stroke-linejoin="bevel" stroke-width="1">
                <g fill="none" font-family="Sans Serif" font-size="11.875" font-style="normal" font-weight="400" stroke="none">
                    <path d="M45.0,163.667 L661.0,163.667 L661.0,237.0003 L45.0,237.0003 L45.0,163.667 " fill-rule="evenodd" vector-effect="non-scaling-stroke"/>
                </g>
                <clipPath id="ViewBox_3_clip">
                    <path d="M45.0,163.667 L661.0,163.667 L661.0,237.0 L45.0,237.0 L45.0,163.667 " fill-rule="evenodd" vector-effect="non-scaling-stroke"/>
                </clipPath>
                <g clip-path="url(#ViewBox_3_clip)">
                    <g fill="none" fill-rule="evenodd" id="ChildGroup_3" stroke="black" stroke-linecap="square" stroke-linejoin="bevel" stroke-width="1">
                        <g fill="none" fill-rule="evenodd" id="InfiniteLine_2" stroke="black" stroke-linecap="square" stroke-linejoin="bevel" stroke-width="1">
                            <g fill="none" font-family="Sans Serif" font-size="11.875" font-style="normal" font-weight="400" stroke="#e6e6af" stroke-linecap="square" stroke-linejoin="bevel" stroke-opacity="1" stroke-width="1">
                                <polyline fill="none" points="661.00268021,200.333 44.999982536,200.333" vector-effect="non-scaling-stroke"/>
                            </g>
                        </g>
                        <g id="PlotDataItem_3">
                            <g fill="none" fill-rule="evenodd" id="PlotCurveItem_3" stroke="black" stroke-linecap="square" stroke-linejoin="bevel" stroke-width="1">
                                <g fill="none" font-family="Sans Serif" font-size="11.875" font-style="normal" font-weight="400" stroke="#00ff00" stroke-linecap="square" stroke-linejoin="bevel" stroke-opacity="1" stroke-width="1">
                                    <path d="M29.4743,200.302855778 L30.69097,200.330003206 L31.90764,200.285932706 L33.12431,200.252897459 L34.34098,200.310365391 L35.55765,200.222471186 L36.77432,200.21929811 L37.99099,200.120721216 L39.20766,200.123929548 L40.42433,200.047000083 L41.641,200.039772521 L42.85767,200.069916743 L44.07434,200.147798131 L45.29101,200.163099408 L46.50768,200.09942635 L47.72435,200.117689165 L48.94102,200.073689178 L50.15769,200.058740464 L51.37436,199.95702575 L52.59103,199.901673202 L53.8077,199.894269358 L55.02437,199.86056424 L56.24104,199.899804613 L57.45771,199.957695622 L58.67438,199.91923089 L59.89105,199.847166808 L61.10772,199.829256557 L62.32439,199.75617004 L63.54106,199.648003404 L64.75773,199.596564317 L65.9744,199.597304701 L67.19107,199.372827202 L68.40774,199.250275956 L69.62441,199.182231104 L70.84108,199.052134988 L72.05775,198.994243979 L73.27442,198.988179878 L74.49109,198.911356183 L75.70776,198.898840161 L76.92443,198.821699158 L78.1411,198.770330583 L79.35777,198.646333824 L80.57444,198.594083839 L81.79111,198.669074202 L83.00778,198.690298555 L84.22445,198.717939572 L85.44112,198.604308195 L86.65779,198.460955673 L87.87446,198.318378791 L89.09113,198.251180093 L90.3078,198.216593564 L91.52447,198.161805119 L92.74114,198.193641648 L93.95781,198.118757054 L95.17448,198.055683355 L96.39115,197.999308371 L97.60782,197.942792362 L98.82449,197.881975072 L100.04116,197.906619296 L101.25783,197.877673791 L102.4745,197.840689828 L103.69117,197.891423787 L104.90784,197.868859691 L106.12451,197.863535975 L107.34118,197.797535994 L108.55785,197.73939819 L109.77452,197.813507143 L110.99119,197.740103318 L112.20786,197.743205882 L113.42453,197.672834107 L114.6412,197.63186617 L115.85787,197.658273214 L117.07454,197.688840513 L118.29121,197.57027324 L119.50788,197.533994404 L120.72455,197.45040148 L121.94122,197.361026506 L123.15789,197.428895076 L124.37456,197.418988027 L125.59123,197.347135484 L126.8079,197.32122203 L128.02457,197.226805391 L129.24124,197.195532964 L130.45791,197.110318245 L131.67458,197.037936856 L132.89125,196.991856741 L134.10792,196.993302254 L135.32459,197.009097121 L136.54126,196.918593942 L137.75793,196.89952023 L138.9746,196.878190108 L140.19127,196.939747782 L141.40794,196.973699695 L142.62461,196.904103562 L143.84128,196.794068337 L145.05795,196.819523458 L146.27462,196.71519977 L147.49129,196.659494658 L148.70796,196.643876073 L149.92463,196.751654888 L151.1413,196.759834373 L152.35797,196.751408093 L153.57464,196.726411306 L154.79131,196.679273499 L156.00798,196.762161295 L157.22465,196.787616416 L158.44132,196.837398453 L159.65799,196.795372824 L160.87466,196.807994615 L162.09133,196.784866417 L163.308,196.781622828 L164.52467,196.795055516 L165.74134,196.729055536 L166.95801,196.726834382 L168.17468,196.79276385 L169.39135,196.742488224 L170.60802,196.764699756 L171.82469,196.714212591 L173.04136,196.686183753 L174.25803,196.637776716 L175.4747,196.64204274 L176.69137,196.637353639 L177.90804,196.534687002 L179.12471,196.619972234 L180.34138,196.635238255 L181.55805,196.58386968 L182.77472,196.534052387 L183.99139,196.489382528 L185.20806,196.430786392 L186.42473,196.470379329 L187.6414,196.354174234 L188.85807,196.289937074 L190.07474,196.305908223 L191.29141,196.316731938 L192.50808,196.31415822 L193.72475,196.296882584 L194.94142,196.231235168 L196.15809,196.114289689 L197.37476,196.164741597 L198.59143,196.218331325 L199.8081,196.133645452 L201.02477,196.193158256 L202.24144,196.138158272 L203.45811,196.261626184 L204.67478,196.265398619 L205.89145,196.163331341 L207.10812,196.138158272 L208.32479,196.127863403 L209.54146,196.069937138 L210.75813,196.071488419 L211.9748,195.969456398 L213.19147,196.012116642 L214.40814,196.00753331 L215.62481,196.058302526 L216.84148,196.029180739 L218.05815,196.202360176 L219.27482,196.183110182 L220.49149,196.106850588 L221.70816,196.012222411 L222.92483,196.087107004 L224.1415,196.132834555 L225.35817,196.137770451 L226.57484,196.101103795 L227.79151,196.147219166 L229.00818,196.027488432 L230.22485,195.982113445 L231.44152,196.015395487 L232.65819,196.03739548 L233.87486,195.995334595 L235.09153,195.935716023 L236.3082,195.944318584 L237.52487,195.955318581 L238.74154,195.926549359 L239.95821,195.806677599 L241.17488,195.847046177 L242.39155,195.878635911 L243.60822,195.824376312 L244.82489,195.856142328 L246.04156,195.922212822 L247.25823,195.906417954 L248.4749,195.836116693 L249.69157,195.839889128 L250.90824,195.869751298 L252.12491,195.864321813 L253.34158,195.932648716 L254.55825,196.023328177 L255.77492,196.034645481 L256.99159,196.117392252 L258.20826,196.119084559 L259.42493,196.168549288 L260.6416,196.114501227 L261.85827,196.051639066 L263.07494,196.111257638 L264.29161,196.123808917 L265.50828,196.144363398 L266.72495,196.151626216 L267.94162,196.133010837 L269.15829,196.14679609 L270.37496,196.158712753 L271.59163,196.170946724 L272.8083,196.054389065 L274.02497,196.03838266 L275.24164,196.067645472 L276.45831,196.145491603 L277.67498,196.129308915 L278.89165,196.122292892 L280.10832,196.15737301 L281.32499,196.217132608 L282.54166,196.283696691 L283.75833,196.297622969 L284.975,196.314228733 L286.19167,196.385728712 L287.40834,196.396411402 L288.62501,196.340318469 L289.84168,196.328930652 L291.05835,196.363340898 L292.27502,196.36577359 L293.49169,196.424687034 L294.70836,196.501933807 L295.92503,196.492802399 L297.1417,196.438084466 L298.35837,196.515754316 L299.57504,196.577629298 L300.79171,196.555805586 L302.00838,196.605164546 L303.22505,196.551856869 L304.44172,196.482683812 L305.65839,196.406071655 L306.87506,196.386680635 L308.09173,196.34588898 L309.3084,196.340494751 L310.52507,196.264622978 L311.74174,196.304110146 L312.95841,196.322760782 L314.17508,196.340988341 L315.39175,196.332491548 L316.60842,196.297587712 L317.82509,196.277033231 L319.04176,196.317366553 L320.25843,196.418058831 L321.4751,196.496187014 L322.69177,196.547061999 L323.90844,196.588523525 L325.12511,196.602132496 L326.34178,196.538247899 L327.55845,196.498231885 L328.77512,196.548119691 L329.99179,196.555311996 L331.20846,196.492485092 L332.42513,196.582424168 L333.6418,196.608972237 L334.85847,196.468651765 L336.07514,196.460613306 L337.29181,196.435933826 L338.50848,196.451940232 L339.72515,196.475844071 L340.94182,196.503872909 L342.15849,196.541420975 L343.37516,196.599523522 L344.59183,196.494494706 L345.8085,196.447039592 L347.02517,196.367219102 L348.24184,196.336651804 L349.45851,196.388372942 L350.67518,196.365174231 L351.89185,196.431914596 L353.10852,196.552491484 L354.32519,196.488994708 L355.54186,196.537084438 L356.75853,196.478347275 L357.9752,196.352905004 L359.19187,196.363552437 L360.40854,196.327661422 L361.62521,196.352023594 L362.84188,196.24022555 L364.05855,196.190937102 L365.27522,196.142635834 L366.49189,196.113584561 L367.70856,195.969879474 L368.92523,196.054353809 L370.1419,196.092607003 L371.35857,196.148805704 L372.57524,196.196225562 L373.79191,196.236770422 L375.00858,196.14806532 L376.22525,196.161498008 L377.44192,196.257042852 L378.65859,196.21730889 L379.87526,196.187376206 L381.09193,196.173873005 L382.3086,196.203805688 L383.52527,196.198058895 L384.74194,196.187446719 L385.95861,196.181523644 L387.17528,196.262542851 L388.39195,196.302876172 L389.60862,196.36626718 L390.82529,196.279289641 L392.04196,196.335453086 L393.25863,196.283449896 L394.4753,196.264376184 L395.69197,196.231481962 L396.90864,196.29388579 L398.12531,196.131036479 L399.34198,196.063802524 L400.55865,196.110058921 L401.77532,195.917241669 L402.99199,195.989552546 L404.20866,195.954824992 L405.42533,195.92281218 L406.642,195.988671136 L407.85867,195.95189871 L409.07534,195.975167934 L410.29201,195.985674342 L411.50868,195.908956415 L412.72535,195.828184003 L413.94202,195.901905135 L415.15869,195.752276974 L416.37536,195.679014174 L417.59203,195.652536618 L418.8087,195.599722531 L420.02537,195.513555889 L421.24204,195.396081564 L422.45871,195.308857231 L423.67538,195.274376472 L424.89205,195.212924566 L426.10872,195.187575215 L427.32539,195.143434202 L428.54206,195.021306032 L429.75873,194.98460412 L430.9754,194.9842163 L432.19207,194.839488778 L433.40874,194.744719574 L434.62541,194.704562535 L435.84208,194.6492805 L437.05875,194.530149124 L438.27542,194.364408788 L439.49209,194.370155581 L440.70876,194.251976128 L441.92543,194.189325505 L443.1421,194.079113999 L444.35877,194.062367209 L445.57544,193.933117246 L446.79211,193.836655736 L448.00878,193.675780783 L449.22545,193.628784002 L450.44212,193.56944748 L451.65879,193.46857892 L452.87546,193.383857791 L454.09213,193.28045077 L455.3088,193.174399518 L456.52547,192.980595088 L457.74214,192.86343807 L458.95881,192.788588733 L460.17548,192.731790673 L461.39215,192.564075978 L462.60882,192.390438208 L463.82549,192.263127348 L465.04216,192.085117784 L466.25883,192.085470348 L467.4755,191.899774889 L468.69217,191.861169131 L469.90884,191.676601877 L471.12551,191.553521785 L472.34218,191.421169259 L473.55885,191.352066715 L474.77552,191.316598777 L475.99219,191.197291119 L477.20886,191.101287942 L478.42553,191.061624492 L479.6422,190.973095672 L480.85887,191.03902514 L482.07554,191.054291161 L483.29221,191.065608465 L484.50888,191.054749494 L485.72555,191.093531534 L486.94222,191.103896916 L488.15889,191.130656523 L489.37556,191.181143688 L490.59223,191.247002643 L491.8089,191.3148007 L493.02557,191.350444921 L494.24224,191.457871172 L495.45891,191.517595513 L496.67558,191.599848694 L497.89225,191.697015333 L499.10892,191.792912741 L500.32559,191.874672332 L501.54226,191.972085766 L502.75893,192.1168838 L503.9756,192.264713886 L505.19227,192.42019461 L506.40894,192.521380478 L507.62561,192.642803519 L508.84228,192.821870775 L510.05895,192.95863035 L511.27562,193.052306605 L512.49229,193.156877088 L513.70896,193.399405863 L514.92563,193.494492374 L516.1423,193.59588978 L517.35897,193.676274372 L518.57564,193.787684596 L519.79231,193.986848 L521.00898,194.101572326 L522.22565,194.33324213 L523.44232,194.328412003 L524.65899,194.410524159 L525.87566,194.55673245 L527.09233,194.745530472 L528.309,194.815479169 L529.52567,195.012068856 L530.74234,195.143539971 L531.95901,195.190677778 L533.17568,195.264751474 L534.39235,195.446321934 L535.60902,195.567674463 L536.82569,195.713706472 L538.04236,195.8466231 L539.25903,195.904901929 L540.4757,195.952991659 L541.69237,196.001433952 L542.90904,196.234337731 L544.12571,196.391475506 L545.34238,196.467347278 L546.55905,196.585667757 L547.77572,196.659988248 L548.99239,196.837927299 L550.20906,196.925715735 L551.42573,196.946023421 L552.6424,196.980962514 L553.85907,197.021895194 L555.07574,197.052215698 L556.29241,197.071818256 L557.50908,197.176141944 L558.72575,197.163026563 L559.94242,197.289032937 L561.15909,197.386164319 L562.37576,197.612016817 L563.59243,197.689193077 L564.8091,197.798699455 L566.02577,197.852077645 L567.24244,197.770705874 L568.45911,197.747894983 L569.67578,197.845555211 L570.89245,197.952241077 L572.10912,198.046975024 L573.32579,198.03830195 L574.54246,198.131519871 L575.75913,198.193289084 L576.9758,198.306673666 L578.19247,198.341330708 L579.40914,198.481580667 L580.62581,198.58251974 L581.84248,198.654724847 L583.05915,198.65215113 L584.27582,198.611465244 L585.49249,198.631420367 L586.70916,198.766910712 L587.92583,198.860340172 L589.1425,198.832875436 L590.35917,198.736978028 L591.57584,198.895526059 L592.79251,198.978942702 L594.00918,199.021673458 L595.22585,199.078647801 L596.44252,199.083795235 L597.65919,199.189070846 L598.87586,199.135974707 L600.09253,199.150958677 L601.3092,199.207298404 L602.52587,199.230814423 L603.74254,199.280420178 L604.95921,199.336336828 L606.17588,199.457054742 L607.39255,199.436253466 L608.60922,199.578336758 L609.82589,199.506554728 L611.04256,199.660695708 L612.25923,199.864653982 L613.4759,199.847484116 L614.69257,199.993410355 L615.90924,199.993480868 L617.12591,199.972327028 L618.34258,199.971903951 L619.55925,200.038855855 L620.77592,200.008782146 L621.99259,200.121990446 L623.20926,200.205371832 L624.42593,200.127384675 L625.6426,200.090294942 L626.85927,200.136410314 L628.07594,200.23163785 L629.29261,200.119628267 L630.50928,200.088708404 L631.72595,200.078237254 L632.94262,200.060503284 L634.15929,200.059304567 L635.37596,200.16024364 L636.59263,200.265166686 " fill-rule="evenodd" vector-effect="non-scaling-stroke"/>
                                </g>
                            </g>
                        </g>
                    </g>
                </g>
            </g>
        </g>
        <g fill="none" fill-rule="evenodd" id="PlotItem_4" stroke="black" stroke-linecap="square" stroke-linejoin="bevel" stroke-width="1">
            <g fill="none" fill-rule="evenodd" id="ViewBox_4" stroke="black" stroke-linecap="square" stroke-linejoin="bevel" stroke-width="1">
                <g fill="none" font-family="Sans Serif" font-size="11.875" font-style="normal" font-weight="400" stroke="none">
                    <path d="M5.0,243.0 L661.0,243.0 L661.0,316.3333 L5.0,316.3333 L5.0,243.0 " fill-rule="evenodd" vector-effect="non-scaling-stroke"/>
                </g>
                <clipPath id="ViewBox_4_clip">
                    <path d="M5.0,243.0 L661.0,243.0 L661.0,316.333 L5.0,316.333 L5.0,243.0 " fill-rule="evenodd" vector-effect="non-scaling-stroke"/>
                </clipPath>
                <g clip-path="url(#ViewBox_4_clip)">
                    <g fill="none" fill-rule="evenodd" id="ChildGroup_4" stroke="black" stroke-linecap="square" stroke-linejoin="bevel" stroke-width="1">
                        <g id="PlotDataItem_4">
                            <g fill="none" fill-rule="evenodd" id="PlotCurveItem_4" stroke="black" stroke-linecap="square" stroke-linejoin="bevel" stroke-width="1">
                                <g fill="none" font-family="Sans Serif" font-size="11.875" font-style="normal" font-weight="400" stroke="#005500" stroke-linecap="square" stroke-linejoin="bevel" stroke-opacity="1" stroke-width="1">
                                    <path d="M29.4119,314.923 L30.62869,314.923 L31.84548,314.923 L33.06227,314.923 L34.27906,314.923 L35.49585,314.923 L36.71264,314.923 L37.92943,314.923 L39.14622,314.923 L40.36301,314.923 L41.5798,314.923 L42.79659,314.923 L44.01338,314.923 L45.23017,314.923 L46.44696,314.923 L47.66375,314.923 L48.88054,314.923 L50.09733,314.923 L51.31412,314.923 L52.53091,314.923 L53.7477,314.923 L54.96449,314.923 L56.18128,314.923 L57.39807,314.923 L58.61486,314.923 L59.83165,314.923 L61.04844,314.923 L62.26523,314.923 L63.48202,314.923 L64.69881,314.923 L65.9156,314.923 L67.13239,314.923 L68.34918,314.923 L69.56597,314.923 L70.78276,314.923 L71.99955,314.923 L73.21634,314.923 L74.43313,314.923 L75.64992,314.923 L76.86671,314.923 L78.0835,314.923 L79.30029,314.923 L80.51708,314.923 L81.73387,314.923 L82.95066,314.923 L84.16745,314.923 L85.38424,314.923 L86.60103,314.923 L87.81782,314.923 L89.03461,314.923 L90.2514,314.923 L91.46819,314.923 L92.68498,314.923 L93.90177,314.923 L95.11856,314.923 L96.33535,314.923 L97.55214,314.923 L98.76893,314.923 L99.98572,314.923 L101.20251,314.923 L102.4193,314.923 L103.63609,314.923 L104.85288,314.923 L106.06967,314.923 L107.28646,314.923 L108.50325,314.923 L109.72004,314.923 L110.93683,314.923 L112.15362,314.923 L113.37041,314.923 L114.5872,314.923 L115.80399,314.923 L117.02078,314.923 L118.23757,314.923 L119.45436,314.923 L120.67115,314.923 L121.88794,314.923 L123.10473,314.923 L124.32152,314.923 L125.53831,314.923 L126.7551,314.923 L127.97189,314.923 L129.18868,314.923 L130.40547,314.923 L131.62226,314.923 L132.83905,314.923 L134.05584,314.923 L135.27263,314.923 L136.48942,314.923 L137.70621,314.923 L138.923,314.923 L140.13979,314.923 L141.35658,314.923 L142.57337,314.923 L143.79016,314.923 L145.00695,314.923 L146.22374,314.923 L147.44053,314.923 L148.65732,314.923 L149.87411,314.923 L151.0909,314.923 L152.30769,314.923 L153.52448,314.923 L154.74127,314.923 L155.95806,314.923 L157.17485,314.923 L158.39164,314.923 L159.60843,314.923 L160.82522,314.923 L162.04201,314.923 L163.2588,314.923 L164.47559,314.923 L165.69238,314.923 L166.90917,314.923 L168.12596,314.923 L169.34275,314.923 L170.55954,314.923 L171.77633,314.923 L172.99312,314.923 L174.20991,314.923 L175.4267,314.923 L176.64349,314.923 L177.86028,314.923 L179.07707,314.923 L180.29386,314.923 L181.51065,314.923 L182.72744,314.923 L183.94423,314.923 L185.16102,314.923 L186.37781,314.923 L187.5946,314.923 L188.81139,314.923 L190.02818,314.923 L191.24497,314.923 L192.46176,314.923 L193.67855,314.923 L194.89534,314.923 L196.11213,314.923 L197.32892,314.923 L198.54571,314.923 L199.7625,314.923 L200.97929,314.923 L202.19608,314.923 L203.41287,314.923 L204.62966,314.923 L205.84645,314.923 L207.06324,314.923 L208.28003,314.923 L209.49682,314.923 L210.71361,314.923 L211.9304,314.923 L213.14719,314.923 L214.36398,314.923 L215.58077,314.923 L216.79756,314.923 L218.01435,314.923 L219.23114,314.923 L220.44793,314.923 L221.66472,314.923 L222.88151,314.923 L224.0983,314.923 L225.31509,314.923 L226.53188,314.923 L227.74867,314.923 L228.96546,314.923 L230.18225,314.923 L231.39904,314.923 L232.61583,314.923 L233.83262,314.923 L235.04941,314.923 L236.2662,314.923 L237.48299,314.923 L238.69978,314.923 L239.91657,314.923 L241.13336,314.923 L242.35015,314.923 L243.56694,314.923 L244.78373,314.923 L246.00052,314.923 L247.21731,314.923 L248.4341,314.923 L249.65089,314.923 L250.86768,314.923 L252.08447,314.923 L253.30126,314.923 L254.51805,314.923 L255.73484,314.923 L256.95163,314.923 L258.16842,314.923 L259.38521,314.923 L260.602,314.923 L261.81879,314.923 L263.03558,314.923 L264.25237,314.923 L265.46916,314.923 L266.68595,314.923 L267.90274,314.923 L269.11953,314.923 L270.33632,314.923 L271.55311,314.923 L272.7699,314.923 L273.98669,314.923 L275.20348,314.923 L276.42027,314.923 L277.63706,314.923 L278.85385,314.923 L280.07064,314.923 L281.28743,314.923 L282.50422,314.923 L283.72101,314.923 L284.9378,314.923 L286.15459,314.923 L287.37138,314.923 L288.58817,314.923 L289.80496,314.923 L291.02175,314.923 L292.23854,314.923 L293.45533,314.923 L294.67212,314.923 L295.88891,314.923 L297.1057,314.923 L298.32249,314.923 L299.53928,314.923 L300.75607,314.923 L301.97286,314.923 L303.18965,314.923 L304.40644,314.923 L305.62323,314.923 L306.84002,314.923 L308.05681,314.923 L309.2736,314.923 L310.49039,314.923 L311.70718,314.923 L312.92397,314.923 L314.14076,314.923 L315.35755,314.923 L316.57434,314.923 L317.79113,314.923 L319.00792,314.923 L320.22471,314.923 L321.4415,314.923 L322.65829,314.923 L323.87508,314.923 L325.09187,314.923 L326.30866,314.923 L327.52545,314.923 L328.74224,314.923 L329.95903,314.923 L331.17582,314.923 L332.39261,314.923 L333.6094,314.923 L334.82619,314.923 L336.04298,314.923 L337.25977,314.923 L338.47656,314.923 L339.69335,314.923 L340.91014,314.923 L342.12693,314.923 L343.34372,314.923 L344.56051,314.923 L345.7773,314.923 L346.99409,314.923 L348.21088,314.923 L349.42767,314.923 L350.64446,314.923 L351.86125,314.923 L353.07804,314.923 L354.29483,314.923 L355.51162,314.923 L356.72841,314.923 L357.9452,314.923 L359.16199,314.923 L360.37878,314.923 L361.59557,314.923 L362.81236,314.923 L364.02915,314.923 L365.24594,314.923 L366.46273,314.923 L367.67952,314.923 L368.89631,314.923 L370.1131,314.923 L371.32989,314.923 L372.54668,314.923 L373.76347,314.923 L374.98026,314.923 L376.19705,314.923 L377.41384,314.923 L378.63063,314.923 L379.84742,314.923 L381.06421,314.923 L382.281,314.923 L383.49779,314.923 L384.71458,314.923 L385.93137,314.923 L387.14816,314.923 L388.36495,314.923 L389.58174,314.923 L390.79853,314.923 L392.01532,314.923 L393.23211,314.923 L394.4489,314.923 L395.66569,314.923 L396.88248,314.923 L398.09927,314.923 L399.31606,314.923 L400.53285,314.923 L401.74964,314.923 L402.96643,314.923 L404.18322,314.923 L405.40001,314.923 L406.6168,314.923 L407.83359,314.923 L409.05038,314.923 L410.26717,314.923 L411.48396,314.923 L412.70075,314.923 L413.91754,314.923 L415.13433,314.923 L416.35112,314.923 L417.56791,314.923 L418.7847,314.923 L420.00149,314.923 L421.21828,314.923 L422.43507,314.923 L423.65186,314.923 L424.86865,314.923 L426.08544,314.923 L427.30223,314.923 L428.51902,314.923 L429.73581,314.923 L430.9526,314.923 L432.16939,314.923 L433.38618,314.923 L434.60297,314.923 L435.81976,314.923 L437.03655,314.923 L438.25334,314.923 L439.47013,314.923 L440.68692,314.923 L441.90371,314.923 L443.1205,314.923 L444.33729,314.923 L445.55408,314.923 L446.77087,314.923 L447.98766,314.923 L449.20445,314.923 L450.42124,314.923 L451.63803,314.923 L452.85482,314.923 L454.07161,314.923 L455.2884,314.923 L456.50519,314.923 L457.72198,314.923 L458.93877,314.923 L460.15556,314.923 L461.37235,314.923 L462.58914,314.923 L463.80593,314.923 L465.02272,314.923 L466.23951,314.923 L467.4563,314.923 L468.67309,314.923 L469.88988,314.923 L471.10667,314.923 L472.32346,314.923 L473.54025,314.923 L474.75704,314.923 L475.97383,314.923 L477.19062,314.923 L478.40741,314.923 L479.6242,314.923 L480.84099,314.923 L482.05778,314.923 L483.27457,314.923 L484.49136,314.923 L485.70815,314.923 L486.92494,314.923 L488.14173,314.923 L489.35852,314.923 L490.57531,314.923 L491.7921,314.923 L493.00889,314.923 L494.22568,314.923 L495.44247,314.923 L496.65926,314.923 L497.87605,314.923 L499.09284,314.923 L500.30963,314.923 L501.52642,314.923 L502.74321,314.923 L503.96,314.923 L505.17679,314.923 L506.39358,314.923 L507.61037,314.923 L508.82716,314.923 L510.04395,314.923 L511.26074,314.923 L512.47753,314.923 L513.69432,314.923 L514.91111,314.923 L516.1279,314.923 L517.34469,314.923 L518.56148,314.923 L519.77827,314.923 L520.99506,314.923 L522.21185,314.923 L523.42864,314.923 L524.64543,314.923 L525.86222,314.923 L527.07901,314.923 L528.2958,314.923 L529.51259,314.923 L530.72938,314.923 L531.94617,314.923 L533.16296,314.923 L534.37975,314.923 L535.59654,314.923 L536.81333,314.923 L538.03012,314.923 L539.24691,314.923 L540.4637,314.923 L541.68049,314.923 L542.89728,314.923 L544.11407,314.923 L545.33086,314.923 L546.54765,314.923 L547.76444,314.923 L548.98123,314.923 L550.19802,314.923 L551.41481,314.923 L552.6316,314.923 L553.84839,314.923 L555.06518,314.923 L556.28197,314.923 L557.49876,314.923 L558.71555,314.923 L559.93234,314.923 L561.14913,314.923 L562.36592,314.923 L563.58271,314.923 L564.7995,314.923 L566.01629,314.923 L567.23308,314.923 L568.44987,314.923 L569.66666,314.923 L570.88345,314.923 L572.10024,314.923 L573.31703,314.923 L574.53382,314.923 L575.75061,314.923 L576.9674,314.923 L578.18419,314.923 L579.40098,314.923 L580.61777,314.923 L581.83456,314.923 L583.05135,314.923 L584.26814,314.923 L585.48493,314.923 L586.70172,314.923 L587.91851,314.923 L589.1353,314.923 L590.35209,314.923 L591.56888,314.923 L592.78567,314.923 L594.00246,314.923 L595.21925,314.923 L596.43604,314.923 L597.65283,314.923 L598.86962,314.923 L600.08641,314.923 L601.3032,314.923 L602.51999,314.923 L603.73678,314.923 L604.95357,314.923 L606.17036,314.923 L607.38715,314.923 L608.60394,314.923 L609.82073,314.923 L611.03752,314.923 L612.25431,314.923 L613.4711,314.923 L614.68789,314.923 L615.90468,314.923 L617.12147,314.923 L618.33826,314.923 L619.55505,314.923 L620.77184,314.923 L621.98863,314.923 L623.20542,314.923 L624.42221,314.923 L625.639,314.923 L626.85579,314.923 L628.07258,314.923 L629.28937,314.923 L630.50616,314.923 L631.72295,314.923 L632.93974,314.923 L634.15653,314.923 L635.37332,314.923 L636.59011,314.923 " fill-rule="evenodd" vector-effect="non-scaling-stroke"/>
                                </g>
                            </g>
                        </g>
                    </g>
                </g>
            </g>
        </g>
        <g fill="none" fill-rule="evenodd" id="PlotItem_5" stroke="black" stroke-linecap="square" stroke-linejoin="bevel" stroke-width="1">
            <g fill="none" fill-rule="evenodd" id="AxisItem_3" stroke="black" stroke-linecap="square" stroke-linejoin="bevel" stroke-width="1">
                <g fill="none" font-family="Sans Serif" font-size="11.875" font-style="normal" font-weight="400" stroke="#969696" stroke-linecap="square" stroke-linejoin="bevel" stroke-opacity="1" stroke-width="1">
                    <polyline fill="none" points="45.0,322.333 45.0,396.446566312" vector-effect="non-scaling-stroke"/>
                </g>
                <g fill="none" font-family="Sans Serif" font-size="11.875" font-style="normal" font-weight="400" stroke="#969696" stroke-linecap="square" stroke-linejoin="bevel" stroke-opacity="1" stroke-width="1">
                    <polyline fill="none" points="45.5,359.389833688 50.5,359.389833688" vector-effect="non-scaling-stroke"/>
                </g>
                <g fill="none" font-family="Sans Serif" font-size="11.875" font-style="normal" font-weight="400" stroke="#969696" stroke-linecap="square" stroke-linejoin="bevel" stroke-opacity="0.498039" stroke-width="1">
                    <polyline fill="none" points="45.5,395.021361784 48.8333,395.021361784" vector-effect="non-scaling-stroke"/>
                    <polyline fill="none" points="45.5,323.758265166 48.8333,323.758265166" vector-effect="non-scaling-stroke"/>
                </g>
                <g fill="none" font-family="Sans Serif" font-size="11.875" font-style="normal" font-weight="400" stroke="#969696" stroke-linecap="square" stroke-linejoin="bevel" stroke-opacity="0.333333" stroke-width="1">
                    <polyline fill="none" points="45.5,387.895035952 48.0,387.895035952" vector-effect="non-scaling-stroke"/>
                    <polyline fill="none" points="45.5,380.76871012 48.0,380.76871012" vector-effect="non-scaling-stroke"/>
                    <polyline fill="none" points="45.5,373.642384288 48.0,373.642384288" vector-effect="non-scaling-stroke"/>
                    <polyline fill="none" points="45.5,366.516058456 48.0,366.516058456" vector-effect="non-scaling-stroke"/>
                    <polyline fill="none" points="45.5,352.263507856 48.0,352.263507856" vector-effect="non-scaling-stroke"/>
                    <polyline fill="none" points="45.5,345.137182024 48.0,345.137182024" vector-effect="non-scaling-stroke"/>
                    <polyline fill="none" points="45.5,338.010856192 48.0,338.010856192" vector-effect="non-scaling-stroke"/>
                    <polyline fill="none" points="45.5,330.884570786 48.0,330.884570786" vector-effect="non-scaling-stroke"/>
                </g>
                <g fill="none" font-family="Sans Serif" font-size="11.875" font-style="normal" font-weight="400" stroke="#969696" stroke-linecap="square" stroke-linejoin="bevel" stroke-opacity="1" stroke-width="1" transform="matrix(1,0,0,1.01064,5.5,322.333)">
                    <text fill="#969696" fill-opacity="1" font-family="&quot;Sans Serif&quot;, sans-serif" font-size="11.875" font-style="normal" font-weight="400" stroke="none" x="31" xml:space="preserve" y="40.6562">0</text>
                    <text fill="#969696" fill-opacity="1" font-family="&quot;Sans Serif&quot;, sans-serif" font-size="11.875" font-style="normal" font-weight="400" stroke="none" x="19" xml:space="preserve" y="75.9219">-10</text>
                    <text fill="#969696" fill-opacity="1" font-family="&quot;Sans Serif&quot;, sans-serif" font-size="11.875" font-style="normal" font-weight="400" stroke="none" x="23" xml:space="preserve" y="5.42188">10</text>
                </g>
            </g>
            <g fill="none" fill-rule="evenodd" id="ViewBox_5" stroke="black" stroke-linecap="square" stroke-linejoin="bevel" stroke-width="1">
                <g fill="none" font-family="Sans Serif" font-size="11.875" font-style="normal" font-weight="400" stroke="none">
                    <path d="M45.0,322.333 L661.0,322.333 L661.0,395.6663 L45.0,395.6663 L45.0,322.333 " fill-rule="evenodd" vector-effect="non-scaling-stroke"/>
                </g>
                <clipPath id="ViewBox_5_clip">
                    <path d="M45.0,322.333 L661.0,322.333 L661.0,395.667 L45.0,395.667 L45.0,322.333 " fill-rule="evenodd" vector-effect="non-scaling-stroke"/>
                </clipPath>
                <g clip-path="url(#ViewBox_5_clip)">
                    <g fill="none" fill-rule="evenodd" id="ChildGroup_5" stroke="black" stroke-linecap="square" stroke-linejoin="bevel" stroke-width="1">
                        <g fill="none" fill-rule="evenodd" id="InfiniteLine_3" stroke="black" stroke-linecap="square" stroke-linejoin="bevel" stroke-width="1">
                            <g fill="none" font-family="Sans Serif" font-size="11.875" font-style="normal" font-weight="400" stroke="#e6e6af" stroke-linecap="square" stroke-linejoin="bevel" stroke-opacity="1" stroke-width="1">
                                <polyline fill="none" points="661.00268021,359.0 44.999982536,359.0" vector-effect="non-scaling-stroke"/>
                            </g>
                        </g>
                        <g id="PlotDataItem_5">
                            <g fill="none" fill-rule="evenodd" id="PlotCurveItem_5" stroke="black" stroke-linecap="square" stroke-linejoin="bevel" stroke-width="1">
                                <g fill="none" font-family="Sans Serif" font-size="11.875" font-style="normal" font-weight="400" stroke="#0000ff" stroke-linecap="square" stroke-linejoin="bevel" stroke-opacity="1" stroke-width="1">
                                    <path d="M29.4743,351.9839764 L30.69097,349.1634644 L31.90764,353.182694 L33.12431,348.5641056 L34.34098,352.4070532 L35.55765,353.006412 L36.77432,351.419874 L37.99099,352.653848 L39.20766,352.9711556 L40.42433,350.009618 L41.641,350.1153872 L42.85767,353.006412 L44.07434,352.83013 L45.29101,351.701960456 L46.50768,350.6442332 L47.72435,351.596156 L48.94102,352.653848 L50.15769,351.4551304 L51.37436,351.2788484 L52.59103,350.7852588 L53.8077,351.596156 L55.02437,352.9358992 L56.24104,352.6185916 L57.45771,350.5737204 L58.67438,353.358976 L59.89105,351.06731 L61.10772,351.4551304 L62.32439,351.243592 L63.54106,352.9006428 L64.75773,352.8653864 L65.9744,352.5833352 L67.19107,349.5512848 L68.40774,350.714746 L69.62441,350.3974384 L70.84108,354.6987192 L72.05775,348.951926 L73.27442,350.009653256 L74.49109,350.8557716 L75.70776,351.419874 L76.92443,352.3717968 L78.1411,354.7339756 L79.35777,350.3974384 L80.57444,350.2211564 L81.79111,353.6057708 L83.00778,351.5608996 L84.22445,349.9743616 L85.44112,348.5288492 L86.65779,353.3237196 L87.87446,351.772473256 L89.09113,353.2179504 L90.3078,349.6217976 L91.52447,350.3974384 L92.74114,351.06731 L93.95781,353.4647452 L95.17448,351.1025664 L96.39115,351.2788484 L97.60782,351.5608996 L98.82449,352.2660276 L100.04116,352.301284 L101.25783,350.3269256 L102.4745,350.6089768 L103.69117,351.032088856 L104.90784,351.5256432 L106.12451,350.9262844 L107.34118,352.7243608 L108.55785,350.5737204 L109.77452,351.06731 L110.99119,350.714746 L112.20786,353.4647452 L113.42453,350.8557716 L114.6412,352.0897456 L115.85787,352.0192328 L117.07454,353.2532068 L118.29121,349.9038488 L119.50788,351.596156 L120.72455,352.8653864 L121.94122,350.6089768 L123.15789,353.71154 L124.37456,354.3108988 L125.59123,352.0897456 L126.8079,353.9935912 L128.02457,349.4455156 L129.24124,352.2660276 L130.45791,351.8782072 L131.67458,348.9871824 L132.89125,353.6057708 L134.10792,348.8109004 L135.32459,353.6057708 L136.54126,351.4903868 L137.75793,350.362182 L138.9746,351.2083356 L140.19127,352.83013 L141.40794,350.3269256 L142.62461,348.1762852 L143.84128,350.820550456 L145.05795,350.6089768 L146.27462,352.83013 L147.49129,353.71154 L148.70796,350.8557716 L149.92463,350.714746 L151.1413,350.891063256 L152.35797,352.5128224 L153.57464,351.032088856 L154.79131,352.301284 L156.00798,351.2083356 L157.22465,350.891063256 L158.44132,353.1474376 L159.65799,351.5608996 L160.87466,354.0993604 L162.09133,349.939140456 L163.308,350.538464 L164.52467,351.1025664 L165.74134,349.3750028 L166.95801,351.913498856 L168.17468,350.6794896 L169.39135,352.7243608 L170.60802,350.9967972 L171.82469,353.535258 L173.04136,351.7371816 L174.25803,349.9743616 L175.4747,352.653848 L176.69137,352.2660276 L177.90804,352.1602584 L179.12471,352.4423096 L180.34138,352.5480788 L181.55805,352.1955148 L182.77472,354.6634628 L183.99139,351.913498856 L185.20806,351.3493612 L186.42473,351.243592 L187.6414,352.9006428 L188.85807,351.1730792 L190.07474,352.125002 L191.29141,354.1698732 L192.50808,351.3141048 L193.72475,350.9262844 L194.94142,353.4294888 L196.15809,349.657054 L197.37476,349.9038488 L198.59143,350.6089768 L199.8081,351.5608996 L201.02477,352.9006428 L202.24144,353.9583348 L203.45811,352.5480788 L204.67478,352.8653864 L205.89145,352.5480788 L207.10812,351.772473256 L208.32479,351.2083356 L209.54146,351.5256432 L210.75813,351.1730792 L211.9748,350.7500024 L213.19147,355.2628216 L214.40814,352.301284 L215.62481,355.121796 L216.84148,353.3237196 L218.05815,351.6314124 L219.27482,350.5032076 L220.49149,352.5480788 L221.70816,353.5705144 L222.92483,350.6794896 L224.1415,352.0544892 L225.35817,352.2660276 L226.57484,349.7275668 L227.79151,352.5480788 L229.00818,351.8782072 L230.22485,351.3493612 L231.44152,350.6089768 L232.65819,350.3974384 L233.87486,351.1025664 L235.09153,348.1410288 L236.3082,353.7467964 L237.52487,351.94872 L238.74154,351.9839764 L239.95821,353.6762836 L241.17488,354.416668 L242.39155,351.3493612 L243.60822,350.2564128 L244.82489,349.9743616 L246.04156,349.8685924 L247.25823,349.5512848 L248.4749,352.6891044 L249.69157,352.0544892 L250.90824,352.0192328 L252.12491,349.833336 L253.34158,351.6666688 L254.55825,350.2564128 L255.77492,350.2211564 L256.99159,348.6698748 L258.20826,354.0288476 L259.42493,351.6314124 L260.6416,351.6666688 L261.85827,350.150678856 L263.07494,349.0224388 L264.29161,352.125002 L265.50828,352.4423096 L266.72495,350.150678856 L267.94162,352.4070532 L269.15829,351.8782072 L270.37496,350.1859 L271.59163,351.9839764 L272.8083,347.2596188 L274.02497,353.3942324 L275.24164,350.4326948 L276.45831,353.4647452 L277.67498,351.94872 L278.89165,355.0865396 L280.10832,351.1025664 L281.32499,352.1602584 L282.54166,352.4070532 L283.75833,355.016062056 L284.975,351.8782072 L286.19167,351.3141048 L287.40834,353.1121812 L288.62501,349.4455156 L289.84168,350.714746 L291.05835,351.1025664 L292.27502,352.8653864 L293.49169,351.913498856 L294.70836,351.9839764 L295.92503,351.3493612 L297.1417,352.0897456 L298.35837,351.2083356 L299.57504,351.6666688 L300.79171,352.1602584 L302.00838,349.4455156 L303.22505,351.5608996 L304.44172,352.83013 L305.65839,351.4551304 L306.87506,350.4326948 L308.09173,352.0544892 L309.3084,352.477566 L310.52507,352.4070532 L311.74174,353.6057708 L312.95841,350.820550456 L314.17508,350.6442332 L315.39175,352.6891044 L316.60842,351.5608996 L317.82509,351.596156 L319.04176,351.596156 L320.25843,352.7596172 L321.4751,351.3493612 L322.69177,352.0897456 L323.90844,349.5865412 L325.12511,351.94872 L326.34178,352.477566 L327.55845,352.7948736 L328.77512,350.891063256 L329.99179,352.1602584 L331.20846,352.301284 L332.42513,353.6762836 L333.6418,350.8557716 L334.85847,349.4455156 L336.07514,348.8109004 L337.29181,350.3974384 L338.50848,352.0192328 L339.72515,353.006412 L340.94182,351.1025664 L342.15849,350.5032076 L343.37516,352.9358992 L344.59183,349.6923104 L345.8085,351.94872 L347.02517,350.5737204 L348.24184,353.535258 L349.45851,351.596156 L350.67518,350.961576056 L351.89185,351.6666688 L353.10852,352.6891044 L354.32519,351.2083356 L355.54186,350.5737204 L356.75853,352.2307712 L357.9752,349.8685924 L359.19187,348.7403876 L360.40854,347.3301316 L361.62521,352.1602584 L362.84188,350.961576056 L364.05855,351.4551304 L365.27522,349.480772 L366.49189,350.2564128 L367.70856,351.596156 L368.92523,348.0000032 L370.1419,350.9262844 L371.35857,348.246798 L372.57524,350.3269256 L373.79191,348.1762852 L375.00858,348.6346184 L376.22525,351.4551304 L377.44192,349.5865412 L378.65859,347.189106 L379.87526,349.6923104 L381.09193,347.54167 L382.3086,347.894234 L383.52527,349.128208 L384.74194,349.5160284 L385.95861,348.7403876 L387.17528,347.9647468 L388.39195,347.8589776 L389.60862,348.3173108 L390.82529,347.6121828 L392.04196,345.9903884 L393.25863,346.6955164 L394.4753,346.6955164 L395.69197,346.483978 L396.90864,348.1762852 L398.12531,345.4615424 L399.34198,346.9775676 L400.55865,345.9198756 L401.77532,345.1089784 L402.99199,346.8717984 L404.20866,346.483978 L405.42533,346.2371832 L406.642,343.487184 L407.85867,344.2275684 L409.07534,343.9807736 L410.29201,345.3910296 L411.50868,344.5801324 L412.72535,344.8621836 L413.94202,344.9679528 L415.15869,342.2179536 L416.37536,342.8525688 L417.59203,341.1250052 L418.8087,342.5000048 L420.02537,342.2884664 L421.24204,341.195518 L422.45871,339.9262876 L423.67538,342.8525688 L424.89205,343.6987224 L426.10872,341.019271256 L427.32539,340.3846208 L428.54206,339.961544 L429.75873,339.6442364 L430.9754,339.8557748 L432.19207,337.4230832 L433.40874,339.0096212 L434.62541,337.7756472 L435.84208,338.2339804 L437.05875,337.141032 L438.27542,335.4839812 L439.49209,336.0480836 L440.70876,335.6250068 L441.92543,335.907058 L443.1421,333.7564176 L444.35877,334.5320584 L445.57544,332.1346232 L446.79211,332.1698796 L448.00878,332.6634692 L449.22545,331.147444 L450.44212,330.618598 L451.65879,330.2307776 L452.87546,329.737188 L454.09213,329.384624 L455.3088,328.9968036 L456.52547,328.0801372 L457.74214,327.974368 L458.95881,327.6570604 L460.17548,327.974368 L461.39215,327.8685988 L462.60882,328.2211628 L463.82549,329.03206 L465.04216,329.1378292 L466.25883,330.4775724 L467.4755,332.2756488 L468.69217,333.8269304 L469.90884,336.2948784 L471.12551,339.5384672 L472.34218,342.2884664 L473.55885,347.54167 L474.77552,350.961576056 L475.99219,351.9839764 L477.20886,359.2115384 L478.42553,357.23718 L479.6422,359.7756408 L480.85887,359.9519228 L482.07554,360.3044868 L483.29221,358.0480772 L484.50888,361.2564096 L485.72555,359.6698716 L486.94222,360.7980764 L488.15889,360.4807688 L489.37556,359.8461536 L490.59223,360.410256 L491.8089,360.8333328 L493.02557,359.8108972 L494.24224,357.8365388 L495.45891,358.7532052 L496.67558,358.11859 L497.89225,357.2724364 L499.10892,360.4455124 L500.32559,358.5064104 L501.54226,360.3749996 L502.75893,359.3878204 L503.9756,357.9070516 L505.19227,359.2115384 L506.40894,360.8685892 L507.62561,359.2115384 L508.84228,360.8685892 L510.05895,359.4583332 L511.27562,359.3878204 L512.49229,356.6025648 L513.70896,358.9647436 L514.92563,357.2724364 L516.1423,358.2243592 L517.35897,359.8108972 L518.57564,359.9166664 L519.79231,361.64423 L521.00898,358.9294872 L522.22565,356.35577 L523.44232,358.5416668 L524.65899,355.8621804 L525.87566,357.3429492 L527.09233,357.8717952 L528.309,358.4006412 L529.52567,359.528846 L530.74234,356.4262828 L531.95901,359.352564 L533.17568,361.6794864 L534.39235,358.5064104 L535.60902,357.8365388 L536.82569,360.1987176 L538.04236,358.8589744 L539.25903,359.1410256 L540.4757,356.955164056 L541.69237,359.352564 L542.90904,361.291666 L544.12571,357.8012824 L545.34238,359.705128 L546.55905,359.705128 L547.77572,362.7724348 L548.99239,354.3814116 L550.20906,357.1314108 L551.42573,358.0833336 L552.6424,359.0352564 L553.85907,360.4807688 L555.07574,357.060898 L556.29241,363.1955116 L557.50908,359.6698716 L558.72575,359.528846 L559.94242,359.9519228 L561.15909,359.176282 L562.37576,360.8685892 L563.59243,357.23718 L564.8091,357.060898 L566.02577,357.6602568 L567.24244,361.2211532 L568.45911,359.2115384 L569.67578,359.0705128 L570.89245,358.7179488 L572.10912,362.1378196 L573.32579,357.1314108 L574.54246,361.1506404 L575.75913,357.3429492 L576.9758,355.7211548 L578.19247,360.4807688 L579.40914,357.5192312 L580.62581,358.471154 L581.84248,359.3878204 L583.05915,352.6891044 L584.27582,360.1634612 L585.49249,357.9070516 L586.70916,362.6666656 L587.92583,357.23718 L589.1425,355.4391036 L590.35917,357.8012824 L591.57584,357.9070516 L592.79251,357.5192312 L594.00918,359.5641024 L595.22585,356.990420456 L596.44252,356.6025648 L597.65919,359.176282 L598.87586,357.3076928 L600.09253,360.410256 L601.3092,358.3653848 L602.52587,357.6250004 L603.74254,357.7307696 L604.95921,360.1282048 L606.17588,362.1378196 L607.39255,359.2820512 L608.60922,361.115384 L609.82589,355.650642 L611.04256,360.6217944 L612.25923,359.6698716 L613.4759,360.6570508 L614.69257,364.6057676 L615.90924,362.0673068 L617.12591,356.003206 L618.34258,360.76282 L619.55925,358.2596156 L620.77592,357.589744 L621.99259,359.7403844 L623.20926,359.2820512 L624.42593,361.0801276 L625.6426,360.057692 L626.85927,361.2564096 L628.07594,356.7788468 L629.29261,359.528846 L630.50928,359.0 L631.72595,358.8942308 L632.94262,358.7179488 L634.15929,357.4487184 L635.37596,360.1282048 L636.59263,359.1057692 " fill-rule="evenodd" vector-effect="non-scaling-stroke"/>
                                </g>
                            </g>
                        </g>
                    </g>
                </g>
            </g>
        </g>
        <g fill="none" fill-rule="evenodd" id="PlotItem_6" stroke="black" stroke-linecap="square" stroke-linejoin="bevel" stroke-width="1">
            <g fill="none" fill-rule="evenodd" id="ViewBox_6" stroke="black" stroke-linecap="square" stroke-linejoin="bevel" stroke-width="1">
                <g fill="none" font-family="Sans Serif" font-size="11.875" font-style="normal" font-weight="400" stroke="none">
                    <path d="M5.0,401.667 L661.0,401.667 L661.0,475.0003 L5.0,475.0003 L5.0,401.667 " fill-rule="evenodd" vector-effect="non-scaling-stroke"/>
                </g>
                <clipPath id="ViewBox_6_clip">
                    <path d="M5.0,401.667 L661.0,401.667 L661.0,475.0 L5.0,475.0 L5.0,401.667 " fill-rule="evenodd" vector-effect="non-scaling-stroke"/>
                </clipPath>
                <g clip-path="url(#ViewBox_6_clip)">
                    <g fill="none" fill-rule="evenodd" id="ChildGroup_6" stroke="black" stroke-linecap="square" stroke-linejoin="bevel" stroke-width="1">
                        <g id="PlotDataItem_6">
                            <g fill="none" fill-rule="evenodd" id="PlotCurveItem_6" stroke="black" stroke-linecap="square" stroke-linejoin="bevel" stroke-width="1">
                                <g fill="none" font-family="Sans Serif" font-size="11.875" font-style="normal" font-weight="400" stroke="#000055" stroke-linecap="square" stroke-linejoin="bevel" stroke-opacity="1" stroke-width="1">
                                    <path d="M29.4119,473.59 L30.62869,473.59 L31.84548,473.59 L33.06227,473.59 L34.27906,473.59 L35.49585,473.59 L36.71264,473.59 L37.92943,473.59 L39.14622,473.59 L40.36301,473.59 L41.5798,473.59 L42.79659,473.59 L44.01338,473.59 L45.23017,473.59 L46.44696,473.59 L47.66375,473.59 L48.88054,473.59 L50.09733,473.59 L51.31412,473.59 L52.53091,473.59 L53.7477,473.59 L54.96449,473.59 L56.18128,473.59 L57.39807,473.59 L58.61486,473.59 L59.83165,473.59 L61.04844,473.59 L62.26523,473.59 L63.48202,473.59 L64.69881,473.59 L65.9156,473.59 L67.13239,473.59 L68.34918,473.59 L69.56597,473.59 L70.78276,473.59 L71.99955,473.59 L73.21634,473.59 L74.43313,473.59 L75.64992,473.59 L76.86671,473.59 L78.0835,473.59 L79.30029,473.59 L80.51708,473.59 L81.73387,473.59 L82.95066,473.59 L84.16745,473.59 L85.38424,473.59 L86.60103,473.59 L87.81782,473.59 L89.03461,473.59 L90.2514,473.59 L91.46819,473.59 L92.68498,473.59 L93.90177,473.59 L95.11856,473.59 L96.33535,473.59 L97.55214,473.59 L98.76893,473.59 L99.98572,473.59 L101.20251,473.59 L102.4193,473.59 L103.63609,473.59 L104.85288,473.59 L106.06967,473.59 L107.28646,473.59 L108.50325,473.59 L109.72004,473.59 L110.93683,473.59 L112.15362,473.59 L113.37041,473.59 L114.5872,473.59 L115.80399,473.59 L117.02078,473.59 L118.23757,473.59 L119.45436,473.59 L120.67115,473.59 L121.88794,473.59 L123.10473,473.59 L124.32152,473.59 L125.53831,473.59 L126.7551,473.59 L127.97189,473.59 L129.18868,473.59 L130.40547,473.59 L131.62226,473.59 L132.83905,473.59 L134.05584,473.59 L135.27263,473.59 L136.48942,473.59 L137.70621,473.59 L138.923,473.59 L140.13979,473.59 L141.35658,473.59 L142.57337,473.59 L143.79016,473.59 L145.00695,473.59 L146.22374,473.59 L147.44053,473.59 L148.65732,473.59 L149.87411,473.59 L151.0909,473.59 L152.30769,473.59 L153.52448,473.59 L154.74127,473.59 L155.95806,473.59 L157.17485,473.59 L158.39164,473.59 L159.60843,473.59 L160.82522,473.59 L162.04201,473.59 L163.2588,473.59 L164.47559,473.59 L165.69238,473.59 L166.90917,473.59 L168.12596,473.59 L169.34275,473.59 L170.55954,473.59 L171.77633,473.59 L172.99312,473.59 L174.20991,473.59 L175.4267,473.59 L176.64349,473.59 L177.86028,473.59 L179.07707,473.59 L180.29386,473.59 L181.51065,473.59 L182.72744,473.59 L183.94423,473.59 L185.16102,473.59 L186.37781,473.59 L187.5946,473.59 L188.81139,473.59 L190.02818,473.59 L191.24497,473.59 L192.46176,473.59 L193.67855,473.59 L194.89534,473.59 L196.11213,473.59 L197.32892,473.59 L198.54571,473.59 L199.7625,473.59 L200.97929,473.59 L202.19608,473.59 L203.41287,473.59 L204.62966,473.59 L205.84645,473.59 L207.06324,473.59 L208.28003,473.59 L209.49682,473.59 L210.71361,473.59 L211.9304,473.59 L213.14719,473.59 L214.36398,473.59 L215.58077,473.59 L216.79756,473.59 L218.01435,473.59 L219.23114,473.59 L220.44793,473.59 L221.66472,473.59 L222.88151,473.59 L224.0983,473.59 L225.31509,473.59 L226.53188,473.59 L227.74867,473.59 L228.96546,473.59 L230.18225,473.59 L231.39904,473.59 L232.61583,473.59 L233.83262,473.59 L235.04941,473.59 L236.2662,473.59 L237.48299,473.59 L238.69978,473.59 L239.91657,473.59 L241.13336,473.59 L242.35015,473.59 L243.56694,473.59 L244.78373,473.59 L246.00052,473.59 L247.21731,473.59 L248.4341,473.59 L249.65089,473.59 L250.86768,473.59 L252.08447,473.59 L253.30126,473.59 L254.51805,473.59 L255.73484,473.59 L256.95163,473.59 L258.16842,473.59 L259.38521,473.59 L260.602,473.59 L261.81879,473.59 L263.03558,473.59 L264.25237,473.59 L265.46916,473.59 L266.68595,473.59 L267.90274,473.59 L269.11953,473.59 L270.33632,473.59 L271.55311,473.59 L272.7699,473.59 L273.98669,473.59 L275.20348,473.59 L276.42027,473.59 L277.63706,473.59 L278.85385,473.59 L280.07064,473.59 L281.28743,473.59 L282.50422,473.59 L283.72101,473.59 L284.9378,473.59 L286.15459,473.59 L287.37138,473.59 L288.58817,473.59 L289.80496,473.59 L291.02175,473.59 L292.23854,473.59 L293.45533,473.59 L294.67212,473.59 L295.88891,473.59 L297.1057,473.59 L298.32249,473.59 L299.53928,473.59 L300.75607,473.59 L301.97286,473.59 L303.18965,473.59 L304.40644,473.59 L305.62323,473.59 L306.84002,473.59 L308.05681,473.59 L309.2736,473.59 L310.49039,473.59 L311.70718,473.59 L312.92397,473.59 L314.14076,473.59 L315.35755,473.59 L316.57434,473.59 L317.79113,473.59 L319.00792,473.59 L320.22471,473.59 L321.4415,473.59 L322.65829,473.59 L323.87508,473.59 L325.09187,473.59 L326.30866,473.59 L327.52545,473.59 L328.74224,473.59 L329.95903,473.59 L331.17582,473.59 L332.39261,473.59 L333.6094,473.59 L334.82619,473.59 L336.04298,473.59 L337.25977,473.59 L338.47656,473.59 L339.69335,473.59 L340.91014,473.59 L342.12693,473.59 L343.34372,473.59 L344.56051,473.59 L345.7773,473.59 L346.99409,473.59 L348.21088,473.59 L349.42767,473.59 L350.64446,473.59 L351.86125,473.59 L353.07804,473.59 L354.29483,473.59 L355.51162,473.59 L356.72841,473.59 L357.9452,473.59 L359.16199,473.59 L360.37878,473.59 L361.59557,473.59 L362.81236,473.59 L364.02915,473.59 L365.24594,473.59 L366.46273,473.59 L367.67952,473.59 L368.89631,473.59 L370.1131,473.59 L371.32989,473.59 L372.54668,473.59 L373.76347,473.59 L374.98026,473.59 L376.19705,473.59 L377.41384,473.59 L378.63063,473.59 L379.84742,473.59 L381.06421,473.59 L382.281,473.59 L383.49779,473.59 L384.71458,473.59 L385.93137,473.59 L387.14816,473.59 L388.36495,473.59 L389.58174,473.59 L390.79853,473.59 L392.01532,473.59 L393.23211,473.59 L394.4489,473.59 L395.66569,473.59 L396.88248,473.59 L398.09927,473.59 L399.31606,473.59 L400.53285,473.59 L401.74964,473.59 L402.96643,473.59 L404.18322,473.59 L405.40001,473.59 L406.6168,473.59 L407.83359,473.59 L409.05038,473.59 L410.26717,473.59 L411.48396,473.59 L412.70075,473.59 L413.91754,473.59 L415.13433,473.59 L416.35112,473.59 L417.56791,473.59 L418.7847,473.59 L420.00149,473.59 L421.21828,473.59 L422.43507,473.59 L423.65186,473.59 L424.86865,473.59 L426.08544,473.59 L427.30223,473.59 L428.51902,473.59 L429.73581,473.59 L430.9526,473.59 L432.16939,473.59 L433.38618,473.59 L434.60297,473.59 L435.81976,473.59 L437.03655,473.59 L438.25334,473.59 L439.47013,473.59 L440.68692,473.59 L441.90371,473.59 L443.1205,473.59 L444.33729,473.59 L445.55408,473.59 L446.77087,473.59 L447.98766,473.59 L449.20445,473.59 L450.42124,473.59 L451.63803,473.59 L452.85482,473.59 L454.07161,473.59 L455.2884,473.59 L456.50519,473.59 L457.72198,473.59 L458.93877,473.59 L460.15556,473.59 L461.37235,473.59 L462.58914,473.59 L463.80593,473.59 L465.02272,473.59 L466.23951,473.59 L467.4563,473.59 L468.67309,473.59 L469.88988,473.59 L471.10667,473.59 L472.32346,473.59 L473.54025,473.59 L474.75704,473.59 L475.97383,473.59 L477.19062,473.59 L478.40741,473.59 L479.6242,473.59 L480.84099,473.59 L482.05778,473.59 L483.27457,473.59 L484.49136,473.59 L485.70815,473.59 L486.92494,473.59 L488.14173,473.59 L489.35852,473.59 L490.57531,473.59 L491.7921,473.59 L493.00889,473.59 L494.22568,473.59 L495.44247,473.59 L496.65926,473.59 L497.87605,473.59 L499.09284,473.59 L500.30963,473.59 L501.52642,473.59 L502.74321,473.59 L503.96,473.59 L505.17679,473.59 L506.39358,473.59 L507.61037,473.59 L508.82716,473.59 L510.04395,473.59 L511.26074,473.59 L512.47753,473.59 L513.69432,473.59 L514.91111,473.59 L516.1279,473.59 L517.34469,473.59 L518.56148,473.59 L519.77827,473.59 L520.99506,473.59 L522.21185,473.59 L523.42864,473.59 L524.64543,473.59 L525.86222,473.59 L527.07901,473.59 L528.2958,473.59 L529.51259,473.59 L530.72938,473.59 L531.94617,473.59 L533.16296,473.59 L534.37975,473.59 L535.59654,473.59 L536.81333,473.59 L538.03012,473.59 L539.24691,473.59 L540.4637,473.59 L541.68049,473.59 L542.89728,473.59 L544.11407,473.59 L545.33086,473.59 L546.54765,473.59 L547.76444,473.59 L548.98123,473.59 L550.19802,473.59 L551.41481,473.59 L552.6316,473.59 L553.84839,473.59 L555.06518,473.59 L556.28197,473.59 L557.49876,473.59 L558.71555,473.59 L559.93234,473.59 L561.14913,473.59 L562.36592,473.59 L563.58271,473.59 L564.7995,473.59 L566.01629,473.59 L567.23308,473.59 L568.44987,473.59 L569.66666,473.59 L570.88345,473.59 L572.10024,473.59 L573.31703,473.59 L574.53382,473.59 L575.75061,473.59 L576.9674,473.59 L578.18419,473.59 L579.40098,473.59 L580.61777,473.59 L581.83456,473.59 L583.05135,473.59 L584.26814,473.59 L585.48493,473.59 L586.70172,473.59 L587.91851,473.59 L589.1353,473.59 L590.35209,473.59 L591.56888,473.59 L592.78567,473.59 L594.00246,473.59 L595.21925,473.59 L596.43604,473.59 L597.65283,473.59 L598.86962,473.59 L600.08641,473.59 L601.3032,473.59 L602.51999,473.59 L603.73678,473.59 L604.95357,473.59 L606.17036,473.59 L607.38715,473.59 L608.60394,473.59 L609.82073,473.59 L611.03752,473.59 L612.25431,473.59 L613.4711,473.59 L614.68789,473.59 L615.90468,473.59 L617.12147,473.59 L618.33826,473.59 L619.55505,473.59 L620.77184,473.59 L621.98863,473.59 L623.20542,473.59 L624.42221,473.59 L625.639,473.59 L626.85579,473.59 L628.07258,473.59 L629.28937,473.59 L630.50616,473.59 L631.72295,473.59 L632.93974,473.59 L634.15653,473.59 L635.37332,473.59 L636.59011,473.59 " fill-rule="evenodd" vector-effect="non-scaling-stroke"/>
                                </g>
                            </g>
                        </g>
                    </g>
                </g>
            </g>
        </g>
    </g>
</g>

</svg>
