<?xml version="1.0" encoding="UTF-8" standalone="no"?>
<svg
   xmlns:dc="http://purl.org/dc/elements/1.1/"
   xmlns:cc="http://creativecommons.org/ns#"
   xmlns:rdf="http://www.w3.org/1999/02/22-rdf-syntax-ns#"
   xmlns:svg="http://www.w3.org/2000/svg"
   xmlns="http://www.w3.org/2000/svg"
   xmlns:sodipodi="http://sodipodi.sourceforge.net/DTD/sodipodi-0.dtd"
   xmlns:inkscape="http://www.inkscape.org/namespaces/inkscape"
   version="1.2"
   id="svg2"
   inkscape:version="0.48.4 r9939"
   width="635.92017"
   height="288.9682"
   sodipodi:docname="Braiten-1-2-full-connection-point.3-value-1-2.svg">
  <metadata
     id="metadata260">
    <rdf:RDF>
      <cc:Work
         rdf:about="">
        <dc:format>image/svg+xml</dc:format>
        <dc:type
           rdf:resource="http://purl.org/dc/dcmitype/StillImage" />
      </cc:Work>
    </rdf:RDF>
  </metadata>
  <sodipodi:namedview
     pagecolor="#ffffff"
     bordercolor="#666666"
     borderopacity="1"
     objecttolerance="10"
     gridtolerance="10"
     guidetolerance="10"
     inkscape:pageopacity="0"
     inkscape:pageshadow="2"
     inkscape:window-width="1920"
     inkscape:window-height="1026"
     id="namedview258"
     showgrid="false"
     inkscape:zoom="0.44851479"
     inkscape:cx="-336.30238"
     inkscape:cy="66.574271"
     inkscape:window-x="1047"
     inkscape:window-y="-3"
     inkscape:window-maximized="1"
     inkscape:current-layer="svg2"
     fit-margin-top="0"
     fit-margin-left="0"
     fit-margin-right="0"
     fit-margin-bottom="0" />
  <title
     id="title4">pyqtgraph SVG export</title>
  <desc
     id="desc6">Generated with Qt and pyqtgraph</desc>
  <defs
     id="defs8" />
  <g
     id="PlotItem_1"
     style="fill:none;stroke:#000000;stroke-width:1;stroke-linecap:square;stroke-linejoin:bevel"
     transform="translate(-25.079834,-1.5723166)">
    <g
       id="AxisItem_1"
       style="fill:none;stroke:#000000;stroke-width:1;stroke-linecap:square;stroke-linejoin:bevel">
      <g
         font-size="11.875"
         font-style="normal"
         font-weight="400"
         id="g14"
         style="font-size:11.875px;font-style:normal;font-weight:400;fill:none;stroke:#969696;stroke-width:1;stroke-linecap:square;stroke-linejoin:bevel;stroke-opacity:1;font-family:Sans Serif">
        <polyline
           points="45.0,5.0 45.0,79.113566312"
           vector-effect="non-scaling-stroke"
           id="polyline16"
           style="fill:none" />
      </g>
      <g
         font-size="11.875"
         font-style="normal"
         font-weight="400"
         id="g18"
         style="font-size:11.875px;font-style:normal;font-weight:400;fill:none;stroke:#969696;stroke-width:1;stroke-linecap:square;stroke-linejoin:bevel;stroke-opacity:1;font-family:Sans Serif">
        <polyline
           points="45.5,42.056833688 50.5,42.056833688"
           vector-effect="non-scaling-stroke"
           id="polyline20"
           style="fill:none" />
      </g>
      <g
         font-size="11.875"
         font-style="normal"
         font-weight="400"
         id="g22"
         style="font-size:11.875px;font-style:normal;font-weight:400;fill:none;stroke:#969696;stroke-width:1;stroke-linecap:square;stroke-linejoin:bevel;stroke-opacity:0.49803904;font-family:Sans Serif">
        <polyline
           points="45.5,77.688361784 48.8333,77.688361784"
           vector-effect="non-scaling-stroke"
           id="polyline24"
           style="fill:none" />
        <polyline
           points="45.5,6.4252651664 48.8333,6.4252651664"
           vector-effect="non-scaling-stroke"
           id="polyline26"
           style="fill:none" />
      </g>
      <g
         font-size="11.875"
         font-style="normal"
         font-weight="400"
         id="g28"
         style="font-size:11.875px;font-style:normal;font-weight:400;fill:none;stroke:#969696;stroke-width:1;stroke-linecap:square;stroke-linejoin:bevel;stroke-opacity:0.33333297;font-family:Sans Serif">
        <polyline
           points="45.5,70.562035952 48.0,70.562035952"
           vector-effect="non-scaling-stroke"
           id="polyline30"
           style="fill:none" />
        <polyline
           points="45.5,63.43571012 48.0,63.43571012"
           vector-effect="non-scaling-stroke"
           id="polyline32"
           style="fill:none" />
        <polyline
           points="45.5,56.309384288 48.0,56.309384288"
           vector-effect="non-scaling-stroke"
           id="polyline34"
           style="fill:none" />
        <polyline
           points="45.5,49.183058456 48.0,49.183058456"
           vector-effect="non-scaling-stroke"
           id="polyline36"
           style="fill:none" />
        <polyline
           points="45.5,34.930507856 48.0,34.930507856"
           vector-effect="non-scaling-stroke"
           id="polyline38"
           style="fill:none" />
        <polyline
           points="45.5,27.804182024 48.0,27.804182024"
           vector-effect="non-scaling-stroke"
           id="polyline40"
           style="fill:none" />
        <polyline
           points="45.5,20.677856192 48.0,20.677856192"
           vector-effect="non-scaling-stroke"
           id="polyline42"
           style="fill:none" />
        <polyline
           points="45.5,13.5515707856 48.0,13.5515707856"
           vector-effect="non-scaling-stroke"
           id="polyline44"
           style="fill:none" />
      </g>
      <g
         font-size="11.875"
         font-style="normal"
         font-weight="400"
         transform="matrix(1,0,0,1.01064,5.5,5)"
         id="g46"
         style="font-size:11.875px;font-style:normal;font-weight:400;fill:none;stroke:#969696;stroke-width:1;stroke-linecap:square;stroke-linejoin:bevel;stroke-opacity:1;font-family:Sans Serif">
        <text
           font-size="11.875"
           font-style="normal"
           font-weight="400"
           x="31"
           xml:space="preserve"
           y="40.6562"
           id="text48"
           style="font-size:11.875px;font-style:normal;font-weight:400;fill:#969696;fill-opacity:1;stroke:none">0</text>
        <text
           font-size="11.875"
           font-style="normal"
           font-weight="400"
           x="19"
           xml:space="preserve"
           y="75.921898"
           id="text50"
           style="font-size:11.875px;font-style:normal;font-weight:400;fill:#969696;fill-opacity:1;stroke:none">-10</text>
        <text
           font-size="11.875"
           font-style="normal"
           font-weight="400"
           x="23"
           xml:space="preserve"
           y="5.4218798"
           id="text52"
           style="font-size:11.875px;font-style:normal;font-weight:400;fill:#969696;fill-opacity:1;stroke:none">10</text>
      </g>
    </g>
    <g
       id="ViewBox_1"
       style="fill:none;stroke:#000000;stroke-width:1;stroke-linecap:square;stroke-linejoin:bevel">
      <g
         font-size="11.875"
         font-style="normal"
         font-weight="400"
         id="g55"
         style="font-size:11.875px;font-style:normal;font-weight:400;fill:none;stroke:none;font-family:Sans Serif">
        <path
           d="m 45,5 616,0 0,73.3333 -616,0 L 45,5"
           vector-effect="non-scaling-stroke"
           id="path57"
           inkscape:connector-curvature="0" />
      </g>
      <clipPath
         id="ViewBox_1_clip">
        <path
           d="m 45,5 616,0 0,73.3333 -616,0 L 45,5"
           vector-effect="non-scaling-stroke"
           id="path60"
           inkscape:connector-curvature="0" />
      </clipPath>
      <g
         clip-path="url(#ViewBox_1_clip)"
         id="g62">
        <g
           id="ChildGroup_1"
           style="fill:none;stroke:#000000;stroke-width:1;stroke-linecap:square;stroke-linejoin:bevel">
          <g
             id="InfiniteLine_1"
             style="fill:none;stroke:#000000;stroke-width:1;stroke-linecap:square;stroke-linejoin:bevel">
            <g
               font-size="11.875"
               font-style="normal"
               font-weight="400"
               id="g66"
               style="font-size:11.875px;font-style:normal;font-weight:400;fill:none;stroke:#e6e6af;stroke-width:1;stroke-linecap:square;stroke-linejoin:bevel;stroke-opacity:1;font-family:Sans Serif">
              <polyline
                 points="661.00284908,41.6667 44.9999465728,41.6667"
                 vector-effect="non-scaling-stroke"
                 id="polyline68"
                 style="fill:none" />
            </g>
          </g>
          <g
             id="PlotDataItem_1">
            <g
               id="PlotCurveItem_1"
               style="fill:none;stroke:#000000;stroke-width:1;stroke-linecap:square;stroke-linejoin:bevel">
              <g
                 font-size="11.875"
                 font-style="normal"
                 font-weight="400"
                 id="g72"
                 style="font-size:11.875px;font-style:normal;font-weight:400;fill:none;stroke:#ff0000;stroke-width:1;stroke-linecap:square;stroke-linejoin:bevel;stroke-opacity:1;font-family:Sans Serif">
                <path
                   d="m 29.4743,41.656617 0.607724,-0.0081 0.607724,0.08705 0.607724,-0.0035 0.607724,-0.05726 0.607724,-0.05764 0.607724,-0.104888 0.607724,0.06533 0.607724,0.01565 0.607724,0.0056 0.607724,0.08264 0.607724,0.05694 0.607724,-0.02909 0.607724,0.04827 0.607724,-0.02958 0.607724,-0.03212 0.607724,-0.115676 0.607724,0.09509 0.607724,-0.09177 0.607724,-0.141837 0.607724,0.01816 0.607724,0.0195 0.607724,-0.02323 0.607724,-0.128545 0.607724,0.02341 0.607724,0.03159 0.607724,-0.02137 0.607724,0.08225 0.607724,0.100798 0.607724,-0.05683 0.607724,-5.64e-4 0.607724,0.03942 0.607724,0.08476 0.607724,0.0392 0.607724,-0.02383 0.607724,0.04975 0.607724,0.02538 0.607724,-0.08627 0.607724,0.02507 0.607724,0.04601 0.607724,-0.0043 0.607724,-0.0047 0.607724,-0.0355 0.607724,-0.0022 0.607724,0.0195 0.607724,-0.03854 0.607724,-0.01692 0.607724,-0.01301 0.607724,-0.06121 0.607724,-0.03603 0.607724,-0.05345 0.607724,0.0031 0.607724,0.03381 0.607724,-0.01925 0.607724,-0.06519 0.607724,-0.09516 0.607724,0.07111 0.607724,-0.08701 0.607724,0.06914 0.607724,-0.145116 0.607724,0.08797 0.607724,0.06896 0.607724,0.161933 0.607724,0.02397 0.607724,-0.05123 0.607724,-0.0575 0.607724,-0.04668 0.607724,0.06089 0.607724,-0.03141 0.607724,-0.0091 0.607724,0.02084 0.607724,0.09064 0.607724,-0.0047 0.607724,-0.116875 0.607724,0.01855 0.607724,-0.04548 0.607724,-0.05846 0.607724,-0.09914 0.607724,-0.04545 0.607724,0.03088 0.607724,-0.0226 0.607724,0.125372 0.607724,-0.115994 0.607724,-0.08786 0.607724,0.04358 0.607724,-0.106474 0.607724,0.0587 0.607724,-0.08733 0.607724,-0.01653 0.607724,-0.102773 0.607724,-0.05158 0.607724,-0.01266 0.607724,-0.0415 0.607724,0.03247 0.607724,-0.07495 0.607724,-0.0128 0.607724,0.08687 0.607724,0.02835 0.607724,-0.02926 0.607724,-0.01103 0.607724,0.06367 0.607724,0.01706 0.607724,-0.03635 0.607724,-0.0083 0.607724,-0.05179 0.607724,-0.02168 0.607724,-8.46e-4 0.607724,-0.100657 0.607724,-0.07739 0.607724,0.0067 0.607724,-0.07859 0.607724,0.0525 0.607724,-0.126747 0.607724,-0.0728 0.607724,0.02024 0.607724,-0.01745 0.607724,-0.09191 0.607726,0.06995 0.60772,-0.02204 0.60773,-0.103548 0.60772,-0.09043 0.60772,0.03434 0.60773,0.02288 0.60772,-0.05204 0.60773,-0.01654 0.60772,0.03804 0.60772,0.04957 0.60773,0.01167 0.60772,-0.10926 0.60773,-0.06343 0.60772,0.0134 0.60772,-0.08243 0.60773,-0.178362 0.60772,0.03543 0.60773,-0.05366 0.60772,-0.02031 0.60772,-0.07711 0.60773,-0.123891 0.60772,-0.01851 0.60773,-0.04132 0.60772,-0.01583 0.60772,-0.0061 0.60773,-0.149381 0.60772,-0.06984 0.60773,-0.0147 0.60772,0.04541 0.60772,-0.06995 0.60773,-0.0061 0.60772,-0.09082 0.60773,-0.216157 0.60772,-0.09484 0.60772,-0.0024 0.60773,-0.04664 0.60772,-0.01918 0.60773,-0.08232 0.60772,-0.07453 0.60772,0.04594 0.60773,-0.03074 0.60772,3.53e-4 0.60773,-0.02736 0.60772,-0.03184 0.60772,-0.143564 0.60773,-0.02708 0.60772,-0.0096 0.60773,0.01128 0.60772,-0.04164 0.60772,-0.03818 0.60773,0.0397 0.60772,-0.03737 0.60773,0.01664 0.60772,-0.07062 0.60772,-0.05648 0.60773,0.01248 0.60772,0.0088 0.60773,-0.05553 0.60772,-0.136865 0.60772,-0.02017 0.60773,0.03275 0.60772,0.01967 0.60773,-0.08458 0.60772,-0.07157 0.60772,-0.09505 0.60773,-0.0082 0.60772,0.06473 0.60773,-0.02197 0.60772,-0.09131 0.60772,-0.066 0.60773,-0.112327 0.60772,-0.04432 0.60773,0.04361 0.60772,-0.03533 0.60772,-0.08747 0.60773,-0.07563 0.60772,-0.07647 0.60773,-0.0083 0.60772,-0.1051 0.60772,-0.104429 0.60773,-0.07605 0.60772,-0.01445 0.60773,-0.01498 0.60772,0.06871 0.60772,-0.06748 0.60773,-0.199975 0.60772,-0.02895 0.60773,-0.162885 0.60772,-0.06251 0.60772,-0.0029 0.60773,-0.0085 0.60772,0.02732 0.60773,-0.07009 0.60772,0.03416 0.60772,0.124349 0.60773,-0.147372 0.60772,-0.03857 0.60773,0.03138 0.60772,-0.14025 0.60772,-0.132 0.60773,-0.124948 0.60772,-0.02944 0.60773,-0.05511 0.60772,-0.0171 0.60772,0.0196 0.60773,-0.0873 0.60772,-7e-5 0.60773,0.04862 0.60772,-0.0078 0.60772,-0.0294 0.60773,-0.126288 0.60772,-0.129955 0.60773,-0.128333 0.60772,-0.09191 0.60772,-0.109859 0.60773,0.0054 0.60772,-0.05842 0.60773,-0.121952 0.60772,-0.01026 0.60772,-0.03441 0.60773,0.04527 0.60772,-0.04633 0.60773,-0.0134 0.60772,-0.04664 0.60772,0.01167 0.60773,-0.08497 0.60772,-0.04946 0.60773,-0.01357 0.60772,-0.05518 0.60772,-0.03198 0.60773,-0.111445 0.60772,-0.02165 0.60773,-0.0727 0.60772,-0.09131 0.60772,-0.03106 0.60773,-0.108907 0.60772,-0.0245 0.60773,-0.05599 0.60772,-0.09177 0.60772,-0.01474 0.60773,-0.169584 0.60772,0.07249 0.60773,-0.01985 0.60772,-0.08451 0.60772,-0.157174 0.60773,0.01728 0.60772,-0.04946 0.60773,-0.06258 0.60772,-0.151073 0.60772,-0.07337 0.60773,0.01629 0.60772,-0.0027 0.60773,-0.04559 0.60772,1.41e-4 0.60772,-0.106333 0.60773,-0.07781 0.60772,-0.01421 0.60773,-0.09833 0.60772,-0.126006 0.60772,-0.02916 0.60773,-0.07027 0.60772,-0.04516 0.60773,0.0024 0.60772,-0.0069 0.60772,0.05394 0.60773,0.0083 0.60772,-0.08786 0.60773,0.02549 0.60772,-0.143282 0.60772,-0.03406 0.60773,-0.116311 0.60772,-0.01301 0.60773,0.02094 0.60772,0.08553 0.60772,-0.04654 0.60773,-0.01082 0.60772,-0.02757 0.60773,-0.127522 0.60772,-0.01763 0.60772,-0.0058 0.60773,-0.115677 0.60772,-0.104605 0.60773,-0.05659 0.60772,-0.02662 0.60772,-0.06935 0.60773,-0.05986 0.60772,-0.0073 0.60773,-0.04932 0.60772,-0.11684 0.60772,-0.09953 0.60773,-0.0708 0.60772,-0.04647 0.60773,-0.105769 0.60772,-0.05567 0.60772,-0.08641 0.60773,-0.05429 0.60772,-0.174379 0.60773,-0.01904 0.60772,-0.08874 0.60772,-0.02983 0.60773,-0.112327 0.60772,-0.115853 0.60773,-0.03046 0.60772,-0.07192 0.60772,0.02239 0.60773,-0.03769 0.60772,-0.09012 0.60773,-0.08426 0.60772,-0.09579 0.60772,-0.102385 0.60773,-0.04174 0.60772,0.0038 0.60773,-0.01826 0.60772,0.03261 0.60772,-0.135561 0.60773,-0.131859 0.60772,-0.04767 0.60773,-0.03878 0.60772,-0.04964 0.60772,-0.03194 0.60773,-0.05648 0.60772,-0.159711 0.60773,-0.122657 0.60772,-0.238475 0.60772,-0.0042 0.60773,0.0196 0.60772,-0.06801 0.60773,-0.157244 0.60772,-0.108237 0.60772,-0.03871 0.60773,-0.154282 0.60772,-0.188939 0.60773,-0.190948 0.60772,-0.135209 0.60772,-0.137077 0.60773,-0.125019 0.60772,-0.07513 0.60773,-0.09456 0.60772,-0.02457 0.60772,-0.151637 0.60773,-0.08465 0.60772,-0.0678 0.60773,-0.142859 0.60772,-0.14434 0.60772,-0.05775 0.60773,-0.03508 0.60772,-0.184179 0.60773,-0.113596 0.60772,-0.08518 0.60772,-0.100904 0.60773,-0.176105 0.60772,-0.07591 0.60773,0.01812 0.60772,-0.08395 0.60772,-0.02933 0.60773,-0.140356 0.60772,-0.177093 0.60773,-0.08232 0.60772,-0.126535 0.60772,-0.08081 0.60773,-0.10598 0.60772,-0.141237 0.60773,-0.281629 0.60772,-0.0679 0.60772,-0.101504 0.60773,-0.055 0.60772,-0.05768 0.60773,-0.04516 0.60772,-0.113879 0.60772,-0.04904 0.60773,-0.07481 0.60772,-0.09255 0.60773,-0.116875 0.60772,-0.07968 0.60772,-0.02443 0.60773,-0.02613 0.60772,-0.138417 0.60773,-0.173109 0.60772,-0.08736 0.60772,-0.134786 0.60773,-0.131435 0.60772,-0.118815 0.60773,-0.148958 0.60772,-0.09745 0.60772,-0.103935 0.60773,-0.05775 0.60772,-0.277292 0.60773,-0.118003 0.60772,-0.07319 0.60772,-0.113879 0.60773,-0.02151 0.60772,-0.203429 0.60773,-0.159183 0.60772,-0.08454 0.60772,-0.137747 0.60773,-0.06244 0.60772,-0.134679 0.60773,0.0032 0.60772,-0.03018 0.60772,-0.140355 0.60773,-0.05518 0.60772,-0.09018 0.60773,-0.105981 0.60772,-0.07682 0.60772,-0.01146 0.60773,-0.05338 0.60772,-0.06145 0.60773,-0.107003 0.60772,-0.06195 0.60772,-0.09946 0.60773,0.0288 0.60772,-0.163836 0.60773,-0.142859 0.60772,-0.06279 0.60772,-0.05775 0.60773,-0.04432 0.60772,-0.02486 0.60773,-0.119061 0.60772,-0.01773 0.60772,-0.08035 0.60773,-0.0079 0.60772,-0.09681 0.60773,-0.09928 0.60772,-0.07333 0.60772,-0.02137 0.60773,-0.161157 0.60772,-0.125301 0.60773,-0.05348 0.60772,-0.0078 0.60772,-0.206603 0.60773,-0.04964 0.60772,-0.124702 0.60773,-0.05207 0.60772,0.0057 0.60772,-0.100904 0.60773,-0.08405 0.60772,-0.111022 0.60773,-0.06745 0.60772,-0.128157 0.60772,-0.052 0.60773,-0.119413 0.60772,-0.06995 0.60773,-0.01312 0.60772,-0.142824 0.60772,-0.14307 0.60773,-0.160205 0.60772,0.0037 0.60773,-0.100939 0.60772,-0.123221 0.60772,-0.09354 0.60773,-0.201843 0.60772,-0.128333 0.60773,-0.06064 0.60772,-0.150756 0.60772,-0.04739 0.60773,-0.02887 0.60772,-0.0057 0.60773,-0.164506 0.60772,-0.06413 0.60772,-0.132705 0.60773,-0.08465 0.60772,-0.116558 0.60773,-0.186259 0.60772,-0.08183 0.60772,0.01981 0.60773,-0.09932 0.60772,0.01551 0.60773,0.02443 0.60772,-0.108343 0.60772,-0.131965 0.60773,-0.02193 0.60772,-0.03931 0.60773,-0.108272 0.60772,-0.10235 0.60772,-0.07369 0.60773,-0.07027 0.60772,-0.03071 0.60773,0.09734 0.60772,0.06247 0.60772,-0.0397 0.60773,0.006 0.60772,-0.06515 0.60773,0.05775 0.60772,-0.07541 0.60772,-0.124103 0.60773,-0.07876 0.60772,-0.188446 0.60773,-0.152413 0.60772,-0.08867 0.60772,-0.09068 0.60773,-0.02397 0.60772,-0.02923 0.60773,-0.03145 0.60772,0.03497 0.60772,-0.05662 0.60773,0.115183 0.60772,-0.124596 0.60773,-0.04308 0.60772,-0.135103 0.60772,-0.04576 0.60773,-0.04541 0.60772,-0.08737 0.60773,-0.01008 0.60772,-0.02447 0.60772,-0.04597 0.60773,-0.106933 0.60772,-0.06279 0.60773,-0.07076 0.60772,0.03631 0.60772,-0.08472 0.60773,-0.06466 0.60772,0.03131 0.60773,0.01643 0.60772,-0.02866 0.60772,-0.105911 0.60773,-0.04442 0.60772,-0.06752 0.60773,-0.04552 0.60772,-0.0081 0.60772,-0.04241 0.60773,0.01262 0.60772,-0.17198 0.60773,0.0078 0.60772,-0.09495 0.60772,-0.05169 0.60773,-0.103759 0.60772,-0.120895 0.60773,-0.02341 0.60772,0.09347 0.60772,0.0051 0.60773,0.0036 0.60772,-0.0093 0.60773,-0.02355 0.60772,-10e-4 0.60772,-0.104641 0.60773,-0.03282 0.60772,0.07436 0.60773,-0.191301 0.60772,-0.09371 0.60772,-0.06893 0.60773,0.08571 0.60772,-0.167644 0.60773,-0.01534 0.60772,-0.03868 0.60772,-0.105205 0.60773,-0.01312 0.60772,0.03579 0.60773,-0.149522 0.60772,-0.02232 0.60772,0.01777 0.60773,0.03392 0.60772,0.03483 0.60773,-0.08782 0.60772,0.0117 0.60772,-0.08856 0.60773,-0.01505 0.60772,-0.01446 0.60773,0.03247 0.60772,-0.05225 0.60772,-0.0703 0.60773,0.09131 0.60772,-0.03621 0.60773,0.02207 0.60772,-0.008 0.60772,-0.02404 0.60773,-0.187211 0.60772,-0.116805 0.60773,-0.01551 0.60772,-0.06836 0.60772,-0.07735 0.60773,0.0057 0.60772,-0.07326 0.60773,-0.03931 0.60772,0.03522 0.60772,-0.104112 0.60773,0.04971 0.60772,-0.05511 0.60773,-0.05585 0.60772,0.02091 0.60772,-0.06667 0.60773,-0.04477 0.60772,-0.0849 0.60773,-0.09769 0.60772,-0.02084 0.60772,0.0824 0.60773,-0.05955 0.60772,-0.06452 0.60773,-0.148887 0.60772,-0.04629 0.60772,-0.02916 0.60773,-0.116805 0.60772,0.02803 0.60773,-0.04262 0.60772,-0.06776 0.60772,-0.01784 0.60773,0.01269 0.60772,-0.07111 0.60773,0.02362 0.60772,0.0024 0.60772,-0.04062 0.60773,0.033 0.60772,-0.01675 0.60773,-0.108836 0.60772,0.02334 0.60772,-0.0047 0.60773,0.01142 0.60772,-0.12442 0.60773,-0.01777 0.60772,-0.0556 0.60772,-0.131084 0.60773,0.02221 0.60772,-0.05786 0.60773,-0.094698 0.60772,-0.154705 0.60772,-0.085603 0.60773,-0.092901 0.60772,-0.049112 0.60773,-0.1578429 0.60772,-0.00197 0.60772,-0.0036 0.60773,-0.09283 0.60772,-0.032083 0.60773,-0.038183 0.60772,-0.040897 0.60772,-0.039346 0.60773,-0.098295 0.60772,-0.072875 0.60773,-0.040545 0.60772,-0.1673269 0.60772,-0.08049 0.60773,-0.016606 0.60772,-0.074109 0.60773,-0.057926 0.60772,0.011635 0.60772,-0.036279 0.60773,0.06667 0.60772,0.041885 0.60773,-0.074638 0.60772,-0.052885 0.60772,-0.01784 0.60773,0.022 0.60772,-0.059301 0.60773,-0.097696 0.60772,0.010295 0.60772,-0.040862 0.60773,-0.020731 0.60772,-7.756e-4 0.60773,-0.042131 0.60772,0.037407 0.60772,0.036808 0.60773,0.118391 0.60772,-3.173e-4 0.60773,-0.02884 0.60772,-0.073087 0.60772,0.00578 0.60773,-0.038394 0.60772,-0.031237 0.60773,-0.1286859 0.60772,0.024997 0.60772,-0.063779 0.60773,-0.075766 0.60772,-0.00733 0.60773,-0.024327 0.60772,-0.07841 0.60772,-0.084227 0.60773,-0.036138 0.60772,0.00321 0.60773,0.027958 0.60772,-0.056234 0.60772,-0.08042 0.60773,-0.054471 0.60772,-0.074038 0.60773,0.011917 0.60772,-0.067833 0.60772,-0.05909 0.60773,-0.047667 0.60772,0.042978 0.60773,-0.058067 0.60772,0.032506 0.60772,0.1175448 0.60773,0.016465 0.60772,-0.051615 0.60773,-0.067586 0.60772,-0.1056635 0.60772,-0.077141 0.60773,-0.067481 0.60772,-0.03582 0.60773,-0.047737 0.60772,-0.06875 0.60772,0.050769 0.60773,-0.024327 0.60772,0.023375 0.60773,-0.033317 0.60772,0.00684 0.60772,-0.1150064 0.60773,-0.1107051 0.60772,-0.071218 0.60773,-0.1772692 0.60772,-0.045305 0.60772,-0.037054 0.60773,-0.011881 0.60772,-0.081407 0.60773,0.015054 0.60772,0.063356 0.60772,0.036208 0.60773,-0.00987 0.60772,0.03991 0.60773,-0.051827 0.60772,-0.02884 0.60772,-0.06399 0.60773,0.00264 0.60772,0.035538 0.60773,0.075343 0.60772,-0.00769 0.60772,0.027817 0.60773,-0.02542 0.60772,-0.081301 0.60773,0.034798 0.60772,-0.061734 0.60772,0 0.60773,0 0.60772,0 0.60773,0 0.60772,0.00663 0.60772,-0.00663 0.60773,0 0.60772,0 0.60773,0 0.60772,0.052426 0.60772,-0.010083 0.60773,-0.010295 0.60772,-0.027042 0.60773,-0.00501 0.60772,0 0.60772,0 0.60773,0 0.60772,0.03776 0.60773,-0.03776 0.60772,0 0.60772,0.0043 0.60773,-0.0043 0.60772,0 0.60773,0 0.60772,0.04326 0.60772,0.038853 0.60773,-0.051968 0.60772,0.048513 0.60773,-0.078657 0.60772,0 0.60772,0 0.60773,0 0.60772,0 0.60773,0 0.60772,0.023798 0.60772,0.051474 0.60773,-0.011776 0.60772,0.041038 0.60773,-0.050875 0.60772,-0.015478 0.60772,-0.038183 0.60773,0.038006 0.60772,0.068186 0.60773,0.025631 0.60772,-0.026407 0.60772,0.057644 0.60773,0.050523 0.60772,-0.027571 0.60773,-0.048583 0.60772,3.526e-4 0.60772,-0.1174743 0.60773,-0.00807 0.60772,-0.012234 0.60773,0 0.60772,0.06251 0.60772,-0.06251 0.60773,0 0.60772,0 0.60773,0 0.60772,0 0.60772,0 0.60773,0 0.60772,0 0.60773,0.027641 0.60772,0.00857 0.60772,-0.036208 0.60773,0.048301 0.60772,-0.00409 0.60773,0.07492 0.60772,0.013045 0.60772,0.067128 0.60773,-0.144657 0.60772,0.021647 0.60773,-0.032436 0.60772,-0.043859 0.60772,0 0.60773,0.1086602 0.60772,-0.026936 0.60773,-0.021471 0.60772,0.00176 0.60772,-0.062016 0.60773,0 0.60772,0.00642 0.60773,-0.00642 0.60772,0.073862 0.60772,0.00469 0.60773,-0.029404 0.60772,0.1328461 0.60773,0.045551 0.60772,-0.01301 0.60772,0.037865 0.60773,-0.025138 0.60772,-0.09149 0.60773,0.052779 0.60772,-0.1259711 0.60772,0.052039 0.60773,-0.031449 0.60772,-0.064836 0.60773,0.0097 0.60772,-0.028029 0.60772,0.00867 0.60773,-0.00867 0.60772,0.073439 0.60773,0.021048 0.60772,-0.092548 0.60772,-0.00194 0.60773,0 0.60772,0 0.60773,0.012058 0.60772,0.021365 0.60772,-0.033423 0.60773,0.043083 0.60772,-0.02408 0.60773,-0.019003 0.60772,0.056551 0.60772,-0.00582 0.60773,0.1324583 0.60772,-0.050487 0.60773,-0.059407 0.60772,0.013221 0.60772,-0.03226 0.60773,-0.05426 0.60772,0.046115 0.60773,0.00356 0.60772,0.045093 0.60772,0.044388 0.60773,-0.069772 0.60772,0.024644 0.60773,-0.094029 0.60772,0 0.60772,0 0.60773,0.023305 0.60772,0.029439 0.60773,-0.035362 0.60772,-8.814e-4 0.60772,0.094875 0.60773,-0.06526 0.60772,-0.042026 0.60773,0.00853 0.60772,-0.012622 0.60772,0.1734967 0.60773,0.00652 0.60772,0.085638 0.60773,0.039452 0.60772,-0.039558 0.60772,-0.021295 0.60773,0.038958 0.60772,0.024961 0.60773,-0.06124 0.60772,0.050805 0.60772,-0.061381 0.60773,-0.1258653 0.60772,0.00962 0.60773,-0.076577 0.60772,-0.031273 0.60772,-0.012269 0.60773,0 0.60772,0 0.60773,0.023375 0.60772,-0.023375 0.60772,0 0.60773,0 0.60772,0 0.60773,0 0.60772,0.028522 0.60772,0.015054 0.60773,-0.010824 0.60772,-0.00973 0.60773,-0.023022 0.60772,0 0.60772,0 0.60773,0 0.60772,0 0.60773,0 0.60772,0.018157 0.60772,-0.018157 0.60773,0 0.60772,0 0.60773,0.1215641 0.60772,0.054753 0.60772,-0.019144 0.60773,-0.082253 0.60772,-0.05909 0.60773,-0.01583 0.60772,0 0.60772,0.052673 0.60773,0.013151 0.60772,-0.051968 0.60773,0.018122 0.60772,0.00853 0.60772,-0.00356 0.60773,-0.036949 0.60772,0 0.60773,0 0.60772,0.095756 0.60772,0.021013 0.60773,0.053837 0.60772,0.00917 0.60773,-0.00458 0.60772,-0.060923 0.60772,-0.0042 0.60773,-0.060253 0.60772,-0.049817 0.60773,0 0.60772,0 0.60772,0 0.60773,0.043365 0.60772,0.034763 0.60773,-0.043824 0.60772,-0.01791 0.60772,0.046115 0.60773,-0.00952 0.60772,-0.05299 0.60773,0 0.60772,0 0.60772,0.042167 0.60773,0.00363 0.60772,-0.045798 0.60773,0.031449 0.60772,0.0074 0.60772,-0.038853 0.60773,0.00783 0.60772,-0.00783 0.60773,0 0.60772,0.044247 0.60772,-0.036949 0.60773,0.048407 0.60772,0.076647 0.60773,-0.060888 0.60772,-0.038747 0.60772,-0.032718 0.60773,0.1102468 0.60772,-0.028029 0.60773,0.012375 0.60772,-0.049077 0.60772,-0.045516 0.60773,0.011599 0.60772,-0.011599 0.60773,0.093042 0.60772,-0.046362 0.60772,-0.046679 0.60773,0.010824 0.60772,0.024574 0.60773,-0.035397 0.60772,0 0.60772,0.023305 0.60773,0.00783 0.60772,-0.031131 0.60773,0.034445 0.60772,-0.034445 0.60772,0 0.60773,0 0.60772,0 0.60773,0 0.60772,0 0.60772,0.072769 0.60773,-0.022317 0.60772,0.00444 0.60773,0.079891 0.60772,-0.1289679 0.60772,0.1471955 0.60773,-0.1019263 0.60772,-0.051086 0.60773,0"
                   vector-effect="non-scaling-stroke"
                   id="path74"
                   inkscape:connector-curvature="0" />
              </g>
            </g>
          </g>
        </g>
      </g>
    </g>
  </g>
  <g
     id="PlotItem_3"
     style="fill:none;stroke:#000000;stroke-width:1;stroke-linecap:square;stroke-linejoin:bevel"
     transform="translate(-25.079834,-75.572317)">
    <g
       id="AxisItem_2"
       style="fill:none;stroke:#000000;stroke-width:1;stroke-linecap:square;stroke-linejoin:bevel">
      <g
         font-size="11.875"
         font-style="normal"
         font-weight="400"
         id="g96"
         style="font-size:11.875px;font-style:normal;font-weight:400;fill:none;stroke:#969696;stroke-width:1;stroke-linecap:square;stroke-linejoin:bevel;stroke-opacity:1;font-family:Sans Serif">
        <polyline
           points="45.0,163.667 45.0,237.780566312"
           vector-effect="non-scaling-stroke"
           id="polyline98"
           style="fill:none" />
      </g>
      <g
         font-size="11.875"
         font-style="normal"
         font-weight="400"
         id="g100"
         style="font-size:11.875px;font-style:normal;font-weight:400;fill:none;stroke:#969696;stroke-width:1;stroke-linecap:square;stroke-linejoin:bevel;stroke-opacity:1;font-family:Sans Serif">
        <polyline
           points="45.5,200.723833688 50.5,200.723833688"
           vector-effect="non-scaling-stroke"
           id="polyline102"
           style="fill:none" />
      </g>
      <g
         font-size="11.875"
         font-style="normal"
         font-weight="400"
         id="g104"
         style="font-size:11.875px;font-style:normal;font-weight:400;fill:none;stroke:#969696;stroke-width:1;stroke-linecap:square;stroke-linejoin:bevel;stroke-opacity:0.49803904;font-family:Sans Serif">
        <polyline
           points="45.5,236.355361784 48.8333,236.355361784"
           vector-effect="non-scaling-stroke"
           id="polyline106"
           style="fill:none" />
        <polyline
           points="45.5,165.092265166 48.8333,165.092265166"
           vector-effect="non-scaling-stroke"
           id="polyline108"
           style="fill:none" />
      </g>
      <g
         font-size="11.875"
         font-style="normal"
         font-weight="400"
         id="g110"
         style="font-size:11.875px;font-style:normal;font-weight:400;fill:none;stroke:#969696;stroke-width:1;stroke-linecap:square;stroke-linejoin:bevel;stroke-opacity:0.33333297;font-family:Sans Serif">
        <polyline
           points="45.5,229.229035952 48.0,229.229035952"
           vector-effect="non-scaling-stroke"
           id="polyline112"
           style="fill:none" />
        <polyline
           points="45.5,222.10271012 48.0,222.10271012"
           vector-effect="non-scaling-stroke"
           id="polyline114"
           style="fill:none" />
        <polyline
           points="45.5,214.976384288 48.0,214.976384288"
           vector-effect="non-scaling-stroke"
           id="polyline116"
           style="fill:none" />
        <polyline
           points="45.5,207.850058456 48.0,207.850058456"
           vector-effect="non-scaling-stroke"
           id="polyline118"
           style="fill:none" />
        <polyline
           points="45.5,193.597507856 48.0,193.597507856"
           vector-effect="non-scaling-stroke"
           id="polyline120"
           style="fill:none" />
        <polyline
           points="45.5,186.471182024 48.0,186.471182024"
           vector-effect="non-scaling-stroke"
           id="polyline122"
           style="fill:none" />
        <polyline
           points="45.5,179.344856192 48.0,179.344856192"
           vector-effect="non-scaling-stroke"
           id="polyline124"
           style="fill:none" />
        <polyline
           points="45.5,172.218570786 48.0,172.218570786"
           vector-effect="non-scaling-stroke"
           id="polyline126"
           style="fill:none" />
      </g>
      <g
         font-size="11.875"
         font-style="normal"
         font-weight="400"
         transform="matrix(1,0,0,1.01064,5.5,163.667)"
         id="g128"
         style="font-size:11.875px;font-style:normal;font-weight:400;fill:none;stroke:#969696;stroke-width:1;stroke-linecap:square;stroke-linejoin:bevel;stroke-opacity:1;font-family:Sans Serif">
        <text
           font-size="11.875"
           font-style="normal"
           font-weight="400"
           x="31"
           xml:space="preserve"
           y="40.6562"
           id="text130"
           style="font-size:11.875px;font-style:normal;font-weight:400;fill:#969696;fill-opacity:1;stroke:none">0</text>
        <text
           font-size="11.875"
           font-style="normal"
           font-weight="400"
           x="19"
           xml:space="preserve"
           y="75.921898"
           id="text132"
           style="font-size:11.875px;font-style:normal;font-weight:400;fill:#969696;fill-opacity:1;stroke:none">-10</text>
        <text
           font-size="11.875"
           font-style="normal"
           font-weight="400"
           x="23"
           xml:space="preserve"
           y="5.4218798"
           id="text134"
           style="font-size:11.875px;font-style:normal;font-weight:400;fill:#969696;fill-opacity:1;stroke:none">10</text>
      </g>
    </g>
    <g
       id="ViewBox_3"
       style="fill:none;stroke:#000000;stroke-width:1;stroke-linecap:square;stroke-linejoin:bevel">
      <g
         font-size="11.875"
         font-style="normal"
         font-weight="400"
         id="g137"
         style="font-size:11.875px;font-style:normal;font-weight:400;fill:none;stroke:none;font-family:Sans Serif">
        <path
           d="m 45,163.667 616,0 0,73.3333 -616,0 0,-73.3333"
           vector-effect="non-scaling-stroke"
           id="path139"
           inkscape:connector-curvature="0" />
      </g>
      <clipPath
         id="ViewBox_3_clip">
        <path
           d="m 45,163.667 616,0 0,73.333 -616,0 0,-73.333"
           vector-effect="non-scaling-stroke"
           id="path142"
           inkscape:connector-curvature="0" />
      </clipPath>
      <g
         clip-path="url(#ViewBox_3_clip)"
         id="g144">
        <g
           id="ChildGroup_3"
           style="fill:none;stroke:#000000;stroke-width:1;stroke-linecap:square;stroke-linejoin:bevel">
          <g
             id="InfiniteLine_2"
             style="fill:none;stroke:#000000;stroke-width:1;stroke-linecap:square;stroke-linejoin:bevel">
            <g
               font-size="11.875"
               font-style="normal"
               font-weight="400"
               id="g148"
               style="font-size:11.875px;font-style:normal;font-weight:400;fill:none;stroke:#e6e6af;stroke-width:1;stroke-linecap:square;stroke-linejoin:bevel;stroke-opacity:1;font-family:Sans Serif">
              <polyline
                 points="661.00284908,200.333 44.9999465728,200.333"
                 vector-effect="non-scaling-stroke"
                 id="polyline150"
                 style="fill:none" />
            </g>
          </g>
          <g
             id="PlotDataItem_3">
            <g
               id="PlotCurveItem_3"
               style="fill:none;stroke:#000000;stroke-width:1;stroke-linecap:square;stroke-linejoin:bevel">
              <g
                 font-size="11.875"
                 font-style="normal"
                 font-weight="400"
                 id="g154"
                 style="font-size:11.875px;font-style:normal;font-weight:400;fill:none;stroke:#00ff00;stroke-width:1;stroke-linecap:square;stroke-linejoin:bevel;stroke-opacity:1;font-family:Sans Serif">
                <path
                   d="m 29.4743,200.31812 0.607724,0.0751 0.607724,-0.0126 0.607724,-0.007 0.607724,-0.0135 0.607724,-0.0786 0.607724,-0.0117 0.607724,-0.0332 0.607724,0.0342 0.607724,-0.0456 0.607724,-0.0269 0.607724,-0.01 0.607724,-0.059 0.607724,-0.0752 0.607724,-0.0422 0.607724,-0.0649 0.607724,-0.002 0.607724,0.0138 0.607724,-0.13225 0.607724,0.0216 0.607724,-0.11532 0.607724,-0.0615 0.607724,-0.006 0.607724,-0.0232 0.607724,-0.0199 0.607724,-0.12628 0.607724,0.0408 0.607724,-0.005 0.607724,-0.11169 0.607724,0.0141 0.607724,-0.0691 0.607724,0.0162 0.607724,0.0106 0.607724,0.0339 0.607724,0.0273 0.607724,0.0249 0.607724,-0.0541 0.607724,-0.14226 0.607724,-0.0787 0.607724,-0.0526 0.607724,-0.0623 0.607724,-0.0378 0.607724,-0.0294 0.607724,-0.0584 0.607724,-0.0719 0.607724,-0.12805 0.607724,-0.10964 0.607724,-0.14949 0.607724,-0.0631 0.607724,-0.009 0.607724,-0.0818 0.607724,-0.0437 0.607724,-10e-4 0.607724,-0.15083 0.607724,-0.01 0.607724,-0.0725 0.607724,-0.0562 0.607724,-0.0666 0.607724,-0.12611 0.607724,-0.0406 0.607724,-0.0873 0.607724,-0.0497 0.607724,-0.0661 0.607724,0.002 0.607724,-0.072 0.607724,-0.0677 0.607724,-0.0852 0.607724,-0.0179 0.607724,-0.064 0.607724,0.0206 0.607724,-0.0414 0.607724,-0.0631 0.607724,-0.10503 0.607724,-0.0282 0.607724,0.0182 0.607724,0.10563 0.607724,-0.14174 0.607724,-0.0865 0.607724,-0.15982 0.607724,-0.11049 0.607724,0.0178 0.607724,-0.0483 0.607724,-0.0458 0.607724,-0.14156 0.607724,-0.0466 0.607724,-0.13083 0.607724,0.005 0.607724,0.0209 0.607724,-0.0161 0.607724,-0.0608 0.607724,-0.0564 0.607724,-0.007 0.607724,-0.003 0.607724,-0.0543 0.607724,-0.10266 0.607724,-0.058 0.607724,-0.0398 0.607724,0.0553 0.607724,-0.0236 0.607724,-0.0848 0.607724,-0.0341 0.607724,0.003 0.607724,0.0116 0.607724,0.0121 0.607724,-0.14328 0.607724,-0.008 0.607724,0.0464 0.607724,-0.0283 0.607724,-0.0489 0.607724,-0.0534 0.607724,0.0619 0.607724,-0.0726 0.607724,-0.12167 0.607724,-0.0525 0.607724,0.0329 0.607724,0.0111 0.607724,0.002 0.607726,-0.0877 0.60772,-0.12279 0.60773,-0.0671 0.60772,-0.10789 0.60772,0.0276 0.60773,-0.0557 0.60772,0.10859 0.60773,-0.11991 0.60772,-0.0593 0.60772,0.0322 0.60773,-0.0412 0.60772,-0.04 0.60773,-0.075 0.60772,-0.0974 0.60772,-0.0621 0.60773,0.0447 0.60772,-0.0691 0.60773,0.0291 0.60772,-0.0458 0.60772,-0.009 0.60773,0.0323 0.60772,0.0218 0.60773,-0.15368 0.60772,0.0817 0.60772,-0.0354 0.60773,-0.011 0.60772,-0.0532 0.60773,0.0332 0.60772,-0.0825 0.60772,-0.0613 0.60773,0.0422 0.60772,-0.0767 0.60773,-0.0448 0.60772,-0.0302 0.60772,6e-4 0.60773,-9.5e-4 0.60772,-0.0983 0.60773,-0.11212 0.60772,-0.20258 0.60772,-0.0589 0.60773,-0.11494 0.60772,0.0108 0.60773,-0.008 0.60772,-0.004 0.60772,-0.0185 0.60773,-0.0175 0.60772,-0.0941 0.60773,-0.10228 0.60772,-0.0718 0.60772,-0.06 0.60773,0.0587 0.60772,-0.0756 0.60773,-0.11706 0.60772,-0.0779 0.60772,-0.0151 0.60773,-0.0412 0.60772,-0.0295 0.60773,-0.0863 0.60772,-0.0358 0.60772,0.0498 0.60773,-0.008 0.60772,-0.15978 0.60773,-0.10338 0.60772,-0.10996 0.60772,-0.006 0.60773,0.006 0.60772,-0.0267 0.60773,-0.0964 0.60772,-0.0275 0.60772,-0.10552 0.60773,-0.0981 0.60772,-0.11448 0.60773,0.0199 0.60772,0.0336 0.60772,-0.0365 0.60773,-0.0434 0.60772,0.0339 0.60773,-0.088 0.60772,-0.0623 0.60772,-0.0488 0.60773,0.0459 0.60772,-0.0985 0.60773,-0.0476 0.60772,-0.11921 0.60772,-0.13996 0.60773,-0.0191 0.60772,-0.0376 0.60773,-0.0932 0.60772,-0.0439 0.60772,-0.0461 0.60773,-0.0631 0.60772,7e-5 0.60773,-0.0367 0.60772,-0.14793 0.60772,-0.0489 0.60773,0.033 0.60772,-0.006 0.60773,0.0324 0.60772,-0.082 0.60772,-0.026 0.60773,0.0367 0.60772,-0.0133 0.60773,-0.0395 0.60772,0.053 0.60772,-0.0628 0.60773,0.1296 0.60772,-0.0333 0.60773,-0.0803 0.60772,-0.0242 0.60772,0.015 0.60773,-0.0301 0.60772,-0.006 0.60773,-0.0816 0.60772,0.0763 0.60772,-0.0326 0.60773,-0.0723 0.60772,0.028 0.60773,-0.0665 0.60772,-0.0618 0.60772,-0.0382 0.60773,2.5e-4 0.60772,-0.037 0.60773,-0.0326 0.60772,0.018 0.60772,0.0863 0.60773,-0.11293 0.60772,-0.0593 0.60773,-0.036 0.60772,-0.11533 0.60772,-0.0409 0.60773,-0.0194 0.60772,0.003 0.60773,-0.0637 0.60772,0.005 0.60772,-0.0382 0.60773,-0.0221 0.60772,-0.0503 0.60773,0.10807 0.60772,-0.0839 0.60772,-0.0864 0.60773,0.001 0.60772,-0.10295 0.60773,0.0204 0.60772,-0.0928 0.60772,0.0278 0.60773,0.0344 0.60772,-0.16626 0.60773,-0.004 0.60772,0.0655 0.60772,-0.0892 0.60773,-0.16892 0.60772,-0.0805 0.60773,-0.0809 0.60772,-0.14187 0.60772,-0.0236 0.60773,-0.13679 0.60772,-0.004 0.60773,-0.11022 0.60772,-0.0216 0.60772,-0.14417 0.60773,-0.0331 0.60772,-0.10926 0.60773,-0.0899 0.60772,-0.0649 0.60772,-0.0868 0.60773,-0.12456 0.60772,-0.0354 0.60773,-0.15316 0.60772,-0.16091 0.60772,-0.0493 0.60773,0.0284 0.60772,-0.0436 0.60773,-0.18027 0.60772,-0.0798 0.60772,-0.0444 0.60773,-0.0564 0.60772,-0.0957 0.60773,-0.15379 0.60772,-0.11726 0.60772,-0.15876 0.60773,-0.13359 0.60772,-0.12918 0.60773,-0.16069 0.60772,-0.10041 0.60772,-0.0432 0.60773,-0.0124 0.60772,0.001 0.60773,-0.0811 0.60772,-0.1852 0.60772,-0.12103 0.60773,-0.0748 0.60772,-0.0525 0.60773,-0.0827 0.60772,-0.14575 0.60772,-0.17906 0.60773,-0.15252 0.60772,-0.11043 0.60773,-0.0726 0.60772,-0.12922 0.60772,-0.13531 0.60773,-0.16892 0.60772,-0.0342 0.60773,-0.12354 0.60772,-0.1437 0.60772,0.004 0.60773,-0.0452 0.60772,-0.0581 0.60773,-0.20537 0.60772,-0.1283 0.60772,-0.14737 0.60773,-0.0389 0.60772,-0.11558 0.60773,-0.14754 0.60772,-0.13387 0.60772,-0.14677 0.60773,-0.13902 0.60772,-0.21859 0.60773,-0.16285 0.60772,-0.20903 0.60772,-0.0967 0.60773,-0.1437 0.60772,-0.15541 0.60773,-0.20283 0.60772,-0.0978 0.60772,-0.14723 0.60773,-0.21651 0.60772,-0.15661 0.60773,-0.20011 0.60772,-0.10151 0.60772,-0.14148 0.60773,-0.10736 0.60772,-0.11204 0.60773,-0.048 0.60772,-0.0623 0.60772,-0.15375 0.60773,-0.22081 0.60772,-0.12368 0.60773,-0.0826 0.60772,-0.15562 0.60772,0.0533 0.60773,-0.0274 0.60772,-0.0608 0.60773,-0.0504 0.60772,-0.14223 0.60772,0.0164 0.60773,-0.0961 0.60772,-0.0951 0.60773,-0.0445 0.60772,-0.0596 0.60772,-0.0113 0.60773,-0.0155 0.60772,-0.0304 0.60773,-0.0419 0.60772,4.9e-4 0.60772,0.003 0.60773,-0.0386 0.60772,0.007 0.60773,-0.0146 0.60772,-0.0438 0.60772,-0.0366 0.60773,-0.0578 0.60772,-0.0213 0.60773,0.0523 0.60772,0.0237 0.60772,-0.0552 0.60773,-0.004 0.60772,0.12308 0.60773,0.0899 0.60772,0.0118 0.60772,0.0417 0.60773,0.0256 0.60772,0.0633 0.60773,-0.0177 0.60772,0.0221 0.60772,0.0193 0.60773,-0.10073 0.60772,0.0343 0.60773,4.2e-4 0.60772,0.0171 0.60772,-0.0354 0.60773,-0.005 0.60772,-0.0264 0.60773,-0.005 0.60772,-0.0758 0.60772,0.0834 0.60773,-0.0389 0.60772,-0.0144 0.60773,0.0554 0.60772,-0.0711 0.60772,0.0514 0.60773,-0.0166 0.60772,0.0205 0.60773,0.11906 0.60772,0.0327 0.60772,0.18471 0.60773,0.0598 0.60772,0.0213 0.60773,0.0661 0.60772,0.0312 0.60772,-0.069 0.60773,-0.0774 0.60772,-0.0931 0.60773,-0.11318 0.60772,-0.0363 0.60772,-0.0326 0.60773,0.0762 0.60772,0.0354 0.60773,0.003 0.60772,0.0563 0.60772,0.0621 0.60773,0.0491 0.60772,0.008 0.60773,-0.005 0.60772,0.0885 0.60772,-0.0237 0.60773,0.0715 0.60772,0.10676 0.60773,-0.0184 0.60772,0.0136 0.60772,0.0376 0.60773,-0.0329 0.60772,-0.0535 0.60773,-0.11459 0.60772,0.0491 0.60772,0.0567 0.60773,-0.10073 0.60772,0.081 0.60773,-0.0131 0.60772,0.0822 0.60772,-0.002 0.60773,-0.0971 0.60772,0.0605 0.60773,-0.11448 0.60772,-0.01 0.60772,-0.0287 0.60773,0.0542 0.60772,-0.0865 0.60773,-0.0119 0.60772,0.0263 0.60772,0.0494 0.60773,-0.0202 0.60772,0.0516 0.60773,-0.0496 0.60772,-0.0955 0.60772,-0.0544 0.60773,0.14381 0.60772,-0.0377 0.60773,-0.0244 0.60772,0.006 0.60772,-0.016 0.60773,0.11892 0.60772,-0.0432 0.60773,-0.0826 0.60772,0.0291 0.60772,0.002 0.60773,0.002 0.60772,0.0634 0.60773,-0.11818 0.60772,0.003 0.60772,0.061 0.60773,0.0429 0.60772,-0.17487 0.60773,-0.0192 0.60772,-0.14095 0.60772,0.0121 0.60773,-0.0191 0.60772,0.0121 0.60773,0.0314 0.60772,-0.0946 0.60772,0.0284 0.60773,0.035 0.60772,0.004 0.60773,0.0221 0.60772,-0.0538 0.60772,-0.0294 0.60773,-0.0658 0.60772,-0.0332 0.60773,0.0384 0.60772,-0.0328 0.60772,0.008 0.60773,0.0329 0.60772,-0.0817 0.60773,-0.0254 0.60772,-0.02 0.60772,-0.0512 0.60773,0.0191 0.60772,0.0636 0.60773,-0.0677 0.60772,0.0252 0.60772,0.0269 0.60773,-0.004 0.60772,-0.0637 0.60773,-0.11204 0.60772,0.0511 0.60772,-0.0267 0.60773,-0.003 0.60772,0.0417 0.60773,-0.12206 0.60772,-0.0146 0.60772,0.0545 0.60773,0.0526 0.60772,-0.0704 0.60773,-0.0327 0.60772,-0.056 0.60772,-0.0561 0.60773,0.0506 0.60772,0.058 0.60773,-0.0598 0.60772,0.0514 0.60772,-0.0333 0.60773,-0.0857 0.60772,0.008 0.60773,0.0957 0.60772,0.0424 0.60772,-0.005 0.60773,-0.11568 0.60772,-0.0238 0.60773,-0.0113 0.60772,-0.0526 0.60772,-0.0364 0.60773,-0.0674 0.60772,0.0723 0.60773,-0.0149 0.60772,-0.0891 0.60772,0.007 0.60773,-0.0263 0.60772,0.004 0.60773,-0.008 0.60772,0.0693 0.60772,-0.0228 0.60773,-0.0512 0.60772,-0.035 0.60773,-0.003 0.60772,-0.14709 0.60772,-0.11892 0.60773,-0.004 0.60772,-0.0338 0.60773,0.0251 0.60772,-0.10274 0.60772,-0.0215 0.60773,0.0274 0.60772,0.0797 0.60773,-0.004 0.60772,-0.005 0.60772,-3.8e-4 0.60773,-0.10468 0.60772,-0.0412 0.60773,0.12925 0.60772,-0.18091 0.60772,-0.0613 0.60773,0.0388 0.60772,0.001 0.60773,0.01 0.60772,0.0639 0.60772,-0.0114 0.60773,-0.0122 0.60772,0.0422 0.60773,-0.004 0.60772,-0.0858 0.60772,-0.15163 0.60773,0.0428 0.60772,-0.0197 0.60773,-0.0545 0.60772,-0.0547 0.60772,0.0632 0.60773,-0.0862 0.60772,-0.0603 0.60773,-0.11109 0.60772,-0.0883 0.60772,-0.004 0.60773,-0.076 0.60772,0.0251 0.60773,-0.12258 0.60772,-0.0168 0.60772,0.10693 0.60773,-0.0579 0.60772,-0.0778 0.60773,-0.011 0.60772,0.0285 0.60772,0.0243 0.60773,-0.0356 0.60772,-0.0136 0.60773,-0.0392 0.60772,-0.0224 0.60772,0.0268 0.60773,0.0485 0.60772,-0.0367 0.60773,-7.1e-4 0.60772,-0.0343 0.60772,0.0196 0.60773,-0.007 0.60772,-0.12488 0.60773,-0.0531 0.60772,-0.0648 0.60772,-0.0493 0.60773,-0.0257 0.60772,0.0386 0.60773,-0.0335 0.60772,0.031 0.60772,0.0581 0.60773,0.0362 0.60772,-0.0966 0.60773,-0.0503 0.60772,-0.0851 0.60772,-0.0103 0.60773,0.0189 0.60772,0.0607 0.60773,0.0172 0.60772,-0.0244 0.60772,-0.0296 0.60773,-0.0903 0.60772,0.0628 0.60773,-0.0744 0.60772,-0.10056 0.60772,-0.0238 0.60773,0.004 0.60772,-0.0311 0.60773,-0.0388 0.60772,-0.0718 0.60772,0.0378 0.60773,-0.094 0.60772,-0.0908 0.60773,-0.0303 0.60772,-0.0407 0.60772,-0.0756 0.60773,0.008 0.60772,0.0333 0.60773,-0.11952 0.60772,-0.0214 0.60772,-0.0574 0.60773,-0.005 0.60772,-0.10415 0.60773,-0.0575 0.60772,-0.005 0.60772,0.0206 0.60773,0.0118 0.60772,-0.008 0.60773,0.0768 0.60772,-0.0181 0.60772,-0.003 0.60773,0.007 0.60772,-0.0822 0.60773,-0.0526 0.60772,-0.0656 0.60772,-0.1168 0.60773,-7.4e-4 0.60772,-0.0544 0.60773,1.7e-4 0.60772,0.01 0.60772,-0.13165 0.60773,-0.0628 0.60772,0.003 0.60773,-0.0543 0.60772,-0.10041 0.60772,-0.0781 0.60773,-0.12051 0.60772,0.0557 0.60773,-0.0312 0.60772,-0.0865 0.60772,-0.0926 0.60773,0.0461 0.60772,0.0552 0.60773,-0.0626 0.60772,0.0365 0.60772,0.006 0.60773,-0.0885 0.60772,-0.12629 0.60773,-0.053 0.60772,0.0322 0.60772,0.0112 0.60773,-0.002 0.60772,-0.0635 0.60773,0.0474 0.60772,-0.0825 0.60772,-0.11768 0.60773,0.029 0.60772,-0.004 0.60773,-0.0879 0.60772,0.0137 0.60772,-0.0635 0.60773,-0.0647 0.60772,-0.0646 0.60773,-0.0563 0.60772,0.003 0.60772,1.4e-4 0.60773,-0.0708 0.60772,-0.11282 0.60773,0.0617 0.60772,-0.0725 0.60772,0.0245 0.60773,0.0201 0.60772,0.009 0.60773,-0.0281 0.60772,0.0327 0.60772,-0.0396 0.60773,-0.0807 0.60772,-0.15241 0.60773,-0.005 0.60772,-0.0321 0.60772,-0.0683 0.60773,-0.0649 0.60772,-0.14106 0.60773,-0.0386 0.60772,-0.0261 0.60772,-0.12922 0.60773,0.0103 0.60772,0.007 0.60773,0.0506 0.60772,0.0399 0.60772,-0.0139 0.60773,-0.10316 0.60772,-0.0443 0.60773,-0.10538 0.60772,-0.0573 0.60772,-0.0921 0.60773,-0.10718 0.60772,-0.0265 0.60773,-0.0449 0.60772,0.0438 0.60772,-0.005 0.60773,-0.002 0.60772,-0.002 0.60773,-0.0699 0.60772,-0.0266 0.60772,0.0461 0.60773,-0.0958 0.60772,-0.0953 0.60773,-0.1149 0.60772,-0.0618 0.60772,-0.0691 0.60773,0.004 0.60772,-0.0686 0.60773,-0.11955 0.60772,0.0116 0.60772,-0.0117 0.60773,0.0147 0.60772,-0.10922 0.60773,-0.14561 0.60772,-0.0922 0.60772,-0.14247 0.60773,-0.12632 0.60772,-0.1032 0.60773,-0.0678 0.60772,0.0233 0.60772,-0.10383 0.60773,0.0373 0.60772,-0.091 0.60773,-0.0733 0.60772,0.0144 0.60772,-0.11402 0.60773,0.0463 0.60772,0.0276 0.60773,0.0245 0.60772,-0.0924 0.60772,-0.0393 0.60773,-0.21267 0.60772,0.0104 0.60773,-0.0963 0.60772,-0.0295 0.60772,0.0209 0.60773,-0.0926 0.60772,0.0279 0.60773,-0.0852 0.60772,-0.0886 0.60772,-0.0929 0.60773,0.0928 0.60772,-0.001 0.60773,-0.10031 0.60772,-0.009 0.60772,-0.0647 0.60773,-0.13253 0.60772,0.0381 0.60773,-0.0388 0.60772,0.0372 0.60772,-0.0696 0.60773,-0.0112 0.60772,-0.13229 0.60773,-0.0571 0.60772,0.0921 0.60772,0.0393 0.60773,-0.0656 0.60772,0.0323 0.60773,-0.053 0.60772,0.029 0.60772,-0.0597 0.60773,-0.0635 0.60772,0.0556 0.60773,0.0794 0.60772,-0.0933 0.60772,-0.0788 0.60773,0.0274 0.60772,0.0272 0.60773,-0.0194 0.60772,0.019 0.60772,-0.0362 0.60773,0.0529 0.60772,-0.0618 0.60773,-0.0724 0.60772,-0.10019 0.60772,-0.0991 0.60773,-0.0847 0.60772,0.0865 0.60773,0.0118 0.60772,-0.0285 0.60772,0.0668 0.60773,-0.0343 0.60772,-0.0179 0.60773,6e-4 0.60772,0.0459 0.60772,0.0925 0.60773,-0.0831 0.60772,-0.07 0.60773,-0.015 0.60772,0.0117 0.60772,-0.0755 0.60773,-0.0439 0.60772,-0.0122 0.60773,-0.0376 0.60772,-0.0702 0.60772,-0.0388 0.60773,0.0155 0.60772,-0.0333 0.60773,0.0841 0.60772,-0.15354 0.60772,-0.0232 0.60773,-0.0451 0.60772,-0.041 0.60773,-0.0928 0.60772,-0.0944 0.60772,0.043 0.60773,-0.0624 0.60772,-0.016 0.60773,-0.0663 0.60772,-0.0183 0.60772,-0.0766 0.60773,0.0519 0.60772,-0.0113 0.60773,-0.0108 0.60772,0.039 0.60772,-0.005 0.60773,0.0501 0.60772,-0.085 0.60773,0.01 0.60772,-0.1021 0.60772,0.0732 0.60773,-0.0585 0.60772,-0.0786 0.60773,0.0807 0.60772,-0.0243 0.60772,0.0396 0.60773,0.0229 0.60772,-0.0133 0.60773,-0.006 0.60772,0.0628 0.60772,-0.0559 0.60773,-0.13937 0.60772,-0.0871 0.60773,-0.0543 0.60772,-0.0534 0.60772,-0.11402 0.60773,-0.0502 0.60772,-0.002 0.60773,-0.0214 0.60772,0.0524 0.60772,-0.11808 0.60773,-0.0358 0.60772,0.0209 0.60773,-0.0241 0.60772,-0.0721 0.60772,-0.0641 0.60773,-0.0538 0.60772,-0.04 0.60773,0.0187 0.60772,0.0902 0.60772,-0.0758 0.60773,0.0322 0.60772,-0.11261 0.60773,0.0298 0.60772,-0.0629 0.60772,-0.0484 0.60773,-0.0715 0.60772,-0.0417 0.60773,-0.0573 0.60772,-0.0142 0.60772,-0.0513 0.60773,0.0247 0.60772,0.0767 0.60773,-0.0171 0.60772,-0.054 0.60772,-0.10809 0.60773,0.0877 0.60772,-0.0728 0.60773,-0.0158 0.60772,-0.0729 0.60772,-0.10764 0.60773,0.006 0.60772,0.0179 0.60773,0.0104 0.60772,-0.0975 0.60772,0.0563 0.60773,-0.0223 0.60772,0.0621 0.60773,-0.0789 0.60772,-0.0408 0.60772,-0.056 0.60773,-0.002 0.60772,0.0125 0.60773,0.0256 0.60772,0.087 0.60772,0.0335 0.60773,0.0982 0.60772,0.0253 0.60773,0.1027 0.60772,0.0233 0.60772,-0.0386 0.60773,0.0877 0.60772,-0.0491 0.60773,0.0384 0.60772,0.0124 0.60772,0.0817 0.60773,-0.11123 0.60772,-0.0781 0.60773,-0.11684 0.60772,-0.13638 0.60772,0.0341 0.60773,0.003 0.60772,0.0453 0.60773,-0.0416 0.60772,0.0367 0.60772,0.0832 0.60773,-0.005 0.60772,-0.1509 0.60773,0.0341 0.60772,-0.0307 0.60772,-0.0406 0.60773,-0.007 0.60772,0.0196 0.60773,0.0129 0.60772,-0.002 0.60772,-0.0867 0.60773,0.0476 0.60772,-0.0346 0.60773,0.0527 0.60772,0.0842 0.60772,-0.0499 0.60773,0.0634 0.60772,0.0513 0.60773,-0.0992 0.60772,-0.0543 0.60772,-0.004 0.60773,0.0804 0.60772,-0.0519 0.60773,-0.0277 0.60772,-0.007 0.60772,-0.02 0.60773,-0.0936 0.60772,0.028 0.60773,0.0208 0.60772,-0.0253 0.60772,-0.0787 0.60773,-0.0373 0.60772,0.0875 0.60773,0.007 0.60772,-0.0578 0.60772,0.12446 0.60773,-0.005 0.60772,-0.0571 0.60773,-0.0642 0.60772,-0.0166 0.60772,-0.0713 0.60773,0.0349 0.60772,0.0271 0.60773,-0.0207 0.60772,-0.0539 0.60772,0.0893 0.60773,-0.0956 0.60772,-0.07 0.60773,-0.0101 0.60772,0.0473 0.60772,0.081 0.60773,-0.0368 0.60772,-0.0559 0.60773,0.0489"
                   vector-effect="non-scaling-stroke"
                   id="path156"
                   inkscape:connector-curvature="0" />
              </g>
            </g>
          </g>
        </g>
      </g>
    </g>
  </g>
  <g
     id="PlotItem_5"
     style="fill:none;stroke:#000000;stroke-width:1;stroke-linecap:square;stroke-linejoin:bevel"
     transform="translate(-25.079834,-141.57232)">
    <g
       id="AxisItem_3"
       style="fill:none;stroke:#000000;stroke-width:1;stroke-linecap:square;stroke-linejoin:bevel">
      <g
         font-size="11.875"
         font-style="normal"
         font-weight="400"
         id="g178"
         style="font-size:11.875px;font-style:normal;font-weight:400;fill:none;stroke:#969696;stroke-width:1;stroke-linecap:square;stroke-linejoin:bevel;stroke-opacity:1;font-family:Sans Serif">
        <polyline
           points="45.0,322.333 45.0,396.446566312"
           vector-effect="non-scaling-stroke"
           id="polyline180"
           style="fill:none" />
      </g>
      <g
         font-size="11.875"
         font-style="normal"
         font-weight="400"
         id="g182"
         style="font-size:11.875px;font-style:normal;font-weight:400;fill:none;stroke:#969696;stroke-width:1;stroke-linecap:square;stroke-linejoin:bevel;stroke-opacity:1;font-family:Sans Serif">
        <polyline
           points="45.5,359.389833688 50.5,359.389833688"
           vector-effect="non-scaling-stroke"
           id="polyline184"
           style="fill:none" />
      </g>
      <g
         font-size="11.875"
         font-style="normal"
         font-weight="400"
         id="g186"
         style="font-size:11.875px;font-style:normal;font-weight:400;fill:none;stroke:#969696;stroke-width:1;stroke-linecap:square;stroke-linejoin:bevel;stroke-opacity:0.49803904;font-family:Sans Serif">
        <polyline
           points="45.5,395.021361784 48.8333,395.021361784"
           vector-effect="non-scaling-stroke"
           id="polyline188"
           style="fill:none" />
        <polyline
           points="45.5,323.758265166 48.8333,323.758265166"
           vector-effect="non-scaling-stroke"
           id="polyline190"
           style="fill:none" />
      </g>
      <g
         font-size="11.875"
         font-style="normal"
         font-weight="400"
         id="g192"
         style="font-size:11.875px;font-style:normal;font-weight:400;fill:none;stroke:#969696;stroke-width:1;stroke-linecap:square;stroke-linejoin:bevel;stroke-opacity:0.33333297;font-family:Sans Serif">
        <polyline
           points="45.5,387.895035952 48.0,387.895035952"
           vector-effect="non-scaling-stroke"
           id="polyline194"
           style="fill:none" />
        <polyline
           points="45.5,380.76871012 48.0,380.76871012"
           vector-effect="non-scaling-stroke"
           id="polyline196"
           style="fill:none" />
        <polyline
           points="45.5,373.642384288 48.0,373.642384288"
           vector-effect="non-scaling-stroke"
           id="polyline198"
           style="fill:none" />
        <polyline
           points="45.5,366.516058456 48.0,366.516058456"
           vector-effect="non-scaling-stroke"
           id="polyline200"
           style="fill:none" />
        <polyline
           points="45.5,352.263507856 48.0,352.263507856"
           vector-effect="non-scaling-stroke"
           id="polyline202"
           style="fill:none" />
        <polyline
           points="45.5,345.137182024 48.0,345.137182024"
           vector-effect="non-scaling-stroke"
           id="polyline204"
           style="fill:none" />
        <polyline
           points="45.5,338.010856192 48.0,338.010856192"
           vector-effect="non-scaling-stroke"
           id="polyline206"
           style="fill:none" />
        <polyline
           points="45.5,330.884570786 48.0,330.884570786"
           vector-effect="non-scaling-stroke"
           id="polyline208"
           style="fill:none" />
      </g>
      <g
         font-size="11.875"
         font-style="normal"
         font-weight="400"
         transform="matrix(1,0,0,1.01064,5.5,322.333)"
         id="g210"
         style="font-size:11.875px;font-style:normal;font-weight:400;fill:none;stroke:#969696;stroke-width:1;stroke-linecap:square;stroke-linejoin:bevel;stroke-opacity:1;font-family:Sans Serif">
        <text
           font-size="11.875"
           font-style="normal"
           font-weight="400"
           x="31"
           xml:space="preserve"
           y="40.6562"
           id="text212"
           style="font-size:11.875px;font-style:normal;font-weight:400;fill:#969696;fill-opacity:1;stroke:none">0</text>
        <text
           font-size="11.875"
           font-style="normal"
           font-weight="400"
           x="19"
           xml:space="preserve"
           y="75.921898"
           id="text214"
           style="font-size:11.875px;font-style:normal;font-weight:400;fill:#969696;fill-opacity:1;stroke:none">-10</text>
        <text
           font-size="11.875"
           font-style="normal"
           font-weight="400"
           x="23"
           xml:space="preserve"
           y="5.4218798"
           id="text216"
           style="font-size:11.875px;font-style:normal;font-weight:400;fill:#969696;fill-opacity:1;stroke:none">10</text>
      </g>
    </g>
    <g
       id="ViewBox_5"
       style="fill:none;stroke:#000000;stroke-width:1;stroke-linecap:square;stroke-linejoin:bevel">
      <g
         font-size="11.875"
         font-style="normal"
         font-weight="400"
         id="g219"
         style="font-size:11.875px;font-style:normal;font-weight:400;fill:none;stroke:none;font-family:Sans Serif">
        <path
           d="m 45,322.333 616,0 0,73.3333 -616,0 0,-73.3333"
           vector-effect="non-scaling-stroke"
           id="path221"
           inkscape:connector-curvature="0" />
      </g>
      <clipPath
         id="ViewBox_5_clip">
        <path
           d="m 45,322.333 616,0 0,73.334 -616,0 0,-73.334"
           vector-effect="non-scaling-stroke"
           id="path224"
           inkscape:connector-curvature="0" />
      </clipPath>
      <g
         clip-path="url(#ViewBox_5_clip)"
         id="g226">
        <g
           id="ChildGroup_5"
           style="fill:none;stroke:#000000;stroke-width:1;stroke-linecap:square;stroke-linejoin:bevel">
          <g
             id="InfiniteLine_3"
             style="fill:none;stroke:#000000;stroke-width:1;stroke-linecap:square;stroke-linejoin:bevel">
            <g
               font-size="11.875"
               font-style="normal"
               font-weight="400"
               id="g230"
               style="font-size:11.875px;font-style:normal;font-weight:400;fill:none;stroke:#e6e6af;stroke-width:1;stroke-linecap:square;stroke-linejoin:bevel;stroke-opacity:1;font-family:Sans Serif">
              <polyline
                 points="661.00284908,359.0 44.9999465728,359.0"
                 vector-effect="non-scaling-stroke"
                 id="polyline232"
                 style="fill:none" />
            </g>
          </g>
          <g
             id="PlotDataItem_5">
            <g
               id="PlotCurveItem_5"
               style="fill:none;stroke:#000000;stroke-width:1;stroke-linecap:square;stroke-linejoin:bevel">
              <g
                 font-size="11.875"
                 font-style="normal"
                 font-weight="400"
                 id="g236"
                 style="font-size:11.875px;font-style:normal;font-weight:400;fill:none;stroke:#0000ff;stroke-width:1;stroke-linecap:square;stroke-linejoin:bevel;stroke-opacity:1;font-family:Sans Serif">
                <path
                   d="m 29.4743,352.54808 0.607724,-1.48077 0.607724,0.74038 0.607724,0.0705 0.607724,3.03208 0.607724,-3.52567 0.607724,0.84615 0.607724,0.0705 0.607724,0.88141 0.607724,-2.64423 0.607724,1.1635 0.607724,-0.84619 0.607724,1.51603 0.607724,2.22115 0.607724,-4.05449 0.607724,-0.3173 0.607724,1.44551 0.607724,-1.55128 0.607724,-0.21154 0.607724,0.74038 0.607724,0.98718 0.607724,0.17628 0.607724,-0.63461 0.607724,-0.31731 0.607724,-0.5641 0.607724,1.41029 0.607724,-0.38786 0.607724,0.0353 0.607724,-0.31727 0.607724,2.25637 0.607724,-1.90384 0.607724,-0.88141 0.607724,2.11538 0.607724,-0.84612 0.607724,-0.3526 0.607724,0.3526 0.607724,-0.74038 0.607724,-2.50324 0.607724,2.57372 0.607724,0.28205 0.607724,-0.91667 0.607724,-0.38778 0.607724,2.22111 0.607724,0.31731 0.607724,-1.83333 0.607724,0.21154 0.607724,0.66987 0.607724,-0.21154 0.607724,2.29167 0.607724,-2.46795 0.607724,0.0353 0.607724,0.74039 0.607724,0.21154 0.607724,-0.0705 0.607724,-0.42304 0.607724,0.63458 0.607724,-3.94871 0.607724,2.00961 0.607724,1.23401 0.607724,-0.8109 0.607724,-1.90388 0.607724,2.71478 0.607724,-0.95196 0.607724,1.69231 0.607724,-2.36214 0.607724,-4e-5 0.607724,0.0353 0.607724,1.58657 0.607724,-0.31734 0.607724,0.14102 0.607724,0.95193 0.607724,-1.76282 0.607724,2.36217 0.607724,-2.25637 0.607724,1.48073 0.607724,-0.88141 0.607724,2.46795 0.607724,-2.75 0.607724,2.78526 0.607724,-0.95192 0.607724,-0.10577 0.607724,-2.36218 0.607724,0.0705 0.607724,0.45837 0.607724,1.0224 0.607724,-1.12821 0.607724,-0.74038 0.607724,2.25641 0.607724,-0.59932 0.607724,-0.70517 0.607724,-0.17624 0.607724,0.38778 0.607724,0.56414 0.607724,-0.98722 0.607724,-0.84611 0.607724,-0.3526 0.607724,2.32692 0.607724,0.24679 0.607724,-1.30448 0.607724,-2.11539 0.607724,1.79808 0.607724,-0.38782 0.607724,3.41987 0.607724,-1.90385 0.607724,-1.09294 0.607724,2.32692 0.607724,0.35256 0.607724,-1.51602 0.607724,-0.52885 0.607724,0.49363 0.607724,0.10573 0.607724,-1.72756 0.607724,1.33974 0.607724,-0.8109 0.607724,3.59616 0.607724,-3.31407 0.607724,-1.62183 0.607726,0.59939 0.60772,0.91663 0.60773,-0.49359 0.60772,-0.14102 0.60772,1.02243 0.60773,1.375 0.60772,-2.18589 0.60773,0.35256 0.60772,1.23398 0.60772,0.88141 0.60773,-1.05766 0.60772,-1.1635 0.60773,1.72757 0.60772,-3.8077 0.60772,1.83334 0.60773,1.62179 0.60772,-2.82051 0.60773,0.42308 0.60772,2.85577 0.60772,-1.55125 0.60773,1.90381 0.60772,-2.04484 0.60773,1.93907 0.60772,0.14103 0.60772,-0.45834 0.60773,-2.71474 0.60772,1.41026 0.60773,-2.22116 0.60772,2.53846 0.60772,-2.67948 0.60773,0.45833 0.60772,2.5032 0.60773,-1.30448 0.60772,1.375 0.60772,-1.26923 0.60773,2.46794 0.60772,-2.15064 0.60773,1.12821 0.60772,-0.0353 0.60772,1.90385 0.60773,-1.9391 0.60772,0.88141 0.60773,-1.90381 0.60772,1.0224 0.60772,-0.31731 0.60773,1.1282 0.60772,-2.11538 0.60773,1.55128 0.60772,-0.70513 0.60772,-0.24679 0.60773,-1.9391 0.60772,2.43272 0.60773,-1.90388 0.60772,1.26923 0.60772,0.2468 0.60773,-1.90385 0.60772,-0.0705 0.60773,4.30128 0.60772,-3.91346 0.60772,1.69231 0.60773,1.44551 0.60772,-3.77244 0.60773,1.09295 0.60772,2.32693 0.60772,-2.39744 0.60773,1.30449 0.60772,-1.33971 0.60773,-0.95196 0.60772,3.98397 0.60772,-1.76282 0.60773,-0.95192 0.60772,2.04487 0.60773,-0.81086 0.60772,1.5865 0.60772,-2.32688 0.60773,2.1506 0.60772,-1.86859 0.60773,-0.2115 0.60772,0.74038 0.60772,-1.23401 0.60773,0.28209 0.60772,-0.77568 0.60773,3.5609 0.60772,-1.33974 0.60772,-1.69231 0.60773,1.76282 0.60772,-1.48077 0.60773,-2.43269 0.60772,2.99679 0.60772,2.67949 0.60773,-3.84295 0.60772,-0.17624 0.60773,2.18586 0.60772,-1.76282 0.60772,1.33978 0.60773,1.12817 0.60772,-1.19869 0.60773,1.79804 0.60772,0.66988 0.60772,-1.33975 0.60773,-0.52884 0.60772,-1.16346 0.60773,0.74038 0.60772,0.59936 0.60772,-0.88141 0.60773,0.35256 0.60772,0.28205 0.60773,-0.91666 0.60772,0.66987 0.60772,2.46795 0.60773,-2.43269 0.60772,0.66987 0.60773,-2.50321 0.60772,1.58658 0.60772,-0.24683 0.60773,0.21153 0.60772,-2.39743 0.60773,2.67949 0.60772,2.15064 0.60772,-4.44231 0.60773,0.21157 0.60772,1.30445 0.60773,-0.63461 0.60772,-0.0353 0.60772,1.79808 0.60773,-0.84615 0.60772,0.0705 0.60773,-0.28205 0.60772,-0.56407 0.60772,0.21154 0.60773,1.33971 0.60772,-1.12821 0.60773,0.49359 0.60772,-2.29166 0.60772,2.5032 0.60773,-1.79804 0.60772,1.12817 0.60773,1.30449 0.60772,-0.81087 0.60772,-0.38785 0.60773,0.74038 0.60772,-2.64423 0.60773,-0.0353 0.60772,1.86858 0.60772,0.2468 0.60773,-1.12821 0.60772,-4.30128 0.60773,4.51282 0.60772,-2.22115 0.60772,1.90385 0.60773,-0.52885 0.60772,-0.42308 0.60773,0.31731 0.60772,-1.41026 0.60772,-1.6923 0.60773,3.10256 0.60772,-3.24359 0.60773,5.32375 0.60772,-3.49042 0.60772,-0.17628 0.60773,0.31731 0.60772,-0.10577 0.60773,0.59936 0.60772,-0.45833 0.60772,1.69234 0.60773,-0.49363 0.60772,-0.91666 0.60773,1.44551 0.60772,-1.62179 0.60772,-0.8109 0.60773,-1.51603 0.60772,-0.38782 0.60773,1.58654 0.60772,0.66987 0.60772,0.21154 0.60773,-1.51602 0.60772,0.35256 0.60773,-0.14103 0.60772,1.30449 0.60772,-0.35256 0.60773,-1.6218 0.60772,-1.72756 0.60773,1.19872 0.60772,0 0.60772,-2.04487 0.60773,2.46794 0.60772,-1.23397 0.60773,-3.06731 0.60772,4.61859 0.60772,-2.1506 0.60773,0.28205 0.60772,-0.38786 0.60773,-2.82051 0.60772,4.47756 0.60772,-2.71474 0.60773,0.0353 0.60772,0.14102 0.60773,-1.58654 0.60772,2.46795 0.60772,-1.26923 0.60773,-3.13782 0.60772,3.24359 0.60773,-1.19872 0.60772,-0.10577 0.60772,-2.04487 0.60773,0.42308 0.60772,1.26923 0.60773,-0.95192 0.60772,0.91666 0.60772,-0.88141 0.60773,0.14103 0.60772,-1.86859 0.60773,0.35256 0.60772,-0.81089 0.60772,0.5641 0.60773,0.28205 0.60772,0 0.60773,-0.70513 0.60772,-0.38782 0.60772,0.66987 0.60773,0.0705 0.60772,0.63461 0.60773,-2.43269 0.60772,0.91667 0.60772,0.70512 0.60773,2.00962 0.60772,0.84615 0.60773,-0.63461 0.60772,0.14102 0.60772,1.79808 0.60773,1.02243 0.60772,2.1859 0.60773,-0.59936 0.60772,1.65705 0.60772,4.79491 0.60773,5.53522 0.60772,0.95192 0.60773,-2.57372 0.60772,1.79808 0.60772,3.52564 0.60773,-1.72756 0.60772,-1.86859 0.60773,3.84295 0.60772,-3.73718 0.60772,0.49359 0.60773,0.74038 0.60772,-2.5032 0.60773,-2.04487 0.60772,4.93589 0.60772,-0.28205 0.60773,2.32692 0.60772,-2.25641 0.60773,-0.95192 0.60772,0.45833 0.60772,3.41987 0.60773,-5.42948 0.60772,2.1859 0.60773,4.30128 0.60772,-3.41987 0.60772,-1.83334 0.60773,1.65705 0.60772,-1.55128 0.60773,-1.09295 0.60772,1.1635 0.60772,-2.11542 0.60773,3.52564 0.60772,-0.28205 0.60773,-0.98718 0.60772,-0.70513 0.60772,2.46795 0.60773,-0.74038 0.60772,-2.78526 0.60773,1.1282 0.60772,-1.79807 0.60772,4.90064 0.60773,1.58654 0.60772,-0.56411 0.60773,-2.92628 0.60772,-3.0673 0.60772,4.08974 0.60773,0.0353 0.60772,-0.52884 0.60773,3.94872 0.60772,-3.66664 0.60772,-1.30452 0.60773,0.66987 0.60772,-3.13782 0.60773,3.94872 0.60772,-2.39743 0.60772,4.05448 0.60773,-3.0673 0.60772,3.41987 0.60773,-4.54808 0.60772,3.63141 0.60772,-2.67949 0.60773,-1.44551 0.60772,-1.69227 0.60773,6.31086 0.60772,-1.44551 0.60772,-0.28205 0.60773,1.48076 0.60772,-6.16987 0.60773,6.34616 0.60772,-2.43269 0.60772,0.42307 0.60773,2.89103 0.60772,-0.63462 0.60773,-4.19551 0.60772,-0.63462 0.60772,1.16347 0.60773,-2.39744 0.60772,2.36218 0.60773,2.1859 0.60772,-3.49039 0.60772,2.46795 0.60773,1.05769 0.60772,0.45834 0.60773,-2.29167 0.60772,-1.44551 0.60772,4.6891 0.60773,-2.11535 0.60772,-0.70516 0.60773,1.16346 0.60772,-0.49359 0.60772,-0.2468 0.60773,-1.97432 0.60772,2.22112 0.60773,0.42308 0.60772,1.48076 0.60772,-1.05769 0.60773,0.17628 0.60772,-2.29166 0.60773,3.49038 0.60772,-3.63141 0.60772,4.05449 0.60773,-5.95833 0.60772,0.42307 0.60773,4.08975 0.60772,-0.14103 0.60772,-3.41987 0.60773,-1.93907 0.60772,3.66663 0.60773,-1.05769 0.60772,1.83333 0.60772,2.04488 0.60773,1.23397 0.60772,-6.52243 0.60773,5.95833 0.60772,-4.65385 0.60772,2.96154 0.60773,-0.35256 0.60772,-0.10577 0.60773,0.5641 0.60772,-3.20833 0.60772,2.53846 0.60773,-0.56407 0.60772,-1.4808 0.60773,2.57371 0.60772,-0.95192 0.60772,-1.76282 0.60773,2.92628 0.60772,-4.75961 0.60773,3.56089 0.60772,-0.3173 0.60772,0.21157 0.60773,-0.0353 0.60772,-1.19872 0.60773,1.90385 0.60772,0.81089 0.60772,-2.5032 0.60773,3.10256 0.60772,-4.75961 0.60773,2.00961 0.60772,-0.38782 0.60772,3.45513 0.60773,-3.3141 0.60772,1.09295 0.60773,2.15064 0.60772,-2.39744 0.60772,0 0.60773,2.60898 0.60772,-4.86539 0.60773,1.26923 0.60772,4.3718 0.60772,-3.27885 0.60773,1.26923 0.60772,-1.1282 0.60773,1.33974 0.60772,-3.10256 0.60772,0.63461 0.60773,1.05769 0.60772,1.33975 0.60773,-1.69231 0.60772,2.32692 0.60772,-0.52884 0.60773,0.52884 0.60772,-2.11538 0.60773,-0.14103 0.60772,4.33654 0.60772,-5.11218 0.60773,1.48077 0.60772,-0.35256 0.60773,1.09295 0.60772,-4.26603 0.60772,2.43269 0.60773,1.58654 0.60772,-6.0641 0.60773,3.27884 0.60772,2.89103 0.60772,0.70513 0.60773,-0.52885 0.60772,1.12821 0.60773,-3.06731 0.60772,-2.15064 0.60772,1.83333 0.60773,-0.28205 0.60772,2.04487 0.60773,-1.90384 0.60772,-0.14103 0.60772,2.57372 0.60773,-3.63138 0.60772,-2.75003 0.60773,3.63141 0.60772,-0.42308 0.60772,2.96154 0.60773,0.98718 0.60772,-2.60897 0.60773,1.76282 0.60772,-2.50321 0.60772,2.67949 0.60773,-1.86859 0.60772,0.63461 0.60773,-0.17628 0.60772,-4.72436 0.60772,5.11218 0.60773,0.52885 0.60772,0.66987 0.60773,2.57372 0.60772,-4.44231 0.60772,0.74038 0.60773,0.0353 0.60772,-1.51602 0.60773,2.11538 0.60772,-2.78526 0.60772,2.29167 0.60773,-0.14103 0.60772,-3.34935 0.60773,0.0353 0.60772,1.23398 0.60772,0.59936 0.60773,-3.20834 0.60772,4.47757 0.60773,-0.88141 0.60772,2.08012 0.60772,-1.97435 0.60773,2.36217 0.60772,-0.77564 0.60773,0.56411 0.60772,0.45833 0.60772,-6.55769 0.60773,3.20833 0.60772,-1.05766 0.60773,1.93907 0.60772,0.28205 0.60772,5.32372 0.60773,-5.99359 0.60772,2.04487 0.60773,-0.35256 0.60772,0.66987 0.60772,-1.37497 0.60773,-1.79811 0.60772,0.66987 0.60773,-1.02243 0.60772,-0.77564 0.60772,2.85577 0.60773,0.49359 0.60772,-1.90385 0.60773,0.70513 0.60772,-0.0705 0.60772,2.57371 0.60773,-2.46794 0.60772,-2.25641 0.60773,3.91346 0.60772,-3.27885 0.60772,3.59615 0.60773,-1.16346 0.60772,-0.28205 0.60773,-1.79808 0.60772,0.74039 0.60772,3.03205 0.60773,-2.92628 0.60772,4.37179 0.60773,-6.24038 0.60772,1.83333 0.60772,-2.53846 0.60773,1.30449 0.60772,0.84615 0.60773,2.32692 0.60772,1.12821 0.60772,-0.91667 0.60773,-0.84615 0.60772,-2.71474 0.60773,0.0705 0.60772,3.59612 0.60772,-1.41025 0.60773,1.72756 0.60772,-1.69231 0.60773,1.26923 0.60772,-0.91666 0.60772,-2.25641 0.60773,-0.52885 0.60772,4.61859 0.60773,-0.77564 0.60772,-1.86859 0.60772,0.5641 0.60773,0.0353 0.60772,-4.08974 0.60773,3.52564 0.60772,3.94871 0.60772,-1.41025 0.60773,-3.10257 0.60772,4.44231 0.60773,-6.02885 0.60772,2.15065 0.60772,0.70512 0.60773,-0.77564 0.60772,0.49359 0.60773,-1.02243 0.60772,2.29166 0.60772,-0.74038 0.60773,-1.90385 0.60772,0.52885 0.60773,2.25641 0.60772,-2.08013 0.60772,0.70513 0.60773,0.49359 0.60772,-2.9968 0.60773,-0.0705 0.60772,3.63141 0.60772,-1.62179 0.60773,0.14102 0.60772,1.16346 0.60773,0.63462 0.60772,0.52884 0.60772,-0.24679 0.60773,-1.48077 0.60772,0.59939 0.60773,-0.45836 0.60772,1.72756 0.60772,-2.29167 0.60773,0.17629 0.60772,2.00961 0.60773,-5.2532 0.60772,2.11538 0.60772,3.20833 0.60773,-2.18589 0.60772,1.48077 0.60773,0.77564 0.60772,-3.24359 0.60772,-0.0705 0.60773,-4e-5 0.60772,2.36218 0.60773,-0.63461 0.60772,0.8109 0.60772,-1.65706 0.60773,3.38462 0.60772,-5.32372 0.60773,1.09295 0.60772,-1.30449 0.60772,0.91667 0.60773,2.39744 0.60772,-4.19552 0.60773,0.38782 0.60772,3.10257 0.60772,1.16346 0.60773,-2.22115 0.60772,2.29166 0.60773,0.28205 0.60772,-0.5641 0.60772,-2.57372 0.60773,-1.44551 0.60772,-0.49359 0.60773,4.01923 0.60772,-1.83333 0.60772,2.22115 0.60773,-2.71474 0.60772,1.16346 0.60773,-2.53846 0.60772,2.67949 0.60772,-2.9968 0.60773,0.42308 0.60772,2.04487 0.60773,3.34936 0.60772,-5.81731 0.60772,3.5609 0.60773,-0.21154 0.60772,-2.36218 0.60773,2.43269 0.60772,3.06731 0.60772,-3.59615 0.60773,1.16346 0.60772,-5.53526 0.60773,4.23077 0.60772,-1.55125 0.60772,4.12497 0.60773,-2.92628 0.60772,3.84294 0.60773,-3.91346 0.60772,1.0577 0.60772,2.22115 0.60773,-1.44551 0.60772,-1.48077 0.60773,0.24679 0.60772,-3.56089 0.60772,3.0673 0.60773,0.31731 0.60772,4.54808 0.60773,-2.4327 0.60772,-3.24358 0.60772,2.46794 0.60773,0.28205 0.60772,0.17629 0.60773,-2.82052 0.60772,0.95193 0.60772,2.46795 0.60773,-0.0705 0.60772,-4.16025 0.60773,2.39743 0.60772,0.42311 0.60772,-0.95195 0.60773,1.9391 0.60772,-4.61859 0.60773,5.07696 0.60772,-0.0353 0.60772,-2.96154 0.60773,2.89102 0.60772,-5.53525 0.60773,4.01923 0.60772,0.10577 0.60772,0.45833 0.60773,-0.45833 0.60772,0.0352 0.60773,0.42308 0.60772,0.42308 0.60772,0.3173 0.60773,-3.84294 0.60772,4.08974 0.60773,0.38782 0.60772,-3.8782 0.60772,1.62179 0.60773,0.8109 0.60772,-1.72757 0.60773,1.79808 0.60772,-2.22115 0.60772,2.08012 0.60773,0 0.60772,0.70513 0.60773,2.1859 0.60772,-3.94872 0.60772,0.63462 0.60773,3.49038 0.60772,0.49359 0.60773,-2.46795 0.60772,-3.3141 0.60772,-0.38782 0.60773,0.91667 0.60772,0.95192 0.60773,1.65705 0.60772,-2.85577 0.60772,1.19872 0.60773,-0.10577 0.60772,-0.31731 0.60773,-0.63461 0.60772,-0.42308 0.60772,-0.56407 0.60773,2.50317 0.60772,-1.33974 0.60773,-2.60897 0.60772,4.30128 0.60772,-3.84295 0.60773,2.78526 0.60772,0.66987 0.60773,0.81089 0.60772,0.98718 0.60772,0.74039 0.60773,-3.24359 0.60772,2.25644 0.60773,-0.45836 0.60772,-3.38462 0.60772,3.45513 0.60773,0.17628 0.60772,-2.08013 0.60773,1.65705 0.60772,-2.29166 0.60772,0.74038 0.60773,1.72757 0.60772,-0.66988 0.60773,-1.44551 0.60772,-3.52564 0.60772,5.74679 0.60773,-0.81089 0.60772,-1.8333 0.60773,5.42945 0.60772,-4.01923 0.60772,-0.28205 0.60773,0.66987 0.60772,-0.8109 0.60773,2.71475 0.60772,-3.52564 0.60772,4.97115 0.60773,-3.17308 0.60772,1.44552 0.60773,-2.92629 0.60772,3.59616 0.60772,-3.84295 0.60773,-0.5641 0.60772,2.46794 0.60773,-0.28205 0.60772,-0.35253 0.60772,-0.31734 0.60773,1.83333 0.60772,-0.5641 0.60773,-1.9391 0.60772,-0.10577 0.60772,0.28205 0.60773,2.89103 0.60772,-6.41667 0.60773,4.79487 0.60772,-2.82051 0.60772,1.19872 0.60773,1.76282 0.60772,-1.02244 0.60773,1.72757 0.60772,-1.65705 0.60772,0.66987 0.60773,-0.70513 0.60772,1.02243 0.60773,-0.88137 0.60772,-0.95196 0.60772,1.16346 0.60773,0.95193 0.60772,-0.74039 0.60773,-2.32692 0.60772,4.86538 0.60772,-4.30128 0.60773,1.26923 0.60772,-1.1282 0.60773,0.28205 0.60772,1.19872 0.60772,0.49359 0.60773,-3.27885 0.60772,3.49038 0.60773,-2.57371 0.60772,0.31734 0.60772,-1.02244 0.60773,2.46792 0.60772,-1.12821 0.60773,-1.44551 0.60772,3.66667 0.60772,-1.97436 0.60773,-2.29167 0.60772,2.57372 0.60773,-0.2468 0.60772,0.42308 0.60772,0.42308 0.60773,-1.375 0.60772,-1.16346 0.60773,1.30448 0.60772,2.29167 0.60772,-2.43269 0.60773,2.39743 0.60772,-3.66666 0.60773,2.08012 0.60772,1.26923 0.60772,-2.60897 0.60773,1.26923 0.60772,1.23398 0.60773,-2.39744 0.60772,4.47756 0.60772,-1.62179 0.60773,1.48077 0.60772,-3.10257 0.60773,1.19872 0.60772,-0.10577 0.60772,-2.32692 0.60773,1.48077 0.60772,5.07692 0.60773,-1.86859 0.60772,-3.52564 0.60772,0.70516 0.60773,2.29164 0.60772,-3.5609 0.60773,2.75003 0.60772,-2.2917 0.60772,0.35257 0.60773,-1.12821 0.60772,2.15064 0.60773,0.66987 0.60772,0.0705 0.60772,-0.63462 0.60773,0.28205 0.60772,-1.6923 0.60773,2.53846 0.60772,-1.0577 0.60772,-0.98714 0.60773,-0.70516 0.60772,0.63461 0.60773,0.2468 0.60772,-1.51603 0.60772,0.84616 0.60773,-1.33975 0.60772,-2.18589 0.60773,2.43269 0.60772,0.14102 0.60772,0 0.60773,1.55128 0.60772,3.24359 0.60773,-5.99359 0.60772,2.9968 0.60772,3.49038 0.60773,-0.66987 0.60772,-5.21795 0.60773,1.51603 0.60772,2.36218 0.60772,-2.50321 0.60773,1.48077 0.60772,-2.08009 0.60773,2.64419 0.60772,-1.72756 0.60772,2.32692 0.60773,-3.80769 0.60772,1.41026 0.60773,-4.05449 0.60772,7.26282 0.60772,-2.00961 0.60773,-2.46795 0.60772,4.26602 0.60773,-0.52884 0.60772,-2.32693 0.60772,0.28209 0.60773,2.43266 0.60772,-3.06731 0.60773,1.72756 0.60772,-0.17628 0.60772,1.375 0.60773,-2.5032 0.60772,0.77564 0.60773,1.16349 0.60772,-3.34939 0.60772,2.57372 0.60773,-3.66667 0.60772,1.48077 0.60773,2.25641 0.60772,-5.11218 0.60772,4.33657 0.60773,-1.4808 0.60772,1.23401 0.60773,-0.28209 0.60772,3.10257 0.60772,-6.0641 0.60773,1.09294 0.60772,2.29167 0.60773,0.2468 0.60772,0 0.60772,-0.141 0.60773,2.25638 0.60772,-4.40705 0.60773,-0.88141 0.60772,0.98718 0.60772,1.26923 0.60773,0.0353 0.60772,0.28205 0.60773,-1.23398 0.60772,2.39744 0.60772,-0.77564 0.60773,-0.59936 0.60772,-1.19872 0.60773,2.46795 0.60772,0.42308 0.60772,-3.59616 0.60773,4.65385 0.60772,-2.89103 0.60773,0.77564"
                   vector-effect="non-scaling-stroke"
                   id="path238"
                   inkscape:connector-curvature="0" />
              </g>
            </g>
          </g>
        </g>
      </g>
    </g>
  </g>
  <g
     style="fill:none;stroke:#000000;stroke-width:1;stroke-linecap:square;stroke-linejoin:bevel"
     id="g3944"
     transform="translate(-156.0004,5.1164348)">
    <path
       sodipodi:nodetypes="cccc"
       inkscape:connector-curvature="0"
       id="path3237-3"
       d="m 367.72186,6.2747598 0,266.4810902 0,0 0,-0.22152"
       style="fill:none;stroke:#000000;stroke-width:0.56202096;stroke-linecap:butt;stroke-linejoin:miter;stroke-miterlimit:4;stroke-opacity:1;stroke-dasharray:0.56202098, 1.68606294;stroke-dashoffset:0" />
    <text
       sodipodi:linespacing="125%"
       id="text4007-6"
       y="280.81375"
       x="335.78943"
       style="font-size:9px;font-style:normal;font-variant:normal;font-weight:normal;font-stretch:normal;line-height:125%;letter-spacing:0px;word-spacing:0px;fill:#000000;fill-opacity:1;stroke:none;font-family:TeX Gyre Termes;-inkscape-font-specification:TeX Gyre Termes"
       xml:space="preserve"><tspan
         style="font-size:14px"
         y="280.81375"
         x="335.78943"
         id="tspan4009-1"
         sodipodi:role="line">Vehicle at point A</tspan></text>
  </g>
  <text
     xml:space="preserve"
     style="font-size:9px;font-style:normal;font-variant:normal;font-weight:normal;font-stretch:normal;line-height:125%;letter-spacing:0px;word-spacing:0px;fill:#000000;fill-opacity:1;stroke:none;font-family:TeX Gyre Termes;-inkscape-font-specification:TeX Gyre Termes"
     x="6.1707554"
     y="285.93018"
     id="text4011-0"
     sodipodi:linespacing="125%"><tspan
       sodipodi:role="line"
       id="tspan4013-5"
       x="6.1707554"
       y="285.93018"
       style="font-size:14px">Initial position</tspan></text>
  <text
     xml:space="preserve"
     style="font-size:14px;font-style:normal;font-variant:normal;font-weight:normal;font-stretch:normal;line-height:125%;letter-spacing:0px;word-spacing:0px;fill:#000000;fill-opacity:1;stroke:none;font-family:TeX Gyre Termes;-inkscape-font-specification:TeX Gyre Termes"
     x="27.906471"
     y="159.91335"
     id="text4023-1"
     sodipodi:linespacing="125%"><tspan
       sodipodi:role="line"
       id="tspan4025-7"
       x="27.906471"
       y="159.91335">Sensor unit </tspan></text>
  <text
     xml:space="preserve"
     style="font-size:14px;font-style:normal;font-variant:normal;font-weight:normal;font-stretch:normal;line-height:125%;letter-spacing:0px;word-spacing:0px;fill:#000000;fill-opacity:1;stroke:none;font-family:TeX Gyre Termes;-inkscape-font-specification:TeX Gyre Termes"
     x="28.326485"
     y="77.89328"
     id="text4027-4"
     sodipodi:linespacing="125%"><tspan
       sodipodi:role="line"
       id="tspan4029-6"
       x="28.326485"
       y="77.89328">Motor unit</tspan></text>
  <text
     xml:space="preserve"
     style="font-size:14px;font-style:normal;font-variant:normal;font-weight:normal;font-stretch:normal;line-height:125%;letter-spacing:0px;word-spacing:0px;fill:#000000;fill-opacity:1;stroke:none;font-family:TeX Gyre Termes;-inkscape-font-specification:TeX Gyre Termes"
     x="28.24247"
     y="253.99193"
     id="text4031-9"
     sodipodi:linespacing="125%"><tspan
       sodipodi:role="line"
       id="tspan4033-6"
       x="28.24247"
       y="253.99193">Input transducer</tspan></text>
</svg>
