<?xml version="1.0" encoding="UTF-8" standalone="no"?>
<svg
   xmlns:dc="http://purl.org/dc/elements/1.1/"
   xmlns:cc="http://creativecommons.org/ns#"
   xmlns:rdf="http://www.w3.org/1999/02/22-rdf-syntax-ns#"
   xmlns:svg="http://www.w3.org/2000/svg"
   xmlns="http://www.w3.org/2000/svg"
   xmlns:sodipodi="http://sodipodi.sourceforge.net/DTD/sodipodi-0.dtd"
   xmlns:inkscape="http://www.inkscape.org/namespaces/inkscape"
   version="1.2"
   id="svg2"
   inkscape:version="0.48.4 r9939"
   width="635.92017"
   height="282.27945"
   sodipodi:docname="Braiten-1-2-full-connection-point.3-value.svg">
  <metadata
     id="metadata260">
    <rdf:RDF>
      <cc:Work
         rdf:about="">
        <dc:format>image/svg+xml</dc:format>
        <dc:type
           rdf:resource="http://purl.org/dc/dcmitype/StillImage" />
        <dc:title>pyqtgraph SVG export</dc:title>
      </cc:Work>
    </rdf:RDF>
  </metadata>
  <sodipodi:namedview
     pagecolor="#ffffff"
     bordercolor="#666666"
     borderopacity="1"
     objecttolerance="10"
     gridtolerance="10"
     guidetolerance="10"
     inkscape:pageopacity="0"
     inkscape:pageshadow="2"
     inkscape:window-width="1920"
     inkscape:window-height="1026"
     id="namedview258"
     showgrid="false"
     fit-margin-top="0"
     fit-margin-left="0"
     fit-margin-right="0"
     fit-margin-bottom="0"
     inkscape:zoom="1.7940591"
     inkscape:cx="256.12836"
     inkscape:cy="120.06681"
     inkscape:window-x="1047"
     inkscape:window-y="-3"
     inkscape:window-maximized="1"
     inkscape:current-layer="GraphicsLayout_1" />
  <title
     id="title4">pyqtgraph SVG export</title>
  <desc
     id="desc6">Generated with Qt and pyqtgraph</desc>
  <defs
     id="defs8" />
  <g
     style="fill:none;stroke:#000000;stroke-width:1;stroke-linecap:square;stroke-linejoin:bevel"
     id="GraphicsLayout_1"
     transform="translate(-25.079834,-1.5723166)">
    <g
       style="fill:none;stroke:#000000;stroke-width:1;stroke-linecap:square;stroke-linejoin:bevel"
       id="PlotItem_1">
      <g
         style="fill:none;stroke:#000000;stroke-width:1;stroke-linecap:square;stroke-linejoin:bevel"
         id="AxisItem_1">
        <g
           style="font-size:11.875px;font-style:normal;font-weight:400;fill:none;stroke:#969696;stroke-width:1;stroke-linecap:square;stroke-linejoin:bevel;stroke-opacity:1;font-family:Sans Serif"
           id="g14"
           font-weight="400"
           font-style="normal"
           font-size="11.875">
          <polyline
             style="fill:none"
             id="polyline16"
             vector-effect="non-scaling-stroke"
             points="45.0,5.0 45.0,79.113566312" />
        </g>
        <g
           style="font-size:11.875px;font-style:normal;font-weight:400;fill:none;stroke:#969696;stroke-width:1;stroke-linecap:square;stroke-linejoin:bevel;stroke-opacity:1;font-family:Sans Serif"
           id="g18"
           font-weight="400"
           font-style="normal"
           font-size="11.875">
          <polyline
             style="fill:none"
             id="polyline20"
             vector-effect="non-scaling-stroke"
             points="45.5,42.056833688 50.5,42.056833688" />
        </g>
        <g
           style="font-size:11.875px;font-style:normal;font-weight:400;fill:none;stroke:#969696;stroke-width:1;stroke-linecap:square;stroke-linejoin:bevel;stroke-opacity:0.49803904;font-family:Sans Serif"
           id="g22"
           font-weight="400"
           font-style="normal"
           font-size="11.875">
          <polyline
             style="fill:none"
             id="polyline24"
             vector-effect="non-scaling-stroke"
             points="45.5,77.688361784 48.8333,77.688361784" />
          <polyline
             style="fill:none"
             id="polyline26"
             vector-effect="non-scaling-stroke"
             points="45.5,6.4252651664 48.8333,6.4252651664" />
        </g>
        <g
           style="font-size:11.875px;font-style:normal;font-weight:400;fill:none;stroke:#969696;stroke-width:1;stroke-linecap:square;stroke-linejoin:bevel;stroke-opacity:0.33333297;font-family:Sans Serif"
           id="g28"
           font-weight="400"
           font-style="normal"
           font-size="11.875">
          <polyline
             style="fill:none"
             id="polyline30"
             vector-effect="non-scaling-stroke"
             points="45.5,70.562035952 48.0,70.562035952" />
          <polyline
             style="fill:none"
             id="polyline32"
             vector-effect="non-scaling-stroke"
             points="45.5,63.43571012 48.0,63.43571012" />
          <polyline
             style="fill:none"
             id="polyline34"
             vector-effect="non-scaling-stroke"
             points="45.5,56.309384288 48.0,56.309384288" />
          <polyline
             style="fill:none"
             id="polyline36"
             vector-effect="non-scaling-stroke"
             points="45.5,49.183058456 48.0,49.183058456" />
          <polyline
             style="fill:none"
             id="polyline38"
             vector-effect="non-scaling-stroke"
             points="45.5,34.930507856 48.0,34.930507856" />
          <polyline
             style="fill:none"
             id="polyline40"
             vector-effect="non-scaling-stroke"
             points="45.5,27.804182024 48.0,27.804182024" />
          <polyline
             style="fill:none"
             id="polyline42"
             vector-effect="non-scaling-stroke"
             points="45.5,20.677856192 48.0,20.677856192" />
          <polyline
             style="fill:none"
             id="polyline44"
             vector-effect="non-scaling-stroke"
             points="45.5,13.5515707856 48.0,13.5515707856" />
        </g>
        <g
           style="font-size:11.875px;font-style:normal;font-weight:400;fill:none;stroke:#969696;stroke-width:1;stroke-linecap:square;stroke-linejoin:bevel;stroke-opacity:1;font-family:Sans Serif"
           id="g46"
           transform="matrix(1,0,0,1.01064,5.5,5)"
           font-weight="400"
           font-style="normal"
           font-size="11.875">
          <text
             style="font-size:11.875px;font-style:normal;font-weight:400;fill:#969696;fill-opacity:1;stroke:none"
             id="text48"
             y="40.6562"
             xml:space="preserve"
             x="31"
             font-weight="400"
             font-style="normal"
             font-size="11.875">0</text>
          <text
             style="font-size:11.875px;font-style:normal;font-weight:400;fill:#969696;fill-opacity:1;stroke:none"
             id="text50"
             y="75.921898"
             xml:space="preserve"
             x="19"
             font-weight="400"
             font-style="normal"
             font-size="11.875">-10</text>
          <text
             style="font-size:11.875px;font-style:normal;font-weight:400;fill:#969696;fill-opacity:1;stroke:none"
             id="text52"
             y="5.4218798"
             xml:space="preserve"
             x="23"
             font-weight="400"
             font-style="normal"
             font-size="11.875">10</text>
        </g>
      </g>
      <g
         style="fill:none;stroke:#000000;stroke-width:1;stroke-linecap:square;stroke-linejoin:bevel"
         id="ViewBox_1">
        <g
           style="font-size:11.875px;font-style:normal;font-weight:400;fill:none;stroke:none;font-family:Sans Serif"
           id="g55"
           font-weight="400"
           font-style="normal"
           font-size="11.875">
          <path
             inkscape:connector-curvature="0"
             id="path57"
             vector-effect="non-scaling-stroke"
             d="m 45,5 616,0 0,73.3333 -616,0 L 45,5" />
        </g>
        <clipPath
           id="ViewBox_1_clip">
          <path
             inkscape:connector-curvature="0"
             id="path60"
             vector-effect="non-scaling-stroke"
             d="m 45,5 616,0 0,73.3333 -616,0 L 45,5" />
        </clipPath>
        <g
           id="g62"
           clip-path="url(#ViewBox_1_clip)">
          <g
             style="fill:none;stroke:#000000;stroke-width:1;stroke-linecap:square;stroke-linejoin:bevel"
             id="ChildGroup_1">
            <g
               style="fill:none;stroke:#000000;stroke-width:1;stroke-linecap:square;stroke-linejoin:bevel"
               id="InfiniteLine_1">
              <g
                 style="font-size:11.875px;font-style:normal;font-weight:400;fill:none;stroke:#e6e6af;stroke-width:1;stroke-linecap:square;stroke-linejoin:bevel;stroke-opacity:1;font-family:Sans Serif"
                 id="g66"
                 font-weight="400"
                 font-style="normal"
                 font-size="11.875">
                <polyline
                   style="fill:none"
                   id="polyline68"
                   vector-effect="non-scaling-stroke"
                   points="661.0017971,41.6667 44.999961655,41.6667" />
              </g>
            </g>
            <g
               id="PlotDataItem_1">
              <g
                 style="fill:none;stroke:#000000;stroke-width:1;stroke-linecap:square;stroke-linejoin:bevel"
                 id="PlotCurveItem_1">
                <g
                   style="font-size:11.875px;font-style:normal;font-weight:400;fill:none;stroke:#ff0000;stroke-width:1;stroke-linecap:square;stroke-linejoin:bevel;stroke-opacity:1;font-family:Sans Serif"
                   id="g72"
                   font-weight="400"
                   font-style="normal"
                   font-size="11.875">
                  <path
                     inkscape:connector-curvature="0"
                     id="path74"
                     vector-effect="non-scaling-stroke"
                     d="m 29.4743,41.680521 0.54893,0.03099 0.54893,3.3e-5 0.54893,-0.03467 0.54893,-0.128605 0.54893,-0.07131 0.54893,-0.06745 0.54893,0.222886 0.54893,-0.03963 0.54893,-0.120069 0.54893,-0.02592 0.54893,-0.06822 0.54893,0.0083 0.54893,-0.02218 0.54893,0.01597 0.54893,-0.08141 0.54893,0.05652 0.54893,0.01121 0.54893,0.0044 0.54893,0.09463 0.54893,-0.03441 0.54893,0.06124 0.54893,0.0088 0.54893,-0.02398 0.54893,0.08222 0.54893,0.01234 0.54893,0.0023 0.54893,0.04171 0.54893,0.0098 0.54893,0.0318 0.54893,-0.01463 0.54893,-0.06963 0.54893,-0.09354 0.54893,-0.08581 0.54893,0.0081 0.54893,0.02197 0.54893,-0.0672 0.54893,-0.06381 0.54893,-0.03275 0.54893,-0.03166 0.54893,0.01019 0.54893,0.04834 0.54893,0.05673 0.54893,-0.07115 0.54893,-0.03187 0.54893,-0.02263 0.54893,-0.107074 0.54893,0.02288 0.54893,0.04263 0.54893,0.01456 0.54893,0.01646 0.54893,0.04305 0.54893,0.08828 0.54893,-0.01985 0.54893,-0.07562 0.54893,-0.03861 0.54893,0.07859 0.54893,-0.02764 0.54893,-0.05775 0.54893,-0.180513 0.54893,-0.04717 0.54893,-0.07591 0.54893,0.0012 0.54893,-0.03519 0.54893,-0.06367 0.54893,-0.01601 0.54893,-0.03494 0.54893,0.04181 0.54893,-0.08172 0.54893,0.06272 0.54893,0.04834 0.54893,0.01692 0.54893,-0.04224 0.54893,-0.04745 0.54893,0.03885 0.54893,0.0066 0.54893,-1.76e-4 0.54893,-0.01023 0.54893,-0.01604 0.54893,0.0023 0.54893,-0.05634 0.54893,0.01276 0.54893,-0.03222 0.54893,0.06635 0.54893,-0.07982 0.54893,-0.02077 0.54893,0.01678 0.54893,0.08927 0.54893,-0.02641 0.54893,-0.07443 0.54893,-0.08 0.54893,-0.02182 0.54893,0.03494 0.54893,-0.03582 0.54893,-0.102173 0.54893,-0.0061 0.54893,-0.131788 0.54893,0.069 0.54893,-0.01167 0.54893,-0.02412 0.54893,0.02063 0.54893,0.01558 0.54893,-0.0045 0.54893,-0.17533 0.54893,-0.06304 0.54893,-0.06152 0.54893,0.0064 0.54893,-0.05211 0.54893,-0.02863 0.54893,-0.02175 0.54893,-0.126042 0.54893,-0.02598 0.54893,-0.03018 0.54893,-0.03857 0.54893,-0.102843 0.54893,-0.07721 0.54893,0.03025 0.54893,-0.07517 0.54893,0.0084 0.54893,-0.003 0.54893,-0.0031 0.54893,-0.04079 0.54893,0.109084 0.54893,-0.03557 0.54893,-0.0039 0.54893,-0.04657 0.54893,6.34e-4 0.54893,-0.127698 0.54893,-0.05056 0.54893,0.06297 0.54893,-0.153683 0.54893,0.06533 0.54893,-0.08246 0.54893,0.02292 0.54893,-0.02412 0.54893,-0.03801 0.54893,-0.0018 0.54893,-0.08698 0.54893,-0.0483 0.54893,-0.01421 0.54893,0.05673 0.54893,-0.153225 0.54893,-0.0039 0.54893,-0.06142 0.54893,-0.0032 0.54893,-0.130096 0.54893,-0.01294 0.54893,-0.05778 0.54893,-0.04777 0.54893,-0.07598 0.54893,-0.03261 0.54893,-0.02743 0.54893,-0.04682 0.54893,-0.140496 0.54893,-0.06032 0.54893,0.04414 0.54893,-0.02806 0.54893,0.08419 0.54893,-0.03868 0.54893,0.0053 0.54893,-0.09741 0.54893,-0.159676 0.54893,-0.07108 0.54893,-0.01044 0.54893,-0.0017 0.54893,-0.144023 0.54893,-0.06431 0.54893,-0.0636 0.54893,-0.130942 0.54893,-0.06632 0.54893,-0.08388 0.54893,-0.05225 0.54893,-0.02507 0.54893,-4.58e-4 0.54893,0.0146 0.54893,0.004 0.54893,0.0051 0.54893,-0.02355 0.54893,-0.03515 0.54893,-0.03466 0.54893,0.0074 0.54893,-0.02679 0.54893,-0.0097 0.54893,-0.04171 0.54893,-0.02041 0.54893,-0.06981 0.54893,-0.06117 0.54893,0.05655 0.54893,-0.01319 0.54893,0.06871 0.54893,-0.143459 0.54893,-0.05969 0.54893,-0.122833 0.54893,-0.05038 0.54893,-0.100093 0.54893,0.0789 0.54893,-0.208154 0.54893,-0.162497 0.54893,-0.190843 0.54893,-0.05006 0.54893,0.0093 0.54893,0.03004 0.54893,-0.113103 0.54893,0.04086 0.54893,-0.0427 0.54893,0.01008 0.54893,-0.07904 0.54893,0.02613 0.54893,0.07178 0.54893,-0.13676 0.54893,0.06949 0.54893,-0.03959 0.54893,-0.0067 0.54893,-0.03547 0.54893,0.01 0.54893,-0.06526 0.54893,-0.03099 0.54893,0.04703 0.54893,-0.0088 0.54893,0.005 0.54893,-0.09244 0.54893,0.0055 0.54893,-0.102244 0.54893,0.04368 0.54893,0.01209 0.54893,-0.01897 0.54893,-0.07263 0.54893,-0.03564 0.54893,-0.03441 0.54893,-0.07654 0.54893,0.03258 0.54893,0.09872 0.54893,-0.01685 0.54893,-0.02197 0.54893,-0.01396 0.54893,0.03148 0.54893,0.03445 0.54893,-0.04139 0.54893,-9.87e-4 0.54893,-0.04203 0.54893,0.05356 0.54893,0.08722 0.54893,-0.0453 0.54893,-0.08232 0.54893,0.006 0.54893,-0.06166 0.54893,-0.110952 0.54893,-0.02676 0.54893,0.0011 0.54893,-0.06914 0.54893,-0.133763 0.54893,0.04668 0.54893,-0.07619 0.54893,-0.153259 0.54893,0.02295 0.54893,0.03822 0.54893,-0.02806 0.54893,-0.02264 0.54893,-0.04978 0.54893,-0.01551 0.54893,-0.01118 0.54893,-0.09703 0.54893,-0.09121 0.54893,0.07154 0.54893,0.02239 0.54893,-0.04693 0.54893,-0.115183 0.54893,-0.126535 0.54893,-0.09692 0.54893,-0.01237 0.54893,0.0593 0.54893,-0.0055 0.54893,0.01756 0.54893,0.03236 0.54893,0.05606 0.54893,-0.137853 0.54893,-0.02584 0.54893,0.01252 0.54893,-0.04545 0.54893,-0.03885 0.54893,-0.07189 0.54893,-0.109788 0.54893,0.02546 0.54893,-0.02598 0.54893,-0.07873 0.54893,-0.04968 0.54893,0.04418 0.54893,-0.0806 0.54893,-0.0122 0.54893,-0.03307 0.54893,-0.02954 0.54893,-0.0072 0.54893,-0.08172 0.54893,0.01107 0.54893,0.03261 0.54893,0.01474 0.54893,0.03931 0.54893,0.05341 0.54893,-0.07894 0.54893,-0.02278 0.54893,0.05303 0.54893,-0.02271 0.54893,0.02126 0.54893,-0.04608 0.54893,0.0045 0.54893,-0.02916 0.54893,-0.02838 0.54893,0.0024 0.54893,-0.07584 0.54893,0.03134 0.54893,-0.04065 0.54893,3.6e-5 0.54893,-0.07143 0.54893,-0.04471 0.54893,0.01558 0.54893,-0.06106 0.54893,-0.06022 0.54893,-0.04957 0.54893,-0.06336 0.54893,0.0065 0.54893,0.0059 0.54893,0.01273 0.54893,0.03046 0.54893,-0.05761 0.54893,0.03501 0.54893,-0.07316 0.54893,-0.0263 0.54893,-0.02316 0.54893,0.02729 0.54893,-0.04054 0.54893,-0.02447 0.54893,0.02673 0.54893,0.03106 0.54893,-0.0033 0.54893,-0.02979 0.54893,-0.01886 0.54893,-0.08328 0.54893,-0.106368 0.54893,0.03222 0.54893,0.0031 0.54893,-0.03078 0.54893,7.05e-4 0.54893,-0.04354 0.54893,0.06011 0.54893,-0.04675 0.54893,0.02722 0.54893,-0.02627 0.54893,-0.03046 0.54893,-0.03448 0.54893,0.06265 0.54893,-0.07534 0.54893,-0.02122 0.54893,0.0551 0.54893,-0.05218 0.54893,-0.05546 0.54893,0.08606 0.54893,0.0039 0.54893,0.08158 0.54893,-0.01914 0.54893,-0.05789 0.54893,-0.07577 0.54893,-0.04086 0.54893,0.03085 0.54893,-0.07665 0.54893,0.07675 0.54893,-0.01266 0.54893,-0.06032 0.54893,-0.03367 0.54893,-0.06804 0.54893,-0.11423 0.54893,0.05934 0.54893,0.0093 0.54893,-0.08722 0.54893,-0.0427 0.54893,-0.04678 0.54893,-0.02144 0.54893,-0.05147 0.54893,-0.02715 0.54893,0.08708 0.54893,0.0013 0.54893,-0.10048 0.54893,0.04051 0.54893,-0.02482 0.54893,-0.01728 0.54893,0.06752 0.54893,-0.05077 0.54893,-0.12382 0.54893,-0.07876 0.54893,0.03184 0.54893,0.01601 0.54893,0.139474 0.54893,0.01699 0.54893,0.04382 0.54893,-0.08116 0.54893,-0.03593 0.54893,-0.109965 0.54893,-0.02341 0.54893,-0.03783 0.54893,-0.154388 0.54893,-0.05898 0.54893,9.87e-4 0.54893,-0.131929 0.54893,-0.02295 0.54893,-0.03533 0.54893,-0.121987 0.54893,0.02679 0.54893,0.0077 0.54893,0.05207 0.54893,-0.06022 0.54893,-0.09625 0.54893,-0.0201 0.54893,-0.04968 0.54893,-0.0092 0.54893,-0.04263 0.54893,-0.06202 0.54893,-0.06748 0.54893,-0.102314 0.54893,0.0905 0.54893,0.03102 0.54893,0.03014 0.54893,0.0073 0.54893,0.01992 0.54893,-0.0026 0.54893,0.119131 0.54893,-0.03892 0.54893,0.05155 0.54893,-0.02746 0.54893,-0.07065 0.54893,-0.04474 0.54893,-0.12093 0.54893,-0.138416 0.54893,-0.06434 0.54893,-0.0592 0.54893,-0.02722 0.54893,-0.08398 0.54893,0.01428 0.54893,-0.03 0.54893,-0.08581 0.54893,0.01491 0.54893,0.04953 0.54893,-0.06663 0.54893,-0.110669 0.54893,0.0153 0.54893,0.01703 0.54893,0.08772 0.54893,-0.01178 0.54893,0.08455 0.54893,-0.03949 0.54893,-0.03998 0.54893,-0.08613 0.54893,0.01234 0.54893,-0.01608 0.54893,-0.002 0.54893,-0.01058 0.54893,0.02383 0.54893,-0.07816 0.54893,0.03261 0.54893,-0.130026 0.54893,0.0037 0.54893,-0.04834 0.54893,-0.02405 0.54893,-0.01565 0.54893,0.0059 0.54893,-0.04407 0.54893,-0.04492 0.54893,-0.09124 0.54893,0.09357 0.54893,-0.02457 0.54893,0.02919 0.54893,0.121 0.54893,-0.157349 0.54893,-0.02838 0.54893,0.02546 0.54893,0.07668 0.54893,-0.02461 0.54893,0.07065 0.54893,-0.06896 0.54893,0.0051 0.54893,0.02736 0.54893,0.01319 0.54893,0.04703 0.54893,0.09696 0.54893,-0.0079 0.54893,-0.0911 0.54893,0.04576 0.54893,0.04005 0.54893,0.09671 0.54893,-0.0342 0.54893,0.0065 0.54893,0.069 0.54893,0.06455 0.54893,-0.03797 0.54893,-0.05941 0.54893,0.06219 0.54893,0.08938 0.54893,0.0032 0.54893,0.04393 0.54893,0.0397 0.54893,0.05927 0.54893,0.119414 0.54893,0.07161 0.54893,0.02285 0.54893,0.117968 0.54893,0.03653 0.54893,0.09678 0.54893,-0.05186 0.54893,0.02665 0.54893,0.06307 0.54893,0.07577 0.54893,-0.03053 0.54893,0.009 0.54893,-0.0055 0.54893,0.0025 0.54893,0.106228 0.54893,0.03423 0.54893,0.05366 0.54893,0.02366 0.54893,0.0088 0.54893,0.04745 0.54893,0.0087 0.54893,0.04495 0.54893,0.09149 0.54893,0.0159 0.54893,0.157807 0.54893,0.125795 0.54893,0.0075 0.54893,0.0075 0.54893,-0.06804 0.54893,0.118426 0.54893,0.123715 0.54893,0.102878 0.54893,0.005 0.54893,0.06988 0.54893,0.0061 0.54893,0.01149 0.54893,0.0195 0.54893,0.01939 0.54893,-0.01498 0.54893,0.02309 0.54893,0.08046 0.54893,0.132388 0.54893,0.03903 0.54893,0.195743 0.54893,-0.0087 0.54893,0.125442 0.54893,0.120084 0.54893,0.03254 0.54893,-0.01678 0.54893,0.0171 0.54893,0.07735 0.54893,0.03822 0.54893,0.03057 0.54893,0.161228 0.54893,0.0427 0.54893,0.05229 0.54893,0.02757 0.54893,-0.02746 0.54893,-0.05616 0.54893,0.13683 0.54893,0.13126 0.54893,0.04774 0.54893,0.06625 0.54893,0.0035 0.54893,0.215205 0.54893,0.09378 0.54893,0.05317 0.54893,0.05486 0.54893,0.06427 0.54893,0.03237 0.54893,0.01505 0.54893,0.0019 0.54893,0.01386 0.54893,0.04693 0.54893,0.102032 0.54893,0.105346 0.54893,0.05236 0.54893,0.01407 0.54893,0.02528 0.54893,0.03928 0.54893,-0.0052 0.54893,-0.02887 0.54893,0.01209 0.54893,0.08472 0.54893,0.08225 0.54893,0.03624 0.54893,0.02722 0.54893,0.02676 0.54893,-0.05204 0.54893,-0.02775 0.54893,0.02475 0.54893,0.06286 0.54893,0.03519 0.54893,0.101468 0.54893,0.04922 0.54893,-0.04488 0.54893,0.155481 0.54893,0.03258 0.54893,0.07982 0.54893,0.0672 0.54893,0.135278 0.54893,-0.01252 0.54893,0.02359 0.54893,0.09505 0.54893,0.05306 0.54893,0.07897 0.54893,0.09371 0.54893,0.13475 0.54893,0.09399 0.54893,0.0856 0.54893,0.05902 0.54893,0.126994 0.54893,0.159359 0.54893,0.03843 0.54893,0.187458 0.54893,0.162109 0.54893,0.0097 0.54893,0.03674 0.54893,0.142224 0.54893,0.05444 0.54893,0.04442 0.54893,0.05687 0.54893,0.08543 0.54893,0.0141 0.54893,0.06967 0.54893,0.09946 0.54893,-0.0068 0.54893,0.0617 0.54893,0.05419 0.54893,-0.02725 0.54893,0.122798 0.54893,0.126853 0.54893,0.09124 0.54893,0.05317 0.54893,0.03018 0.54893,0.162039 0.54893,0.09502 0.54893,-1.76e-4 0.54893,0.141801 0.54893,0.06956 0.54893,0.09858 0.54893,0.13281 0.54893,0.03832 0.54893,0.06864 0.54893,0.136972 0.54893,-0.0053 0.54893,0.07432 0.54893,0.02038 0.54893,0.09738 0.54893,0.02909 0.54893,-2.11e-4 0.54893,0.05669 0.54893,0.08144 0.54893,0.05486 0.54893,0.225324 0.54893,0.205263 0.54893,0.09163 0.54893,0.135385 0.54893,0.101185 0.54893,0.01967 0.54893,0.04823 0.54893,0.130907 0.54893,0.03868 0.54893,0.09551 0.54893,0.02771 0.54893,-0.03744 0.54893,0.03254 0.54893,0.108096 0.54893,0.10584 0.54893,-0.110987 0.54893,0.06336 0.54893,0.152061 0.54893,0.125725 0.54893,0.124032 0.54893,0.0099 0.54893,0.117192 0.54893,0.01636 0.54893,0.03265 0.54893,0.137571 0.54893,0.06491 0.54893,0.0033 0.54893,0.121529 0.54893,0.09801 0.54893,0.04989 0.54893,0.162426 0.54893,0.12992 0.54893,-0.02679 0.54893,0.01685 0.54893,0.100305 0.54893,-0.02189 0.54893,0.08557 0.54893,0.05588 0.54893,-0.03194 0.54893,0.151532 0.54893,0.12576 0.54893,-0.02034 0.54893,0.06448 0.54893,0.05172 0.54893,0.09657 0.54893,0.01386 0.54893,0.0098 0.54893,0.117898 0.54893,0.03568 0.54893,0.05856 0.54893,0.06149 0.54893,0.02729 0.54893,0.02651 0.54893,0.03462 0.54893,-0.01252 0.54893,0.07749 0.54893,0.01051 0.54893,-0.04139 0.54893,0.01051 0.54893,0.07612 0.54893,0.103971 0.54893,0.01654 0.54893,0.07171 0.54893,-0.02595 0.54893,-0.08747 0.54893,0.115359 0.54893,0.08222 0.54893,0.104676 0.54893,0.01809 0.54893,0.0667 0.54893,-0.02158 0.54893,0.0017 0.54893,0.118004 0.54893,0.06198 0.54893,0.02849 0.54893,-0.08758 0.54893,0.0881 0.54893,0.0098 0.54893,0.08948 0.54893,0.08225 0.54893,-0.04943 0.54893,0.126535 0.54893,0.167644 0.54893,0.09057 0.54893,0.01696 0.54893,0.05109 0.54893,0.05479 0.54893,0.106721 0.54893,0.0899 0.54893,0.08504 0.54893,0.0691 0.54893,0.03018 0.54893,0.0033 0.54893,0.0568 0.54893,-0.08888 0.54893,-0.011 0.54893,-0.05042 0.54893,0.06064 0.54893,-0.127417 0.54893,0.03332 0.54893,0.08113 0.54893,-0.05546 0.54893,-0.129638 0.54893,0.002 0.54893,0.06177 0.54893,0.01414 0.54893,0.100163 0.54893,-0.0269 0.54893,-0.06974 0.54893,0.07453 0.54893,0.02151 0.54893,0.03769 0.54893,-0.04171 0.54893,0.01375 0.54893,-0.04929 0.54893,0.05634 0.54893,-0.05366 0.54893,0.0011 0.54893,0.01869 0.54893,-0.02503 0.54893,-0.06462 0.54893,-0.03843 0.54893,0.0043 0.54893,0.0134 0.54893,0.06875 0.54893,-0.04016 0.54893,-0.04291 0.54893,0.05923 0.54893,-0.10993 0.54893,0.04996 0.54893,0.05662 0.54893,-0.01706 0.54893,0.0057 0.54893,0.06004 0.54893,0.04671 0.54893,-0.01244 0.54893,0.04449 0.54893,0.03445 0.54893,0.06255 0.54893,-0.05616 0.54893,0.02538 0.54893,-0.04961 0.54893,0.03628 0.54893,-0.04012 0.54893,-0.01572 0.54893,-0.104077 0.54893,-0.02101 0.54893,0.06191 0.54893,-0.05867 0.54893,0.01823 0.54893,-0.03497 0.54893,0.04287 0.54893,0.01685 0.54893,-0.01537 0.54893,0.10302 0.54893,-0.119026 0.54893,-0.0886 0.54893,-0.01068 0.54893,0.003 0.54893,0.0862 0.54893,-0.02034 0.54893,-0.14441 0.54893,0.03275 0.54893,0.03275 0.54893,0.0978 0.54893,0.01171 0.54893,0.0015 0.54893,0.02577 0.54893,-0.08955 0.54893,-0.01668 0.54893,0.02658 0.54893,-0.01495 0.54893,-0.08493 0.54893,0.06737 0.54893,-2.82e-4 0.54893,0.08828 0.54893,-0.02863 0.54893,-0.03198 0.54893,4.93e-4 0.54893,-0.03716 0.54893,0.0051 0.54893,0.0483 0.54893,-0.106651 0.54893,-0.107743 0.54893,0.05013 0.54893,-0.03268 0.54893,0.01809 0.54893,-0.03039 0.54893,-0.123468 0.54893,0.01089 0.54893,0.02764 0.54893,0.02401 0.54893,0.107885 0.54893,-0.07132 0.54893,-0.05422 0.54893,-0.0574 0.54893,-0.150439 0.54893,0.03712 0.54893,-0.04812 0.54893,-0.06702 0.54893,-0.07545 0.54893,-0.04717 0.54893,0.02856 0.54893,-0.02193 0.54893,-0.05454 0.54893,-0.09632 0.54893,-0.05348 0.54893,0.01354 0.54893,0.01371 0.54893,0.0046 0.54893,0.03822 0.54893,-0.166798 0.54893,-0.03748 0.54893,0.07429 0.54893,-0.06209 0.54893,-0.08895 0.54893,-0.126324 0.54893,0.06286 0.54893,0.01618 0.54893,-0.0034 0.54893,-0.09339 0.54893,0.06039 0.54893,-0.110282 0.54893,0.04238 0.54893,0.01149 0.54893,-0.07287 0.54893,-0.0025 0.54893,0.03903 0.54893,-0.0404 0.54893,0.01244 0.54893,-0.09978 0.54893,-0.07351 0.54893,0.0128 0.54893,-0.07524 0.54893,-0.04957 0.54893,0.06448 0.54893,-0.158443 0.54893,-0.04823 0.54893,-0.03554 0.54893,-0.02052 0.54893,0.0684 0.54893,-0.01929 0.54893,-0.01012 0.54893,-0.09935 0.54893,0.0501 0.54893,-0.05997 0.54893,-0.06709 0.54893,0.04414 0.54893,-0.05084 0.54893,0.0064 0.54893,-0.09692 0.54893,0.0066 0.54893,-0.03011 0.54893,0.03596 0.54893,-0.166481 0.54893,0.007 0.54893,0.01569 0.54893,0.06445 0.54893,-0.04812 0.54893,-0.05895 0.54893,0.01587 0.54893,-0.02556 0.54893,-0.03956 0.54893,-0.0057 0.54893,-0.09614 0.54893,-0.04485 0.54893,-0.16983 0.54893,0.02531 0.54893,-0.04009 0.54893,-0.019 0.54893,-0.0422 0.54893,-0.06353 0.54893,-0.03473 0.54893,-0.08031 0.54893,-0.02091 0.54893,-0.06632 0.54893,-0.0348 0.54893,-0.05905 0.54893,-0.04351 0.54893,-0.02616 0.54893,-0.149628 0.54893,-0.0067 0.54893,0.03018 0.54893,0.0014 0.54893,-0.0065 0.54893,-0.03804 0.54893,-0.06371 0.54893,-0.106616 0.54893,-0.110141 0.54893,-0.165035 0.54893,0.01558 0.54893,-0.113243 0.54893,0.02768 0.54893,-0.02387 0.54893,0.0183 0.54893,-0.04904 0.54893,0.01311 0.54893,-0.0036 0.54893,-0.104958 0.54893,0.0073 0.54893,-0.0764 0.54893,-0.06321 0.54893,0.01519 0.54893,-0.04446 0.54893,-0.0256 0.54893,-0.03138 0.54893,0.01319 0.54893,-0.09794 0.54893,-0.06949 0.54893,0.03409 0.54893,-0.08744 0.54893,-0.0129 0.54893,-0.104147 0.54893,-0.0507 0.54893,-0.08384 0.54893,-0.03741 0.54893,0.05394 0.54893,-4.23e-4 0.54893,-0.03416 0.54893,0.09114 0.54893,0.02306 0.54893,0.0238 0.54893,-0.01594 0.54893,-0.04601 0.54893,0.01001 0.54893,-0.02098 0.54893,-0.05204 0.54893,-0.01509 0.54893,0.02034 0.54893,-0.06625 0.54893,-0.171628 0.54893,-0.02168 0.54893,-0.135243 0.54893,0.0069 0.54893,-0.06244 0.54893,-0.03557 0.54893,0.100481 0.54893,0.01079 0.54893,0.03515 0.54893,0.02094 0.54893,-0.01026 0.54893,0.02193 0.54893,-0.01893 0.54893,0.03529 0.54893,-0.04019 0.54893,-0.04918 0.54893,-0.07746 0.54893,-0.07841 0.54893,-8.46e-4 0.54893,-0.02066 0.54893,0.01223 0.54893,0.07418 0.54893,0.0476 0.54893,0.168948 0.54893,-0.02852 0.54893,0.05119 0.54893,0.01929 0.54893,0.02965 0.54893,-0.138875 0.54893,0.0042 0.54893,-0.0135 0.54893,0.01784 0.54893,-0.0379 0.54893,-0.110599 0.54893,-0.0096 0.54893,-0.07517 0.54893,0.002 0.54893,-0.08708 0.54893,0.04404 0.54893,0.0041 0.54893,0.08867 0.54893,0.0159 0.54893,0.05024 0.54893,-0.0025 0.54893,-0.0098 0.54893,0.036 0.54893,-0.07548 0.54893,0.05158 0.54893,-0.120965 0.54893,0.0611 0.54893,0.03839 0.54893,-0.03247 0.54893,0.09953 0.54893,-0.07072 0.54893,-0.06981 0.54893,0.116311 0.54893,-0.07157 0.54893,-0.01682 0.54893,-0.04523 0.54893,0.04647 0.54893,-0.07661 0.54893,-0.05863 0.54893,-0.04171 0.54893,0.04224 0.54893,0.04784 0.54893,-0.10531 0.54893,-0.07062 0.54893,-0.176705 0.54893,-0.0532 0.54893,-0.0036 0.54893,-0.06078 0.54893,0.02993 0.54893,0.0018 0.54893,-0.03074 0.54893,-0.0025 0.54893,0.138416 0.54893,0.02549 0.54893,0.0947 0.54893,-0.01819 0.54893,0.0038 0.54893,0.04573 0.54893,-0.08782 0.54893,0.01008 0.54893,-0.01005 0.54893,0.132776 0.54893,-0.01329 0.54893,0.02069 0.54893,0.09678 0.54893,0.03459 0.54893,0.04883 0.54893,0.156397 0.54893,-0.02556 0.54893,0.0014 0.54893,0.01661 0.54893,-0.01629 0.54893,0.105487 0.54893,0.104007 0.54893,0.01149 0.54893,-0.05814 0.54893,-0.0409 0.54893,-0.0019 0.54893,-0.0021 0.54893,-0.07365 0.54893,-0.07749 0.54893,0.01491 0.54893,0.05733 0.54893,-0.02341 0.54893,0.01262 0.54893,0.05112 0.54893,-0.0082 0.54893,0.127981 0.54893,0.0051 0.54893,0.0538 0.54893,0.06635 0.54893,0.05757 0.54893,0.05796 0.54893,-0.03043 0.54893,0.0018 0.54893,0.03568 0.54893,0.02595 0.54893,0.07291 0.54893,0.04305 0.54893,0.07933 0.54893,0.07376" />
                </g>
              </g>
            </g>
          </g>
        </g>
      </g>
    </g>
    <g
       style="fill:none;stroke:#000000;stroke-width:1;stroke-linecap:square;stroke-linejoin:bevel"
       id="PlotItem_3"
       transform="translate(0,-72)">
      <g
         style="fill:none;stroke:#000000;stroke-width:1;stroke-linecap:square;stroke-linejoin:bevel"
         id="AxisItem_2">
        <g
           style="font-size:11.875px;font-style:normal;font-weight:400;fill:none;stroke:#969696;stroke-width:1;stroke-linecap:square;stroke-linejoin:bevel;stroke-opacity:1;font-family:Sans Serif"
           id="g96"
           font-weight="400"
           font-style="normal"
           font-size="11.875">
          <polyline
             style="fill:none"
             id="polyline98"
             vector-effect="non-scaling-stroke"
             points="45.0,163.667 45.0,237.780566312" />
        </g>
        <g
           style="font-size:11.875px;font-style:normal;font-weight:400;fill:none;stroke:#969696;stroke-width:1;stroke-linecap:square;stroke-linejoin:bevel;stroke-opacity:1;font-family:Sans Serif"
           id="g100"
           font-weight="400"
           font-style="normal"
           font-size="11.875">
          <polyline
             style="fill:none"
             id="polyline102"
             vector-effect="non-scaling-stroke"
             points="45.5,200.723833688 50.5,200.723833688" />
        </g>
        <g
           style="font-size:11.875px;font-style:normal;font-weight:400;fill:none;stroke:#969696;stroke-width:1;stroke-linecap:square;stroke-linejoin:bevel;stroke-opacity:0.49803904;font-family:Sans Serif"
           id="g104"
           font-weight="400"
           font-style="normal"
           font-size="11.875">
          <polyline
             style="fill:none"
             id="polyline106"
             vector-effect="non-scaling-stroke"
             points="45.5,236.355361784 48.8333,236.355361784" />
          <polyline
             style="fill:none"
             id="polyline108"
             vector-effect="non-scaling-stroke"
             points="45.5,165.092265166 48.8333,165.092265166" />
        </g>
        <g
           style="font-size:11.875px;font-style:normal;font-weight:400;fill:none;stroke:#969696;stroke-width:1;stroke-linecap:square;stroke-linejoin:bevel;stroke-opacity:0.33333297;font-family:Sans Serif"
           id="g110"
           font-weight="400"
           font-style="normal"
           font-size="11.875">
          <polyline
             style="fill:none"
             id="polyline112"
             vector-effect="non-scaling-stroke"
             points="45.5,229.229035952 48.0,229.229035952" />
          <polyline
             style="fill:none"
             id="polyline114"
             vector-effect="non-scaling-stroke"
             points="45.5,222.10271012 48.0,222.10271012" />
          <polyline
             style="fill:none"
             id="polyline116"
             vector-effect="non-scaling-stroke"
             points="45.5,214.976384288 48.0,214.976384288" />
          <polyline
             style="fill:none"
             id="polyline118"
             vector-effect="non-scaling-stroke"
             points="45.5,207.850058456 48.0,207.850058456" />
          <polyline
             style="fill:none"
             id="polyline120"
             vector-effect="non-scaling-stroke"
             points="45.5,193.597507856 48.0,193.597507856" />
          <polyline
             style="fill:none"
             id="polyline122"
             vector-effect="non-scaling-stroke"
             points="45.5,186.471182024 48.0,186.471182024" />
          <polyline
             style="fill:none"
             id="polyline124"
             vector-effect="non-scaling-stroke"
             points="45.5,179.344856192 48.0,179.344856192" />
          <polyline
             style="fill:none"
             id="polyline126"
             vector-effect="non-scaling-stroke"
             points="45.5,172.218570786 48.0,172.218570786" />
        </g>
        <g
           style="font-size:11.875px;font-style:normal;font-weight:400;fill:none;stroke:#969696;stroke-width:1;stroke-linecap:square;stroke-linejoin:bevel;stroke-opacity:1;font-family:Sans Serif"
           id="g128"
           transform="matrix(1,0,0,1.01064,5.5,163.667)"
           font-weight="400"
           font-style="normal"
           font-size="11.875">
          <text
             style="font-size:11.875px;font-style:normal;font-weight:400;fill:#969696;fill-opacity:1;stroke:none"
             id="text130"
             y="40.6562"
             xml:space="preserve"
             x="31"
             font-weight="400"
             font-style="normal"
             font-size="11.875">0</text>
          <text
             style="font-size:11.875px;font-style:normal;font-weight:400;fill:#969696;fill-opacity:1;stroke:none"
             id="text132"
             y="75.921898"
             xml:space="preserve"
             x="19"
             font-weight="400"
             font-style="normal"
             font-size="11.875">-10</text>
          <text
             style="font-size:11.875px;font-style:normal;font-weight:400;fill:#969696;fill-opacity:1;stroke:none"
             id="text134"
             y="5.4218798"
             xml:space="preserve"
             x="23"
             font-weight="400"
             font-style="normal"
             font-size="11.875">10</text>
        </g>
      </g>
      <g
         style="fill:none;stroke:#000000;stroke-width:1;stroke-linecap:square;stroke-linejoin:bevel"
         id="ViewBox_3">
        <g
           style="font-size:11.875px;font-style:normal;font-weight:400;fill:none;stroke:none;font-family:Sans Serif"
           id="g137"
           font-weight="400"
           font-style="normal"
           font-size="11.875">
          <path
             inkscape:connector-curvature="0"
             id="path139"
             vector-effect="non-scaling-stroke"
             d="m 45,163.667 616,0 0,73.3333 -616,0 0,-73.3333" />
        </g>
        <clipPath
           id="ViewBox_3_clip">
          <path
             inkscape:connector-curvature="0"
             id="path142"
             vector-effect="non-scaling-stroke"
             d="m 45,163.667 616,0 0,73.333 -616,0 0,-73.333" />
        </clipPath>
        <g
           id="g144"
           clip-path="url(#ViewBox_3_clip)">
          <g
             style="fill:none;stroke:#000000;stroke-width:1;stroke-linecap:square;stroke-linejoin:bevel"
             id="ChildGroup_3">
            <g
               style="fill:none;stroke:#000000;stroke-width:1;stroke-linecap:square;stroke-linejoin:bevel"
               id="InfiniteLine_2">
              <g
                 style="font-size:11.875px;font-style:normal;font-weight:400;fill:none;stroke:#e6e6af;stroke-width:1;stroke-linecap:square;stroke-linejoin:bevel;stroke-opacity:1;font-family:Sans Serif"
                 id="g148"
                 font-weight="400"
                 font-style="normal"
                 font-size="11.875">
                <polyline
                   style="fill:none"
                   id="polyline150"
                   vector-effect="non-scaling-stroke"
                   points="661.0017971,200.333 44.999961655,200.333" />
              </g>
            </g>
            <g
               id="PlotDataItem_3">
              <g
                 style="fill:none;stroke:#000000;stroke-width:1;stroke-linecap:square;stroke-linejoin:bevel"
                 id="PlotCurveItem_3">
                <g
                   style="font-size:11.875px;font-style:normal;font-weight:400;fill:none;stroke:#00ff00;stroke-width:1;stroke-linecap:square;stroke-linejoin:bevel;stroke-opacity:1;font-family:Sans Serif"
                   id="g154"
                   font-weight="400"
                   font-style="normal"
                   font-size="11.875">
                  <path
                     inkscape:connector-curvature="0"
                     id="path156"
                     vector-effect="non-scaling-stroke"
                     d="m 29.4743,200.34435 0.54893,-0.11096 0.54893,0.11728 0.54893,-0.0496 0.54893,-0.13433 0.54893,-0.0452 0.54893,0.007 0.54893,0.17207 0.54893,-0.0846 0.54893,-0.0412 0.54893,-0.0146 0.54893,0.01 0.54893,0.008 0.54893,-0.0498 0.54893,-0.0467 0.54893,-0.0256 0.54893,-0.0162 0.54893,-0.16366 0.54893,-0.0998 0.54893,-0.034 0.54893,-0.0981 0.54893,-0.0323 0.54893,-0.10109 0.54893,0.0751 0.54893,-0.0652 0.54893,-0.0687 0.54893,-0.12368 0.54893,-0.11303 0.54893,-0.11314 0.54893,-0.0737 0.54893,-0.071 0.54893,-0.0654 0.54893,0.007 0.54893,-0.0717 0.54893,0.0121 0.54893,-0.13761 0.54893,-0.14822 0.54893,-0.0294 0.54893,-0.13775 0.54893,-1.7e-4 0.54893,-0.008 0.54893,-0.0665 0.54893,-0.14205 0.54893,-0.0117 0.54893,-0.16828 0.54893,0.0747 0.54893,-0.0532 0.54893,-0.0164 0.54893,-0.021 0.54893,-0.019 0.54893,0.0592 0.54893,-0.0437 0.54893,0.0694 0.54893,-0.0917 0.54893,-0.12992 0.54893,-0.15513 0.54893,0.011 0.54893,0.001 0.54893,-0.0291 0.54893,0.0192 0.54893,-0.0281 0.54893,0.0128 0.54893,-0.0104 0.54893,-0.12551 0.54893,-0.0285 0.54893,-0.0917 0.54893,-0.11367 0.54893,-0.11356 0.54893,-0.11596 0.54893,-0.003 0.54893,-0.0632 0.54893,0.0115 0.54893,-0.03 0.54893,0.0245 0.54893,-0.0238 0.54893,-0.10041 0.54893,-0.006 0.54893,-0.1094 0.54893,0.0188 0.54893,-0.0849 0.54893,-0.0592 0.54893,0.0274 0.54893,0.0396 0.54893,-0.10676 0.54893,-0.0329 0.54893,0.0288 0.54893,-0.026 0.54893,-0.0158 0.54893,-0.0802 0.54893,-0.15128 0.54893,0.0472 0.54893,0.0375 0.54893,-0.13546 0.54893,0.0762 0.54893,-0.006 0.54893,-0.10041 0.54893,-0.013 0.54893,0.0618 0.54893,2.8e-4 0.54893,0.002 0.54893,-0.11261 0.54893,-0.0232 0.54893,-0.10524 0.54893,0.0179 0.54893,0.027 0.54893,-0.10637 0.54893,-0.0382 0.54893,-0.006 0.54893,-0.0824 0.54893,0.0527 0.54893,-0.007 0.54893,-0.14899 0.54893,-0.0816 0.54893,-0.20798 0.54893,-0.0968 0.54893,-0.11906 0.54893,0.0324 0.54893,0.047 0.54893,-0.001 0.54893,-0.0731 0.54893,-0.0475 0.54893,-0.0514 0.54893,-0.09 0.54893,-0.004 0.54893,-0.11317 0.54893,0.0931 0.54893,0.14483 0.54893,-0.0717 0.54893,0.005 0.54893,-0.14345 0.54893,-0.006 0.54893,-0.10291 0.54893,-0.0979 0.54893,0.0114 0.54893,0.0413 0.54893,-0.11709 0.54893,-0.0768 0.54893,0.0628 0.54893,-0.0172 0.54893,-0.0228 0.54893,-0.0269 0.54893,-0.011 0.54893,-0.0324 0.54893,-0.0204 0.54893,0.0149 0.54893,0.038 0.54893,-0.0598 0.54893,-0.0519 0.54893,-0.005 0.54893,0.0526 0.54893,0.0266 0.54893,-0.10394 0.54893,-0.008 0.54893,-0.008 0.54893,-0.002 0.54893,0.0127 0.54893,0.0215 0.54893,0.0615 0.54893,-0.0323 0.54893,0.0806 0.54893,0.0361 0.54893,-0.13757 0.54893,0.05 0.54893,-0.0747 0.54893,0.0234 0.54893,-0.11603 0.54893,-0.14787 0.54893,-0.0365 0.54893,-0.0208 0.54893,0.0123 0.54893,0.0227 0.54893,0.0996 0.54893,0.0233 0.54893,-1.8e-4 0.54893,0.0342 0.54893,0.0653 0.54893,0.004 0.54893,-0.0589 0.54893,-0.0619 0.54893,-0.10535 0.54893,0.0712 0.54893,-9.5e-4 0.54893,-0.0568 0.54893,0.0951 0.54893,-0.029 0.54893,0.0306 0.54893,0.0181 0.54893,-0.0136 0.54893,0.0135 0.54893,-0.0774 0.54893,-0.0202 0.54893,0.0497 0.54893,-0.0123 0.54893,-0.077 0.54893,-0.0928 0.54893,0.0679 0.54893,0.0595 0.54893,0.0184 0.54893,0.0312 0.54893,-0.0126 0.54893,-0.003 0.54893,-0.13764 0.54893,0.0191 0.54893,0.0386 0.54893,0.045 0.54893,-0.0192 0.54893,0.0548 0.54893,-0.11649 0.54893,-0.0556 0.54893,-0.0555 0.54893,-0.0177 0.54893,-0.0695 0.54893,-0.0638 0.54893,0.0795 0.54893,0.0861 0.54893,-0.005 0.54893,-0.0419 0.54893,-0.004 0.54893,0.0293 0.54893,-0.0162 0.54893,0.0807 0.54893,-0.009 0.54893,0.0608 0.54893,-0.045 0.54893,0.0463 0.54893,0.0254 0.54893,0.0104 0.54893,0.0412 0.54893,0.0512 0.54893,-0.12626 0.54893,0.17872 0.54893,0.0194 0.54893,-0.0153 0.54893,-0.0488 0.54893,0.11 0.54893,0.08 0.54893,-0.11293 0.54893,0.0806 0.54893,-0.0169 0.54893,-0.009 0.54893,-0.0765 0.54893,-0.0872 0.54893,0.0746 0.54893,-0.0258 0.54893,0.16497 0.54893,-0.0804 0.54893,-0.0475 0.54893,-0.0134 0.54893,0.0874 0.54893,-0.0917 0.54893,-2.1e-4 0.54893,0.0264 0.54893,-0.002 0.54893,0.0194 0.54893,0.1033 0.54893,-0.004 0.54893,0.0202 0.54893,-0.003 0.54893,-0.0116 0.54893,0.0732 0.54893,0.0151 0.54893,0.0987 0.54893,0.0397 0.54893,0.0599 0.54893,0.0162 0.54893,0.12742 0.54893,-0.0707 0.54893,0.038 0.54893,-0.005 0.54893,-0.06 0.54893,0.003 0.54893,0.0947 0.54893,-0.0427 0.54893,-0.0675 0.54893,0.14561 0.54893,-0.0544 0.54893,0.0816 0.54893,-0.0429 0.54893,0.0108 0.54893,0.0175 0.54893,0.0232 0.54893,0.0815 0.54893,0.0145 0.54893,-0.0194 0.54893,-0.0408 0.54893,-0.0931 0.54893,0.0847 0.54893,0.0344 0.54893,-0.0333 0.54893,-0.0522 0.54893,0.0788 0.54893,-0.0463 0.54893,-0.0191 0.54893,0.0684 0.54893,0.026 0.54893,0.0446 0.54893,0.0195 0.54893,-0.043 0.54893,-0.11659 0.54893,0.008 0.54893,-0.0881 0.54893,-0.0554 0.54893,-0.0589 0.54893,0.0569 0.54893,-0.0878 0.54893,-0.0107 0.54893,-0.0848 0.54893,-0.01 0.54893,0.009 0.54893,0.0368 0.54893,0.0169 0.54893,0.023 0.54893,0.0239 0.54893,-0.10334 0.54893,0.0473 0.54893,0.0557 0.54893,0.11011 0.54893,-0.0351 0.54893,-0.0929 0.54893,0.0133 0.54893,0.0574 0.54893,6.3e-4 0.54893,-9.8e-4 0.54893,-0.0892 0.54893,0.027 0.54893,-0.014 0.54893,-0.0317 0.54893,-0.018 0.54893,-0.0573 0.54893,-0.0866 0.54893,-0.0258 0.54893,-0.0232 0.54893,-0.0639 0.54893,-0.0752 0.54893,0.0252 0.54893,-0.11003 0.54893,-0.0346 0.54893,-0.0119 0.54893,-0.0284 0.54893,-0.0317 0.54893,0.004 0.54893,-0.10291 0.54893,-0.21775 0.54893,-0.007 0.54893,-0.0979 0.54893,-0.0112 0.54893,-0.18947 0.54893,0.0503 0.54893,0.0816 0.54893,-0.0663 0.54893,0.004 0.54893,-0.0536 0.54893,-0.1364 0.54893,-0.0786 0.54893,-0.0629 0.54893,-0.15594 0.54893,-0.0799 0.54893,-0.0833 0.54893,-0.20099 0.54893,-0.0881 0.54893,-0.14374 0.54893,-0.0455 0.54893,-0.063 0.54893,-0.11835 0.54893,-0.17896 0.54893,-0.0302 0.54893,-0.15841 0.54893,-0.13771 0.54893,-0.13863 0.54893,-0.0601 0.54893,-0.21581 0.54893,-0.0512 0.54893,-0.11511 0.54893,-0.0525 0.54893,-0.15537 0.54893,-0.17653 0.54893,-0.15932 0.54893,-0.17615 0.54893,-0.14307 0.54893,-0.0743 0.54893,-0.20261 0.54893,-0.0796 0.54893,-0.12801 0.54893,-0.27106 0.54893,-0.0555 0.54893,-0.0433 0.54893,-0.0289 0.54893,0.0476 0.54893,-0.027 0.54893,-0.0362 0.54893,-0.0246 0.54893,-0.024 0.54893,0.0375 0.54893,0.0608 0.54893,-0.0365 0.54893,-0.01 0.54893,0.0603 0.54893,0.0178 0.54893,0.039 0.54893,0.0458 0.54893,-0.0373 0.54893,0.11719 0.54893,0.0226 0.54893,0.10467 0.54893,-0.0146 0.54893,0.0136 0.54893,0.005 0.54893,0.0692 0.54893,0.21525 0.54893,0.0489 0.54893,0.16884 0.54893,0.21386 0.54893,0.138 0.54893,0.18696 0.54893,0.13793 0.54893,0.0791 0.54893,0.0528 0.54893,0.0277 0.54893,0.0515 0.54893,0.13732 0.54893,0.17054 0.54893,0.12918 0.54893,0.0284 0.54893,0.0315 0.54893,0.11698 0.54893,0.13648 0.54893,0.12593 0.54893,0.14783 0.54893,0.13962 0.54893,0.14459 0.54893,0.0946 0.54893,0.0901 0.54893,0.19652 0.54893,0.0561 0.54893,0.0998 0.54893,0.15079 0.54893,0.0802 0.54893,0.0745 0.54893,0.1106 0.54893,0.0834 0.54893,0.0987 0.54893,0.0638 0.54893,0.20667 0.54893,0.14547 0.54893,0.0312 0.54893,0.12519 0.54893,0.0442 0.54893,0.10901 0.54893,0.19339 0.54893,0.20811 0.54893,0.18105 0.54893,0.0766 0.54893,0.0582 0.54893,0.0447 0.54893,0.13285 0.54893,0.0745 0.54893,0.11363 0.54893,0.17569 0.54893,0.15967 0.54893,0.0942 0.54893,0.18623 0.54893,0.0222 0.54893,0.13398 0.54893,0.13207 0.54893,0.18333 0.54893,0.12636 0.54893,0.0614 0.54893,0.10513 0.54893,0.17498 0.54893,0.12763 0.54893,0.21834 0.54893,0.10411 0.54893,0.10641 0.54893,0.0661 0.54893,0.0986 0.54893,0.17149 0.54893,0.0926 0.54893,0.14575 0.54893,0.087 0.54893,0.16729 0.54893,0.1068 0.54893,0.12974 0.54893,0.22807 0.54893,0.16694 0.54893,0.0782 0.54893,0.15326 0.54893,0.0505 0.54893,0.19398 0.54893,0.14551 0.54893,0.14402 0.54893,0.15565 0.54893,0.0385 0.54893,0.10637 0.54893,0.14014 0.54893,0.12143 0.54893,0.077 0.54893,0.0715 0.54893,0.0596 0.54893,0.18129 0.54893,0.18704 0.54893,0.17554 0.54893,0.13919 0.54893,7.8e-4 0.54893,0.10457 0.54893,0.0992 0.54893,0.08 0.54893,0.004 0.54893,0.008 0.54893,0.0637 0.54893,0.0981 0.54893,0.10175 0.54893,0.0509 0.54893,0.0367 0.54893,0.0597 0.54893,0.0965 0.54893,0.0966 0.54893,0.0611 0.54893,0.0491 0.54893,0.0234 0.54893,0.056 0.54893,-0.0243 0.54893,-0.0522 0.54893,0.0758 0.54893,0.11092 0.54893,0.0304 0.54893,0.0739 0.54893,0.0392 0.54893,0.0841 0.54893,0.097 0.54893,0.0806 0.54893,0.0274 0.54893,0.14952 0.54893,0.0164 0.54893,0.0234 0.54893,0.10912 0.54893,0.0854 0.54893,-0.0462 0.54893,0.0871 0.54893,-0.0704 0.54893,0.16733 0.54893,-0.0641 0.54893,0.0613 0.54893,0.0531 0.54893,0.16426 0.54893,0.053 0.54893,0.0456 0.54893,-0.003 0.54893,0.0996 0.54893,0.0259 0.54893,-0.004 0.54893,0.0287 0.54893,-0.0145 0.54893,0.0543 0.54893,0.13718 0.54893,0.0302 0.54893,0.11462 0.54893,0.0345 0.54893,0.0304 0.54893,-0.0128 0.54893,0.12287 0.54893,0.0607 0.54893,-0.011 0.54893,0.0495 0.54893,0.0539 0.54893,0.0968 0.54893,0.10189 0.54893,0.0109 0.54893,0.0398 0.54893,0.0816 0.54893,0.044 0.54893,-0.0888 0.54893,0.0259 0.54893,-0.0178 0.54893,0.0349 0.54893,0.0368 0.54893,-0.0498 0.54893,0.0946 0.54893,0.012 0.54893,-0.008 0.54893,0.1044 0.54893,0.029 0.54893,0.099 0.54893,0.0641 0.54893,-0.0245 0.54893,-0.0338 0.54893,0.0526 0.54893,-0.051 0.54893,0.0192 0.54893,0.041 0.54893,0.0428 0.54893,0.0273 0.54893,0.0165 0.54893,-0.0742 0.54893,0.14646 0.54893,0.007 0.54893,-0.0187 0.54893,0.13031 0.54893,7e-4 0.54893,0.0389 0.54893,0.0408 0.54893,-0.0359 0.54893,0.0423 0.54893,0.0212 0.54893,0.0555 0.54893,0.0572 0.54893,0.0404 0.54893,-0.062 0.54893,-0.0496 0.54893,0.0136 0.54893,-0.0438 0.54893,0.0405 0.54893,0.0283 0.54893,-0.003 0.54893,0.0746 0.54893,0.004 0.54893,0.006 0.54893,0.0784 0.54893,0.0711 0.54893,-0.0366 0.54893,-0.0538 0.54893,0.0944 0.54893,-0.0317 0.54893,0.006 0.54893,0.004 0.54893,-0.0748 0.54893,-0.041 0.54893,0.0193 0.54893,-0.03 0.54893,-0.0553 0.54893,0.0178 0.54893,0.0196 0.54893,0.15178 0.54893,-0.0604 0.54893,-0.0459 0.54893,0.0126 0.54893,0.13179 0.54893,0.0586 0.54893,-0.01 0.54893,-0.002 0.54893,-0.0639 0.54893,-0.0364 0.54893,-0.14356 0.54893,-0.002 0.54893,-0.0177 0.54893,-0.0413 0.54893,-0.0168 0.54893,0.0482 0.54893,-0.0143 0.54893,0.041 0.54893,-0.13598 0.54893,0.005 0.54893,-0.0709 0.54893,0.002 0.54893,0.009 0.54893,0.0528 0.54893,-0.0597 0.54893,-0.0149 0.54893,0.0339 0.54893,0.0609 0.54893,-0.0717 0.54893,-0.0762 0.54893,-0.022 0.54893,-0.01 0.54893,0.12297 0.54893,-0.12223 0.54893,0.027 0.54893,-0.0568 0.54893,-0.0168 0.54893,-0.0456 0.54893,0.002 0.54893,-0.0467 0.54893,0.0248 0.54893,0.0589 0.54893,0.007 0.54893,-0.0308 0.54893,-0.0482 0.54893,0.0564 0.54893,0.0277 0.54893,-0.0619 0.54893,-0.0139 0.54893,-0.009 0.54893,0.007 0.54893,0.06 0.54893,-0.0105 0.54893,-0.002 0.54893,-0.0445 0.54893,-0.009 0.54893,-0.0309 0.54893,0.0584 0.54893,-0.11825 0.54893,-0.097 0.54893,0.006 0.54893,-0.0242 0.54893,-0.0461 0.54893,0.008 0.54893,-0.11458 0.54893,-0.0311 0.54893,-0.0618 0.54893,-0.0613 0.54893,0.12748 0.54893,0.0467 0.54893,-0.058 0.54893,0.0455 0.54893,0.11948 0.54893,-0.0169 0.54893,-0.0772 0.54893,0.0379 0.54893,-0.0632 0.54893,-0.0796 0.54893,-0.0803 0.54893,-0.0592 0.54893,-0.028 0.54893,-0.0127 0.54893,-0.0398 0.54893,0.0261 0.54893,-0.0541 0.54893,-0.13168 0.54893,-0.0676 0.54893,-0.0696 0.54893,0.0247 0.54893,0.0683 0.54893,-0.0972 0.54893,-0.0222 0.54893,-0.0212 0.54893,-0.0378 0.54893,0.0585 0.54893,0.0366 0.54893,-0.0865 0.54893,0.003 0.54893,-0.13814 0.54893,-0.0911 0.54893,-0.0578 0.54893,-0.10781 0.54893,-0.0346 0.54893,-0.01 0.54893,-0.0257 0.54893,-0.0481 0.54893,-0.0546 0.54893,-0.0241 0.54893,-0.0207 0.54893,0.002 0.54893,-0.0209 0.54893,-0.0707 0.54893,-0.0611 0.54893,-0.063 0.54893,-0.0553 0.54893,-0.0548 0.54893,-0.035 0.54893,-0.057 0.54893,-0.0889 0.54893,0.0621 0.54893,0.0128 0.54893,0.0411 0.54893,-0.0295 0.54893,0.006 0.54893,-0.0546 0.54893,-0.0336 0.54893,-0.0423 0.54893,0.0201 0.54893,-0.12224 0.54893,-0.003 0.54893,-0.11596 0.54893,0.0393 0.54893,-0.003 0.54893,-0.12019 0.54893,-0.0158 0.54893,-0.0529 0.54893,-0.0414 0.54893,-0.0609 0.54893,-0.0599 0.54893,-0.12981 0.54893,-0.0528 0.54893,-0.0286 0.54893,0.0893 0.54893,-0.0696 0.54893,-0.073 0.54893,-0.066 0.54893,-0.0439 0.54893,-0.0501 0.54893,-0.0789 0.54893,0.005 0.54893,-0.16743 0.54893,0.0598 0.54893,-0.0778 0.54893,-0.0322 0.54893,0.0185 0.54893,-0.003 0.54893,0.0254 0.54893,-0.0779 0.54893,-0.0241 0.54893,-0.0953 0.54893,-0.0326 0.54893,-0.13309 0.54893,0.0148 0.54893,-0.0558 0.54893,0.0686 0.54893,-0.008 0.54893,-0.003 0.54893,-0.17462 0.54893,0.0851 0.54893,-0.15661 0.54893,-0.17646 0.54893,0.0158 0.54893,0.001 0.54893,-0.048 0.54893,-0.0145 0.54893,-0.10446 0.54893,-0.0761 0.54893,-0.0401 0.54893,0.008 0.54893,-0.0415 0.54893,-0.0637 0.54893,-0.0285 0.54893,-0.0335 0.54893,-0.0269 0.54893,-0.022 0.54893,0.006 0.54893,0.003 0.54893,0.0333 0.54893,-0.0841 0.54893,-0.011 0.54893,-0.0763 0.54893,-0.0669 0.54893,-0.10253 0.54893,0.0647 0.54893,0.0257 0.54893,-0.18527 0.54893,0.0269 0.54893,-0.10718 0.54893,-0.0343 0.54893,-0.0767 0.54893,-0.0634 0.54893,-0.0732 0.54893,0.001 0.54893,-0.055 0.54893,-0.0892 0.54893,0.002 0.54893,-0.0375 0.54893,-0.0917 0.54893,-0.0701 0.54893,-0.02 0.54893,-0.0944 0.54893,-0.0715 0.54893,-0.0288 0.54893,-0.072 0.54893,-0.0237 0.54893,0.0307 0.54893,-0.004 0.54893,0.0403 0.54893,0.0628 0.54893,-0.063 0.54893,-0.0763 0.54893,-0.0384 0.54893,-0.0482 0.54893,0.0926 0.54893,-0.0748 0.54893,-0.0857 0.54893,-0.0101 0.54893,-0.0114 0.54893,-0.0135 0.54893,-0.004 0.54893,-3.2e-4 0.54893,-0.0774 0.54893,0.003 0.54893,0.0247 0.54893,-0.002 0.54893,0.058 0.54893,-0.0757 0.54893,-0.068 0.54893,-0.0789 0.54893,-0.0372 0.54893,-0.004 0.54893,0.0332 0.54893,-0.0975 0.54893,-0.0571 0.54893,0.0175 0.54893,0.0208 0.54893,0.0414 0.54893,-0.0866 0.54893,-0.005 0.54893,-0.0209 0.54893,-0.10041 0.54893,0.0141 0.54893,-0.0612 0.54893,0.0425 0.54893,0.11796 0.54893,-0.11366 0.54893,0.0319 0.54893,2.5e-4 0.54893,-0.002 0.54893,-0.0505 0.54893,0.10478 0.54893,-0.11758 0.54893,-0.0104 0.54893,-0.008 0.54893,0.057 0.54893,0.0365 0.54893,-0.0735 0.54893,0.0471 0.54893,0.007 0.54893,0.0247 0.54893,-0.0799 0.54893,-0.0691 0.54893,-0.0205 0.54893,-0.0964 0.54893,0.0657 0.54893,0.0706 0.54893,0.0281 0.54893,-0.036 0.54893,0.0315 0.54893,-0.0162 0.54893,0.009 0.54893,-0.0382 0.54893,-0.006 0.54893,0.0623 0.54893,0.0139 0.54893,0.13027 0.54893,0.0546 0.54893,-0.15351 0.54893,0.022 0.54893,-0.0143 0.54893,0.0823 0.54893,0.0408 0.54893,-0.0848 0.54893,-0.0294 0.54893,-0.0442 0.54893,0.008 0.54893,-0.0316 0.54893,-0.0229 0.54893,0.0465 0.54893,-0.002 0.54893,0.0752 0.54893,0.0315 0.54893,0.0689 0.54893,-4.9e-4 0.54893,-0.006 0.54893,-0.0591 0.54893,0.09 0.54893,0.036 0.54893,-0.0701 0.54893,0.0251 0.54893,0.0557 0.54893,-0.0651 0.54893,0.058 0.54893,0.0725 0.54893,0.0395 0.54893,-0.0292 0.54893,0.002 0.54893,-0.0428 0.54893,-0.068 0.54893,-0.0392 0.54893,-0.0201 0.54893,-0.0852 0.54893,0.0392 0.54893,7e-4 0.54893,-0.0951 0.54893,-0.008 0.54893,0.0801 0.54893,0.0437 0.54893,0.014 0.54893,-0.0184 0.54893,-0.12107 0.54893,0.0252 0.54893,-0.0397 0.54893,-0.001 0.54893,-0.0702 0.54893,0.12548 0.54893,0.11546 0.54893,-0.019 0.54893,0.049 0.54893,-0.11881 0.54893,-0.0265 0.54893,-0.001 0.54893,-0.0599 0.54893,0.0176 0.54893,-0.0134 0.54893,-0.003 0.54893,-0.0267 0.54893,0.006 0.54893,0.0735 0.54893,-0.001 0.54893,0.10605 0.54893,0.0409 0.54893,0.0511 0.54893,0.0313 0.54893,-0.0249 0.54893,-0.0583 0.54893,0.0635 0.54893,-0.0467 0.54893,-0.0426 0.54893,-0.0265 0.54893,0.0554 0.54893,-0.0164 0.54893,0.002 0.54893,0.0979 0.54893,-0.0485 0.54893,-0.004 0.54893,-0.0849 0.54893,0.0245 0.54893,0.0878 0.54893,0.002 0.54893,0.036 0.54893,-0.008 0.54893,0.10337 0.54893,0.0775 0.54893,-0.0222 0.54893,0.1295 0.54893,0.0174 0.54893,-0.0186 0.54893,-0.0184 0.54893,4.2e-4 0.54893,0.0553 0.54893,-0.12626 0.54893,0.006 0.54893,0.0839 0.54893,0.0922 0.54893,-0.003 0.54893,0.14494 0.54893,-0.004 0.54893,-0.0133 0.54893,0.0452 0.54893,-0.0395 0.54893,0.006 0.54893,0.0729 0.54893,0.0185 0.54893,0.0358 0.54893,0.045 0.54893,0.0106 0.54893,-0.0656 0.54893,-0.003 0.54893,-0.0527 0.54893,-0.0443 0.54893,0.11899 0.54893,-0.017 0.54893,-0.11553 0.54893,0.0352 0.54893,-0.0211 0.54893,-0.0282 0.54893,-0.0226 0.54893,0.0693 0.54893,0.04 0.54893,0.0283 0.54893,0.0725 0.54893,-0.025 0.54893,-0.12075 0.54893,0.0222 0.54893,0.0159 0.54893,-0.006 0.54893,-0.007 0.54893,-0.0277 0.54893,0.0348 0.54893,0.0473 0.54893,0.0515 0.54893,-0.0359 0.54893,0.004 0.54893,0.0235 0.54893,-0.1271 0.54893,0.0432 0.54893,-0.0423 0.54893,-0.0223 0.54893,0.14522 0.54893,0.0698 0.54893,0.0533 0.54893,0.13715 0.54893,-0.0437 0.54893,0.12389 0.54893,0.0692 0.54893,0.0825 0.54893,0.0586 0.54893,-0.0489 0.54893,-0.005 0.54893,0.006 0.54893,0.0454 0.54893,-0.16136 0.54893,-0.036 0.54893,0.11251 0.54893,0.0662 0.54893,-0.006 0.54893,0.0244 0.54893,0.0232 0.54893,0.0347 0.54893,0.004 0.54893,-0.0134 0.54893,0.0978 0.54893,0.001 0.54893,0.001 0.54893,0.10418 0.54893,0.005 0.54893,0.0601 0.54893,0.0173 0.54893,-0.005 0.54893,-0.0553 0.54893,0.10365 0.54893,0.0708 0.54893,-0.0237 0.54893,-0.028 0.54893,0.0141 0.54893,0.009 0.54893,-0.0333 0.54893,-0.0355 0.54893,0.0698 0.54893,-1.7e-4 0.54893,0.013 0.54893,0.004 0.54893,0.0372 0.54893,0.032 0.54893,0.0477" />
                </g>
              </g>
            </g>
          </g>
        </g>
      </g>
    </g>
    <g
       style="fill:none;stroke:#000000;stroke-width:1;stroke-linecap:square;stroke-linejoin:bevel"
       id="PlotItem_4" />
    <g
       style="fill:none;stroke:#000000;stroke-width:1;stroke-linecap:square;stroke-linejoin:bevel"
       id="PlotItem_5"
       transform="translate(0,-144)">
      <g
         style="fill:none;stroke:#000000;stroke-width:1;stroke-linecap:square;stroke-linejoin:bevel"
         id="AxisItem_3">
        <g
           style="font-size:11.875px;font-style:normal;font-weight:400;fill:none;stroke:#969696;stroke-width:1;stroke-linecap:square;stroke-linejoin:bevel;stroke-opacity:1;font-family:Sans Serif"
           id="g178"
           font-weight="400"
           font-style="normal"
           font-size="11.875">
          <polyline
             style="fill:none"
             id="polyline180"
             vector-effect="non-scaling-stroke"
             points="45.0,322.333 45.0,396.446566312" />
        </g>
        <g
           style="font-size:11.875px;font-style:normal;font-weight:400;fill:none;stroke:#969696;stroke-width:1;stroke-linecap:square;stroke-linejoin:bevel;stroke-opacity:1;font-family:Sans Serif"
           id="g182"
           font-weight="400"
           font-style="normal"
           font-size="11.875">
          <polyline
             style="fill:none"
             id="polyline184"
             vector-effect="non-scaling-stroke"
             points="45.5,359.389833688 50.5,359.389833688" />
        </g>
        <g
           style="font-size:11.875px;font-style:normal;font-weight:400;fill:none;stroke:#969696;stroke-width:1;stroke-linecap:square;stroke-linejoin:bevel;stroke-opacity:0.49803904;font-family:Sans Serif"
           id="g186"
           font-weight="400"
           font-style="normal"
           font-size="11.875">
          <polyline
             style="fill:none"
             id="polyline188"
             vector-effect="non-scaling-stroke"
             points="45.5,395.021361784 48.8333,395.021361784" />
          <polyline
             style="fill:none"
             id="polyline190"
             vector-effect="non-scaling-stroke"
             points="45.5,323.758265166 48.8333,323.758265166" />
        </g>
        <g
           style="font-size:11.875px;font-style:normal;font-weight:400;fill:none;stroke:#969696;stroke-width:1;stroke-linecap:square;stroke-linejoin:bevel;stroke-opacity:0.33333297;font-family:Sans Serif"
           id="g192"
           font-weight="400"
           font-style="normal"
           font-size="11.875">
          <polyline
             style="fill:none"
             id="polyline194"
             vector-effect="non-scaling-stroke"
             points="45.5,387.895035952 48.0,387.895035952" />
          <polyline
             style="fill:none"
             id="polyline196"
             vector-effect="non-scaling-stroke"
             points="45.5,380.76871012 48.0,380.76871012" />
          <polyline
             style="fill:none"
             id="polyline198"
             vector-effect="non-scaling-stroke"
             points="45.5,373.642384288 48.0,373.642384288" />
          <polyline
             style="fill:none"
             id="polyline200"
             vector-effect="non-scaling-stroke"
             points="45.5,366.516058456 48.0,366.516058456" />
          <polyline
             style="fill:none"
             id="polyline202"
             vector-effect="non-scaling-stroke"
             points="45.5,352.263507856 48.0,352.263507856" />
          <polyline
             style="fill:none"
             id="polyline204"
             vector-effect="non-scaling-stroke"
             points="45.5,345.137182024 48.0,345.137182024" />
          <polyline
             style="fill:none"
             id="polyline206"
             vector-effect="non-scaling-stroke"
             points="45.5,338.010856192 48.0,338.010856192" />
          <polyline
             style="fill:none"
             id="polyline208"
             vector-effect="non-scaling-stroke"
             points="45.5,330.884570786 48.0,330.884570786" />
        </g>
        <g
           style="font-size:11.875px;font-style:normal;font-weight:400;fill:none;stroke:#969696;stroke-width:1;stroke-linecap:square;stroke-linejoin:bevel;stroke-opacity:1;font-family:Sans Serif"
           id="g210"
           transform="matrix(1,0,0,1.01064,5.5,322.333)"
           font-weight="400"
           font-style="normal"
           font-size="11.875">
          <text
             style="font-size:11.875px;font-style:normal;font-weight:400;fill:#969696;fill-opacity:1;stroke:none"
             id="text212"
             y="40.6562"
             xml:space="preserve"
             x="31"
             font-weight="400"
             font-style="normal"
             font-size="11.875">0</text>
          <text
             style="font-size:11.875px;font-style:normal;font-weight:400;fill:#969696;fill-opacity:1;stroke:none"
             id="text214"
             y="75.921898"
             xml:space="preserve"
             x="19"
             font-weight="400"
             font-style="normal"
             font-size="11.875">-10</text>
          <text
             style="font-size:11.875px;font-style:normal;font-weight:400;fill:#969696;fill-opacity:1;stroke:none"
             id="text216"
             y="5.4218798"
             xml:space="preserve"
             x="23"
             font-weight="400"
             font-style="normal"
             font-size="11.875">10</text>
        </g>
      </g>
      <g
         style="fill:none;stroke:#000000;stroke-width:1;stroke-linecap:square;stroke-linejoin:bevel"
         id="ViewBox_5">
        <g
           style="font-size:11.875px;font-style:normal;font-weight:400;fill:none;stroke:none;font-family:Sans Serif"
           id="g219"
           font-weight="400"
           font-style="normal"
           font-size="11.875">
          <path
             inkscape:connector-curvature="0"
             id="path221"
             vector-effect="non-scaling-stroke"
             d="m 45,322.333 616,0 0,73.3333 -616,0 0,-73.3333" />
        </g>
        <clipPath
           id="ViewBox_5_clip">
          <path
             inkscape:connector-curvature="0"
             id="path224"
             vector-effect="non-scaling-stroke"
             d="m 45,322.333 616,0 0,73.334 -616,0 0,-73.334" />
        </clipPath>
        <g
           id="g226"
           clip-path="url(#ViewBox_5_clip)">
          <g
             style="fill:none;stroke:#000000;stroke-width:1;stroke-linecap:square;stroke-linejoin:bevel"
             id="ChildGroup_5">
            <g
               style="fill:none;stroke:#000000;stroke-width:1;stroke-linecap:square;stroke-linejoin:bevel"
               id="InfiniteLine_3">
              <g
                 style="font-size:11.875px;font-style:normal;font-weight:400;fill:none;stroke:#e6e6af;stroke-width:1;stroke-linecap:square;stroke-linejoin:bevel;stroke-opacity:1;font-family:Sans Serif"
                 id="g230"
                 font-weight="400"
                 font-style="normal"
                 font-size="11.875">
                <polyline
                   style="fill:none"
                   id="polyline232"
                   vector-effect="non-scaling-stroke"
                   points="661.0017971,359.0 44.999961655,359.0" />
              </g>
            </g>
            <g
               id="PlotDataItem_5">
              <g
                 style="fill:none;stroke:#000000;stroke-width:1;stroke-linecap:square;stroke-linejoin:bevel"
                 id="PlotCurveItem_5">
                <g
                   style="font-size:11.875px;font-style:normal;font-weight:400;fill:none;stroke:#0000ff;stroke-width:1;stroke-linecap:square;stroke-linejoin:bevel;stroke-opacity:1;font-family:Sans Serif"
                   id="g236"
                   font-weight="400"
                   font-style="normal"
                   font-size="11.875">
                  <path
                     inkscape:connector-curvature="0"
                     id="path238"
                     vector-effect="non-scaling-stroke"
                     d="m 29.4743,350.43269 0.54893,2.67949 0.54893,-0.70513 0.54893,0.77564 0.54893,-0.91666 0.54893,0.84615 0.54893,-1.44551 0.54893,0.88141 0.54893,-2.22115 0.54893,1.30448 0.54893,-0.77564 0.54893,-1.58654 0.54893,2.08013 0.54893,0.91667 0.54893,-1.26923 0.54893,0.35256 0.54893,0.14103 0.54893,-0.8109 0.54893,1.19872 0.54893,-1.86856 0.54893,3.2083 0.54893,-0.31731 0.54893,-0.81089 0.54893,0 0.54893,0.14102 0.54893,-0.0705 0.54893,1.83333 0.54893,-1.9391 0.54893,0.14102 0.54893,-1.33974 L 45.9422,348 l 0.54893,5.64103 0.54893,-4.19551 0.54893,3.38461 0.54893,-1.41026 0.54893,-0.70512 0.54893,2.53846 0.54893,-1.23398 0.54893,-1.375 0.54893,1.83334 0.54893,-0.56407 0.54893,0.24676 0.54893,-2.60898 0.54893,2.96154 0.54893,-1.97436 0.54893,-0.38778 0.54893,2.57368 0.54893,-3.73718 0.54893,1.26923 0.54893,2.22116 0.54893,-1.41026 0.54893,1.33974 0.54893,0.66987 0.54893,-2.43269 0.54893,2.08013 0.54893,-1.19872 0.54893,-0.52884 0.54893,-1.65705 0.54893,3.13782 0.54893,-0.66988 0.54893,0.8109 0.54893,-0.84612 0.54893,0.63458 0.54893,-1.79807 0.54893,-1.69231 0.54893,6.20513 0.54893,-4.75962 0.54893,2.85577 0.54893,-0.45833 0.54893,0.14102 0.54893,-2.57371 0.54893,-0.21154 0.54893,1.41025 0.54893,-0.3173 0.54893,1.19871 0.54893,0.70513 0.54893,-1.9391 0.54893,0.42308 0.54893,-1.375 0.54893,2.11538 0.54893,-1.16346 0.54893,1.30449 0.54893,0.10577 0.54893,-3.45513 0.54893,2.99679 0.54893,-0.38782 0.54893,-1.09295 0.54893,2.32693 0.54893,-0.10577 0.54893,-0.63462 0.54893,-0.91667 0.54893,1.93911 0.54893,-1.48074 0.54893,0.35253 0.54893,-1.83333 0.54893,0.84615 0.54893,-0.74038 0.54893,2.1859 0.54893,0 0.54893,-1.72757 0.54893,-0.28205 0.54893,1.30449 0.54893,-1.33975 0.54893,0.14103 0.54893,-1.09295 0.54893,2.60897 0.54893,0.49359 0.54893,-1.48076 0.54893,-0.38779 0.54893,2.15061 0.54893,-1.05766 0.54893,-0.21154 0.54893,-0.66987 0.54893,-0.88141 0.54893,1.55128 0.54893,-0.14106 0.54893,1.51602 0.54893,-2.08012 0.54893,2.00961 0.54893,-0.77564 0.54893,-1.44551 0.54893,4.19555 0.54893,-1.93914 0.54893,-3.03202 0.54893,-0.95195 0.54893,-1.09295 0.54893,4.51282 0.54893,-2.75 0.54893,2.46794 0.54893,-1.58653 0.54893,0.77564 0.54893,0.77564 0.54893,1.86859 0.54893,-4.79487 0.54893,3.03205 0.54893,0.21154 0.54893,-1.69231 0.54893,1.26923 0.54893,0.42308 0.54893,-1.02244 0.54893,-0.31731 0.54893,0.42308 0.54893,-0.31731 0.54893,2.46795 0.54893,-2.92628 0.54893,2.29166 0.54893,-3.20833 0.54893,-0.17628 0.54893,4.08974 0.54893,1.19876 0.54893,-3.94872 0.54893,-0.81093 0.54893,0.17628 0.54893,-1.26923 0.54893,3.77243 0.54893,-2.00958 0.54893,0.38779 0.54893,-0.21154 0.54893,1.51603 0.54893,-2.08013 0.54893,-1.23398 0.54893,1.93911 0.54893,0.74038 0.54893,-0.0705 0.54893,0.49359 0.54893,-2.89103 0.54893,2.04487 0.54893,-3.34935 0.54893,6.02884 0.54893,-1.19872 0.54893,-1.97432 0.54893,0.10573 0.54893,0.84616 0.54893,-0.2468 0.54893,-0.91663 0.54893,3.7724 0.54893,-3.03205 0.54893,0.10577 0.54893,-2.11539 0.54893,2.36222 0.54893,1.0224 0.54893,-3.63141 0.54893,4.125 0.54893,2.25641 0.54893,-4.47756 0.54893,-0.31728 0.54893,1.33971 0.54893,-3.52564 0.54893,3.27885 0.54893,-2.36218 0.54893,2.96154 0.54893,-0.70513 0.54893,-2.85577 0.54893,0.98721 0.54893,0.7051 0.54893,-1.33975 0.54893,2.9968 0.54893,0.35256 0.54893,-1.41026 0.54893,-0.77564 0.54893,1.48077 0.54893,-0.35256 0.54893,-0.8109 0.54893,-1.375 0.54893,1.41029 0.54893,1.23394 0.54893,-0.88141 0.54893,1.02244 0.54893,-2.60898 0.54893,3.34936 0.54893,-2.92624 0.54893,-0.84619 0.54893,1.375 0.54893,1.23401 0.54893,-0.0353 0.54893,-0.95192 0.54893,-1.19872 0.54893,1.86859 0.54893,-2.11538 0.54893,0.59939 0.54893,3.63138 0.54893,-0.88141 0.54893,-0.14103 0.54893,-0.7756 0.54893,-1.33978 0.54893,1.83333 0.54893,1.375 0.54893,-2.5032 0.54893,0.70516 0.54893,0.81086 0.54893,0.84615 0.54893,-0.66987 0.54893,-0.28205 0.54893,-0.91663 0.54893,1.86855 0.54893,-2.22115 0.54893,-0.17628 0.54893,-1.09291 0.54893,-1.30453 0.54893,4.79487 0.54893,-2.25641 0.54893,2.25641 0.54893,-0.49359 0.54893,1.93914 0.54893,-2.46798 0.54893,-1.44551 0.54893,0.38782 0.54893,3.56089 0.54893,-2.89102 0.54893,-1.41026 0.54893,1.58654 0.54893,1.09295 0.54893,-0.88141 0.54893,-1.83333 0.54893,0.35256 0.54893,-0.49359 0.54893,2.1859 0.54893,0.59936 0.54893,-1.93911 0.54893,0.95193 0.54893,-1.44552 0.54893,2.50321 0.54893,-2.32692 0.54893,0.70512 0.54893,0.66988 0.54893,-0.28206 0.54893,1.19872 0.54893,-1.79807 0.54893,-2.22116 0.54893,0.98718 0.54893,0.10577 0.54893,-0.84615 0.54893,-0.38782 0.54893,0.52884 0.54893,1.48077 0.54893,0.2468 0.54893,-0.0353 0.54893,-0.52885 0.54893,1.65706 0.54893,-3.84295 0.54893,2.64423 0.54893,2.22115 0.54893,-3.10256 0.54893,2.85577 0.54893,-5.00641 0.54893,1.76282 0.54893,-0.31731 0.54893,0.49359 0.54893,-0.14099 0.54893,2.74996 0.54893,-4.19551 0.54893,2.08013 0.54893,-2.46795 0.54893,0.28205 0.54893,1.69231 0.54893,-0.14099 0.54893,-0.14103 0.54893,0.91663 0.54893,-1.97435 0.54893,1.83333 0.54893,-2.25641 0.54893,-2.32692 0.54893,0.21154 0.54893,0.24679 0.54893,2.92628 0.54893,-1.23397 0.54893,-0.0705 0.54893,-0.66987 0.54893,2.11539 0.54893,-1.33975 0.54893,0.35257 0.54893,-2.29167 0.54893,0.66987 0.54893,0.2468 0.54893,-1.90385 0.54893,0.28205 0.54893,1.83334 0.54893,-1.0577 0.54893,0.0705 0.54893,-0.59936 0.54893,0.24679 0.54893,0.2468 0.54893,0.17628 0.54893,-1.26923 0.54893,-1.30449 0.54893,-1.30445 0.54893,2.11535 0.54893,-1.37496 0.54893,1.86855 0.54893,-2.46791 0.54893,0.98714 0.54893,-1.55128 0.54893,2.96154 0.54893,-1.79804 0.54893,-1.44555 0.54893,-1.23398 0.54893,1.83334 0.54893,-0.45834 0.54893,-2.00961 0.54893,1.58654 0.54893,-2.11539 0.54893,0.8109 0.54893,-2.11538 0.54893,0.52884 0.54893,-0.49359 0.54893,1.26923 0.54893,-1.23397 0.54893,-1.05769 0.54893,-0.98718 0.54893,-0.21154 0.54893,-0.70513 0.54893,-1.23397 0.54893,0.21154 0.54893,-0.63462 0.54893,-0.45833 0.54893,-0.77564 0.54893,-0.91667 0.54893,-0.95192 0.54893,-1.12821 0.54893,-0.52884 0.54893,-0.28205 0.54893,-1.51603 0.54893,-0.49359 0.54893,-0.91667 0.54893,-0.84615 0.54893,-0.5641 0.54893,-0.35257 0.54893,-0.0353 0.54893,0 0.54893,0.0353 0.54893,-0.0353 0.54893,0.0353 0.54893,0.77564 0.54893,1.90385 0.54893,2.64423 0.54893,3.38461 0.54893,3.70193 0.54893,6.4167 0.54893,1.51599 0.54893,9.80128 0.54893,3.94871 0.54893,-2.99679 0.54893,1.72756 0.54893,1.69231 0.54893,3.80769 0.54893,-2.99679 0.54893,0.0705 0.54893,2.71471 0.54893,-3.80769 0.54893,0.59936 0.54893,-0.74038 0.54893,3.10256 0.54893,-3.70192 0.54893,0.81089 0.54893,-0.0705 0.54893,3.77244 0.54893,-2.36218 0.54893,-2.82048 0.54893,2.18586 0.54893,-1.83333 0.54893,1.02243 0.54893,1.62183 0.54893,-1.76285 0.54893,-0.21154 0.54893,1.58654 0.54893,-2.11539 0.54893,2.64423 0.54893,-0.14099 0.54893,-1.37503 0.54893,3.84295 0.54893,-4.9359 0.54893,-1.05769 0.54893,1.44551 0.54893,1.05769 0.54893,-3.20833 0.54893,3.77244 0.54893,0.81089 0.54893,-2.57371 0.54893,0.66987 0.54893,-3.45509 0.54893,6.31086 0.54893,-2.57372 0.54893,1.1282 0.54893,-0.35253 0.54893,2.89099 0.54893,-5.18269 0.54893,2.64423 0.54893,1.12824 0.54893,-1.12824 0.54893,0.2468 0.54893,-0.91667 0.54893,1.48077 0.54893,-1.375 0.54893,-3.06731 0.54893,0.8109 0.54893,2.22119 0.54893,0.63458 0.54893,-3.80769 0.54893,2.32692 0.54893,2.29167 0.54893,-1.72757 0.54893,1.44552 0.54893,-2.15064 0.54893,2.96153 0.54893,-4.40705 0.54893,1.51603 0.54893,1.97436 0.54893,-1.375 0.54893,-0.8109 0.54893,4.19551 0.54893,-1.9391 0.54893,-0.77564 0.54893,-0.17628 0.54893,-2.00962 0.54893,2.32692 0.54893,0.59936 0.54893,2.82052 0.54893,-2.78526 0.54893,-0.66987 0.54893,-1.44551 0.54893,1.62179 0.54893,-2.67949 0.54893,2.04491 0.54893,0.77561 0.54893,0.66987 0.54893,-3.34936 0.54893,3.73718 0.54893,-5.99359 0.54893,3.73718 0.54893,-0.35257 0.54893,0.56411 0.54893,2.36218 0.54893,-3.49039 0.54893,2.11539 0.54893,1.05769 0.54893,-2.71475 0.54893,-2.39743 0.54893,5.04166 0.54893,0.2468 0.54893,-3.41987 0.54893,2.39743 0.54893,-1.05769 0.54893,2.57372 0.54893,-3.98397 0.54893,1.86859 0.54893,1.65705 0.54893,-3.59616 0.54893,1.72757 0.54893,2.43269 0.54893,-2.53846 0.54893,0.35256 0.54893,1.30452 0.54893,-4.2308 0.54893,2.85577 0.54893,-2.57372 0.54893,2.64423 0.54893,0.35257 0.54893,-1.69231 0.54893,3.03205 0.54893,-2.04487 0.54893,-0.35257 0.54893,0.28209 0.54893,-0.88145 0.54893,4.01923 0.54893,-1.72756 0.54893,-4.97115 0.54893,3.06731 0.54893,0.63461 0.54893,3.45516 0.54893,-2.50324 0.54893,0.70513 0.54893,-5.74679 0.54893,2.57372 0.54893,0.63461 0.54893,-0.35256 0.54893,0.95192 0.54893,1.30449 0.54893,-1.76282 0.54893,1.41025 0.54893,-0.28205 0.54893,-2.25641 0.54893,1.09295 0.54893,2.57372 0.54893,2.11538 0.54893,-7.29807 0.54893,3.20833 0.54893,-4.40705 0.54893,3.20833 0.54893,5.81731 0.54893,-4.75962 0.54893,0.77564 0.54893,-4.08974 0.54893,7.54487 0.54893,-6.52243 0.54893,3.27884 0.54893,-0.45833 0.54893,-0.42308 0.54893,-3.27884 0.54893,4.4423 0.54893,-0.45833 0.54893,1.23397 0.54893,-4.16022 0.54893,1.41022 0.54893,-1.83333 0.54893,0.8109 0.54893,3.59619 0.54893,-0.31735 0.54893,-2.04487 0.54893,-1.76282 0.54893,1.23398 0.54893,-1.51603 0.54893,1.12821 0.54893,0.21154 0.54893,1.55128 0.54893,-2.53846 0.54893,0.42307 0.54893,0.49359 0.54893,1.44555 0.54893,-0.21157 0.54893,0.3173 0.54893,0.88141 0.54893,-0.98714 0.54893,-0.84619 0.54893,1.48077 0.54893,-3.73718 0.54893,5.74679 0.54893,-4.79487 0.54893,2.46795 0.54893,-0.63461 0.54893,1.375 0.54893,-1.72757 0.54893,-0.10577 0.54893,-0.49355 0.54893,-0.56414 0.54893,4.58333 0.54893,-2.29166 0.54893,-0.49359 0.54893,3.38461 0.54893,-4.23077 0.54893,0.42308 0.54893,-0.66987 0.54893,2.96154 0.54893,-2.9968 0.54893,-0.77564 0.54893,1.76282 0.54893,-1.30448 0.54893,2.18589 0.54893,-3.10256 0.54893,0.21154 0.54893,0.77564 0.54893,3.94872 0.54893,-3.5609 0.54893,-0.66987 0.54893,0.21154 0.54893,-0.35257 0.54893,1.97436 0.54893,0.17628 0.54893,-0.81089 0.54893,-2.75 0.54893,4.19551 0.54893,-1.65705 0.54893,-1.02244 0.54893,2.1859 0.54893,0.52884 0.54893,-3.45512 0.54893,1.41025 0.54893,-0.35256 0.54893,2.96154 0.54893,-2.82048 0.54893,-0.9167 0.54893,2.43272 0.54893,3.27881 0.54893,-4.97115 0.54893,0.8109 0.54893,-0.0705 0.54893,1.26923 0.54893,-1.90385 0.54893,-0.31731 0.54893,0.10577 0.54893,0.95193 0.54893,-0.52885 0.54893,1.48077 0.54893,1.05769 0.54893,-2.46795 0.54893,-0.74038 0.54893,-1.09295 0.54893,-2.15064 0.54893,6.0641 0.54893,-2.89102 0.54893,2.39743 0.54893,-2.85577 0.54893,5.99363 0.54893,-4.12504 0.54893,-1.79804 0.54893,2.15061 0.54893,1.02243 0.54893,-3.94872 0.54893,2.89103 0.54893,-0.31731 0.54893,-3.41987 0.54893,2.36218 0.54893,3.8782 0.54893,-1.72756 0.54893,-2.60897 0.54893,0.42307 0.54893,-1.09295 0.54893,2.11539 0.54893,1.30449 0.54893,0.21153 0.54893,-5.74679 0.54893,3.91346 0.54893,1.12821 0.54893,3.34939 0.54893,-3.38462 0.54893,-2.0449 0.54893,1.79811 0.54893,0.59932 0.54893,-0.88141 0.54893,1.33975 0.54893,1.41025 0.54893,-5.11218 0.54893,4.44231 0.54893,-0.42308 0.54893,-1.30448 0.54893,1.33974 0.54893,-1.44551 0.54893,-3.17308 0.54893,1.93914 0.54893,4.08971 0.54893,-2.1859 0.54893,-1.41026 0.54893,2.60898 0.54893,-2.1859 0.54893,1.72756 0.54893,-3.56089 0.54893,-1.72757 0.54893,3.5609 0.54893,-0.5641 0.54893,1.05769 0.54893,0.28205 0.54893,-0.84615 0.54893,0.0705 0.54893,-1.05769 0.54893,1.76282 0.54893,0 0.54893,-1.09295 0.54893,1.9391 0.54893,-0.31731 0.54893,-2.89102 0.54893,2.78526 0.54893,-1.33975 0.54893,2.75 0.54893,-3.27884 0.54893,0.38782 0.54893,-0.14103 0.54893,4.44234 0.54893,-2.64426 0.54893,2.5032 0.54893,-2.99679 0.54893,0.66987 0.54893,-3.41984 0.54893,2.82048 0.54893,0.74039 0.54893,-2.85577 0.54893,0 0.54893,2.67948 0.54893,-0.66987 0.54893,-1.69227 0.54893,2.46791 0.54893,-0.52884 0.54893,-4.26603 0.54893,2.57372 0.54893,2.04487 0.54893,1.23397 0.54893,-2.82051 0.54893,1.48077 0.54893,0.0353 0.54893,0.84615 0.54893,-0.17628 0.54893,-3.66667 0.54893,1.30449 0.54893,-0.59936 0.54893,-0.88141 0.54893,2.00962 0.54893,0.88141 0.54893,-1.48077 0.54893,2.64423 0.54893,-0.84616 0.54893,-0.49359 0.54893,-2.92628 0.54893,-1.55128 0.54893,4.16026 0.54893,-2.64423 0.54893,1.33974 0.54893,0.77564 0.54893,-0.10577 0.54893,0.0353 0.54893,-0.28205 0.54893,1.05769 0.54893,-0.77564 0.54893,2.57372 0.54893,-3.70193 0.54893,2.25641 0.54893,-2.99676 0.54893,2.36215 0.54893,-1.51603 0.54893,2.96154 0.54893,-1.72756 0.54893,-2.4327 0.54893,4.90064 0.54893,1.26923 0.54893,-1.83329 0.54893,-1.12824 0.54893,-1.72757 0.54893,0.91667 0.54893,-0.10577 0.54893,-1.02243 0.54893,4.05448 0.54893,-5.67628 0.54893,1.44551 0.54893,1.69231 0.54893,-0.0353 0.54893,-0.3173 0.54893,2.39743 0.54893,-2.5032 0.54893,-2.71475 0.54893,3.5609 0.54893,-2.57372 0.54893,2.08013 0.54893,-3.34936 0.54893,1.26923 0.54893,1.79808 0.54893,-0.0353 0.54893,3.49039 0.54893,-2.11539 0.54893,-3.27884 0.54893,1.58654 0.54893,1.48076 0.54893,-0.0353 0.54893,2.8558 0.54893,-3.17311 0.54893,-2.39743 0.54893,-2.43266 0.54893,4.30128 0.54893,-2.04491 0.54893,3.38462 0.54893,-0.31731 0.54893,3.03205 0.54893,-4.51282 0.54893,0.2468 0.54893,1.76282 0.54893,-5.46475 0.54893,5.39423 0.54893,-0.38782 0.54893,0.0705 0.54893,-2.53846 0.54893,-2.57372 0.54893,4.61859 0.54893,-1.93907 0.54893,1.72753 0.54893,0.8109 0.54893,0.59935 0.54893,-3.0673 0.54893,1.33974 0.54893,-1.1282 0.54893,-0.14103 0.54893,0.14103 0.54893,2.67952 0.54893,-1.51606 0.54893,0.95192 0.54893,-4.51282 0.54893,2.64423 0.54893,3.63141 0.54893,-4.58333 0.54893,-0.31731 0.54893,1.48077 0.54893,0.28205 0.54893,-0.66987 0.54893,-1.65705 0.54893,3.52564 0.54893,0.14102 0.54893,-1.33974 0.54893,0.24683 0.54893,-0.17632 0.54893,-0.0705 0.54893,2.85577 0.54893,-2.75 0.54893,-0.95192 0.54893,-0.59936 0.54893,2.11538 0.54893,0.0353 0.54893,-0.98718 0.54893,0.17628 0.54893,0.63462 0.54893,-2.1859 0.54893,0.45833 0.54893,-0.14102 0.54893,2.32695 0.54893,0.7051 0.54893,-0.63462 0.54893,-2.57372 0.54893,2.89103 0.54893,0.8109 0.54893,-1.79808 0.54893,-1.1282 0.54893,2.74999 0.54893,-1.05769 0.54893,-0.49359 0.54893,-0.66987 0.54893,-0.28205 0.54893,-2.64423 0.54893,5.11221 0.54893,2.15061 0.54893,2.00961 0.54893,-6.6282 0.54893,4.61859 0.54893,-3.49038 0.54893,-1.79808 0.54893,1.44551 0.54893,3.27885 0.54893,-5.46475 0.54893,2.4327 0.54893,-0.14103 0.54893,-0.10577 0.54893,1.79808 0.54893,-0.14099 0.54893,-1.05773 0.54893,-1.97436 0.54893,1.48077 0.54893,-2.67949 0.54893,2.1859 0.54893,-2.5032 0.54893,4.86538 0.54893,-3.34936 0.54893,-1.51602 0.54893,4.86538 0.54893,-1.375 0.54893,-1.69231 0.54893,0.56411 0.54893,0.0352 0.54893,1.33974 0.54893,-2.18589 0.54893,0.21154 0.54893,1.65705 0.54893,-4.65385 0.54893,4.75962 0.54893,1.23397 0.54893,0.49359 0.54893,-4.33654 0.54893,4.125 0.54893,-3.80769 0.54893,1.19872 0.54893,-1.12821 0.54893,0.17629 0.54893,2.15064 0.54893,-0.70513 0.54893,0.45833 0.54893,-0.52881 0.54893,0.2115 0.54893,-6.24038 0.54893,3.45513 0.54893,-1.51603 0.54893,5.7468 0.54893,-5.88779 0.54893,3.80766 0.54893,-1.26923 0.54893,1.97436 0.54893,0.66987 0.54893,0.24679 0.54893,-4.23077 0.54893,0.84616 0.54893,1.55128 0.54893,0.91667 0.54893,0.81089 0.54893,-2.85577 0.54893,0.42308 0.54893,1.375 0.54893,-0.17628 0.54893,-1.72756 0.54893,1.44551 0.54893,-1.55128 0.54893,-0.52885 0.54893,-0.5641 0.54893,2.43269 0.54893,-0.52885 0.54893,1.55129 0.54893,-0.45834 0.54893,-0.0705 0.54893,-0.88141 0.54893,1.02247 0.54893,1.79804 0.54893,0.95192 0.54893,-3.34935 0.54893,-0.84616 0.54893,-0.14102 0.54893,0.42307 0.54893,-0.38782 0.54893,1.23398 0.54893,-0.2468 0.54893,2.67949 0.54893,-1.41026 0.54893,-1.58654 0.54893,2.89103 0.54893,-2.96154 0.54893,0.0705 0.54893,-0.77564 0.54893,3.20834 0.54893,-2.1859 0.54893,-0.17628 0.54893,0.66987 0.54893,-3.13782 0.54893,3.03205 0.54893,-1.83333 0.54893,0.88141 0.54893,2.82051 0.54893,2.67949 0.54893,-5.46475 0.54893,-1.90384 0.54893,1.76282 0.54893,3.38461 0.54893,-3.52564 0.54893,0.91667 0.54893,-0.59936 0.54893,-0.28205 0.54893,-1.55128 0.54893,2.85577 0.54893,-1.69231 0.54893,0.59936 0.54893,1.72756 0.54893,-2.39743 0.54893,1.41025 0.54893,1.69231 0.54893,-3.5609 0.54893,3.03205 0.54893,-1.02243 0.54893,0.49359 0.54893,1.79807 0.54893,-0.95192 0.54893,-0.24679 0.54893,-0.0352 0.54893,0.28202 0.54893,-3.20833 0.54893,-1.02244 0.54893,0.74039 0.54893,2.08012 0.54893,-0.42307 0.54893,0.42307 0.54893,2.50321 0.54893,-2.9968 0.54893,0.10577 0.54893,-1.65705 0.54893,-2.08012 0.54893,2.78525 0.54893,0 0.54893,4.97115 0.54893,-1.26923 0.54893,-1.9391 0.54893,-0.98718 0.54893,2.1859 0.54893,0 0.54893,-3.91346 0.54893,0.0352 0.54893,3.94872 0.54893,-3.27884 0.54893,1.6923 0.54893,0.2468 0.54893,1.30449 0.54893,-0.84616 0.54893,-0.24679 0.54893,-3.06731 0.54893,1.9391 0.54893,2.89103 0.54893,-0.98718 0.54893,-1.6218 0.54893,-1.72756 0.54893,3.17308 0.54893,0.45833 0.54893,0.52884 0.54893,-0.84615 0.54893,-2.85577 0.54893,1.16346 0.54893,-0.42307 0.54893,-2.04487 0.54893,2.96153 0.54893,-2.36218 0.54893,2.15065 0.54893,-1.51603 0.54893,-0.77564 0.54893,3.94872 0.54893,-2.29167 0.54893,-0.42308 0.54893,1.6218 0.54893,-1.26923 0.54893,0.95192 0.54893,1.375 0.54893,-4.08974 0.54893,2.43269 0.54893,2.46795 0.54893,-0.14103 0.54893,-1.83333 0.54893,0.70513 0.54893,-3.38462 0.54893,5.60577 0.54893,-2.92628 0.54893,2.46795 0.54893,-2.67949 0.54893,-0.52885 0.54893,-3.34935 0.54893,2.96153 0.54893,-0.45833 0.54893,3.98397 0.54893,-5.85256 0.54893,1.19875 0.54893,3.13779 0.54893,-0.42308 0.54893,-2.85577 0.54893,1.09295 0.54893,-0.88141 0.54893,0.38782 0.54893,1.02244 0.54893,2.29166 0.54893,-2.5032 0.54893,3.52564 0.54893,-3.06731 0.54893,-3.56089 0.54893,5.49999 0.54893,-4.65384 0.54893,4.125 0.54893,0.31731 0.54893,0.14102 0.54893,-3.70192 0.54893,2.78526 0.54893,1.41025 0.54893,-1.72756 0.54893,1.58654 0.54893,-2.60898 0.54893,-0.10577 0.54893,-0.3173 0.54893,1.83333 0.54893,-0.52885 0.54893,-0.95192 0.54893,4.01923 0.54893,-0.21154 0.54893,-1.86859 0.54893,2.36218 0.54893,-3.03202 0.54893,-2.99682 0.54893,3.38461 0.54893,-1.33974 0.54893,0.24679 0.54893,4.47756 0.54893,-5.74679 0.54893,-0.42308 0.54893,3.20834 0.54893,-1.51603 0.54893,2.75 0.54893,-1.09295 0.54893,-1.65705 0.54893,0.49359 0.54893,0.38782 0.54893,-0.10577 0.54893,-1.90384 0.54893,0.42307 0.54893,2.32693 0.54893,0.98718 0.54893,-1.12821 0.54893,-4.19551" />
                </g>
              </g>
            </g>
          </g>
        </g>
      </g>
    </g>
    <g
       id="g3968">
      <g
         transform="translate(-134,0)"
         id="g3944">
        <path
           style="fill:none;stroke:#000000;stroke-width:0.56202096;stroke-linecap:butt;stroke-linejoin:miter;stroke-miterlimit:4;stroke-opacity:1;stroke-dasharray:0.56202098, 1.68606294;stroke-dashoffset:0"
           d="m 367.72186,6.2747598 0,266.4810902 0,0 0,-0.22152"
           id="path3237-3"
           inkscape:connector-curvature="0"
           sodipodi:nodetypes="cccc" />
        <text
           xml:space="preserve"
           style="font-size:9px;font-style:normal;font-variant:normal;font-weight:normal;font-stretch:normal;line-height:125%;letter-spacing:0px;word-spacing:0px;fill:#000000;fill-opacity:1;stroke:none;font-family:TeX Gyre Termes;-inkscape-font-specification:TeX Gyre Termes"
           x="335.78943"
           y="280.81375"
           id="text4007-6"
           sodipodi:linespacing="125%"><tspan
             sodipodi:role="line"
             id="tspan4009-1"
             x="335.78943"
             y="280.81375"
             style="font-size:14px">Vehicle at point A</tspan></text>
      </g>
      <text
         sodipodi:linespacing="125%"
         id="text4011-0"
         y="280.81375"
         x="26.171152"
         style="font-size:9px;font-style:normal;font-variant:normal;font-weight:normal;font-stretch:normal;line-height:125%;letter-spacing:0px;word-spacing:0px;fill:#000000;fill-opacity:1;stroke:none;font-family:TeX Gyre Termes;-inkscape-font-specification:TeX Gyre Termes"
         xml:space="preserve"><tspan
           style="font-size:14px"
           y="280.81375"
           x="26.171152"
           id="tspan4013-5"
           sodipodi:role="line">Initial position</tspan></text>
      <text
         sodipodi:linespacing="125%"
         id="text4023-1"
         y="154.79691"
         x="47.906868"
         style="font-size:14px;font-style:normal;font-variant:normal;font-weight:normal;font-stretch:normal;line-height:125%;letter-spacing:0px;word-spacing:0px;fill:#000000;fill-opacity:1;stroke:none;font-family:TeX Gyre Termes;-inkscape-font-specification:TeX Gyre Termes"
         xml:space="preserve"><tspan
           y="154.79691"
           x="47.906868"
           id="tspan4025-7"
           sodipodi:role="line">Sensor unit </tspan></text>
      <text
         sodipodi:linespacing="125%"
         id="text4027-4"
         y="72.776848"
         x="48.326881"
         style="font-size:14px;font-style:normal;font-variant:normal;font-weight:normal;font-stretch:normal;line-height:125%;letter-spacing:0px;word-spacing:0px;fill:#000000;fill-opacity:1;stroke:none;font-family:TeX Gyre Termes;-inkscape-font-specification:TeX Gyre Termes"
         xml:space="preserve"><tspan
           y="72.776848"
           x="48.326881"
           id="tspan4029-6"
           sodipodi:role="line">Motor unit</tspan></text>
      <text
         sodipodi:linespacing="125%"
         id="text4031-9"
         y="248.87549"
         x="48.242867"
         style="font-size:14px;font-style:normal;font-variant:normal;font-weight:normal;font-stretch:normal;line-height:125%;letter-spacing:0px;word-spacing:0px;fill:#000000;fill-opacity:1;stroke:none;font-family:TeX Gyre Termes;-inkscape-font-specification:TeX Gyre Termes"
         xml:space="preserve"><tspan
           y="248.87549"
           x="48.242867"
           id="tspan4033-6"
           sodipodi:role="line">Input transducer</tspan></text>
    </g>
  </g>
</svg>
