<?xml version="1.0" encoding="UTF-8" standalone="no"?>
<svg
   xmlns:dc="http://purl.org/dc/elements/1.1/"
   xmlns:cc="http://creativecommons.org/ns#"
   xmlns:rdf="http://www.w3.org/1999/02/22-rdf-syntax-ns#"
   xmlns:svg="http://www.w3.org/2000/svg"
   xmlns="http://www.w3.org/2000/svg"
   xmlns:sodipodi="http://sodipodi.sourceforge.net/DTD/sodipodi-0.dtd"
   xmlns:inkscape="http://www.inkscape.org/namespaces/inkscape"
   version="1.2"
   id="svg2"
   inkscape:version="0.48.4 r9939"
   width="635.92017"
   height="290.64038"
   sodipodi:docname="Braiten-1-2-full-connection-point.3-value-1-3.svg">
  <metadata
     id="metadata260">
    <rdf:RDF>
      <cc:Work
         rdf:about="">
        <dc:format>image/svg+xml</dc:format>
        <dc:type
           rdf:resource="http://purl.org/dc/dcmitype/StillImage" />
        <dc:title>pyqtgraph SVG export</dc:title>
      </cc:Work>
    </rdf:RDF>
  </metadata>
  <sodipodi:namedview
     pagecolor="#ffffff"
     bordercolor="#666666"
     borderopacity="1"
     objecttolerance="10"
     gridtolerance="10"
     guidetolerance="10"
     inkscape:pageopacity="0"
     inkscape:pageshadow="2"
     inkscape:window-width="1920"
     inkscape:window-height="1026"
     id="namedview258"
     showgrid="false"
     fit-margin-top="0"
     fit-margin-left="0"
     fit-margin-right="0"
     fit-margin-bottom="0"
     inkscape:zoom="0.89702957"
     inkscape:cx="146.63844"
     inkscape:cy="154.06834"
     inkscape:window-x="1047"
     inkscape:window-y="-3"
     inkscape:window-maximized="1"
     inkscape:current-layer="svg2" />
  <title
     id="title4">pyqtgraph SVG export</title>
  <desc
     id="desc6">Generated with Qt and pyqtgraph</desc>
  <defs
     id="defs8" />
  <g
     id="PlotItem_1"
     style="fill:none;stroke:#000000;stroke-width:1;stroke-linecap:square;stroke-linejoin:bevel"
     transform="translate(-25.079834,-1.5723166)">
    <g
       id="AxisItem_1"
       style="fill:none;stroke:#000000;stroke-width:1;stroke-linecap:square;stroke-linejoin:bevel">
      <g
         font-size="11.875"
         font-style="normal"
         font-weight="400"
         id="g14"
         style="font-size:11.875px;font-style:normal;font-weight:400;fill:none;stroke:#969696;stroke-width:1;stroke-linecap:square;stroke-linejoin:bevel;stroke-opacity:1;font-family:Sans Serif">
        <polyline
           points="45.0,5.0 45.0,79.113566312"
           vector-effect="non-scaling-stroke"
           id="polyline16"
           style="fill:none" />
      </g>
      <g
         font-size="11.875"
         font-style="normal"
         font-weight="400"
         id="g18"
         style="font-size:11.875px;font-style:normal;font-weight:400;fill:none;stroke:#969696;stroke-width:1;stroke-linecap:square;stroke-linejoin:bevel;stroke-opacity:1;font-family:Sans Serif">
        <polyline
           points="45.5,42.056833688 50.5,42.056833688"
           vector-effect="non-scaling-stroke"
           id="polyline20"
           style="fill:none" />
      </g>
      <g
         font-size="11.875"
         font-style="normal"
         font-weight="400"
         id="g22"
         style="font-size:11.875px;font-style:normal;font-weight:400;fill:none;stroke:#969696;stroke-width:1;stroke-linecap:square;stroke-linejoin:bevel;stroke-opacity:0.49803904;font-family:Sans Serif">
        <polyline
           points="45.5,77.688361784 48.8333,77.688361784"
           vector-effect="non-scaling-stroke"
           id="polyline24"
           style="fill:none" />
        <polyline
           points="45.5,6.4252651664 48.8333,6.4252651664"
           vector-effect="non-scaling-stroke"
           id="polyline26"
           style="fill:none" />
      </g>
      <g
         font-size="11.875"
         font-style="normal"
         font-weight="400"
         id="g28"
         style="font-size:11.875px;font-style:normal;font-weight:400;fill:none;stroke:#969696;stroke-width:1;stroke-linecap:square;stroke-linejoin:bevel;stroke-opacity:0.33333297;font-family:Sans Serif">
        <polyline
           points="45.5,70.562035952 48.0,70.562035952"
           vector-effect="non-scaling-stroke"
           id="polyline30"
           style="fill:none" />
        <polyline
           points="45.5,63.43571012 48.0,63.43571012"
           vector-effect="non-scaling-stroke"
           id="polyline32"
           style="fill:none" />
        <polyline
           points="45.5,56.309384288 48.0,56.309384288"
           vector-effect="non-scaling-stroke"
           id="polyline34"
           style="fill:none" />
        <polyline
           points="45.5,49.183058456 48.0,49.183058456"
           vector-effect="non-scaling-stroke"
           id="polyline36"
           style="fill:none" />
        <polyline
           points="45.5,34.930507856 48.0,34.930507856"
           vector-effect="non-scaling-stroke"
           id="polyline38"
           style="fill:none" />
        <polyline
           points="45.5,27.804182024 48.0,27.804182024"
           vector-effect="non-scaling-stroke"
           id="polyline40"
           style="fill:none" />
        <polyline
           points="45.5,20.677856192 48.0,20.677856192"
           vector-effect="non-scaling-stroke"
           id="polyline42"
           style="fill:none" />
        <polyline
           points="45.5,13.5515707856 48.0,13.5515707856"
           vector-effect="non-scaling-stroke"
           id="polyline44"
           style="fill:none" />
      </g>
      <g
         font-size="11.875"
         font-style="normal"
         font-weight="400"
         transform="matrix(1,0,0,1.01064,5.5,5)"
         id="g46"
         style="font-size:11.875px;font-style:normal;font-weight:400;fill:none;stroke:#969696;stroke-width:1;stroke-linecap:square;stroke-linejoin:bevel;stroke-opacity:1;font-family:Sans Serif">
        <text
           font-size="11.875"
           font-style="normal"
           font-weight="400"
           x="31"
           xml:space="preserve"
           y="40.6562"
           id="text48"
           style="font-size:11.875px;font-style:normal;font-weight:400;fill:#969696;fill-opacity:1;stroke:none">0</text>
        <text
           font-size="11.875"
           font-style="normal"
           font-weight="400"
           x="19"
           xml:space="preserve"
           y="75.921898"
           id="text50"
           style="font-size:11.875px;font-style:normal;font-weight:400;fill:#969696;fill-opacity:1;stroke:none">-10</text>
        <text
           font-size="11.875"
           font-style="normal"
           font-weight="400"
           x="23"
           xml:space="preserve"
           y="5.4218798"
           id="text52"
           style="font-size:11.875px;font-style:normal;font-weight:400;fill:#969696;fill-opacity:1;stroke:none">10</text>
      </g>
    </g>
    <g
       id="ViewBox_1"
       style="fill:none;stroke:#000000;stroke-width:1;stroke-linecap:square;stroke-linejoin:bevel">
      <g
         font-size="11.875"
         font-style="normal"
         font-weight="400"
         id="g55"
         style="font-size:11.875px;font-style:normal;font-weight:400;fill:none;stroke:none;font-family:Sans Serif">
        <path
           d="m 45,5 616,0 0,73.3333 -616,0 L 45,5"
           vector-effect="non-scaling-stroke"
           id="path57"
           inkscape:connector-curvature="0" />
      </g>
      <clipPath
         id="ViewBox_1_clip">
        <path
           d="m 45,5 616,0 0,73.3333 -616,0 L 45,5"
           vector-effect="non-scaling-stroke"
           id="path60"
           inkscape:connector-curvature="0" />
      </clipPath>
      <g
         clip-path="url(#ViewBox_1_clip)"
         id="g62">
        <g
           id="ChildGroup_1"
           style="fill:none;stroke:#000000;stroke-width:1;stroke-linecap:square;stroke-linejoin:bevel">
          <g
             id="InfiniteLine_1"
             style="fill:none;stroke:#000000;stroke-width:1;stroke-linecap:square;stroke-linejoin:bevel">
            <g
               font-size="11.875"
               font-style="normal"
               font-weight="400"
               id="g66"
               style="font-size:11.875px;font-style:normal;font-weight:400;fill:none;stroke:#e6e6af;stroke-width:1;stroke-linecap:square;stroke-linejoin:bevel;stroke-opacity:1;font-family:Sans Serif">
              <polyline
                 points="661.00284908,41.6667 44.9999465728,41.6667"
                 vector-effect="non-scaling-stroke"
                 id="polyline68"
                 style="fill:none" />
            </g>
          </g>
          <g
             id="PlotDataItem_1">
            <g
               id="PlotCurveItem_1"
               style="fill:none;stroke:#000000;stroke-width:1;stroke-linecap:square;stroke-linejoin:bevel">
              <g
                 font-size="11.875"
                 font-style="normal"
                 font-weight="400"
                 id="g72"
                 style="font-size:11.875px;font-style:normal;font-weight:400;fill:none;stroke:#ff0000;stroke-width:1;stroke-linecap:square;stroke-linejoin:bevel;stroke-opacity:1;font-family:Sans Serif">
                <path
                   d="m 29.4743,41.672059 0.607724,0.03106 0.607724,-0.04537 0.607724,-0.06554 0.607724,-0.01837 0.607724,0.04805 0.607724,-0.0066 0.607724,0.03201 0.607724,-0.01932 0.607724,0.0606 0.607724,-0.05503 0.607724,-0.0526 0.607724,0.03949 0.607724,-0.03839 0.607724,0.09339 0.607724,-0.03268 0.607724,0.04432 0.607724,-0.04456 0.607724,-0.01294 0.607724,-0.0073 0.607724,-0.0035 0.607724,0.05588 0.607724,-0.05422 0.607724,0.09925 0.607724,0.03963 0.607724,-0.100481 0.607724,-0.0098 0.607724,-0.04939 0.607724,-0.02087 0.607724,-0.02803 0.607724,0.03836 0.607724,-0.008 0.607724,-0.09449 0.607724,0.07474 0.607724,-0.05274 0.607724,0.02373 0.607724,-0.07633 0.607724,0.03688 0.607724,0.03 0.607724,-0.06459 0.607724,-0.0075 0.607724,0.04446 0.607724,-0.05743 0.607724,-0.07615 0.607724,0.0256 0.607724,-0.01308 0.607724,0.0019 0.607724,-0.176423 0.607724,0.0028 0.607724,-0.06681 0.607724,0.0085 0.607724,0.01597 0.607724,0.01685 0.607724,0.05186 0.607724,-0.02824 0.607724,-0.04263 0.607724,0.122869 0.607724,-0.008 0.607724,-0.01118 0.607724,0.05588 0.607724,0.03124 0.607724,-0.05733 0.607724,0.01604 0.607724,-0.04537 0.607724,-0.0311 0.607724,0.01241 0.607724,-0.116487 0.607724,-0.04062 0.607724,-0.09128 0.607724,0.052 0.607724,0.0023 0.607724,-0.05281 0.607724,0.01259 0.607724,-0.01449 0.607724,0.02069 0.607724,-0.04781 0.607724,-0.04002 0.607724,0.01728 0.607724,-0.06177 0.607724,0.01936 0.607724,-0.08165 0.607724,-0.110494 0.607724,-0.03099 0.607724,0.121176 0.607724,0.03624 0.607724,0.01438 0.607724,-0.03117 0.607724,0.003 0.607724,0.0233 0.607724,0.0079 0.607724,0.01925 0.607724,0.03095 0.607724,-0.05017 0.607724,0.01981 0.607724,0.07079 0.607724,-0.06741 0.607724,0.03705 0.607724,0.02937 0.607724,0.03 0.607724,-0.06004 0.607724,0.0044 0.607724,0.01368 0.607724,0.03473 0.607724,-0.03547 0.607724,0.02852 0.607724,-0.09502 0.607724,-0.102878 0.607724,0.003 0.607724,0.04174 0.607724,0.04478 0.607724,0.05546 0.607724,-0.04894 0.607724,-0.06131 0.607724,-0.03409 0.607724,-0.05761 0.607724,-0.107426 0.607724,-0.113596 0.607726,-0.05042 0.60772,-0.126711 0.60773,-0.08518 0.60772,-0.03177 0.60772,-0.07689 0.60773,-0.06914 0.60772,0.01266 0.60773,-0.0094 0.60772,-0.05327 0.60772,-0.108096 0.60773,-0.03244 0.60772,-0.09555 0.60773,-0.129426 0.60772,-0.115747 0.60772,-0.04858 0.60773,-0.04873 0.60772,-0.05486 0.60773,-0.05867 0.60772,-0.07947 0.60772,-0.07302 0.60773,-0.100446 0.60772,-0.05585 0.60773,-0.14032 0.60772,-0.103689 0.60772,-0.0071 0.60773,-0.06413 0.60772,0.03254 0.60773,-0.06498 0.60772,0.04012 0.60772,-0.05451 0.60773,-0.106791 0.60772,-0.04308 0.60773,-0.05764 0.60772,-0.0054 0.60772,-0.07742 0.60773,-0.06353 0.60772,-0.07577 0.60773,-0.05934 0.60772,-0.02838 0.60772,-0.03691 0.60773,-0.0104 0.60772,-0.08733 0.60773,-0.0336 0.60772,-0.126993 0.60772,-0.04386 0.60773,-0.14575 0.60772,-0.0299 0.60773,-0.107603 0.60772,-0.106192 0.60772,-0.07961 0.60773,-0.115571 0.60772,0.0089 0.60773,-0.0293 0.60772,-0.162709 0.60772,-0.112996 0.60773,-0.152731 0.60772,-0.106051 0.60773,-0.113491 0.60772,-0.138945 0.60772,-0.06166 0.60773,-0.07235 0.60772,-0.120647 0.60773,-0.03829 0.60772,-0.01685 0.60772,-0.05747 0.60773,-0.05186 0.60772,-0.150052 0.60773,-0.02993 0.60772,-0.08701 0.60772,-0.117474 0.60773,-0.09153 0.60772,-0.08141 0.60773,-0.141978 0.60772,0.02457 0.60772,0.06586 0.60773,-0.171558 0.60772,-0.0819 0.60773,0.02003 0.60772,0.006 0.60772,-0.04277 0.60773,0.01054 0.60772,-0.122975 0.60773,-0.04368 0.60772,-0.03702 0.60772,0.01854 0.60773,-0.07936 0.60772,-0.06952 0.60773,-0.104359 0.60772,-0.143036 0.60772,-0.194333 0.60773,-0.04453 0.60772,0.05236 0.60773,-0.05902 0.60772,-0.129779 0.60772,-0.091 0.60773,-0.11342 0.60772,-0.01766 0.60773,-0.07404 0.60772,-0.11 0.60772,0.0586 0.60773,-0.0082 0.60772,-0.08729 0.60773,-0.12731 0.60772,0.01445 0.60772,-0.01805 0.60773,-0.07838 0.60772,0.01315 0.60773,-0.146385 0.60772,-0.0636 0.60772,-3.17e-4 0.60773,-0.08081 0.60772,-0.04488 0.60773,-0.0581 0.60772,-0.052 0.60772,-0.121035 0.60773,-0.121177 0.60772,-0.006 0.60773,0.102279 0.60772,-0.01252 0.60772,-0.05909 0.60773,-0.01636 0.60772,-0.06607 0.60773,0.03173 0.60772,-0.130695 0.60772,-0.116311 0.60773,0.0063 0.60772,-0.141801 0.60773,-0.151074 0.60772,-0.123644 0.60772,-0.145538 0.60773,-0.06748 0.60772,-0.08543 0.60773,-0.08313 0.60772,-0.128897 0.60772,-0.06462 0.60773,-0.03191 0.60772,0.0051 0.60773,-0.0544 0.60772,-0.04869 0.60772,-0.0831 0.60773,0.02394 0.60772,-0.01615 0.60773,-0.05444 0.60772,-0.08172 0.60772,-0.08655 0.60773,-4.58e-4 0.60772,-0.0372 0.60773,-0.05341 0.60772,-0.02415 0.60772,8.11e-4 0.60773,-0.02983 0.60772,-0.07732 0.60773,-0.05849 0.60772,-0.09234 0.60772,-0.06325 0.60773,-0.132353 0.60772,0.04389 0.60773,-0.01065 0.60772,-0.0029 0.60772,0.01498 0.60773,-0.09516 0.60772,-0.108131 0.60773,-0.0825 0.60772,0.07189 0.60772,-0.07291 0.60773,-0.09036 0.60772,-0.104746 0.60773,-0.135949 0.60772,-0.03198 0.60772,-0.0844 0.60773,0.01604 0.60772,-0.06515 0.60773,-0.176458 0.60772,-0.134679 0.60772,0.01646 0.60773,-0.08409 0.60772,-0.06424 0.60773,-0.102173 0.60772,-0.116417 0.60772,-0.190913 0.60773,-0.09431 0.60772,-0.149558 0.60773,-0.206708 0.60772,-0.18076 0.60772,-0.04989 0.60773,-0.0422 0.60772,-0.08141 0.60773,-0.05405 0.60772,-0.03921 0.60772,-0.06075 0.60773,-0.04379 0.60772,-0.14515 0.60773,-0.100798 0.60772,-0.04492 0.60772,-0.07594 0.60773,-0.0642 0.60772,-0.08842 0.60773,-0.146138 0.60772,-0.09195 0.60772,-0.122692 0.60773,0.0032 0.60772,-0.05641 0.60773,-0.08938 0.60772,-0.204558 0.60772,-0.1265 0.60773,-0.05701 0.60772,-0.07273 0.60773,-0.137676 0.60772,-0.09322 0.60772,-0.04812 0.60773,-0.03508 0.60772,-0.04277 0.60773,-0.07485 0.60772,-0.132493 0.60772,-0.150862 0.60773,-0.147654 0.60772,-0.04403 0.60773,-0.156927 0.60772,-0.124279 0.60772,-0.102173 0.60773,-0.04848 0.60772,-0.149981 0.60773,-0.119131 0.60772,-0.177199 0.60772,-0.03935 0.60773,-0.110212 0.60772,-0.124913 0.60773,-0.159888 0.60772,-0.204593 0.60772,-0.134961 0.60773,-0.220423 0.60772,-0.116805 0.60773,-0.123115 0.60772,-0.09093 0.60772,-0.117404 0.60773,-0.134256 0.60772,-0.155622 0.60773,-0.108907 0.60772,-0.09304 0.60772,0.01724 0.60773,-0.140744 0.60772,-0.152872 0.60773,-0.07037 0.60772,-0.0109 0.60772,-0.144445 0.60773,-0.162391 0.60772,-0.06575 0.60773,-0.103055 0.60772,-0.03141 0.60772,-0.09512 0.60773,-0.140603 0.60772,-0.170394 0.60773,-0.01452 0.60772,-0.05775 0.60772,0.02556 0.60773,-0.149629 0.60772,-0.108836 0.60773,-0.07457 0.60772,-0.08966 0.60772,-0.176106 0.60773,-0.0379 0.60772,-0.0758 0.60773,-0.07852 0.60772,0.05151 0.60772,-0.03723 0.60773,-0.141167 0.60772,-0.182769 0.60773,-0.153436 0.60772,-0.06635 0.60772,-0.09484 0.60773,-0.121564 0.60772,-0.106122 0.60773,-0.199727 0.60772,-0.08098 0.60772,-0.136302 0.60773,0.0031 0.60772,-0.06431 0.60773,-0.02951 0.60772,0.0011 0.60772,-0.07192 0.60773,-0.07587 0.60772,0.03452 0.60773,-0.04622 0.60772,-0.06593 0.60772,0.0058 0.60773,-0.04199 0.60772,-0.05634 0.60773,-0.05729 0.60772,-0.05239 0.60772,-0.03469 0.60773,-0.0867 0.60772,-0.02531 0.60773,-0.04238 0.60772,-0.07457 0.60772,-0.119484 0.60773,-0.139439 0.60772,-0.154564 0.60773,-0.0514 0.60772,0.05888 0.60772,-0.003 0.60773,-0.08394 0.60772,-0.0874 0.60773,-0.02048 0.60772,-0.01519 0.60772,-0.0028 0.60773,-0.125301 0.60772,-0.07069 0.60773,-0.13958 0.60772,-0.0053 0.60772,-0.148218 0.60773,-0.0147 0.60772,-0.207943 0.60773,0.0159 0.60772,-0.09029 0.60772,-0.103371 0.60773,-0.156715 0.60772,-0.0812 0.60773,-0.150827 0.60772,-0.0062 0.60772,-0.08969 0.60773,-0.09614 0.60772,0.0085 0.60773,0.02972 0.60772,-0.0673 0.60772,-0.08648 0.60773,-0.09318 0.60772,-0.05222 0.60773,-0.148288 0.60772,-0.07767 0.60772,-0.09294 0.60773,-0.07834 0.60772,0.0513 0.60773,0.0035 0.60772,-0.09593 0.60772,0.01576 0.60773,0.0095 0.60772,-0.05564 0.60773,-0.144692 0.60772,0.04178 0.60772,-0.07393 0.60773,2.11e-4 0.60772,-0.01414 0.60773,-0.130379 0.60772,-0.151214 0.60772,-0.07238 0.60773,-0.04259 0.60772,-0.0092 0.60773,-0.02239 0.60772,-0.04083 0.60772,-0.0983 0.60773,-0.07199 0.60772,-0.02856 0.60773,-0.06212 0.60772,-0.05334 0.60772,-0.05979 0.60773,-0.09999 0.60772,-0.05814 0.60773,-0.133339 0.60772,-0.06276 0.60772,-0.116029 0.60773,0.02746 0.60772,-0.148288 0.60773,-0.02246 0.60772,-0.08282 0.60772,-0.02063 0.60773,-0.07069 0.60772,0.07393 0.60773,-0.07665 0.60772,-0.01893 0.60772,-0.166516 0.60773,-0.119837 0.60772,-0.106263 0.60773,-0.102666 0.60772,-0.08581 0.60772,-0.185731 0.60773,-0.03942 0.60772,-0.02415 0.60773,-0.190526 0.60772,-0.09413 0.60772,-0.02052 0.60773,-0.0075 0.60772,0.03617 0.60773,-0.109119 0.60772,-0.04552 0.60772,-0.05662 0.60773,-0.02461 0.60772,-0.01802 0.60773,-0.115888 0.60772,-0.07386 0.60772,-0.08648 0.60773,-0.02151 0.60772,-0.181006 0.60773,-0.109154 0.60772,-0.06875 0.60772,-0.177727 0.60773,-0.08818 0.60772,-0.05264 0.60773,-0.091 0.60772,-0.04171 0.60772,-0.08116 0.60773,0.0027 0.60772,-0.01858 0.60773,-0.05454 0.60772,-0.138733 0.60772,-0.05123 0.60773,-0.06554 0.60772,-0.06343 0.60773,-0.01657 0.60772,-0.0097 0.60772,0.06685 0.60773,-0.06889 0.60772,-0.06515 0.60773,0.05377 0.60772,0.03822 0.60772,-0.03882 0.60773,-0.06974 0.60772,-0.01216 0.60773,-0.08585 0.60772,-0.09459 0.60772,-0.09389 0.60773,0.01139 0.60772,-0.164436 0.60773,-0.11 0.60772,-0.10517 0.60772,0.01238 0.60773,-0.06875 0.60772,-0.04996 0.60773,-0.15816 0.60772,-0.00303 0.60772,-0.046433 0.60773,-0.1158878 0.60772,-0.1392275 0.60773,-0.031484 0.60772,0.041426 0.60772,-0.064801 0.60773,0.028593 0.60772,-0.058772 0.60773,-0.075696 0.60772,-0.020096 0.60772,-0.084157 0.60773,-0.1019967 0.60772,-0.037619 0.60773,-0.2281089 0.60772,-0.07076 0.60772,-0.2016314 0.60773,-0.064695 0.60772,-0.1401794 0.60773,-0.082606 0.60772,-0.1699006 0.60772,-0.1055576 0.60773,-0.027676 0.60772,-0.073369 0.60773,-0.070195 0.60772,-0.082535 0.60772,-0.072558 0.60773,-0.1092243 0.60772,-0.047843 0.60773,-0.067446 0.60772,-0.063074 0.60772,0.036596 0.60773,-0.1004807 0.60772,0.0055 0.60773,-0.1233622 0.60772,-0.069561 0.60772,-0.09001 0.60773,-0.1016795 0.60772,-0.05158 0.60773,0.032683 0.60772,-0.099599 0.60772,-0.039875 0.60773,-0.012304 0.60772,-0.048407 0.60773,0.00303 0.60772,-0.066564 0.60772,0.020554 0.60773,-0.1441987 0.60772,-0.048618 0.60773,0.026689 0.60772,0.021189 0.60772,-0.063462 0.60773,-0.072945 0.60772,0.040897 0.60773,-0.1241731 0.60772,-0.054612 0.60772,0.09283 0.60773,0.032506 0.60772,-0.030708 0.60773,0.00219 0.60772,-0.085144 0.60772,0.073192 0.60773,-0.1064743 0.60772,-0.028804 0.60773,0 0.60772,0 0.60772,0 0.60773,0.00628 0.60772,0.036596 0.60773,0.014173 0.60772,-0.057045 0.60772,0 0.60773,0 0.60772,0 0.60773,0.00617 0.60772,-0.00617 0.60772,0 0.60773,0.025455 0.60772,0.1150769 0.60773,-0.065365 0.60772,0.043013 0.60772,0.03783 0.60773,0.023939 0.60772,-0.1231859 0.60773,-0.025385 0.60772,-0.031378 0.60772,0.069032 0.60773,0.1264647 0.60772,-0.02542 0.60773,-0.049112 0.60772,0.012163 0.60772,-0.083628 0.60773,-0.026619 0.60772,0.00395 0.60773,-0.02683 0.60772,0 0.60772,0 0.60773,0 0.60772,0.02676 0.60773,0.1163109 0.60772,-0.07083 0.60772,0.027183 0.60773,-0.056375 0.60772,-0.028523 0.60773,-0.012199 0.60772,0.071253 0.60772,-0.060853 0.60773,0.016852 0.60772,-0.02958 0.60773,0 0.60772,0 0.60772,0 0.60773,0.042872 0.60772,0.03582 0.60773,-0.046292 0.60772,-0.00123 0.60772,-0.031167 0.60773,0 0.60772,0 0.60773,0 0.60772,0 0.60772,0 0.60773,0.015337 0.60772,0.052285 0.60773,-0.02482 0.60772,-0.042801 0.60772,0.062263 0.60773,-0.014878 0.60772,0.031202 0.60773,0.00557 0.60772,-0.022987 0.60772,0.069103 0.60773,0.017734 0.60772,0.028487 0.60773,0.0091 0.60772,-0.014561 0.60772,-0.107391 0.60773,-0.04118 0.60772,0.00254 0.60773,-0.024997 0.60772,0 0.60772,0.028593 0.60773,-0.00938 0.60772,0.019391 0.60773,-0.038606 0.60772,0.00649 0.60772,-0.00649 0.60773,0.00645 0.60772,0.044458 0.60773,0.02334 0.60772,-0.063144 0.60772,-0.011106 0.60773,0.079397 0.60772,0.058138 0.60773,-0.010859 0.60772,-0.098013 0.60772,0.070795 0.60773,-0.064167 0.60772,0.019814 0.60773,-0.00501 0.60772,-0.050099 0.60772,0 0.60773,0 0.60772,0.044952 0.60773,0.031449 0.60772,-0.076401 0.60772,0.00578 0.60773,0.073792 0.60772,0.016112 0.60773,0.02542 0.60772,-0.025737 0.60772,-0.051228 0.60773,0.014561 0.60772,-0.058702 0.60773,0 0.60772,0 0.60772,0.075237 0.60773,-0.050945 0.60772,0.089692 0.60773,-0.082183 0.60772,0.015795 0.60772,0.01858 0.60773,-0.051474 0.60772,0.038077 0.60773,-0.049394 0.60772,-0.00338 0.60772,0 0.60773,0 0.60772,0 0.60773,0.056058 0.60772,-0.056058 0.60772,0 0.60773,0.043506 0.60772,-0.043506 0.60773,0 0.60772,0.018756 0.60772,-0.018756 0.60773,0 0.60772,0.00723 0.60773,0.016253 0.60772,0.00134 0.60772,0.034093 0.60773,-0.035221 0.60772,0.051756 0.60773,0.00324 0.60772,-0.052673 0.60772,-0.026019 0.60773,0 0.60772,0 0.60773,0.061064 0.60772,0.012692 0.60772,0.049888 0.60773,-0.00687 0.60772,-0.1101057 0.60773,-0.00666 0.60772,0.1050288 0.60772,-0.016711 0.60773,0.080808 0.60772,-0.070054 0.60773,-0.09907 0.60772,0.090609 0.60772,0.00621 0.60773,-0.011952 0.60772,-0.028452 0.60773,-0.031731 0.60772,-0.024679 0.60772,8.814e-4 0.60773,0.046468 0.60772,-0.00628 0.60773,-0.00617 0.60772,-0.034904 0.60772,0 0.60773,0.026442 0.60772,0.030497 0.60773,0.033776 0.60772,-0.074426 0.60772,-0.016288 0.60773,0.04816 0.60772,0.046433 0.60773,0.036138 0.60772,-0.079327 0.60772,0.025737 0.60773,-0.019215 0.60772,-0.057926 0.60773,0.063849 0.60772,0.042096 0.60772,-0.071817 0.60773,0.074426 0.60772,-8.109e-4 0.60773,-0.1077436 0.60772,0.1401442 0.60772,-0.00744 0.60773,0.00346 0.60772,0.016324 0.60773,-0.036631 0.60772,0.054683 0.60772,-0.028558 0.60773,-0.00617 0.60772,-0.1290737 0.60773,-0.00673 0.60772,0 0.60772,0 0.60773,0.07559 0.60772,-0.021083 0.60773,-0.010471 0.60772,-0.044035 0.60772,0.068609 0.60773,-0.025772 0.60772,-0.03709 0.60773,0.012304 0.60772,-0.018051 0.60772,0 0.60773,0 0.60772,0.037513 0.60773,0.069702 0.60772,-0.067551 0.60772,-0.024644 0.60773,-0.015019 0.60772,0 0.60773,0.016676 0.60772,0.045093 0.60772,0.00684 0.60773,0.05775 0.60772,0 0.60773,0.024503 0.60772,0.014808 0.60772,-0.025173 0.60773,0.055 0.60772,0.017417 0.60773,-0.039981 0.60772,-0.1232211 0.60772,-0.038712 0.60773,-7.404e-4 0.60772,0.00878 0.60773,0.034586 0.60772,-0.053625 0.60772,0.026266 0.60773,-0.026266 0.60772,0 0.60773,0.010542 0.60772,0.049641 0.60772,-0.060183 0.60773,0.00215 0.60772,0.1150417 0.60773,-0.04192 0.60772,-0.075272 0.60772,0 0.60773,0.021365 0.60772,0.044494 0.60773,-0.00931 0.60772,0.04742 0.60772,-0.027571 0.60773,-0.062862 0.60772,-0.013538 0.60773,0.036526 0.60772,-0.036526 0.60772,0.03025 0.60773,-0.03025 0.60772,0.049923 0.60773,-0.017523 0.60772,-0.012163 0.60772,-0.020237 0.60773,0 0.60772,0 0.60773,0.047843 0.60772,0.053695 0.60772,0.00462 0.60773,-0.045586 0.60772,0.00695 0.60773,0.035221 0.60772,-0.067022 0.60772,-0.035715 0.60773,0 0.60772,0.020801 0.60773,0.092689 0.60772,0.096814 0.60772,0.059336 0.60773,-0.114407 0.60772,0.013468 0.60773,0.00497 0.60772,-0.00166 0.60772,-0.044635 0.60773,0.00377 0.60772,0.00465 0.60773,-0.093148 0.60772,-0.04266 0.60772,0.092936 0.60773,0.034763 0.60772,0.027006 0.60773,0.1033365 0.60772,-0.050276 0.60772,-0.090679 0.60773,-0.07841 0.60772,0.022247 0.60773,-0.060923 0.60772,0 0.60772,0.037901 0.60773,-0.037901 0.60772,0.069314 0.60773,0.1684198 0.60772,0.070266 0.60772,-0.071429 0.60773,-0.067551 0.60772,-0.038112 0.60773,0.071958 0.60772,-0.092971 0.60772,-0.1098942 0.60773,0.00776 0.60772,0.07492 0.60773,0.077917 0.60772,0 0.60772,0.016394 0.60773,-0.029263 0.60772,-0.069032 0.60773,-0.078692 0.60772,0 0.60772,0.038782 0.60773,-0.038782 0.60772,0.021189 0.60773,-0.00917 0.60772,-0.012022 0.60772,0.025702 0.60773,-0.025702 0.60772,0.094205 0.60773,0.03984 0.60772,-0.07016 0.60772,-0.063885 0.60773,0 0.60772,0 0.60773,0 0.60772,0.1001987 0.60772,-0.063744 0.60773,-0.00804 0.60772,-0.028417 0.60773,0 0.60772,0 0.60772,0 0.60773,0 0.60772,0 0.60773,0.00479 0.60772,-0.00479 0.60772,0 0.60773,0.055247 0.60772,0.036631 0.60773,0.02408 0.60772,-0.055564 0.60772,-0.060394 0.60773,0.037619 0.60772,0.036631 0.60773,-0.051404 0.60772,-0.018369 0.60772,-0.00448 0.60773,0 0.60772,0 0.60773,0.083699 0.60772,-0.013679 0.60772,-0.070019 0.60773,0.028346 0.60772,0.1183558 0.60773,0.035715 0.60772,-0.015372 0.60772,0.030603 0.60773,-0.02884 0.60772,-0.1671858 0.60773,-0.00162 0.60772,0.086308 0.60772,0.084298 0.60773,0.017064 0.60772,-0.067058 0.60773,-0.00138 0.60772,-0.1192371 0.60772,0 0.60773,0 0.60772,0 0.60773,0 0.60772,0.032647 0.60772,0.034163 0.60773,-0.019849 0.60772,-0.046962 0.60773,0.025103 0.60772,7.756e-4 0.60772,0.079327 0.60773,0.025455 0.60772,0.012728 0.60773,-0.1433878 0.60772,0 0.60772,0 0.60773,0.071112 0.60772,-0.071112 0.60773,0.1089775 0.60772,-0.093253 0.60772,-0.013362 0.60773,-0.00236 0.60772,0.075449 0.60773,-0.02542"
                   vector-effect="non-scaling-stroke"
                   id="path74"
                   inkscape:connector-curvature="0" />
              </g>
            </g>
          </g>
        </g>
      </g>
    </g>
  </g>
  <g
     id="PlotItem_3"
     style="fill:none;stroke:#000000;stroke-width:1;stroke-linecap:square;stroke-linejoin:bevel"
     transform="translate(-25.079834,-75.572317)">
    <g
       id="AxisItem_2"
       style="fill:none;stroke:#000000;stroke-width:1;stroke-linecap:square;stroke-linejoin:bevel">
      <g
         font-size="11.875"
         font-style="normal"
         font-weight="400"
         id="g96"
         style="font-size:11.875px;font-style:normal;font-weight:400;fill:none;stroke:#969696;stroke-width:1;stroke-linecap:square;stroke-linejoin:bevel;stroke-opacity:1;font-family:Sans Serif">
        <polyline
           points="45.0,163.667 45.0,237.780566312"
           vector-effect="non-scaling-stroke"
           id="polyline98"
           style="fill:none" />
      </g>
      <g
         font-size="11.875"
         font-style="normal"
         font-weight="400"
         id="g100"
         style="font-size:11.875px;font-style:normal;font-weight:400;fill:none;stroke:#969696;stroke-width:1;stroke-linecap:square;stroke-linejoin:bevel;stroke-opacity:1;font-family:Sans Serif">
        <polyline
           points="45.5,200.723833688 50.5,200.723833688"
           vector-effect="non-scaling-stroke"
           id="polyline102"
           style="fill:none" />
      </g>
      <g
         font-size="11.875"
         font-style="normal"
         font-weight="400"
         id="g104"
         style="font-size:11.875px;font-style:normal;font-weight:400;fill:none;stroke:#969696;stroke-width:1;stroke-linecap:square;stroke-linejoin:bevel;stroke-opacity:0.49803904;font-family:Sans Serif">
        <polyline
           points="45.5,236.355361784 48.8333,236.355361784"
           vector-effect="non-scaling-stroke"
           id="polyline106"
           style="fill:none" />
        <polyline
           points="45.5,165.092265166 48.8333,165.092265166"
           vector-effect="non-scaling-stroke"
           id="polyline108"
           style="fill:none" />
      </g>
      <g
         font-size="11.875"
         font-style="normal"
         font-weight="400"
         id="g110"
         style="font-size:11.875px;font-style:normal;font-weight:400;fill:none;stroke:#969696;stroke-width:1;stroke-linecap:square;stroke-linejoin:bevel;stroke-opacity:0.33333297;font-family:Sans Serif">
        <polyline
           points="45.5,229.229035952 48.0,229.229035952"
           vector-effect="non-scaling-stroke"
           id="polyline112"
           style="fill:none" />
        <polyline
           points="45.5,222.10271012 48.0,222.10271012"
           vector-effect="non-scaling-stroke"
           id="polyline114"
           style="fill:none" />
        <polyline
           points="45.5,214.976384288 48.0,214.976384288"
           vector-effect="non-scaling-stroke"
           id="polyline116"
           style="fill:none" />
        <polyline
           points="45.5,207.850058456 48.0,207.850058456"
           vector-effect="non-scaling-stroke"
           id="polyline118"
           style="fill:none" />
        <polyline
           points="45.5,193.597507856 48.0,193.597507856"
           vector-effect="non-scaling-stroke"
           id="polyline120"
           style="fill:none" />
        <polyline
           points="45.5,186.471182024 48.0,186.471182024"
           vector-effect="non-scaling-stroke"
           id="polyline122"
           style="fill:none" />
        <polyline
           points="45.5,179.344856192 48.0,179.344856192"
           vector-effect="non-scaling-stroke"
           id="polyline124"
           style="fill:none" />
        <polyline
           points="45.5,172.218570786 48.0,172.218570786"
           vector-effect="non-scaling-stroke"
           id="polyline126"
           style="fill:none" />
      </g>
      <g
         font-size="11.875"
         font-style="normal"
         font-weight="400"
         transform="matrix(1,0,0,1.01064,5.5,163.667)"
         id="g128"
         style="font-size:11.875px;font-style:normal;font-weight:400;fill:none;stroke:#969696;stroke-width:1;stroke-linecap:square;stroke-linejoin:bevel;stroke-opacity:1;font-family:Sans Serif">
        <text
           font-size="11.875"
           font-style="normal"
           font-weight="400"
           x="31"
           xml:space="preserve"
           y="40.6562"
           id="text130"
           style="font-size:11.875px;font-style:normal;font-weight:400;fill:#969696;fill-opacity:1;stroke:none">0</text>
        <text
           font-size="11.875"
           font-style="normal"
           font-weight="400"
           x="19"
           xml:space="preserve"
           y="75.921898"
           id="text132"
           style="font-size:11.875px;font-style:normal;font-weight:400;fill:#969696;fill-opacity:1;stroke:none">-10</text>
        <text
           font-size="11.875"
           font-style="normal"
           font-weight="400"
           x="23"
           xml:space="preserve"
           y="5.4218798"
           id="text134"
           style="font-size:11.875px;font-style:normal;font-weight:400;fill:#969696;fill-opacity:1;stroke:none">10</text>
      </g>
    </g>
    <g
       id="ViewBox_3"
       style="fill:none;stroke:#000000;stroke-width:1;stroke-linecap:square;stroke-linejoin:bevel">
      <g
         font-size="11.875"
         font-style="normal"
         font-weight="400"
         id="g137"
         style="font-size:11.875px;font-style:normal;font-weight:400;fill:none;stroke:none;font-family:Sans Serif">
        <path
           d="m 45,163.667 616,0 0,73.3333 -616,0 0,-73.3333"
           vector-effect="non-scaling-stroke"
           id="path139"
           inkscape:connector-curvature="0" />
      </g>
      <clipPath
         id="ViewBox_3_clip">
        <path
           d="m 45,163.667 616,0 0,73.333 -616,0 0,-73.333"
           vector-effect="non-scaling-stroke"
           id="path142"
           inkscape:connector-curvature="0" />
      </clipPath>
      <g
         clip-path="url(#ViewBox_3_clip)"
         id="g144">
        <g
           id="ChildGroup_3"
           style="fill:none;stroke:#000000;stroke-width:1;stroke-linecap:square;stroke-linejoin:bevel">
          <g
             id="InfiniteLine_2"
             style="fill:none;stroke:#000000;stroke-width:1;stroke-linecap:square;stroke-linejoin:bevel">
            <g
               font-size="11.875"
               font-style="normal"
               font-weight="400"
               id="g148"
               style="font-size:11.875px;font-style:normal;font-weight:400;fill:none;stroke:#e6e6af;stroke-width:1;stroke-linecap:square;stroke-linejoin:bevel;stroke-opacity:1;font-family:Sans Serif">
              <polyline
                 points="661.00284908,200.333 44.9999465728,200.333"
                 vector-effect="non-scaling-stroke"
                 id="polyline150"
                 style="fill:none" />
            </g>
          </g>
          <g
             id="PlotDataItem_3">
            <g
               id="PlotCurveItem_3"
               style="fill:none;stroke:#000000;stroke-width:1;stroke-linecap:square;stroke-linejoin:bevel">
              <g
                 font-size="11.875"
                 font-style="normal"
                 font-weight="400"
                 id="g154"
                 style="font-size:11.875px;font-style:normal;font-weight:400;fill:none;stroke:#00ff00;stroke-width:1;stroke-linecap:square;stroke-linejoin:bevel;stroke-opacity:1;font-family:Sans Serif">
                <path
                   d="m 29.4743,200.38507 0.607724,0.064 0.607724,-0.076 0.607724,-0.02 0.607724,-0.0666 0.607724,0.0559 0.607724,0.0377 0.607724,-0.0388 0.607724,-0.0542 0.607724,-0.0657 0.607724,-0.0196 0.607724,-0.0179 0.607724,-0.0756 0.607724,-0.093 0.607724,-0.0831 0.607724,-0.0189 0.607724,0.0519 0.607724,-0.0771 0.607724,-0.078 0.607724,-0.10278 0.607724,-0.0634 0.607724,-0.0559 0.607724,-0.0283 0.607724,-0.10475 0.607724,-0.15086 0.607724,-0.12164 0.607724,-0.003 0.607724,-0.0751 0.607724,-0.10729 0.607724,-0.0619 0.607724,-0.0711 0.607724,-0.0172 0.607724,0.0116 0.607724,-0.066 0.607724,-0.002 0.607724,0.0215 0.607724,-0.0739 0.607724,0.0108 0.607724,-0.0798 0.607724,0.0375 0.607724,-0.0656 0.607724,-0.056 0.607724,-0.0492 0.607724,-0.0892 0.607724,-0.0911 0.607724,-0.0629 0.607724,-0.12904 0.607724,-0.0688 0.607724,-0.0332 0.607724,-0.14269 0.607724,-0.0745 0.607724,-0.0621 0.607724,-0.044 0.607724,0.0502 0.607724,-0.0756 0.607724,-0.0663 0.607724,0.007 0.607724,-0.1626 0.607724,-0.0683 0.607724,-0.14705 0.607724,-0.0234 0.607724,-0.0764 0.607724,-0.002 0.607724,-0.0107 0.607724,-0.0542 0.607724,-0.0368 0.607724,-0.0375 0.607724,-0.0905 0.607724,-0.0329 0.607724,-0.003 0.607724,0.0255 0.607724,-0.14635 0.607724,-0.0911 0.607724,-0.053 0.607724,-0.0769 0.607724,-0.0697 0.607724,-0.0696 0.607724,-0.0325 0.607724,-0.23347 0.607724,-0.14927 0.607724,-0.042 0.607724,-0.033 0.607724,-0.095 0.607724,-0.0765 0.607724,-0.009 0.607724,-0.13401 0.607724,-0.0156 0.607724,-0.0505 0.607724,-0.13429 0.607724,0.0409 0.607724,-0.15651 0.607724,-0.15974 0.607724,-0.0871 0.607724,-0.0673 0.607724,4.6e-4 0.607724,-0.0801 0.607724,0.03 0.607724,0.008 0.607724,-0.0528 0.607724,-0.0464 0.607724,1.7e-4 0.607724,-0.16464 0.607724,0.0341 0.607724,-0.13715 0.607724,-0.15061 0.607724,-0.10094 0.607724,0.0256 0.607724,-0.15742 0.607724,0.054 0.607724,-0.0526 0.607724,0.0272 0.607724,-0.0828 0.607724,-0.13281 0.607724,-0.0185 0.607724,0.0222 0.607724,0.001 0.607724,-0.0334 0.607726,-0.10986 0.60772,-0.005 0.60773,-0.1479 0.60772,-0.1192 0.60772,-0.0196 0.60773,0.0111 0.60772,-0.0905 0.60773,-0.008 0.60772,-0.10443 0.60772,0.0304 0.60773,-0.0344 0.60772,-0.0137 0.60773,-0.007 0.60772,-0.0304 0.60772,-0.0298 0.60773,-0.0819 0.60772,-0.0513 0.60773,-0.0609 0.60772,-0.0969 0.60772,-0.0423 0.60773,-0.1015 0.60772,0.005 0.60773,-0.11085 0.60772,-0.0873 0.60772,0.054 0.60773,-0.0871 0.60772,0.0141 0.60773,-0.13468 0.60772,0.0274 0.60772,0.034 0.60773,-0.15424 0.60772,-0.12978 0.60773,-0.16765 0.60772,0.003 0.60772,-0.0366 0.60773,-0.0915 0.60772,-0.12586 0.60773,0.0741 0.60772,-0.12061 0.60772,-0.0624 0.60773,0.0983 0.60772,-0.006 0.60773,-0.0435 0.60772,0.0364 0.60772,-0.0313 0.60773,-0.0271 0.60772,0.0593 0.60773,0.004 0.60772,-0.0593 0.60772,-0.0311 0.60773,-0.10926 0.60772,-0.0588 0.60773,-0.0299 0.60772,-0.11292 0.60772,-0.0271 0.60773,0.007 0.60772,-0.0936 0.60773,-0.0594 0.60772,-0.0692 0.60772,-0.0864 0.60773,0.08 0.60772,0.13056 0.60773,-0.0483 0.60772,-0.0767 0.60772,-0.0439 0.60773,0.007 0.60772,-0.003 0.60773,-0.13383 0.60772,-0.11649 0.60772,0.001 0.60773,-0.0222 0.60772,-0.0531 0.60773,-0.0112 0.60772,-0.0849 0.60772,-0.0699 0.60773,-0.0398 0.60772,-0.16225 0.60773,-0.0486 0.60772,-0.0975 0.60772,-0.002 0.60773,0.0119 0.60772,-0.0641 0.60773,-0.0735 0.60772,-0.14395 0.60772,0.0216 0.60773,-0.10401 0.60772,-0.0606 0.60773,-0.024 0.60772,-0.0202 0.60772,0.0593 0.60773,-0.0488 0.60772,-0.0594 0.60773,-0.11921 0.60772,-0.10309 0.60772,0.0276 0.60773,-0.008 0.60772,-0.031 0.60773,-0.007 0.60772,-6.4e-4 0.60772,-0.0325 0.60773,-0.0453 0.60772,-0.0747 0.60773,-0.18471 0.60772,-0.0763 0.60772,-0.0807 0.60773,-0.0738 0.60772,-0.15851 0.60773,-0.067 0.60772,-0.0786 0.60772,-0.0447 0.60773,-0.0296 0.60772,-0.11575 0.60773,-0.0527 0.60772,-0.10214 0.60772,-0.0629 0.60773,0.0674 0.60772,-0.0592 0.60773,-0.0789 0.60772,-0.0126 0.60772,0.003 0.60773,-0.064 0.60772,-0.13736 0.60773,-0.0814 0.60772,-0.052 0.60772,-0.10309 0.60773,-0.0934 0.60772,-0.13045 0.60773,-0.10051 0.60772,-0.0949 0.60772,-0.022 0.60773,-0.17509 0.60772,-0.0562 0.60773,-0.004 0.60772,-0.16969 0.60772,-0.0272 0.60773,-0.15118 0.60772,-0.0372 0.60773,-0.16916 0.60772,-0.11046 0.60772,-0.13937 0.60773,-0.11183 0.60772,-0.10517 0.60773,-0.0558 0.60772,-0.12509 0.60772,-0.13916 0.60773,-0.0636 0.60772,-0.0699 0.60773,-0.0113 0.60772,-0.0876 0.60772,-0.0996 0.60773,-0.16302 0.60772,-0.047 0.60773,-0.14628 0.60772,-0.0282 0.60772,-0.14388 0.60773,-0.0748 0.60772,-0.10803 0.60773,-0.19324 0.60772,-0.0487 0.60772,-0.18453 0.60773,-0.0974 0.60772,-0.18181 0.60773,-0.0213 0.60772,-0.0762 0.60772,-0.19063 0.60773,-0.0934 0.60772,-0.18341 0.60773,-0.0656 0.60772,-0.18693 0.60772,-0.21052 0.60773,-0.0945 0.60772,-0.1736 0.60773,-0.15862 0.60772,-0.19599 0.60772,-0.0949 0.60773,-0.12654 0.60772,-0.18361 0.60773,-0.0697 0.60772,-0.0971 0.60772,-0.14483 0.60773,-0.0778 0.60772,-0.0967 0.60773,-0.0673 0.60772,-0.0853 0.60772,-0.14233 0.60773,-0.16444 0.60772,-0.1516 0.60773,-0.14547 0.60772,-0.17582 0.60772,-0.17149 0.60773,-0.0208 0.60772,-0.13144 0.60773,-0.0714 0.60772,-0.15749 0.60772,-0.0256 0.60773,-0.21535 0.60772,-0.15629 0.60773,-0.15573 0.60772,-0.17593 0.60772,-0.0206 0.60773,-0.0375 0.60772,-0.0231 0.60773,-0.15792 0.60772,-0.0727 0.60772,0.0832 0.60773,-0.0508 0.60772,-0.0646 0.60773,-0.046 0.60772,-0.006 0.60772,0.0132 0.60773,0.0437 0.60772,0.001 0.60773,-0.0335 0.60772,0.005 0.60772,-0.0751 0.60773,-0.0642 0.60772,-0.074 0.60773,-0.0998 0.60772,0.0502 0.60772,0.0154 0.60773,0.10496 0.60772,0.0166 0.60773,0.0204 0.60772,0.0666 0.60772,-0.0494 0.60773,0.0342 0.60772,0.0556 0.60773,0.0425 0.60772,0.095 0.60772,0.0206 0.60773,-0.0375 0.60772,0.0391 0.60773,0.0167 0.60772,0.12329 0.60772,-0.0612 0.60773,0.0296 0.60772,-0.009 0.60773,-0.0848 0.60772,0.0178 0.60772,-0.10672 0.60773,-0.0697 0.60772,-0.0827 0.60773,0.0879 0.60772,0.007 0.60772,-0.0652 0.60773,-0.0486 0.60772,-0.0414 0.60773,0.0208 0.60772,0.0311 0.60772,0.0688 0.60773,-0.0235 0.60772,0.0421 0.60773,-0.0356 0.60772,0.0789 0.60772,-0.0278 0.60773,-0.0932 0.60772,0.0314 0.60773,-0.0382 0.60772,0.0183 0.60772,-0.0884 0.60773,0.0396 0.60772,0.001 0.60773,-0.0138 0.60772,0.0455 0.60772,-0.0118 0.60773,-0.0219 0.60772,-0.0512 0.60773,-0.0249 0.60772,-0.0549 0.60772,-0.11208 0.60773,0.0474 0.60772,0.10524 0.60773,7.8e-4 0.60772,0.004 0.60772,0.0669 0.60773,-0.004 0.60772,-0.0966 0.60773,0.0198 0.60772,0.0204 0.60772,-0.0178 0.60773,0.0126 0.60772,-0.0992 0.60773,0.0462 0.60772,-0.12618 0.60772,0.0346 0.60773,0.0225 0.60772,-0.045 0.60773,-0.0573 0.60772,-0.0824 0.60772,-0.0417 0.60773,-0.0652 0.60772,-0.0797 0.60773,-2.4e-4 0.60772,-0.009 0.60772,0.0256 0.60773,-0.0429 0.60772,0.001 0.60773,-0.0838 0.60772,-0.10654 0.60772,0.059 0.60773,0.0603 0.60772,0.028 0.60773,0.12315 0.60772,-0.0141 0.60772,-0.0397 0.60773,0.002 0.60772,0.0681 0.60773,0.0235 0.60772,0.0369 0.60772,0.13291 0.60773,-0.10094 0.60772,0.11702 0.60773,-0.0275 0.60772,0.0569 0.60772,-0.0651 0.60773,-0.004 0.60772,0.0631 0.60773,0.0964 0.60772,-0.0723 0.60772,-0.0983 0.60773,0.0505 0.60772,-0.0313 0.60773,-0.0138 0.60772,-0.1302 0.60772,-0.0405 0.60773,-0.10471 0.60772,-0.10232 0.60773,0.0291 0.60772,-0.0209 0.60772,0.09 0.60773,-0.0167 0.60772,-0.0723 0.60773,-0.0357 0.60772,0.0614 0.60772,-0.0173 0.60773,0.0114 0.60772,-0.0877 0.60773,-0.0217 0.60772,0.0516 0.60772,0.0984 0.60773,-0.003 0.60772,0.0803 0.60773,-0.0799 0.60772,0.048 0.60772,0.0468 0.60773,0.0567 0.60772,0.0504 0.60773,0.0327 0.60772,0.004 0.60772,0.0292 0.60773,-0.0249 0.60772,-0.002 0.60773,0.12195 0.60772,-0.0376 0.60772,-0.0585 0.60773,-0.048 0.60772,-0.0313 0.60773,0.14011 0.60772,-0.005 0.60772,-0.0712 0.60773,-0.19927 0.60772,0.0624 0.60773,0.0173 0.60772,0.0101 0.60772,-0.0586 0.60773,-0.0139 0.60772,-0.0493 0.60773,-0.11077 0.60772,-0.0547 0.60772,0.0398 0.60773,-0.003 0.60772,-0.0289 0.60773,-0.096 0.60772,-0.11187 0.60772,-0.13926 0.60773,-0.0398 0.60772,-0.11733 0.60773,0.0675 0.60772,0.01 0.60772,-0.0272 0.60773,-0.0385 0.60772,0.0498 0.60773,-0.115 0.60772,0.0753 0.60772,-0.19754 0.60773,-0.0233 0.60772,-0.0133 0.60773,-0.17628 0.60772,0.006 0.60772,0.0195 0.60773,-0.0334 0.60772,0.0877 0.60773,-0.0883 0.60772,-0.10714 0.60772,-0.0155 0.60773,0.0434 0.60772,-0.14148 0.60773,-0.0234 0.60772,0.0339 0.60772,-0.15926 0.60773,-0.0885 0.60772,-0.11437 0.60773,-0.0216 0.60772,-0.0866 0.60772,-0.0906 0.60773,-0.0651 0.60772,-0.0222 0.60773,-0.17488 0.60772,-0.0161 0.60772,-0.0214 0.60773,-0.10158 0.60772,0.0149 0.60773,-0.10252 0.60772,0.025 0.60772,-0.19257 0.60773,0.022 0.60772,-0.12664 0.60773,-0.0655 0.60772,0.011 0.60772,-0.0783 0.60773,-0.0304 0.60772,-0.0194 0.60773,-0.046 0.60772,-0.1089 0.60772,-0.0328 0.60773,-0.0317 0.60772,-0.0429 0.60773,-0.0811 0.60772,-0.0554 0.60772,-0.0917 0.60773,0.0274 0.60772,-0.18306 0.60773,0.007 0.60772,-0.0544 0.60772,-0.0648 0.60773,-0.10524 0.60772,-0.10612 0.60773,-0.0504 0.60772,-0.0792 0.60772,-0.0365 0.60773,-0.0821 0.60772,-0.0346 0.60773,-0.0831 0.60772,-0.14396 0.60772,-0.0137 0.60773,-0.0307 0.60772,-0.009 0.60773,-0.0679 0.60772,-0.0154 0.60772,-0.0429 0.60773,-0.12678 0.60772,-0.007 0.60773,-0.0376 0.60772,-0.20618 0.60772,0.0457 0.60773,-0.0655 0.60772,0.0218 0.60773,-0.16316 0.60772,0.0299 0.60772,-0.008 0.60773,0.043 0.60772,-0.0533 0.60773,-0.0825 0.60772,-0.0661 0.60772,0.032 0.60773,-0.12153 0.60772,-0.14032 0.60773,-0.12124 0.60772,-0.0885 0.60772,3.9e-4 0.60773,0.0308 0.60772,-0.0898 0.60773,-0.0979 0.60772,0.028 0.60772,-0.0276 0.60773,-0.0347 0.60772,-0.0829 0.60773,-0.0243 0.60772,-0.003 0.60772,-0.0136 0.60773,-0.0459 0.60772,0.0547 0.60773,-0.0824 0.60772,-0.0178 0.60772,-0.11091 0.60773,-0.0477 0.60772,0.0166 0.60773,-0.0196 0.60772,-0.0393 0.60772,-0.0554 0.60773,0.0419 0.60772,0.0755 0.60773,-0.0617 0.60772,0.0184 0.60772,0.0621 0.60773,-0.0415 0.60772,-0.0751 0.60773,-0.0925 0.60772,-0.10062 0.60772,0.0496 0.60773,-0.13052 0.60772,0.0199 0.60773,-0.018 0.60772,-0.0524 0.60772,0.0294 0.60773,-0.0477 0.60772,-0.0106 0.60773,-0.0735 0.60772,-0.0263 0.60772,-0.0662 0.60773,0.007 0.60772,0.0671 0.60773,-0.0685 0.60772,-0.12815 0.60772,-0.0879 0.60773,8.8e-4 0.60772,-0.0509 0.60773,-0.11578 0.60772,-0.0491 0.60772,0.027 0.60773,0.0131 0.60772,-0.0129 0.60773,-0.0469 0.60772,-0.0637 0.60772,-0.0119 0.60773,0.0238 0.60772,0.0148 0.60773,-5.6e-4 0.60772,-0.13355 0.60772,-0.03 0.60773,0.0391 0.60772,0.0189 0.60773,-0.0247 0.60772,-0.0366 0.60772,-0.0868 0.60773,-0.005 0.60772,0.0365 0.60773,0.10076 0.60772,0.0409 0.60772,-0.12633 0.60773,-0.11966 0.60772,-0.10721 0.60773,-0.0754 0.60772,-0.0355 0.60772,0.0335 0.60773,0.0141 0.60772,-0.0694 0.60773,0.0521 0.60772,-0.0599 0.60772,-0.0286 0.60773,0.0339 0.60772,0.0152 0.60773,0.0413 0.60772,-0.10059 0.60772,-0.0768 0.60773,-0.0518 0.60772,-0.0844 0.60773,-0.0247 0.60772,0.0179 0.60772,-0.045 0.60773,-0.0504 0.60772,-0.0518 0.60773,-0.0871 0.60772,-0.007 0.60772,0.0433 0.60773,-0.13285 0.60772,0.0312 0.60773,-0.10488 0.60772,-0.11547 0.60772,0.033 0.60773,-0.006 0.60772,-0.10915 0.60773,-0.0426 0.60772,0.0215 0.60772,-0.0105 0.60773,-0.0125 0.60772,-1.1e-4 0.60773,0.0192 0.60772,0.0403 0.60772,0.0137 0.60773,0.0315 0.60772,0.006 0.60773,-0.0678 0.60772,-0.0549 0.60772,-0.0533 0.60773,-0.085 0.60772,-0.0282 0.60773,-0.0377 0.60772,-0.0304 0.60772,-0.0442 0.60773,-0.003 0.60772,-0.0905 0.60773,-0.0194 0.60772,0.0291 0.60772,-0.0676 0.60773,0.0304 0.60772,-0.0481 0.60773,0.0709 0.60772,-0.10182 0.60772,-0.002 0.60773,0.0286 0.60772,-0.0852 0.60773,-0.0275 0.60772,0.008 0.60772,0.004 0.60773,-0.0413 0.60772,-0.0801 0.60773,0.0143 0.60772,-0.0247 0.60772,-0.05 0.60773,-0.007 0.60772,0.0613 0.60773,0.0427 0.60772,0.03 0.60772,0.0189 0.60773,-0.0137 0.60772,0.0999 0.60773,-0.0192 0.60772,-0.0678 0.60772,-0.0243 0.60773,-0.003 0.60772,0.004 0.60773,0.037 0.60772,-0.033 0.60772,-0.0347 0.60773,-9.5e-4 0.60772,-0.007 0.60773,-0.0674 0.60772,-0.0826 0.60772,0.039 0.60773,-0.0559 0.60772,0.0201 0.60773,0.041 0.60772,-0.0548 0.60772,0.0595 0.60773,-0.0541 0.60772,-0.0357 0.60773,0.0177 0.60772,-0.0682 0.60772,-0.0273 0.60773,-0.0405 0.60772,0.0527 0.60773,-0.066 0.60772,0.0927 0.60772,-0.008 0.60773,0.0248 0.60772,-0.0174 0.60773,-0.0527 0.60772,-0.0101 0.60772,-0.0159 0.60773,-1.7e-4 0.60772,-0.0141 0.60773,-0.0139 0.60772,-0.12696 0.60772,0.0548 0.60773,0.0597 0.60772,-0.10894 0.60773,0.0546 0.60772,-0.0546 0.60772,-0.005 0.60773,-0.0596 0.60772,0.0299 0.60773,-0.0219 0.60772,-0.0178 0.60772,0.063 0.60773,-0.0136 0.60772,-0.001 0.60773,0.0519 0.60772,-0.0445 0.60772,0.0611 0.60773,-0.0849 0.60772,-0.11134 0.60773,-0.0295 0.60772,0.0448 0.60772,0.0236 0.60773,-0.0759 0.60772,0.0113 0.60773,-0.007 0.60772,-0.009 0.60772,-0.0705 0.60773,-0.10186 0.60772,-0.0173 0.60773,0.0412 0.60772,0.0275 0.60772,0.0973 0.60773,0.0567 0.60772,0.0129 0.60773,0.0254 0.60772,0.0168 0.60772,0.0232 0.60773,0.0479 0.60772,-0.01 0.60773,-0.0121 0.60772,-0.013 0.60772,0.0477 0.60773,0.006 0.60772,0.0729 0.60773,-0.0205 0.60772,0.0318 0.60772,0.0295 0.60773,-0.10087 0.60772,-0.0641 0.60773,-0.0954 0.60772,0.0601 0.60772,-0.0582 0.60773,8.1e-4 0.60772,-0.0586 0.60773,-0.12802 0.60772,0.0142 0.60772,-0.0242 0.60773,-0.0794 0.60772,0.0679 0.60773,-0.0755 0.60772,-0.0943 0.60772,0.0227 0.60773,-0.007 0.60772,0.008 0.60773,0.009 0.60772,0.0598 0.60772,-0.10355 0.60773,-0.0538 0.60772,-0.0615 0.60773,0.13796 0.60772,-0.003 0.60772,-0.0335 0.60773,0.0414 0.60772,-0.0538 0.60773,0.0264 0.60772,-0.0171 0.60772,0.0462 0.60773,-0.0252 0.60772,0.0465 0.60773,0.0309 0.60772,0.0143 0.60772,0.0345 0.60773,0.0373 0.60772,-0.0213 0.60773,0.0333 0.60772,-0.0936 0.60772,0.0753 0.60773,-0.0417 0.60772,0.0269 0.60773,-0.0474 0.60772,0.0495 0.60772,-0.0273 0.60773,0.0156 0.60772,0.0167 0.60773,-0.043 0.60772,-0.0494 0.60772,-0.0121 0.60773,0.009 0.60772,-0.0731 0.60773,0.0846 0.60772,-0.0587 0.60772,0.0142 0.60773,-0.0719 0.60772,0.002 0.60773,0.002 0.60772,0.0109 0.60772,0.0454 0.60773,-0.009 0.60772,-0.0388 0.60773,0.0161 0.60772,-0.0376 0.60772,-0.0736 0.60773,-0.0424 0.60772,0.0137 0.60773,0.10626 0.60772,-0.0251 0.60772,-0.055 0.60773,0.0396 0.60772,-0.0375 0.60773,0.0264 0.60772,0.0721 0.60772,3e-5 0.60773,-0.1723 0.60772,-0.0514 0.60773,-0.0341 0.60772,-0.13274 0.60772,0.0707 0.60773,-0.0511 0.60772,0.0624 0.60773,0.004 0.60772,0.0934 0.60772,0.0415 0.60773,0.007 0.60772,0.10658 0.60773,-0.019 0.60772,-0.0203 0.60772,-0.11088 0.60773,0.0712 0.60772,0.0354 0.60773,-0.0373 0.60772,-0.0586 0.60772,0.03 0.60773,-0.0436 0.60772,0.0414 0.60773,-0.10217 0.60772,0.0139 0.60772,0.0555 0.60773,-0.0598 0.60772,-0.0837 0.60773,-0.0296 0.60772,-0.0214 0.60772,0.0149 0.60773,-0.0757 0.60772,-0.0329 0.60773,-0.11278 0.60772,0.0805 0.60772,-0.0667 0.60773,0.0581 0.60772,-0.0471 0.60773,-0.0908 0.60772,0.0661 0.60772,0.15618 0.60773,0.0259 0.60772,0.016 0.60773,0.0229 0.60772,0.0168 0.60772,0.0202 0.60773,-0.0292 0.60772,-0.005 0.60773,0.0495 0.60772,-0.093 0.60772,0.0468 0.60773,0.0243 0.60772,-0.0916 0.60773,0.0554 0.60772,-0.0269 0.60772,0.003 0.60773,-0.15672 0.60772,0.0357 0.60773,0.0578 0.60772,-0.0943 0.60772,-0.0149 0.60773,-0.005 0.60772,0.0857 0.60773,0.0724 0.60772,0.0744 0.60772,0.0237 0.60773,0.005 0.60772,0.003 0.60773,-0.0393 0.60772,0.12224 0.60772,0.0751 0.60773,-0.0366 0.60772,0.0338 0.60773,-0.01 0.60772,0.0753 0.60772,0.0173 0.60773,-0.0417 0.60772,0.0152 0.60773,-0.11318 0.60772,-0.11818 0.60772,-0.003 0.60773,-0.15319 0.60772,-0.0386 0.60773,-0.0162 0.60772,-0.1051 0.60772,-0.0561 0.60773,0.0468 0.60772,-0.0933 0.60773,-0.0748 0.60772,0.04 0.60772,-0.0948 0.60773,-0.048 0.60772,0.0403 0.60773,-0.009 0.60772,-0.0563 0.60772,-0.11976 0.60773,-0.002 0.60772,0.0351 0.60773,-0.001 0.60772,0.0658 0.60772,-0.0714 0.60773,0.0135 0.60772,-0.0529 0.60773,-0.0374 0.60772,0.0263 0.60772,-0.0471 0.60773,-0.0609 0.60772,-0.0354 0.60773,0.006"
                   vector-effect="non-scaling-stroke"
                   id="path156"
                   inkscape:connector-curvature="0" />
              </g>
            </g>
          </g>
        </g>
      </g>
    </g>
  </g>
  <g
     id="PlotItem_5"
     style="fill:none;stroke:#000000;stroke-width:1;stroke-linecap:square;stroke-linejoin:bevel"
     transform="translate(-25.079834,-139.57232)">
    <g
       id="AxisItem_3"
       style="fill:none;stroke:#000000;stroke-width:1;stroke-linecap:square;stroke-linejoin:bevel">
      <g
         font-size="11.875"
         font-style="normal"
         font-weight="400"
         id="g178"
         style="font-size:11.875px;font-style:normal;font-weight:400;fill:none;stroke:#969696;stroke-width:1;stroke-linecap:square;stroke-linejoin:bevel;stroke-opacity:1;font-family:Sans Serif">
        <polyline
           points="45.0,322.333 45.0,396.446566312"
           vector-effect="non-scaling-stroke"
           id="polyline180"
           style="fill:none" />
      </g>
      <g
         font-size="11.875"
         font-style="normal"
         font-weight="400"
         id="g182"
         style="font-size:11.875px;font-style:normal;font-weight:400;fill:none;stroke:#969696;stroke-width:1;stroke-linecap:square;stroke-linejoin:bevel;stroke-opacity:1;font-family:Sans Serif">
        <polyline
           points="45.5,359.389833688 50.5,359.389833688"
           vector-effect="non-scaling-stroke"
           id="polyline184"
           style="fill:none" />
      </g>
      <g
         font-size="11.875"
         font-style="normal"
         font-weight="400"
         id="g186"
         style="font-size:11.875px;font-style:normal;font-weight:400;fill:none;stroke:#969696;stroke-width:1;stroke-linecap:square;stroke-linejoin:bevel;stroke-opacity:0.49803904;font-family:Sans Serif">
        <polyline
           points="45.5,395.021361784 48.8333,395.021361784"
           vector-effect="non-scaling-stroke"
           id="polyline188"
           style="fill:none" />
        <polyline
           points="45.5,323.758265166 48.8333,323.758265166"
           vector-effect="non-scaling-stroke"
           id="polyline190"
           style="fill:none" />
      </g>
      <g
         font-size="11.875"
         font-style="normal"
         font-weight="400"
         id="g192"
         style="font-size:11.875px;font-style:normal;font-weight:400;fill:none;stroke:#969696;stroke-width:1;stroke-linecap:square;stroke-linejoin:bevel;stroke-opacity:0.33333297;font-family:Sans Serif">
        <polyline
           points="45.5,387.895035952 48.0,387.895035952"
           vector-effect="non-scaling-stroke"
           id="polyline194"
           style="fill:none" />
        <polyline
           points="45.5,380.76871012 48.0,380.76871012"
           vector-effect="non-scaling-stroke"
           id="polyline196"
           style="fill:none" />
        <polyline
           points="45.5,373.642384288 48.0,373.642384288"
           vector-effect="non-scaling-stroke"
           id="polyline198"
           style="fill:none" />
        <polyline
           points="45.5,366.516058456 48.0,366.516058456"
           vector-effect="non-scaling-stroke"
           id="polyline200"
           style="fill:none" />
        <polyline
           points="45.5,352.263507856 48.0,352.263507856"
           vector-effect="non-scaling-stroke"
           id="polyline202"
           style="fill:none" />
        <polyline
           points="45.5,345.137182024 48.0,345.137182024"
           vector-effect="non-scaling-stroke"
           id="polyline204"
           style="fill:none" />
        <polyline
           points="45.5,338.010856192 48.0,338.010856192"
           vector-effect="non-scaling-stroke"
           id="polyline206"
           style="fill:none" />
        <polyline
           points="45.5,330.884570786 48.0,330.884570786"
           vector-effect="non-scaling-stroke"
           id="polyline208"
           style="fill:none" />
      </g>
      <g
         font-size="11.875"
         font-style="normal"
         font-weight="400"
         transform="matrix(1,0,0,1.01064,5.5,322.333)"
         id="g210"
         style="font-size:11.875px;font-style:normal;font-weight:400;fill:none;stroke:#969696;stroke-width:1;stroke-linecap:square;stroke-linejoin:bevel;stroke-opacity:1;font-family:Sans Serif">
        <text
           font-size="11.875"
           font-style="normal"
           font-weight="400"
           x="31"
           xml:space="preserve"
           y="40.6562"
           id="text212"
           style="font-size:11.875px;font-style:normal;font-weight:400;fill:#969696;fill-opacity:1;stroke:none">0</text>
        <text
           font-size="11.875"
           font-style="normal"
           font-weight="400"
           x="19"
           xml:space="preserve"
           y="75.921898"
           id="text214"
           style="font-size:11.875px;font-style:normal;font-weight:400;fill:#969696;fill-opacity:1;stroke:none">-10</text>
        <text
           font-size="11.875"
           font-style="normal"
           font-weight="400"
           x="23"
           xml:space="preserve"
           y="5.4218798"
           id="text216"
           style="font-size:11.875px;font-style:normal;font-weight:400;fill:#969696;fill-opacity:1;stroke:none">10</text>
      </g>
    </g>
    <g
       id="ViewBox_5"
       style="fill:none;stroke:#000000;stroke-width:1;stroke-linecap:square;stroke-linejoin:bevel">
      <g
         font-size="11.875"
         font-style="normal"
         font-weight="400"
         id="g219"
         style="font-size:11.875px;font-style:normal;font-weight:400;fill:none;stroke:none;font-family:Sans Serif">
        <path
           d="m 45,322.333 616,0 0,73.3333 -616,0 0,-73.3333"
           vector-effect="non-scaling-stroke"
           id="path221"
           inkscape:connector-curvature="0" />
      </g>
      <clipPath
         id="ViewBox_5_clip">
        <path
           d="m 45,322.333 616,0 0,73.334 -616,0 0,-73.334"
           vector-effect="non-scaling-stroke"
           id="path224"
           inkscape:connector-curvature="0" />
      </clipPath>
      <g
         clip-path="url(#ViewBox_5_clip)"
         id="g226">
        <g
           id="ChildGroup_5"
           style="fill:none;stroke:#000000;stroke-width:1;stroke-linecap:square;stroke-linejoin:bevel">
          <g
             id="InfiniteLine_3"
             style="fill:none;stroke:#000000;stroke-width:1;stroke-linecap:square;stroke-linejoin:bevel">
            <g
               font-size="11.875"
               font-style="normal"
               font-weight="400"
               id="g230"
               style="font-size:11.875px;font-style:normal;font-weight:400;fill:none;stroke:#e6e6af;stroke-width:1;stroke-linecap:square;stroke-linejoin:bevel;stroke-opacity:1;font-family:Sans Serif">
              <polyline
                 points="661.00284908,359.0 44.9999465728,359.0"
                 vector-effect="non-scaling-stroke"
                 id="polyline232"
                 style="fill:none" />
            </g>
          </g>
          <g
             id="PlotDataItem_5">
            <g
               id="PlotCurveItem_5"
               style="fill:none;stroke:#000000;stroke-width:1;stroke-linecap:square;stroke-linejoin:bevel">
              <g
                 font-size="11.875"
                 font-style="normal"
                 font-weight="400"
                 id="g236"
                 style="font-size:11.875px;font-style:normal;font-weight:400;fill:none;stroke:#0000ff;stroke-width:1;stroke-linecap:square;stroke-linejoin:bevel;stroke-opacity:1;font-family:Sans Serif">
                <path
                   d="m 29.4743,353.14744 0.607724,-0.45834 0.607724,-1.26923 0.607724,-1.62179 0.607724,2.08013 0.607724,-2.15064 0.607724,-0.21154 0.607724,4.33654 0.607724,-1.51603 0.607724,-1.09295 0.607724,1.76282 0.607724,-1.69231 0.607724,-1.41025 0.607724,2.5032 0.607724,-1.90384 0.607724,-0.70513 0.607724,3.27884 0.607724,-1.65705 0.607724,0.59936 0.607724,-0.84615 0.607724,-0.2115 0.607724,1.23393 0.607724,0.2468 0.607724,-0.98718 0.607724,0.59936 0.607724,-1.375 0.607724,-0.10577 0.607724,1.09295 0.607724,-1.375 0.607724,0.35256 0.607724,3.13782 0.607724,-1.62179 0.607724,-0.0353 0.607724,0.0705 0.607724,0.59936 0.607724,-1.41025 0.607724,0.28205 0.607724,0.66987 0.607724,-4.23077 0.607724,4.6891 0.607724,-1.9391 0.607724,0.88141 0.607724,-1.09295 0.607724,-0.45833 0.607724,0.66987 0.607724,0.70513 0.607724,0.10577 0.607724,-2.50321 0.607724,2.60901 0.607724,-2.71477 0.607724,4.08974 0.607724,0.14102 0.607724,-1.02243 0.607724,-3.77244 0.607724,4.44231 0.607724,-3.17308 0.607724,2.1859 0.607724,0 0.607724,-0.5641 0.607724,0.52888 0.607724,-2.22119 0.607724,3.06731 0.607724,-3.73718 0.607724,2.36218 0.607724,0.63461 0.607724,0.98718 0.607724,-3.56089 0.607724,3.3141 0.607724,-2.57372 0.607724,0.66987 0.607724,1.55128 0.607724,-4.125 0.607724,3.63145 0.607724,0.14099 0.607724,-1.09291 0.607724,1.16342 0.607724,-1.05769 0.607724,0 0.607724,1.62179 0.607724,-0.21153 0.607724,-0.52885 0.607724,-3.27885 0.607724,2.89103 0.607724,-1.76282 0.607724,1.97439 0.607724,-0.3526 0.607724,0.59936 0.607724,-1.51602 0.607724,-0.56407 0.607724,2.82048 0.607724,-1.23398 0.607724,-1.23397 0.607724,1.83333 0.607724,-0.2115 0.607724,-0.88141 0.607724,2.78522 0.607724,-2.00962 0.607724,2.53847 0.607724,-3.63141 0.607724,0.95192 0.607724,-4.16026 0.607724,4.97116 0.607724,-2.89103 0.607724,0.77564 0.607724,1.48081 0.607724,0.17624 0.607724,-2.99679 0.607724,1.90384 0.607724,2.53847 0.607724,-2.15065 0.607724,-1.83333 0.607724,1.83333 0.607724,1.48077 0.607724,-1.62179 0.607724,1.30449 0.607724,0.14102 0.607724,-3.34936 0.607726,-0.45833 0.60772,2.00965 0.60773,1.2692 0.60772,-1.65706 0.60772,-0.24679 0.60773,6.16987 0.60772,-5.67628 0.60773,1.1282 0.60772,-0.38782 0.60772,-0.77564 0.60773,-0.81089 0.60772,0.17631 0.60773,0.77561 0.60772,-0.38782 0.60772,1.65705 0.60773,-1.19872 0.60772,-1.30449 0.60773,4.47757 0.60772,-3.10257 0.60772,0.14103 0.60773,-1.375 0.60772,4.16026 0.60773,-4.90064 0.60772,1.51602 0.60772,-0.35256 0.60773,4.83016 0.60772,-4.08978 0.60773,0.0353 0.60772,0.84612 0.60772,0.88141 0.60773,-1.16346 0.60772,-1.72756 0.60773,4.90064 0.60772,-5.60577 0.60772,1.90384 0.60773,1.30449 0.60772,0.84615 0.60773,-1.76282 0.60772,-0.5641 0.60772,0.45834 0.60773,-1.58654 0.60772,3.20833 0.60773,-1.05766 0.60772,-1.23401 0.60772,1.6218 0.60773,2.75003 0.60772,-1.93913 0.60773,-2.96151 0.60772,0.63458 0.60772,1.41026 0.60773,1.09295 0.60772,-4.08974 0.60773,2.29166 0.60772,0.31731 0.60772,-0.52885 0.60773,1.58654 0.60772,-1.23397 0.60773,1.1282 0.60772,-0.0352 0.60772,0.49358 0.60773,-1.19871 0.60772,-1.86856 0.60773,2.92625 0.60772,-2.11535 0.60772,-0.84619 0.60773,-0.45833 0.60772,-0.17628 0.60773,2.96153 0.60772,-1.30448 0.60772,2.53846 0.60773,-5.35897 0.60772,1.33974 0.60773,1.16346 0.60772,0.24679 0.60772,-1.30448 0.60773,1.90384 0.60772,-0.38782 0.60773,-0.0705 0.60772,0 0.60772,1.33974 0.60773,-3.17307 0.60772,1.65708 0.60773,-0.1058 0.60772,1.23397 0.60772,-2.04487 0.60773,1.79811 0.60772,1.97433 0.60773,-2.15064 0.60772,0.45833 0.60772,-0.10577 0.60773,-0.98714 0.60772,1.3397 0.60773,-1.58653 0.60772,-0.49359 0.60772,0.5641 0.60773,0.74038 0.60772,2.50321 0.60773,-2.39744 0.60772,0.10577 0.60772,-3.52564 0.60773,3.41987 0.60772,-2.75 0.60773,2.46795 0.60772,-2.04487 0.60772,0.35256 0.60773,4.125 0.60772,-6.48717 0.60773,3.0673 0.60772,-0.70513 0.60772,2.22116 0.60773,-0.91663 0.60772,-2.25645 0.60773,0.59936 0.60772,2.04487 0.60772,-2.1859 0.60773,-1.02243 0.60772,2.29166 0.60773,-1.05769 0.60772,1.02244 0.60772,0.17628 0.60773,-1.09295 0.60772,-0.28205 0.60773,0.38782 0.60772,-1.44551 0.60772,2.22115 0.60773,-2.46795 0.60772,1.0577 0.60773,-0.10577 0.60772,-1.0577 0.60772,-0.66987 0.60773,0.38782 0.60772,-2.11538 0.60773,1.44551 0.60772,-1.02243 0.60772,1.58653 0.60773,-1.44551 0.60772,-1.44551 0.60773,1.09295 0.60772,-0.0705 0.60772,0.14102 0.60773,-1.23397 0.60772,1.26923 0.60773,-0.0353 0.60772,-1.02243 0.60772,1.37499 0.60773,-0.3173 0.60772,0.10577 0.60773,-2.71475 0.60772,2.11539 0.60772,-2.71475 0.60773,1.33975 0.60772,-1.58654 0.60773,0.14103 0.60772,0.10576 0.60772,0.52885 0.60773,-2.64423 0.60772,1.86859 0.60773,-1.62179 0.60772,3.24358 0.60772,-3.49038 0.60773,-0.21154 0.60772,0.42308 0.60773,1.1282 0.60772,-3.8782 0.60772,2.82051 0.60773,-0.10577 0.60772,0.17628 0.60773,-0.3173 0.60772,-1.12821 0.60772,-0.28205 0.60773,1.12821 0.60772,-1.55129 0.60773,0.14103 0.60772,0 0.60772,0.0705 0.60773,-0.24679 0.60772,-0.74039 0.60773,0 0.60772,0.98718 0.60772,0.45834 0.60773,2.11538 0.60772,-1.375 0.60773,-1.19872 0.60772,1.19872 0.60772,1.48077 0.60773,0.49359 0.60772,0.70513 0.60773,2.39743 0.60772,-0.52881 0.60772,2.89099 0.60773,1.41026 0.60772,1.16349 0.60773,-0.0705 0.60772,4.86535 0.60772,3.34936 0.60773,-1.69231 0.60772,3.66666 0.60773,-0.42307 0.60772,-3.91346 0.60772,4.58333 0.60773,-6.3109 0.60772,4.9359 0.60773,0.66987 0.60772,-3.3141 0.60772,3.45513 0.60773,-2.71475 0.60772,1.69231 0.60773,-1.97436 0.60772,0.74039 0.60772,2.22115 0.60773,1.90385 0.60772,-1.86859 0.60773,1.6923 0.60772,2.36218 0.60772,-5.57051 0.60773,1.30449 0.60772,-0.0353 0.60773,-0.84615 0.60772,-1.69231 0.60772,0.95196 0.60773,2.99679 0.60772,-6.80452 0.60773,2.53846 0.60772,3.66667 0.60772,2.36218 0.60773,-5.11218 0.60772,1.16346 0.60773,5.71154 0.60772,-2.43269 0.60772,-4.3718 0.60773,3.24363 0.60772,-4.23081 0.60773,1.51603 0.60772,-0.70513 0.60772,-0.0353 0.60773,0.77565 0.60772,-2.64423 0.60773,5.0064 0.60772,0.88141 0.60772,-2.15064 0.60773,-0.84615 0.60772,-1.1282 0.60773,-0.8109 0.60772,3.13782 0.60772,-0.49359 0.60773,-0.10577 0.60772,0.74038 0.60773,1.72757 0.60772,-1.41026 0.60772,-2.75 0.60773,-0.10577 0.60772,4.40705 0.60773,-2.46791 0.60772,-2.82055 0.60772,1.97436 0.60773,-0.74038 0.60772,4.51282 0.60773,-4.58334 0.60772,1.30449 0.60772,2.75 0.60773,-2.3974 0.60772,-0.95196 0.60773,-0.31727 0.60772,2.04484 0.60772,0.17628 0.60773,-1.79808 0.60772,0.52885 0.60773,1.19871 0.60772,-2.5032 0.60772,2.11538 0.60773,-0.21153 0.60772,0.66987 0.60773,-2.75 0.60772,0.31731 0.60772,-3.03205 0.60773,4.83012 0.60772,-2.15064 0.60773,1.23398 0.60772,-0.0705 0.60772,3.38462 0.60773,-3.73718 0.60772,-1.12821 0.60773,0.28206 0.60772,3.6314 0.60772,-0.95192 0.60773,-4.16025 0.60772,5.18269 0.60773,-1.16346 0.60772,-4.93586 0.60772,5.74675 0.60773,-2.08012 0.60772,-1.09295 0.60773,-0.0705 0.60772,-1.05769 0.60772,1.83334 0.60773,0.74038 0.60772,2.22115 0.60773,-4.75961 0.60772,3.03208 0.60772,-0.28208 0.60773,-2.50321 0.60772,-0.77564 0.60773,2.82052 0.60772,1.37499 0.60772,0.2468 0.60773,-1.65705 0.60772,0.24679 0.60773,-1.23397 0.60772,0.70513 0.60772,1.90384 0.60773,-3.98397 0.60772,2.75 0.60773,-1.30449 0.60772,2.53846 0.60772,-1.30448 0.60773,-0.59936 0.60772,2.75 0.60773,-2.11539 0.60772,0.21154 0.60772,-0.8109 0.60773,-1.55128 0.60772,1.30449 0.60773,2.85577 0.60772,-0.2468 0.60772,-2.04487 0.60773,2.25641 0.60772,-2.64423 0.60773,2.9968 0.60772,-3.59616 0.60772,-1.79807 0.60773,2.85576 0.60772,-2.15064 0.60773,1.09295 0.60772,-2.32692 0.60772,3.63141 0.60773,-2.00962 0.60772,0.52885 0.60773,0.91667 0.60772,-2.32693 0.60772,2.92629 0.60773,-0.0353 0.60772,0.35256 0.60773,-0.74038 0.60772,1.09295 0.60772,-2.50321 0.60773,1.48077 0.60772,1.97436 0.60773,-0.45833 0.60772,-1.12821 0.60772,0.21154 0.60773,0.95192 0.60772,-0.88141 0.60773,-1.41025 0.60772,1.65705 0.60772,-1.9391 0.60773,1.62179 0.60772,-1.375 0.60773,0.2468 0.60772,-0.49359 0.60772,4.4423 0.60773,-5.07692 0.60772,2.15064 0.60773,-2.04487 0.60772,1.58654 0.60772,-2.29167 0.60773,0.49359 0.60772,6.0641 0.60773,-3.27884 0.60772,-3.34936 0.60772,4.05449 0.60773,-1.30449 0.60772,0.24679 0.60773,-1.05769 0.60772,1.09298 0.60772,2.36215 0.60773,-4.23077 0.60772,4.44231 0.60773,-3.24359 0.60772,-2.11539 0.60772,2.04488 0.60773,2.15064 0.60772,-3.20834 0.60773,0.52885 0.60772,-2.92628 0.60772,2.82051 0.60773,2.8558 0.60772,-1.44554 0.60773,-1.69231 0.60772,0.28205 0.60772,0.63462 0.60773,-5.1827 0.60772,4.97116 0.60773,1.51602 0.60772,-2.92628 0.60772,0.31731 0.60773,0.21154 0.60772,2.11538 0.60773,-4.30128 0.60772,6.83974 0.60772,-1.65705 0.60773,-0.28205 0.60772,-3.3141 0.60773,2.75 0.60772,-1.02244 0.60772,-0.28205 0.60773,1.55128 0.60772,-6.31089 0.60773,2.11538 0.60772,2.08013 0.60772,2.43269 0.60773,-6.13461 0.60772,5.21794 0.60773,-1.76282 0.60772,1.12821 0.60772,2.43269 0.60773,-3.41987 0.60772,2.43269 0.60773,-2.1859 0.60772,0.77564 0.60772,-1.79807 0.60773,-1.33975 0.60772,1.6218 0.60773,3.5609 0.60772,-2.46795 0.60772,1.9391 0.60773,-2.89103 0.60772,-0.24679 0.60773,1.76282 0.60772,2.1859 0.60772,-2.25641 0.60773,-0.17628 0.60772,-0.74039 0.60773,0.70513 0.60772,1.30449 0.60772,-0.0352 0.60773,-3.03205 0.60772,3.2083 0.60773,-0.35256 0.60772,-2.00962 0.60772,0.77564 0.60773,1.93911 0.60772,-2.39744 0.60773,1.9391 0.60772,-4.05448 0.60772,2.99679 0.60773,1.97439 0.60772,-3.6667 0.60773,0.8109 0.60772,2.53846 0.60772,-1.09295 0.60773,0.88141 0.60772,-0.74038 0.60773,-1.23398 0.60772,-3.91346 0.60772,6.83975 0.60773,-5.07693 0.60772,3.38462 0.60773,0.77564 0.60772,0.52884 0.60772,-0.24679 0.60773,1.58654 0.60772,-1.37497 0.60773,-1.55131 0.60772,-0.0705 0.60772,0 0.60773,0.21154 0.60772,-0.98718 0.60773,-0.59932 0.60772,-0.31734 0.60772,2.29166 0.60773,-0.91666 0.60772,-2.39744 0.60773,0.45833 0.60772,2.82052 0.60772,-1.02244 0.60773,-0.49359 0.60772,1.12821 0.60773,-1.48077 0.60772,2.32692 0.60772,-2.36218 0.60773,2.92632 0.60772,-4.54811 0.60773,4.4423 0.60772,-3.63141 0.60772,-1.30448 0.60773,5.57051 0.60772,-4.3718 0.60773,2.85577 0.60772,-1.86859 0.60772,4.79491 0.60773,-5.11221 0.60772,2.92628 0.60773,0.17628 0.60772,0.14102 0.60772,-4.05445 0.60773,0.35253 0.60772,3.17308 0.60773,-0.70513 0.60772,-0.38782 0.60772,0.28205 0.60773,0 0.60772,-0.91666 0.60773,2.5032 0.60772,-1.48077 0.60772,-0.21154 0.60773,-0.52884 0.60772,-0.21154 0.60773,0.28205 0.60772,1.62179 0.60772,-0.81089 0.60773,1.76282 0.60772,-0.38782 0.60773,0.42307 0.60772,-3.49038 0.60772,-0.35256 0.60773,4.12499 0.60772,-3.45512 0.60773,1.97436 0.60772,-0.95193 0.60772,-0.59936 0.60773,-2.29166 0.60772,4.47756 0.60773,-2.11538 0.60772,2.82051 0.60772,-2.9968 0.60773,3.63141 0.60772,-4.26602 0.60773,4.30128 0.60772,-4.01923 0.60772,-0.77564 0.60773,1.62179 0.60772,-0.77564 0.60773,0.14103 0.60772,-0.2468 0.60772,-2.29166 0.60773,3.41987 0.60772,-0.77564 0.60773,2.00961 0.60772,1.79808 0.60772,-4.9359 0.60773,2.32693 0.60772,-1.76282 0.60773,1.97435 0.60772,-1.6923 0.60772,-2.36218 0.60773,0.70513 0.60772,4.47756 0.60773,-3.87821 0.60772,2.82052 0.60772,-1.02244 0.60773,1.23398 0.60772,-2.85577 0.60773,2.25641 0.60772,-1.48077 0.60772,0.91666 0.60773,-2.60897 0.60772,2.39744 0.60773,-0.42308 0.60772,1.58654 0.60772,1.33974 0.60773,-2.5032 0.60772,0.49359 0.60773,-3.45513 0.60772,0.35256 0.60772,2.11539 0.60773,-1.79808 0.60772,1.44551 0.60773,0.59936 0.60772,2.11538 0.60772,-1.26923 0.60773,-2.29166 0.60772,3.73718 0.60773,-4.79487 0.60772,3.17307 0.60772,3.59616 0.60773,-7.1218 0.60772,-0.10577 0.60773,4.90064 0.60772,-0.38782 0.60772,0.14103 0.60773,-2.89103 0.60772,1.65705 0.60773,0.45834 0.60772,-2.25641 0.60772,3.52564 0.60773,-2.43269 0.60772,1.76282 0.60773,-0.63462 0.60772,-1.19872 0.60772,0.84616 0.60773,-5.25321 0.60772,1.30449 0.60773,1.51606 0.60772,-0.66991 0.60772,3.24359 0.60773,-3.03205 0.60772,2.46795 0.60773,-0.35256 0.60772,0.24679 0.60772,1.72756 0.60773,-1.09294 0.60772,0.70512 0.60773,0 0.60772,1.30449 0.60772,-4.47756 0.60773,3.94871 0.60772,-4.33653 0.60773,5.88782 0.60772,-0.45834 0.60772,-4.19551 0.60773,1.05769 0.60772,1.55129 0.60773,-3.34936 0.60772,-0.14103 0.60772,1.69231 0.60773,1.48077 0.60772,0.42307 0.60773,-5.74679 0.60772,5.42949 0.60772,-1.44552 0.60773,1.6218 0.60772,0.49362 0.60773,-0.0705 0.60772,-2.85577 0.60772,2.82051 0.60773,-4.44231 0.60772,2.96154 0.60773,-0.98718 0.60772,-3.3141 0.60772,2.32692 0.60773,2.36218 0.60772,1.12821 0.60773,-4.19552 0.60772,5.18269 0.60772,-2.82051 0.60773,-1.23397 0.60772,3.17307 0.60773,-4.05445 0.60772,0.52881 0.60772,-1.51602 0.60773,6.24038 0.60772,-2.29166 0.60773,-2.08013 0.60772,-0.0353 0.60772,0.14103 0.60773,-1.48077 0.60772,-0.0353 0.60773,2.46795 0.60772,-2.99679 0.60772,1.65705 0.60773,0.21154 0.60772,2.99679 0.60773,-2.82051 0.60772,-0.42308 0.60772,3.94872 0.60773,-0.10577 0.60772,-2.89103 0.60773,-1.23397 0.60772,2.99679 0.60772,0.38782 0.60773,-5.18269 0.60772,1.69231 0.60773,-0.10577 0.60772,2.25641 0.60772,-1.02243 0.60773,0.17628 0.60772,-1.02244 0.60773,2.22116 0.60772,-0.45834 0.60772,-0.5641 0.60773,1.58654 0.60772,-1.65705 0.60773,1.26923 0.60772,0.38782 0.60772,1.97436 0.60773,-6.0641 0.60772,6.27563 0.60773,-4.83012 0.60772,-0.49359 0.60772,2.75 0.60773,0.0353 0.60772,-1.02243 0.60773,-1.19872 0.60772,0.74038 0.60772,0.42308 0.60773,-1.62179 0.60772,0.3173 0.60773,0.0353 0.60772,3.34936 0.60772,-2.08013 0.60773,0.66987 0.60772,-1.16346 0.60773,2.89103 0.60772,0.74038 0.60772,-2.67945 0.60773,-0.77568 0.60772,3.34936 0.60773,-4.6891 0.60772,1.69231 0.60772,-1.33975 0.60773,-1.23397 0.60772,4.97115 0.60773,-3.24355 0.60772,0.2115 0.60772,-0.52884 0.60773,0.74038 0.60772,1.41026 0.60773,-0.59936 0.60772,2.78525 0.60772,-2.99679 0.60773,0.66987 0.60772,1.76282 0.60773,-4.75961 0.60772,1.76282 0.60772,2.22115 0.60773,1.9391 0.60772,-1.23397 0.60773,-0.49359 0.60772,0.17628 0.60772,-5.39423 0.60773,3.38462 0.60772,-0.52885 0.60773,-2.04487 0.60772,1.58654 0.60772,1.76282 0.60773,-1.19872 0.60772,1.16346 0.60773,-1.33974 0.60772,4.4776 0.60772,-2.92629 0.60773,-2.53849 0.60772,1.09295 0.60773,-0.49359 0.60772,-0.2468 0.60772,4.90064 0.60773,-3.66666 0.60772,-1.44552 0.60773,-1.33974 0.60772,2.04487 0.60772,2.00962 0.60773,-0.49359 0.60772,0.0353 0.60773,-1.1282 0.60772,-2.15064 0.60772,1.09295 0.60773,0.10577 0.60772,-0.0353 0.60773,1.41026 0.60772,0.28205 0.60772,-2.67949 0.60773,3.63141 0.60772,-0.38779 0.60773,-1.234 0.60772,0.42307 0.60772,0.28205 0.60773,-1.55128 0.60772,0.77564 0.60773,-0.70509 0.60772,1.62176 0.60772,1.02243 0.60773,0.28206 0.60772,-0.0705 0.60773,-3.10256 0.60772,0.21154 0.60772,-0.42308 0.60773,2.46798 0.60772,-3.59618 0.60773,1.26923 0.60772,2.04487 0.60772,3.24362 0.60773,-2.0449 0.60772,-0.84616 0.60773,0.77564 0.60772,0.35257 0.60772,0.70512 0.60773,-1.33974 0.60772,-2.36218 0.60773,1.48077 0.60772,-1.33974 0.60772,-0.95192 0.60773,2.18589 0.60772,-0.5641 0.60773,0.66987 0.60772,-1.79807 0.60772,2.2564 0.60773,-0.74038 0.60772,-2.53846 0.60773,3.13785 0.60772,-3.73721 0.60772,5.95833 0.60773,-3.80769 0.60772,0.45833 0.60773,0.2468 0.60772,-5.32372 0.60772,2.36218 0.60773,2.53846 0.60772,1.16346 0.60773,-2.82051 0.60772,-0.98718 0.60772,4.30128 0.60773,-5.53525 0.60772,2.29166 0.60773,2.53847 0.60772,0.0353 0.60772,-1.41025 0.60773,2.92628 0.60772,-1.375 0.60773,-1.6218 0.60772,1.51603 0.60772,2.57372 0.60773,-2.4327 0.60772,1.48077 0.60773,-2.64423 0.60772,-0.49359 0.60772,0.8109 0.60773,0.31731 0.60772,-0.10577 0.60773,-1.65705 0.60772,2.71474 0.60772,2.96154 0.60773,-2.67949 0.60772,-0.59936 0.60773,-3.10256 0.60772,-0.10577 0.60772,3.59615 0.60773,-1.09291 0.60772,3.38458 0.60773,-5.14744 0.60772,3.45517 0.60772,1.0224 0.60773,1.58654 0.60772,-4.61859 0.60773,1.76282 0.60772,0.35256 0.60772,-3.66666 0.60773,2.32692 0.60772,-0.28205 0.60773,-0.10577 0.60772,-0.66987 0.60772,-0.35257 0.60773,-1.19872 0.60772,0.52885 0.60773,1.09295 0.60772,-1.41026 0.60772,2.36218 0.60773,0.70513 0.60772,-2.00962 0.60773,2.22116 0.60772,-2.60894 0.60772,0.28202 0.60773,1.9391 0.60772,-2.78526 0.60773,-0.95192 0.60772,3.45513 0.60772,-1.65705 0.60773,1.9391 0.60772,-0.45834 0.60773,2.53847 0.60772,-3.98398 0.60772,-0.52884 0.60773,2.53846 0.60772,-0.38782 0.60773,-2.22116 0.60772,1.44552 0.60772,0.1058 0.60773,1.23394 0.60772,-2.00962 0.60773,-1.1282 0.60772,0.14102 0.60772,0.59936 0.60773,1.6218 0.60772,2.25641 0.60773,-1.0224 0.60772,-3.27888 0.60772,0.21154 0.60773,0.45833 0.60772,4.54811 0.60773,-5.46478 0.60772,3.73718 0.60772,-0.84615 0.60773,-1.16346 0.60772,1.09294 0.60773,-2.57371"
                   vector-effect="non-scaling-stroke"
                   id="path238"
                   inkscape:connector-curvature="0" />
              </g>
            </g>
          </g>
        </g>
      </g>
    </g>
  </g>
  <g
     id="g3721"
     transform="translate(-25.079834,-1.5723166)">
    <g
       transform="translate(-159.14957,8.3609359)"
       id="g3944"
       style="fill:none;stroke:#000000;stroke-width:1;stroke-linecap:square;stroke-linejoin:bevel">
      <path
         style="fill:none;stroke:#000000;stroke-width:0.56202096;stroke-linecap:butt;stroke-linejoin:miter;stroke-miterlimit:4;stroke-opacity:1;stroke-dasharray:0.56202098, 1.68606294;stroke-dashoffset:0"
         d="m 367.72186,6.2747598 0,266.4810902 0,0 0,-0.22152"
         id="path3237-3"
         inkscape:connector-curvature="0"
         sodipodi:nodetypes="cccc" />
      <text
         xml:space="preserve"
         style="font-size:9px;font-style:normal;font-variant:normal;font-weight:normal;font-stretch:normal;line-height:125%;letter-spacing:0px;word-spacing:0px;fill:#000000;fill-opacity:1;stroke:none;font-family:TeX Gyre Termes;-inkscape-font-specification:TeX Gyre Termes"
         x="335.78943"
         y="280.81375"
         id="text4007-6"
         sodipodi:linespacing="125%"><tspan
           sodipodi:role="line"
           id="tspan4009-1"
           x="335.78943"
           y="280.81375"
           style="font-size:14px">Vehicle at point A</tspan></text>
    </g>
    <text
       sodipodi:linespacing="125%"
       id="text4011-0"
       y="289.17468"
       x="31.021587"
       style="font-size:9px;font-style:normal;font-variant:normal;font-weight:normal;font-stretch:normal;line-height:125%;letter-spacing:0px;word-spacing:0px;fill:#000000;fill-opacity:1;stroke:none;font-family:TeX Gyre Termes;-inkscape-font-specification:TeX Gyre Termes"
       xml:space="preserve"><tspan
         style="font-size:14px"
         y="289.17468"
         x="31.021587"
         id="tspan4013-5"
         sodipodi:role="line">Initial position</tspan></text>
    <text
       sodipodi:linespacing="125%"
       id="text4023-1"
       y="163.15784"
       x="52.757301"
       style="font-size:14px;font-style:normal;font-variant:normal;font-weight:normal;font-stretch:normal;line-height:125%;letter-spacing:0px;word-spacing:0px;fill:#000000;fill-opacity:1;stroke:none;font-family:TeX Gyre Termes;-inkscape-font-specification:TeX Gyre Termes"
       xml:space="preserve"><tspan
         y="163.15784"
         x="52.757301"
         id="tspan4025-7"
         sodipodi:role="line">Sensor unit </tspan></text>
    <text
       sodipodi:linespacing="125%"
       id="text4027-4"
       y="81.137787"
       x="53.177315"
       style="font-size:14px;font-style:normal;font-variant:normal;font-weight:normal;font-stretch:normal;line-height:125%;letter-spacing:0px;word-spacing:0px;fill:#000000;fill-opacity:1;stroke:none;font-family:TeX Gyre Termes;-inkscape-font-specification:TeX Gyre Termes"
       xml:space="preserve"><tspan
         y="81.137787"
         x="53.177315"
         id="tspan4029-6"
         sodipodi:role="line">Motor unit</tspan></text>
    <text
       sodipodi:linespacing="125%"
       id="text4031-9"
       y="257.23642"
       x="53.0933"
       style="font-size:14px;font-style:normal;font-variant:normal;font-weight:normal;font-stretch:normal;line-height:125%;letter-spacing:0px;word-spacing:0px;fill:#000000;fill-opacity:1;stroke:none;font-family:TeX Gyre Termes;-inkscape-font-specification:TeX Gyre Termes"
       xml:space="preserve"><tspan
         y="257.23642"
         x="53.0933"
         id="tspan4033-6"
         sodipodi:role="line">Input transducer</tspan></text>
  </g>
</svg>
