<?xml version="1.0" encoding="UTF-8" standalone="no"?>
<svg
   xmlns:dc="http://purl.org/dc/elements/1.1/"
   xmlns:cc="http://creativecommons.org/ns#"
   xmlns:rdf="http://www.w3.org/1999/02/22-rdf-syntax-ns#"
   xmlns:svg="http://www.w3.org/2000/svg"
   xmlns="http://www.w3.org/2000/svg"
   xmlns:sodipodi="http://sodipodi.sourceforge.net/DTD/sodipodi-0.dtd"
   xmlns:inkscape="http://www.inkscape.org/namespaces/inkscape"
   version="1.2"
   id="svg2"
   inkscape:version="0.48.4 r9939"
   width="635.92017"
   height="291.19778"
   sodipodi:docname="Braiten-1-2-full-connection-point.3-value-1-1.svg">
  <metadata
     id="metadata260">
    <rdf:RDF>
      <cc:Work
         rdf:about="">
        <dc:format>image/svg+xml</dc:format>
        <dc:type
           rdf:resource="http://purl.org/dc/dcmitype/StillImage" />
      </cc:Work>
    </rdf:RDF>
  </metadata>
  <sodipodi:namedview
     pagecolor="#ffffff"
     bordercolor="#666666"
     borderopacity="1"
     objecttolerance="10"
     gridtolerance="10"
     guidetolerance="10"
     inkscape:pageopacity="0"
     inkscape:pageshadow="2"
     inkscape:window-width="1920"
     inkscape:window-height="1026"
     id="namedview258"
     showgrid="false"
     fit-margin-top="0"
     fit-margin-left="0"
     fit-margin-right="0"
     fit-margin-bottom="0"
     inkscape:zoom="1.7940591"
     inkscape:cx="-43.721888"
     inkscape:cy="162.33534"
     inkscape:window-x="1047"
     inkscape:window-y="-3"
     inkscape:window-maximized="1"
     inkscape:current-layer="svg2" />
  <title
     id="title4">pyqtgraph SVG export</title>
  <desc
     id="desc6">Generated with Qt and pyqtgraph</desc>
  <defs
     id="defs8" />
  <g
     id="PlotItem_1"
     style="fill:none;stroke:#000000;stroke-width:1;stroke-linecap:square;stroke-linejoin:bevel"
     transform="translate(-25.079834,-1.5723166)">
    <g
       id="AxisItem_1"
       style="fill:none;stroke:#000000;stroke-width:1;stroke-linecap:square;stroke-linejoin:bevel">
      <g
         font-size="11.875"
         font-style="normal"
         font-weight="400"
         id="g14"
         style="font-size:11.875px;font-style:normal;font-weight:400;fill:none;stroke:#969696;stroke-width:1;stroke-linecap:square;stroke-linejoin:bevel;stroke-opacity:1;font-family:Sans Serif">
        <polyline
           points="45.0,5.0 45.0,79.113566312"
           vector-effect="non-scaling-stroke"
           id="polyline16"
           style="fill:none" />
      </g>
      <g
         font-size="11.875"
         font-style="normal"
         font-weight="400"
         id="g18"
         style="font-size:11.875px;font-style:normal;font-weight:400;fill:none;stroke:#969696;stroke-width:1;stroke-linecap:square;stroke-linejoin:bevel;stroke-opacity:1;font-family:Sans Serif">
        <polyline
           points="45.5,42.056833688 50.5,42.056833688"
           vector-effect="non-scaling-stroke"
           id="polyline20"
           style="fill:none" />
      </g>
      <g
         font-size="11.875"
         font-style="normal"
         font-weight="400"
         id="g22"
         style="font-size:11.875px;font-style:normal;font-weight:400;fill:none;stroke:#969696;stroke-width:1;stroke-linecap:square;stroke-linejoin:bevel;stroke-opacity:0.49803904;font-family:Sans Serif">
        <polyline
           points="45.5,77.688361784 48.8333,77.688361784"
           vector-effect="non-scaling-stroke"
           id="polyline24"
           style="fill:none" />
        <polyline
           points="45.5,6.4252651664 48.8333,6.4252651664"
           vector-effect="non-scaling-stroke"
           id="polyline26"
           style="fill:none" />
      </g>
      <g
         font-size="11.875"
         font-style="normal"
         font-weight="400"
         id="g28"
         style="font-size:11.875px;font-style:normal;font-weight:400;fill:none;stroke:#969696;stroke-width:1;stroke-linecap:square;stroke-linejoin:bevel;stroke-opacity:0.33333297;font-family:Sans Serif">
        <polyline
           points="45.5,70.562035952 48.0,70.562035952"
           vector-effect="non-scaling-stroke"
           id="polyline30"
           style="fill:none" />
        <polyline
           points="45.5,63.43571012 48.0,63.43571012"
           vector-effect="non-scaling-stroke"
           id="polyline32"
           style="fill:none" />
        <polyline
           points="45.5,56.309384288 48.0,56.309384288"
           vector-effect="non-scaling-stroke"
           id="polyline34"
           style="fill:none" />
        <polyline
           points="45.5,49.183058456 48.0,49.183058456"
           vector-effect="non-scaling-stroke"
           id="polyline36"
           style="fill:none" />
        <polyline
           points="45.5,34.930507856 48.0,34.930507856"
           vector-effect="non-scaling-stroke"
           id="polyline38"
           style="fill:none" />
        <polyline
           points="45.5,27.804182024 48.0,27.804182024"
           vector-effect="non-scaling-stroke"
           id="polyline40"
           style="fill:none" />
        <polyline
           points="45.5,20.677856192 48.0,20.677856192"
           vector-effect="non-scaling-stroke"
           id="polyline42"
           style="fill:none" />
        <polyline
           points="45.5,13.5515707856 48.0,13.5515707856"
           vector-effect="non-scaling-stroke"
           id="polyline44"
           style="fill:none" />
      </g>
      <g
         font-size="11.875"
         font-style="normal"
         font-weight="400"
         transform="matrix(1,0,0,1.01064,5.5,5)"
         id="g46"
         style="font-size:11.875px;font-style:normal;font-weight:400;fill:none;stroke:#969696;stroke-width:1;stroke-linecap:square;stroke-linejoin:bevel;stroke-opacity:1;font-family:Sans Serif">
        <text
           font-size="11.875"
           font-style="normal"
           font-weight="400"
           x="31"
           xml:space="preserve"
           y="40.6562"
           id="text48"
           style="font-size:11.875px;font-style:normal;font-weight:400;fill:#969696;fill-opacity:1;stroke:none">0</text>
        <text
           font-size="11.875"
           font-style="normal"
           font-weight="400"
           x="19"
           xml:space="preserve"
           y="75.921898"
           id="text50"
           style="font-size:11.875px;font-style:normal;font-weight:400;fill:#969696;fill-opacity:1;stroke:none">-10</text>
        <text
           font-size="11.875"
           font-style="normal"
           font-weight="400"
           x="23"
           xml:space="preserve"
           y="5.4218798"
           id="text52"
           style="font-size:11.875px;font-style:normal;font-weight:400;fill:#969696;fill-opacity:1;stroke:none">10</text>
      </g>
    </g>
    <g
       id="ViewBox_1"
       style="fill:none;stroke:#000000;stroke-width:1;stroke-linecap:square;stroke-linejoin:bevel">
      <g
         font-size="11.875"
         font-style="normal"
         font-weight="400"
         id="g55"
         style="font-size:11.875px;font-style:normal;font-weight:400;fill:none;stroke:none;font-family:Sans Serif">
        <path
           d="m 45,5 616,0 0,73.3333 -616,0 L 45,5"
           vector-effect="non-scaling-stroke"
           id="path57"
           inkscape:connector-curvature="0" />
      </g>
      <clipPath
         id="ViewBox_1_clip">
        <path
           d="m 45,5 616,0 0,73.3333 -616,0 L 45,5"
           vector-effect="non-scaling-stroke"
           id="path60"
           inkscape:connector-curvature="0" />
      </clipPath>
      <g
         clip-path="url(#ViewBox_1_clip)"
         id="g62">
        <g
           id="ChildGroup_1"
           style="fill:none;stroke:#000000;stroke-width:1;stroke-linecap:square;stroke-linejoin:bevel">
          <g
             id="InfiniteLine_1"
             style="fill:none;stroke:#000000;stroke-width:1;stroke-linecap:square;stroke-linejoin:bevel">
            <g
               font-size="11.875"
               font-style="normal"
               font-weight="400"
               id="g66"
               style="font-size:11.875px;font-style:normal;font-weight:400;fill:none;stroke:#e6e6af;stroke-width:1;stroke-linecap:square;stroke-linejoin:bevel;stroke-opacity:1;font-family:Sans Serif">
              <polyline
                 points="661.00284908,41.6667 44.9999465728,41.6667"
                 vector-effect="non-scaling-stroke"
                 id="polyline68"
                 style="fill:none" />
            </g>
          </g>
          <g
             id="PlotDataItem_1">
            <g
               id="PlotCurveItem_1"
               style="fill:none;stroke:#000000;stroke-width:1;stroke-linecap:square;stroke-linejoin:bevel">
              <g
                 font-size="11.875"
                 font-style="normal"
                 font-weight="400"
                 id="g72"
                 style="font-size:11.875px;font-style:normal;font-weight:400;fill:none;stroke:#ff0000;stroke-width:1;stroke-linecap:square;stroke-linejoin:bevel;stroke-opacity:1;font-family:Sans Serif">
                <path
                   d="m 29.4743,41.692261 0.607724,-0.02454 0.607724,-0.0434 0.607724,0.05807 0.607724,-0.08511 0.607724,0.0574 0.607724,-0.02147 0.607724,-0.02084 0.607724,0.03187 0.607724,0.0697 0.607724,0.06716 0.607724,-0.08179 0.607724,0.01594 0.607724,-0.0015 0.607724,-0.09431 0.607724,0.05193 0.607724,0.04661 0.607724,0.03942 0.607724,-0.022 0.607724,0.01474 0.607724,-0.0095 0.607724,0.01047 0.607724,-0.09632 0.607724,-0.01685 0.607724,0.005 0.607724,-0.01883 0.607724,-0.0886 0.607724,-9.16e-4 0.607724,-0.0856 0.607724,0.05585 0.607724,-0.0251 0.607724,-0.07087 0.607724,0.0508 0.607724,-0.08454 0.607724,-0.03794 0.607724,-0.08733 0.607724,-0.08179 0.607724,-0.0047 0.607724,-0.04597 0.607724,0.04488 0.607724,0.0069 0.607724,0.02895 0.607724,0.0058 0.607724,0.0081 0.607724,-0.07813 0.607724,-0.03984 0.607724,0.01583 0.607724,-0.04375 0.607724,-0.03036 0.607724,0.07464 0.607724,-0.01967 0.607724,-0.04262 0.607724,-0.101397 0.607724,-0.01735 0.607724,0.05909 0.607724,-0.05264 0.607724,0.0032 0.607724,-0.07027 0.607724,-0.02345 0.607724,-0.03127 0.607724,9.87e-4 0.607724,0.03981 0.607724,0.126641 0.607724,-0.0059 0.607724,-0.03868 0.607724,-0.13401 0.607724,-0.03177 0.607724,-0.04703 0.607724,0.01019 0.607724,0.0641 0.607724,0.01925 0.607724,0.03286 0.607724,-0.05436 0.607724,-0.01855 0.607724,-0.04971 0.607724,-0.04841 0.607724,0.103443 0.607724,-0.03304 0.607724,-0.08447 0.607724,0.05905 0.607724,-0.02352 0.607724,0.01749 0.607724,-0.0035 0.607724,-0.06529 0.607724,0.04678 0.607724,-0.0837 0.607724,-0.0065 0.607724,0.0016 0.607724,-0.03984 0.607724,-0.07993 0.607724,-0.128263 0.607724,-0.142366 0.607724,0.0094 0.607724,-0.02701 0.607724,-0.02612 0.607724,-0.02955 0.607724,-0.06924 0.607724,-0.07115 0.607724,0.07718 0.607724,-0.09956 0.607724,-0.0275 0.607724,-0.02472 0.607724,0.01766 0.607724,-0.07721 0.607724,0.009 0.607724,-0.10041 0.607724,0.0581 0.607724,0.0094 0.607724,-0.04322 0.607724,-0.01301 0.607724,-0.100446 0.607724,-0.04054 0.607724,-0.05729 0.607724,-0.09576 0.607724,-0.09798 0.607724,0.02232 0.607724,-0.04901 0.607726,-0.0057 0.60772,-0.074 0.60773,-0.04851 0.60772,-0.07672 0.60772,0.02337 0.60773,0.0012 0.60772,-0.122869 0.60773,-0.140919 0.60772,0.05486 0.60772,0.05846 0.60773,0.02482 0.60772,-0.08306 0.60773,-0.01252 0.60772,-0.0057 0.60772,-0.158865 0.60773,-0.07115 0.60772,-0.01527 0.60773,-0.05856 0.60772,-0.0092 0.60772,-0.05835 0.60773,-0.102631 0.60772,0.01301 0.60773,-0.04841 0.60772,0.01819 0.60772,-0.07065 0.60773,-0.03572 0.60772,-0.01431 0.60773,-0.03159 0.60772,-0.141237 0.60772,-0.135525 0.60773,-0.0635 0.60772,-0.08282 0.60773,-0.06262 0.60772,-0.109118 0.60772,-0.07295 0.60773,-0.03808 0.60772,-0.111833 0.60773,-0.02718 0.60772,0.03864 0.60772,-0.07443 0.60773,-0.08257 0.60772,-0.02137 0.60773,0.02211 0.60772,-0.05137 0.60772,0.01393 0.60773,-0.08596 0.60772,-0.05013 0.60773,-0.07986 0.60772,-0.143176 0.60772,-0.07122 0.60773,-0.04763 0.60772,-0.152237 0.60773,-0.05405 0.60772,-0.03159 0.60772,-0.128616 0.60773,0.01883 0.60772,-0.08687 0.60773,-0.140991 0.60772,-0.115993 0.60772,-0.04844 0.60773,0.03402 0.60772,0.02112 0.60773,-0.101679 0.60772,-0.05588 0.60772,-0.02249 0.60773,-0.125196 0.60772,-0.0257 0.60773,0.0083 0.60772,-0.02267 0.60772,-0.148112 0.60773,0.04897 0.60772,-0.116804 0.60773,0.0038 0.60772,-0.03963 0.60772,7.76e-4 0.60773,-0.04456 0.60772,-0.0017 0.60773,-0.02732 0.60772,-0.06593 0.60772,-0.0336 0.60773,-0.0035 0.60772,-0.109577 0.60773,-0.05486 0.60772,0.0207 0.60772,-0.0514 0.60773,-0.04404 0.60772,-0.05197 0.60773,-0.09138 0.60772,-0.03596 0.60772,-0.01837 0.60773,-0.04696 0.60772,0.03963 0.60773,-0.08514 0.60772,-0.179102 0.60772,-7.05e-4 0.60773,0.04019 0.60772,-0.100093 0.60773,-0.05549 0.60772,-0.02877 0.60772,-0.06452 0.60773,-0.04009 0.60772,-0.04287 0.60773,-0.0703 0.60772,-0.07608 0.60772,-0.09681 0.60773,-0.12858 0.60772,-0.06589 0.60773,-0.01262 0.60772,-0.02623 0.60772,-0.154987 0.60773,-0.109048 0.60772,-0.0379 0.60773,-0.0702 0.60772,-0.04911 0.60772,-0.02168 0.60773,-0.01156 0.60772,-0.112327 0.60773,-0.06723 0.60772,0.04213 0.60772,-0.05891 0.60773,-0.05292 0.60772,-0.106862 0.60773,-0.197471 0.60772,0.02087 0.60772,-0.122093 0.60773,0.05133 0.60772,-0.06857 0.60773,-0.123327 0.60772,0.04086 0.60772,0.05905 0.60773,-0.165599 0.60772,-0.163414 0.60773,-0.119977 0.60772,-0.02556 0.60772,-0.06508 0.60773,0.0311 0.60772,-0.05898 0.60773,-0.08303 0.60772,-0.0355 0.60772,0.01424 0.60773,-0.09928 0.60772,-0.07129 0.60773,-0.129356 0.60772,-0.117615 0.60772,-0.108696 0.60773,-0.0244 0.60772,-0.114971 0.60773,-0.157173 0.60772,-0.0519 0.60772,-0.03589 0.60773,-0.01749 0.60772,-0.110634 0.60773,-0.0861 0.60772,-0.08694 0.60772,-0.09625 0.60773,-0.05147 0.60772,-0.194651 0.60773,-0.144727 0.60772,-0.06579 0.60772,-0.01872 0.60773,-0.05422 0.60772,-0.03512 0.60773,-0.102137 0.60772,-0.06064 0.60772,-0.04499 0.60773,-0.114654 0.60772,-0.113173 0.60773,0.01766 0.60772,-0.0642 0.60772,0.03332 0.60773,-0.125055 0.60772,-0.07027 0.60773,-0.06047 0.60772,-0.137218 0.60772,-0.09227 0.60773,-0.01988 0.60772,-0.109542 0.60773,-0.10859 0.60772,-0.0733 0.60772,-0.05045 0.60773,-0.133481 0.60772,0.03952 0.60773,0.0093 0.60772,-0.06431 0.60772,-0.04767 0.60773,-0.124948 0.60772,-0.09414 0.60773,-0.06008 0.60772,-0.147689 0.60772,-0.03205 0.60773,-0.07598 0.60772,-0.125301 0.60773,0.01135 0.60772,-0.01467 0.60772,-0.08797 0.60773,-0.04798 0.60772,-0.105381 0.60773,-0.110282 0.60772,-0.009 0.60772,-0.047 0.60773,-0.126606 0.60772,-0.05278 0.60773,-0.03212 0.60772,-0.0251 0.60772,0.0051 0.60773,-0.02165 0.60772,-0.06212 0.60773,-0.033 0.60772,-0.08698 0.60772,-0.01428 0.60773,-0.100869 0.60772,-0.165529 0.60773,0.0021 0.60772,-0.09727 0.60772,-0.103513 0.60773,0.0062 0.60772,0.02348 0.60773,-0.100234 0.60772,-0.05606 0.60772,-0.170113 0.60773,-0.0788 0.60772,-0.07728 0.60773,4.23e-4 0.60772,-0.05038 0.60772,-0.118532 0.60773,-0.06995 0.60772,-0.09036 0.60773,-0.06914 0.60772,0.02951 0.60772,-0.0416 0.60773,-0.08751 0.60772,-0.0544 0.60773,-0.143528 0.60772,-0.04301 0.60772,-0.137465 0.60773,-0.06279 0.60772,-0.08677 0.60773,-0.01597 0.60772,-0.186788 0.60772,-0.1155 0.60773,-0.04495 0.60772,-0.07964 0.60773,-0.07686 0.60772,-0.08536 0.60772,-0.03367 0.60773,-0.10115 0.60772,-0.171628 0.60773,-0.119943 0.60772,0.01921 0.60772,0.03011 0.60773,0.0071 0.60772,-0.05419 0.60773,-0.03765 0.60772,-0.0421 0.60772,0.05828 0.60773,-0.01594 0.60772,-0.134821 0.60773,-0.117474 0.60772,-0.09184 0.60772,-0.07132 0.60773,-0.01847 0.60772,-0.05729 0.60773,0.0074 0.60772,-0.02447 0.60772,-0.09526 0.60773,-0.03254 0.60772,-0.100975 0.60773,-0.08158 0.60772,0.08853 0.60772,-0.02087 0.60773,-0.135032 0.60772,-0.104253 0.60773,-0.03769 0.60772,-0.104959 0.60772,-0.08458 0.60773,-0.0104 0.60772,0.0026 0.60773,-0.01537 0.60772,0.01227 0.60772,-0.185413 0.60773,-0.143564 0.60772,-0.160558 0.60773,-0.09297 0.60772,-0.01794 0.60772,-0.01178 0.60773,-0.0379 0.60772,-0.01477 0.60773,-0.102561 0.60772,-0.04576 0.60772,-0.08504 0.60773,-0.06487 0.60772,-0.02422 0.60773,-0.07883 0.60772,-0.09364 0.60772,-0.09205 0.60773,-0.04894 0.60772,0.10443 0.60773,-0.02341 0.60772,-0.128439 0.60772,-0.159429 0.60773,-0.02923 0.60772,-0.02651 0.60773,-0.04672 0.60772,0.01971 0.60772,-0.08754 0.60773,0.01777 0.60772,0.07055 0.60773,-0.129321 0.60772,-0.02362 0.60772,-0.03815 0.60773,-0.137747 0.60772,-0.04213 0.60773,-0.121599 0.60772,-0.08331 0.60772,-0.05902 0.60773,-0.0769 0.60772,-0.03709 0.60773,-0.198494 0.60772,-0.05796 0.60772,-0.156433 0.60773,-0.08624 0.60772,-0.02197 0.60773,-0.08885 0.60772,-0.03307 0.60772,-0.04192 0.60773,-0.04139 0.60772,-0.0336 0.60773,-0.07027 0.60772,-0.04298 0.60772,0.03328 0.60773,-0.05648 0.60772,-0.06512 0.60773,-0.02144 0.60772,-0.0081 0.60772,-0.122375 0.60773,0.0544 0.60772,-0.04428 0.60773,-0.113807 0.60772,-0.0076 0.60772,-0.07541 0.60773,-0.04978 0.60772,-0.126359 0.60773,0.0047 0.60772,0.0059 0.60772,-0.07087 0.60773,0.0095 0.60772,0.0019 0.60773,-0.07869 0.60772,-0.0502 0.60772,0.0014 0.60773,-0.0017 0.60772,0.01484 0.60773,-0.11885 0.60772,0.01957 0.60772,-0.185238 0.60773,0.01587 0.60772,0.0083 0.60773,-0.01322 0.60772,0.0422 0.60772,-0.01513 0.60773,-0.06159 0.60772,0.08105 0.60773,-0.08296 0.60772,-0.09255 0.60772,0.04026 0.60773,-0.106792 0.60772,0.05475 0.60773,-0.208224 0.60772,-0.06593 0.60772,0.0061 0.60773,-0.04756 0.60772,-0.143247 0.60773,0.0085 0.60772,-0.184356 0.60772,-0.09304 0.60773,-0.148464 0.60772,-0.07658 0.60773,-0.03025 0.60772,-0.04397 0.60772,-0.04957 0.60773,-0.08684 0.60772,-0.04107 0.60773,-0.06011 0.60772,0.07725 0.60772,0.04576 0.60773,-0.0073 0.60772,-0.03896 0.60773,0.003 0.60772,-0.09473 0.60772,-0.04763 0.60773,0.04273 0.60772,-0.06251 0.60773,0.0032 0.60772,-0.0196 0.60772,-0.03811 0.60773,-0.07883 0.60772,-0.02013 0.60773,-0.07132 0.60772,-0.01735 0.60772,-0.07647 0.60773,-0.01467 0.60772,-0.0046 0.60773,-0.08878 0.60772,-0.120753 0.60772,-0.08067 0.60773,-0.0084 0.60772,-0.07298 0.60773,0.01893 0.60772,0.0024 0.60772,-0.08511 0.60773,-0.07763 0.60772,-0.14716 0.60773,-0.08539 0.60772,0.03353 0.60772,-0.104006 0.60773,0.0046 0.60772,-0.02404 0.60773,0.03536 0.60772,0.06618 0.60772,-0.124807 0.60773,-0.01632 0.60772,-0.03156 0.60773,-0.02782 0.60772,-0.07668 0.60772,-0.03444 0.60773,-0.03931 0.60772,-0.03275 0.60773,-0.02514 0.60772,-0.03342 0.60772,0.01893 0.60773,-0.0459 0.60772,-0.03007 0.60773,-0.13274 0.60772,-0.03512 0.60772,-0.04252 0.60773,-0.02045 0.60772,-0.04248 0.60773,-0.07488 0.60772,-0.02239 0.60772,-0.09459 0.60773,-0.133904 0.60772,-0.07869 0.60773,-0.08197 0.60772,-0.0122 0.60772,0.0031 0.60773,-0.121282 0.60772,-0.03727 0.60773,-0.0184 0.60772,-0.164648 0.60772,-0.128263 0.60773,0.005 0.60772,-0.138946 0.60773,-0.08423 0.60772,-0.06819 0.60772,-0.102455 0.60773,-0.07097 0.60772,-0.0025 0.60773,-0.123609 0.60772,-0.08525 0.60772,-0.09329 0.60773,-0.05673 0.60772,-0.05669 0.60773,0.112292 0.60772,-0.199833 0.60772,-0.06579 0.60773,-0.05454 0.60772,-0.04541 0.60773,-0.01876 0.60772,0.06322 0.60772,-0.05673 0.60773,-0.111727 0.60772,-0.05976 0.60773,0.011 0.60772,-0.07294 0.60772,-0.04153 0.60773,-0.08091 0.60772,-0.03868 0.60773,-0.04083 0.60772,-0.05965 0.60772,-0.153295 0.60773,-0.07665 0.60772,-0.101997 0.60773,0.05123 0.60772,0.05627 0.60772,-0.06491 0.60773,-0.01523 0.60772,-0.05687 0.60773,-0.01671 0.60772,-0.0078 0.60772,-0.109013 0.60773,-0.01572 0.60772,-0.124349 0.60773,-0.107532 0.60772,-0.09981 0.60772,-0.08405 0.60773,-0.04971 0.60772,-0.04855 0.60773,-0.105769 0.60772,-0.01632 0.60772,-0.03392 0.60773,0.04294 0.60772,-0.04389 0.60773,-0.02003 0.60772,0.0023 0.60772,-0.0647 0.60773,-0.09004 0.60772,-0.01812 0.60773,-0.08553 0.60772,-0.07756 0.60772,-0.04495 0.60773,-0.152554 0.60772,-0.0489 0.60773,0.08349 0.60772,-0.09583 0.60772,0.02271 0.60773,-0.111481 0.60772,-0.05003 0.60773,0.07136 0.60772,-0.09999 0.60772,-0.04989 0.60773,-0.04284 0.60772,-0.06064 0.60773,-0.05969 0.60772,-0.115782 0.60772,-0.0428 0.60773,-0.02898 0.60772,-0.127206 0.60773,-0.136759 0.60772,-0.01185 0.60772,-0.104712 0.60773,-0.054083 0.60772,-0.032119 0.60773,-0.046151 0.60772,-0.054718 0.60772,-0.1073557 0.60773,-0.01375 0.60772,-0.1660576 0.60773,-0.034798 0.60772,0.011423 0.60772,-2.468e-4 0.60773,0.1072499 0.60772,-0.1441281 0.60773,-0.051333 0.60772,0.042308 0.60772,-0.00363 0.60773,-0.1222339 0.60772,-0.057715 0.60773,-0.061452 0.60772,-0.00596 0.60772,-0.081019 0.60773,-0.04816 0.60772,-0.1116923 0.60773,-0.062439 0.60772,-0.098224 0.60772,-0.041462 0.60773,-0.024151 0.60772,-0.119766 0.60773,-0.1269583 0.60772,-0.08391 0.60772,-0.1066859 0.60773,-0.079962 0.60772,-0.034163 0.60773,-0.04541 0.60772,-0.1080256 0.60772,-0.018474 0.60773,-0.097202 0.60772,-0.042449 0.60773,-0.087224 0.60772,-0.04534 0.60772,-0.023375 0.60773,-0.073474 0.60772,0.034904 0.60773,-0.022388 0.60772,-0.072311 0.60772,-0.048477 0.60773,-0.100375 0.60772,-0.03233 0.60773,-0.090821 0.60772,-0.1137371 0.60772,-0.030497 0.60773,-0.1149712 0.60772,-0.070795 0.60773,-0.1096827 0.60772,0.040933 0.60772,-0.077917 0.60773,-0.030532 0.60772,0.020872 0.60773,-0.040439 0.60772,-0.068609 0.60772,-0.1274872 0.60773,-0.028135 0.60772,0.010648 0.60773,0.050522 0.60772,-0.068115 0.60772,-0.1712051 0.60773,-0.00515 0.60772,0 0.60773,0 0.60772,0 0.60772,0.030074 0.60773,0.058843 0.60772,0.022423 0.60773,-0.042731 0.60772,-0.067657 0.60772,-9.519e-4 0.60773,0.065577 0.60772,-0.065577 0.60773,0.025385 0.60772,-0.025385 0.60772,0.026865 0.60773,-0.026865 0.60772,0.06949 0.60773,-0.01999 0.60772,0.049394 0.60772,0.022917 0.60773,-0.042731 0.60772,0.00271 0.60773,-0.051545 0.60772,-0.03025 0.60772,0 0.60773,0 0.60772,0.061099 0.60773,-0.061099 0.60772,0.054013 0.60772,-0.010119 0.60773,-0.016394 0.60772,-0.0275 0.60773,0 0.60772,0.027253 0.60772,-0.027253 0.60773,0.046362 0.60772,0.041708 0.60773,-0.026054 0.60772,-0.048055 0.60772,-0.013961 0.60773,0 0.60772,0 0.60773,0 0.60772,0 0.60772,0 0.60773,0.047138 0.60772,-3.52e-5 0.60773,-0.047103 0.60772,0.036631 0.60772,-0.036631 0.60773,0.00645 0.60772,-0.00645 0.60773,0 0.60772,0 0.60772,0.050205 0.60773,-0.050205 0.60772,0 0.60773,0.075554 0.60772,-0.049676 0.60772,-0.025878 0.60773,0.00483 0.60772,-0.00483 0.60773,0.040016 0.60772,-0.038641 0.60772,-0.00137 0.60773,0.020801 0.60772,-0.020801 0.60773,0.010436 0.60772,-0.010436 0.60772,0 0.60773,0.039875 0.60772,0.061699 0.60773,0.023128 0.60772,-0.00346 0.60772,0.1255833 0.60773,-0.02482 0.60772,-0.030603 0.60773,0.022141 0.60772,-0.029756 0.60772,-0.1192724 0.60773,-0.029827 0.60772,-0.034692 0.60773,0 0.60772,0 0.60772,0.1220929 0.60773,0.063708 0.60772,-0.061276 0.60773,0.048513 0.60772,-0.086202 0.60772,-0.040228 0.60773,-0.010506 0.60772,-0.036103 0.60773,0.072135 0.60772,-0.072135 0.60772,0.016253 0.60773,0.02609 0.60772,-0.020308 0.60773,-0.022035 0.60772,0.046609 0.60772,0.022423 0.60773,-0.069032 0.60772,0.058526 0.60773,-0.040686 0.60772,0.075308 0.60772,-0.093147 0.60773,0 0.60772,0.033071 0.60773,-0.033071 0.60772,0 0.60772,0 0.60773,0.092125 0.60772,0.028135 0.60773,-0.08042 0.60772,0.038394 0.60772,-0.037548 0.60773,-0.00621 0.60772,-0.034481 0.60773,0.066846 0.60772,0.079045 0.60772,0.026196 0.60773,0.053907 0.60772,-0.066493 0.60773,0.036385 0.60772,0.029615 0.60772,-0.087824 0.60773,-0.00215 0.60772,-0.1094711 0.60773,0.00194 0.60772,-0.027994 0.60772,0 0.60773,0 0.60772,0.08451 0.60773,-0.031026 0.60772,0.091384 0.60772,-0.1439166 0.60773,-9.519e-4 0.60772,0.052285 0.60773,-0.024503 0.60772,-0.027782 0.60772,0.072663 0.60773,-0.050804 0.60772,-0.021859 0.60773,0 0.60772,0.06251 0.60772,-0.06251 0.60773,0.027147 0.60772,0.035186 0.60773,-0.062333 0.60772,0 0.60772,0.056445 0.60773,-0.043083 0.60772,0.08726 0.60773,0.011353 0.60772,-0.00307 0.60772,-0.010154 0.60773,-0.098753 0.60772,0 0.60773,0 0.60772,0 0.60772,0 0.60773,0 0.60772,0.0079 0.60773,0.062933 0.60772,-0.037231 0.60772,0.036349 0.60773,-4.936e-4 0.60772,-0.022458 0.60773,-0.046997 0.60772,0 0.60772,0 0.60773,0.00155 0.60772,0.033035 0.60773,-0.034586 0.60772,0.034481 0.60772,-0.024997 0.60773,-0.00948 0.60772,0.063426 0.60773,0.010013 0.60772,0.00927 0.60772,0.020484 0.60773,-0.097202 0.60772,-0.00599 0.60773,0.00631 0.60772,0.03984 0.60772,0.00666 0.60773,-0.052814 0.60772,0 0.60773,0.023199 0.60772,-0.023199 0.60772,0.020484 0.60773,0.050946 0.60772,0.046256 0.60773,0.046433 0.60772,-0.059196 0.60772,0.0036 0.60773,-0.073228 0.60772,-0.035292 0.60773,0 0.60772,0 0.60772,0 0.60773,0.00409 0.60772,0.033846 0.60773,-0.037936 0.60772,0.0036 0.60772,-0.0036 0.60773,0.1012211 0.60772,-0.090679 0.60773,0.039558 0.60772,-0.034904 0.60772,-0.015195 0.60773,0 0.60772,0 0.60773,0 0.60772,0.090362 0.60772,-0.090362 0.60773,0.034199 0.60772,0.054683 0.60773,-0.088881 0.60772,4.583e-4 0.60772,-4.583e-4 0.60773,0 0.60772,0 0.60773,0 0.60772,0 0.60772,0.058772 0.60773,0.04541 0.60772,-0.05151 0.60773,0.061029 0.60772,0.028064 0.60772,-0.066106 0.60773,-0.073051 0.60772,-0.00261 0.60773,0 0.60772,0 0.60772,0 0.60773,0 0.60772,0.00162 0.60773,0.063356 0.60772,-0.064977 0.60772,0.081266 0.60773,0.026301 0.60772,-0.069878 0.60773,-0.018369 0.60772,0.018263 0.60772,0.019285 0.60773,-0.056869 0.60772,0 0.60773,0 0.60772,0 0.60772,0.032048 0.60773,0.1311185 0.60772,0.1339743 0.60773,0.013574 0.60772,-0.05151 0.60772,-0.028276 0.60773,-0.077494 0.60772,-0.00635 0.60773,-0.074074 0.60772,-0.053519 0.60772,-0.019497 0.60773,0 0.60772,0.030744 0.60773,0.059231 0.60772,0.038923 0.60772,-0.05976 0.60773,-0.069138 0.60772,0 0.60773,0.095792 0.60772,0.091596 0.60772,0.037231 0.60773,-0.061628 0.60772,0.1070032 0.60773,-0.066 0.60772,0.02066 0.60772,-0.071676 0.60773,-0.05091 0.60772,-0.070513 0.60773,-0.031554 0.60772,0.044635 0.60772,-0.044635 0.60773,0 0.60772,0.056869 0.60773,3.52e-5 0.60772,-0.02126 0.60772,0.042942 0.60773,0.024292 0.60772,-0.085885 0.60773,0.01234"
                   vector-effect="non-scaling-stroke"
                   id="path74"
                   inkscape:connector-curvature="0" />
              </g>
            </g>
          </g>
        </g>
      </g>
    </g>
  </g>
  <g
     id="PlotItem_3"
     style="fill:none;stroke:#000000;stroke-width:1;stroke-linecap:square;stroke-linejoin:bevel"
     transform="translate(-25.079834,-75.572317)">
    <g
       id="AxisItem_2"
       style="fill:none;stroke:#000000;stroke-width:1;stroke-linecap:square;stroke-linejoin:bevel">
      <g
         font-size="11.875"
         font-style="normal"
         font-weight="400"
         id="g96"
         style="font-size:11.875px;font-style:normal;font-weight:400;fill:none;stroke:#969696;stroke-width:1;stroke-linecap:square;stroke-linejoin:bevel;stroke-opacity:1;font-family:Sans Serif">
        <polyline
           points="45.0,163.667 45.0,237.780566312"
           vector-effect="non-scaling-stroke"
           id="polyline98"
           style="fill:none" />
      </g>
      <g
         font-size="11.875"
         font-style="normal"
         font-weight="400"
         id="g100"
         style="font-size:11.875px;font-style:normal;font-weight:400;fill:none;stroke:#969696;stroke-width:1;stroke-linecap:square;stroke-linejoin:bevel;stroke-opacity:1;font-family:Sans Serif">
        <polyline
           points="45.5,200.723833688 50.5,200.723833688"
           vector-effect="non-scaling-stroke"
           id="polyline102"
           style="fill:none" />
      </g>
      <g
         font-size="11.875"
         font-style="normal"
         font-weight="400"
         id="g104"
         style="font-size:11.875px;font-style:normal;font-weight:400;fill:none;stroke:#969696;stroke-width:1;stroke-linecap:square;stroke-linejoin:bevel;stroke-opacity:0.49803904;font-family:Sans Serif">
        <polyline
           points="45.5,236.355361784 48.8333,236.355361784"
           vector-effect="non-scaling-stroke"
           id="polyline106"
           style="fill:none" />
        <polyline
           points="45.5,165.092265166 48.8333,165.092265166"
           vector-effect="non-scaling-stroke"
           id="polyline108"
           style="fill:none" />
      </g>
      <g
         font-size="11.875"
         font-style="normal"
         font-weight="400"
         id="g110"
         style="font-size:11.875px;font-style:normal;font-weight:400;fill:none;stroke:#969696;stroke-width:1;stroke-linecap:square;stroke-linejoin:bevel;stroke-opacity:0.33333297;font-family:Sans Serif">
        <polyline
           points="45.5,229.229035952 48.0,229.229035952"
           vector-effect="non-scaling-stroke"
           id="polyline112"
           style="fill:none" />
        <polyline
           points="45.5,222.10271012 48.0,222.10271012"
           vector-effect="non-scaling-stroke"
           id="polyline114"
           style="fill:none" />
        <polyline
           points="45.5,214.976384288 48.0,214.976384288"
           vector-effect="non-scaling-stroke"
           id="polyline116"
           style="fill:none" />
        <polyline
           points="45.5,207.850058456 48.0,207.850058456"
           vector-effect="non-scaling-stroke"
           id="polyline118"
           style="fill:none" />
        <polyline
           points="45.5,193.597507856 48.0,193.597507856"
           vector-effect="non-scaling-stroke"
           id="polyline120"
           style="fill:none" />
        <polyline
           points="45.5,186.471182024 48.0,186.471182024"
           vector-effect="non-scaling-stroke"
           id="polyline122"
           style="fill:none" />
        <polyline
           points="45.5,179.344856192 48.0,179.344856192"
           vector-effect="non-scaling-stroke"
           id="polyline124"
           style="fill:none" />
        <polyline
           points="45.5,172.218570786 48.0,172.218570786"
           vector-effect="non-scaling-stroke"
           id="polyline126"
           style="fill:none" />
      </g>
      <g
         font-size="11.875"
         font-style="normal"
         font-weight="400"
         transform="matrix(1,0,0,1.01064,5.5,163.667)"
         id="g128"
         style="font-size:11.875px;font-style:normal;font-weight:400;fill:none;stroke:#969696;stroke-width:1;stroke-linecap:square;stroke-linejoin:bevel;stroke-opacity:1;font-family:Sans Serif">
        <text
           font-size="11.875"
           font-style="normal"
           font-weight="400"
           x="31"
           xml:space="preserve"
           y="40.6562"
           id="text130"
           style="font-size:11.875px;font-style:normal;font-weight:400;fill:#969696;fill-opacity:1;stroke:none">0</text>
        <text
           font-size="11.875"
           font-style="normal"
           font-weight="400"
           x="19"
           xml:space="preserve"
           y="75.921898"
           id="text132"
           style="font-size:11.875px;font-style:normal;font-weight:400;fill:#969696;fill-opacity:1;stroke:none">-10</text>
        <text
           font-size="11.875"
           font-style="normal"
           font-weight="400"
           x="23"
           xml:space="preserve"
           y="5.4218798"
           id="text134"
           style="font-size:11.875px;font-style:normal;font-weight:400;fill:#969696;fill-opacity:1;stroke:none">10</text>
      </g>
    </g>
    <g
       id="ViewBox_3"
       style="fill:none;stroke:#000000;stroke-width:1;stroke-linecap:square;stroke-linejoin:bevel">
      <g
         font-size="11.875"
         font-style="normal"
         font-weight="400"
         id="g137"
         style="font-size:11.875px;font-style:normal;font-weight:400;fill:none;stroke:none;font-family:Sans Serif">
        <path
           d="m 45,163.667 616,0 0,73.3333 -616,0 0,-73.3333"
           vector-effect="non-scaling-stroke"
           id="path139"
           inkscape:connector-curvature="0" />
      </g>
      <clipPath
         id="ViewBox_3_clip">
        <path
           d="m 45,163.667 616,0 0,73.333 -616,0 0,-73.333"
           vector-effect="non-scaling-stroke"
           id="path142"
           inkscape:connector-curvature="0" />
      </clipPath>
      <g
         clip-path="url(#ViewBox_3_clip)"
         id="g144">
        <g
           id="ChildGroup_3"
           style="fill:none;stroke:#000000;stroke-width:1;stroke-linecap:square;stroke-linejoin:bevel">
          <g
             id="InfiniteLine_2"
             style="fill:none;stroke:#000000;stroke-width:1;stroke-linecap:square;stroke-linejoin:bevel">
            <g
               font-size="11.875"
               font-style="normal"
               font-weight="400"
               id="g148"
               style="font-size:11.875px;font-style:normal;font-weight:400;fill:none;stroke:#e6e6af;stroke-width:1;stroke-linecap:square;stroke-linejoin:bevel;stroke-opacity:1;font-family:Sans Serif">
              <polyline
                 points="661.00284908,200.333 44.9999465728,200.333"
                 vector-effect="non-scaling-stroke"
                 id="polyline150"
                 style="fill:none" />
            </g>
          </g>
          <g
             id="PlotDataItem_3">
            <g
               id="PlotCurveItem_3"
               style="fill:none;stroke:#000000;stroke-width:1;stroke-linecap:square;stroke-linejoin:bevel">
              <g
                 font-size="11.875"
                 font-style="normal"
                 font-weight="400"
                 id="g154"
                 style="font-size:11.875px;font-style:normal;font-weight:400;fill:none;stroke:#00ff00;stroke-width:1;stroke-linecap:square;stroke-linejoin:bevel;stroke-opacity:1;font-family:Sans Serif">
                <path
                   d="m 29.4743,200.33596 0.607724,0.0976 0.607724,0.0343 0.607724,-0.0217 0.607724,5.6e-4 0.607724,-0.0572 0.607724,0.0108 0.607724,-0.0197 0.607724,0.10661 0.607724,-0.0363 0.607724,-0.15118 0.607724,0.004 0.607724,-0.0176 0.607724,-0.0277 0.607724,0.0257 0.607724,-0.074 0.607724,-0.0675 0.607724,-0.0315 0.607724,0.02 0.607724,-0.0509 0.607724,-0.0596 0.607724,-0.0318 0.607724,-0.094 0.607724,-0.20096 0.607724,-0.0888 0.607724,-0.01 0.607724,-0.0302 0.607724,-0.0524 0.607724,-0.0236 0.607724,0.0579 0.607724,0.003 0.607724,0.12565 0.607724,-0.11518 0.607724,-0.15072 0.607724,-0.0632 0.607724,-0.0191 0.607724,-0.006 0.607724,-0.0514 0.607724,-0.0963 0.607724,-0.0197 0.607724,-0.0976 0.607724,-0.15206 0.607724,-0.0195 0.607724,-0.0915 0.607724,-0.1179 0.607724,-0.0516 0.607724,-0.14525 0.607724,-0.0679 0.607724,0.0561 0.607724,-0.0843 0.607724,-0.0364 0.607724,0.0174 0.607724,0.008 0.607724,-0.13774 0.607724,-0.16987 0.607724,-0.16239 0.607724,-0.12615 0.607724,-0.005 0.607724,0.0277 0.607724,-0.0248 0.607724,-0.071 0.607724,0.0662 0.607724,-0.13052 0.607724,-0.10034 0.607724,0.0195 0.607724,-0.051 0.607724,-0.12057 0.607724,-0.19458 0.607724,-0.0324 0.607724,0.0583 0.607724,-0.11399 0.607724,-0.0968 0.607724,-0.009 0.607724,-0.16757 0.607724,0.003 0.607724,-0.009 0.607724,-0.0963 0.607724,-0.0813 0.607724,-0.0677 0.607724,-0.10066 0.607724,-0.0242 0.607724,-0.0226 0.607724,-0.0231 0.607724,-0.0817 0.607724,0.0237 0.607724,-0.0435 0.607724,-0.0654 0.607724,-0.22613 0.607724,-0.0299 0.607724,-0.0602 0.607724,-0.10263 0.607724,0.029 0.607724,-0.0648 0.607724,-0.0501 0.607724,0.0188 0.607724,-0.064 0.607724,-0.0284 0.607724,0.0218 0.607724,-0.0532 0.607724,-0.0799 0.607724,-0.10813 0.607724,0.0139 0.607724,-0.0991 0.607724,-0.0235 0.607724,-0.0958 0.607724,-0.0714 0.607724,-0.0171 0.607724,-0.0369 0.607724,0.038 0.607724,-0.0827 0.607724,-0.0661 0.607724,-0.12195 0.607724,-0.0129 0.607724,-0.0147 0.607724,-7.4e-4 0.607724,-0.15069 0.607724,-0.0919 0.607726,-0.0905 0.60772,-0.0869 0.60773,-0.13051 0.60772,-0.0356 0.60772,0.0385 0.60773,-0.0717 0.60772,-0.0528 0.60773,-0.0514 0.60772,-0.0397 0.60772,-0.09 0.60773,-0.0144 0.60772,-0.0996 0.60773,0.014 0.60772,0.0467 0.60772,-0.0758 0.60773,-0.0479 0.60772,-0.0727 0.60773,-0.10189 0.60772,-0.0262 0.60772,-0.1008 0.60773,0.0273 0.60772,-0.0729 0.60773,0.0654 0.60772,-0.0305 0.60772,-0.0193 0.60773,0.004 0.60772,-0.0218 0.60773,-0.008 0.60772,-0.0645 0.60772,-0.17054 0.60773,-0.0758 0.60772,-0.1741 0.60773,-0.0673 0.60772,-0.0697 0.60772,-0.0131 0.60773,-0.0713 0.60772,-0.0791 0.60773,0.0697 0.60772,-0.0703 0.60772,-0.0169 0.60773,-0.0378 0.60772,-0.0197 0.60773,-0.0394 0.60772,-0.0291 0.60772,-0.0442 0.60773,-0.11881 0.60772,-0.0313 0.60773,-0.12879 0.60772,-0.0302 0.60772,-0.0107 0.60773,0.0498 0.60772,-0.11377 0.60773,-0.0723 0.60772,0.10253 0.60772,-0.0382 0.60773,-0.11172 0.60772,-0.0737 0.60773,0.0751 0.60772,-0.0233 0.60772,-0.0973 0.60773,-0.0417 0.60772,-0.0852 0.60773,-0.0799 0.60772,-0.068 0.60772,-0.0274 0.60773,-0.0474 0.60772,-0.0788 0.60773,-0.0847 0.60772,-0.0796 0.60772,-0.0244 0.60773,-0.0722 0.60772,0.027 0.60773,-0.0798 0.60772,-0.12594 0.60772,-0.0802 0.60773,-0.13905 0.60772,-0.1063 0.60773,-0.0481 0.60772,-0.13171 0.60772,-0.0182 0.60773,-0.0722 0.60772,-0.13323 0.60773,-0.02 0.60772,-0.10717 0.60772,-0.0165 0.60773,-0.0508 0.60772,-0.0481 0.60773,-0.0251 0.60772,-0.0543 0.60772,-0.0574 0.60773,-0.0191 0.60772,-0.0885 0.60773,-0.0832 0.60772,-0.004 0.60772,-0.18718 0.60773,0.0364 0.60772,-0.0446 0.60773,-0.0173 0.60772,0.058 0.60772,-0.0333 0.60773,-0.0176 0.60772,-0.19881 0.60773,-0.0322 0.60772,-0.0478 0.60772,-0.0543 0.60773,-0.0984 0.60772,-0.0873 0.60773,-0.009 0.60772,-0.0506 0.60772,-0.0581 0.60773,3.2e-4 0.60772,-0.0714 0.60773,-0.0144 0.60772,-0.0358 0.60772,-0.0287 0.60773,-0.1026 0.60772,-0.0577 0.60773,-0.0457 0.60772,-0.11342 0.60772,-0.12689 0.60773,-0.0586 0.60772,-0.11183 0.60773,-0.0276 0.60772,-0.0894 0.60772,-0.0165 0.60773,-0.0333 0.60772,-0.0252 0.60773,-0.0622 0.60772,-0.0861 0.60772,-0.0136 0.60773,-0.0184 0.60772,-0.20424 0.60773,-0.19532 0.60772,-0.0628 0.60772,0.0106 0.60773,-0.0824 0.60772,-0.0855 0.60773,-0.11765 0.60772,0.016 0.60772,0.0577 0.60773,-0.0514 0.60772,-0.0746 0.60773,0.0113 0.60772,-0.0309 0.60772,-0.0584 0.60773,-0.13112 0.60772,-0.0143 0.60773,-0.0483 0.60772,-0.0441 0.60772,-0.0412 0.60773,-0.12135 0.60772,-0.0844 0.60773,-0.0777 0.60772,-0.11688 0.60772,-0.13168 0.60773,-0.0498 0.60772,-0.12657 0.60773,-0.17981 0.60772,-0.0446 0.60772,-0.11454 0.60773,-0.11896 0.60772,-0.0552 0.60773,-0.0654 0.60772,-0.0509 0.60772,-0.0829 0.60773,-0.12911 0.60772,-0.0631 0.60773,-0.083 0.60772,-0.0524 0.60772,-0.0567 0.60773,-0.0518 0.60772,0.0466 0.60773,-0.0205 0.60772,-0.14695 0.60772,-0.0789 0.60773,-0.0328 0.60772,0.006 0.60773,0.0365 0.60772,-0.0885 0.60772,-0.0113 0.60773,-0.15213 0.60772,-0.0313 0.60773,-0.0801 0.60772,-0.0749 0.60772,-0.0363 0.60773,-0.0966 0.60772,-0.20266 0.60773,-0.15784 0.60772,-0.0392 0.60772,0.0487 0.60773,-0.0575 0.60772,-0.0595 0.60773,-0.0515 0.60772,-0.0123 0.60772,-0.01 0.60773,-0.0203 0.60772,-0.0498 0.60773,0.012 0.60772,-0.0772 0.60772,-0.0121 0.60773,0.0177 0.60772,-0.0855 0.60773,-0.022 0.60772,-0.0802 0.60772,0.0432 0.60773,0.005 0.60772,-0.0291 0.60773,0.004 0.60772,0.0245 0.60772,0.041 0.60773,-0.0616 0.60772,-0.14254 0.60773,-0.005 0.60772,-0.0251 0.60772,0.0536 0.60773,-0.11028 0.60772,-0.0205 0.60773,0.0201 0.60772,0.0102 0.60772,0.002 0.60773,0.0162 0.60772,0.0329 0.60773,0.0797 0.60772,0.0141 0.60772,-0.0993 0.60773,0.0839 0.60772,-0.0931 0.60773,0.005 0.60772,-0.0261 0.60772,-0.009 0.60773,-0.0521 0.60772,-0.0332 0.60773,0.003 0.60772,0.0298 0.60772,-0.017 0.60773,0.0432 0.60772,-0.0119 0.60773,-0.0232 0.60772,0.16609 0.60772,-0.0453 0.60773,-0.027 0.60772,0.0171 0.60773,0.005 0.60772,-0.0429 0.60772,0.0179 0.60773,-0.009 0.60772,-7.8e-4 0.60773,0.0105 0.60772,0.094 0.60772,0.0374 0.60773,-0.0511 0.60772,0.0388 0.60773,0.0198 0.60772,0.001 0.60772,-0.013 0.60773,-0.0457 0.60772,-0.0136 0.60773,-0.0262 0.60772,0.0551 0.60772,-0.0415 0.60773,0.0438 0.60772,0.0205 0.60773,0.0193 0.60772,0.0577 0.60772,0.0478 0.60773,-0.0396 0.60772,-0.0478 0.60773,0.0138 0.60772,0.0695 0.60772,-0.0427 0.60773,0.113 0.60772,-0.003 0.60773,0.013 0.60772,-0.0983 0.60772,-0.006 0.60773,-0.018 0.60772,0.0283 0.60773,-0.14561 0.60772,0.05 0.60772,0.12002 0.60773,0.0245 0.60772,-0.0714 0.60773,0.0436 0.60772,-0.001 0.60772,0.0341 0.60773,-0.0122 0.60772,-0.004 0.60773,0.0723 0.60772,0.0868 0.60772,0.009 0.60773,-0.0395 0.60772,-0.12192 0.60773,-0.003 0.60772,0.007 0.60772,-0.0799 0.60773,-0.0412 0.60772,-0.0739 0.60773,-0.0571 0.60772,-0.0569 0.60772,-0.0421 0.60773,0.02 0.60772,-0.0293 0.60773,-0.0347 0.60772,-3.9e-4 0.60772,0.0832 0.60773,-0.0736 0.60772,0.0129 0.60773,0.0829 0.60772,0.0854 0.60772,-0.15538 0.60773,-0.0254 0.60772,0.0123 0.60773,-0.0558 0.60772,0.11071 0.60772,0.0475 0.60773,0.12777 0.60772,-0.14155 0.60773,-0.0845 0.60772,0.16366 0.60772,-0.047 0.60773,0.0488 0.60772,0.0536 0.60773,-0.0578 0.60772,0.002 0.60772,0.072 0.60773,0.009 0.60772,-0.003 0.60773,-0.0799 0.60772,-0.0811 0.60772,0.0228 0.60773,0.0215 0.60772,-0.0693 0.60773,0.0361 0.60772,-0.0319 0.60772,-0.0171 0.60773,-0.13651 0.60772,0.0854 0.60773,-0.0847 0.60772,9.6e-4 0.60772,0.0386 0.60773,-0.0207 0.60772,-0.10644 0.60773,0.0625 0.60772,0.0648 0.60772,-0.014 0.60773,-0.0888 0.60772,-0.0223 0.60773,-0.0647 0.60772,-0.075 0.60772,0.0378 0.60773,0.0595 0.60772,-0.0314 0.60773,-0.20209 0.60772,-0.0672 0.60772,-0.18926 0.60773,-0.008 0.60772,-0.0924 0.60773,-0.0982 0.60772,0.0854 0.60772,-0.0692 0.60773,0.0826 0.60772,0.0113 0.60773,-0.0417 0.60772,-0.0307 0.60772,0.033 0.60773,-0.0351 0.60772,0.0773 0.60773,0.0693 0.60772,-0.0373 0.60772,-0.13056 0.60773,-0.0205 0.60772,10e-4 0.60773,-0.0141 0.60772,0.0385 0.60772,-0.10351 0.60773,-0.035 0.60772,0.0607 0.60773,0.0196 0.60772,-0.0404 0.60772,0.0124 0.60773,-0.007 0.60772,-0.11444 0.60773,0.0209 0.60772,0.005 0.60772,-0.0144 0.60773,0.0734 0.60772,-0.0197 0.60773,0.0154 0.60772,-0.0616 0.60772,-0.0504 0.60773,-0.0263 0.60772,-0.075 0.60773,0.008 0.60772,-0.10295 0.60772,-0.0766 0.60773,-0.0198 0.60772,-0.08 0.60773,-0.0694 0.60772,-0.10753 0.60772,0.003 0.60773,-0.10633 0.60772,-0.15129 0.60773,0.0177 0.60772,-0.0566 0.60772,0.0491 0.60773,-0.0754 0.60772,-0.0358 0.60773,-0.009 0.60772,0.0477 0.60772,-0.048 0.60773,-0.0716 0.60772,-0.0151 0.60773,-0.018 0.60772,-0.0491 0.60772,-0.0302 0.60773,-0.0546 0.60772,0.0103 0.60773,0.001 0.60772,-0.0479 0.60772,-0.0984 0.60773,-0.0897 0.60772,0.0293 0.60773,-0.1148 0.60772,-0.013 0.60772,-0.14868 0.60773,0.11892 0.60772,-0.0904 0.60773,-0.009 0.60772,-0.0455 0.60772,0.005 0.60773,-0.0305 0.60772,-0.0978 0.60773,-0.0803 0.60772,0.002 0.60772,0.0246 0.60773,-0.0728 0.60772,-0.0166 0.60773,-0.13997 0.60772,-0.10386 0.60772,-0.0408 0.60773,-0.10069 0.60772,0.052 0.60773,-0.17304 0.60772,0.008 0.60772,-0.0454 0.60773,-0.0249 0.60772,-0.0707 0.60773,0.0756 0.60772,0.0416 0.60772,-0.14963 0.60773,-0.0146 0.60772,-0.0483 0.60773,-0.11381 0.60772,-0.0174 0.60772,-0.0465 0.60773,-0.10947 0.60772,0.0355 0.60773,0.007 0.60772,0.0256 0.60772,0.002 0.60773,0.0419 0.60772,-0.0652 0.60773,-0.0703 0.60772,-0.0279 0.60772,-0.0723 0.60773,-0.0911 0.60772,-0.0933 0.60773,-0.0398 0.60772,-0.0872 0.60772,-0.0513 0.60773,-0.0858 0.60772,-0.0597 0.60773,0.0393 0.60772,-0.0365 0.60772,0.0577 0.60773,-0.0726 0.60772,-0.0562 0.60773,-0.0644 0.60772,-0.11553 0.60772,-0.105 0.60773,-0.0916 0.60772,0.0197 0.60773,-0.0681 0.60772,0.0239 0.60772,-0.0388 0.60773,-0.0502 0.60772,-0.14882 0.60773,0.0481 0.60772,0.0454 0.60772,-0.0358 0.60773,0.025 0.60772,0.14254 0.60773,0.0125 0.60772,0.0269 0.60772,-0.0572 0.60773,-0.0556 0.60772,-0.0855 0.60773,-0.0676 0.60772,-0.032 0.60772,-0.0535 0.60773,-0.14384 0.60772,0.026 0.60773,-0.0126 0.60772,0.0665 0.60772,0.005 0.60773,-0.12019 0.60772,0.011 0.60773,-0.10031 0.60772,-0.13154 0.60772,-0.009 0.60773,0.009 0.60772,-0.0385 0.60773,-0.10555 0.60772,0.0928 0.60772,0.089 0.60773,-0.0267 0.60772,-0.0308 0.60773,-0.13126 0.60772,0.0101 0.60772,0.0336 0.60773,-0.0989 0.60772,-5.3e-4 0.60773,-0.0446 0.60772,0.019 0.60772,-0.14688 0.60773,-0.0796 0.60772,-0.18548 0.60773,-0.10253 0.60772,-0.0908 0.60772,-0.0218 0.60773,0.0201 0.60772,-0.0519 0.60773,-0.0601 0.60772,-0.0294 0.60772,-0.1948 0.60773,-0.14254 0.60772,-0.0576 0.60773,-0.0994 0.60772,-0.0927 0.60772,-0.0773 0.60773,-0.0423 0.60772,0.0174 0.60773,0.007 0.60772,-0.12971 0.60772,-0.16285 0.60773,0.0193 0.60772,-0.004 0.60773,-0.0614 0.60772,-0.0759 0.60772,-0.10718 0.60773,-0.0851 0.60772,-0.0516 0.60773,-0.15986 0.60772,-0.0287 0.60772,0.008 0.60773,-0.0681 0.60772,-0.0696 0.60773,-0.0363 0.60772,-0.0132 0.60772,-0.18922 0.60773,-0.0932 0.60772,-0.021 0.60773,-0.0558 0.60772,-0.0731 0.60772,-0.0395 0.60773,-0.0581 0.60772,0.0541 0.60773,-0.0734 0.60772,0.009 0.60772,-0.0114 0.60773,0.0318 0.60772,-0.0161 0.60773,-0.0402 0.60772,-0.0474 0.60772,0.0545 0.60773,0.003 0.60772,-0.0685 0.60773,-0.11378 0.60772,-0.0457 0.60772,0.014 0.60773,-0.0684 0.60772,-0.0265 0.60773,-0.13514 0.60772,0.0298 0.60772,-0.006 0.60773,0.004 0.60772,0.0146 0.60773,-0.0601 0.60772,0.0923 0.60772,0.0301 0.60773,-0.009 0.60772,0.002 0.60773,-0.0489 0.60772,-0.1119 0.60772,-0.12618 0.60773,0.01 0.60772,-0.0153 0.60773,-0.1057 0.60772,-0.0975 0.60772,0.002 0.60773,0.0635 0.60772,0.009 0.60773,0.0372 0.60772,-0.12266 0.60772,-0.0329 0.60773,-0.0831 0.60772,0.0814 0.60773,-0.0168 0.60772,-0.0515 0.60772,0.006 0.60773,-0.10031 0.60772,-0.0813 0.60773,0.0451 0.60772,0.0782 0.60772,-0.10186 0.60773,-0.0866 0.60772,0.006 0.60773,-0.0419 0.60772,-0.0641 0.60772,-0.0973 0.60773,-0.0221 0.60772,-0.0753 0.60773,0.003 0.60772,-0.0103 0.60772,-0.0803 0.60773,-0.0195 0.60772,-0.16997 0.60773,-0.0843 0.60772,-0.053 0.60772,-0.0213 0.60773,0.0296 0.60772,-0.079 0.60773,-0.0788 0.60772,-0.0134 0.60772,0.0744 0.60773,-0.0264 0.60772,-0.0535 0.60773,-0.0954 0.60772,-0.0332 0.60772,-0.0502 0.60773,-0.14437 0.60772,-0.0194 0.60773,0.0804 0.60772,-0.0327 0.60772,-0.0576 0.60773,0.0253 0.60772,-0.0931 0.60773,0.0292 0.60772,0.0416 0.60772,-0.17992 0.60773,-0.0763 0.60772,0.0188 0.60773,-0.0844 0.60772,-0.13968 0.60772,-0.1044 0.60773,-0.0405 0.60772,-0.0645 0.60773,0.01 0.60772,-0.002 0.60772,-0.0821 0.60773,-0.10066 0.60772,-0.0172 0.60773,-0.0233 0.60772,-0.0267 0.60772,-0.10951 0.60773,-0.0663 0.60772,-0.12005 0.60773,-0.0254 0.60772,-0.0348 0.60772,0.0401 0.60773,-0.0178 0.60772,-0.0106 0.60773,-0.0372 0.60772,0.0273 0.60772,-0.11031 0.60773,-0.10084 0.60772,-0.0157 0.60773,-0.10936 0.60772,-0.0601 0.60772,-0.0892 0.60773,-0.0443 0.60772,-0.0376 0.60773,0.0212 0.60772,0.0734 0.60772,-0.0713 0.60773,0.009 0.60772,0.087 0.60773,-0.036 0.60772,-0.0773 0.60772,0.14966 0.60773,-0.10453 0.60772,0.0509 0.60773,-0.0106 0.60772,0.0398 0.60772,-0.0263 0.60773,-0.0314 0.60772,-0.0718 0.60773,0.0254 0.60772,-0.047 0.60772,0.0636 0.60773,-0.107 0.60772,0.004 0.60773,0.0677 0.60772,0.11554 0.60772,-0.0107 0.60773,-0.11966 0.60772,-7e-4 0.60773,-0.0431 0.60772,-0.11977 0.60772,-0.0238 0.60773,0.069 0.60772,0.0393 0.60773,-0.0586 0.60772,-0.0758 0.60772,0.0565 0.60773,-0.0723 0.60772,-0.0118 0.60773,-0.11296 0.60772,0.0317 0.60772,-0.10373 0.60773,-0.0514 0.60772,-0.0191 0.60773,-0.10722 0.60772,-0.0412 0.60772,-0.0555 0.60773,-0.0355 0.60772,-0.0123 0.60773,-0.0335 0.60772,0.0475 0.60772,0.039 0.60773,-0.0347 0.60772,-0.0366 0.60773,0.0875 0.60772,-0.10704 0.60772,-0.062 0.60773,-0.1038 0.60772,-0.006 0.60773,-0.0462 0.60772,-0.0131 0.60772,-0.0895 0.60773,-0.0818 0.60772,0.0172 0.60773,0.0899 0.60772,-0.0899 0.60772,-0.10704 0.60773,-0.0291 0.60772,-0.0588 0.60773,-0.0899 0.60772,-0.0318 0.60772,-0.065 0.60773,0.0321 0.60772,0.009 0.60773,0.0345 0.60772,-0.0217 0.60772,0.0308 0.60773,0.0631 0.60772,-0.0394 0.60773,-0.002 0.60772,-0.0527 0.60772,0.11448 0.60773,-0.0246 0.60772,7e-5 0.60773,0.0293 0.60772,0.0216 0.60772,0.0674 0.60773,-0.0466 0.60772,-0.008 0.60773,-0.0495 0.60772,0.0668 0.60772,-0.048 0.60773,-0.007 0.60772,0.0379 0.60773,-0.0938 0.60772,-0.10584 0.60772,-0.11152 0.60773,-0.0509 0.60772,-0.0153 0.60773,-0.0735 0.60772,0.0367 0.60772,0.007 0.60773,-0.0378 0.60772,0.004 0.60773,0.1033 0.60772,-0.11571 0.60772,0.003 0.60773,-7.1e-4 0.60772,-0.0831 0.60773,0.0218 0.60772,-0.0442 0.60772,0.0385 0.60773,0.0511 0.60772,0.0462 0.60773,0.003 0.60772,-0.0602 0.60772,-0.0297 0.60773,-0.0173 0.60772,0.0484 0.60773,-0.0586 0.60772,0.0129 0.60772,-0.0651 0.60773,-0.0148 0.60772,-0.001 0.60773,-0.0382 0.60772,-0.0338 0.60772,0.032 0.60773,0.008 0.60772,-0.0206 0.60773,-0.0756 0.60772,0.0914 0.60772,-0.0149 0.60773,0.007 0.60772,-0.0873 0.60773,0.0279 0.60772,-0.0266 0.60772,-0.0177 0.60773,-0.028 0.60772,-0.0254 0.60773,-0.0827 0.60772,-0.0162 0.60772,0.0347 0.60773,-0.0255 0.60772,-0.0673 0.60773,-0.0269 0.60772,-0.0222 0.60772,-0.002 0.60773,-0.0148 0.60772,-0.0939 0.60773,0.0235 0.60772,-0.11035 0.60772,-0.0853 0.60773,0.058 0.60772,0.084 0.60773,0.0342 0.60772,0.0327 0.60772,-0.0571 0.60773,-0.14476 0.60772,-0.12245 0.60773,0.005 0.60772,0.0722 0.60772,8.1e-4 0.60773,-7.4e-4 0.60772,-0.0226 0.60773,-0.0741 0.60772,-0.0232 0.60772,0.0908 0.60773,-0.0262 0.60772,0.0237 0.60773,-0.0237 0.60772,-0.0151 0.60772,0.0164 0.60773,0.0153 0.60772,0.0463 0.60773,-0.008 0.60772,0.0234 0.60772,0.11402 0.60773,-0.0749 0.60772,0.007 0.60773,-0.0208 0.60772,-0.0309 0.60772,0.004 0.60773,-0.0957 0.60772,0.0173 0.60773,-0.079 0.60772,0.0352 0.60772,-0.0722 0.60773,0.0415 0.60772,-0.0547 0.60773,-0.0593 0.60772,-0.0695 0.60772,-0.0273 0.60773,0.002 0.60772,0.081 0.60773,0.002 0.60772,-0.0104 0.60772,-0.0133 0.60773,0.009 0.60772,-0.0421 0.60773,-0.0442 0.60772,0.0822 0.60772,-0.007 0.60773,-0.0249 0.60772,-0.0862 0.60773,-0.0209"
                   vector-effect="non-scaling-stroke"
                   id="path156"
                   inkscape:connector-curvature="0" />
              </g>
            </g>
          </g>
        </g>
      </g>
    </g>
  </g>
  <g
     id="PlotItem_5"
     style="fill:none;stroke:#000000;stroke-width:1;stroke-linecap:square;stroke-linejoin:bevel"
     transform="translate(-25.079834,-141.57232)">
    <g
       id="AxisItem_3"
       style="fill:none;stroke:#000000;stroke-width:1;stroke-linecap:square;stroke-linejoin:bevel">
      <g
         font-size="11.875"
         font-style="normal"
         font-weight="400"
         id="g178"
         style="font-size:11.875px;font-style:normal;font-weight:400;fill:none;stroke:#969696;stroke-width:1;stroke-linecap:square;stroke-linejoin:bevel;stroke-opacity:1;font-family:Sans Serif">
        <polyline
           points="45.0,322.333 45.0,396.446566312"
           vector-effect="non-scaling-stroke"
           id="polyline180"
           style="fill:none" />
      </g>
      <g
         font-size="11.875"
         font-style="normal"
         font-weight="400"
         id="g182"
         style="font-size:11.875px;font-style:normal;font-weight:400;fill:none;stroke:#969696;stroke-width:1;stroke-linecap:square;stroke-linejoin:bevel;stroke-opacity:1;font-family:Sans Serif">
        <polyline
           points="45.5,359.389833688 50.5,359.389833688"
           vector-effect="non-scaling-stroke"
           id="polyline184"
           style="fill:none" />
      </g>
      <g
         font-size="11.875"
         font-style="normal"
         font-weight="400"
         id="g186"
         style="font-size:11.875px;font-style:normal;font-weight:400;fill:none;stroke:#969696;stroke-width:1;stroke-linecap:square;stroke-linejoin:bevel;stroke-opacity:0.49803904;font-family:Sans Serif">
        <polyline
           points="45.5,395.021361784 48.8333,395.021361784"
           vector-effect="non-scaling-stroke"
           id="polyline188"
           style="fill:none" />
        <polyline
           points="45.5,323.758265166 48.8333,323.758265166"
           vector-effect="non-scaling-stroke"
           id="polyline190"
           style="fill:none" />
      </g>
      <g
         font-size="11.875"
         font-style="normal"
         font-weight="400"
         id="g192"
         style="font-size:11.875px;font-style:normal;font-weight:400;fill:none;stroke:#969696;stroke-width:1;stroke-linecap:square;stroke-linejoin:bevel;stroke-opacity:0.33333297;font-family:Sans Serif">
        <polyline
           points="45.5,387.895035952 48.0,387.895035952"
           vector-effect="non-scaling-stroke"
           id="polyline194"
           style="fill:none" />
        <polyline
           points="45.5,380.76871012 48.0,380.76871012"
           vector-effect="non-scaling-stroke"
           id="polyline196"
           style="fill:none" />
        <polyline
           points="45.5,373.642384288 48.0,373.642384288"
           vector-effect="non-scaling-stroke"
           id="polyline198"
           style="fill:none" />
        <polyline
           points="45.5,366.516058456 48.0,366.516058456"
           vector-effect="non-scaling-stroke"
           id="polyline200"
           style="fill:none" />
        <polyline
           points="45.5,352.263507856 48.0,352.263507856"
           vector-effect="non-scaling-stroke"
           id="polyline202"
           style="fill:none" />
        <polyline
           points="45.5,345.137182024 48.0,345.137182024"
           vector-effect="non-scaling-stroke"
           id="polyline204"
           style="fill:none" />
        <polyline
           points="45.5,338.010856192 48.0,338.010856192"
           vector-effect="non-scaling-stroke"
           id="polyline206"
           style="fill:none" />
        <polyline
           points="45.5,330.884570786 48.0,330.884570786"
           vector-effect="non-scaling-stroke"
           id="polyline208"
           style="fill:none" />
      </g>
      <g
         font-size="11.875"
         font-style="normal"
         font-weight="400"
         transform="matrix(1,0,0,1.01064,5.5,322.333)"
         id="g210"
         style="font-size:11.875px;font-style:normal;font-weight:400;fill:none;stroke:#969696;stroke-width:1;stroke-linecap:square;stroke-linejoin:bevel;stroke-opacity:1;font-family:Sans Serif">
        <text
           font-size="11.875"
           font-style="normal"
           font-weight="400"
           x="31"
           xml:space="preserve"
           y="40.6562"
           id="text212"
           style="font-size:11.875px;font-style:normal;font-weight:400;fill:#969696;fill-opacity:1;stroke:none">0</text>
        <text
           font-size="11.875"
           font-style="normal"
           font-weight="400"
           x="19"
           xml:space="preserve"
           y="75.921898"
           id="text214"
           style="font-size:11.875px;font-style:normal;font-weight:400;fill:#969696;fill-opacity:1;stroke:none">-10</text>
        <text
           font-size="11.875"
           font-style="normal"
           font-weight="400"
           x="23"
           xml:space="preserve"
           y="5.4218798"
           id="text216"
           style="font-size:11.875px;font-style:normal;font-weight:400;fill:#969696;fill-opacity:1;stroke:none">10</text>
      </g>
    </g>
    <g
       id="ViewBox_5"
       style="fill:none;stroke:#000000;stroke-width:1;stroke-linecap:square;stroke-linejoin:bevel">
      <g
         font-size="11.875"
         font-style="normal"
         font-weight="400"
         id="g219"
         style="font-size:11.875px;font-style:normal;font-weight:400;fill:none;stroke:none;font-family:Sans Serif">
        <path
           d="m 45,322.333 616,0 0,73.3333 -616,0 0,-73.3333"
           vector-effect="non-scaling-stroke"
           id="path221"
           inkscape:connector-curvature="0" />
      </g>
      <clipPath
         id="ViewBox_5_clip">
        <path
           d="m 45,322.333 616,0 0,73.334 -616,0 0,-73.334"
           vector-effect="non-scaling-stroke"
           id="path224"
           inkscape:connector-curvature="0" />
      </clipPath>
      <g
         clip-path="url(#ViewBox_5_clip)"
         id="g226">
        <g
           id="ChildGroup_5"
           style="fill:none;stroke:#000000;stroke-width:1;stroke-linecap:square;stroke-linejoin:bevel">
          <g
             id="InfiniteLine_3"
             style="fill:none;stroke:#000000;stroke-width:1;stroke-linecap:square;stroke-linejoin:bevel">
            <g
               font-size="11.875"
               font-style="normal"
               font-weight="400"
               id="g230"
               style="font-size:11.875px;font-style:normal;font-weight:400;fill:none;stroke:#e6e6af;stroke-width:1;stroke-linecap:square;stroke-linejoin:bevel;stroke-opacity:1;font-family:Sans Serif">
              <polyline
                 points="661.00284908,359.0 44.9999465728,359.0"
                 vector-effect="non-scaling-stroke"
                 id="polyline232"
                 style="fill:none" />
            </g>
          </g>
          <g
             id="PlotDataItem_5">
            <g
               id="PlotCurveItem_5"
               style="fill:none;stroke:#000000;stroke-width:1;stroke-linecap:square;stroke-linejoin:bevel">
              <g
                 font-size="11.875"
                 font-style="normal"
                 font-weight="400"
                 id="g236"
                 style="font-size:11.875px;font-style:normal;font-weight:400;fill:none;stroke:#0000ff;stroke-width:1;stroke-linecap:square;stroke-linejoin:bevel;stroke-opacity:1;font-family:Sans Serif">
                <path
                   d="m 29.4743,352.30128 0.607724,0.0705 0.607724,-0.91667 0.607724,0.0353 0.607724,1.51602 0.607724,-2.04483 0.607724,0.35252 0.607724,0.91667 0.607724,-0.35256 0.607724,-2.1859 0.607724,0.77564 0.607724,2.32692 0.607724,-0.74038 0.607724,-2.39744 0.607724,4.83013 0.607724,-5.35897 0.607724,2.78529 0.607724,3.31407 0.607724,-2.32693 0.607724,0.14103 0.607724,1.1282 0.607724,-0.21154 0.607724,-2.36217 0.607724,0.28205 0.607724,2.04487 0.607724,-3.91343 0.607724,2.50317 0.607724,-1.19872 0.607724,1.97436 0.607724,-4.08974 0.607724,3.63141 0.607724,0.14103 0.607724,-1.44552 0.607724,0.52885 0.607724,-0.88141 0.607724,-1.16343 0.607724,1.93907 0.607724,-1.33974 0.607724,1.86859 0.607724,-0.77561 0.607724,1.86855 0.607724,-1.65701 0.607724,0.88137 0.607724,1.51603 0.607724,0.24679 0.607724,-2.53846 0.607724,1.6218 0.607724,-1.12821 0.607724,-1.1282 0.607724,-0.91667 0.607724,1.97436 0.607724,-1.05769 0.607724,-1.16346 0.607724,2.53846 0.607724,-1.55128 0.607724,0.35256 0.607724,1.33974 0.607724,-2.64423 0.607724,0.49359 0.607724,0.17628 0.607724,-0.52884 0.607724,-0.66987 0.607724,1.9391 0.607724,-0.45833 0.607724,-0.45834 0.607724,-1.44551 0.607724,2.5032 0.607724,-1.44551 0.607724,-1.51602 0.607724,3.63141 0.607724,-3.77244 0.607724,0.84615 0.607724,2.32693 0.607724,-0.0352 0.607724,2.67945 0.607724,-2.43269 0.607724,1.6923 0.607724,-3.94871 0.607724,1.6923 0.607724,-2.82051 0.607724,2.53846 0.607724,0.49359 0.607724,-0.24679 0.607724,-0.21154 0.607724,1.69231 0.607724,0.14102 0.607724,0.0353 0.607724,-0.66987 0.607724,-0.38782 0.607724,-0.52885 0.607724,1.48077 0.607724,0.17628 0.607724,-2.36218 0.607724,-0.95192 0.607724,2.25641 0.607724,-2.53846 0.607724,3.10256 0.607724,-1.86859 0.607724,2.57372 0.607724,-1.41026 0.607724,-1.12817 0.607724,0.66984 0.607724,1.375 0.607724,-3.59615 0.607724,2.67948 0.607724,0.2468 0.607724,0.88141 0.607724,-0.74039 0.607724,0.28205 0.607724,0.66988 0.607724,-0.28206 0.607724,-1.65705 0.607724,0.56411 0.607724,-2.46795 0.607724,0.35256 0.607724,2.15064 0.607724,-1.23397 0.607726,0.74038 0.60772,0.38786 0.60773,-0.31734 0.60772,-1.09295 0.60772,1.05769 0.60773,-1.79808 0.60772,2.15068 0.60773,-2.08016 0.60772,3.34935 0.60772,-3.56089 0.60773,2.89102 0.60772,-2.43265 0.60773,0.84611 0.60772,-1.02243 0.60772,2.36218 0.60773,1.05769 0.60772,-0.77564 0.60773,-1.6218 0.60772,1.26923 0.60772,1.58654 0.60773,-1.97436 0.60772,-0.0705 0.60773,-1.44551 0.60772,1.1282 0.60772,-0.84615 0.60773,0.91667 0.60772,-0.70513 0.60773,2.29166 0.60772,-1.79807 0.60772,2.89102 0.60773,-2.25637 0.60772,-1.1635 0.60773,0.10577 0.60772,1.44551 0.60772,-2.5032 0.60773,2.57372 0.60772,-0.66984 0.60773,-0.98721 0.60772,0.0353 0.60772,0.59936 0.60773,1.58654 0.60772,0.31731 0.60773,-1.6218 0.60772,-0.21154 0.60772,-0.3173 0.60773,0.74042 0.60772,1.19868 0.60773,-0.91667 0.60772,-0.17628 0.60772,2.67949 0.60773,-3.5609 0.60772,-0.38782 0.60773,1.33974 0.60772,2.08013 0.60772,-3.2083 0.60773,0.74035 0.60772,-0.66983 0.60773,-0.91671 0.60772,2.64423 0.60772,-0.45833 0.60773,-1.76282 0.60772,0.59936 0.60773,0.14103 0.60772,2.60897 0.60772,-2.75 0.60773,-0.24676 0.60772,-0.74038 0.60773,2.99675 0.60772,-1.19871 0.60772,-0.95193 0.60773,2.64423 0.60772,-3.13782 0.60773,-0.5641 0.60772,0.21158 0.60772,0.95192 0.60773,-0.0705 0.60772,0.31727 0.60773,1.23397 0.60772,-0.59932 0.60772,-0.88141 0.60773,-0.24683 0.60772,1.97436 0.60773,-0.35257 0.60772,-1.6923 0.60772,-0.66988 0.60773,3.63141 0.60772,-1.62179 0.60773,0.74038 0.60772,1.33975 0.60772,-2.64423 0.60773,0.42311 0.60772,-1.83333 0.60773,0.24676 0.60772,1.37503 0.60772,-0.49362 0.60773,-2.39744 0.60772,2.71474 0.60773,-1.72756 0.60772,0.77564 0.60772,0.17628 0.60773,1.05769 0.60772,-1.76282 0.60773,2.04488 0.60772,-1.90385 0.60772,2.36218 0.60773,-0.91667 0.60772,0.42308 0.60773,-0.95192 0.60772,0.81093 0.60772,-2.25645 0.60773,0.3526 0.60772,-0.6699 0.60773,2.75 0.60772,0.49359 0.60772,-1.33975 0.60773,-0.5641 0.60772,1.58654 0.60773,-1.41026 0.60772,1.48077 0.60772,0.8109 0.60773,-2.71475 0.60772,0.0705 0.60773,0.91666 0.60772,-2.15064 0.60772,2.29167 0.60773,-0.59932 0.60772,-2.92632 0.60773,0.66987 0.60772,0.63462 0.60772,2.15064 0.60773,-0.84616 0.60772,-1.48077 0.60773,-0.10576 0.60772,-0.28206 0.60772,-1.09294 0.60773,2.36217 0.60772,-2.25641 0.60773,2.71475 0.60772,-3.41987 0.60772,1.44551 0.60773,0.70513 0.60772,0.59936 0.60773,-1.12821 0.60772,-0.5641 0.60772,0.0705 0.60773,0.35257 0.60772,0.63461 0.60773,-1.69231 0.60772,2.29167 0.60772,-2.75 0.60773,2.1859 0.60772,0 0.60773,-0.56411 0.60772,1.4103 0.60772,-1.9744 0.60773,1.375 0.60772,-1.44551 0.60773,1.9391 0.60772,-1.86859 0.60772,-0.0705 0.60773,0.42308 0.60772,1.62183 0.60773,-0.45837 0.60772,-1.86859 0.60772,-0.42308 0.60773,0.63462 0.60772,-1.41026 0.60773,2.67949 0.60772,0 0.60772,-0.49359 0.60773,0.84615 0.60772,1.72756 0.60773,-3.45512 0.60772,0.59936 0.60772,3.45516 0.60773,-0.63465 0.60772,-1.09295 0.60773,-0.88141 0.60772,1.33974 0.60772,0.88141 0.60773,1.30449 0.60772,0.63462 0.60773,-2.04488 0.60772,-0.88141 0.60772,3.13782 0.60773,0 0.60772,0.56411 0.60773,0.84615 0.60772,0.66987 0.60772,-0.52884 0.60773,-1.33975 0.60772,2.92628 0.60773,1.55128 0.60772,-1.16346 0.60772,0.95193 0.60773,0.59936 0.60772,2.15064 0.60773,-3.41988 0.60772,3.27885 0.60772,-4.54808 0.60773,2.39744 0.60772,-1.12821 0.60773,6.20513 0.60772,-6.27564 0.60772,-0.88141 0.60773,3.20833 0.60772,-2.22115 0.60773,0.49359 0.60772,1.33974 0.60772,-0.59935 0.60773,-0.98718 0.60772,0 0.60773,-0.2468 0.60772,-2.29166 0.60772,1.33974 0.60773,2.25641 0.60772,2.15067 0.60773,-2.32695 0.60772,3.34935 0.60772,-2.04487 0.60773,1.44552 0.60772,-1.65706 0.60773,-2.15064 0.60772,-0.95192 0.60772,0.88141 0.60773,2.32692 0.60772,-1.6923 0.60773,-1.55129 0.60772,1.69231 0.60772,2.75 0.60773,-2.92628 0.60772,1.26923 0.60773,-1.83333 0.60772,1.72756 0.60772,-0.59936 0.60773,2.96154 0.60772,-0.66984 0.60773,-0.1058 0.60772,-3.66667 0.60772,0.98718 0.60773,-0.0705 0.60772,2.22115 0.60773,-0.77564 0.60772,-3.10256 0.60772,0.52888 0.60773,2.04484 0.60772,0.3173 0.60773,-0.88141 0.60772,-1.9391 0.60772,2.64423 0.60773,-0.91666 0.60772,0.74038 0.60773,0.8109 0.60772,-1.65705 0.60772,3.24359 0.60773,-1.72757 0.60772,-2.53846 0.60773,1.86859 0.60772,1.76282 0.60772,0.74038 0.60773,-2.57371 0.60772,-1.90385 0.60773,2.32692 0.60772,0.70513 0.60772,-4.90064 0.60773,4.01923 0.60772,0.10577 0.60773,0.59936 0.60772,-2.60897 0.60772,3.45512 0.60773,-1.79807 0.60772,0.45833 0.60773,0.5641 0.60772,-0.3173 0.60772,-3.06731 0.60773,2.92631 0.60772,0.81087 0.60773,-0.49359 0.60772,0.74038 0.60772,1.16346 0.60773,0.21154 0.60772,-1.90384 0.60773,-3.27885 0.60772,2.89103 0.60772,0.0705 0.60773,-0.5641 0.60772,1.26923 0.60773,-0.70513 0.60772,2.00961 0.60772,-4.16025 0.60773,2.18589 0.60772,-3.91346 0.60773,4.30128 0.60772,-0.88137 0.60772,-1.33978 0.60773,4.23077 0.60772,-0.0705 0.60773,-0.66987 0.60772,-1.76282 0.60772,-2.92629 0.60773,2.96154 0.60772,-2.71471 0.60773,3.87817 0.60772,-0.49359 0.60772,-0.38782 0.60773,0.0353 0.60772,-0.38785 0.60773,-2.08013 0.60772,1.05769 0.60772,0.35257 0.60773,-2.32693 0.60772,-0.10576 0.60773,3.80769 0.60772,2.71474 0.60772,-3.41987 0.60773,0.28205 0.60772,-2.00961 0.60773,2.2564 0.60772,1.33975 0.60772,-1.375 0.60773,-2.43269 0.60772,0.74038 0.60773,-0.74038 0.60772,3.10256 0.60772,-2.29167 0.60773,0.42308 0.60772,2.92628 0.60773,-4.40705 0.60772,-0.28205 0.60772,2.82051 0.60773,1.41026 0.60772,0.88141 0.60773,-2.22115 0.60772,-2.4327 0.60772,-1.55128 0.60773,-0.74038 0.60772,4.23077 0.60773,-2.25641 0.60772,-0.21154 0.60772,3.03205 0.60773,-1.83333 0.60772,-0.28202 0.60773,-0.95196 0.60772,3.34936 0.60772,-2.11538 0.60773,1.58653 0.60772,-3.66666 0.60773,1.79811 0.60772,2.67945 0.60772,-0.38782 0.60773,-0.91667 0.60772,-0.21153 0.60773,1.19871 0.60772,0.35257 0.60772,-0.49359 0.60773,1.72756 0.60772,-1.83333 0.60773,-1.76282 0.60772,3.94872 0.60772,-3.31411 0.60773,3.10257 0.60772,-4.65385 0.60773,2.67949 0.60772,-1.19872 0.60772,0.98718 0.60773,-0.49359 0.60772,0.91667 0.60773,-3.52564 0.60772,1.30448 0.60772,1.12821 0.60773,1.09295 0.60772,0.0353 0.60773,-0.59936 0.60772,-1.09294 0.60772,-1.97436 0.60773,-0.91667 0.60772,0.49359 0.60773,3.41987 0.60772,-0.35256 0.60772,-2.60898 0.60773,3.49039 0.60772,-0.17628 0.60773,-2.9968 0.60772,1.86859 0.60772,0.28205 0.60773,-2.46795 0.60772,-0.10577 0.60773,4.23077 0.60772,-2.46795 0.60772,-1.83333 0.60773,4.86539 0.60772,-1.26924 0.60773,-0.81089 0.60772,0.70513 0.60772,-1.30449 0.60773,0.95192 0.60772,1.12821 0.60773,-1.48077 0.60772,-0.5641 0.60772,-0.8109 0.60773,1.44551 0.60772,-0.35256 0.60773,0.45836 0.60772,-1.62182 0.60772,0.1058 0.60773,3.5256 0.60772,-2.29166 0.60773,-0.10577 0.60772,0.24679 0.60772,1.76282 0.60773,-3.52564 0.60772,-0.17628 0.60773,4.6891 0.60772,-2.29166 0.60772,-2.67949 0.60773,1.375 0.60772,-1.86859 0.60773,1.12821 0.60772,5.99358 0.60772,-5.88781 0.60773,-0.98718 0.60772,3.45512 0.60773,-1.90384 0.60772,2.36218 0.60772,-2.82048 0.60773,2.22112 0.60772,0.10577 0.60773,-1.58654 0.60772,-3.38462 0.60772,7.05128 0.60773,-2.43269 0.60772,-1.30448 0.60773,4.72435 0.60772,-4.33653 0.60772,3.3141 0.60773,-5.3942 0.60772,3.17304 0.60773,-2.00961 0.60772,3.59615 0.60772,-5.21794 0.60773,4.90064 0.60772,-1.48077 0.60773,1.86859 0.60772,-2.92629 0.60772,-0.42307 0.60773,-0.21154 0.60772,0.84615 0.60773,1.97436 0.60772,-5.8173 0.60772,3.66666 0.60773,1.6218 0.60772,-2.25641 0.60773,0.91666 0.60772,0.63462 0.60772,0.74038 0.60773,-4.125 0.60772,4.86539 0.60773,-5.21795 0.60772,-2.32692 0.60772,6.94551 0.60773,-1.48077 0.60772,-1.97436 0.60773,-0.63462 0.60772,0.8109 0.60772,2.82051 0.60773,0.0705 0.60772,0.70512 0.60773,-0.81089 0.60772,-0.59936 0.60772,0.59936 0.60773,-2.92628 0.60772,1.86859 0.60773,-1.26923 0.60772,1.44551 0.60772,-1.97436 0.60773,5.64102 0.60772,-2.15064 0.60773,-1.33971 0.60772,-0.1058 0.60772,0.5641 0.60773,-0.28205 0.60772,2.57372 0.60773,-2.46795 0.60772,-1.51602 0.60772,0.45833 0.60773,-0.66987 0.60772,1.26923 0.60773,-0.98718 0.60772,0.88141 0.60772,-0.66987 0.60773,2.04487 0.60772,-3.49039 0.60773,0.84616 0.60772,1.76282 0.60772,-2.11539 0.60773,2.50321 0.60772,0.21154 0.60773,-1.86859 0.60772,-0.8109 0.60772,2.11538 0.60773,-1.30448 0.60772,-1.9391 0.60773,5.57051 0.60772,-3.87821 0.60772,-1.83333 0.60773,1.90385 0.60772,2.39743 0.60773,-1.97436 0.60772,-2.04487 0.60772,3.3141 0.60773,-1.86859 0.60772,1.48077 0.60773,-0.81089 0.60772,-3.84292 0.60772,4.23074 0.60773,-0.35257 0.60772,-2.46795 0.60773,0.98718 0.60772,3.13782 0.60772,0.84616 0.60773,-0.84616 0.60772,-3.98397 0.60773,-0.17628 0.60772,3.03205 0.60772,0 0.60773,-2.75 0.60772,3.98397 0.60773,-2.53846 0.60772,-0.91667 0.60772,0.88145 0.60773,4.23073 0.60772,-1.19872 0.60773,-4.93589 0.60772,2.5032 0.60772,-0.3173 0.60773,3.49038 0.60772,-5.64102 0.60773,1.62179 0.60772,2.43269 0.60772,0.17628 0.60773,-0.98718 0.60772,-1.23397 0.60773,1.02244 0.60772,0.63461 0.60772,-1.26923 0.60773,-2.46795 0.60772,4.23077 0.60773,-0.98718 0.60772,0.28205 0.60772,-4.23077 0.60773,1.58654 0.60772,-1.1282 0.60773,2.04487 0.60772,1.65708 0.60772,-1.51602 0.60773,0.42304 0.60772,-2.71474 0.60773,0.59936 0.60772,3.10256 0.60772,0.2468 0.60773,-0.52885 0.60772,-1.48077 0.60773,1.83333 0.60772,-0.81089 0.60772,2.85576 0.60773,-2.00958 0.60772,0.17625 0.60773,-0.98718 0.60772,0.52885 0.60772,2.64423 0.60773,-4.125 0.60772,2.85577 0.60773,1.09295 0.60772,1.05769 0.60772,-1.41026 0.60773,-3.56089 0.60772,-0.45834 0.60773,2.22116 0.60772,-1.0577 0.60772,-0.52884 0.60773,1.09295 0.60772,1.93913 0.60773,-4.93593 0.60772,2.32692 0.60772,0.66988 0.60773,-1.16346 0.60772,-1.12821 0.60773,-0.84615 0.60772,3.0673 0.60772,-1.23397 0.60773,1.90385 0.60772,-4.33654 0.60773,6.0641 0.60772,-4.61859 0.60772,3.27885 0.60773,1.1282 0.60772,-2.5032 0.60773,-3.5609 0.60772,3.63141 0.60772,-0.28205 0.60773,0.70513 0.60772,0.0353 0.60773,-2.89102 0.60772,0.3173 0.60772,1.02244 0.60773,0.14103 0.60772,1.4808 0.60773,-3.06734 0.60772,2.99679 0.60772,1.26923 0.60773,-0.95189 0.60772,-1.09298 0.60773,0.28205 0.60772,-2.64423 0.60772,4.54808 0.60773,-2.53846 0.60772,-0.66987 0.60773,3.49038 0.60772,-2.85577 0.60772,2.25641 0.60773,-4.58333 0.60772,3.03205 0.60773,0.10577 0.60772,3.91346 0.60772,-5.14744 0.60773,0.59936 0.60772,0.31731 0.60773,-0.66987 0.60772,4.23077 0.60772,-3.73718 0.60773,3.80769 0.60772,-0.42308 0.60773,-2.99679 0.60772,0.59936 0.60772,0.0705 0.60773,0.91667 0.60772,0.35256 0.60773,-5.39423 0.60772,2.39744 0.60772,1.62179 0.60773,0 0.60772,1.30449 0.60773,-1.51603 0.60772,2.53846 0.60772,-2.04487 0.60773,-2.60894 0.60772,2.3974 0.60773,-2.78525 0.60772,2.53846 0.60772,1.41026 0.60773,-4.3718 0.60772,6.94551 0.60773,-1.02243 0.60772,-3.06731 0.60772,-0.95192 0.60773,-1.83334 0.60772,8.28526 0.60773,-8.60256 0.60772,5.18269 0.60772,-0.84616 0.60773,-2.22115 0.60772,4.01923 0.60773,1.44551 0.60772,-4.30128 0.60772,-2.71474 0.60773,1.05769 0.60772,-1.26923 0.60773,0.70516 0.60772,-0.6699 0.60772,3.45512 0.60773,2.00962 0.60772,-0.28205 0.60773,-2.85577 0.60772,0.59936 0.60772,1.26923 0.60773,0.42308 0.60772,-0.91664 0.60773,-1.79811 0.60772,-1.33974 0.60772,3.98397 0.60773,0.17628 0.60772,-3.91346 0.60773,4.26603 0.60772,-1.33974 0.60772,-3.52564 0.60773,1.83333 0.60772,2.46795 0.60773,-1.48077 0.60772,-0.8109 0.60772,-1.97436 0.60773,4.47756 0.60772,-1.33974 0.60773,1.375 0.60772,-3.06727 0.60772,-0.52888 0.60773,1.05769 0.60772,0.84615 0.60773,-2.08012 0.60772,1.23397 0.60772,-2.00961 0.60773,1.02243 0.60772,1.58654 0.60773,1.30449 0.60772,-1.69231 0.60772,1.23397 0.60773,0.14103 0.60772,-0.14103 0.60773,-0.24679 0.60772,-3.06731 0.60772,4.33657 0.60773,-4.86541 0.60772,3.73717 0.60773,-0.66987 0.60772,-3.41987 0.60772,0.98718 0.60773,3.24362 0.60772,-1.51606 0.60773,-0.35256 0.60772,-0.74038 0.60772,1.05769 0.60773,3.3141 0.60772,-2.08013 0.60773,-0.28205 0.60772,-4.54808 0.60772,5.35898 0.60773,-1.23398 0.60772,3.52564 0.60773,-9.30769 0.60772,5.64103 0.60772,-2.57372 0.60773,1.33974 0.60772,2.1859 0.60773,1.51603 0.60772,-1.6218 0.60772,2.04487 0.60773,-1.90384 0.60772,2.57371 0.60773,-1.97435 0.60772,-0.14103 0.60772,-5.11218 0.60773,4.01923 0.60772,0.49359 0.60773,0.38782 0.60772,-0.17628 0.60772,-0.17628 0.60773,-4.08974 0.60772,2.60897 0.60773,3.38461 0.60772,-4.08974 0.60772,0.52885 0.60773,2.85577 0.60772,-2.50321 0.60773,2.08013 0.60772,-2.57372 0.60772,0.0353 0.60773,1.86859 0.60772,0.21154 0.60773,-2.9968 0.60772,-1.02243 0.60772,2.64423 0.60773,1.41025 0.60772,0.28205 0.60773,-2.43269 0.60772,-1.1282 0.60772,1.48077 0.60773,2.29166 0.60772,-2.92628 0.60773,0.38782 0.60772,1.41026 0.60772,-0.59936 0.60773,0.6699 0.60772,-1.86862 0.60773,1.02244 0.60772,3.03205 0.60772,-0.88141 0.60773,-3.98398 0.60772,0.31731 0.60773,4.23077 0.60772,-3.5609 0.60772,0.66987 0.60773,1.30449 0.60772,1.6218 0.60773,-2.29167 0.60772,-1.58654 0.60772,3.5609 0.60773,-3.5609 0.60772,-0.56407 0.60773,1.65702 0.60772,1.9391 0.60772,-1.26923 0.60773,-1.51602 0.60772,1.83333 0.60773,-0.2468 0.60772,-1.86859 0.60772,3.27885 0.60773,-1.33974 0.60772,1.1282 0.60773,-3.8782 0.60772,2.78525 0.60772,-1.41025 0.60773,1.41025 0.60772,0.28205 0.60773,0.77565 0.60772,-4.47757 0.60772,2.39744 0.60773,-1.12821 0.60772,-2.08012 0.60773,4.97115 0.60772,-0.31731 0.60772,-0.49359 0.60773,0.5641 0.60772,0.2468 0.60773,-5.39423 0.60772,4.125 0.60772,0.17628 0.60773,-0.98718 0.60772,2.64423 0.60773,-3.63141 0.60772,0.5641 0.60772,-2.15064 0.60773,5.42952 0.60772,-2.50324 0.60773,2.96154 0.60772,-2.60897 0.60772,-0.49359 0.60773,0.24679 0.60772,2.82052 0.60773,-1.58654 0.60772,-1.23398 0.60772,3.49039 0.60773,-4.79487 0.60772,4.97115 0.60773,-3.66667 0.60772,-0.70512 0.60772,0.17628 0.60773,4.58333 0.60772,-0.10577 0.60773,-1.69231 0.60772,-0.0352 0.60772,-1.65705 0.60773,-2.08013 0.60772,3.20833 0.60773,-1.76282 0.60772,0 0.60772,1.51603 0.60773,-1.0577 0.60772,-0.81089 0.60773,0.24679 0.60772,0.14103 0.60772,-1.83334 0.60773,-1.1282 0.60772,4.58333 0.60773,-5.53525 0.60772,6.3814 0.60772,-3.8782 0.60773,1.48077 0.60772,-1.62176 0.60773,3.2083 0.60772,1.44551 0.60772,-3.66663 0.60773,2.78522 0.60772,-2.43269 0.60773,-0.31731 0.60772,0.88141 0.60772,1.33974 0.60773,-1.86859 0.60772,0.91667 0.60773,-0.0352 0.60772,2.15061 0.60772,-0.88141 0.60773,-2.46795 0.60772,-0.95193 0.60773,6.48718 0.60772,-4.65384 0.60772,0 0.60773,-3.20834 0.60772,2.9968 0.60773,-2.89103 0.60772,3.5609 0.60772,0.0353 0.60773,-2.85577 0.60772,1.79807 0.60773,4.75962"
                   vector-effect="non-scaling-stroke"
                   id="path238"
                   inkscape:connector-curvature="0" />
              </g>
            </g>
          </g>
        </g>
      </g>
    </g>
  </g>
  <g
     style="fill:none;stroke:#000000;stroke-width:1;stroke-linecap:square;stroke-linejoin:bevel"
     id="g3944"
     transform="translate(-191.11516,7.346017)">
    <path
       sodipodi:nodetypes="cccc"
       inkscape:connector-curvature="0"
       id="path3237-3"
       d="m 367.72186,6.2747598 0,266.4810902 0,0 0,-0.22152"
       style="fill:none;stroke:#000000;stroke-width:0.56202096;stroke-linecap:butt;stroke-linejoin:miter;stroke-miterlimit:4;stroke-opacity:1;stroke-dasharray:0.56202098, 1.68606294;stroke-dashoffset:0" />
    <text
       sodipodi:linespacing="125%"
       id="text4007-6"
       y="280.81375"
       x="335.78943"
       style="font-size:9px;font-style:normal;font-variant:normal;font-weight:normal;font-stretch:normal;line-height:125%;letter-spacing:0px;word-spacing:0px;fill:#000000;fill-opacity:1;stroke:none;font-family:TeX Gyre Termes;-inkscape-font-specification:TeX Gyre Termes"
       xml:space="preserve"><tspan
         style="font-size:14px"
         y="280.81375"
         x="335.78943"
         id="tspan4009-1"
         sodipodi:role="line">Vehicle at point A</tspan></text>
  </g>
  <text
     xml:space="preserve"
     style="font-size:9px;font-style:normal;font-variant:normal;font-weight:normal;font-stretch:normal;line-height:125%;letter-spacing:0px;word-spacing:0px;fill:#000000;fill-opacity:1;stroke:none;font-family:TeX Gyre Termes;-inkscape-font-specification:TeX Gyre Termes"
     x="5.0559921"
     y="288.15976"
     id="text4011-0"
     sodipodi:linespacing="125%"><tspan
       sodipodi:role="line"
       id="tspan4013-5"
       x="5.0559921"
       y="288.15976"
       style="font-size:14px">Initial position</tspan></text>
  <text
     xml:space="preserve"
     style="font-size:14px;font-style:normal;font-variant:normal;font-weight:normal;font-stretch:normal;line-height:125%;letter-spacing:0px;word-spacing:0px;fill:#000000;fill-opacity:1;stroke:none;font-family:TeX Gyre Termes;-inkscape-font-specification:TeX Gyre Termes"
     x="26.791706"
     y="162.14293"
     id="text4023-1"
     sodipodi:linespacing="125%"><tspan
       sodipodi:role="line"
       id="tspan4025-7"
       x="26.791706"
       y="162.14293">Sensor unit </tspan></text>
  <text
     xml:space="preserve"
     style="font-size:14px;font-style:normal;font-variant:normal;font-weight:normal;font-stretch:normal;line-height:125%;letter-spacing:0px;word-spacing:0px;fill:#000000;fill-opacity:1;stroke:none;font-family:TeX Gyre Termes;-inkscape-font-specification:TeX Gyre Termes"
     x="27.21172"
     y="80.122864"
     id="text4027-4"
     sodipodi:linespacing="125%"><tspan
       sodipodi:role="line"
       id="tspan4029-6"
       x="27.21172"
       y="80.122864">Motor unit</tspan></text>
  <text
     xml:space="preserve"
     style="font-size:14px;font-style:normal;font-variant:normal;font-weight:normal;font-stretch:normal;line-height:125%;letter-spacing:0px;word-spacing:0px;fill:#000000;fill-opacity:1;stroke:none;font-family:TeX Gyre Termes;-inkscape-font-specification:TeX Gyre Termes"
     x="27.127705"
     y="256.2215"
     id="text4031-9"
     sodipodi:linespacing="125%"><tspan
       sodipodi:role="line"
       id="tspan4033-6"
       x="27.127705"
       y="256.2215">Input transducer</tspan></text>
</svg>
