<?xml version="1.0" encoding="UTF-8" standalone="no"?>
<svg xmlns="http://www.w3.org/2000/svg" xmlns:xlink="http://www.w3.org/1999/xlink"  version="1.2" baseProfile="tiny">
<title>pyqtgraph SVG export</title>
<desc>Generated with Qt and pyqtgraph</desc>
<defs>
</defs>
<g id="GraphicsScene_1">
    <g fill="none" fill-rule="evenodd" id="GraphicsLayout_1" stroke="black" stroke-linecap="square" stroke-linejoin="bevel" stroke-width="1">
        <g fill="none" fill-rule="evenodd" id="PlotItem_1" stroke="black" stroke-linecap="square" stroke-linejoin="bevel" stroke-width="1">
            <g fill="none" fill-rule="evenodd" id="AxisItem_1" stroke="black" stroke-linecap="square" stroke-linejoin="bevel" stroke-width="1">
                <g fill="none" font-family="Sans Serif" font-size="11.875" font-style="normal" font-weight="400" stroke="#969696" stroke-linecap="square" stroke-linejoin="bevel" stroke-opacity="1" stroke-width="1">
                    <polyline fill="none" points="45.0,5.0 45.0,79.113566312" vector-effect="non-scaling-stroke"/>
                </g>
                <g fill="none" font-family="Sans Serif" font-size="11.875" font-style="normal" font-weight="400" stroke="#969696" stroke-linecap="square" stroke-linejoin="bevel" stroke-opacity="1" stroke-width="1">
                    <polyline fill="none" points="45.5,42.056833688 50.5,42.056833688" vector-effect="non-scaling-stroke"/>
                </g>
                <g fill="none" font-family="Sans Serif" font-size="11.875" font-style="normal" font-weight="400" stroke="#969696" stroke-linecap="square" stroke-linejoin="bevel" stroke-opacity="0.498039" stroke-width="1">
                    <polyline fill="none" points="45.5,77.688361784 48.8333,77.688361784" vector-effect="non-scaling-stroke"/>
                    <polyline fill="none" points="45.5,6.4252651664 48.8333,6.4252651664" vector-effect="non-scaling-stroke"/>
                </g>
                <g fill="none" font-family="Sans Serif" font-size="11.875" font-style="normal" font-weight="400" stroke="#969696" stroke-linecap="square" stroke-linejoin="bevel" stroke-opacity="0.333333" stroke-width="1">
                    <polyline fill="none" points="45.5,70.562035952 48.0,70.562035952" vector-effect="non-scaling-stroke"/>
                    <polyline fill="none" points="45.5,63.43571012 48.0,63.43571012" vector-effect="non-scaling-stroke"/>
                    <polyline fill="none" points="45.5,56.309384288 48.0,56.309384288" vector-effect="non-scaling-stroke"/>
                    <polyline fill="none" points="45.5,49.183058456 48.0,49.183058456" vector-effect="non-scaling-stroke"/>
                    <polyline fill="none" points="45.5,34.930507856 48.0,34.930507856" vector-effect="non-scaling-stroke"/>
                    <polyline fill="none" points="45.5,27.804182024 48.0,27.804182024" vector-effect="non-scaling-stroke"/>
                    <polyline fill="none" points="45.5,20.677856192 48.0,20.677856192" vector-effect="non-scaling-stroke"/>
                    <polyline fill="none" points="45.5,13.5515707856 48.0,13.5515707856" vector-effect="non-scaling-stroke"/>
                </g>
                <g fill="none" font-family="Sans Serif" font-size="11.875" font-style="normal" font-weight="400" stroke="#969696" stroke-linecap="square" stroke-linejoin="bevel" stroke-opacity="1" stroke-width="1" transform="matrix(1,0,0,1.01064,5.5,5)">
                    <text fill="#969696" fill-opacity="1" font-family="&quot;Sans Serif&quot;, sans-serif" font-size="11.875" font-style="normal" font-weight="400" stroke="none" x="31" xml:space="preserve" y="40.6562">0</text>
                    <text fill="#969696" fill-opacity="1" font-family="&quot;Sans Serif&quot;, sans-serif" font-size="11.875" font-style="normal" font-weight="400" stroke="none" x="19" xml:space="preserve" y="75.9219">-10</text>
                    <text fill="#969696" fill-opacity="1" font-family="&quot;Sans Serif&quot;, sans-serif" font-size="11.875" font-style="normal" font-weight="400" stroke="none" x="23" xml:space="preserve" y="5.42188">10</text>
                </g>
            </g>
            <g fill="none" fill-rule="evenodd" id="ViewBox_1" stroke="black" stroke-linecap="square" stroke-linejoin="bevel" stroke-width="1">
                <g fill="none" font-family="Sans Serif" font-size="11.875" font-style="normal" font-weight="400" stroke="none">
                    <path d="M45.0,5.0 L661.0,5.0 L661.0,78.3333 L45.0,78.3333 L45.0,5.0 " fill-rule="evenodd" vector-effect="non-scaling-stroke"/>
                </g>
                <clipPath id="ViewBox_1_clip">
                    <path d="M45.0,5.0 L661.0,5.0 L661.0,78.3333 L45.0,78.3333 L45.0,5.0 " fill-rule="evenodd" vector-effect="non-scaling-stroke"/>
                </clipPath>
                <g clip-path="url(#ViewBox_1_clip)">
                    <g fill="none" fill-rule="evenodd" id="ChildGroup_1" stroke="black" stroke-linecap="square" stroke-linejoin="bevel" stroke-width="1">
                        <g fill="none" fill-rule="evenodd" id="InfiniteLine_1" stroke="black" stroke-linecap="square" stroke-linejoin="bevel" stroke-width="1">
                            <g fill="none" font-family="Sans Serif" font-size="11.875" font-style="normal" font-weight="400" stroke="#e6e6af" stroke-linecap="square" stroke-linejoin="bevel" stroke-opacity="1" stroke-width="1">
                                <polyline fill="none" points="661.00268021,41.6667 44.999982536,41.6667" vector-effect="non-scaling-stroke"/>
                            </g>
                        </g>
                        <g id="PlotDataItem_1">
                            <g fill="none" fill-rule="evenodd" id="PlotCurveItem_1" stroke="black" stroke-linecap="square" stroke-linejoin="bevel" stroke-width="1">
                                <g fill="none" font-family="Sans Serif" font-size="11.875" font-style="normal" font-weight="400" stroke="#ff0000" stroke-linecap="square" stroke-linejoin="bevel" stroke-opacity="1" stroke-width="1">
                                    <path d="M29.4743,41.7027320408 L30.69097,41.7615044596 L31.90764,41.7575204864 L33.12431,41.7066945076 L34.34098,41.6860012219 L35.55765,41.7588383706 L36.77432,41.7587544604 L37.99099,41.7169393123 L39.20766,41.7196272602 L40.42433,41.706716014 L41.641,41.7995108588 L42.85767,41.7851262476 L44.07434,41.8257768768 L45.29101,41.8216166216 L46.50768,41.8096999584 L47.72435,41.724344214 L48.94102,41.6086679656 L50.15769,41.558462852 L51.37436,41.6136743744 L52.59103,41.5973859176 L53.8077,41.5870910488 L55.02437,41.638671162 L56.24104,41.497116716 L57.45771,41.4494148068 L58.67438,41.4523763444 L59.89105,41.466796212 L61.10772,41.4261455828 L62.32439,41.497116716 L63.54106,41.4552321128 L64.75773,41.4376391692 L65.9744,41.3757289308 L67.19107,41.4332673756 L68.40774,41.3796776476 L69.62441,41.435594298 L70.84108,41.4538571132 L72.05775,41.5137577368 L73.27442,41.46661993 L74.49109,41.4448314748 L75.70776,41.346571888 L76.92443,41.338639198 L78.1411,41.2612866564 L79.35777,41.3001039528 L80.57444,41.2722513968 L81.79111,41.3086007452 L83.00778,41.2541648636 L84.22445,41.3136424104 L85.44112,41.362084704 L86.65779,41.3483699644 L87.87446,41.3127610004 L89.09113,41.3593699612 L90.3078,41.248559096 L91.52447,41.2911488272 L92.74114,41.3953667456 L93.95781,41.455337882 L95.17448,41.3019020292 L96.39115,41.30355908 L97.60782,41.2132674396 L98.82449,41.2917129296 L100.04116,41.186860396 L101.25783,41.1839341148 L102.4745,41.1349982316 L103.69117,41.116523878 L104.90784,41.0747097876 L106.12451,41.0585976128 L107.34118,41.0157610868 L108.55785,41.0242226228 L109.77452,40.9027290684 L110.99119,40.8807995876 L112.20786,40.9349181616 L113.42453,40.77118744 L114.6412,40.6544182432 L115.85787,40.5747740356 L117.07454,40.4865272664 L118.29121,40.5138862328 L119.50788,40.494600982 L120.72455,40.3896074228 L121.94122,40.2988221928 L123.15789,40.2579247688 L124.37456,40.1276523708 L125.59123,40.1971779916 L126.8079,40.211139526 L128.02457,40.0771299496 L129.24124,40.0791748208 L130.45791,40.0291459892 L131.67458,39.9792229268 L132.89125,39.8848768004 L134.10792,39.8376684808 L135.32459,39.8297710472 L136.54126,39.7931396476 L137.75793,39.8450723248 L138.9746,39.9006716676 L140.19127,39.761444144 L141.40794,39.7032358276 L142.62461,39.6975242908 L143.84128,39.684937756 L145.05795,39.6504922532 L146.27462,39.6210179028 L147.49129,39.7113095432 L148.70796,39.7637710664 L149.92463,39.7791781132 L151.1413,39.8235306644 L152.35797,39.807982592 L153.57464,39.659905712 L154.79131,39.6210884156 L156.00798,39.5583320236 L157.22465,39.457181412 L158.44132,39.381732716 L159.65799,39.3058256868 L160.87466,39.3084346604 L162.09133,39.3032167132 L163.308,39.2009731532 L164.52467,39.1912071304 L165.74134,39.0035373132 L166.95801,38.9971559048 L168.17468,38.8383258228 L169.39135,38.6981816328 L170.60802,38.6974765048 L171.82469,38.6659925396 L173.04136,38.61173294 L174.25803,38.6351431896 L175.4747,38.631829088 L176.69137,38.5011688696 L177.90804,38.418880432 L179.12471,38.3976560792 L180.34138,38.2865631628 L181.55805,38.3427971208 L182.77472,38.2981625184 L183.99139,38.3233708444 L185.20806,38.3603900644 L186.42473,38.4043900516 L187.6414,38.4208547904 L188.85807,38.405659282 L190.07474,38.425579148 L191.29141,38.4027682572 L192.50808,38.3585567316 L193.72475,38.2342779216 L194.94142,38.1088709068 L196.15809,38.1568548672 L197.37476,38.1285087216 L198.59143,38.0975888588 L199.8081,38.1213516724 L201.02477,37.9606530012 L202.24144,38.0216818296 L203.45811,37.9689382552 L204.67478,37.8758613592 L205.89145,37.815995992 L207.10812,37.8255504764 L208.32479,37.741428706 L209.54146,37.64835181 L210.75813,37.6509607836 L211.9748,37.7230601216 L213.19147,37.7422748596 L214.40814,37.7546851124 L215.62481,37.6274095084 L216.84148,37.6605857808 L218.05815,37.6567075768 L219.27482,37.5368358168 L220.49149,37.4333935392 L221.70816,37.3726820184 L222.92483,37.3243102376 L224.1415,37.3468743336 L225.35817,37.3777941964 L226.57484,37.2518583356 L227.79151,37.1575122092 L229.00818,37.1488391348 L230.22485,37.2163551408 L231.44152,37.273399996 L232.65819,37.2401179544 L233.87486,37.141188496 L235.09153,37.251893592 L236.3082,37.2158262948 L237.52487,37.1696756672 L238.74154,37.0801244112 L239.95821,37.2121948856 L241.17488,37.1581820808 L242.39155,37.1714737436 L243.60822,37.1894545076 L244.82489,37.0855538968 L246.04156,37.0690186452 L247.25823,37.1081532492 L248.4749,37.0829449232 L249.69157,37.0742718488 L250.90824,37.0284737852 L252.12491,37.0854481276 L253.34158,37.0769160788 L254.55825,37.0354898088 L255.77492,37.0848135124 L256.99159,37.1355827284 L258.20826,37.0143359688 L259.42493,36.9007751044 L260.6416,36.814185386 L261.85827,36.7113777236 L263.07494,36.6180892892 L264.29161,36.5433104648 L265.50828,36.555227128 L266.72495,36.439233572 L267.94162,36.4210412696 L269.15829,36.4347207528 L270.37496,36.4527367732 L271.59163,36.4178329372 L272.8083,36.334522064 L274.02497,36.2557945228 L275.24164,36.1025702084 L276.45831,36.0106567736 L277.67498,36.0455606096 L278.89165,36.0406952264 L280.10832,35.9609099932 L281.32499,35.9583715324 L282.54166,35.9904901128 L283.75833,36.032022152 L284.975,36.0275093328 L286.19167,36.005932416 L287.40834,36.0512016336 L288.62501,36.0487336856 L289.84168,36.0631888096 L291.05835,36.0040285704 L292.27502,35.9209292356 L293.49169,35.8572914336 L294.70836,35.7901985044 L295.92503,35.8641664316 L297.1417,35.8141728564 L298.35837,35.7179581408 L299.57504,35.6648620024 L300.79171,35.7258908308 L302.00838,35.7570927448 L303.22505,35.6344004728 L304.44172,35.6107434284 L305.65839,35.5517594712 L306.87506,35.4539582176 L308.09173,35.36021145 L309.3084,35.3565800408 L310.52507,35.4216280988 L311.74174,35.4133781012 L312.95841,35.28617301 L314.17508,35.3444870956 L315.39175,35.293400572 L316.60842,35.1622820204 L317.82509,35.085564094 L319.04176,35.0216794972 L320.25843,35.0091282188 L321.4751,35.0089519368 L322.69177,34.9895256604 L323.90844,34.9749295108 L325.12511,34.8559744172 L326.34178,34.6421090948 L327.55845,34.6130578212 L328.77512,34.6217308956 L329.99179,34.5041155452 L331.20846,34.5593975804 L332.42513,34.4944552916 L333.6418,34.4588110712 L334.85847,34.4755578612 L336.07514,34.4026123696 L337.29181,34.482679654 L338.50848,34.4601508144 L339.72515,34.4270803112 L340.94182,34.2135675528 L342.15849,34.1961861476 L343.37516,34.1980899932 L344.59183,34.1453111624 L345.8085,34.1248977068 L347.02517,34.1268015524 L348.24184,34.1501412892 L349.45851,34.0855868208 L350.67518,34.0307983752 L351.89185,34.0400002956 L353.10852,33.9906413356 L354.32519,33.9863753112 L355.54186,33.9007375156 L356.75853,33.7814651144 L357.9752,33.7854138312 L359.19187,33.7117279552 L360.40854,33.7110580836 L361.62521,33.7437407664 L362.84188,33.6137504196 L364.05855,33.6019042692 L365.27522,33.5911158108 L366.49189,33.4656382832 L367.70856,33.3653690816 L368.92523,33.2893915396 L370.1419,33.2140133564 L371.35857,33.2454268088 L372.57524,33.1727633684 L373.79191,33.0574749404 L375.00858,33.0444300724 L376.22525,33.0359685364 L377.44192,32.894555116 L378.65859,32.9170839556 L379.87526,32.837439748 L381.09193,32.7319525992 L382.3086,32.7538115672 L383.52527,32.6939814564 L384.74194,32.6809718448 L385.95861,32.6018917396 L387.17528,32.522247532 L388.39195,32.4649911384 L389.60862,32.3098982348 L390.82529,32.2864174724 L392.04196,32.229090566 L393.25863,32.1600937912 L394.4753,32.1475072564 L395.69197,32.0901098372 L396.90864,32.1052700892 L398.12531,32.0477316444 L399.34198,32.0968438096 L400.55865,32.0333822896 L401.77532,32.074491252 L402.99199,32.0287284448 L404.20866,32.0649015112 L405.42533,32.1605873808 L406.642,32.0960329124 L407.85867,32.079427148 L409.07534,32.10957137 L410.29201,32.1062572684 L411.50868,32.0974431684 L412.72535,32.002568196 L413.94202,31.9822252532 L415.15869,31.9054015576 L416.37536,31.8286131184 L417.59203,31.6832509812 L418.8087,31.6705939336 L420.02537,31.673625984 L421.24204,31.6876227748 L422.45871,31.610869592 L423.67538,31.6229977936 L424.89205,31.5536131984 L426.10872,31.4755555288 L427.32539,31.382231838 L428.54206,31.3582927424 L429.75873,31.2608087964 L430.9754,31.1007799968 L432.19207,31.1547222888 L433.40874,31.034603734 L434.62541,30.8850813416 L435.84208,30.8118185424 L437.05875,30.7512127908 L438.27542,30.5620269484 L439.49209,30.4437769828 L440.70876,30.3477032928 L441.92543,30.2178539716 L443.1421,30.1385975844 L444.35877,30.0664982464 L445.57544,29.9934469856 L446.79211,29.9578380216 L448.00878,29.7685816664 L449.22545,29.6200817096 L450.44212,29.74210411 L451.65879,29.6614727232 L452.87546,29.5233734044 L454.09213,29.5219984048 L455.3088,29.4741907264 L456.52547,29.434315738 L457.74214,29.4327644564 L458.95881,29.3762131908 L460.17548,29.4018445936 L461.39215,29.2974151368 L462.60882,29.1910818344 L463.82549,29.1656972264 L465.04216,29.0998735276 L466.25883,29.0270338052 L467.4755,28.9421011376 L468.69217,28.857521034 L469.90884,28.888194102 L471.12551,28.77079029 L472.34218,28.6279313572 L473.55885,28.5763159876 L474.77552,28.555549968 L475.99219,28.4723801204 L477.20886,28.3035372208 L478.42553,28.1219667608 L479.6422,28.0652039568 L480.85887,28.0714090832 L482.07554,28.051383448 L483.29221,28.1319795784 L484.50888,28.0244828148 L485.72555,27.9021783632 L486.94222,27.8124155688 L488.15889,27.7664059668 L489.37556,27.705341882 L490.59223,27.66021369 L491.8089,27.6138867804 L493.02557,27.6133579344 L494.24224,27.4982810448 L495.45891,27.4432458044 L496.67558,27.358418906 L497.89225,27.2867426448 L499.10892,27.1614413992 L500.32559,27.0668837344 L501.54226,27.035117718 L502.75893,26.971656198 L503.9756,26.8744543032 L505.19227,26.8531241812 L506.40894,26.8527716172 L507.62561,26.7069864032 L508.84228,26.6801562828 L510.05895,26.5804159272 L511.27562,26.4967172336 L512.49229,26.4058967472 L513.70896,26.2723807604 L514.92563,26.2026436012 L516.1423,26.1340699032 L517.35897,25.988355202 L518.57564,25.9684705924 L519.79231,26.021319936 L521.00898,26.0077814784 L522.22565,25.9777077692 L523.44232,25.8505379344 L524.65899,25.7835507744 L525.87566,25.65588735 L527.09233,25.622217488 L528.309,25.549060458 L529.52567,25.479957914 L530.74234,25.4784066324 L531.95901,25.3597688464 L533.17568,25.3917464012 L534.39235,25.3011374532 L535.60902,25.2932400196 L536.82569,25.222762476 L538.04236,25.1902913316 L539.25903,25.1868714608 L540.4757,25.1065221252 L541.69237,25.0726054684 L542.90904,25.0909387964 L544.12571,25.0267721484 L545.34238,24.9917272868 L546.55905,24.9189228208 L547.77572,24.9057721836 L548.99239,24.8039517004 L550.20906,24.7754997856 L551.42573,24.9074997472 L552.6424,24.7815638864 L553.85907,24.6948683988 L555.07574,24.598547914 L556.29241,24.5007819168 L557.50908,24.4554774428 L558.72575,24.4111954044 L559.94242,24.3436088856 L561.15909,24.2977050528 L562.37576,24.1921121348 L563.59243,24.1457147124 L564.8091,24.1045352372 L566.02577,23.989317322 L567.24244,23.9900929628 L568.45911,24.0202019284 L569.67578,23.8715256896 L570.89245,23.8265032668 L572.10912,23.7871923808 L573.32579,23.7748878972 L574.54246,23.830134676 L575.75913,23.776368666 L576.9758,23.7638879004 L578.19247,23.6382693472 L579.40914,23.6169744816 L580.62581,23.6549456244 L581.84248,23.589333464 L583.05915,23.5964552568 L584.27582,23.487795032 L585.49249,23.4977020804 L586.70916,23.4351219704 L587.92583,23.4131572332 L589.1425,23.466112346 L590.35917,23.4021924928 L591.57584,23.2585579192 L592.79251,23.2585579192 L594.00918,23.2887021412 L595.22585,23.2603559956 L596.44252,23.3010066248 L597.65919,23.2876797056 L598.87586,23.2533047156 L600.09253,23.282955348 L601.3092,23.2500611268 L602.52587,23.2032406276 L603.74254,23.243644462 L604.95921,23.2912758584 L606.17588,23.316801492 L607.39255,23.353820712 L608.60922,23.2344425416 L609.82589,23.1631893572 L611.04256,23.1234906508 L612.25923,23.1676316636 L613.4759,23.1861060172 L614.69257,23.158147692 L615.90924,23.2636348408 L617.12591,23.1970707576 L618.34258,23.1943912712 L619.55925,23.1580066664 L620.77592,23.2109265228 L621.99259,23.193932938 L623.20926,23.0797374584 L624.42593,23.0775163052 L625.6426,23.150215002 L626.85927,23.0322470876 L628.07594,22.9546477512 L629.29261,22.961240698 L630.50928,22.95084006 L631.72595,22.9182631464 L632.94262,22.875391364 L634.15929,22.8041029232 L635.37596,22.8168304836 L636.59263,22.8527567552 " fill-rule="evenodd" vector-effect="non-scaling-stroke"/>
                                </g>
                            </g>
                        </g>
                    </g>
                </g>
            </g>
        </g>
        <g fill="none" fill-rule="evenodd" id="PlotItem_2" stroke="black" stroke-linecap="square" stroke-linejoin="bevel" stroke-width="1">
            <g fill="none" fill-rule="evenodd" id="ViewBox_2" stroke="black" stroke-linecap="square" stroke-linejoin="bevel" stroke-width="1">
                <g fill="none" font-family="Sans Serif" font-size="11.875" font-style="normal" font-weight="400" stroke="none">
                    <path d="M5.0,84.3333 L661.0,84.3333 L661.0,157.6666 L5.0,157.6666 L5.0,84.3333 " fill-rule="evenodd" vector-effect="non-scaling-stroke"/>
                </g>
                <clipPath id="ViewBox_2_clip">
                    <path d="M5.0,84.3333 L661.0,84.3333 L661.0,157.667 L5.0,157.667 L5.0,84.3333 " fill-rule="evenodd" vector-effect="non-scaling-stroke"/>
                </clipPath>
                <g clip-path="url(#ViewBox_2_clip)">
                    <g fill="none" fill-rule="evenodd" id="ChildGroup_2" stroke="black" stroke-linecap="square" stroke-linejoin="bevel" stroke-width="1">
                        <g id="PlotDataItem_2">
                            <g fill="none" fill-rule="evenodd" id="PlotCurveItem_2" stroke="black" stroke-linecap="square" stroke-linejoin="bevel" stroke-width="1">
                                <g fill="none" font-family="Sans Serif" font-size="11.875" font-style="normal" font-weight="400" stroke="#550000" stroke-linecap="square" stroke-linejoin="bevel" stroke-opacity="1" stroke-width="1">
                                    <path d="M29.4119,156.256 L30.62869,156.256 L31.84548,156.256 L33.06227,156.256 L34.27906,156.256 L35.49585,156.256 L36.71264,156.256 L37.92943,156.256 L39.14622,156.256 L40.36301,156.256 L41.5798,156.256 L42.79659,156.256 L44.01338,156.256 L45.23017,156.256 L46.44696,156.256 L47.66375,156.256 L48.88054,156.256 L50.09733,156.256 L51.31412,156.256 L52.53091,156.256 L53.7477,156.256 L54.96449,156.256 L56.18128,156.256 L57.39807,156.256 L58.61486,156.256 L59.83165,156.256 L61.04844,156.256 L62.26523,156.256 L63.48202,156.256 L64.69881,156.256 L65.9156,156.256 L67.13239,156.256 L68.34918,156.256 L69.56597,156.256 L70.78276,156.256 L71.99955,156.256 L73.21634,156.256 L74.43313,156.256 L75.64992,156.256 L76.86671,156.256 L78.0835,156.256 L79.30029,156.256 L80.51708,156.256 L81.73387,156.256 L82.95066,156.256 L84.16745,156.256 L85.38424,156.256 L86.60103,156.256 L87.81782,156.256 L89.03461,156.256 L90.2514,156.256 L91.46819,156.256 L92.68498,156.256 L93.90177,156.256 L95.11856,156.256 L96.33535,156.256 L97.55214,156.256 L98.76893,156.256 L99.98572,156.256 L101.20251,156.256 L102.4193,156.256 L103.63609,156.256 L104.85288,156.256 L106.06967,156.256 L107.28646,156.256 L108.50325,156.256 L109.72004,156.256 L110.93683,156.256 L112.15362,156.256 L113.37041,156.256 L114.5872,156.256 L115.80399,156.256 L117.02078,156.256 L118.23757,156.256 L119.45436,156.256 L120.67115,156.256 L121.88794,156.256 L123.10473,156.256 L124.32152,156.256 L125.53831,156.256 L126.7551,156.256 L127.97189,156.256 L129.18868,156.256 L130.40547,156.256 L131.62226,156.256 L132.83905,156.256 L134.05584,156.256 L135.27263,156.256 L136.48942,156.256 L137.70621,156.256 L138.923,156.256 L140.13979,156.256 L141.35658,156.256 L142.57337,156.256 L143.79016,156.256 L145.00695,156.256 L146.22374,156.256 L147.44053,156.256 L148.65732,156.256 L149.87411,156.256 L151.0909,156.256 L152.30769,156.256 L153.52448,156.256 L154.74127,156.256 L155.95806,156.256 L157.17485,156.256 L158.39164,156.256 L159.60843,156.256 L160.82522,156.256 L162.04201,156.256 L163.2588,156.256 L164.47559,156.256 L165.69238,156.256 L166.90917,156.256 L168.12596,156.256 L169.34275,156.256 L170.55954,156.256 L171.77633,156.256 L172.99312,156.256 L174.20991,156.256 L175.4267,156.256 L176.64349,156.256 L177.86028,156.256 L179.07707,156.256 L180.29386,156.256 L181.51065,156.256 L182.72744,156.256 L183.94423,156.256 L185.16102,156.256 L186.37781,156.256 L187.5946,156.256 L188.81139,156.256 L190.02818,156.256 L191.24497,156.256 L192.46176,156.256 L193.67855,156.256 L194.89534,156.256 L196.11213,156.256 L197.32892,156.256 L198.54571,156.256 L199.7625,156.256 L200.97929,156.256 L202.19608,156.256 L203.41287,156.256 L204.62966,156.256 L205.84645,156.256 L207.06324,156.256 L208.28003,156.256 L209.49682,156.256 L210.71361,156.256 L211.9304,156.256 L213.14719,156.256 L214.36398,156.256 L215.58077,156.256 L216.79756,156.256 L218.01435,156.256 L219.23114,156.256 L220.44793,156.256 L221.66472,156.256 L222.88151,156.256 L224.0983,156.256 L225.31509,156.256 L226.53188,156.256 L227.74867,156.256 L228.96546,156.256 L230.18225,156.256 L231.39904,156.256 L232.61583,156.256 L233.83262,156.256 L235.04941,156.256 L236.2662,156.256 L237.48299,156.256 L238.69978,156.256 L239.91657,156.256 L241.13336,156.256 L242.35015,156.256 L243.56694,156.256 L244.78373,156.256 L246.00052,156.256 L247.21731,156.256 L248.4341,156.256 L249.65089,156.256 L250.86768,156.256 L252.08447,156.256 L253.30126,156.256 L254.51805,156.256 L255.73484,156.256 L256.95163,156.256 L258.16842,156.256 L259.38521,156.256 L260.602,156.256 L261.81879,156.256 L263.03558,156.256 L264.25237,156.256 L265.46916,156.256 L266.68595,156.256 L267.90274,156.256 L269.11953,156.256 L270.33632,156.256 L271.55311,156.256 L272.7699,156.256 L273.98669,156.256 L275.20348,156.256 L276.42027,156.256 L277.63706,156.256 L278.85385,156.256 L280.07064,156.256 L281.28743,156.256 L282.50422,156.256 L283.72101,156.256 L284.9378,156.256 L286.15459,156.256 L287.37138,156.256 L288.58817,156.256 L289.80496,156.256 L291.02175,156.256 L292.23854,156.256 L293.45533,156.256 L294.67212,156.256 L295.88891,156.256 L297.1057,156.256 L298.32249,156.256 L299.53928,156.256 L300.75607,156.256 L301.97286,156.256 L303.18965,156.256 L304.40644,156.256 L305.62323,156.256 L306.84002,156.256 L308.05681,156.256 L309.2736,156.256 L310.49039,156.256 L311.70718,156.256 L312.92397,156.256 L314.14076,156.256 L315.35755,156.256 L316.57434,156.256 L317.79113,156.256 L319.00792,156.256 L320.22471,156.256 L321.4415,156.256 L322.65829,156.256 L323.87508,156.256 L325.09187,156.256 L326.30866,156.256 L327.52545,156.256 L328.74224,156.256 L329.95903,156.256 L331.17582,156.256 L332.39261,156.256 L333.6094,156.256 L334.82619,156.256 L336.04298,156.256 L337.25977,156.256 L338.47656,156.256 L339.69335,156.256 L340.91014,156.256 L342.12693,156.256 L343.34372,156.256 L344.56051,156.256 L345.7773,156.256 L346.99409,156.256 L348.21088,156.256 L349.42767,156.256 L350.64446,156.256 L351.86125,156.256 L353.07804,156.256 L354.29483,156.256 L355.51162,156.256 L356.72841,156.256 L357.9452,156.256 L359.16199,156.256 L360.37878,156.256 L361.59557,156.256 L362.81236,156.256 L364.02915,156.256 L365.24594,156.256 L366.46273,156.256 L367.67952,156.256 L368.89631,156.256 L370.1131,156.256 L371.32989,156.256 L372.54668,156.256 L373.76347,156.256 L374.98026,156.256 L376.19705,156.256 L377.41384,156.256 L378.63063,156.256 L379.84742,156.256 L381.06421,156.256 L382.281,156.256 L383.49779,156.256 L384.71458,156.256 L385.93137,156.256 L387.14816,156.256 L388.36495,156.256 L389.58174,156.256 L390.79853,156.256 L392.01532,156.256 L393.23211,156.256 L394.4489,156.256 L395.66569,156.256 L396.88248,156.256 L398.09927,156.256 L399.31606,156.256 L400.53285,156.256 L401.74964,156.256 L402.96643,156.256 L404.18322,156.256 L405.40001,156.256 L406.6168,156.256 L407.83359,156.256 L409.05038,156.256 L410.26717,156.256 L411.48396,156.256 L412.70075,156.256 L413.91754,156.256 L415.13433,156.256 L416.35112,156.256 L417.56791,156.256 L418.7847,156.256 L420.00149,156.256 L421.21828,156.256 L422.43507,156.256 L423.65186,156.256 L424.86865,156.256 L426.08544,156.256 L427.30223,156.256 L428.51902,156.256 L429.73581,156.256 L430.9526,156.256 L432.16939,156.256 L433.38618,156.256 L434.60297,156.256 L435.81976,156.256 L437.03655,156.256 L438.25334,156.256 L439.47013,156.256 L440.68692,156.256 L441.90371,156.256 L443.1205,156.256 L444.33729,156.256 L445.55408,156.256 L446.77087,156.256 L447.98766,156.256 L449.20445,156.256 L450.42124,156.256 L451.63803,156.256 L452.85482,156.256 L454.07161,156.256 L455.2884,156.256 L456.50519,156.256 L457.72198,156.256 L458.93877,156.256 L460.15556,156.256 L461.37235,156.256 L462.58914,156.256 L463.80593,156.256 L465.02272,156.256 L466.23951,156.256 L467.4563,156.256 L468.67309,156.256 L469.88988,156.256 L471.10667,156.256 L472.32346,156.256 L473.54025,156.256 L474.75704,156.256 L475.97383,156.256 L477.19062,156.256 L478.40741,156.256 L479.6242,156.256 L480.84099,156.256 L482.05778,156.256 L483.27457,156.256 L484.49136,156.256 L485.70815,156.256 L486.92494,156.256 L488.14173,156.256 L489.35852,156.256 L490.57531,156.256 L491.7921,156.256 L493.00889,156.256 L494.22568,156.256 L495.44247,156.256 L496.65926,156.256 L497.87605,156.256 L499.09284,156.256 L500.30963,156.256 L501.52642,156.256 L502.74321,156.256 L503.96,156.256 L505.17679,156.256 L506.39358,156.256 L507.61037,156.256 L508.82716,156.256 L510.04395,156.256 L511.26074,156.256 L512.47753,156.256 L513.69432,156.256 L514.91111,156.256 L516.1279,156.256 L517.34469,156.256 L518.56148,156.256 L519.77827,156.256 L520.99506,156.256 L522.21185,156.256 L523.42864,156.256 L524.64543,156.256 L525.86222,156.256 L527.07901,156.256 L528.2958,156.256 L529.51259,156.256 L530.72938,156.256 L531.94617,156.256 L533.16296,156.256 L534.37975,156.256 L535.59654,156.256 L536.81333,156.256 L538.03012,156.256 L539.24691,156.256 L540.4637,156.256 L541.68049,156.256 L542.89728,156.256 L544.11407,156.256 L545.33086,156.256 L546.54765,156.256 L547.76444,156.256 L548.98123,156.256 L550.19802,156.256 L551.41481,156.256 L552.6316,156.256 L553.84839,156.256 L555.06518,156.256 L556.28197,156.256 L557.49876,156.256 L558.71555,156.256 L559.93234,156.256 L561.14913,156.256 L562.36592,156.256 L563.58271,156.256 L564.7995,156.256 L566.01629,156.256 L567.23308,156.256 L568.44987,156.256 L569.66666,156.256 L570.88345,156.256 L572.10024,156.256 L573.31703,156.256 L574.53382,156.256 L575.75061,156.256 L576.9674,156.256 L578.18419,156.256 L579.40098,156.256 L580.61777,156.256 L581.83456,156.256 L583.05135,156.256 L584.26814,156.256 L585.48493,156.256 L586.70172,156.256 L587.91851,156.256 L589.1353,156.256 L590.35209,156.256 L591.56888,156.256 L592.78567,156.256 L594.00246,156.256 L595.21925,156.256 L596.43604,156.256 L597.65283,156.256 L598.86962,156.256 L600.08641,156.256 L601.3032,156.256 L602.51999,156.256 L603.73678,156.256 L604.95357,156.256 L606.17036,156.256 L607.38715,156.256 L608.60394,156.256 L609.82073,156.256 L611.03752,156.256 L612.25431,156.256 L613.4711,156.256 L614.68789,156.256 L615.90468,156.256 L617.12147,156.256 L618.33826,156.256 L619.55505,156.256 L620.77184,156.256 L621.98863,156.256 L623.20542,156.256 L624.42221,156.256 L625.639,156.256 L626.85579,156.256 L628.07258,156.256 L629.28937,156.256 L630.50616,156.256 L631.72295,156.256 L632.93974,156.256 L634.15653,156.256 L635.37332,156.256 L636.59011,156.256 " fill-rule="evenodd" vector-effect="non-scaling-stroke"/>
                                </g>
                            </g>
                        </g>
                    </g>
                </g>
            </g>
        </g>
        <g fill="none" fill-rule="evenodd" id="PlotItem_3" stroke="black" stroke-linecap="square" stroke-linejoin="bevel" stroke-width="1">
            <g fill="none" fill-rule="evenodd" id="AxisItem_2" stroke="black" stroke-linecap="square" stroke-linejoin="bevel" stroke-width="1">
                <g fill="none" font-family="Sans Serif" font-size="11.875" font-style="normal" font-weight="400" stroke="#969696" stroke-linecap="square" stroke-linejoin="bevel" stroke-opacity="1" stroke-width="1">
                    <polyline fill="none" points="45.0,163.667 45.0,237.780566312" vector-effect="non-scaling-stroke"/>
                </g>
                <g fill="none" font-family="Sans Serif" font-size="11.875" font-style="normal" font-weight="400" stroke="#969696" stroke-linecap="square" stroke-linejoin="bevel" stroke-opacity="1" stroke-width="1">
                    <polyline fill="none" points="45.5,200.723833688 50.5,200.723833688" vector-effect="non-scaling-stroke"/>
                </g>
                <g fill="none" font-family="Sans Serif" font-size="11.875" font-style="normal" font-weight="400" stroke="#969696" stroke-linecap="square" stroke-linejoin="bevel" stroke-opacity="0.498039" stroke-width="1">
                    <polyline fill="none" points="45.5,236.355361784 48.8333,236.355361784" vector-effect="non-scaling-stroke"/>
                    <polyline fill="none" points="45.5,165.092265166 48.8333,165.092265166" vector-effect="non-scaling-stroke"/>
                </g>
                <g fill="none" font-family="Sans Serif" font-size="11.875" font-style="normal" font-weight="400" stroke="#969696" stroke-linecap="square" stroke-linejoin="bevel" stroke-opacity="0.333333" stroke-width="1">
                    <polyline fill="none" points="45.5,229.229035952 48.0,229.229035952" vector-effect="non-scaling-stroke"/>
                    <polyline fill="none" points="45.5,222.10271012 48.0,222.10271012" vector-effect="non-scaling-stroke"/>
                    <polyline fill="none" points="45.5,214.976384288 48.0,214.976384288" vector-effect="non-scaling-stroke"/>
                    <polyline fill="none" points="45.5,207.850058456 48.0,207.850058456" vector-effect="non-scaling-stroke"/>
                    <polyline fill="none" points="45.5,193.597507856 48.0,193.597507856" vector-effect="non-scaling-stroke"/>
                    <polyline fill="none" points="45.5,186.471182024 48.0,186.471182024" vector-effect="non-scaling-stroke"/>
                    <polyline fill="none" points="45.5,179.344856192 48.0,179.344856192" vector-effect="non-scaling-stroke"/>
                    <polyline fill="none" points="45.5,172.218570786 48.0,172.218570786" vector-effect="non-scaling-stroke"/>
                </g>
                <g fill="none" font-family="Sans Serif" font-size="11.875" font-style="normal" font-weight="400" stroke="#969696" stroke-linecap="square" stroke-linejoin="bevel" stroke-opacity="1" stroke-width="1" transform="matrix(1,0,0,1.01064,5.5,163.667)">
                    <text fill="#969696" fill-opacity="1" font-family="&quot;Sans Serif&quot;, sans-serif" font-size="11.875" font-style="normal" font-weight="400" stroke="none" x="31" xml:space="preserve" y="40.6562">0</text>
                    <text fill="#969696" fill-opacity="1" font-family="&quot;Sans Serif&quot;, sans-serif" font-size="11.875" font-style="normal" font-weight="400" stroke="none" x="19" xml:space="preserve" y="75.9219">-10</text>
                    <text fill="#969696" fill-opacity="1" font-family="&quot;Sans Serif&quot;, sans-serif" font-size="11.875" font-style="normal" font-weight="400" stroke="none" x="23" xml:space="preserve" y="5.42188">10</text>
                </g>
            </g>
            <g fill="none" fill-rule="evenodd" id="ViewBox_3" stroke="black" stroke-linecap="square" stroke-linejoin="bevel" stroke-width="1">
                <g fill="none" font-family="Sans Serif" font-size="11.875" font-style="normal" font-weight="400" stroke="none">
                    <path d="M45.0,163.667 L661.0,163.667 L661.0,237.0003 L45.0,237.0003 L45.0,163.667 " fill-rule="evenodd" vector-effect="non-scaling-stroke"/>
                </g>
                <clipPath id="ViewBox_3_clip">
                    <path d="M45.0,163.667 L661.0,163.667 L661.0,237.0 L45.0,237.0 L45.0,163.667 " fill-rule="evenodd" vector-effect="non-scaling-stroke"/>
                </clipPath>
                <g clip-path="url(#ViewBox_3_clip)">
                    <g fill="none" fill-rule="evenodd" id="ChildGroup_3" stroke="black" stroke-linecap="square" stroke-linejoin="bevel" stroke-width="1">
                        <g fill="none" fill-rule="evenodd" id="InfiniteLine_2" stroke="black" stroke-linecap="square" stroke-linejoin="bevel" stroke-width="1">
                            <g fill="none" font-family="Sans Serif" font-size="11.875" font-style="normal" font-weight="400" stroke="#e6e6af" stroke-linecap="square" stroke-linejoin="bevel" stroke-opacity="1" stroke-width="1">
                                <polyline fill="none" points="661.00268021,200.333 44.999982536,200.333" vector-effect="non-scaling-stroke"/>
                            </g>
                        </g>
                        <g id="PlotDataItem_3">
                            <g fill="none" fill-rule="evenodd" id="PlotCurveItem_3" stroke="black" stroke-linecap="square" stroke-linejoin="bevel" stroke-width="1">
                                <g fill="none" font-family="Sans Serif" font-size="11.875" font-style="normal" font-weight="400" stroke="#00ff00" stroke-linecap="square" stroke-linejoin="bevel" stroke-opacity="1" stroke-width="1">
                                    <path d="M29.4743,200.31322116 L30.69097,200.436594585 L31.90764,200.368836015 L33.12431,200.302855355 L34.34098,200.469133069 L35.55765,200.476168837 L36.77432,200.368855759 L37.99099,200.375116238 L39.20766,200.3959087 L40.42433,200.302855778 L41.641,200.350205123 L42.85767,200.303384624 L44.07434,200.208192344 L45.29101,200.27532053 L46.50768,200.262240405 L47.72435,200.254907074 L48.94102,200.171737226 L50.15769,200.086381482 L51.37436,200.06201931 L52.59103,200.044038546 L53.8077,199.916022557 L55.02437,199.778311059 L56.24104,199.63139764 L57.45771,199.608763031 L58.67438,199.569522658 L59.89105,199.481910504 L61.10772,199.44316372 L62.32439,199.407272705 L63.54106,199.263285568 L64.75773,199.18149072 L65.9744,199.179022772 L67.19107,199.108615741 L68.40774,198.897429905 L69.62441,198.882022858 L70.84108,198.827586976 L72.05775,198.850045303 L73.27442,198.769096609 L74.49109,198.753266485 L75.70776,198.687971632 L76.92443,198.523042193 L78.1411,198.411067867 L79.35777,198.347289039 L80.57444,198.418119147 L81.79111,198.318555073 L83.00778,198.23309356 L84.22445,198.140087176 L85.44112,198.090164114 L86.65779,198.050112844 L87.87446,197.927173777 L89.09113,197.850138543 L90.3078,197.790414201 L91.52447,197.752443058 L92.74114,197.627987966 L93.95781,197.430693152 L95.17448,197.408516876 L96.39115,197.415991233 L97.60782,197.392510471 L98.82449,197.444161097 L100.04116,197.390183548 L101.25783,197.347911125 L102.4745,197.260087432 L103.69117,197.286882296 L104.90784,197.256949613 L106.12451,197.269395122 L107.34118,197.199728476 L108.55785,197.169866305 L109.77452,197.140674006 L110.99119,197.100058633 L112.20786,197.029898397 L113.42453,196.975004182 L114.6412,196.873042673 L115.85787,196.846741399 L117.07454,196.821145252 L118.29121,196.701273492 L119.50788,196.710545926 L120.72455,196.662385683 L121.94122,196.603013906 L123.15789,196.631924154 L124.37456,196.704481825 L125.59123,196.647260688 L126.8079,196.626318386 L128.02457,196.656110044 L129.24124,196.557991483 L130.45791,196.564267122 L131.67458,196.498654962 L132.89125,196.489488298 L134.10792,196.426661393 L135.32459,196.356042824 L136.54126,196.406424219 L137.75793,196.429904982 L138.9746,196.40808127 L140.19127,196.364715898 L141.40794,196.530738286 L142.62461,196.546497896 L143.84128,196.498302398 L145.05795,196.463539587 L146.27462,196.486703042 L147.49129,196.536731874 L148.70796,196.49534086 L149.92463,196.476267148 L151.1413,196.547132512 L152.35797,196.52040816 L153.57464,196.551821613 L154.79131,196.566276737 L156.00798,196.604353649 L157.22465,196.669895296 L158.44132,196.555206227 L159.65799,196.568215839 L160.87466,196.562292764 L162.09133,196.513885726 L163.308,196.579427374 L164.52467,196.606574802 L165.74134,196.60992416 L166.95801,196.501404961 L168.17468,196.538388924 L169.39135,196.483847274 L170.60802,196.508279959 L171.82469,196.422430625 L173.04136,196.469638944 L174.25803,196.439882543 L175.4747,196.458920999 L176.69137,196.437238313 L177.90804,196.401135759 L179.12471,196.386257558 L180.34138,196.321949885 L181.55805,196.33051719 L182.77472,196.356853721 L183.99139,196.407305629 L185.20806,196.317507578 L186.42473,196.269100541 L187.6414,196.27890182 L188.85807,196.350155005 L190.07474,196.408328065 L191.29141,196.446510746 L192.50808,196.46537292 L193.72475,196.481943428 L194.94142,196.478735096 L196.15809,196.459731896 L197.37476,196.433465878 L198.59143,196.534863284 L199.8081,196.615988261 L201.02477,196.666616451 L202.24144,196.642395304 L203.45811,196.554959432 L204.67478,196.647225431 L205.89145,196.589792756 L207.10812,196.580273528 L208.32479,196.582670963 L209.54146,196.560635713 L210.75813,196.724930537 L211.9748,196.787722185 L213.19147,196.840783067 L214.40814,196.789978595 L215.62481,196.812190127 L216.84148,196.828795891 L218.05815,196.786452955 L219.27482,196.748093992 L220.49149,196.757295912 L221.70816,196.785994622 L222.92483,196.787369621 L224.1415,196.760962578 L225.35817,196.718654898 L226.57484,196.808911282 L227.79151,196.856295883 L229.00818,196.763536295 L230.22485,196.816033074 L231.44152,196.883584337 L232.65819,196.793468978 L233.87486,196.771045908 L235.09153,196.763818346 L236.3082,196.685936958 L237.52487,196.592472242 L238.74154,196.589369679 L239.95821,196.504930601 L241.17488,196.540962642 L242.39155,196.481943428 L243.60822,196.608126084 L244.82489,196.507574831 L246.04156,196.572552376 L247.25823,196.591344037 L248.4749,196.49710368 L249.69157,196.484552402 L250.90824,196.396164607 L252.12491,196.448590874 L253.34158,196.526331236 L254.55825,196.5354979 L255.77492,196.518504315 L256.99159,196.495975475 L258.20826,196.538988283 L259.42493,196.527882517 L260.6416,196.500382525 L261.85827,196.475244712 L263.07494,196.425180624 L264.29161,196.492943425 L265.50828,196.503626114 L266.72495,196.465126125 L267.94162,196.413616525 L269.15829,196.429693443 L270.37496,196.348039621 L271.59163,196.198905049 L272.8083,196.176623004 L274.02497,196.211103763 L275.24164,196.210786456 L276.45831,196.159065317 L277.67498,196.179126208 L278.89165,196.27498836 L280.10832,196.208706328 L281.32499,196.185860181 L282.54166,196.147959551 L283.75833,196.158924291 L284.975,196.21808453 L286.19167,196.225382605 L287.40834,196.219882607 L288.62501,196.251789649 L289.84168,196.236981961 L291.05835,196.172815313 L292.27502,196.250097342 L293.49169,196.265539645 L294.70836,196.247594137 L295.92503,196.233033244 L297.1417,196.18067749 L298.35837,196.25824157 L299.57504,196.348921031 L300.79171,196.23493709 L302.00838,196.202783253 L303.22505,196.247135804 L304.44172,196.19340505 L305.65839,196.267725542 L306.87506,196.247100548 L308.09173,196.299597327 L309.3084,196.223126196 L310.52507,196.207754405 L311.74174,196.229683886 L312.95841,196.215616582 L314.17508,196.167421084 L315.39175,196.187481975 L316.60842,196.171616595 L317.82509,196.229613373 L319.04176,196.154658267 L320.25843,196.083087775 L321.4751,196.137770451 L322.69177,196.201302484 L323.90844,196.270933874 L325.12511,196.347369749 L326.34178,196.246642214 L327.55845,196.24502042 L328.77512,196.178209542 L329.99179,196.241847344 L331.20846,196.298504379 L332.42513,196.249215932 L333.6418,196.187023642 L334.85847,196.290078099 L336.07514,196.19262941 L337.29181,196.198411459 L338.50848,196.360203079 L339.72515,196.320539629 L340.94182,196.356888977 L342.15849,196.345818468 L343.37516,196.39182807 L344.59183,196.374869741 L345.8085,196.420879343 L347.02517,196.454937026 L348.24184,196.449437027 L349.45851,196.470978688 L350.67518,196.443090875 L351.89185,196.486844068 L353.10852,196.541244693 L354.32519,196.564690199 L355.54186,196.565219045 L356.75853,196.683151703 L357.9752,196.60678634 L359.19187,196.662385683 L360.40854,196.669789527 L361.62521,196.743158096 L362.84188,196.79364526 L364.05855,196.839408068 L365.27522,196.864898445 L366.49189,196.931497784 L367.70856,196.906218946 L368.92523,196.863734984 L370.1419,196.819593971 L371.35857,196.792728594 L372.57524,196.83644653 L373.79191,196.811555512 L375.00858,196.779718982 L376.22525,196.815151664 L377.44192,196.733392073 L378.65859,196.69855875 L379.87526,196.62716454 L381.09193,196.577629298 L382.3086,196.448696643 L383.52527,196.357770387 L384.74194,196.348991544 L385.95861,196.364610129 L387.17528,196.385446661 L388.39195,196.205956329 L389.60862,196.130789684 L390.82529,196.153494806 L392.04196,196.171123006 L393.25863,196.138193528 L394.4753,196.205427483 L395.69197,196.197283254 L396.90864,196.057985218 L398.12531,195.969773705 L399.34198,195.875286553 L400.55865,195.801036575 L401.77532,195.76602697 L402.99199,195.615482142 L404.20866,195.664347512 L405.42533,195.616222526 L406.642,195.562668054 L407.85867,195.45566488 L409.07534,195.370203367 L410.29201,195.339248248 L411.50868,195.226145716 L412.72535,195.113995108 L413.94202,195.066046404 L415.15869,195.12827395 L416.37536,195.075812427 L417.59203,195.032094491 L418.8087,194.940991953 L420.02537,194.995745142 L421.24204,194.899777222 L422.45871,194.764921492 L423.67538,194.733437526 L424.89205,194.690177924 L426.10872,194.662290111 L427.32539,194.59276449 L428.54206,194.572280522 L429.75873,194.576335008 L430.9754,194.487947213 L432.19207,194.490873494 L433.40874,194.522322203 L434.62541,194.477828626 L435.84208,194.460411965 L437.05875,194.341985717 L438.27542,194.231703698 L439.49209,194.02034158 L440.70876,193.961569161 L441.92543,193.843213426 L443.1421,193.692386547 L444.35877,193.463854562 L445.57544,193.404271246 L446.79211,193.321806527 L448.00878,193.299912302 L449.22545,193.109774537 L450.44212,192.97548291 L451.65879,192.792396424 L452.87546,192.528890091 L454.09213,192.421992686 L455.3088,192.252515171 L456.52547,192.118435082 L457.74214,192.026310109 L458.95881,191.872310154 L460.17548,191.754201214 L461.39215,191.5731596 L462.60882,191.356826329 L463.82549,191.410768621 L465.04216,191.339691719 L466.25883,191.247778284 L467.4755,191.304505832 L468.69217,191.254477 L469.90884,191.242983414 L471.12551,191.150611646 L472.34218,191.123746269 L473.55885,191.179803945 L474.77552,191.149483441 L475.99219,191.193800736 L477.20886,191.2178456 L478.42553,191.384855167 L479.6422,191.453569891 L480.85887,191.475534628 L482.07554,191.622589072 L483.29221,191.726101863 L484.50888,191.785508897 L485.72555,191.863954387 L486.94222,191.873826179 L488.15889,191.962460768 L489.37556,192.107540854 L490.59223,192.190604933 L491.8089,192.248566454 L493.02557,192.359835653 L494.24224,192.459611265 L495.45891,192.534848422 L496.67558,192.608745837 L497.89225,192.718675292 L499.10892,192.861393199 L500.32559,192.912620748 L501.54226,193.025688023 L502.75893,193.175351441 L503.9756,193.282072564 L505.19227,193.431594956 L506.40894,193.640524383 L507.62561,193.764485885 L508.84228,193.888905721 L510.05895,193.964495442 L511.27562,194.060357594 L512.49229,194.246899206 L513.70896,194.332254951 L514.92563,194.484879906 L516.1423,194.545062581 L517.35897,194.611415126 L518.57564,194.685982412 L519.79231,194.809556094 L521.00898,194.8858862 L522.22565,194.889658635 L523.44232,195.113254724 L524.65899,195.152389328 L525.87566,195.315273896 L527.09233,195.439587962 L528.309,195.415261046 L529.52567,195.522581528 L530.74234,195.60687958 L531.95901,195.731264159 L533.17568,195.760103894 L534.39235,195.923658334 L535.60902,196.067187138 L536.82569,196.079491622 L538.04236,196.058619833 L539.25903,196.207437098 L540.4757,196.334818471 L541.69237,196.466888945 L542.90904,196.636013896 L544.12571,196.762619628 L545.34238,196.88756831 L546.55905,196.839760632 L547.77572,196.998097124 L548.99239,197.14444644 L550.20906,197.282334221 L551.42573,197.480721984 L552.6424,197.560824524 L553.85907,197.768837284 L555.07574,197.843369314 L556.29241,197.993103245 L557.50908,197.974769917 L558.72575,198.1118468 L559.94242,198.126372437 L561.15909,198.258407655 L562.37576,198.263625602 L563.59243,198.325500584 L564.8091,198.473260156 L566.02577,198.60279217 L567.24244,198.694635092 L568.45911,198.74067995 L569.67578,198.868131836 L570.89245,198.913013234 L572.10912,198.873702348 L573.32579,199.006125386 L574.54246,199.063699087 L575.75913,199.163968289 L576.9758,199.236455447 L578.19247,199.329920164 L579.40914,199.41280796 L580.62581,199.488256656 L581.84248,199.439497055 L583.05915,199.472920122 L584.27582,199.414993857 L585.49249,199.397682964 L586.70916,199.424830392 L587.92583,199.457618844 L589.1425,199.541846384 L590.35917,199.531128438 L591.57584,199.671237372 L592.79251,199.63404187 L594.00918,199.684705317 L595.22585,199.72658992 L596.44252,199.75881427 L597.65919,199.892718077 L598.87586,199.874208467 L600.09253,199.823016174 L601.3092,199.868144366 L602.52587,199.825907199 L603.74254,199.955721264 L604.95921,199.92578858 L606.17588,199.923038581 L607.39255,199.917785377 L608.60922,199.959211647 L609.82589,200.099003273 L611.04256,200.219615418 L612.25923,200.23780772 L613.4759,200.24789105 L614.69257,200.200118628 L615.90924,200.231567337 L617.12591,200.141064158 L618.34258,200.15280454 L619.55925,200.289564115 L620.77592,200.292772448 L621.99259,200.299717958 L623.20926,200.342836536 L624.42593,200.349217944 L625.6426,200.353554481 L626.85927,200.282865399 L628.07594,200.285826937 L629.29261,200.326266028 L630.50928,200.433198689 L631.72595,200.524019175 L632.94262,200.516439049 L634.15929,200.543233913 L635.37596,200.603310819 L636.59263,200.585717875 " fill-rule="evenodd" vector-effect="non-scaling-stroke"/>
                                </g>
                            </g>
                        </g>
                    </g>
                </g>
            </g>
        </g>
        <g fill="none" fill-rule="evenodd" id="PlotItem_4" stroke="black" stroke-linecap="square" stroke-linejoin="bevel" stroke-width="1">
            <g fill="none" fill-rule="evenodd" id="ViewBox_4" stroke="black" stroke-linecap="square" stroke-linejoin="bevel" stroke-width="1">
                <g fill="none" font-family="Sans Serif" font-size="11.875" font-style="normal" font-weight="400" stroke="none">
                    <path d="M5.0,243.0 L661.0,243.0 L661.0,316.3333 L5.0,316.3333 L5.0,243.0 " fill-rule="evenodd" vector-effect="non-scaling-stroke"/>
                </g>
                <clipPath id="ViewBox_4_clip">
                    <path d="M5.0,243.0 L661.0,243.0 L661.0,316.333 L5.0,316.333 L5.0,243.0 " fill-rule="evenodd" vector-effect="non-scaling-stroke"/>
                </clipPath>
                <g clip-path="url(#ViewBox_4_clip)">
                    <g fill="none" fill-rule="evenodd" id="ChildGroup_4" stroke="black" stroke-linecap="square" stroke-linejoin="bevel" stroke-width="1">
                        <g id="PlotDataItem_4">
                            <g fill="none" fill-rule="evenodd" id="PlotCurveItem_4" stroke="black" stroke-linecap="square" stroke-linejoin="bevel" stroke-width="1">
                                <g fill="none" font-family="Sans Serif" font-size="11.875" font-style="normal" font-weight="400" stroke="#005500" stroke-linecap="square" stroke-linejoin="bevel" stroke-opacity="1" stroke-width="1">
                                    <path d="M29.4119,314.923 L30.62869,314.923 L31.84548,314.923 L33.06227,314.923 L34.27906,314.923 L35.49585,314.923 L36.71264,314.923 L37.92943,314.923 L39.14622,314.923 L40.36301,314.923 L41.5798,314.923 L42.79659,314.923 L44.01338,314.923 L45.23017,314.923 L46.44696,314.923 L47.66375,314.923 L48.88054,314.923 L50.09733,314.923 L51.31412,314.923 L52.53091,314.923 L53.7477,314.923 L54.96449,314.923 L56.18128,314.923 L57.39807,314.923 L58.61486,314.923 L59.83165,314.923 L61.04844,314.923 L62.26523,314.923 L63.48202,314.923 L64.69881,314.923 L65.9156,314.923 L67.13239,314.923 L68.34918,314.923 L69.56597,314.923 L70.78276,314.923 L71.99955,314.923 L73.21634,314.923 L74.43313,314.923 L75.64992,314.923 L76.86671,314.923 L78.0835,314.923 L79.30029,314.923 L80.51708,314.923 L81.73387,314.923 L82.95066,314.923 L84.16745,314.923 L85.38424,314.923 L86.60103,314.923 L87.81782,314.923 L89.03461,314.923 L90.2514,314.923 L91.46819,314.923 L92.68498,314.923 L93.90177,314.923 L95.11856,314.923 L96.33535,314.923 L97.55214,314.923 L98.76893,314.923 L99.98572,314.923 L101.20251,314.923 L102.4193,314.923 L103.63609,314.923 L104.85288,314.923 L106.06967,314.923 L107.28646,314.923 L108.50325,314.923 L109.72004,314.923 L110.93683,314.923 L112.15362,314.923 L113.37041,314.923 L114.5872,314.923 L115.80399,314.923 L117.02078,314.923 L118.23757,314.923 L119.45436,314.923 L120.67115,314.923 L121.88794,314.923 L123.10473,314.923 L124.32152,314.923 L125.53831,314.923 L126.7551,314.923 L127.97189,314.923 L129.18868,314.923 L130.40547,314.923 L131.62226,314.923 L132.83905,314.923 L134.05584,314.923 L135.27263,314.923 L136.48942,314.923 L137.70621,314.923 L138.923,314.923 L140.13979,314.923 L141.35658,314.923 L142.57337,314.923 L143.79016,314.923 L145.00695,314.923 L146.22374,314.923 L147.44053,314.923 L148.65732,314.923 L149.87411,314.923 L151.0909,314.923 L152.30769,314.923 L153.52448,314.923 L154.74127,314.923 L155.95806,314.923 L157.17485,314.923 L158.39164,314.923 L159.60843,314.923 L160.82522,314.923 L162.04201,314.923 L163.2588,314.923 L164.47559,314.923 L165.69238,314.923 L166.90917,314.923 L168.12596,314.923 L169.34275,314.923 L170.55954,314.923 L171.77633,314.923 L172.99312,314.923 L174.20991,314.923 L175.4267,314.923 L176.64349,314.923 L177.86028,314.923 L179.07707,314.923 L180.29386,314.923 L181.51065,314.923 L182.72744,314.923 L183.94423,314.923 L185.16102,314.923 L186.37781,314.923 L187.5946,314.923 L188.81139,314.923 L190.02818,314.923 L191.24497,314.923 L192.46176,314.923 L193.67855,314.923 L194.89534,314.923 L196.11213,314.923 L197.32892,314.923 L198.54571,314.923 L199.7625,314.923 L200.97929,314.923 L202.19608,314.923 L203.41287,314.923 L204.62966,314.923 L205.84645,314.923 L207.06324,314.923 L208.28003,314.923 L209.49682,314.923 L210.71361,314.923 L211.9304,314.923 L213.14719,314.923 L214.36398,314.923 L215.58077,314.923 L216.79756,314.923 L218.01435,314.923 L219.23114,314.923 L220.44793,314.923 L221.66472,314.923 L222.88151,314.923 L224.0983,314.923 L225.31509,314.923 L226.53188,314.923 L227.74867,314.923 L228.96546,314.923 L230.18225,314.923 L231.39904,314.923 L232.61583,314.923 L233.83262,314.923 L235.04941,314.923 L236.2662,314.923 L237.48299,314.923 L238.69978,314.923 L239.91657,314.923 L241.13336,314.923 L242.35015,314.923 L243.56694,314.923 L244.78373,314.923 L246.00052,314.923 L247.21731,314.923 L248.4341,314.923 L249.65089,314.923 L250.86768,314.923 L252.08447,314.923 L253.30126,314.923 L254.51805,314.923 L255.73484,314.923 L256.95163,314.923 L258.16842,314.923 L259.38521,314.923 L260.602,314.923 L261.81879,314.923 L263.03558,314.923 L264.25237,314.923 L265.46916,314.923 L266.68595,314.923 L267.90274,314.923 L269.11953,314.923 L270.33632,314.923 L271.55311,314.923 L272.7699,314.923 L273.98669,314.923 L275.20348,314.923 L276.42027,314.923 L277.63706,314.923 L278.85385,314.923 L280.07064,314.923 L281.28743,314.923 L282.50422,314.923 L283.72101,314.923 L284.9378,314.923 L286.15459,314.923 L287.37138,314.923 L288.58817,314.923 L289.80496,314.923 L291.02175,314.923 L292.23854,314.923 L293.45533,314.923 L294.67212,314.923 L295.88891,314.923 L297.1057,314.923 L298.32249,314.923 L299.53928,314.923 L300.75607,314.923 L301.97286,314.923 L303.18965,314.923 L304.40644,314.923 L305.62323,314.923 L306.84002,314.923 L308.05681,314.923 L309.2736,314.923 L310.49039,314.923 L311.70718,314.923 L312.92397,314.923 L314.14076,314.923 L315.35755,314.923 L316.57434,314.923 L317.79113,314.923 L319.00792,314.923 L320.22471,314.923 L321.4415,314.923 L322.65829,314.923 L323.87508,314.923 L325.09187,314.923 L326.30866,314.923 L327.52545,314.923 L328.74224,314.923 L329.95903,314.923 L331.17582,314.923 L332.39261,314.923 L333.6094,314.923 L334.82619,314.923 L336.04298,314.923 L337.25977,314.923 L338.47656,314.923 L339.69335,314.923 L340.91014,314.923 L342.12693,314.923 L343.34372,314.923 L344.56051,314.923 L345.7773,314.923 L346.99409,314.923 L348.21088,314.923 L349.42767,314.923 L350.64446,314.923 L351.86125,314.923 L353.07804,314.923 L354.29483,314.923 L355.51162,314.923 L356.72841,314.923 L357.9452,314.923 L359.16199,314.923 L360.37878,314.923 L361.59557,314.923 L362.81236,314.923 L364.02915,314.923 L365.24594,314.923 L366.46273,314.923 L367.67952,314.923 L368.89631,314.923 L370.1131,314.923 L371.32989,314.923 L372.54668,314.923 L373.76347,314.923 L374.98026,314.923 L376.19705,314.923 L377.41384,314.923 L378.63063,314.923 L379.84742,314.923 L381.06421,314.923 L382.281,314.923 L383.49779,314.923 L384.71458,314.923 L385.93137,314.923 L387.14816,314.923 L388.36495,314.923 L389.58174,314.923 L390.79853,314.923 L392.01532,314.923 L393.23211,314.923 L394.4489,314.923 L395.66569,314.923 L396.88248,314.923 L398.09927,314.923 L399.31606,314.923 L400.53285,314.923 L401.74964,314.923 L402.96643,314.923 L404.18322,314.923 L405.40001,314.923 L406.6168,314.923 L407.83359,314.923 L409.05038,314.923 L410.26717,314.923 L411.48396,314.923 L412.70075,314.923 L413.91754,314.923 L415.13433,314.923 L416.35112,314.923 L417.56791,314.923 L418.7847,314.923 L420.00149,314.923 L421.21828,314.923 L422.43507,314.923 L423.65186,314.923 L424.86865,314.923 L426.08544,314.923 L427.30223,314.923 L428.51902,314.923 L429.73581,314.923 L430.9526,314.923 L432.16939,314.923 L433.38618,314.923 L434.60297,314.923 L435.81976,314.923 L437.03655,314.923 L438.25334,314.923 L439.47013,314.923 L440.68692,314.923 L441.90371,314.923 L443.1205,314.923 L444.33729,314.923 L445.55408,314.923 L446.77087,314.923 L447.98766,314.923 L449.20445,314.923 L450.42124,314.923 L451.63803,314.923 L452.85482,314.923 L454.07161,314.923 L455.2884,314.923 L456.50519,314.923 L457.72198,314.923 L458.93877,314.923 L460.15556,314.923 L461.37235,314.923 L462.58914,314.923 L463.80593,314.923 L465.02272,314.923 L466.23951,314.923 L467.4563,314.923 L468.67309,314.923 L469.88988,314.923 L471.10667,314.923 L472.32346,314.923 L473.54025,314.923 L474.75704,314.923 L475.97383,314.923 L477.19062,314.923 L478.40741,314.923 L479.6242,314.923 L480.84099,314.923 L482.05778,314.923 L483.27457,314.923 L484.49136,314.923 L485.70815,314.923 L486.92494,314.923 L488.14173,314.923 L489.35852,314.923 L490.57531,314.923 L491.7921,314.923 L493.00889,314.923 L494.22568,314.923 L495.44247,314.923 L496.65926,314.923 L497.87605,314.923 L499.09284,314.923 L500.30963,314.923 L501.52642,314.923 L502.74321,314.923 L503.96,314.923 L505.17679,314.923 L506.39358,314.923 L507.61037,314.923 L508.82716,314.923 L510.04395,314.923 L511.26074,314.923 L512.47753,314.923 L513.69432,314.923 L514.91111,314.923 L516.1279,314.923 L517.34469,314.923 L518.56148,314.923 L519.77827,314.923 L520.99506,314.923 L522.21185,314.923 L523.42864,314.923 L524.64543,314.923 L525.86222,314.923 L527.07901,314.923 L528.2958,314.923 L529.51259,314.923 L530.72938,314.923 L531.94617,314.923 L533.16296,314.923 L534.37975,314.923 L535.59654,314.923 L536.81333,314.923 L538.03012,314.923 L539.24691,314.923 L540.4637,314.923 L541.68049,314.923 L542.89728,314.923 L544.11407,314.923 L545.33086,314.923 L546.54765,314.923 L547.76444,314.923 L548.98123,314.923 L550.19802,314.923 L551.41481,314.923 L552.6316,314.923 L553.84839,314.923 L555.06518,314.923 L556.28197,314.923 L557.49876,314.923 L558.71555,314.923 L559.93234,314.923 L561.14913,314.923 L562.36592,314.923 L563.58271,314.923 L564.7995,314.923 L566.01629,314.923 L567.23308,314.923 L568.44987,314.923 L569.66666,314.923 L570.88345,314.923 L572.10024,314.923 L573.31703,314.923 L574.53382,314.923 L575.75061,314.923 L576.9674,314.923 L578.18419,314.923 L579.40098,314.923 L580.61777,314.923 L581.83456,314.923 L583.05135,314.923 L584.26814,314.923 L585.48493,314.923 L586.70172,314.923 L587.91851,314.923 L589.1353,314.923 L590.35209,314.923 L591.56888,314.923 L592.78567,314.923 L594.00246,314.923 L595.21925,314.923 L596.43604,314.923 L597.65283,314.923 L598.86962,314.923 L600.08641,314.923 L601.3032,314.923 L602.51999,314.923 L603.73678,314.923 L604.95357,314.923 L606.17036,314.923 L607.38715,314.923 L608.60394,314.923 L609.82073,314.923 L611.03752,314.923 L612.25431,314.923 L613.4711,314.923 L614.68789,314.923 L615.90468,314.923 L617.12147,314.923 L618.33826,314.923 L619.55505,314.923 L620.77184,314.923 L621.98863,314.923 L623.20542,314.923 L624.42221,314.923 L625.639,314.923 L626.85579,314.923 L628.07258,314.923 L629.28937,314.923 L630.50616,314.923 L631.72295,314.923 L632.93974,314.923 L634.15653,314.923 L635.37332,314.923 L636.59011,314.923 " fill-rule="evenodd" vector-effect="non-scaling-stroke"/>
                                </g>
                            </g>
                        </g>
                    </g>
                </g>
            </g>
        </g>
        <g fill="none" fill-rule="evenodd" id="PlotItem_5" stroke="black" stroke-linecap="square" stroke-linejoin="bevel" stroke-width="1">
            <g fill="none" fill-rule="evenodd" id="AxisItem_3" stroke="black" stroke-linecap="square" stroke-linejoin="bevel" stroke-width="1">
                <g fill="none" font-family="Sans Serif" font-size="11.875" font-style="normal" font-weight="400" stroke="#969696" stroke-linecap="square" stroke-linejoin="bevel" stroke-opacity="1" stroke-width="1">
                    <polyline fill="none" points="45.0,322.333 45.0,396.446566312" vector-effect="non-scaling-stroke"/>
                </g>
                <g fill="none" font-family="Sans Serif" font-size="11.875" font-style="normal" font-weight="400" stroke="#969696" stroke-linecap="square" stroke-linejoin="bevel" stroke-opacity="1" stroke-width="1">
                    <polyline fill="none" points="45.5,359.389833688 50.5,359.389833688" vector-effect="non-scaling-stroke"/>
                </g>
                <g fill="none" font-family="Sans Serif" font-size="11.875" font-style="normal" font-weight="400" stroke="#969696" stroke-linecap="square" stroke-linejoin="bevel" stroke-opacity="0.498039" stroke-width="1">
                    <polyline fill="none" points="45.5,395.021361784 48.8333,395.021361784" vector-effect="non-scaling-stroke"/>
                    <polyline fill="none" points="45.5,323.758265166 48.8333,323.758265166" vector-effect="non-scaling-stroke"/>
                </g>
                <g fill="none" font-family="Sans Serif" font-size="11.875" font-style="normal" font-weight="400" stroke="#969696" stroke-linecap="square" stroke-linejoin="bevel" stroke-opacity="0.333333" stroke-width="1">
                    <polyline fill="none" points="45.5,387.895035952 48.0,387.895035952" vector-effect="non-scaling-stroke"/>
                    <polyline fill="none" points="45.5,380.76871012 48.0,380.76871012" vector-effect="non-scaling-stroke"/>
                    <polyline fill="none" points="45.5,373.642384288 48.0,373.642384288" vector-effect="non-scaling-stroke"/>
                    <polyline fill="none" points="45.5,366.516058456 48.0,366.516058456" vector-effect="non-scaling-stroke"/>
                    <polyline fill="none" points="45.5,352.263507856 48.0,352.263507856" vector-effect="non-scaling-stroke"/>
                    <polyline fill="none" points="45.5,345.137182024 48.0,345.137182024" vector-effect="non-scaling-stroke"/>
                    <polyline fill="none" points="45.5,338.010856192 48.0,338.010856192" vector-effect="non-scaling-stroke"/>
                    <polyline fill="none" points="45.5,330.884570786 48.0,330.884570786" vector-effect="non-scaling-stroke"/>
                </g>
                <g fill="none" font-family="Sans Serif" font-size="11.875" font-style="normal" font-weight="400" stroke="#969696" stroke-linecap="square" stroke-linejoin="bevel" stroke-opacity="1" stroke-width="1" transform="matrix(1,0,0,1.01064,5.5,322.333)">
                    <text fill="#969696" fill-opacity="1" font-family="&quot;Sans Serif&quot;, sans-serif" font-size="11.875" font-style="normal" font-weight="400" stroke="none" x="31" xml:space="preserve" y="40.6562">0</text>
                    <text fill="#969696" fill-opacity="1" font-family="&quot;Sans Serif&quot;, sans-serif" font-size="11.875" font-style="normal" font-weight="400" stroke="none" x="19" xml:space="preserve" y="75.9219">-10</text>
                    <text fill="#969696" fill-opacity="1" font-family="&quot;Sans Serif&quot;, sans-serif" font-size="11.875" font-style="normal" font-weight="400" stroke="none" x="23" xml:space="preserve" y="5.42188">10</text>
                </g>
            </g>
            <g fill="none" fill-rule="evenodd" id="ViewBox_5" stroke="black" stroke-linecap="square" stroke-linejoin="bevel" stroke-width="1">
                <g fill="none" font-family="Sans Serif" font-size="11.875" font-style="normal" font-weight="400" stroke="none">
                    <path d="M45.0,322.333 L661.0,322.333 L661.0,395.6663 L45.0,395.6663 L45.0,322.333 " fill-rule="evenodd" vector-effect="non-scaling-stroke"/>
                </g>
                <clipPath id="ViewBox_5_clip">
                    <path d="M45.0,322.333 L661.0,322.333 L661.0,395.667 L45.0,395.667 L45.0,322.333 " fill-rule="evenodd" vector-effect="non-scaling-stroke"/>
                </clipPath>
                <g clip-path="url(#ViewBox_5_clip)">
                    <g fill="none" fill-rule="evenodd" id="ChildGroup_5" stroke="black" stroke-linecap="square" stroke-linejoin="bevel" stroke-width="1">
                        <g fill="none" fill-rule="evenodd" id="InfiniteLine_3" stroke="black" stroke-linecap="square" stroke-linejoin="bevel" stroke-width="1">
                            <g fill="none" font-family="Sans Serif" font-size="11.875" font-style="normal" font-weight="400" stroke="#e6e6af" stroke-linecap="square" stroke-linejoin="bevel" stroke-opacity="1" stroke-width="1">
                                <polyline fill="none" points="661.00268021,359.0 44.999982536,359.0" vector-effect="non-scaling-stroke"/>
                            </g>
                        </g>
                        <g id="PlotDataItem_5">
                            <g fill="none" fill-rule="evenodd" id="PlotCurveItem_5" stroke="black" stroke-linecap="square" stroke-linejoin="bevel" stroke-width="1">
                                <g fill="none" font-family="Sans Serif" font-size="11.875" font-style="normal" font-weight="400" stroke="#0000ff" stroke-linecap="square" stroke-linejoin="bevel" stroke-opacity="1" stroke-width="1">
                                    <path d="M29.4743,351.5608996 L30.69097,352.477566 L31.90764,351.243592 L33.12431,351.8076944 L34.34098,352.5833352 L35.55765,351.5256432 L36.77432,349.7275668 L37.99099,352.7596172 L39.20766,352.3717968 L40.42433,350.7500024 L41.641,351.8782072 L42.85767,351.701960456 L44.07434,351.243592 L45.29101,351.9839764 L46.50768,352.0192328 L47.72435,352.4070532 L48.94102,351.2788484 L50.15769,350.2916692 L51.37436,350.6794896 L52.59103,350.6794896 L53.8077,350.891063256 L55.02437,351.772473256 L56.24104,350.6442332 L57.45771,350.714746 L58.67438,351.06731 L59.89105,351.1730792 L61.10772,349.7275668 L62.32439,351.9839764 L63.54106,351.6314124 L64.75773,351.3846176 L65.9744,349.7980796 L67.19107,350.9262844 L68.40774,353.4647452 L69.62441,349.1987208 L70.84108,353.2884632 L72.05775,351.3493612 L73.27442,349.0929516 L74.49109,354.2756424 L75.70776,352.5480788 L76.92443,352.1955148 L78.1411,352.83013 L79.35777,348.951926 L80.57444,352.0897456 L81.79111,352.9006428 L83.00778,354.8750012 L84.22445,348.8814132 L85.44112,349.1987208 L86.65779,350.538464 L87.87446,351.772473256 L89.09113,351.419874 L90.3078,350.4679512 L91.52447,350.4326948 L92.74114,351.596156 L93.95781,352.7596172 L95.17448,352.5480788 L96.39115,349.833336 L97.60782,350.6089768 L98.82449,351.4551304 L100.04116,351.6666688 L101.25783,352.4423096 L102.4745,350.2564128 L103.69117,351.1025664 L104.90784,350.8557716 L106.12451,352.125002 L107.34118,353.8173092 L108.55785,352.83013 L109.77452,353.1474376 L110.99119,352.477566 L112.20786,351.2788484 L113.42453,350.1859 L114.6412,349.6923104 L115.85787,352.477566 L117.07454,351.4551304 L118.29121,351.4551304 L119.50788,351.1730792 L120.72455,349.657054 L121.94122,348.7403876 L123.15789,351.3141048 L124.37456,351.3846176 L125.59123,352.5128224 L126.8079,350.5737204 L128.02457,350.820550456 L129.24124,353.4647452 L130.45791,352.5480788 L131.67458,350.3974384 L132.89125,351.2083356 L134.10792,350.150678856 L135.32459,352.4070532 L136.54126,351.4551304 L137.75793,353.1121812 L138.9746,351.9839764 L140.19127,350.6442332 L141.40794,352.7948736 L142.62461,351.3846176 L143.84128,351.94872 L145.05795,351.9839764 L146.27462,350.6442332 L147.49129,351.1025664 L148.70796,352.5480788 L149.92463,349.939140456 L151.1413,351.6666688 L152.35797,350.362182 L153.57464,351.5608996 L154.79131,352.4423096 L156.00798,347.8589776 L157.22465,349.7275668 L158.44132,351.9839764 L159.65799,353.358976 L160.87466,350.7852588 L162.09133,351.2083356 L163.308,350.4679512 L164.52467,349.6923104 L165.74134,352.2307712 L166.95801,350.009653256 L168.17468,350.4326948 L169.39135,352.0897456 L170.60802,353.6410272 L171.82469,353.535258 L173.04136,354.2051296 L174.25803,351.7371816 L175.4747,353.0416684 L176.69137,350.2211564 L177.90804,354.1698732 L179.12471,350.009653256 L180.34138,351.4551304 L181.55805,350.6794896 L182.77472,352.5480788 L183.99139,352.9006428 L185.20806,352.0897456 L186.42473,353.9583348 L187.6414,351.596156 L188.85807,350.7500024 L190.07474,351.7371816 L191.29141,348.6698748 L192.50808,350.4326948 L193.72475,352.653848 L194.94142,351.6314124 L196.15809,352.125002 L197.37476,352.0897456 L198.59143,353.182694 L199.8081,348.4935928 L201.02477,352.7596172 L202.24144,351.06731 L203.45811,352.125002 L204.67478,351.1378228 L205.89145,350.6794896 L207.10812,350.8557716 L208.32479,351.06731 L209.54146,351.8076944 L210.75813,350.2916692 L211.9748,352.1602584 L213.19147,354.1698732 L214.40814,351.3846176 L215.62481,349.9743616 L216.84148,350.9262844 L218.05815,352.0544892 L219.27482,350.4679512 L220.49149,354.1346168 L221.70816,353.1121812 L222.92483,352.7596172 L224.1415,351.842986056 L225.35817,352.3717968 L226.57484,351.3493612 L227.79151,350.891063256 L229.00818,352.3365404 L230.22485,349.480772 L231.44152,352.2307712 L232.65819,352.7243608 L233.87486,352.6185916 L235.09153,349.5512848 L236.3082,351.1025664 L237.52487,353.0769248 L238.74154,348.6698748 L239.95821,351.6666688 L241.17488,352.8653864 L242.39155,350.891063256 L243.60822,351.701960456 L244.82489,353.6410272 L246.04156,354.0288476 L247.25823,353.0416684 L248.4749,350.3269256 L249.69157,351.596156 L250.90824,350.1859 L252.12491,353.9230784 L253.34158,349.9743616 L254.55825,352.9711556 L255.77492,353.9583348 L256.99159,352.0544892 L258.20826,351.94872 L259.42493,354.980805656 L260.6416,351.842986056 L261.85827,351.2788484 L263.07494,350.9967972 L264.29161,353.358976 L265.50828,352.9006428 L266.72495,352.0897456 L267.94162,350.714746 L269.15829,350.891063256 L270.37496,352.6185916 L271.59163,350.9262844 L272.8083,353.1121812 L274.02497,352.9711556 L275.24164,349.939140456 L276.45831,352.6185916 L277.67498,351.842986056 L278.89165,351.913498856 L280.10832,349.6923104 L281.32499,351.701960456 L282.54166,350.6089768 L283.75833,352.477566 L284.975,354.1698732 L286.19167,350.9262844 L287.40834,350.080166056 L288.62501,351.3141048 L289.84168,351.6666688 L291.05835,351.94872 L292.27502,351.5256432 L293.49169,351.6666688 L294.70836,352.4070532 L295.92503,350.009653256 L297.1417,352.2660276 L298.35837,350.538464 L299.57504,351.2788484 L300.79171,352.9006428 L302.00838,349.7628232 L303.22505,350.009653256 L304.44172,352.3365404 L305.65839,352.7243608 L306.87506,352.125002 L308.09173,352.0192328 L309.3084,351.3141048 L310.52507,353.358976 L311.74174,348.0000032 L312.95841,351.5608996 L314.17508,348.775644 L315.39175,352.9358992 L316.60842,350.820550456 L317.82509,352.83013 L319.04176,351.5256432 L320.25843,348.0000032 L321.4751,352.6891044 L322.69177,351.94872 L323.90844,349.9038488 L325.12511,349.7628232 L326.34178,352.3365404 L327.55845,349.833336 L328.77512,353.5705144 L329.99179,351.1730792 L331.20846,352.125002 L332.42513,347.5064136 L333.6418,352.83013 L334.85847,351.6314124 L336.07514,351.772473256 L337.29181,351.8076944 L338.50848,351.5608996 L339.72515,350.6442332 L340.94182,350.4326948 L342.15849,349.939140456 L343.37516,352.477566 L344.59183,350.9967972 L345.8085,350.9967972 L347.02517,350.7500024 L348.24184,348.1410288 L349.45851,348.3878236 L350.67518,350.5737204 L351.89185,349.939140456 L353.10852,351.243592 L354.32519,350.2211564 L355.54186,347.5064136 L356.75853,349.6923104 L357.9752,349.7980796 L359.19187,348.3173108 L360.40854,348.6346184 L361.62521,350.9262844 L362.84188,350.1859 L364.05855,350.009653256 L365.27522,347.7884648 L366.49189,349.3397464 L367.70856,348.9166696 L368.92523,348.070516 L370.1419,350.891063256 L371.35857,348.0352596 L372.57524,346.836542 L373.79191,348.2115416 L375.00858,348.42308 L376.22525,348.8461568 L377.44192,349.3750028 L378.65859,345.955132 L379.87526,347.1185932 L381.09193,347.6474392 L382.3086,346.8717984 L383.52527,345.6730808 L384.74194,345.7083372 L385.95861,346.5192344 L387.17528,347.9294904 L388.39195,347.9294904 L389.60862,346.8012856 L390.82529,345.2852604 L392.04196,344.5801324 L393.25863,345.1794912 L394.4753,345.6378244 L395.69197,344.1217992 L396.90864,345.0384656 L398.12531,344.0865428 L399.34198,343.945552456 L400.55865,342.8173124 L401.77532,344.7916708 L402.99199,343.7339788 L404.20866,342.2179536 L405.42533,341.5833384 L406.642,343.310902 L407.85867,341.6891076 L409.07534,341.4070564 L410.29201,341.5128256 L411.50868,340.49039 L412.72535,340.137826 L413.94202,338.6570572 L415.15869,341.301322456 L416.37536,338.8333392 L417.59203,339.785262 L418.8087,338.375006 L420.02537,339.8910312 L421.24204,338.7980828 L422.45871,338.375006 L423.67538,337.7403908 L424.89205,337.84616 L426.10872,337.2820576 L427.32539,335.2724428 L428.54206,336.1185964 L429.75873,335.1666736 L430.9754,335.20193 L432.19207,335.3076992 L433.40874,333.8621868 L434.62541,332.8397512 L435.84208,333.1923152 L437.05875,331.1827004 L438.27542,331.0064184 L439.49209,329.5961624 L440.70876,329.9487264 L441.92543,329.4198804 L443.1421,328.6442396 L444.35877,328.2916756 L445.57544,328.044916056 L446.79211,327.1987272 L448.00878,326.9871888 L449.22545,326.916676 L450.44212,326.8109068 L451.65879,327.3397528 L452.87546,327.3044964 L454.09213,328.7852652 L455.3088,329.3493676 L456.52547,330.7243672 L457.74214,333.43911 L458.95881,335.7660324 L460.17548,339.8557748 L461.39215,342.6762868 L462.60882,346.6955164 L463.82549,352.83013 L465.04216,356.6025648 L466.25883,360.76282 L467.4755,358.294872 L468.69217,357.766026 L469.90884,358.4358976 L471.12551,356.2147444 L472.34218,361.3269224 L473.55885,359.6346152 L474.77552,355.650642 L475.99219,360.3044868 L477.20886,359.9519228 L478.42553,358.3301284 L479.6422,358.471154 L480.85887,361.0448712 L482.07554,363.3365372 L483.29221,360.76282 L484.50888,356.8493596 L485.72555,359.9166664 L486.94222,359.493624856 L488.15889,356.1442316 L489.37556,355.1923088 L490.59223,357.3782056 L491.8089,359.3173076 L493.02557,358.8942308 L494.24224,358.9647436 L495.45891,363.054486 L496.67558,356.6378212 L497.89225,359.8461536 L499.10892,357.23718 L500.32559,359.7756408 L501.54226,359.7756408 L502.75893,360.1282048 L503.9756,358.0128208 L505.19227,359.7756408 L506.40894,359.0 L507.62561,361.3621788 L508.84228,360.3397432 L510.05895,358.6121796 L511.27562,362.948752056 L512.49229,361.996794 L513.70896,358.4006412 L514.92563,359.8108972 L516.1423,359.0705128 L517.35897,360.4455124 L518.57564,357.977599656 L519.79231,357.9775644 L521.00898,358.6121796 L522.22565,360.4455124 L523.44232,354.980805656 L524.65899,359.0705128 L525.87566,356.8141032 L527.09233,357.8365388 L528.309,358.823718 L529.52567,357.9070516 L530.74234,359.9519228 L531.95901,358.1538464 L533.17568,361.0448712 L534.39235,359.3173076 L535.60902,361.3269224 L536.82569,359.2115384 L538.04236,357.6955132 L539.25903,359.9166664 L540.4757,359.5641024 L541.69237,361.8910248 L542.90904,363.5480756 L544.12571,357.3782056 L545.34238,363.5480756 L546.55905,361.6089736 L547.77572,358.3653848 L548.99239,357.0961544 L550.20906,358.9294872 L551.42573,358.8942308 L552.6424,357.1314108 L553.85907,357.6602568 L555.07574,359.246830056 L556.29241,360.1987176 L557.50908,361.291666 L558.72575,359.3173076 L559.94242,360.9038456 L561.15909,358.3301284 L562.37576,358.3653848 L563.59243,362.1025632 L564.8091,359.1057692 L566.02577,357.1666672 L567.24244,359.1057692 L568.45911,355.9326932 L569.67578,360.410256 L570.89245,355.1570524 L572.10912,360.7980764 L573.32579,358.0128208 L574.54246,358.9647436 L575.75913,356.2500008 L576.9758,359.176282 L578.19247,361.8557684 L579.40914,357.5544876 L580.62581,359.9519228 L581.84248,359.88141 L583.05915,356.2852572 L584.27582,359.7403844 L585.49249,353.6762836 L586.70916,356.179488 L587.92583,362.1025632 L589.1425,357.977599656 L590.35917,359.0705128 L591.57584,360.6570508 L592.79251,360.5512816 L594.00918,360.8685892 L595.22585,358.5064104 L596.44252,356.179488 L597.65919,356.708334 L598.87586,357.6955132 L600.09253,357.2019236 L601.3092,358.6121796 L602.52587,360.0929484 L603.74254,358.0833336 L604.95921,361.2211532 L606.17588,358.0480772 L607.39255,358.2596156 L608.60922,360.4455124 L609.82589,357.8717952 L611.04256,357.4487184 L612.25923,360.6923072 L613.4759,359.1410256 L614.69257,360.6923072 L615.90924,358.9647436 L617.12591,360.6923072 L618.34258,359.1410256 L619.55925,360.410256 L620.77592,361.7147428 L621.99259,360.1634612 L623.20926,360.3749996 L624.42593,356.6378212 L625.6426,360.586538 L626.85927,359.528846 L628.07594,357.3429492 L629.29261,360.5512816 L630.50928,360.939137256 L631.72595,360.6217944 L632.94262,360.9038456 L634.15929,359.176282 L635.37596,358.6121796 L636.59263,363.2660244 " fill-rule="evenodd" vector-effect="non-scaling-stroke"/>
                                </g>
                            </g>
                        </g>
                    </g>
                </g>
            </g>
        </g>
        <g fill="none" fill-rule="evenodd" id="PlotItem_6" stroke="black" stroke-linecap="square" stroke-linejoin="bevel" stroke-width="1">
            <g fill="none" fill-rule="evenodd" id="ViewBox_6" stroke="black" stroke-linecap="square" stroke-linejoin="bevel" stroke-width="1">
                <g fill="none" font-family="Sans Serif" font-size="11.875" font-style="normal" font-weight="400" stroke="none">
                    <path d="M5.0,401.667 L661.0,401.667 L661.0,475.0003 L5.0,475.0003 L5.0,401.667 " fill-rule="evenodd" vector-effect="non-scaling-stroke"/>
                </g>
                <clipPath id="ViewBox_6_clip">
                    <path d="M5.0,401.667 L661.0,401.667 L661.0,475.0 L5.0,475.0 L5.0,401.667 " fill-rule="evenodd" vector-effect="non-scaling-stroke"/>
                </clipPath>
                <g clip-path="url(#ViewBox_6_clip)">
                    <g fill="none" fill-rule="evenodd" id="ChildGroup_6" stroke="black" stroke-linecap="square" stroke-linejoin="bevel" stroke-width="1">
                        <g id="PlotDataItem_6">
                            <g fill="none" fill-rule="evenodd" id="PlotCurveItem_6" stroke="black" stroke-linecap="square" stroke-linejoin="bevel" stroke-width="1">
                                <g fill="none" font-family="Sans Serif" font-size="11.875" font-style="normal" font-weight="400" stroke="#000055" stroke-linecap="square" stroke-linejoin="bevel" stroke-opacity="1" stroke-width="1">
                                    <path d="M29.4119,473.59 L30.62869,473.59 L31.84548,473.59 L33.06227,473.59 L34.27906,473.59 L35.49585,473.59 L36.71264,473.59 L37.92943,473.59 L39.14622,473.59 L40.36301,473.59 L41.5798,473.59 L42.79659,473.59 L44.01338,473.59 L45.23017,473.59 L46.44696,473.59 L47.66375,473.59 L48.88054,473.59 L50.09733,473.59 L51.31412,473.59 L52.53091,473.59 L53.7477,473.59 L54.96449,473.59 L56.18128,473.59 L57.39807,473.59 L58.61486,473.59 L59.83165,473.59 L61.04844,473.59 L62.26523,473.59 L63.48202,473.59 L64.69881,473.59 L65.9156,473.59 L67.13239,473.59 L68.34918,473.59 L69.56597,473.59 L70.78276,473.59 L71.99955,473.59 L73.21634,473.59 L74.43313,473.59 L75.64992,473.59 L76.86671,473.59 L78.0835,473.59 L79.30029,473.59 L80.51708,473.59 L81.73387,473.59 L82.95066,473.59 L84.16745,473.59 L85.38424,473.59 L86.60103,473.59 L87.81782,473.59 L89.03461,473.59 L90.2514,473.59 L91.46819,473.59 L92.68498,473.59 L93.90177,473.59 L95.11856,473.59 L96.33535,473.59 L97.55214,473.59 L98.76893,473.59 L99.98572,473.59 L101.20251,473.59 L102.4193,473.59 L103.63609,473.59 L104.85288,473.59 L106.06967,473.59 L107.28646,473.59 L108.50325,473.59 L109.72004,473.59 L110.93683,473.59 L112.15362,473.59 L113.37041,473.59 L114.5872,473.59 L115.80399,473.59 L117.02078,473.59 L118.23757,473.59 L119.45436,473.59 L120.67115,473.59 L121.88794,473.59 L123.10473,473.59 L124.32152,473.59 L125.53831,473.59 L126.7551,473.59 L127.97189,473.59 L129.18868,473.59 L130.40547,473.59 L131.62226,473.59 L132.83905,473.59 L134.05584,473.59 L135.27263,473.59 L136.48942,473.59 L137.70621,473.59 L138.923,473.59 L140.13979,473.59 L141.35658,473.59 L142.57337,473.59 L143.79016,473.59 L145.00695,473.59 L146.22374,473.59 L147.44053,473.59 L148.65732,473.59 L149.87411,473.59 L151.0909,473.59 L152.30769,473.59 L153.52448,473.59 L154.74127,473.59 L155.95806,473.59 L157.17485,473.59 L158.39164,473.59 L159.60843,473.59 L160.82522,473.59 L162.04201,473.59 L163.2588,473.59 L164.47559,473.59 L165.69238,473.59 L166.90917,473.59 L168.12596,473.59 L169.34275,473.59 L170.55954,473.59 L171.77633,473.59 L172.99312,473.59 L174.20991,473.59 L175.4267,473.59 L176.64349,473.59 L177.86028,473.59 L179.07707,473.59 L180.29386,473.59 L181.51065,473.59 L182.72744,473.59 L183.94423,473.59 L185.16102,473.59 L186.37781,473.59 L187.5946,473.59 L188.81139,473.59 L190.02818,473.59 L191.24497,473.59 L192.46176,473.59 L193.67855,473.59 L194.89534,473.59 L196.11213,473.59 L197.32892,473.59 L198.54571,473.59 L199.7625,473.59 L200.97929,473.59 L202.19608,473.59 L203.41287,473.59 L204.62966,473.59 L205.84645,473.59 L207.06324,473.59 L208.28003,473.59 L209.49682,473.59 L210.71361,473.59 L211.9304,473.59 L213.14719,473.59 L214.36398,473.59 L215.58077,473.59 L216.79756,473.59 L218.01435,473.59 L219.23114,473.59 L220.44793,473.59 L221.66472,473.59 L222.88151,473.59 L224.0983,473.59 L225.31509,473.59 L226.53188,473.59 L227.74867,473.59 L228.96546,473.59 L230.18225,473.59 L231.39904,473.59 L232.61583,473.59 L233.83262,473.59 L235.04941,473.59 L236.2662,473.59 L237.48299,473.59 L238.69978,473.59 L239.91657,473.59 L241.13336,473.59 L242.35015,473.59 L243.56694,473.59 L244.78373,473.59 L246.00052,473.59 L247.21731,473.59 L248.4341,473.59 L249.65089,473.59 L250.86768,473.59 L252.08447,473.59 L253.30126,473.59 L254.51805,473.59 L255.73484,473.59 L256.95163,473.59 L258.16842,473.59 L259.38521,473.59 L260.602,473.59 L261.81879,473.59 L263.03558,473.59 L264.25237,473.59 L265.46916,473.59 L266.68595,473.59 L267.90274,473.59 L269.11953,473.59 L270.33632,473.59 L271.55311,473.59 L272.7699,473.59 L273.98669,473.59 L275.20348,473.59 L276.42027,473.59 L277.63706,473.59 L278.85385,473.59 L280.07064,473.59 L281.28743,473.59 L282.50422,473.59 L283.72101,473.59 L284.9378,473.59 L286.15459,473.59 L287.37138,473.59 L288.58817,473.59 L289.80496,473.59 L291.02175,473.59 L292.23854,473.59 L293.45533,473.59 L294.67212,473.59 L295.88891,473.59 L297.1057,473.59 L298.32249,473.59 L299.53928,473.59 L300.75607,473.59 L301.97286,473.59 L303.18965,473.59 L304.40644,473.59 L305.62323,473.59 L306.84002,473.59 L308.05681,473.59 L309.2736,473.59 L310.49039,473.59 L311.70718,473.59 L312.92397,473.59 L314.14076,473.59 L315.35755,473.59 L316.57434,473.59 L317.79113,473.59 L319.00792,473.59 L320.22471,473.59 L321.4415,473.59 L322.65829,473.59 L323.87508,473.59 L325.09187,473.59 L326.30866,473.59 L327.52545,473.59 L328.74224,473.59 L329.95903,473.59 L331.17582,473.59 L332.39261,473.59 L333.6094,473.59 L334.82619,473.59 L336.04298,473.59 L337.25977,473.59 L338.47656,473.59 L339.69335,473.59 L340.91014,473.59 L342.12693,473.59 L343.34372,473.59 L344.56051,473.59 L345.7773,473.59 L346.99409,473.59 L348.21088,473.59 L349.42767,473.59 L350.64446,473.59 L351.86125,473.59 L353.07804,473.59 L354.29483,473.59 L355.51162,473.59 L356.72841,473.59 L357.9452,473.59 L359.16199,473.59 L360.37878,473.59 L361.59557,473.59 L362.81236,473.59 L364.02915,473.59 L365.24594,473.59 L366.46273,473.59 L367.67952,473.59 L368.89631,473.59 L370.1131,473.59 L371.32989,473.59 L372.54668,473.59 L373.76347,473.59 L374.98026,473.59 L376.19705,473.59 L377.41384,473.59 L378.63063,473.59 L379.84742,473.59 L381.06421,473.59 L382.281,473.59 L383.49779,473.59 L384.71458,473.59 L385.93137,473.59 L387.14816,473.59 L388.36495,473.59 L389.58174,473.59 L390.79853,473.59 L392.01532,473.59 L393.23211,473.59 L394.4489,473.59 L395.66569,473.59 L396.88248,473.59 L398.09927,473.59 L399.31606,473.59 L400.53285,473.59 L401.74964,473.59 L402.96643,473.59 L404.18322,473.59 L405.40001,473.59 L406.6168,473.59 L407.83359,473.59 L409.05038,473.59 L410.26717,473.59 L411.48396,473.59 L412.70075,473.59 L413.91754,473.59 L415.13433,473.59 L416.35112,473.59 L417.56791,473.59 L418.7847,473.59 L420.00149,473.59 L421.21828,473.59 L422.43507,473.59 L423.65186,473.59 L424.86865,473.59 L426.08544,473.59 L427.30223,473.59 L428.51902,473.59 L429.73581,473.59 L430.9526,473.59 L432.16939,473.59 L433.38618,473.59 L434.60297,473.59 L435.81976,473.59 L437.03655,473.59 L438.25334,473.59 L439.47013,473.59 L440.68692,473.59 L441.90371,473.59 L443.1205,473.59 L444.33729,473.59 L445.55408,473.59 L446.77087,473.59 L447.98766,473.59 L449.20445,473.59 L450.42124,473.59 L451.63803,473.59 L452.85482,473.59 L454.07161,473.59 L455.2884,473.59 L456.50519,473.59 L457.72198,473.59 L458.93877,473.59 L460.15556,473.59 L461.37235,473.59 L462.58914,473.59 L463.80593,473.59 L465.02272,473.59 L466.23951,473.59 L467.4563,473.59 L468.67309,473.59 L469.88988,473.59 L471.10667,473.59 L472.32346,473.59 L473.54025,473.59 L474.75704,473.59 L475.97383,473.59 L477.19062,473.59 L478.40741,473.59 L479.6242,473.59 L480.84099,473.59 L482.05778,473.59 L483.27457,473.59 L484.49136,473.59 L485.70815,473.59 L486.92494,473.59 L488.14173,473.59 L489.35852,473.59 L490.57531,473.59 L491.7921,473.59 L493.00889,473.59 L494.22568,473.59 L495.44247,473.59 L496.65926,473.59 L497.87605,473.59 L499.09284,473.59 L500.30963,473.59 L501.52642,473.59 L502.74321,473.59 L503.96,473.59 L505.17679,473.59 L506.39358,473.59 L507.61037,473.59 L508.82716,473.59 L510.04395,473.59 L511.26074,473.59 L512.47753,473.59 L513.69432,473.59 L514.91111,473.59 L516.1279,473.59 L517.34469,473.59 L518.56148,473.59 L519.77827,473.59 L520.99506,473.59 L522.21185,473.59 L523.42864,473.59 L524.64543,473.59 L525.86222,473.59 L527.07901,473.59 L528.2958,473.59 L529.51259,473.59 L530.72938,473.59 L531.94617,473.59 L533.16296,473.59 L534.37975,473.59 L535.59654,473.59 L536.81333,473.59 L538.03012,473.59 L539.24691,473.59 L540.4637,473.59 L541.68049,473.59 L542.89728,473.59 L544.11407,473.59 L545.33086,473.59 L546.54765,473.59 L547.76444,473.59 L548.98123,473.59 L550.19802,473.59 L551.41481,473.59 L552.6316,473.59 L553.84839,473.59 L555.06518,473.59 L556.28197,473.59 L557.49876,473.59 L558.71555,473.59 L559.93234,473.59 L561.14913,473.59 L562.36592,473.59 L563.58271,473.59 L564.7995,473.59 L566.01629,473.59 L567.23308,473.59 L568.44987,473.59 L569.66666,473.59 L570.88345,473.59 L572.10024,473.59 L573.31703,473.59 L574.53382,473.59 L575.75061,473.59 L576.9674,473.59 L578.18419,473.59 L579.40098,473.59 L580.61777,473.59 L581.83456,473.59 L583.05135,473.59 L584.26814,473.59 L585.48493,473.59 L586.70172,473.59 L587.91851,473.59 L589.1353,473.59 L590.35209,473.59 L591.56888,473.59 L592.78567,473.59 L594.00246,473.59 L595.21925,473.59 L596.43604,473.59 L597.65283,473.59 L598.86962,473.59 L600.08641,473.59 L601.3032,473.59 L602.51999,473.59 L603.73678,473.59 L604.95357,473.59 L606.17036,473.59 L607.38715,473.59 L608.60394,473.59 L609.82073,473.59 L611.03752,473.59 L612.25431,473.59 L613.4711,473.59 L614.68789,473.59 L615.90468,473.59 L617.12147,473.59 L618.33826,473.59 L619.55505,473.59 L620.77184,473.59 L621.98863,473.59 L623.20542,473.59 L624.42221,473.59 L625.639,473.59 L626.85579,473.59 L628.07258,473.59 L629.28937,473.59 L630.50616,473.59 L631.72295,473.59 L632.93974,473.59 L634.15653,473.59 L635.37332,473.59 L636.59011,473.59 " fill-rule="evenodd" vector-effect="non-scaling-stroke"/>
                                </g>
                            </g>
                        </g>
                    </g>
                </g>
            </g>
        </g>
    </g>
</g>

</svg>
