<?xml version="1.0" encoding="UTF-8" standalone="no"?>
<svg
   xmlns:dc="http://purl.org/dc/elements/1.1/"
   xmlns:cc="http://creativecommons.org/ns#"
   xmlns:rdf="http://www.w3.org/1999/02/22-rdf-syntax-ns#"
   xmlns:svg="http://www.w3.org/2000/svg"
   xmlns="http://www.w3.org/2000/svg"
   xmlns:sodipodi="http://sodipodi.sourceforge.net/DTD/sodipodi-0.dtd"
   xmlns:inkscape="http://www.inkscape.org/namespaces/inkscape"
   version="1.2"
   id="svg2"
   inkscape:version="0.48.4 r9939"
   width="656"
   height="492.71906"
   sodipodi:docname="Braiten-1-2-no-self-connections.svg">
  <metadata
     id="metadata260">
    <rdf:RDF>
      <cc:Work
         rdf:about="">
        <dc:format>image/svg+xml</dc:format>
        <dc:type
           rdf:resource="http://purl.org/dc/dcmitype/StillImage" />
      </cc:Work>
    </rdf:RDF>
  </metadata>
  <sodipodi:namedview
     pagecolor="#ffffff"
     bordercolor="#666666"
     borderopacity="1"
     objecttolerance="10"
     gridtolerance="10"
     guidetolerance="10"
     inkscape:pageopacity="0"
     inkscape:pageshadow="2"
     inkscape:window-width="1920"
     inkscape:window-height="1026"
     id="namedview258"
     showgrid="false"
     inkscape:zoom="1.2685914"
     inkscape:cx="269.54364"
     inkscape:cy="212.69678"
     inkscape:window-x="1047"
     inkscape:window-y="-3"
     inkscape:window-maximized="1"
     inkscape:current-layer="svg2"
     fit-margin-top="0"
     fit-margin-left="0"
     fit-margin-right="0"
     fit-margin-bottom="0" />
  <title
     id="title4">pyqtgraph SVG export</title>
  <desc
     id="desc6">Generated with Qt and pyqtgraph</desc>
  <defs
     id="defs8" />
  <g
     id="GraphicsScene_1"
     transform="translate(-5,17.71875)">
    <g
       id="GraphicsLayout_1"
       style="fill:none;stroke:#000000;stroke-width:1;stroke-linecap:square;stroke-linejoin:bevel">
      <g
         id="PlotItem_1"
         style="fill:none;stroke:#000000;stroke-width:1;stroke-linecap:square;stroke-linejoin:bevel">
        <g
           id="AxisItem_1"
           style="fill:none;stroke:#000000;stroke-width:1;stroke-linecap:square;stroke-linejoin:bevel">
          <g
             font-size="11.875"
             font-style="normal"
             font-weight="400"
             id="g14"
             style="font-size:11.875px;font-style:normal;font-weight:400;fill:none;stroke:#969696;stroke-width:1;stroke-linecap:square;stroke-linejoin:bevel;stroke-opacity:1;font-family:Sans Serif">
            <polyline
               points="45.0,5.0 45.0,79.113566312"
               vector-effect="non-scaling-stroke"
               id="polyline16"
               style="fill:none" />
          </g>
          <g
             font-size="11.875"
             font-style="normal"
             font-weight="400"
             id="g18"
             style="font-size:11.875px;font-style:normal;font-weight:400;fill:none;stroke:#969696;stroke-width:1;stroke-linecap:square;stroke-linejoin:bevel;stroke-opacity:1;font-family:Sans Serif">
            <polyline
               points="45.5,42.056833688 50.5,42.056833688"
               vector-effect="non-scaling-stroke"
               id="polyline20"
               style="fill:none" />
          </g>
          <g
             font-size="11.875"
             font-style="normal"
             font-weight="400"
             id="g22"
             style="font-size:11.875px;font-style:normal;font-weight:400;fill:none;stroke:#969696;stroke-width:1;stroke-linecap:square;stroke-linejoin:bevel;stroke-opacity:0.49803904;font-family:Sans Serif">
            <polyline
               points="45.5,77.688361784 48.8333,77.688361784"
               vector-effect="non-scaling-stroke"
               id="polyline24"
               style="fill:none" />
            <polyline
               points="45.5,6.4252651664 48.8333,6.4252651664"
               vector-effect="non-scaling-stroke"
               id="polyline26"
               style="fill:none" />
          </g>
          <g
             font-size="11.875"
             font-style="normal"
             font-weight="400"
             id="g28"
             style="font-size:11.875px;font-style:normal;font-weight:400;fill:none;stroke:#969696;stroke-width:1;stroke-linecap:square;stroke-linejoin:bevel;stroke-opacity:0.33333297;font-family:Sans Serif">
            <polyline
               points="45.5,70.562035952 48.0,70.562035952"
               vector-effect="non-scaling-stroke"
               id="polyline30"
               style="fill:none" />
            <polyline
               points="45.5,63.43571012 48.0,63.43571012"
               vector-effect="non-scaling-stroke"
               id="polyline32"
               style="fill:none" />
            <polyline
               points="45.5,56.309384288 48.0,56.309384288"
               vector-effect="non-scaling-stroke"
               id="polyline34"
               style="fill:none" />
            <polyline
               points="45.5,49.183058456 48.0,49.183058456"
               vector-effect="non-scaling-stroke"
               id="polyline36"
               style="fill:none" />
            <polyline
               points="45.5,34.930507856 48.0,34.930507856"
               vector-effect="non-scaling-stroke"
               id="polyline38"
               style="fill:none" />
            <polyline
               points="45.5,27.804182024 48.0,27.804182024"
               vector-effect="non-scaling-stroke"
               id="polyline40"
               style="fill:none" />
            <polyline
               points="45.5,20.677856192 48.0,20.677856192"
               vector-effect="non-scaling-stroke"
               id="polyline42"
               style="fill:none" />
            <polyline
               points="45.5,13.5515707856 48.0,13.5515707856"
               vector-effect="non-scaling-stroke"
               id="polyline44"
               style="fill:none" />
          </g>
          <g
             font-size="11.875"
             font-style="normal"
             font-weight="400"
             transform="matrix(1,0,0,1.01064,5.5,5)"
             id="g46"
             style="font-size:11.875px;font-style:normal;font-weight:400;fill:none;stroke:#969696;stroke-width:1;stroke-linecap:square;stroke-linejoin:bevel;stroke-opacity:1;font-family:Sans Serif">
            <text
               font-size="11.875"
               font-style="normal"
               font-weight="400"
               x="31"
               xml:space="preserve"
               y="40.6562"
               id="text48"
               style="font-size:11.875px;font-style:normal;font-weight:400;fill:#969696;fill-opacity:1;stroke:none">0</text>
            <text
               font-size="11.875"
               font-style="normal"
               font-weight="400"
               x="19"
               xml:space="preserve"
               y="75.921898"
               id="text50"
               style="font-size:11.875px;font-style:normal;font-weight:400;fill:#969696;fill-opacity:1;stroke:none">-10</text>
            <text
               font-size="11.875"
               font-style="normal"
               font-weight="400"
               x="23"
               xml:space="preserve"
               y="5.4218798"
               id="text52"
               style="font-size:11.875px;font-style:normal;font-weight:400;fill:#969696;fill-opacity:1;stroke:none">10</text>
          </g>
        </g>
        <g
           id="ViewBox_1"
           style="fill:none;stroke:#000000;stroke-width:1;stroke-linecap:square;stroke-linejoin:bevel">
          <g
             font-size="11.875"
             font-style="normal"
             font-weight="400"
             id="g55"
             style="font-size:11.875px;font-style:normal;font-weight:400;fill:none;stroke:none;font-family:Sans Serif">
            <path
               d="m 45,5 616,0 0,73.3333 -616,0 L 45,5"
               vector-effect="non-scaling-stroke"
               id="path57"
               inkscape:connector-curvature="0" />
          </g>
          <clipPath
             id="ViewBox_1_clip">
            <path
               d="m 45,5 616,0 0,73.3333 -616,0 L 45,5"
               vector-effect="non-scaling-stroke"
               id="path60"
               inkscape:connector-curvature="0" />
          </clipPath>
          <g
             clip-path="url(#ViewBox_1_clip)"
             id="g62">
            <g
               id="ChildGroup_1"
               style="fill:none;stroke:#000000;stroke-width:1;stroke-linecap:square;stroke-linejoin:bevel">
              <g
                 id="InfiniteLine_1"
                 style="fill:none;stroke:#000000;stroke-width:1;stroke-linecap:square;stroke-linejoin:bevel">
                <g
                   font-size="11.875"
                   font-style="normal"
                   font-weight="400"
                   id="g66"
                   style="font-size:11.875px;font-style:normal;font-weight:400;fill:none;stroke:#e6e6af;stroke-width:1;stroke-linecap:square;stroke-linejoin:bevel;stroke-opacity:1;font-family:Sans Serif">
                  <polyline
                     points="661.00268021,41.6667 44.999982536,41.6667"
                     vector-effect="non-scaling-stroke"
                     id="polyline68"
                     style="fill:none" />
                </g>
              </g>
              <g
                 id="PlotDataItem_1">
                <g
                   id="PlotCurveItem_1"
                   style="fill:none;stroke:#000000;stroke-width:1;stroke-linecap:square;stroke-linejoin:bevel">
                  <g
                     font-size="11.875"
                     font-style="normal"
                     font-weight="400"
                     id="g72"
                     style="font-size:11.875px;font-style:normal;font-weight:400;fill:none;stroke:#ff0000;stroke-width:1;stroke-linecap:square;stroke-linejoin:bevel;stroke-opacity:1;font-family:Sans Serif">
                    <path
                       d="m 29.4743,41.605142 1.21667,-0.0263 1.21667,0.002 1.21667,-0.01276 1.21667,-0.03988 1.21667,-0.07855 1.21667,0.02683 1.21667,-0.07562 1.21667,-0.04181 1.21667,0.009 1.21667,0.01957 1.21667,0.03547 1.21667,0.06882 1.21667,5.99e-4 1.21667,-0.0385 1.21667,0.03705 1.21667,-0.07996 1.21667,0.05299 1.21667,0.01583 1.21667,-0.05853 1.21667,-0.01269 1.21667,0.04425 1.21667,0.07901 1.21667,-0.0083 1.21667,0.003 1.21667,0.07309 1.21667,0.03557 1.21667,0.03434 1.21667,0.03497 1.21667,-0.07601 1.21667,-0.0844 1.21667,-0.0214 1.21667,-0.03106 1.21667,-0.0069 1.21667,0.02267 1.21667,-0.111551 1.21667,-0.09523 1.21667,0.01664 1.21667,-0.04044 1.21667,0.007 1.21667,-0.01329 1.21667,-0.05274 1.21667,0.02464 1.21667,-0.08518 1.21667,-0.04636 1.21667,0.02891 1.21667,0.01174 1.21667,-0.109683 1.21667,-0.04379 1.21667,-0.09107 1.21667,-0.03797 1.21667,-0.101961 1.21667,-0.01731 1.21667,-0.06226 1.21667,-0.119872 1.21667,-0.166657 1.21667,-0.127945 1.21667,-0.195708 1.21667,-0.105628 1.21667,0.01103 1.21667,-0.128616 1.21667,-0.07379 1.21667,-0.03339 1.21667,-0.08902 1.21667,-0.04322 1.21667,-0.0409 1.21667,-0.0079 1.21667,-0.0017 1.21667,-0.07538 1.21667,-0.189292 1.21667,-0.198106 1.21667,-0.07883 1.21667,-0.122128 1.21667,-0.03494 1.21667,0.02122 1.21667,-0.133939 1.21667,-0.05408 1.21667,-0.168526 1.21667,-0.137747 1.21667,-0.109894 1.21667,-0.149487 1.21667,-0.04686 1.21667,-0.146702 1.21667,-0.16916 1.21667,-0.185343 1.21667,-0.257548 1.21667,-0.09565 1.21667,-0.294039 1.21667,-0.257971 1.21667,-0.07954 1.21667,-0.104042 1.21667,-0.244503 1.21667,-0.108977 1.21667,-0.209071 1.21667,-0.251942 1.21667,-0.160875 1.21667,-0.09805 1.21667,-0.194792 1.21667,-0.155692 1.21667,-0.266397 1.21667,-0.144728 1.21667,-0.148394 1.21667,-0.202689 1.21667,-0.09191 1.21667,-0.138134 1.21667,-0.152801 1.21667,-0.285613 1.21667,-0.207166 1.21667,-0.171417 1.21667,-0.158936 1.21667,-0.280041 1.21667,-0.2145 1.21667,-0.218237 1.21667,-0.294074 1.21667,-0.194756 1.21667,-0.202337 1.21667,-0.195602 1.21667,-0.225394 1.21667,-0.194475 1.21667,-0.217003 1.21667,-0.170923 1.21667,-0.342622 1.21667,-0.265269 1.21667,-0.218766 1.21667,-0.21873 1.21667,-0.180619 1.21667,-0.201631 1.21667,-0.302183 1.21667,-0.222503 1.21667,-0.274542 1.21667,-0.222891 1.21667,-0.253951 1.21667,-0.184039 1.21667,-0.246407 1.21667,-0.31283 1.21667,-0.209423 1.21667,-0.343926 1.21667,-0.380734 1.21667,-0.190349 1.21667,-0.255821 1.21667,-0.34033 1.21667,-0.223701 1.21667,-0.258606 1.21667,-0.296401 1.21667,-0.271897 1.21667,-0.239144 1.21667,-0.300173 1.21667,-0.237805 1.21667,-0.261109 1.21667,-0.364515 1.21667,-0.269923 1.21667,-0.370863 1.21667,-0.24757 1.21667,-0.390817 1.21667,-0.318965 1.21667,-0.326756 1.21667,-0.286141 1.21667,-0.325346 1.21667,-0.283109 1.21667,-0.310715 1.21667,-0.399596 1.21667,-0.421067 1.21667,-0.243904 1.21667,-0.342093 1.21667,-0.397198 1.21667,-0.349039 1.21667,-0.338743 1.21667,-0.262519 1.21667,-0.360003 1.21667,-0.347593 1.21667,-0.347522 1.21667,-0.331728 1.21667,-0.43242 1.21667,-0.307859 1.21667,-0.318294 1.21667,-0.322914 1.21667,-0.399807 1.21667,-0.388491 1.21667,-0.394871 1.21667,-0.413699 1.21667,-0.388208 1.21667,-0.342692 1.21667,-0.539952 1.21667,-0.482131 1.21667,-0.353446 1.21667,-0.338814 1.21667,-0.342093 1.21667,-0.2726373 1.21667,-0.4336184 1.21667,-0.5087852 1.21667,-0.4659133 1.21667,-0.4920736 1.21667,-0.4404229 1.21667,-0.3250288 1.21667,-0.4459934 1.21667,-0.2442211 1.21667,0 1.21667,0 1.21667,0.016606 1.21667,-0.016606 1.21667,0.022494 1.21667,0.00955 1.21667,-0.032048 1.21667,0.055952 1.21667,-0.055952 1.21667,0 1.21667,0 1.21667,0 1.21667,0 1.21667,0.0086 1.21667,-0.0086 1.21667,0.016077 1.21667,-0.016077 1.21667,0 1.21667,0 1.21667,0 1.21667,0.027324 1.21667,-0.027324 1.21667,0 1.21667,0.036702 1.21667,-0.036702 1.21667,0 1.21667,0 1.21667,0 1.21667,0.1055224 1.21667,0.035715 1.21667,-0.1193781 1.21667,-0.021859 1.21667,0.00733 1.21667,-0.00733 1.21667,0 1.21667,0.059301 1.21667,-0.059301 1.21667,0.037548 1.21667,0.028663 1.21667,-0.05775 1.21667,-0.00846 1.21667,0 1.21667,0 1.21667,0 1.21667,0.032119 1.21667,-0.032119 1.21667,0 1.21667,0.0036 1.21667,0.022846 1.21667,-0.026442 1.21667,0 1.21667,0 1.21667,0 1.21667,0 1.21667,0 1.21667,0.081936 1.21667,0.04326 1.21667,-0.038429 1.21667,-0.086766 1.21667,0 1.21667,0 1.21667,0 1.21667,0 1.21667,0.0024 1.21667,0.022881 1.21667,-0.025279 1.21667,0 1.21667,0 1.21667,0 1.21667,0.016888 1.21667,-0.016888 1.21667,0.018157 1.21667,-0.018157 1.21667,0.07633 1.21667,0.036772 1.21667,-0.080138 1.21667,-0.032965 1.21667,0 1.21667,0.00155 1.21667,-0.00155 1.21667,0 1.21667,0 1.21667,0.011141 1.21667,-0.011141 1.21667,0.050311 1.21667,-0.050311 1.21667,0 1.21667,0.042343 1.21667,-0.042343 1.21667,0.025949 1.21667,-0.025949 1.21667,0.031449 1.21667,-0.031449 1.21667,0.023199 1.21667,0.018122 1.21667,-0.04132 1.21667,0 1.21667,0 1.21667,0.055388 1.21667,-0.029298 1.21667,-0.02609 1.21667,0.082006 1.21667,0.017099 1.21667,-0.099106 1.21667,0 1.21667,0 1.21667,0 1.21667,0.063567 1.21667,0.01583 1.21667,-0.079397 1.21667,0.017205 1.21667,-0.017205 1.21667,0 1.21667,0 1.21667,0 1.21667,0 1.21667,0 1.21667,0 1.21667,0 1.21667,0 1.21667,0.058349 1.21667,-0.034516 1.21667,-0.016747 1.21667,-0.00709 1.21667,0 1.21667,0.069349 1.21667,-0.069349 1.21667,0.029792 1.21667,-0.029792 1.21667,0.012763 1.21667,-0.012763 1.21667,0 1.21667,0 1.21667,0.011494 1.21667,-0.011494 1.21667,0.033 1.21667,-0.033 1.21667,0 1.21667,0 1.21667,0.046785 1.21667,-0.046785 1.21667,0.00599 1.21667,-0.00599 1.21667,0.00204 1.21667,-0.00204 1.21667,0 1.21667,0 1.21667,0 1.21667,0 1.21667,0 1.21667,0 1.21667,0 1.21667,0 1.21667,0 1.21667,0.048372 1.21667,-0.03575 1.21667,-0.012622 1.21667,0 1.21667,0.00991 1.21667,-0.00991 1.21667,0.087965 1.21667,0.028135 1.21667,-0.02267 1.21667,-0.09343 1.21667,0 1.21667,0 1.21667,0.04326 1.21667,-0.04326 1.21667,0.09558 1.21667,-0.06184 1.21667,-0.03374 1.21667,0 1.21667,0 1.21667,0.020978 1.21667,-0.020978 1.21667,0.012128 1.21667,-0.012128 1.21667,0.033282 1.21667,0.04876 1.21667,-0.082042 1.21667,0.0043 1.21667,-0.0043 1.21667,0 1.21667,0.032224 1.21667,-0.032224 1.21667,0 1.21667,0.01174 1.21667,-0.01174 1.21667,0.020131 1.21667,-0.020131 1.21667,0.042519 1.21667,0.093112 1.21667,-0.1327051 1.21667,-0.00293 1.21667,0.038218 1.21667,-0.038218 1.21667,0 1.21667,0.018756 1.21667,-0.018756 1.21667,0.027606 1.21667,-0.027606 1.21667,0 1.21667,0 1.21667,0 1.21667,0 1.21667,0.085179 1.21667,-0.018686 1.21667,0.09283 1.21667,-0.02267 1.21667,-0.1366538 1.21667,0 1.21667,0.03025 1.21667,-0.03025 1.21667,0 1.21667,0 1.21667,0 1.21667,0 1.21667,0 1.21667,0 1.21667,0 1.21667,0.022635 1.21667,-0.022635 1.21667,0 1.21667,0 1.21667,0.100375 1.21667,-0.021506 1.21667,-0.078869 1.21667,0 1.21667,0.031061 1.21667,-0.031061 1.21667,0 1.21667,0.010718 1.21667,0.068186 1.21667,-0.063144 1.21667,-0.01576 1.21667,0 1.21667,0.048442 1.21667,-0.026901 1.21667,-0.018615 1.21667,-0.00293 1.21667,0.059019 1.21667,-0.059019 1.21667,0 1.21667,0 1.21667,0 1.21667,0 1.21667,0 1.21667,0.038253 1.21667,-0.038253 1.21667,0.031096 1.21667,-0.031096 1.21667,0.089622 1.21667,-0.089622 1.21667,0 1.21667,0.033811 1.21667,0.078551 1.21667,0.01174 1.21667,-0.080138 1.21667,-0.043965 1.21667,0 1.21667,0 1.21667,0.073686 1.21667,0.034692 1.21667,-0.058702 1.21667,-0.049676 1.21667,0 1.21667,0 1.21667,0.1096474 1.21667,-0.041955 1.21667,-0.065048 1.21667,-0.00264 1.21667,0 1.21667,0.049747 1.21667,-0.049747 1.21667,0 1.21667,0 1.21667,0.063638 1.21667,-0.063638 1.21667,0.00913 1.21667,-0.00913 1.21667,0 1.21667,0.034269 1.21667,-0.034269 1.21667,0 1.21667,0 1.21667,0 1.21667,0.083593 1.21667,-0.021083 1.21667,-0.041003 1.21667,-0.021506 1.21667,0 1.21667,0 1.21667,0.055106 1.21667,-0.047208 1.21667,-0.0079 1.21667,0 1.21667,0.04682 1.21667,-0.04682 1.21667,0 1.21667,0 1.21667,0 1.21667,0 1.21667,0.029228 1.21667,-0.029228"
                       vector-effect="non-scaling-stroke"
                       id="path74"
                       inkscape:connector-curvature="0" />
                  </g>
                </g>
              </g>
            </g>
          </g>
        </g>
      </g>
      <g
         id="PlotItem_2"
         style="fill:none;stroke:#000000;stroke-width:1;stroke-linecap:square;stroke-linejoin:bevel">
        <g
           id="ViewBox_2"
           style="fill:none;stroke:#000000;stroke-width:1;stroke-linecap:square;stroke-linejoin:bevel">
          <g
             font-size="11.875"
             font-style="normal"
             font-weight="400"
             id="g78"
             style="font-size:11.875px;font-style:normal;font-weight:400;fill:none;stroke:none;font-family:Sans Serif">
            <path
               d="m 5,84.3333 656,0 0,73.3333 -656,0 0,-73.3333"
               vector-effect="non-scaling-stroke"
               id="path80"
               inkscape:connector-curvature="0" />
          </g>
          <clipPath
             id="ViewBox_2_clip">
            <path
               d="m 5,84.3333 656,0 0,73.3337 -656,0 0,-73.3337"
               vector-effect="non-scaling-stroke"
               id="path83"
               inkscape:connector-curvature="0" />
          </clipPath>
          <g
             clip-path="url(#ViewBox_2_clip)"
             id="g85">
            <g
               id="ChildGroup_2"
               style="fill:none;stroke:#000000;stroke-width:1;stroke-linecap:square;stroke-linejoin:bevel">
              <g
                 id="PlotDataItem_2">
                <g
                   id="PlotCurveItem_2"
                   style="fill:none;stroke:#000000;stroke-width:1;stroke-linecap:square;stroke-linejoin:bevel">
                  <g
                     font-size="11.875"
                     font-style="normal"
                     font-weight="400"
                     id="g90"
                     style="font-size:11.875px;font-style:normal;font-weight:400;fill:none;stroke:#550000;stroke-width:1;stroke-linecap:square;stroke-linejoin:bevel;stroke-opacity:1;font-family:Sans Serif">
                    <path
                       d="m 29.4119,156.256 1.21679,0 1.21679,0 1.21679,0 1.21679,0 1.21679,0 1.21679,0 1.21679,0 1.21679,0 1.21679,0 1.21679,0 1.21679,0 1.21679,0 1.21679,0 1.21679,0 1.21679,0 1.21679,0 1.21679,0 1.21679,0 1.21679,0 1.21679,0 1.21679,0 1.21679,0 1.21679,0 1.21679,0 1.21679,0 1.21679,0 1.21679,0 1.21679,0 1.21679,0 1.21679,0 1.21679,0 1.21679,0 1.21679,0 1.21679,0 1.21679,0 1.21679,0 1.21679,0 1.21679,0 1.21679,0 1.21679,0 1.21679,0 1.21679,0 1.21679,0 1.21679,0 1.21679,0 1.21679,0 1.21679,0 1.21679,0 1.21679,0 1.21679,0 1.21679,0 1.21679,0 1.21679,0 1.21679,0 1.21679,0 1.21679,0 1.21679,0 1.21679,0 1.21679,0 1.21679,0 1.21679,0 1.21679,0 1.21679,0 1.21679,0 1.21679,0 1.21679,0 1.21679,0 1.21679,0 1.21679,0 1.21679,0 1.21679,0 1.21679,0 1.21679,0 1.21679,0 1.21679,0 1.21679,0 1.21679,0 1.21679,0 1.21679,0 1.21679,0 1.21679,0 1.21679,0 1.21679,0 1.21679,0 1.21679,0 1.21679,0 1.21679,0 1.21679,0 1.21679,0 1.21679,0 1.21679,0 1.21679,0 1.21679,0 1.21679,0 1.21679,0 1.21679,0 1.21679,0 1.21679,0 1.21679,0 1.21679,0 1.21679,0 1.21679,0 1.21679,0 1.21679,0 1.21679,0 1.21679,0 1.21679,0 1.21679,0 1.21679,0 1.21679,0 1.21679,0 1.21679,0 1.21679,0 1.21679,0 1.21679,0 1.21679,0 1.21679,0 1.21679,0 1.21679,0 1.21679,0 1.21679,0 1.21679,0 1.21679,0 1.21679,0 1.21679,0 1.21679,0 1.21679,0 1.21679,0 1.21679,0 1.21679,0 1.21679,0 1.21679,0 1.21679,0 1.21679,0 1.21679,0 1.21679,0 1.21679,0 1.21679,0 1.21679,0 1.21679,0 1.21679,0 1.21679,0 1.21679,0 1.21679,0 1.21679,0 1.21679,0 1.21679,0 1.21679,0 1.21679,0 1.21679,0 1.21679,0 1.21679,0 1.21679,0 1.21679,0 1.21679,0 1.21679,0 1.21679,0 1.21679,0 1.21679,0 1.21679,0 1.21679,0 1.21679,0 1.21679,0 1.21679,0 1.21679,0 1.21679,0 1.21679,0 1.21679,0 1.21679,0 1.21679,0 1.21679,0 1.21679,0 1.21679,0 1.21679,0 1.21679,0 1.21679,0 1.21679,0 1.21679,0 1.21679,0 1.21679,0 1.21679,0 1.21679,0 1.21679,0 1.21679,0 1.21679,0 1.21679,0 1.21679,0 1.21679,0 1.21679,0 1.21679,0 1.21679,0 1.21679,0 1.21679,0 1.21679,0 1.21679,0 1.21679,0 1.21679,0 1.21679,0 1.21679,0 1.21679,0 1.21679,0 1.21679,0 1.21679,0 1.21679,0 1.21679,0 1.21679,0 1.21679,0 1.21679,0 1.21679,0 1.21679,0 1.21679,0 1.21679,0 1.21679,0 1.21679,0 1.21679,0 1.21679,0 1.21679,0 1.21679,0 1.21679,0 1.21679,0 1.21679,0 1.21679,0 1.21679,0 1.21679,0 1.21679,0 1.21679,0 1.21679,0 1.21679,0 1.21679,0 1.21679,0 1.21679,0 1.21679,0 1.21679,0 1.21679,0 1.21679,0 1.21679,0 1.21679,0 1.21679,0 1.21679,0 1.21679,0 1.21679,0 1.21679,0 1.21679,0 1.21679,0 1.21679,0 1.21679,0 1.21679,0 1.21679,0 1.21679,0 1.21679,0 1.21679,0 1.21679,0 1.21679,0 1.21679,0 1.21679,0 1.21679,0 1.21679,0 1.21679,0 1.21679,0 1.21679,0 1.21679,0 1.21679,0 1.21679,0 1.21679,0 1.21679,0 1.21679,0 1.21679,0 1.21679,0 1.21679,0 1.21679,0 1.21679,0 1.21679,0 1.21679,0 1.21679,0 1.21679,0 1.21679,0 1.21679,0 1.21679,0 1.21679,0 1.21679,0 1.21679,0 1.21679,0 1.21679,0 1.21679,0 1.21679,0 1.21679,0 1.21679,0 1.21679,0 1.21679,0 1.21679,0 1.21679,0 1.21679,0 1.21679,0 1.21679,0 1.21679,0 1.21679,0 1.21679,0 1.21679,0 1.21679,0 1.21679,0 1.21679,0 1.21679,0 1.21679,0 1.21679,0 1.21679,0 1.21679,0 1.21679,0 1.21679,0 1.21679,0 1.21679,0 1.21679,0 1.21679,0 1.21679,0 1.21679,0 1.21679,0 1.21679,0 1.21679,0 1.21679,0 1.21679,0 1.21679,0 1.21679,0 1.21679,0 1.21679,0 1.21679,0 1.21679,0 1.21679,0 1.21679,0 1.21679,0 1.21679,0 1.21679,0 1.21679,0 1.21679,0 1.21679,0 1.21679,0 1.21679,0 1.21679,0 1.21679,0 1.21679,0 1.21679,0 1.21679,0 1.21679,0 1.21679,0 1.21679,0 1.21679,0 1.21679,0 1.21679,0 1.21679,0 1.21679,0 1.21679,0 1.21679,0 1.21679,0 1.21679,0 1.21679,0 1.21679,0 1.21679,0 1.21679,0 1.21679,0 1.21679,0 1.21679,0 1.21679,0 1.21679,0 1.21679,0 1.21679,0 1.21679,0 1.21679,0 1.21679,0 1.21679,0 1.21679,0 1.21679,0 1.21679,0 1.21679,0 1.21679,0 1.21679,0 1.21679,0 1.21679,0 1.21679,0 1.21679,0 1.21679,0 1.21679,0 1.21679,0 1.21679,0 1.21679,0 1.21679,0 1.21679,0 1.21679,0 1.21679,0 1.21679,0 1.21679,0 1.21679,0 1.21679,0 1.21679,0 1.21679,0 1.21679,0 1.21679,0 1.21679,0 1.21679,0 1.21679,0 1.21679,0 1.21679,0 1.21679,0 1.21679,0 1.21679,0 1.21679,0 1.21679,0 1.21679,0 1.21679,0 1.21679,0 1.21679,0 1.21679,0 1.21679,0 1.21679,0 1.21679,0 1.21679,0 1.21679,0 1.21679,0 1.21679,0 1.21679,0 1.21679,0 1.21679,0 1.21679,0 1.21679,0 1.21679,0 1.21679,0 1.21679,0 1.21679,0 1.21679,0 1.21679,0 1.21679,0 1.21679,0 1.21679,0 1.21679,0 1.21679,0 1.21679,0 1.21679,0 1.21679,0 1.21679,0 1.21679,0 1.21679,0 1.21679,0 1.21679,0 1.21679,0 1.21679,0 1.21679,0 1.21679,0 1.21679,0 1.21679,0 1.21679,0 1.21679,0 1.21679,0 1.21679,0 1.21679,0 1.21679,0 1.21679,0 1.21679,0 1.21679,0 1.21679,0 1.21679,0 1.21679,0 1.21679,0 1.21679,0 1.21679,0 1.21679,0 1.21679,0 1.21679,0 1.21679,0 1.21679,0 1.21679,0 1.21679,0 1.21679,0 1.21679,0 1.21679,0 1.21679,0 1.21679,0 1.21679,0 1.21679,0 1.21679,0 1.21679,0 1.21679,0 1.21679,0 1.21679,0 1.21679,0 1.21679,0 1.21679,0 1.21679,0 1.21679,0 1.21679,0 1.21679,0 1.21679,0 1.21679,0 1.21679,0 1.21679,0 1.21679,0 1.21679,0 1.21679,0 1.21679,0 1.21679,0 1.21679,0 1.21679,0 1.21679,0"
                       vector-effect="non-scaling-stroke"
                       id="path92"
                       inkscape:connector-curvature="0" />
                  </g>
                </g>
              </g>
            </g>
          </g>
        </g>
      </g>
      <g
         id="PlotItem_3"
         style="fill:none;stroke:#000000;stroke-width:1;stroke-linecap:square;stroke-linejoin:bevel">
        <g
           id="AxisItem_2"
           style="fill:none;stroke:#000000;stroke-width:1;stroke-linecap:square;stroke-linejoin:bevel">
          <g
             font-size="11.875"
             font-style="normal"
             font-weight="400"
             id="g96"
             style="font-size:11.875px;font-style:normal;font-weight:400;fill:none;stroke:#969696;stroke-width:1;stroke-linecap:square;stroke-linejoin:bevel;stroke-opacity:1;font-family:Sans Serif">
            <polyline
               points="45.0,163.667 45.0,237.780566312"
               vector-effect="non-scaling-stroke"
               id="polyline98"
               style="fill:none" />
          </g>
          <g
             font-size="11.875"
             font-style="normal"
             font-weight="400"
             id="g100"
             style="font-size:11.875px;font-style:normal;font-weight:400;fill:none;stroke:#969696;stroke-width:1;stroke-linecap:square;stroke-linejoin:bevel;stroke-opacity:1;font-family:Sans Serif">
            <polyline
               points="45.5,200.723833688 50.5,200.723833688"
               vector-effect="non-scaling-stroke"
               id="polyline102"
               style="fill:none" />
          </g>
          <g
             font-size="11.875"
             font-style="normal"
             font-weight="400"
             id="g104"
             style="font-size:11.875px;font-style:normal;font-weight:400;fill:none;stroke:#969696;stroke-width:1;stroke-linecap:square;stroke-linejoin:bevel;stroke-opacity:0.49803904;font-family:Sans Serif">
            <polyline
               points="45.5,236.355361784 48.8333,236.355361784"
               vector-effect="non-scaling-stroke"
               id="polyline106"
               style="fill:none" />
            <polyline
               points="45.5,165.092265166 48.8333,165.092265166"
               vector-effect="non-scaling-stroke"
               id="polyline108"
               style="fill:none" />
          </g>
          <g
             font-size="11.875"
             font-style="normal"
             font-weight="400"
             id="g110"
             style="font-size:11.875px;font-style:normal;font-weight:400;fill:none;stroke:#969696;stroke-width:1;stroke-linecap:square;stroke-linejoin:bevel;stroke-opacity:0.33333297;font-family:Sans Serif">
            <polyline
               points="45.5,229.229035952 48.0,229.229035952"
               vector-effect="non-scaling-stroke"
               id="polyline112"
               style="fill:none" />
            <polyline
               points="45.5,222.10271012 48.0,222.10271012"
               vector-effect="non-scaling-stroke"
               id="polyline114"
               style="fill:none" />
            <polyline
               points="45.5,214.976384288 48.0,214.976384288"
               vector-effect="non-scaling-stroke"
               id="polyline116"
               style="fill:none" />
            <polyline
               points="45.5,207.850058456 48.0,207.850058456"
               vector-effect="non-scaling-stroke"
               id="polyline118"
               style="fill:none" />
            <polyline
               points="45.5,193.597507856 48.0,193.597507856"
               vector-effect="non-scaling-stroke"
               id="polyline120"
               style="fill:none" />
            <polyline
               points="45.5,186.471182024 48.0,186.471182024"
               vector-effect="non-scaling-stroke"
               id="polyline122"
               style="fill:none" />
            <polyline
               points="45.5,179.344856192 48.0,179.344856192"
               vector-effect="non-scaling-stroke"
               id="polyline124"
               style="fill:none" />
            <polyline
               points="45.5,172.218570786 48.0,172.218570786"
               vector-effect="non-scaling-stroke"
               id="polyline126"
               style="fill:none" />
          </g>
          <g
             font-size="11.875"
             font-style="normal"
             font-weight="400"
             transform="matrix(1,0,0,1.01064,5.5,163.667)"
             id="g128"
             style="font-size:11.875px;font-style:normal;font-weight:400;fill:none;stroke:#969696;stroke-width:1;stroke-linecap:square;stroke-linejoin:bevel;stroke-opacity:1;font-family:Sans Serif">
            <text
               font-size="11.875"
               font-style="normal"
               font-weight="400"
               x="31"
               xml:space="preserve"
               y="40.6562"
               id="text130"
               style="font-size:11.875px;font-style:normal;font-weight:400;fill:#969696;fill-opacity:1;stroke:none">0</text>
            <text
               font-size="11.875"
               font-style="normal"
               font-weight="400"
               x="19"
               xml:space="preserve"
               y="75.921898"
               id="text132"
               style="font-size:11.875px;font-style:normal;font-weight:400;fill:#969696;fill-opacity:1;stroke:none">-10</text>
            <text
               font-size="11.875"
               font-style="normal"
               font-weight="400"
               x="23"
               xml:space="preserve"
               y="5.4218798"
               id="text134"
               style="font-size:11.875px;font-style:normal;font-weight:400;fill:#969696;fill-opacity:1;stroke:none">10</text>
          </g>
        </g>
        <g
           id="ViewBox_3"
           style="fill:none;stroke:#000000;stroke-width:1;stroke-linecap:square;stroke-linejoin:bevel">
          <g
             font-size="11.875"
             font-style="normal"
             font-weight="400"
             id="g137"
             style="font-size:11.875px;font-style:normal;font-weight:400;fill:none;stroke:none;font-family:Sans Serif">
            <path
               d="m 45,163.667 616,0 0,73.3333 -616,0 0,-73.3333"
               vector-effect="non-scaling-stroke"
               id="path139"
               inkscape:connector-curvature="0" />
          </g>
          <clipPath
             id="ViewBox_3_clip">
            <path
               d="m 45,163.667 616,0 0,73.333 -616,0 0,-73.333"
               vector-effect="non-scaling-stroke"
               id="path142"
               inkscape:connector-curvature="0" />
          </clipPath>
          <g
             clip-path="url(#ViewBox_3_clip)"
             id="g144">
            <g
               id="ChildGroup_3"
               style="fill:none;stroke:#000000;stroke-width:1;stroke-linecap:square;stroke-linejoin:bevel">
              <g
                 id="InfiniteLine_2"
                 style="fill:none;stroke:#000000;stroke-width:1;stroke-linecap:square;stroke-linejoin:bevel">
                <g
                   font-size="11.875"
                   font-style="normal"
                   font-weight="400"
                   id="g148"
                   style="font-size:11.875px;font-style:normal;font-weight:400;fill:none;stroke:#e6e6af;stroke-width:1;stroke-linecap:square;stroke-linejoin:bevel;stroke-opacity:1;font-family:Sans Serif">
                  <polyline
                     points="661.00268021,200.333 44.999982536,200.333"
                     vector-effect="non-scaling-stroke"
                     id="polyline150"
                     style="fill:none" />
                </g>
              </g>
              <g
                 id="PlotDataItem_3">
                <g
                   id="PlotCurveItem_3"
                   style="fill:none;stroke:#000000;stroke-width:1;stroke-linecap:square;stroke-linejoin:bevel">
                  <g
                     font-size="11.875"
                     font-style="normal"
                     font-weight="400"
                     id="g154"
                     style="font-size:11.875px;font-style:normal;font-weight:400;fill:none;stroke:#00ff00;stroke-width:1;stroke-linecap:square;stroke-linejoin:bevel;stroke-opacity:1;font-family:Sans Serif">
                    <path
                       d="m 29.4743,200.36709 1.21667,-0.0113 1.21667,-0.0536 1.21667,-0.10016 1.21667,-0.0438 1.21667,0.0348 1.21667,-0.0355 1.21667,-0.0501 1.21667,-0.0867 1.21667,0.0175 1.21667,-0.1502 1.21667,0.1093 1.21667,-0.13073 1.21667,0.0158 1.21667,-0.13796 1.21667,-0.0965 1.21667,-0.10721 1.21667,0.0464 1.21667,-0.0956 1.21667,-0.11194 1.21667,-0.0452 1.21667,-0.0989 1.21667,-0.17205 1.21667,-0.0158 1.21667,-0.084 1.21667,-0.0946 1.21667,-0.19243 1.21667,-0.083 1.21667,-0.0252 1.21667,-0.17381 1.21667,-0.0512 1.21667,-0.0442 1.21667,-0.1564 1.21667,-0.0569 1.21667,-0.0883 1.21667,-0.16394 1.21667,-0.16867 1.21667,-0.0843 1.21667,-0.2011 1.21667,-0.15834 1.21667,-0.14363 1.21667,-0.14053 1.21667,-0.0367 1.21667,-0.20428 1.21667,-0.13313 1.21667,-0.16634 1.21667,-0.10411 1.21667,-0.1454 1.21667,-0.0945 1.21667,-0.2029 1.21667,-0.17798 1.21667,-0.15453 1.21667,-0.10436 1.21667,-0.10065 1.21667,-0.0496 1.21667,-0.13609 1.21667,-0.21171 1.21667,-0.0237 1.21667,-0.19832 1.21667,-0.15587 1.21667,-0.1021 1.21667,-0.14737 1.21667,-0.11053 1.21667,-0.14215 1.21667,-0.19903 1.21667,-0.18083 1.21667,-0.21467 1.21667,-0.19021 1.21667,-0.1766 1.21667,-0.12403 1.21667,-0.14674 1.21667,-0.13863 1.21667,-0.26551 1.21667,-0.12227 1.21667,-0.22956 1.21667,-0.19056 1.21667,-0.21302 1.21667,-0.0631 1.21667,-0.17427 1.21667,-0.097 1.21667,-0.15009 1.21667,-0.0903 1.21667,-0.21196 1.21667,-0.21182 1.21667,-0.22758 1.21667,-0.14678 1.21667,-0.21351 1.21667,-0.10609 1.21667,-0.0726 1.21667,-0.1832 1.21667,-0.11884 1.21667,-0.11579 1.21667,-0.12272 1.21667,-0.18782 1.21667,-0.19489 1.21667,-0.11483 1.21667,-0.1478 1.21667,-0.22948 1.21667,-0.2077 1.21667,-0.13947 1.21667,-0.12717 1.21667,-0.16345 1.21667,-0.15767 1.21667,-0.0401 1.21667,-0.17093 1.21667,0.0406 1.21667,-0.11359 1.21667,-0.24644 1.21667,-0.12809 1.21667,-0.20643 1.21667,-0.0473 1.21667,-0.0627 1.21667,-0.0738 1.21667,-0.11719 1.21667,-0.21672 1.21667,-0.12767 1.21667,-0.13408 1.21667,-0.1028 1.21667,-0.0293 1.21667,-0.27411 1.21667,-0.17005 1.21667,-0.23759 1.21667,-0.11078 1.21667,-0.10605 1.21667,-0.1223 1.21667,-0.23467 1.21667,-0.1241 1.21667,-0.0256 1.21667,-0.1833 1.21667,-0.17032 1.21667,-0.18411 1.21667,-0.27063 1.21667,-0.24835 1.21667,-0.10689 1.21667,-0.0761 1.21667,-0.19233 1.21667,-0.0856 1.21667,-0.0861 1.21667,-0.16303 1.21667,-0.11243 1.21667,-0.20125 1.21667,-0.10612 1.21667,-0.18026 1.21667,-0.27458 1.21667,-0.22476 1.21667,-0.17699 1.21667,-0.17124 1.21667,-0.14539 1.21667,-0.16017 1.21667,-0.13274 1.21667,-0.24342 1.21667,-0.17342 1.21667,-0.0494 1.21667,-0.099 1.21667,-0.15459 1.21667,-0.15034 1.21667,-0.11574 1.21667,-0.14755 1.21667,-0.17882 1.21667,-0.22311 1.21667,-0.12572 1.21667,-0.22998 1.21667,-0.15604 1.21667,-0.0905 1.21667,-0.16218 1.21667,-0.22719 1.21667,-0.23989 1.21667,-0.12696 1.21667,-0.12519 1.21667,-0.16913 1.21667,-0.15551 1.21667,-0.23798 1.21667,-0.19441 1.21667,-0.20896 1.21667,-0.19705 1.21667,-0.17381 1.21667,-0.16056 1.21667,-0.2011 1.21667,-0.23936 1.21667,-0.18474 1.21667,-0.26714 1.21667,-0.25744 1.21667,-0.23731 1.21667,-0.1601 1.21667,-0.25875 1.21667,-0.21415 1.21667,-0.22677 1.21667,-0.17762 1.21667,-0.27739 1.21667,-0.27067 1.21667,-0.17208 1.21667,-0.34365 1.21667,-0.34516 1.21667,-0.19955 1.21667,-0.27422 1.21667,-0.23908 1.21667,-0.20255 1.21667,-0.25673 1.21667,-0.27017 1.21667,-0.36871 1.21667,-0.32341 1.21667,-0.39262 1.21667,-0.28515 1.21667,-0.29446 1.21667,-0.24105 1.21667,-0.32535 1.21667,-0.36219 1.21667,-0.40051 1.21667,-0.32182 1.21667,-0.30659 1.21667,-0.39459 1.21667,-0.32788 1.21667,-0.49116 1.21667,-0.46559 1.21667,-0.40383 1.21667,-0.25896 1.21667,0 1.21667,0 1.21667,0 1.21667,0 1.21667,0.0745 1.21667,0.008 1.21667,-0.0822 1.21667,0.03 1.21667,0.0615 1.21667,-0.0912 1.21667,-2.5e-4 1.21667,0.008 1.21667,-0.008 1.21667,0 1.21667,0.066 1.21667,0.004 1.21667,-0.0565 1.21667,0.0321 1.21667,-0.046 1.21667,3.9e-4 1.21667,0.0782 1.21667,0.0886 1.21667,-0.0928 1.21667,0.009 1.21667,0.007 1.21667,-0.008 1.21667,-0.018 1.21667,0.0758 1.21667,-0.0387 1.21667,0.0411 1.21667,-0.0937 1.21667,0.003 1.21667,0.0717 1.21667,-0.0624 1.21667,0.0399 1.21667,-0.0292 1.21667,0.0236 1.21667,0.0411 1.21667,0.0298 1.21667,-0.0155 1.21667,0.0292 1.21667,0.0113 1.21667,-0.005 1.21667,-0.0721 1.21667,0.0737 1.21667,-0.0558 1.21667,0.0165 1.21667,0.0271 1.21667,0.018 1.21667,-0.003 1.21667,0.10373 1.21667,0.0313 1.21667,0.0341 1.21667,-0.003 1.21667,-0.003 1.21667,-0.0234 1.21667,-0.0315 1.21667,0.0105 1.21667,-0.0536 1.21667,0.003 1.21667,0.0198 1.21667,0.006 1.21667,0.0715 1.21667,-0.0251 1.21667,0.0447 1.21667,-0.0504 1.21667,0.0111 1.21667,0.0427 1.21667,0.0222 1.21667,-0.0706 1.21667,0.0254 1.21667,0.008 1.21667,0.0117 1.21667,-0.008 1.21667,-0.0553 1.21667,0.0576 1.21667,0.004 1.21667,-0.0411 1.21667,0.0202 1.21667,0.0628 1.21667,0.0611 1.21667,0.0648 1.21667,0.0225 1.21667,0.0185 1.21667,-0.0555 1.21667,-0.03 1.21667,0.005 1.21667,-0.008 1.21667,-0.0391 1.21667,0.0511 1.21667,-0.0117 1.21667,0.0426 1.21667,0.0366 1.21667,0.005 1.21667,0.0306 1.21667,-0.0741 1.21667,-0.14366 1.21667,0.0773 1.21667,0.0185 1.21667,0.13179 1.21667,-0.0177 1.21667,0.0296 1.21667,0.0153 1.21667,0.0186 1.21667,0.058 1.21667,-0.007 1.21667,0.0273 1.21667,0.0498 1.21667,4.2e-4 1.21667,0.0593 1.21667,0.0892 1.21667,0.008 1.21667,0.0776 1.21667,0.0198 1.21667,-0.0679 1.21667,-1.4e-4 1.21667,0.0507 1.21667,-0.0273 1.21667,-0.0511 1.21667,0.0292 1.21667,0.0754 1.21667,0.0271 1.21667,-0.037 1.21667,0.0657 1.21667,-0.0258 1.21667,0.0244 1.21667,-0.0875 1.21667,-0.009 1.21667,0.0102 1.21667,-0.0634 1.21667,0.0366 1.21667,-0.0625 1.21667,0.0251 1.21667,-0.0388 1.21667,0.0275 1.21667,-0.083 1.21667,0.0107 1.21667,-0.0458 1.21667,0.0547 1.21667,-0.0795 1.21667,-0.0163 1.21667,-0.0274 1.21667,0.0283 1.21667,-0.0246 1.21667,0.0551 1.21667,-0.074 1.21667,-0.0468 1.21667,0.0435 1.21667,0.006 1.21667,-0.0372 1.21667,-0.002 1.21667,0.0591 1.21667,-0.021 1.21667,-0.079 1.21667,0.049 1.21667,0.12904 1.21667,-0.0219 1.21667,-0.041 1.21667,-0.0555 1.21667,-0.0395 1.21667,-0.0312 1.21667,0.0659 1.21667,-0.12756 1.21667,-0.14769 1.21667,-0.0888 1.21667,0.0244 1.21667,0.0234 1.21667,-0.0436 1.21667,-0.0648 1.21667,0.0333 1.21667,-0.0696 1.21667,-0.0913 1.21667,0.0299 1.21667,0.0253 1.21667,0.10122 1.21667,0.0958 1.21667,0.0799 1.21667,-0.1081 1.21667,0.0138 1.21667,-0.006 1.21667,0.0177 1.21667,0.0245 1.21667,-0.008 1.21667,-0.0318 1.21667,0.0878 1.21667,0.0351 1.21667,-0.0439 1.21667,-0.0208 1.21667,-0.0492 1.21667,-0.0267 1.21667,-0.009 1.21667,0.0776 1.21667,-0.0527 1.21667,-0.0617 1.21667,-0.004 1.21667,-0.0268 1.21667,0.0508 1.21667,0.0242 1.21667,-0.0184 1.21667,-0.0725 1.21667,-0.056 1.21667,0.0143 1.21667,0.008 1.21667,0.0185 1.21667,-0.11318 1.21667,-0.0106 1.21667,5.6e-4 1.21667,-0.0661 1.21667,0.0445 1.21667,0.0765 1.21667,-0.072 1.21667,0.0823 1.21667,-0.0147 1.21667,0.005 1.21667,-0.0787 1.21667,0.003 1.21667,-0.004 1.21667,0.018 1.21667,0.003 1.21667,0.0101 1.21667,-0.0171 1.21667,-0.0161 1.21667,-0.0177 1.21667,-0.003 1.21667,-0.0916 1.21667,0.0207 1.21667,-0.0104 1.21667,-0.0288 1.21667,0.002 1.21667,-0.002 1.21667,0 1.21667,2.5e-4 1.21667,0.0582 1.21667,-0.0566 1.21667,0.0471 1.21667,-0.0471 1.21667,-3.9e-4 1.21667,0.0282 1.21667,0.0547 1.21667,0.042 1.21667,-0.0412 1.21667,0.0607 1.21667,-0.0449 1.21667,-0.003 1.21667,0.007 1.21667,3.9e-4 1.21667,0.0635 1.21667,0.0957 1.21667,-0.0637 1.21667,-0.0265 1.21667,-0.13475 1.21667,-0.0379 1.21667,-1e-4 1.21667,0.0955 1.21667,-0.023 1.21667,0.0133 1.21667,0.0173 1.21667,-0.012 1.21667,0.0561 1.21667,-0.10298 1.21667,-0.0354 1.21667,1.1e-4 1.21667,0.11264 1.21667,0.0237 1.21667,-0.006 1.21667,-0.0823 1.21667,-0.016 1.21667,0.0455 1.21667,-0.0716 1.21667,-0.0101 1.21667,0.0656 1.21667,0.0946 1.21667,0.0521 1.21667,0.0273 1.21667,-0.0318 1.21667,-0.0239 1.21667,0.0209 1.21667,0.12428 1.21667,-0.0129 1.21667,-0.0676 1.21667,-0.0837 1.21667,0.0233 1.21667,-0.0672 1.21667,-6.7e-4"
                       vector-effect="non-scaling-stroke"
                       id="path156"
                       inkscape:connector-curvature="0" />
                  </g>
                </g>
              </g>
            </g>
          </g>
        </g>
      </g>
      <g
         id="PlotItem_4"
         style="fill:none;stroke:#000000;stroke-width:1;stroke-linecap:square;stroke-linejoin:bevel">
        <g
           id="ViewBox_4"
           style="fill:none;stroke:#000000;stroke-width:1;stroke-linecap:square;stroke-linejoin:bevel">
          <g
             font-size="11.875"
             font-style="normal"
             font-weight="400"
             id="g160"
             style="font-size:11.875px;font-style:normal;font-weight:400;fill:none;stroke:none;font-family:Sans Serif">
            <path
               d="m 5,243 656,0 0,73.3333 -656,0 L 5,243"
               vector-effect="non-scaling-stroke"
               id="path162"
               inkscape:connector-curvature="0" />
          </g>
          <clipPath
             id="ViewBox_4_clip">
            <path
               d="m 5,243 656,0 0,73.333 -656,0 L 5,243"
               vector-effect="non-scaling-stroke"
               id="path165"
               inkscape:connector-curvature="0" />
          </clipPath>
          <g
             clip-path="url(#ViewBox_4_clip)"
             id="g167">
            <g
               id="ChildGroup_4"
               style="fill:none;stroke:#000000;stroke-width:1;stroke-linecap:square;stroke-linejoin:bevel">
              <g
                 id="PlotDataItem_4">
                <g
                   id="PlotCurveItem_4"
                   style="fill:none;stroke:#000000;stroke-width:1;stroke-linecap:square;stroke-linejoin:bevel">
                  <g
                     font-size="11.875"
                     font-style="normal"
                     font-weight="400"
                     id="g172"
                     style="font-size:11.875px;font-style:normal;font-weight:400;fill:none;stroke:#005500;stroke-width:1;stroke-linecap:square;stroke-linejoin:bevel;stroke-opacity:1;font-family:Sans Serif">
                    <path
                       d="m 29.4119,314.923 1.21679,0 1.21679,0 1.21679,0 1.21679,0 1.21679,0 1.21679,0 1.21679,0 1.21679,0 1.21679,0 1.21679,0 1.21679,0 1.21679,0 1.21679,0 1.21679,0 1.21679,0 1.21679,0 1.21679,0 1.21679,0 1.21679,0 1.21679,0 1.21679,0 1.21679,0 1.21679,0 1.21679,0 1.21679,0 1.21679,0 1.21679,0 1.21679,0 1.21679,0 1.21679,0 1.21679,0 1.21679,0 1.21679,0 1.21679,0 1.21679,0 1.21679,0 1.21679,0 1.21679,0 1.21679,0 1.21679,0 1.21679,0 1.21679,0 1.21679,0 1.21679,0 1.21679,0 1.21679,0 1.21679,0 1.21679,0 1.21679,0 1.21679,0 1.21679,0 1.21679,0 1.21679,0 1.21679,0 1.21679,0 1.21679,0 1.21679,0 1.21679,0 1.21679,0 1.21679,0 1.21679,0 1.21679,0 1.21679,0 1.21679,0 1.21679,0 1.21679,0 1.21679,0 1.21679,0 1.21679,0 1.21679,0 1.21679,0 1.21679,0 1.21679,0 1.21679,0 1.21679,0 1.21679,0 1.21679,0 1.21679,0 1.21679,0 1.21679,0 1.21679,0 1.21679,0 1.21679,0 1.21679,0 1.21679,0 1.21679,0 1.21679,0 1.21679,0 1.21679,0 1.21679,0 1.21679,0 1.21679,0 1.21679,0 1.21679,0 1.21679,0 1.21679,0 1.21679,0 1.21679,0 1.21679,0 1.21679,0 1.21679,0 1.21679,0 1.21679,0 1.21679,0 1.21679,0 1.21679,0 1.21679,0 1.21679,0 1.21679,0 1.21679,0 1.21679,0 1.21679,0 1.21679,0 1.21679,0 1.21679,0 1.21679,0 1.21679,0 1.21679,0 1.21679,0 1.21679,0 1.21679,0 1.21679,0 1.21679,0 1.21679,0 1.21679,0 1.21679,0 1.21679,0 1.21679,0 1.21679,0 1.21679,0 1.21679,0 1.21679,0 1.21679,0 1.21679,0 1.21679,0 1.21679,0 1.21679,0 1.21679,0 1.21679,0 1.21679,0 1.21679,0 1.21679,0 1.21679,0 1.21679,0 1.21679,0 1.21679,0 1.21679,0 1.21679,0 1.21679,0 1.21679,0 1.21679,0 1.21679,0 1.21679,0 1.21679,0 1.21679,0 1.21679,0 1.21679,0 1.21679,0 1.21679,0 1.21679,0 1.21679,0 1.21679,0 1.21679,0 1.21679,0 1.21679,0 1.21679,0 1.21679,0 1.21679,0 1.21679,0 1.21679,0 1.21679,0 1.21679,0 1.21679,0 1.21679,0 1.21679,0 1.21679,0 1.21679,0 1.21679,0 1.21679,0 1.21679,0 1.21679,0 1.21679,0 1.21679,0 1.21679,0 1.21679,0 1.21679,0 1.21679,0 1.21679,0 1.21679,0 1.21679,0 1.21679,0 1.21679,0 1.21679,0 1.21679,0 1.21679,0 1.21679,0 1.21679,0 1.21679,0 1.21679,0 1.21679,0 1.21679,0 1.21679,0 1.21679,0 1.21679,0 1.21679,0 1.21679,0 1.21679,0 1.21679,0 1.21679,0 1.21679,0 1.21679,0 1.21679,0 1.21679,0 1.21679,0 1.21679,0 1.21679,0 1.21679,0 1.21679,0 1.21679,0 1.21679,0 1.21679,0 1.21679,0 1.21679,0 1.21679,0 1.21679,0 1.21679,0 1.21679,0 1.21679,0 1.21679,0 1.21679,0 1.21679,0 1.21679,0 1.21679,0 1.21679,0 1.21679,0 1.21679,0 1.21679,0 1.21679,0 1.21679,0 1.21679,0 1.21679,0 1.21679,0 1.21679,0 1.21679,0 1.21679,0 1.21679,0 1.21679,0 1.21679,0 1.21679,0 1.21679,0 1.21679,0 1.21679,0 1.21679,0 1.21679,0 1.21679,0 1.21679,0 1.21679,0 1.21679,0 1.21679,0 1.21679,0 1.21679,0 1.21679,0 1.21679,0 1.21679,0 1.21679,0 1.21679,0 1.21679,0 1.21679,0 1.21679,0 1.21679,0 1.21679,0 1.21679,0 1.21679,0 1.21679,0 1.21679,0 1.21679,0 1.21679,0 1.21679,0 1.21679,0 1.21679,0 1.21679,0 1.21679,0 1.21679,0 1.21679,0 1.21679,0 1.21679,0 1.21679,0 1.21679,0 1.21679,0 1.21679,0 1.21679,0 1.21679,0 1.21679,0 1.21679,0 1.21679,0 1.21679,0 1.21679,0 1.21679,0 1.21679,0 1.21679,0 1.21679,0 1.21679,0 1.21679,0 1.21679,0 1.21679,0 1.21679,0 1.21679,0 1.21679,0 1.21679,0 1.21679,0 1.21679,0 1.21679,0 1.21679,0 1.21679,0 1.21679,0 1.21679,0 1.21679,0 1.21679,0 1.21679,0 1.21679,0 1.21679,0 1.21679,0 1.21679,0 1.21679,0 1.21679,0 1.21679,0 1.21679,0 1.21679,0 1.21679,0 1.21679,0 1.21679,0 1.21679,0 1.21679,0 1.21679,0 1.21679,0 1.21679,0 1.21679,0 1.21679,0 1.21679,0 1.21679,0 1.21679,0 1.21679,0 1.21679,0 1.21679,0 1.21679,0 1.21679,0 1.21679,0 1.21679,0 1.21679,0 1.21679,0 1.21679,0 1.21679,0 1.21679,0 1.21679,0 1.21679,0 1.21679,0 1.21679,0 1.21679,0 1.21679,0 1.21679,0 1.21679,0 1.21679,0 1.21679,0 1.21679,0 1.21679,0 1.21679,0 1.21679,0 1.21679,0 1.21679,0 1.21679,0 1.21679,0 1.21679,0 1.21679,0 1.21679,0 1.21679,0 1.21679,0 1.21679,0 1.21679,0 1.21679,0 1.21679,0 1.21679,0 1.21679,0 1.21679,0 1.21679,0 1.21679,0 1.21679,0 1.21679,0 1.21679,0 1.21679,0 1.21679,0 1.21679,0 1.21679,0 1.21679,0 1.21679,0 1.21679,0 1.21679,0 1.21679,0 1.21679,0 1.21679,0 1.21679,0 1.21679,0 1.21679,0 1.21679,0 1.21679,0 1.21679,0 1.21679,0 1.21679,0 1.21679,0 1.21679,0 1.21679,0 1.21679,0 1.21679,0 1.21679,0 1.21679,0 1.21679,0 1.21679,0 1.21679,0 1.21679,0 1.21679,0 1.21679,0 1.21679,0 1.21679,0 1.21679,0 1.21679,0 1.21679,0 1.21679,0 1.21679,0 1.21679,0 1.21679,0 1.21679,0 1.21679,0 1.21679,0 1.21679,0 1.21679,0 1.21679,0 1.21679,0 1.21679,0 1.21679,0 1.21679,0 1.21679,0 1.21679,0 1.21679,0 1.21679,0 1.21679,0 1.21679,0 1.21679,0 1.21679,0 1.21679,0 1.21679,0 1.21679,0 1.21679,0 1.21679,0 1.21679,0 1.21679,0 1.21679,0 1.21679,0 1.21679,0 1.21679,0 1.21679,0 1.21679,0 1.21679,0 1.21679,0 1.21679,0 1.21679,0 1.21679,0 1.21679,0 1.21679,0 1.21679,0 1.21679,0 1.21679,0 1.21679,0 1.21679,0 1.21679,0 1.21679,0 1.21679,0 1.21679,0 1.21679,0 1.21679,0 1.21679,0 1.21679,0 1.21679,0 1.21679,0 1.21679,0 1.21679,0 1.21679,0 1.21679,0 1.21679,0 1.21679,0 1.21679,0 1.21679,0 1.21679,0 1.21679,0 1.21679,0 1.21679,0 1.21679,0 1.21679,0 1.21679,0 1.21679,0 1.21679,0"
                       vector-effect="non-scaling-stroke"
                       id="path174"
                       inkscape:connector-curvature="0" />
                  </g>
                </g>
              </g>
            </g>
          </g>
        </g>
      </g>
      <g
         id="PlotItem_5"
         style="fill:none;stroke:#000000;stroke-width:1;stroke-linecap:square;stroke-linejoin:bevel">
        <g
           id="AxisItem_3"
           style="fill:none;stroke:#000000;stroke-width:1;stroke-linecap:square;stroke-linejoin:bevel">
          <g
             font-size="11.875"
             font-style="normal"
             font-weight="400"
             id="g178"
             style="font-size:11.875px;font-style:normal;font-weight:400;fill:none;stroke:#969696;stroke-width:1;stroke-linecap:square;stroke-linejoin:bevel;stroke-opacity:1;font-family:Sans Serif">
            <polyline
               points="45.0,322.333 45.0,396.446566312"
               vector-effect="non-scaling-stroke"
               id="polyline180"
               style="fill:none" />
          </g>
          <g
             font-size="11.875"
             font-style="normal"
             font-weight="400"
             id="g182"
             style="font-size:11.875px;font-style:normal;font-weight:400;fill:none;stroke:#969696;stroke-width:1;stroke-linecap:square;stroke-linejoin:bevel;stroke-opacity:1;font-family:Sans Serif">
            <polyline
               points="45.5,359.389833688 50.5,359.389833688"
               vector-effect="non-scaling-stroke"
               id="polyline184"
               style="fill:none" />
          </g>
          <g
             font-size="11.875"
             font-style="normal"
             font-weight="400"
             id="g186"
             style="font-size:11.875px;font-style:normal;font-weight:400;fill:none;stroke:#969696;stroke-width:1;stroke-linecap:square;stroke-linejoin:bevel;stroke-opacity:0.49803904;font-family:Sans Serif">
            <polyline
               points="45.5,395.021361784 48.8333,395.021361784"
               vector-effect="non-scaling-stroke"
               id="polyline188"
               style="fill:none" />
            <polyline
               points="45.5,323.758265166 48.8333,323.758265166"
               vector-effect="non-scaling-stroke"
               id="polyline190"
               style="fill:none" />
          </g>
          <g
             font-size="11.875"
             font-style="normal"
             font-weight="400"
             id="g192"
             style="font-size:11.875px;font-style:normal;font-weight:400;fill:none;stroke:#969696;stroke-width:1;stroke-linecap:square;stroke-linejoin:bevel;stroke-opacity:0.33333297;font-family:Sans Serif">
            <polyline
               points="45.5,387.895035952 48.0,387.895035952"
               vector-effect="non-scaling-stroke"
               id="polyline194"
               style="fill:none" />
            <polyline
               points="45.5,380.76871012 48.0,380.76871012"
               vector-effect="non-scaling-stroke"
               id="polyline196"
               style="fill:none" />
            <polyline
               points="45.5,373.642384288 48.0,373.642384288"
               vector-effect="non-scaling-stroke"
               id="polyline198"
               style="fill:none" />
            <polyline
               points="45.5,366.516058456 48.0,366.516058456"
               vector-effect="non-scaling-stroke"
               id="polyline200"
               style="fill:none" />
            <polyline
               points="45.5,352.263507856 48.0,352.263507856"
               vector-effect="non-scaling-stroke"
               id="polyline202"
               style="fill:none" />
            <polyline
               points="45.5,345.137182024 48.0,345.137182024"
               vector-effect="non-scaling-stroke"
               id="polyline204"
               style="fill:none" />
            <polyline
               points="45.5,338.010856192 48.0,338.010856192"
               vector-effect="non-scaling-stroke"
               id="polyline206"
               style="fill:none" />
            <polyline
               points="45.5,330.884570786 48.0,330.884570786"
               vector-effect="non-scaling-stroke"
               id="polyline208"
               style="fill:none" />
          </g>
          <g
             font-size="11.875"
             font-style="normal"
             font-weight="400"
             transform="matrix(1,0,0,1.01064,5.5,322.333)"
             id="g210"
             style="font-size:11.875px;font-style:normal;font-weight:400;fill:none;stroke:#969696;stroke-width:1;stroke-linecap:square;stroke-linejoin:bevel;stroke-opacity:1;font-family:Sans Serif">
            <text
               font-size="11.875"
               font-style="normal"
               font-weight="400"
               x="31"
               xml:space="preserve"
               y="40.6562"
               id="text212"
               style="font-size:11.875px;font-style:normal;font-weight:400;fill:#969696;fill-opacity:1;stroke:none">0</text>
            <text
               font-size="11.875"
               font-style="normal"
               font-weight="400"
               x="19"
               xml:space="preserve"
               y="75.921898"
               id="text214"
               style="font-size:11.875px;font-style:normal;font-weight:400;fill:#969696;fill-opacity:1;stroke:none">-10</text>
            <text
               font-size="11.875"
               font-style="normal"
               font-weight="400"
               x="23"
               xml:space="preserve"
               y="5.4218798"
               id="text216"
               style="font-size:11.875px;font-style:normal;font-weight:400;fill:#969696;fill-opacity:1;stroke:none">10</text>
          </g>
        </g>
        <g
           id="ViewBox_5"
           style="fill:none;stroke:#000000;stroke-width:1;stroke-linecap:square;stroke-linejoin:bevel">
          <g
             font-size="11.875"
             font-style="normal"
             font-weight="400"
             id="g219"
             style="font-size:11.875px;font-style:normal;font-weight:400;fill:none;stroke:none;font-family:Sans Serif">
            <path
               d="m 45,322.333 616,0 0,73.3333 -616,0 0,-73.3333"
               vector-effect="non-scaling-stroke"
               id="path221"
               inkscape:connector-curvature="0" />
          </g>
          <clipPath
             id="ViewBox_5_clip">
            <path
               d="m 45,322.333 616,0 0,73.334 -616,0 0,-73.334"
               vector-effect="non-scaling-stroke"
               id="path224"
               inkscape:connector-curvature="0" />
          </clipPath>
          <g
             clip-path="url(#ViewBox_5_clip)"
             id="g226">
            <g
               id="ChildGroup_5"
               style="fill:none;stroke:#000000;stroke-width:1;stroke-linecap:square;stroke-linejoin:bevel">
              <g
                 id="InfiniteLine_3"
                 style="fill:none;stroke:#000000;stroke-width:1;stroke-linecap:square;stroke-linejoin:bevel">
                <g
                   font-size="11.875"
                   font-style="normal"
                   font-weight="400"
                   id="g230"
                   style="font-size:11.875px;font-style:normal;font-weight:400;fill:none;stroke:#e6e6af;stroke-width:1;stroke-linecap:square;stroke-linejoin:bevel;stroke-opacity:1;font-family:Sans Serif">
                  <polyline
                     points="661.00268021,359.0 44.999982536,359.0"
                     vector-effect="non-scaling-stroke"
                     id="polyline232"
                     style="fill:none" />
                </g>
              </g>
              <g
                 id="PlotDataItem_5">
                <g
                   id="PlotCurveItem_5"
                   style="fill:none;stroke:#000000;stroke-width:1;stroke-linecap:square;stroke-linejoin:bevel">
                  <g
                     font-size="11.875"
                     font-style="normal"
                     font-weight="400"
                     id="g236"
                     style="font-size:11.875px;font-style:normal;font-weight:400;fill:none;stroke:#0000ff;stroke-width:1;stroke-linecap:square;stroke-linejoin:bevel;stroke-opacity:1;font-family:Sans Serif">
                    <path
                       d="m 29.4743,350.96158 1.21667,0.98714 1.21667,-1.33974 1.21667,0.24679 1.21667,0.74039 1.21667,0.98718 1.21667,-4.40705 1.21667,3.3141 1.21667,0.91666 1.21667,-1.41025 1.21667,-1.55128 1.21667,-0.49359 1.21667,1.55128 1.21667,1.375 1.21667,1.02243 1.21667,0.88141 1.21667,-3.8782 1.21667,2.57372 1.21667,-1.83334 1.21667,2.32693 1.21667,-2.04488 1.21667,-1.76282 1.21667,1.41026 1.21667,0.84615 1.21667,-0.24679 1.21667,0 1.21667,1.16346 1.21667,-1.83333 1.21667,2.22115 1.21667,-0.98718 1.21667,-1.65701 1.21667,2.08009 1.21667,-1.48077 1.21667,-2.04487 1.21667,3.91346 1.21667,-1.30449 1.21667,1.72757 1.21667,0.45833 1.21667,-0.10577 1.21667,-0.14103 1.21667,-1.05769 1.21667,-1.1282 1.21667,2.18589 1.21667,-3.59615 1.21667,2.32696 1.21667,-0.28209 1.21667,0.0353 1.21667,-0.5641 1.21667,2.29166 1.21667,-1.9391 1.21667,2.67949 1.21667,-3.27885 1.21667,-1.1282 1.21667,-0.49359 1.21667,2.15064 1.21667,-0.45834 1.21667,-0.5641 1.21667,1.72757 1.21667,-0.14103 1.21667,0.49359 1.21667,-0.88141 1.21667,-0.5641 1.21667,3.10256 1.21667,-0.74038 1.21667,-2.60898 1.21667,-0.35256 1.21667,0.38782 1.21667,1.12824 1.21667,0.24676 1.21667,0.42308 1.21667,-1.12821 1.21667,-0.59936 1.21667,0 1.21667,1.02244 1.21667,-0.66987 1.21667,1.1282 1.21667,1.33974 1.21667,-1.19871 1.21667,-0.59936 1.21667,1.62179 1.21667,-0.31731 1.21667,0.88141 1.21667,-3.24355 1.21667,-0.95196 1.21667,1.6218 1.21667,-1.58654 1.21667,5.11221 1.21667,-3.59619 1.21667,-0.95192 1.21667,-1.48077 1.21667,2.08013 1.21667,2.64423 1.21667,-0.5641 1.21667,-1.55128 1.21667,2.64423 1.21667,-4.79487 1.21667,0.88141 1.21667,0.91666 1.21667,0.2468 1.21667,1.16346 1.21667,0.45833 1.21667,-2.25641 1.21667,0.5641 1.21667,-1.30448 1.21667,2.11538 1.21667,-0.35256 1.21667,-1.09295 1.21667,0.74038 1.21667,0.21154 1.21667,2.43269 1.21667,0.2468 1.21667,-0.66987 1.21667,-3.10257 1.21667,1.76282 1.21667,-0.38782 1.21667,-2.22115 1.21667,4.90064 1.21667,-5.18269 1.21667,2.5032 1.21667,-0.35256 1.21667,0.21154 1.21667,-0.52885 1.21667,-1.02243 1.21667,0.52884 1.21667,-1.30449 1.21667,2.46795 1.21667,-0.98714 1.21667,-4e-5 1.21667,-1.97435 1.21667,1.33974 1.21667,-1.72757 1.21667,2.89103 1.21667,-1.62176 1.21667,1.90385 1.21667,2.22111 1.21667,-3.98393 1.21667,1.12817 1.21667,-0.59936 1.21667,-1.97436 1.21667,-0.38782 1.21667,2.78529 1.21667,-0.77568 1.21667,1.51606 1.21667,-3.6667 1.21667,0.91667 1.21667,-0.14103 1.21667,2.32693 1.21667,-0.8109 1.21667,0.45833 1.21667,-0.52884 1.21667,-2.1859 1.21667,-0.49359 1.21667,5.39423 1.21667,-3.98397 1.21667,-0.66988 1.21667,0.56411 1.21667,-0.0353 1.21667,-0.2468 1.21667,0.21154 1.21667,-1.05769 1.21667,0.70513 1.21667,2.00961 1.21667,0.2468 1.21667,-2.04487 1.21667,-1.51603 1.21667,1.9391 1.21667,-3.13782 1.21667,1.41026 1.21667,-1.76282 1.21667,1.26923 1.21667,-0.24679 1.21667,2.39743 1.21667,-2.32692 1.21667,0.38782 1.21667,2.39743 1.21667,-2.74999 1.21667,0.88141 1.21667,-1.26923 1.21667,-0.8109 1.21667,0.17628 1.21667,2.78526 1.21667,-1.55129 1.21667,-1.9391 1.21667,-1.375 1.21667,2.36218 1.21667,-1.97436 1.21667,0.31735 1.21667,-1.58658 1.21667,0.31731 1.21667,-0.0353 1.21667,-0.88141 1.21667,-1.02243 1.21667,1.33974 1.21667,-0.84615 1.21667,-1.76282 1.21667,0.42307 1.21667,-1.02243 1.21667,0.0353 1.21667,-0.0353 1.21667,-1.48077 1.21667,-1.69231 1.21667,0.84616 1.21667,-0.91667 1.21667,-2.25641 1.21667,-0.21154 1.21667,-2.75 1.21667,-0.52884 1.21667,-1.93911 1.21667,-1.1282 1.21667,-2.29167 1.21667,-0.88141 1.21667,0 1.21667,-0.0353 1.21667,0.0353 1.21667,-0.0353 1.21667,0 1.21667,0.0353 1.21667,-0.0353 1.21667,0 1.21667,0.0353 1.21667,-0.0353 1.21667,0.0353 1.21667,0 1.21667,-0.0353 1.21667,0.0353 1.21667,12.6218 1.21667,21.78845 1.21667,-1.72756 1.21667,0.66987 1.21667,0.66987 1.21667,2.71474 1.21667,-5.28846 1.21667,5.32372 1.21667,-1.48077 1.21667,0.35256 1.21667,-3.17307 1.21667,-0.45833 1.21667,6.31089 1.21667,-3.5609 1.21667,0.59936 1.21667,-1.6923 1.21667,-1.33975 1.21667,0.59936 1.21667,3.24359 1.21667,-0.84615 1.21667,-3.70193 1.21667,6.73398 1.21667,-3.5609 1.21667,0.31731 1.21667,0.0353 1.21667,1.12817 1.21667,-0.17628 1.21667,0.74042 1.21667,-0.31735 1.21667,0.0705 1.21667,1.48077 1.21667,-3.03205 1.21667,1.1282 1.21667,-2.75 1.21667,0.35257 1.21667,0.35256 1.21667,2.92628 1.21667,-0.91667 1.21667,-0.17628 1.21667,-1.62179 1.21667,0.0705 1.21667,-0.21154 1.21667,0.42308 1.21667,-0.45833 1.21667,1.58653 1.21667,-1.48077 1.21667,2.85577 1.21667,-7.29807 1.21667,2.53846 1.21667,3.59615 1.21667,0.17628 1.21667,-3.84294 1.21667,2.82051 1.21667,0.70513 1.21667,-2.92625 1.21667,3.49035 1.21667,-2.32692 1.21667,2.08012 1.21667,2.39744 1.21667,-4.9359 1.21667,2.43269 1.21667,1.93911 1.21667,-5.57051 1.21667,1.05769 1.21667,0.5641 1.21667,-0.45833 1.21667,0.98718 1.21667,-2.29167 1.21667,4.23077 1.21667,-3.3141 1.21667,1.48077 1.21667,-0.2468 1.21667,3.10256 1.21667,-0.5641 1.21667,-4.30128 1.21667,3.03205 1.21667,-1.51602 1.21667,1.9391 1.21667,-0.74039 1.21667,0.2468 1.21667,-2.25641 1.21667,3.91346 1.21667,-4.6891 1.21667,3.52564 1.21667,-1.69231 1.21667,0.91667 1.21667,-1.09295 1.21667,-0.14103 1.21667,1.55128 1.21667,0.21154 1.21667,-3.10256 1.21667,1.69231 1.21667,0.45833 1.21667,2.00961 1.21667,0.77565 1.21667,-0.31731 1.21667,-0.66987 1.21667,-0.0353 1.21667,-2.43269 1.21667,-0.45833 1.21667,1.30448 1.21667,-1.16346 1.21667,1.26923 1.21667,-0.59936 1.21667,-0.10577 1.21667,2.89103 1.21667,-1.02244 1.21667,-1.62179 1.21667,-1.97436 1.21667,1.90385 1.21667,1.16346 1.21667,-1.16346 1.21667,1.26923 1.21667,-0.35257 1.21667,-1.26923 1.21667,0.21154 1.21667,-1.44551 1.21667,1.65705 1.21667,0.88141 1.21667,-1.97436 1.21667,-0.49359 1.21667,1.69231 1.21667,0 1.21667,2.11538 1.21667,-0.0705 1.21667,0.56407 1.21667,-3.91346 1.21667,-2.78526 1.21667,2.29167 1.21667,1.02244 1.21667,0.0353 1.21667,2.43269 1.21667,-2.85576 1.21667,0.21157 1.21667,-0.45837 1.21667,4.9359 1.21667,-4.33654 1.21667,0.63462 1.21667,0.0705 1.21667,-0.42308 1.21667,-2.22115 1.21667,2.04487 1.21667,-1.55128 1.21667,3.49038 1.21667,1.30449 1.21667,-3.63141 1.21667,-0.70513 1.21667,1.58654 1.21667,-2.60897 1.21667,3.77243 1.21667,-0.95192 1.21667,0.21154 1.21667,0.98717 1.21667,-3.20833 1.21667,1.97436 1.21667,-2.78525 1.21667,4.97115 1.21667,-2.08013 1.21667,-0.10577 1.21667,-1.90381 1.21667,1.65702 1.21667,-0.10577 1.21667,3.0673 1.21667,-1.16346 1.21667,-1.79807 1.21667,0.38782 1.21667,-0.70513 1.21667,1.62179 1.21667,1.51603 1.21667,-2.53846 1.21667,-0.95189 1.21667,-2.2917 1.21667,1.44551 1.21667,2.78526 1.21667,0.14102 1.21667,0 1.21667,-4.08974 1.21667,4.125 1.21667,-1.58654 1.21667,1.23397 1.21667,-1.76278 1.21667,2.92625 1.21667,-2.9968 1.21667,1.69231 1.21667,1.09295 1.21667,1.72756 1.21667,-4.9359 1.21667,0.84616 1.21667,0.38782 1.21667,0.8109 1.21667,0.17628 1.21667,-1.69231 1.21667,3.10256 1.21667,-0.77564 1.21667,-3.17307 1.21667,0.0705 1.21667,1.30449 1.21667,-2.25641 1.21667,-1.23398 1.21667,4.90064 1.21667,0.91667 1.21667,-3.94872 1.21667,-0.42307 1.21667,0.88141 1.21667,2.57371 1.21667,-1.41025 1.21667,-1.79808 1.21667,3.24362 1.21667,-2.18593 1.21667,-0.0705 1.21667,-0.49359 1.21667,0.98718 1.21667,1.09295 1.21667,-1.19872 1.21667,0.70513 1.21667,1.83333 1.21667,-4.86538 1.21667,3.34936 1.21667,-2.36218 1.21667,3.59615 1.21667,-3.3141 1.21667,2.39743 1.21667,1.90385 1.21667,-4.125 1.21667,2.29167 1.21667,0.59935 1.21667,-2.85576 1.21667,1.16346 1.21667,3.94871 1.21667,-2.67948 1.21667,1.375 1.21667,-2.71475 1.21667,3.13782 1.21667,-2.36217 1.21667,-1.76282 1.21667,3.66666 1.21667,-2.64423 1.21667,1.05769 1.21667,-4.65384 1.21667,6.69871 1.21667,-4.30128 1.21667,1.76282 1.21667,0 1.21667,0.49359 1.21667,0.74039 1.21667,4.33653 1.21667,-2.60897 1.21667,0.88141 1.21667,-6.52243 1.21667,2.96157 1.21667,0.59932 1.21667,-0.35253 1.21667,0.0705 1.21667,2.78526 1.21667,-4.65385 1.21667,0.66987 1.21667,-2.64423 1.21667,2.96154 1.21667,0.84616 1.21667,-0.0705 1.21667,0.52888 1.21667,-3.38465 1.21667,1.72757 1.21667,2.85577 1.21667,0.0353 1.21667,-0.42307 1.21667,-2.9968 1.21667,0.2468 1.21667,0.95192 1.21667,-0.91667 1.21667,-1.86859 1.21667,4.83013 1.21667,-3.52564 1.21667,-1.58654 1.21667,1.6218"
                       vector-effect="non-scaling-stroke"
                       id="path238"
                       inkscape:connector-curvature="0" />
                  </g>
                </g>
              </g>
            </g>
          </g>
        </g>
      </g>
      <g
         id="PlotItem_6"
         style="fill:none;stroke:#000000;stroke-width:1;stroke-linecap:square;stroke-linejoin:bevel">
        <g
           id="ViewBox_6"
           style="fill:none;stroke:#000000;stroke-width:1;stroke-linecap:square;stroke-linejoin:bevel">
          <g
             font-size="11.875"
             font-style="normal"
             font-weight="400"
             id="g242"
             style="font-size:11.875px;font-style:normal;font-weight:400;fill:none;stroke:none;font-family:Sans Serif">
            <path
               d="m 5,401.667 656,0 0,73.3333 -656,0 0,-73.3333"
               vector-effect="non-scaling-stroke"
               id="path244"
               inkscape:connector-curvature="0" />
          </g>
          <clipPath
             id="ViewBox_6_clip">
            <path
               d="m 5,401.667 656,0 0,73.333 -656,0 0,-73.333"
               vector-effect="non-scaling-stroke"
               id="path247"
               inkscape:connector-curvature="0" />
          </clipPath>
          <g
             clip-path="url(#ViewBox_6_clip)"
             id="g249">
            <g
               id="ChildGroup_6"
               style="fill:none;stroke:#000000;stroke-width:1;stroke-linecap:square;stroke-linejoin:bevel">
              <g
                 id="PlotDataItem_6">
                <g
                   id="PlotCurveItem_6"
                   style="fill:none;stroke:#000000;stroke-width:1;stroke-linecap:square;stroke-linejoin:bevel">
                  <g
                     font-size="11.875"
                     font-style="normal"
                     font-weight="400"
                     id="g254"
                     style="font-size:11.875px;font-style:normal;font-weight:400;fill:none;stroke:#000055;stroke-width:1;stroke-linecap:square;stroke-linejoin:bevel;stroke-opacity:1;font-family:Sans Serif">
                    <path
                       d="m 29.4119,473.59 1.21679,0 1.21679,0 1.21679,0 1.21679,0 1.21679,0 1.21679,0 1.21679,0 1.21679,0 1.21679,0 1.21679,0 1.21679,0 1.21679,0 1.21679,0 1.21679,0 1.21679,0 1.21679,0 1.21679,0 1.21679,0 1.21679,0 1.21679,0 1.21679,0 1.21679,0 1.21679,0 1.21679,0 1.21679,0 1.21679,0 1.21679,0 1.21679,0 1.21679,0 1.21679,0 1.21679,0 1.21679,0 1.21679,0 1.21679,0 1.21679,0 1.21679,0 1.21679,0 1.21679,0 1.21679,0 1.21679,0 1.21679,0 1.21679,0 1.21679,0 1.21679,0 1.21679,0 1.21679,0 1.21679,0 1.21679,0 1.21679,0 1.21679,0 1.21679,0 1.21679,0 1.21679,0 1.21679,0 1.21679,0 1.21679,0 1.21679,0 1.21679,0 1.21679,0 1.21679,0 1.21679,0 1.21679,0 1.21679,0 1.21679,0 1.21679,0 1.21679,0 1.21679,0 1.21679,0 1.21679,0 1.21679,0 1.21679,0 1.21679,0 1.21679,0 1.21679,0 1.21679,0 1.21679,0 1.21679,0 1.21679,0 1.21679,0 1.21679,0 1.21679,0 1.21679,0 1.21679,0 1.21679,0 1.21679,0 1.21679,0 1.21679,0 1.21679,0 1.21679,0 1.21679,0 1.21679,0 1.21679,0 1.21679,0 1.21679,0 1.21679,0 1.21679,0 1.21679,0 1.21679,0 1.21679,0 1.21679,0 1.21679,0 1.21679,0 1.21679,0 1.21679,0 1.21679,0 1.21679,0 1.21679,0 1.21679,0 1.21679,0 1.21679,0 1.21679,0 1.21679,0 1.21679,0 1.21679,0 1.21679,0 1.21679,0 1.21679,0 1.21679,0 1.21679,0 1.21679,0 1.21679,0 1.21679,0 1.21679,0 1.21679,0 1.21679,0 1.21679,0 1.21679,0 1.21679,0 1.21679,0 1.21679,0 1.21679,0 1.21679,0 1.21679,0 1.21679,0 1.21679,0 1.21679,0 1.21679,0 1.21679,0 1.21679,0 1.21679,0 1.21679,0 1.21679,0 1.21679,0 1.21679,0 1.21679,0 1.21679,0 1.21679,0 1.21679,0 1.21679,0 1.21679,0 1.21679,0 1.21679,0 1.21679,0 1.21679,0 1.21679,0 1.21679,0 1.21679,0 1.21679,0 1.21679,0 1.21679,0 1.21679,0 1.21679,0 1.21679,0 1.21679,0 1.21679,0 1.21679,0 1.21679,0 1.21679,0 1.21679,0 1.21679,0 1.21679,0 1.21679,0 1.21679,0 1.21679,0 1.21679,0 1.21679,0 1.21679,0 1.21679,0 1.21679,0 1.21679,0 1.21679,0 1.21679,0 1.21679,0 1.21679,0 1.21679,0 1.21679,0 1.21679,0 1.21679,0 1.21679,0 1.21679,0 1.21679,0 1.21679,0 1.21679,0 1.21679,0 1.21679,0 1.21679,0 1.21679,0 1.21679,0 1.21679,0 1.21679,0 1.21679,0 1.21679,0 1.21679,0 1.21679,0 1.21679,0 1.21679,0 1.21679,0 1.21679,0 1.21679,0 1.21679,0 1.21679,0 1.21679,0 1.21679,0 1.21679,0 1.21679,0 1.21679,0 1.21679,0 1.21679,0 1.21679,0 1.21679,0 1.21679,0 1.21679,0 1.21679,0 1.21679,0 1.21679,0 1.21679,0 1.21679,0 1.21679,0 1.21679,0 1.21679,0 1.21679,0 1.21679,0 1.21679,0 1.21679,0 1.21679,0 1.21679,0 1.21679,0 1.21679,0 1.21679,0 1.21679,0 1.21679,0 1.21679,0 1.21679,0 1.21679,0 1.21679,0 1.21679,0 1.21679,0 1.21679,0 1.21679,0 1.21679,0 1.21679,0 1.21679,0 1.21679,0 1.21679,0 1.21679,0 1.21679,0 1.21679,0 1.21679,0 1.21679,0 1.21679,0 1.21679,0 1.21679,0 1.21679,0 1.21679,0 1.21679,0 1.21679,0 1.21679,0 1.21679,0 1.21679,0 1.21679,0 1.21679,0 1.21679,0 1.21679,0 1.21679,0 1.21679,0 1.21679,0 1.21679,0 1.21679,0 1.21679,0 1.21679,0 1.21679,0 1.21679,0 1.21679,0 1.21679,0 1.21679,0 1.21679,0 1.21679,0 1.21679,0 1.21679,0 1.21679,0 1.21679,0 1.21679,0 1.21679,0 1.21679,0 1.21679,0 1.21679,0 1.21679,0 1.21679,0 1.21679,0 1.21679,0 1.21679,0 1.21679,0 1.21679,0 1.21679,0 1.21679,0 1.21679,0 1.21679,0 1.21679,0 1.21679,0 1.21679,0 1.21679,0 1.21679,0 1.21679,0 1.21679,0 1.21679,0 1.21679,0 1.21679,0 1.21679,0 1.21679,0 1.21679,0 1.21679,0 1.21679,0 1.21679,0 1.21679,0 1.21679,0 1.21679,0 1.21679,0 1.21679,0 1.21679,0 1.21679,0 1.21679,0 1.21679,0 1.21679,0 1.21679,0 1.21679,0 1.21679,0 1.21679,0 1.21679,0 1.21679,0 1.21679,0 1.21679,0 1.21679,0 1.21679,0 1.21679,0 1.21679,0 1.21679,0 1.21679,0 1.21679,0 1.21679,0 1.21679,0 1.21679,0 1.21679,0 1.21679,0 1.21679,0 1.21679,0 1.21679,0 1.21679,0 1.21679,0 1.21679,0 1.21679,0 1.21679,0 1.21679,0 1.21679,0 1.21679,0 1.21679,0 1.21679,0 1.21679,0 1.21679,0 1.21679,0 1.21679,0 1.21679,0 1.21679,0 1.21679,0 1.21679,0 1.21679,0 1.21679,0 1.21679,0 1.21679,0 1.21679,0 1.21679,0 1.21679,0 1.21679,0 1.21679,0 1.21679,0 1.21679,0 1.21679,0 1.21679,0 1.21679,0 1.21679,0 1.21679,0 1.21679,0 1.21679,0 1.21679,0 1.21679,0 1.21679,0 1.21679,0 1.21679,0 1.21679,0 1.21679,0 1.21679,0 1.21679,0 1.21679,0 1.21679,0 1.21679,0 1.21679,0 1.21679,0 1.21679,0 1.21679,0 1.21679,0 1.21679,0 1.21679,0 1.21679,0 1.21679,0 1.21679,0 1.21679,0 1.21679,0 1.21679,0 1.21679,0 1.21679,0 1.21679,0 1.21679,0 1.21679,0 1.21679,0 1.21679,0 1.21679,0 1.21679,0 1.21679,0 1.21679,0 1.21679,0 1.21679,0 1.21679,0 1.21679,0 1.21679,0 1.21679,0 1.21679,0 1.21679,0 1.21679,0 1.21679,0 1.21679,0 1.21679,0 1.21679,0 1.21679,0 1.21679,0 1.21679,0 1.21679,0 1.21679,0 1.21679,0 1.21679,0 1.21679,0 1.21679,0 1.21679,0 1.21679,0 1.21679,0 1.21679,0 1.21679,0 1.21679,0 1.21679,0 1.21679,0 1.21679,0 1.21679,0 1.21679,0 1.21679,0 1.21679,0 1.21679,0 1.21679,0 1.21679,0 1.21679,0 1.21679,0 1.21679,0 1.21679,0 1.21679,0 1.21679,0 1.21679,0 1.21679,0 1.21679,0 1.21679,0 1.21679,0 1.21679,0 1.21679,0 1.21679,0 1.21679,0 1.21679,0 1.21679,0 1.21679,0 1.21679,0 1.21679,0 1.21679,0 1.21679,0 1.21679,0 1.21679,0 1.21679,0 1.21679,0 1.21679,0 1.21679,0 1.21679,0 1.21679,0 1.21679,0 1.21679,0 1.21679,0"
                       vector-effect="non-scaling-stroke"
                       id="path256"
                       inkscape:connector-curvature="0" />
                  </g>
                </g>
              </g>
            </g>
          </g>
        </g>
      </g>
    </g>
  </g>
  <path
     style="fill:none;stroke:#000000;stroke-width:1;stroke-linecap:butt;stroke-linejoin:miter;stroke-miterlimit:4;stroke-opacity:1;stroke-dasharray:1, 3;stroke-dashoffset:0"
     d="m 296.90966,-0.003587 0,474.147947 0,0 0,-0.39414"
     id="path3237"
     inkscape:connector-curvature="0"
     sodipodi:nodetypes="cccc" />
  <text
     xml:space="preserve"
     style="font-size:9px;font-style:normal;font-variant:normal;font-weight:normal;font-stretch:normal;line-height:125%;letter-spacing:0px;word-spacing:0px;fill:#000000;fill-opacity:1;stroke:none;font-family:TeX Gyre Termes;-inkscape-font-specification:TeX Gyre Termes"
     x="264.1962"
     y="482.42126"
     id="text4007"
     sodipodi:linespacing="125%"><tspan
       sodipodi:role="line"
       id="tspan4009"
       x="264.1962"
       y="482.42126"
       style="font-size:14px">Vehicle at point A</tspan></text>
  <text
     xml:space="preserve"
     style="font-size:9px;font-style:normal;font-variant:normal;font-weight:normal;font-stretch:normal;line-height:125%;letter-spacing:0px;word-spacing:0px;fill:#000000;fill-opacity:1;stroke:none;font-family:TeX Gyre Termes;-inkscape-font-specification:TeX Gyre Termes"
     x="25.74276"
     y="472.96194"
     id="text4011"
     sodipodi:linespacing="125%"><tspan
       sodipodi:role="line"
       id="tspan4013"
       x="25.74276"
       y="472.96194"
       style="font-size:14px">Initial position</tspan></text>
  <text
     xml:space="preserve"
     style="font-size:14px;font-style:normal;font-variant:normal;font-weight:normal;font-stretch:normal;line-height:125%;letter-spacing:0px;word-spacing:0px;fill:#000000;fill-opacity:1;stroke:none;font-family:TeX Gyre Termes;-inkscape-font-specification:TeX Gyre Termes"
     x="47.478489"
     y="258.94507"
     id="text4023"
     sodipodi:linespacing="125%"><tspan
       sodipodi:role="line"
       id="tspan4025"
       x="47.478489"
       y="258.94507">Sensor unit </tspan></text>
  <text
     xml:space="preserve"
     style="font-size:14px;font-style:normal;font-variant:normal;font-weight:normal;font-stretch:normal;line-height:125%;letter-spacing:0px;word-spacing:0px;fill:#000000;fill-opacity:1;stroke:none;font-family:TeX Gyre Termes;-inkscape-font-specification:TeX Gyre Termes"
     x="47.898487"
     y="98.925041"
     id="text4027"
     sodipodi:linespacing="125%"><tspan
       sodipodi:role="line"
       id="tspan4029"
       x="47.898487"
       y="98.925041">Motor unit</tspan></text>
  <text
     xml:space="preserve"
     style="font-size:14px;font-style:normal;font-variant:normal;font-weight:normal;font-stretch:normal;line-height:125%;letter-spacing:0px;word-spacing:0px;fill:#000000;fill-opacity:1;stroke:none;font-family:TeX Gyre Termes;-inkscape-font-specification:TeX Gyre Termes"
     x="47.814487"
     y="415.02368"
     id="text4031"
     sodipodi:linespacing="125%"><tspan
       sodipodi:role="line"
       id="tspan4033"
       x="47.814487"
       y="415.02368">Input transducer</tspan></text>
</svg>
