<?xml version="1.0" encoding="UTF-8" standalone="no"?>
<svg
   xmlns:dc="http://purl.org/dc/elements/1.1/"
   xmlns:cc="http://creativecommons.org/ns#"
   xmlns:rdf="http://www.w3.org/1999/02/22-rdf-syntax-ns#"
   xmlns:svg="http://www.w3.org/2000/svg"
   xmlns="http://www.w3.org/2000/svg"
   xmlns:sodipodi="http://sodipodi.sourceforge.net/DTD/sodipodi-0.dtd"
   xmlns:inkscape="http://www.inkscape.org/namespaces/inkscape"
   version="1.2"
   id="svg2"
   inkscape:version="0.48.4 r9939"
   width="635.92017"
   height="289.19778"
   sodipodi:docname="Braiten-1-2-full-connection-point.3-value-3.svg">
  <metadata
     id="metadata260">
    <rdf:RDF>
      <cc:Work
         rdf:about="">
        <dc:format>image/svg+xml</dc:format>
        <dc:type
           rdf:resource="http://purl.org/dc/dcmitype/StillImage" />
      </cc:Work>
    </rdf:RDF>
  </metadata>
  <sodipodi:namedview
     pagecolor="#ffffff"
     bordercolor="#666666"
     borderopacity="1"
     objecttolerance="10"
     gridtolerance="10"
     guidetolerance="10"
     inkscape:pageopacity="0"
     inkscape:pageshadow="2"
     inkscape:window-width="1920"
     inkscape:window-height="1026"
     id="namedview258"
     showgrid="false"
     fit-margin-top="0"
     fit-margin-left="0"
     fit-margin-right="0"
     fit-margin-bottom="0"
     inkscape:zoom="1.7940591"
     inkscape:cx="259.76751"
     inkscape:cy="132.79358"
     inkscape:window-x="1047"
     inkscape:window-y="-3"
     inkscape:window-maximized="1"
     inkscape:current-layer="svg2" />
  <title
     id="title4">pyqtgraph SVG export</title>
  <desc
     id="desc6">Generated with Qt and pyqtgraph</desc>
  <defs
     id="defs8" />
  <g
     id="PlotItem_1"
     style="fill:none;stroke:#000000;stroke-width:1;stroke-linecap:square;stroke-linejoin:bevel"
     transform="translate(-25.079834,-1.5723166)">
    <g
       id="AxisItem_1"
       style="fill:none;stroke:#000000;stroke-width:1;stroke-linecap:square;stroke-linejoin:bevel">
      <g
         font-size="11.875"
         font-style="normal"
         font-weight="400"
         id="g14"
         style="font-size:11.875px;font-style:normal;font-weight:400;fill:none;stroke:#969696;stroke-width:1;stroke-linecap:square;stroke-linejoin:bevel;stroke-opacity:1;font-family:Sans Serif">
        <polyline
           points="45.0,5.0 45.0,79.113566312"
           vector-effect="non-scaling-stroke"
           id="polyline16"
           style="fill:none" />
      </g>
      <g
         font-size="11.875"
         font-style="normal"
         font-weight="400"
         id="g18"
         style="font-size:11.875px;font-style:normal;font-weight:400;fill:none;stroke:#969696;stroke-width:1;stroke-linecap:square;stroke-linejoin:bevel;stroke-opacity:1;font-family:Sans Serif">
        <polyline
           points="45.5,42.056833688 50.5,42.056833688"
           vector-effect="non-scaling-stroke"
           id="polyline20"
           style="fill:none" />
      </g>
      <g
         font-size="11.875"
         font-style="normal"
         font-weight="400"
         id="g22"
         style="font-size:11.875px;font-style:normal;font-weight:400;fill:none;stroke:#969696;stroke-width:1;stroke-linecap:square;stroke-linejoin:bevel;stroke-opacity:0.49803904;font-family:Sans Serif">
        <polyline
           points="45.5,77.688361784 48.8333,77.688361784"
           vector-effect="non-scaling-stroke"
           id="polyline24"
           style="fill:none" />
        <polyline
           points="45.5,6.4252651664 48.8333,6.4252651664"
           vector-effect="non-scaling-stroke"
           id="polyline26"
           style="fill:none" />
      </g>
      <g
         font-size="11.875"
         font-style="normal"
         font-weight="400"
         id="g28"
         style="font-size:11.875px;font-style:normal;font-weight:400;fill:none;stroke:#969696;stroke-width:1;stroke-linecap:square;stroke-linejoin:bevel;stroke-opacity:0.33333297;font-family:Sans Serif">
        <polyline
           points="45.5,70.562035952 48.0,70.562035952"
           vector-effect="non-scaling-stroke"
           id="polyline30"
           style="fill:none" />
        <polyline
           points="45.5,63.43571012 48.0,63.43571012"
           vector-effect="non-scaling-stroke"
           id="polyline32"
           style="fill:none" />
        <polyline
           points="45.5,56.309384288 48.0,56.309384288"
           vector-effect="non-scaling-stroke"
           id="polyline34"
           style="fill:none" />
        <polyline
           points="45.5,49.183058456 48.0,49.183058456"
           vector-effect="non-scaling-stroke"
           id="polyline36"
           style="fill:none" />
        <polyline
           points="45.5,34.930507856 48.0,34.930507856"
           vector-effect="non-scaling-stroke"
           id="polyline38"
           style="fill:none" />
        <polyline
           points="45.5,27.804182024 48.0,27.804182024"
           vector-effect="non-scaling-stroke"
           id="polyline40"
           style="fill:none" />
        <polyline
           points="45.5,20.677856192 48.0,20.677856192"
           vector-effect="non-scaling-stroke"
           id="polyline42"
           style="fill:none" />
        <polyline
           points="45.5,13.5515707856 48.0,13.5515707856"
           vector-effect="non-scaling-stroke"
           id="polyline44"
           style="fill:none" />
      </g>
      <g
         font-size="11.875"
         font-style="normal"
         font-weight="400"
         transform="matrix(1,0,0,1.01064,5.5,5)"
         id="g46"
         style="font-size:11.875px;font-style:normal;font-weight:400;fill:none;stroke:#969696;stroke-width:1;stroke-linecap:square;stroke-linejoin:bevel;stroke-opacity:1;font-family:Sans Serif">
        <text
           font-size="11.875"
           font-style="normal"
           font-weight="400"
           x="31"
           xml:space="preserve"
           y="40.6562"
           id="text48"
           style="font-size:11.875px;font-style:normal;font-weight:400;fill:#969696;fill-opacity:1;stroke:none">0</text>
        <text
           font-size="11.875"
           font-style="normal"
           font-weight="400"
           x="19"
           xml:space="preserve"
           y="75.921898"
           id="text50"
           style="font-size:11.875px;font-style:normal;font-weight:400;fill:#969696;fill-opacity:1;stroke:none">-10</text>
        <text
           font-size="11.875"
           font-style="normal"
           font-weight="400"
           x="23"
           xml:space="preserve"
           y="5.4218798"
           id="text52"
           style="font-size:11.875px;font-style:normal;font-weight:400;fill:#969696;fill-opacity:1;stroke:none">10</text>
      </g>
    </g>
    <g
       id="ViewBox_1"
       style="fill:none;stroke:#000000;stroke-width:1;stroke-linecap:square;stroke-linejoin:bevel">
      <g
         font-size="11.875"
         font-style="normal"
         font-weight="400"
         id="g55"
         style="font-size:11.875px;font-style:normal;font-weight:400;fill:none;stroke:none;font-family:Sans Serif">
        <path
           d="m 45,5 616,0 0,73.3333 -616,0 L 45,5"
           vector-effect="non-scaling-stroke"
           id="path57"
           inkscape:connector-curvature="0" />
      </g>
      <clipPath
         id="ViewBox_1_clip">
        <path
           d="m 45,5 616,0 0,73.3333 -616,0 L 45,5"
           vector-effect="non-scaling-stroke"
           id="path60"
           inkscape:connector-curvature="0" />
      </clipPath>
      <g
         clip-path="url(#ViewBox_1_clip)"
         id="g62">
        <g
           id="ChildGroup_1"
           style="fill:none;stroke:#000000;stroke-width:1;stroke-linecap:square;stroke-linejoin:bevel">
          <g
             id="InfiniteLine_1"
             style="fill:none;stroke:#000000;stroke-width:1;stroke-linecap:square;stroke-linejoin:bevel">
            <g
               font-size="11.875"
               font-style="normal"
               font-weight="400"
               id="g66"
               style="font-size:11.875px;font-style:normal;font-weight:400;fill:none;stroke:#e6e6af;stroke-width:1;stroke-linecap:square;stroke-linejoin:bevel;stroke-opacity:1;font-family:Sans Serif">
              <polyline
                 points="661.00284908,41.6667 44.9999465728,41.6667"
                 vector-effect="non-scaling-stroke"
                 id="polyline68"
                 style="fill:none" />
            </g>
          </g>
          <g
             id="PlotDataItem_1">
            <g
               id="PlotCurveItem_1"
               style="fill:none;stroke:#000000;stroke-width:1;stroke-linecap:square;stroke-linejoin:bevel">
              <g
                 font-size="11.875"
                 font-style="normal"
                 font-weight="400"
                 id="g72"
                 style="font-size:11.875px;font-style:normal;font-weight:400;fill:none;stroke:#ff0000;stroke-width:1;stroke-linecap:square;stroke-linejoin:bevel;stroke-opacity:1;font-family:Sans Serif">
                <path
                   d="m 29.4743,44.732738 0.607724,0.0073 0.607724,-0.05479 0.607724,0.0066 0.607724,-0.06106 0.607724,-0.02902 0.607724,0.05451 0.607724,-0.05345 0.607724,0.03071 0.607724,-0.04337 0.607724,-0.0056 0.607724,-0.01925 0.607724,-0.02126 0.607724,-0.07125 0.607724,0.12241 0.607724,0.06762 0.607724,0.05218 0.607724,0.04499 0.607724,0.03088 0.607724,-0.05066 0.607724,-0.100586 0.607724,0.06459 0.607724,0.01523 0.607724,-0.05482 0.607724,-0.05631 0.607724,0.09223 0.607724,0.0067 0.607724,-0.02676 0.607724,0.08839 0.607724,-0.07259 0.607724,-0.03184 0.607724,0.09565 0.607724,-0.136477 0.607724,0.03695 0.607724,-0.0794 0.607724,-0.06656 0.607724,-0.11134 0.607724,-0.06251 0.607724,-0.102419 0.607724,-0.107427 0.607724,-0.03377 0.607724,-0.03406 0.607724,-0.01202 0.607724,-0.0069 0.607724,-0.07037 0.607724,-0.110353 0.607724,-0.115923 0.607724,-0.0018 0.607724,-0.08395 0.607724,-0.0067 0.607724,0.102032 0.607724,-0.02605 0.607724,-0.105134 0.607724,-0.01336 0.607724,-0.03469 0.607724,-0.09343 0.607724,-0.09304 0.607724,0.0016 0.607724,-0.02383 0.607724,-0.01555 0.607724,-0.07792 0.607724,-0.11483 0.607724,-0.05391 0.607724,0.06685 0.607724,0.04354 0.607724,-0.0245 0.607724,0.115676 0.607724,-0.08765 0.607724,-0.03836 0.607724,0.03307 0.607724,-0.01548 0.607724,-0.01872 0.607724,0.07714 0.607724,-0.111516 0.607724,-0.0045 0.607724,-0.01209 0.607724,0.0096 0.607724,-0.0574 0.607724,-0.08299 0.607724,0.05842 0.607724,0.01992 0.607724,-0.111269 0.607724,-0.09597 0.607724,-0.06191 0.607724,-0.03409 0.607724,-0.08416 0.607724,-0.05796 0.607724,0.06537 0.607724,0.02443 0.607724,-0.01329 0.607724,-0.06914 0.607724,-0.12851 0.607724,-0.01745 0.607724,0.02813 0.607724,0.01026 0.607724,0.04248 0.607724,-0.04636 0.607724,0.02531 0.607724,-0.0244 0.607724,-0.02704 0.607724,-0.05757 0.607724,0.0077 0.607724,8.81e-4 0.607724,-0.06907 0.607724,-0.0648 0.607724,-0.09657 0.607724,-0.01766 0.607724,-0.04629 0.607724,-0.01763 0.607724,-0.138487 0.607724,-0.08102 0.607724,-0.04224 0.607724,0.0087 0.607724,-0.01964 0.607724,-0.07996 0.607724,0.04721 0.607724,-0.05042 0.607726,0.0078 0.60772,0.04537 0.60773,-0.0592 0.60772,-0.07037 0.60772,-0.109083 0.60773,-0.03808 0.60772,-0.05881 0.60773,-0.05165 0.60772,-0.124279 0.60772,-0.06385 0.60773,-0.141625 0.60772,-0.03709 0.60773,-0.07651 0.60772,-0.09523 0.60772,-0.05214 0.60773,-0.08522 0.60772,-0.06103 0.60773,-0.05542 0.60772,-0.03536 0.60772,-0.0013 0.60773,-0.111304 0.60772,-0.03021 0.60773,-0.03265 0.60772,0.0421 0.60772,-0.171981 0.60773,-0.04298 0.60772,-0.05722 0.60773,-0.105452 0.60772,0.115711 0.60772,-0.02521 0.60773,-0.06395 0.60772,-0.04333 0.60773,0.0064 0.60772,-0.04086 0.60772,-0.133939 0.60773,-0.113244 0.60772,-0.116134 0.60773,-0.06847 0.60772,-0.07499 0.60772,0.05701 0.60773,-0.03663 0.60772,-0.0043 0.60773,0.05846 0.60772,-0.02084 0.60772,-0.0045 0.60773,-0.08081 0.60772,-0.01721 0.60773,-7.06e-4 0.60772,-0.118003 0.60772,-0.04128 0.60773,-0.08218 0.60772,-0.109612 0.60773,-0.08835 0.60772,-0.111798 0.60772,-0.06917 0.60773,-0.01759 0.60772,-0.127523 0.60773,0.0047 0.60772,0.0427 0.60772,-0.05271 0.60773,0.06734 0.60772,-0.127451 0.60773,-0.0047 0.60772,-0.05419 0.60772,-0.106545 0.60773,-0.01403 0.60772,0.01484 0.60773,0.01329 0.60772,-0.09152 0.60772,-0.0256 0.60773,-0.127382 0.60772,-0.180513 0.60773,-0.06547 0.60772,-0.01784 0.60772,0.126041 0.60773,-0.115429 0.60772,-0.05736 0.60773,-0.149029 0.60772,-0.128263 0.60772,-0.03885 0.60773,-0.0978 0.60772,-0.212102 0.60773,-0.09632 0.60772,0.02754 0.60772,-0.10256 0.60773,-0.121529 0.60772,-0.0084 0.60773,-0.01893 0.60772,-0.03515 0.60772,-0.08751 0.60773,-0.07094 0.60772,0.006 0.60773,-0.102702 0.60772,-0.01262 0.60772,-0.127945 0.60773,-0.03501 0.60772,-0.06956 0.60773,-0.0064 0.60772,0.07619 0.60772,0.0024 0.60773,-0.04534 0.60772,-0.114795 0.60773,0.0342 0.60772,0.04122 0.60772,-0.03656 0.60773,-0.09449 0.60772,-0.160875 0.60773,0.105134 0.60772,-0.01527 0.60772,0.02665 0.60773,0.05401 0.60772,-0.01594 0.60773,-0.114618 0.60772,-0.0027 0.60772,0.007 0.60773,0.03924 0.60772,-0.02764 0.60773,0.01618 0.60772,0.03797 0.60772,0.01058 0.60773,0.03674 0.60772,0.136054 0.60773,-0.111586 0.60772,-0.105311 0.60772,-0.05627 0.60773,0.0017 0.60772,-0.05207 0.60773,0.0227 0.60772,0.07415 0.60772,-0.01297 0.60773,0.0483 0.60772,-0.03723 0.60773,-0.07362 0.60772,-0.05884 0.60772,-0.02754 0.60773,0.04344 0.60772,-0.09205 0.60773,-0.0342 0.60772,0.006 0.60772,0.03878 0.60773,0.0178 0.60772,-0.01682 0.60773,6.35e-4 0.60772,-0.03871 0.60772,0.01347 0.60773,-0.0017 0.60772,0.12865 0.60773,-0.08102 0.60772,-0.01167 0.60772,-0.03705 0.60773,-0.124843 0.60772,-0.06156 0.60773,0.06801 0.60772,0.002 0.60772,0.01357 0.60773,0.0098 0.60772,0.0306 0.60773,-0.03392 0.60772,-0.02651 0.60772,0.04033 0.60773,-0.05179 0.60772,-0.07848 0.60773,-0.03117 0.60772,-0.03596 0.60772,-0.02711 0.60773,0.02412 0.60772,-0.099 0.60773,0.158548 0.60772,-0.09681 0.60772,-0.09942 0.60773,-0.12516 0.60772,-0.0087 0.60773,-0.151743 0.60772,0.03614 0.60772,0.0014 0.60773,0.0391 0.60772,0.03829 0.60773,-0.01188 0.60772,0.102244 0.60772,0.03303 0.60773,-0.111974 0.60772,-0.04696 0.60773,0.02299 0.60772,-0.07929 0.60772,-0.04989 0.60773,-0.127664 0.60772,0.0013 0.60773,-0.08176 0.60772,-0.03755 0.60772,-0.04696 0.60773,-0.05017 0.60772,-0.02373 0.60773,-0.01336 0.60772,-0.02595 0.60772,0.05423 0.60773,-0.14159 0.60772,0.08324 0.60773,-0.04181 0.60772,-0.02708 0.60772,-0.02524 0.60773,0.06177 0.60772,-0.160064 0.60773,-0.03434 0.60772,-0.05433 0.60772,-0.03441 0.60773,-0.01223 0.60772,-0.05955 0.60773,0.0453 0.60772,0.08856 0.60772,-0.0096 0.60773,0.04848 0.60772,-0.129285 0.60773,-0.05278 0.60772,0.07076 0.60772,-0.0672 0.60773,-0.05472 0.60772,-0.04206 0.60773,-0.02771 0.60772,-0.06917 0.60772,0.02803 0.60773,0.116734 0.60772,-0.0056 0.60773,0.06001 0.60772,-0.136724 0.60772,-0.05042 0.60773,-0.07718 0.60772,0.04467 0.60773,-0.0011 0.60772,0.0575 0.60772,-0.06001 0.60773,-0.03194 0.60772,-0.06611 0.60773,0.06618 0.60772,0.0977 0.60772,-0.152237 0.60773,-0.0087 0.60772,0.0361 0.60773,0.03081 0.60772,0.02746 0.60772,-0.04386 0.60773,0.02292 0.60772,0.07418 0.60773,0.02757 0.60772,0.06473 0.60772,-0.04894 0.60773,0.02246 0.60772,-0.05489 0.60773,-2.12e-4 0.60772,-0.01745 0.60772,0.0086 0.60773,0.04615 0.60772,-0.008 0.60773,-0.02672 0.60772,-0.07943 0.60772,0.0966 0.60773,-0.01104 0.60772,-0.06001 0.60773,-0.07922 0.60772,-0.176952 0.60772,-0.04848 0.60773,-0.06699 0.60772,-0.117334 0.60773,-0.04629 0.60772,-0.03469 0.60772,0.0017 0.60773,0.02175 0.60772,-0.05306 0.60773,-0.01308 0.60772,-0.06075 0.60772,0.04234 0.60773,-0.03018 0.60772,0.03381 0.60773,0.0214 0.60772,0.03081 0.60772,0.05546 0.60773,-0.06392 0.60772,-0.07591 0.60773,-0.0929 0.60772,-0.04238 0.60772,0.02193 0.60773,0.04481 0.60772,-0.0636 0.60773,-0.07323 0.60772,0.04181 0.60772,0.05824 0.60773,-0.05877 0.60772,0.04372 0.60773,-0.01795 0.60772,0.0077 0.60772,0.125442 0.60773,0.08511 0.60772,-0.07206 0.60773,-0.007 0.60772,0.033 0.60772,0.02348 0.60773,-0.01163 0.60772,0.07749 0.60773,-0.03332 0.60772,0.0051 0.60772,-0.04862 0.60773,-0.0017 0.60772,0.05694 0.60773,-0.02595 0.60772,-0.03498 0.60772,-0.08743 0.60773,5.99e-4 0.60772,-0.09202 0.60773,-0.02683 0.60772,-0.02263 0.60772,-0.07051 0.60773,-0.01068 0.60772,0.0062 0.60773,-0.114019 0.60772,-0.05415 0.60772,-0.07192 0.60773,-0.12167 0.60772,0.07446 0.60773,0.05704 0.60772,-0.06646 0.60772,-0.06554 0.60773,-0.09445 0.60772,0.04626 0.60773,0.0057 0.60772,-0.0081 0.60772,-0.0244 0.60773,-0.08497 0.60772,-0.05496 0.60773,-0.0397 0.60772,-0.01463 0.60772,0.0947 0.60773,-0.07668 0.60772,-0.116487 0.60773,0.03409 0.60772,0.04485 0.60772,-0.03515 0.60773,-0.04051 0.60772,0.02246 0.60773,-0.06949 0.60772,-0.08578 0.60772,0.115253 0.60773,-0.05091 0.60772,0.05539 0.60773,0.05807 0.60772,0.02024 0.60772,0.08296 0.60773,-0.04368 0.60772,-0.01759 0.60773,-0.02831 0.60772,-0.01886 0.60772,0.01403 0.60773,-0.03498 0.60772,-0.01491 0.60773,0.0082 0.60772,-0.01593 0.60772,-0.104289 0.60773,0.03159 0.60772,0.01361 0.60773,0.09258 0.60772,-0.05888 0.60772,-0.114019 0.60773,-0.03935 0.60772,-0.09163 0.60773,-0.03198 0.60772,-0.08811 0.60772,-0.112609 0.60773,-0.11899 0.60772,0.02616 0.60773,0.03205 0.60772,0.05948 0.60772,-0.0076 0.60773,0.001 0.60772,-0.02969 0.60773,-0.0905 0.60772,0.05472 0.60772,0.02866 0.60773,-0.02197 0.60772,-0.01086 0.60773,-0.03437 0.60772,-0.123186 0.60772,-0.08765 0.60773,0.0398 0.60772,0.0025 0.60773,0.07492 0.60772,0.101856 0.60772,0.0611 0.60773,-0.03684 0.60772,-0.07954 0.60773,-0.121 0.60772,-0.05676 0.60772,-0.0336 0.60773,-0.04337 0.60772,0.04203 0.60773,-0.06385 0.60772,-0.01096 0.60772,0.04654 0.60773,-0.123996 0.60772,0.0685 0.60773,0.09657 0.60772,-0.03875 0.60772,-0.04241 0.60773,-0.02806 0.60772,0.02902 0.60773,-0.03984 0.60772,-0.02768 0.60772,0.03427 0.60773,-0.0031 0.60772,0.005 0.60773,0.01407 0.60772,-0.01685 0.60772,0.02884 0.60773,-0.02214 0.60772,-0.05232 0.60773,-0.121458 0.60772,-0.04061 0.60772,0.04319 0.60773,-0.01142 0.60772,-0.07397 0.60773,-0.07316 0.60772,-0.06346 0.60772,-0.03346 0.60773,0.0893 0.60772,-0.03025 0.60773,0.0022 0.60772,0.116135 0.60772,0.03878 0.60773,-0.09473 0.60772,-0.0023 0.60773,0.09974 0.60772,0.07933 0.60772,0.02059 0.60773,0.07753 0.60772,-0.0033 0.60773,0.0091 0.60772,0.06332 0.60772,-0.08842 0.60773,0.04164 0.60772,-0.0042 0.60773,0.0287 0.60772,0.1106 0.60772,0.164435 0.60773,-0.01213 0.60772,0.01597 0.60773,-0.0078 0.60772,-0.02651 0.60772,0.05472 0.60773,-0.06875 0.60772,0.164048 0.60773,0.01558 0.60772,0.133939 0.60772,-5.99e-4 0.60773,0.0476 0.60772,0.06688 0.60773,-0.0141 0.60772,0.03808 0.60772,0.07915 0.60773,-0.05394 0.60772,-3.88e-4 0.60773,0.05937 0.60772,0.01449 0.60772,-0.105769 0.60773,0.03561 0.60772,0.133763 0.60773,0.110599 0.60772,-0.06727 0.60772,0.04365 0.60773,0.0065 0.60772,0.0013 0.60773,-0.0366 0.60772,0.01957 0.60772,-0.0013 0.60773,0.05648 0.60772,0.107426 0.60773,0.14984 0.60772,0.03758 0.60772,0.107638 0.60773,0.05874 0.60772,0.09604 0.60773,-0.04157 0.60772,0.02616 0.60772,0.03279 0.60773,0.177198 0.60772,0.04925 0.60773,0.02133 0.60772,0.08204 0.60772,0.128228 0.60773,0.05606 0.60772,0.0039 0.60773,0.135878 0.60772,0.05958 0.60772,-0.01195 0.60773,0.219894 0.60772,0.05645 0.60773,0.09318 0.60772,0.04865 0.60772,0.08983 0.60773,0.0032 0.60772,0.02687 0.60773,0.07055 0.60772,0.01015 0.60772,0.07534 0.60773,0.08373 0.60772,0.08342 0.60773,0.129849 0.60772,0.131542 0.60772,0.01657 0.60773,0.02895 0.60772,-0.0045 0.60773,-0.0556 0.60772,0.01287 0.60772,0.04904 0.60773,0.0069 0.60772,0.02764 0.60773,0.03709 0.60772,0.07883 0.60772,0.06452 0.60773,0.09766 0.60772,0.100022 0.60773,-0.05641 0.60772,0.131507 0.60772,0.107038 0.60773,0.02112 0.60772,0.05045 0.60773,0.01551 0.60772,0.07534 0.60772,0.08715 0.60773,-6.35e-4 0.60772,0.16285 0.60773,0.09974 0.60772,-0.01537 0.60772,-0.05747 0.60773,0.01174 0.60772,0.01918 0.60773,0.09784 0.60772,0.05927 0.60772,-0.09554 0.60773,0.06261 0.60772,0.08987 0.60773,0.08261 0.60772,0.08257 0.60772,0.04812 0.60773,-0.03515 0.60772,0.02524 0.60773,0.06924 0.60772,-0.01548 0.60772,0.185836 0.60773,0.135385 0.60772,0.126676 0.60773,0.10725 0.60772,0.110141 0.60772,0.02757 0.60773,0.05796 0.60772,0.09375 0.60773,0.04978 0.60772,0.05972 0.60772,0.04636 0.60773,0.08246 0.60772,0.09907 0.60773,0.01936 0.60772,0.03511 0.60772,-0.07027 0.60773,0.122304 0.60772,0.06378 0.60773,0.104253 0.60772,-0.07435 0.60772,-0.02059 0.60773,0.04129 0.60772,0.149099 0.60773,0.06047 0.60772,0.05521 0.60772,-0.02059 0.60773,0.110352 0.60772,-0.05669 0.60773,0.07665 0.60772,-0.04738 0.60772,0.07016 0.60773,0.05109 0.60772,0.03219 0.60773,0.106086 0.60772,0.09364 0.60772,0.03603 0.60773,0.06783 0.60772,0.118779 0.60773,0.03138 0.60772,-0.02954 0.60772,0.161615 0.60773,0.112292 0.60772,0.0421 0.60773,0.06346 0.60772,0.02461 0.60772,0.113244 0.60773,0.10376 0.60772,0.03025 0.60773,-0.03325 0.60772,0.04883 0.60772,0.07305 0.60773,0.08046 0.60772,0.122587 0.60773,0.02256 0.60772,0.0037 0.60772,0.07097 0.60773,-0.02119 0.60772,0.0856 0.60773,-0.0034 0.60772,0.05793 0.60772,0.08842 0.60773,-0.01551 0.60772,0.0153 0.60773,0.02605 0.60772,0.0971 0.60772,0.09502 0.60773,-0.07594 0.60772,-0.0029 0.60773,0.05133 0.60772,-0.0017 0.60772,0.0556 0.60773,0.01865 0.60772,0.135807 0.60773,0.06371 0.60772,0.09297 0.60772,0.09837 0.60773,-0.0044 0.60772,0.06195 0.60773,0.02976 0.60772,0.08571 0.60772,0.02295 0.60773,0.06998 0.60772,0.06078 0.60773,0.07185 0.60772,0.01315 0.60772,-0.07005 0.60773,0.184567 0.60772,0.02873 0.60773,0.10651 0.60772,-0.09315 0.60772,0.04502 0.60773,0.105381 0.60772,0.02923 0.60773,-0.0039 0.60772,0.08412 0.60772,0.09435 0.60773,0.102138 0.60772,0.08666 0.60773,0.100305 0.60772,0.06614 0.60772,-0.0208 0.60773,0.10993 0.60772,0.02271 0.60773,0.07541 0.60772,0.05087 0.60772,0.03335 0.60773,-0.0117 0.60772,0.112538 0.60773,-0.03949 0.60772,0.0021 0.60772,0.06367 0.60773,0.0257 0.60772,0.213653 0.60773,-0.02098 0.60772,-0.05408 0.60772,0.01911 0.60773,0.121282 0.60772,0.07563 0.60773,-0.03727 0.60772,-0.04449 0.60772,0.0598 0.60773,0.05169 0.60772,0.07933 0.60773,0.210305 0.60772,0.01065 0.60772,0.04259 0.60773,0.03127 0.60772,-0.0483 0.60773,0.06551 0.60772,0.07263 0.60772,-0.01438 0.60773,0.01784 0.60772,0.108766 0.60773,-0.04883 0.60772,0.06847 0.60772,0.03099 0.60773,0.03794 0.60772,0.09346 0.60773,-0.04992 0.60772,0.06826 0.60772,0.0152 0.60773,0.12456 0.60772,0.02524 0.60773,-0.0428 0.60772,0.107532 0.60772,0.09463 0.60773,0.02415 0.60772,0.09942 0.60773,0.05581 0.60772,-0.0134 0.60772,0.0074 0.60773,-0.01872 0.60772,0.02782 0.60773,-0.05239 0.60772,0.07168 0.60772,-0.05183 0.60773,0.07795 0.60772,0.09523 0.60773,0.03917 0.60772,0.06462 0.60772,-0.02165 0.60773,0.03268 0.60772,0.03092 0.60773,0.108167 0.60772,-0.01008 0.60772,-0.07919 0.60773,0.02101 0.60772,0.07559 0.60773,0.0538 0.60772,-0.01463 0.60772,0.05489 0.60773,-0.02295 0.60772,-0.03973 0.60773,-0.06459 0.60772,0.06928 0.60772,-0.112679 0.60773,-0.09759 0.60772,0.05228 0.60773,-0.0947 0.60772,0.05902 0.60772,0.186189 0.60773,-0.03092 0.60772,0.03307 0.60773,-0.02133 0.60772,-0.04809 0.60772,-0.04911 0.60773,-0.0165 0.60772,-0.03878 0.60773,-0.08856 0.60772,-0.05905 0.60772,8.46e-4 0.60773,0.07288 0.60772,0.121776 0.60773,0.02348 0.60772,-0.06646 0.60772,0.05419 0.60773,0.04569 0.60772,0.0053 0.60773,0.0075 0.60772,0.05253 0.60772,0.04333 0.60773,-0.03314 0.60772,-0.04802 0.60773,-0.04805 0.60772,0.02609 0.60772,0.05288 0.60773,-0.0089 0.60772,0.01812 0.60773,0.05088 0.60772,0.06836 0.60772,0.04682 0.60773,0.16017 0.60772,0.0838 0.60773,-0.07763 0.60772,-0.03286 0.60772,-0.06681 0.60773,0.0134 0.60772,-0.04615 0.60773,0.121881 0.60772,-0.03621 0.60772,-0.0094 0.60773,-0.09213 0.60772,-0.07919 0.60773,0.0348 0.60772,-0.108872 0.60772,0.02207 0.60773,0.04185 0.60772,0.128368 0.60773,-0.04217 0.60772,0.02891 0.60772,-0.05842 0.60773,-0.0031 0.60772,-0.124842 0.60773,0.0075 0.60772,0.01181 0.60772,-0.02369 0.60773,-0.02669 0.60772,0.05546 0.60773,-0.09999 0.60772,-5.64e-4 0.60772,-0.03988 0.60773,0.03335 0.60772,-0.07203 0.60773,-0.118955 0.60772,0.03321 0.60772,2.47e-4 0.60773,-0.07277 0.60772,-0.01234 0.60773,-0.07206 0.60772,0.02937 0.60772,-0.01255 0.60773,-0.04093 0.60772,-0.04492 0.60773,0.09117 0.60772,-0.09509 0.60772,0.05102 0.60773,-0.163131 0.60772,-0.03589 0.60773,-0.03783 0.60772,-0.124244 0.60772,-0.02736 0.60773,-0.0696 0.60772,-0.08211 0.60773,-0.05609 0.60772,-0.06011 0.60772,0.139756 0.60773,-0.04213 0.60772,-0.135878 0.60773,0.129567 0.60772,0.05352 0.60772,-0.01858 0.60773,0.0947 0.60772,0.04626 0.60773,-0.0355 0.60772,-0.05264 0.60772,-0.03423 0.60773,-0.02951 0.60772,0.02799 0.60773,0.03857 0.60772,0.0024 0.60772,-0.0764 0.60773,0.0053 0.60772,-0.01467 0.60773,-0.05443 0.60772,-0.04358 0.60772,-0.01608 0.60773,-0.0033 0.60772,-0.0593 0.60773,-0.04252 0.60772,-0.04604 0.60772,0.02133 0.60773,0.0098 0.60772,-0.04753 0.60773,3.17e-4 0.60772,-0.08895 0.60772,0.0189 0.60773,-0.11 0.60772,-0.04513 0.60773,0.03293 0.60772,-0.01354 0.60772,-0.02514 0.60773,-0.03434 0.60772,0.01964 0.60773,-0.02521 0.60772,0.03924 0.60772,-0.02567 0.60773,-0.08014 0.60772,0.0024 0.60773,-0.04284 0.60772,-0.01125 0.60772,-0.03437 0.60773,-0.05525 0.60772,0.02419 0.60773,-0.01315 0.60772,-0.01604 0.60772,0.01491 0.60773,-0.01509 0.60772,0.04044 0.60773,-0.0026 0.60772,0.0093 0.60772,-0.103901 0.60773,0.04203 0.60772,-0.06304 0.60773,0.03229 0.60772,-0.01611 0.60772,-0.09343 0.60773,-0.01957 0.60772,-0.0928 0.60773,-0.06949 0.60772,-0.09576 0.60772,-0.06195 0.60773,-0.09389 0.60772,-0.01336 0.60773,-0.06487 0.60772,-0.0551 0.60772,-0.006 0.60773,-0.02972 0.60772,0.06388 0.60773,-0.02496"
                   vector-effect="non-scaling-stroke"
                   id="path74"
                   inkscape:connector-curvature="0" />
              </g>
            </g>
          </g>
        </g>
      </g>
    </g>
  </g>
  <g
     id="PlotItem_3"
     style="fill:none;stroke:#000000;stroke-width:1;stroke-linecap:square;stroke-linejoin:bevel"
     transform="translate(-25.079834,-75.572317)">
    <g
       id="AxisItem_2"
       style="fill:none;stroke:#000000;stroke-width:1;stroke-linecap:square;stroke-linejoin:bevel">
      <g
         font-size="11.875"
         font-style="normal"
         font-weight="400"
         id="g96"
         style="font-size:11.875px;font-style:normal;font-weight:400;fill:none;stroke:#969696;stroke-width:1;stroke-linecap:square;stroke-linejoin:bevel;stroke-opacity:1;font-family:Sans Serif">
        <polyline
           points="45.0,163.667 45.0,237.780566312"
           vector-effect="non-scaling-stroke"
           id="polyline98"
           style="fill:none" />
      </g>
      <g
         font-size="11.875"
         font-style="normal"
         font-weight="400"
         id="g100"
         style="font-size:11.875px;font-style:normal;font-weight:400;fill:none;stroke:#969696;stroke-width:1;stroke-linecap:square;stroke-linejoin:bevel;stroke-opacity:1;font-family:Sans Serif">
        <polyline
           points="45.5,200.723833688 50.5,200.723833688"
           vector-effect="non-scaling-stroke"
           id="polyline102"
           style="fill:none" />
      </g>
      <g
         font-size="11.875"
         font-style="normal"
         font-weight="400"
         id="g104"
         style="font-size:11.875px;font-style:normal;font-weight:400;fill:none;stroke:#969696;stroke-width:1;stroke-linecap:square;stroke-linejoin:bevel;stroke-opacity:0.49803904;font-family:Sans Serif">
        <polyline
           points="45.5,236.355361784 48.8333,236.355361784"
           vector-effect="non-scaling-stroke"
           id="polyline106"
           style="fill:none" />
        <polyline
           points="45.5,165.092265166 48.8333,165.092265166"
           vector-effect="non-scaling-stroke"
           id="polyline108"
           style="fill:none" />
      </g>
      <g
         font-size="11.875"
         font-style="normal"
         font-weight="400"
         id="g110"
         style="font-size:11.875px;font-style:normal;font-weight:400;fill:none;stroke:#969696;stroke-width:1;stroke-linecap:square;stroke-linejoin:bevel;stroke-opacity:0.33333297;font-family:Sans Serif">
        <polyline
           points="45.5,229.229035952 48.0,229.229035952"
           vector-effect="non-scaling-stroke"
           id="polyline112"
           style="fill:none" />
        <polyline
           points="45.5,222.10271012 48.0,222.10271012"
           vector-effect="non-scaling-stroke"
           id="polyline114"
           style="fill:none" />
        <polyline
           points="45.5,214.976384288 48.0,214.976384288"
           vector-effect="non-scaling-stroke"
           id="polyline116"
           style="fill:none" />
        <polyline
           points="45.5,207.850058456 48.0,207.850058456"
           vector-effect="non-scaling-stroke"
           id="polyline118"
           style="fill:none" />
        <polyline
           points="45.5,193.597507856 48.0,193.597507856"
           vector-effect="non-scaling-stroke"
           id="polyline120"
           style="fill:none" />
        <polyline
           points="45.5,186.471182024 48.0,186.471182024"
           vector-effect="non-scaling-stroke"
           id="polyline122"
           style="fill:none" />
        <polyline
           points="45.5,179.344856192 48.0,179.344856192"
           vector-effect="non-scaling-stroke"
           id="polyline124"
           style="fill:none" />
        <polyline
           points="45.5,172.218570786 48.0,172.218570786"
           vector-effect="non-scaling-stroke"
           id="polyline126"
           style="fill:none" />
      </g>
      <g
         font-size="11.875"
         font-style="normal"
         font-weight="400"
         transform="matrix(1,0,0,1.01064,5.5,163.667)"
         id="g128"
         style="font-size:11.875px;font-style:normal;font-weight:400;fill:none;stroke:#969696;stroke-width:1;stroke-linecap:square;stroke-linejoin:bevel;stroke-opacity:1;font-family:Sans Serif">
        <text
           font-size="11.875"
           font-style="normal"
           font-weight="400"
           x="31"
           xml:space="preserve"
           y="40.6562"
           id="text130"
           style="font-size:11.875px;font-style:normal;font-weight:400;fill:#969696;fill-opacity:1;stroke:none">0</text>
        <text
           font-size="11.875"
           font-style="normal"
           font-weight="400"
           x="19"
           xml:space="preserve"
           y="75.921898"
           id="text132"
           style="font-size:11.875px;font-style:normal;font-weight:400;fill:#969696;fill-opacity:1;stroke:none">-10</text>
        <text
           font-size="11.875"
           font-style="normal"
           font-weight="400"
           x="23"
           xml:space="preserve"
           y="5.4218798"
           id="text134"
           style="font-size:11.875px;font-style:normal;font-weight:400;fill:#969696;fill-opacity:1;stroke:none">10</text>
      </g>
    </g>
    <g
       id="ViewBox_3"
       style="fill:none;stroke:#000000;stroke-width:1;stroke-linecap:square;stroke-linejoin:bevel">
      <g
         font-size="11.875"
         font-style="normal"
         font-weight="400"
         id="g137"
         style="font-size:11.875px;font-style:normal;font-weight:400;fill:none;stroke:none;font-family:Sans Serif">
        <path
           d="m 45,163.667 616,0 0,73.3333 -616,0 0,-73.3333"
           vector-effect="non-scaling-stroke"
           id="path139"
           inkscape:connector-curvature="0" />
      </g>
      <clipPath
         id="ViewBox_3_clip">
        <path
           d="m 45,163.667 616,0 0,73.333 -616,0 0,-73.333"
           vector-effect="non-scaling-stroke"
           id="path142"
           inkscape:connector-curvature="0" />
      </clipPath>
      <g
         clip-path="url(#ViewBox_3_clip)"
         id="g144">
        <g
           id="ChildGroup_3"
           style="fill:none;stroke:#000000;stroke-width:1;stroke-linecap:square;stroke-linejoin:bevel">
          <g
             id="InfiniteLine_2"
             style="fill:none;stroke:#000000;stroke-width:1;stroke-linecap:square;stroke-linejoin:bevel">
            <g
               font-size="11.875"
               font-style="normal"
               font-weight="400"
               id="g148"
               style="font-size:11.875px;font-style:normal;font-weight:400;fill:none;stroke:#e6e6af;stroke-width:1;stroke-linecap:square;stroke-linejoin:bevel;stroke-opacity:1;font-family:Sans Serif">
              <polyline
                 points="661.00284908,200.333 44.9999465728,200.333"
                 vector-effect="non-scaling-stroke"
                 id="polyline150"
                 style="fill:none" />
            </g>
          </g>
          <g
             id="PlotDataItem_3">
            <g
               id="PlotCurveItem_3"
               style="fill:none;stroke:#000000;stroke-width:1;stroke-linecap:square;stroke-linejoin:bevel">
              <g
                 font-size="11.875"
                 font-style="normal"
                 font-weight="400"
                 id="g154"
                 style="font-size:11.875px;font-style:normal;font-weight:400;fill:none;stroke:#00ff00;stroke-width:1;stroke-linecap:square;stroke-linejoin:bevel;stroke-opacity:1;font-family:Sans Serif">
                <path
                   d="m 29.4743,201.75556 0.607724,0.004 0.607724,0.0673 0.607724,-0.01 0.607724,-0.082 0.607724,0.0317 0.607724,-0.0459 0.607724,0.0209 0.607724,-0.0633 0.607724,0.005 0.607724,-0.0999 0.607724,-0.13602 0.607724,-0.12259 0.607724,0.006 0.607724,-0.0476 0.607724,-0.0437 0.607724,-0.0186 0.607724,0.0186 0.607724,-0.0458 0.607724,-0.0884 0.607724,-0.0727 0.607724,0.0191 0.607724,-0.0338 0.607724,-0.11769 0.607724,-0.001 0.607724,-0.0998 0.607724,-0.0474 0.607724,0.0184 0.607724,-0.10972 0.607724,-0.0985 0.607724,-0.11117 0.607724,-0.0868 0.607724,-0.0464 0.607724,-0.0535 0.607724,-0.0292 0.607724,-0.0654 0.607724,-0.0491 0.607724,-0.0477 0.607724,-0.0233 0.607724,-0.12033 0.607724,-0.0285 0.607724,-0.0481 0.607724,0.0653 0.607724,-10e-4 0.607724,-0.0978 0.607724,-0.16965 0.607724,-0.0238 0.607724,-0.18217 0.607724,-0.087 0.607724,-0.1351 0.607724,-0.0377 0.607724,-0.0988 0.607724,-0.022 0.607724,-0.0329 0.607724,-0.0637 0.607724,-0.0725 0.607724,-0.0474 0.607724,-0.11279 0.607724,-0.0109 0.607724,-0.1002 0.607724,-0.10983 0.607724,-0.0648 0.607724,-0.0843 0.607724,-0.0892 0.607724,-0.10023 0.607724,-0.17576 0.607724,-0.025 0.607724,-0.006 0.607724,-0.002 0.607724,-0.0522 0.607724,0.002 0.607724,-0.0312 0.607724,-0.0262 0.607724,-0.0233 0.607724,-0.0526 0.607724,-0.10299 0.607724,-0.0921 0.607724,-0.0137 0.607724,-0.01 0.607724,-0.12805 0.607724,-0.14303 0.607724,-0.0956 0.607724,-0.0605 0.607724,-0.001 0.607724,0.018 0.607724,-0.0434 0.607724,-0.063 0.607724,-0.1161 0.607724,-0.0524 0.607724,-0.11843 0.607724,-0.095 0.607724,-0.0187 0.607724,-0.0738 0.607724,-0.0478 0.607724,-0.0414 0.607724,-0.0519 0.607724,-0.0335 0.607724,-0.10401 0.607724,-0.0757 0.607724,-0.12706 0.607724,-0.0957 0.607724,0.0826 0.607724,0.002 0.607724,-0.0293 0.607724,-0.0851 0.607724,-0.17322 0.607724,-0.12516 0.607724,0.0117 0.607724,-0.0694 0.607724,0.0184 0.607724,0.0249 0.607724,-0.10055 0.607724,6e-4 0.607724,-0.0529 0.607724,0.001 0.607724,-0.12601 0.607724,0.0106 0.607726,-0.0349 0.60772,-0.0168 0.60773,-0.095 0.60772,-0.0808 0.60772,0.005 0.60773,0.0136 0.60772,0.0114 0.60773,-0.0205 0.60772,-0.0175 0.60772,-0.11938 0.60773,-0.0861 0.60772,0.019 0.60773,-0.0506 0.60772,-0.0321 0.60772,0.0129 0.60773,-0.0566 0.60772,-0.0299 0.60773,-0.002 0.60772,0.0465 0.60772,0.0152 0.60773,-0.005 0.60772,-0.0312 0.60773,-0.13306 0.60772,-0.0219 0.60772,0.004 0.60773,-0.0359 0.60772,0.001 0.60773,-0.026 0.60772,-0.0815 0.60772,-0.12654 0.60773,-0.0723 0.60772,-0.0259 0.60773,-0.092 0.60772,-0.0625 0.60772,-0.0158 0.60773,0.0986 0.60772,0.11666 0.60773,0.0256 0.60772,0.10524 0.60772,0.004 0.60773,-0.0508 0.60772,0.032 0.60773,0.0392 0.60772,0.0188 0.60772,0.0727 0.60773,-0.0939 0.60772,-0.0105 0.60773,0.0463 0.60772,0.006 0.60772,-0.0605 0.60773,-0.0308 0.60772,0.0281 0.60773,0.0722 0.60772,0.0175 0.60772,0.0588 0.60773,-0.0474 0.60772,-0.0383 0.60773,-0.01 0.60772,-0.0806 0.60772,0.0118 0.60773,-0.0126 0.60772,0.0184 0.60773,0.0471 0.60772,-0.0673 0.60772,-0.01 0.60773,0.0603 0.60772,0.008 0.60773,0.11921 0.60772,-0.0868 0.60772,-0.0782 0.60773,-0.003 0.60772,-0.006 0.60773,0.004 0.60772,0.10049 0.60772,0.0427 0.60773,-0.0628 0.60772,0.13359 0.60773,0.0665 0.60772,0.034 0.60772,-0.0149 0.60773,-0.10143 0.60772,-0.009 0.60773,-0.0412 0.60772,0.055 0.60772,0.009 0.60773,0.10746 0.60772,0.009 0.60773,0.084 0.60772,-0.10813 0.60772,-0.008 0.60773,-0.0569 0.60772,-0.0802 0.60773,0.13923 0.60772,0.0664 0.60772,-0.12294 0.60773,0.0521 0.60772,-0.0337 0.60773,-0.0295 0.60772,0.0497 0.60772,-0.0523 0.60773,0.0225 0.60772,0.0524 0.60773,0.0545 0.60772,0.0464 0.60772,-0.006 0.60773,0.004 0.60772,0.0118 0.60773,0.15555 0.60772,-0.12051 0.60772,-0.0283 0.60773,0.0327 0.60772,-0.0305 0.60773,0.0606 0.60772,0.0627 0.60772,5.3e-4 0.60773,0.0338 0.60772,0.12037 0.60773,0.006 0.60772,-0.006 0.60772,0.006 0.60773,0.0119 0.60772,0.0195 0.60773,-0.004 0.60772,-0.14558 0.60772,-0.009 0.60773,0.041 0.60772,-0.10125 0.60773,-0.0884 0.60772,-0.0433 0.60772,-0.0425 0.60773,-0.0435 0.60772,0.0464 0.60773,-0.005 0.60772,0.0659 0.60772,0.0889 0.60773,0.0244 0.60772,7e-5 0.60773,0.053 0.60772,-0.008 0.60772,-0.006 0.60773,0.0306 0.60772,-0.0335 0.60773,0.0544 0.60772,0.0528 0.60772,-0.006 0.60773,-0.0761 0.60772,0.0877 0.60773,0.0555 0.60772,-0.14797 0.60772,-0.0365 0.60773,0.0747 0.60772,-0.004 0.60773,0.0772 0.60772,0.004 0.60772,-0.15911 0.60773,-0.0487 0.60772,-0.0243 0.60773,0.0434 0.60772,0.0489 0.60772,-0.0339 0.60773,-0.0514 0.60772,0.0122 0.60773,0.0183 0.60772,-0.038 0.60772,0.0126 0.60773,0.0152 0.60772,0.0485 0.60773,-0.0111 0.60772,-0.0272 0.60772,0.0576 0.60773,-0.0843 0.60772,-0.0251 0.60773,-0.0117 0.60772,-0.0464 0.60772,-0.0273 0.60773,-0.0433 0.60772,0.0597 0.60773,-0.0382 0.60772,0.0144 0.60772,0.0819 0.60773,0.0369 0.60772,0.0798 0.60773,-0.0572 0.60772,4e-5 0.60772,-0.0315 0.60773,0.0312 0.60772,0.0767 0.60773,7.7e-4 0.60772,-0.008 0.60772,-0.005 0.60773,-0.065 0.60772,0.095 0.60773,0.0748 0.60772,-0.002 0.60772,0.0859 0.60773,-0.06 0.60772,-0.0388 0.60773,0.0119 0.60772,0.0764 0.60772,-0.0242 0.60773,-0.0205 0.60772,-0.01 0.60773,-0.0427 0.60772,-0.033 0.60772,-0.014 0.60773,-0.0215 0.60772,-0.0324 0.60773,-0.0257 0.60772,0.0409 0.60772,0.0667 0.60773,0.004 0.60772,-0.0357 0.60773,0.009 0.60772,0.04 0.60772,0.0348 0.60773,-0.0419 0.60772,-0.0432 0.60773,0.10031 0.60772,0.0633 0.60772,0.0229 0.60773,0.0119 0.60772,0.0123 0.60773,-0.0116 0.60772,-0.0724 0.60772,-0.0493 0.60773,0.0663 0.60772,0.0109 0.60773,0.023 0.60772,0.16873 0.60772,0.0181 0.60773,-0.0786 0.60772,-2.5e-4 0.60773,0.0226 0.60772,0.079 0.60772,0.006 0.60773,0.10058 0.60772,0.0811 0.60773,0.10641 0.60772,0.006 0.60772,0.0302 0.60773,-0.0337 0.60772,-0.0173 0.60773,0.0275 0.60772,0.0385 0.60772,0.0388 0.60773,-0.004 0.60772,0.0523 0.60773,-0.0123 0.60772,-0.0464 0.60772,0.004 0.60773,0.0272 0.60772,0.0381 0.60773,-0.061 0.60772,-0.0179 0.60772,0.0125 0.60773,-0.013 0.60772,0.0318 0.60773,0.0162 0.60772,-0.0652 0.60772,-0.0653 0.60773,-0.0951 0.60772,-0.0504 0.60773,0.0894 0.60772,-0.0698 0.60772,-0.0633 0.60773,0.0904 0.60772,-0.006 0.60773,-0.0805 0.60772,-0.0896 0.60772,-0.0172 0.60773,-0.023 0.60772,0.0612 0.60773,0.01 0.60772,-0.007 0.60772,0.0183 0.60773,-0.10958 0.60772,0.005 0.60773,0.0139 0.60772,0.0964 0.60772,0.0381 0.60773,-0.0644 0.60772,-0.0425 0.60773,0.0335 0.60772,-0.027 0.60772,-0.0815 0.60773,0.0605 0.60772,-0.049 0.60773,0.0218 0.60772,-0.001 0.60772,-0.0189 0.60773,-0.0996 0.60772,-0.0571 0.60773,-0.008 0.60772,-0.0138 0.60772,0.0378 0.60773,-0.0408 0.60772,-0.0939 0.60773,0.0816 0.60772,-0.0391 0.60772,-0.10905 0.60773,-0.0404 0.60772,0.0772 0.60773,-0.0218 0.60772,-0.07 0.60772,0.0715 0.60773,0.0526 0.60772,-0.0411 0.60773,-0.0817 0.60772,-0.0773 0.60772,-0.0201 0.60773,-0.0232 0.60772,-0.0593 0.60773,-0.0502 0.60772,-0.0733 0.60772,-0.0613 0.60773,0.006 0.60772,-0.10866 0.60773,-0.0233 0.60772,-0.13337 0.60772,-0.0973 0.60773,-0.17826 0.60772,-0.16274 0.60773,-0.0618 0.60772,-0.19649 0.60772,-0.21087 0.60773,-0.18174 0.60772,-0.0669 0.60773,-0.13934 0.60772,-0.16218 0.60772,-0.14973 0.60773,-0.16877 0.60772,-0.21126 0.60773,0.0384 0.60772,-0.0727 0.60772,-0.13341 0.60773,-0.11318 0.60772,-0.19454 0.60773,-0.0791 0.60772,-0.0907 0.60772,0.0135 0.60773,-0.23393 0.60772,-0.16937 0.60773,-0.15982 0.60772,-0.0519 0.60772,0.0686 0.60773,-0.0591 0.60772,-0.12234 0.60773,-0.01 0.60772,-0.0161 0.60772,-0.005 0.60773,-0.0961 0.60772,0.0495 0.60773,0.0519 0.60772,-0.007 0.60772,0.0776 0.60773,-0.0101 0.60772,0.0654 0.60773,0.10404 0.60772,0.006 0.60772,0.0677 0.60773,0.04 0.60772,0.12252 0.60773,0.0229 0.60772,0.0939 0.60772,0.12114 0.60773,-0.006 0.60772,0.08 0.60773,0.12555 0.60772,0.072 0.60772,0.12382 0.60773,0.0419 0.60772,0.11864 0.60773,-0.0526 0.60772,-0.0158 0.60772,0.11197 0.60773,0.0975 0.60772,0.014 0.60773,0.0793 0.60772,0.042 0.60772,0.1766 0.60773,0.1504 0.60772,0.20184 0.60773,0.20544 0.60772,0.1392 0.60772,0.17476 0.60773,0.19585 0.60772,0.12618 0.60773,0.12947 0.60772,0.13129 0.60772,-0.0171 0.60773,0.12883 0.60772,0.10365 0.60773,0.14642 0.60772,0.14349 0.60772,0.0968 0.60773,0.14575 0.60772,0.11388 0.60773,0.0656 0.60772,0.0841 0.60772,0.12777 0.60773,0.15076 0.60772,0.0341 0.60773,0.16476 0.60772,0.14455 0.60772,0.15855 0.60773,0.13288 0.60772,0.1412 0.60773,0.10348 0.60772,0.0623 0.60772,0.0577 0.60773,0.0953 0.60772,0.2476 0.60773,0.0449 0.60772,0.003 0.60772,0.074 0.60773,0.092 0.60772,0.079 0.60773,0.1252 0.60772,0.093 0.60772,0.0937 0.60773,0.10217 0.60772,0.1 0.60773,0.10299 0.60772,0.13898 0.60772,0.0723 0.60773,-0.033 0.60772,0.19229 0.60773,0.16877 0.60772,0.10701 0.60772,0.10425 0.60773,0.0274 0.60772,0.11205 0.60773,0.0793 0.60772,0.10161 0.60772,0.0612 0.60773,0.0152 0.60772,0.12843 0.60773,0.0721 0.60772,0.0398 0.60772,0.13641 0.60773,0.0375 0.60772,0.0961 0.60773,0.10246 0.60772,0.15918 0.60772,0.0475 0.60773,0.16094 0.60772,0.11751 0.60773,0.0608 0.60772,0.0848 0.60772,0.0317 0.60773,0.0508 0.60772,0.0459 0.60773,0.0641 0.60772,0.083 0.60772,0.0923 0.60773,0.005 0.60772,0.0994 0.60773,0.0333 0.60772,0.0761 0.60772,0.17635 0.60773,0.021 0.60772,0.14624 0.60773,0.0589 0.60772,0.0872 0.60772,0.0525 0.60773,0.0462 0.60772,-0.0305 0.60773,-0.0322 0.60772,0.15464 0.60772,-0.056 0.60773,0.0409 0.60772,0.0731 0.60773,0.0661 0.60772,0.0184 0.60772,-0.0127 0.60773,-0.019 0.60772,0.0857 0.60773,0.15566 0.60772,0.23861 0.60772,0.0256 0.60773,0.0525 0.60772,-0.0431 0.60773,0.15069 0.60772,0.0214 0.60772,0.0556 0.60773,0.002 0.60772,0.0476 0.60773,0.0891 0.60772,0.0105 0.60772,-0.0719 0.60773,-0.0428 0.60772,0.008 0.60773,0.0841 0.60772,0.0648 0.60772,0.0959 0.60773,-0.0264 0.60772,0.0157 0.60773,0.0399 0.60772,0.007 0.60772,-0.005 0.60773,0.009 0.60772,0.0489 0.60773,-0.029 0.60772,-0.0102 0.60772,0.14381 0.60773,0.12343 0.60772,0.13123 0.60773,0.0698 0.60772,0.0286 0.60772,-0.0822 0.60773,-0.0172 0.60772,-0.001 0.60773,-0.0149 0.60772,0.066 0.60772,-0.0251 0.60773,-0.0195 0.60772,0.10616 0.60773,-0.0101 0.60772,0.0632 0.60772,0.0627 0.60773,0.10514 0.60772,-0.0336 0.60773,0.0394 0.60772,0.0783 0.60772,0.0552 0.60773,0.0127 0.60772,0.11938 0.60773,0.0158 0.60772,0.0902 0.60772,0.0397 0.60773,0.19377 0.60772,0.10337 0.60773,0.0452 0.60772,-0.0367 0.60772,-0.0122 0.60773,-0.0205 0.60772,0.0443 0.60773,0.0314 0.60772,0.0562 0.60772,0.10983 0.60773,0.0195 0.60772,0.0487 0.60773,0.0256 0.60772,0.0471 0.60772,-0.10129 0.60773,0.006 0.60772,0.0155 0.60773,-0.0106 0.60772,0.082 0.60772,0.0545 0.60773,-0.003 0.60772,-0.0321 0.60773,0.0125 0.60772,0.026 0.60772,-0.007 0.60773,0.11804 0.60772,0.045 0.60773,0.0123 0.60772,-0.004 0.60772,0.013 0.60773,-0.0172 0.60772,-0.0198 0.60773,-0.1069 0.60772,-0.10926 0.60772,0.0366 0.60773,-0.0979 0.60772,0.0783 0.60773,-0.007 0.60772,0.0323 0.60772,0.0948 0.60773,0.0821 0.60772,0.14663 0.60773,0.0181 0.60772,-0.0127 0.60772,0.005 0.60773,0.0162 0.60772,-0.0962 0.60773,6.7e-4 0.60772,0.0702 0.60772,-0.0811 0.60773,0.0504 0.60772,0.0359 0.60773,0.0304 0.60772,0.0486 0.60772,-0.0232 0.60773,-0.0154 0.60772,-0.022 0.60773,-0.0322 0.60772,-0.0299 0.60772,0.0247 0.60773,0.0444 0.60772,0.0603 0.60773,-0.0272 0.60772,0.0601 0.60772,-0.0544 0.60773,0.0722 0.60772,0.085 0.60773,-0.0199 0.60772,0.0518 0.60772,-3.9e-4 0.60773,0.025 0.60772,-0.0423 0.60773,0.028 0.60772,0.0466 0.60772,0.008 0.60773,-0.006 0.60772,0.0576 0.60773,0.0516 0.60772,0.003 0.60772,-0.0388 0.60773,-0.0387 0.60772,0.0716 0.60773,-0.0812 0.60772,0.0811 0.60772,-0.006 0.60773,-0.009 0.60772,-0.11021 0.60773,0.0368 0.60772,-0.0339 0.60772,0.0102 0.60773,-0.052 0.60772,0.0151 0.60773,0.0249 0.60772,-0.0424 0.60772,0.0355 0.60773,-0.032 0.60772,-0.0554 0.60773,0.0416 0.60772,-0.004 0.60772,-0.0387 0.60773,-0.0349 0.60772,-0.0286 0.60773,-0.0142 0.60772,-0.10796 0.60772,-0.16447 0.60773,-0.0379 0.60772,0.005 0.60773,-0.10242 0.60772,-0.008 0.60772,0.0458 0.60773,0.1265 0.60772,0.01 0.60773,0.003 0.60772,0.008 0.60772,-0.0432 0.60773,-0.11645 0.60772,-0.0241 0.60773,-0.0225 0.60772,0.14332 0.60772,-0.14343 0.60773,0.067 0.60772,0.0291 0.60773,-0.0221 0.60772,-0.0176 0.60772,0.0252 0.60773,-0.0185 0.60772,-0.0731 0.60773,-0.11089 0.60772,0.007 0.60772,-0.006 0.60773,-0.0161 0.60772,0.0421 0.60773,-0.1552 0.60772,0.0154 0.60772,0.0618 0.60773,-0.0616 0.60772,0.0524 0.60773,0.009 0.60772,-0.021 0.60772,-0.0367 0.60773,0.0633 0.60772,0.026 0.60773,0.0338 0.60772,-0.0845 0.60772,-0.0246 0.60773,0.0534 0.60772,-0.0682 0.60773,0.0222 0.60772,-0.0408 0.60772,-0.0894 0.60773,0.0518 0.60772,-0.01 0.60773,-0.0539 0.60772,-0.0408 0.60772,-0.13599 0.60773,-0.10989 0.60772,-0.0464 0.60773,-0.0232 0.60772,-0.10037 0.60772,0.006 0.60773,-0.0913 0.60772,0.0303 0.60773,0.0492 0.60772,-0.0348 0.60772,0.0306 0.60773,-0.0341 0.60772,0.0371 0.60773,-0.0772 0.60772,-0.10045 0.60772,-0.007 0.60773,-0.0733 0.60772,0.0444 0.60773,-0.0306 0.60772,0.11673 0.60772,-0.0543 0.60773,-0.0506 0.60772,0.006 0.60773,-0.0763 0.60772,-0.0349 0.60772,0.0395 0.60773,-0.002 0.60772,-0.007 0.60773,-0.0705 0.60772,0.0245 0.60772,-0.0262 0.60773,0.0625 0.60772,-0.12544 0.60773,-0.0104 0.60772,-0.0498 0.60772,-0.0261 0.60773,-0.0519 0.60772,-0.0746 0.60773,-0.0183 0.60772,-0.13831 0.60772,-0.14047 0.60773,0.0233 0.60772,0.0941 0.60773,-0.0353 0.60772,-0.005 0.60772,-0.0462 0.60773,0.0106 0.60772,-0.001 0.60773,-0.0223 0.60772,-0.0158 0.60772,0.0653 0.60773,-0.0164 0.60772,-0.1889 0.60773,-0.0325 0.60772,0.0272 0.60772,-0.0586 0.60773,-0.10101 0.60772,0.0197 0.60773,0.0154 0.60772,-0.0475 0.60772,0.0724 0.60773,-0.11656 0.60772,-0.13817 0.60773,-0.0837 0.60772,-0.16101 0.60772,-0.0614 0.60773,-0.0484 0.60772,-0.0209 0.60773,-0.009 0.60772,0.043 0.60772,-0.0392 0.60773,-0.0175 0.60772,0.0566 0.60773,-0.13316 0.60772,-0.005 0.60772,-0.0684 0.60773,0.0313 0.60772,-8.8e-4 0.60773,-0.11543 0.60772,-0.14952 0.60772,-0.0685 0.60773,-0.0222 0.60772,-0.0257 0.60773,0.075 0.60772,0.0386 0.60772,-0.0327 0.60773,0.0322 0.60772,0.0141 0.60773,-0.0453 0.60772,-0.028 0.60772,0.0405 0.60773,-0.14821 0.60772,-6.7e-4 0.60773,-0.0864 0.60772,-0.0175 0.60772,-0.0616 0.60773,0.0102 0.60772,-2.1e-4 0.60773,-0.1167 0.60772,-0.11173 0.60772,-0.0881 0.60773,-0.009 0.60772,-0.0306 0.60773,0.0382 0.60772,0.031 0.60772,0.0647 0.60773,0.0623 0.60772,-0.0613 0.60773,0.0529 0.60772,-0.0676 0.60772,0.004 0.60773,0.0293 0.60772,0.0144 0.60773,0.0177 0.60772,-0.0284 0.60772,0.006 0.60773,-0.048 0.60772,0.006 0.60773,-0.005 0.60772,-0.0211 0.60772,0.0602 0.60773,-0.0279 0.60772,-0.0363 0.60773,-0.0255 0.60772,-0.0859 0.60772,-0.0593 0.60773,0.0775 0.60772,-0.0277 0.60773,-0.0501 0.60772,-0.0498 0.60772,-0.12643 0.60773,0.0193 0.60772,-0.0349 0.60773,-0.0587 0.60772,0.0132 0.60772,0.11599 0.60773,-0.0617 0.60772,0.001 0.60773,-0.0563 0.60772,-0.0719 0.60772,-0.055 0.60773,-0.0209 0.60772,-0.0655 0.60773,-0.003 0.60772,0.0241 0.60772,-0.0485 0.60773,-0.0382 0.60772,0.0266 0.60773,-0.10961 0.60772,-0.0995 0.60772,0.0414 0.60773,0.0935 0.60772,-0.0532 0.60773,-0.15749 0.60772,-0.0242 0.60772,-0.0447 0.60773,-0.0263 0.60772,0.004 0.60773,0.0289 0.60772,-0.0282 0.60772,-0.0271 0.60773,-0.0428 0.60772,-0.0298 0.60773,0.0183 0.60772,-0.0223 0.60772,-0.072 0.60773,-0.0893 0.60772,-0.0539 0.60773,-0.0422 0.60772,0.0968 0.60772,0.0888 0.60773,-0.0155 0.60772,-0.0401 0.60773,0.025 0.60772,0.0342 0.60772,-0.0245 0.60773,0.009 0.60772,-0.003 0.60773,-0.0511 0.60772,0.01 0.60772,-0.1088 0.60773,-0.0546 0.60772,-0.077 0.60773,-0.0361 0.60772,-0.005 0.60772,0.0148 0.60773,0.0893 0.60772,0.0315 0.60773,-0.008 0.60772,-0.043 0.60772,-0.0292 0.60773,-0.0202 0.60772,-0.028 0.60773,-0.003 0.60772,-0.0846 0.60772,-0.0398 0.60773,-0.0452 0.60772,-0.0618 0.60773,-0.0244"
                   vector-effect="non-scaling-stroke"
                   id="path156"
                   inkscape:connector-curvature="0" />
              </g>
            </g>
          </g>
        </g>
      </g>
    </g>
  </g>
  <g
     id="PlotItem_5"
     style="fill:none;stroke:#000000;stroke-width:1;stroke-linecap:square;stroke-linejoin:bevel"
     transform="translate(-25.079834,-141.57232)">
    <g
       id="AxisItem_3"
       style="fill:none;stroke:#000000;stroke-width:1;stroke-linecap:square;stroke-linejoin:bevel">
      <g
         font-size="11.875"
         font-style="normal"
         font-weight="400"
         id="g178"
         style="font-size:11.875px;font-style:normal;font-weight:400;fill:none;stroke:#969696;stroke-width:1;stroke-linecap:square;stroke-linejoin:bevel;stroke-opacity:1;font-family:Sans Serif">
        <polyline
           points="45.0,322.333 45.0,396.446566312"
           vector-effect="non-scaling-stroke"
           id="polyline180"
           style="fill:none" />
      </g>
      <g
         font-size="11.875"
         font-style="normal"
         font-weight="400"
         id="g182"
         style="font-size:11.875px;font-style:normal;font-weight:400;fill:none;stroke:#969696;stroke-width:1;stroke-linecap:square;stroke-linejoin:bevel;stroke-opacity:1;font-family:Sans Serif">
        <polyline
           points="45.5,359.389833688 50.5,359.389833688"
           vector-effect="non-scaling-stroke"
           id="polyline184"
           style="fill:none" />
      </g>
      <g
         font-size="11.875"
         font-style="normal"
         font-weight="400"
         id="g186"
         style="font-size:11.875px;font-style:normal;font-weight:400;fill:none;stroke:#969696;stroke-width:1;stroke-linecap:square;stroke-linejoin:bevel;stroke-opacity:0.49803904;font-family:Sans Serif">
        <polyline
           points="45.5,395.021361784 48.8333,395.021361784"
           vector-effect="non-scaling-stroke"
           id="polyline188"
           style="fill:none" />
        <polyline
           points="45.5,323.758265166 48.8333,323.758265166"
           vector-effect="non-scaling-stroke"
           id="polyline190"
           style="fill:none" />
      </g>
      <g
         font-size="11.875"
         font-style="normal"
         font-weight="400"
         id="g192"
         style="font-size:11.875px;font-style:normal;font-weight:400;fill:none;stroke:#969696;stroke-width:1;stroke-linecap:square;stroke-linejoin:bevel;stroke-opacity:0.33333297;font-family:Sans Serif">
        <polyline
           points="45.5,387.895035952 48.0,387.895035952"
           vector-effect="non-scaling-stroke"
           id="polyline194"
           style="fill:none" />
        <polyline
           points="45.5,380.76871012 48.0,380.76871012"
           vector-effect="non-scaling-stroke"
           id="polyline196"
           style="fill:none" />
        <polyline
           points="45.5,373.642384288 48.0,373.642384288"
           vector-effect="non-scaling-stroke"
           id="polyline198"
           style="fill:none" />
        <polyline
           points="45.5,366.516058456 48.0,366.516058456"
           vector-effect="non-scaling-stroke"
           id="polyline200"
           style="fill:none" />
        <polyline
           points="45.5,352.263507856 48.0,352.263507856"
           vector-effect="non-scaling-stroke"
           id="polyline202"
           style="fill:none" />
        <polyline
           points="45.5,345.137182024 48.0,345.137182024"
           vector-effect="non-scaling-stroke"
           id="polyline204"
           style="fill:none" />
        <polyline
           points="45.5,338.010856192 48.0,338.010856192"
           vector-effect="non-scaling-stroke"
           id="polyline206"
           style="fill:none" />
        <polyline
           points="45.5,330.884570786 48.0,330.884570786"
           vector-effect="non-scaling-stroke"
           id="polyline208"
           style="fill:none" />
      </g>
      <g
         font-size="11.875"
         font-style="normal"
         font-weight="400"
         transform="matrix(1,0,0,1.01064,5.5,322.333)"
         id="g210"
         style="font-size:11.875px;font-style:normal;font-weight:400;fill:none;stroke:#969696;stroke-width:1;stroke-linecap:square;stroke-linejoin:bevel;stroke-opacity:1;font-family:Sans Serif">
        <text
           font-size="11.875"
           font-style="normal"
           font-weight="400"
           x="31"
           xml:space="preserve"
           y="40.6562"
           id="text212"
           style="font-size:11.875px;font-style:normal;font-weight:400;fill:#969696;fill-opacity:1;stroke:none">0</text>
        <text
           font-size="11.875"
           font-style="normal"
           font-weight="400"
           x="19"
           xml:space="preserve"
           y="75.921898"
           id="text214"
           style="font-size:11.875px;font-style:normal;font-weight:400;fill:#969696;fill-opacity:1;stroke:none">-10</text>
        <text
           font-size="11.875"
           font-style="normal"
           font-weight="400"
           x="23"
           xml:space="preserve"
           y="5.4218798"
           id="text216"
           style="font-size:11.875px;font-style:normal;font-weight:400;fill:#969696;fill-opacity:1;stroke:none">10</text>
      </g>
    </g>
    <g
       id="ViewBox_5"
       style="fill:none;stroke:#000000;stroke-width:1;stroke-linecap:square;stroke-linejoin:bevel">
      <g
         font-size="11.875"
         font-style="normal"
         font-weight="400"
         id="g219"
         style="font-size:11.875px;font-style:normal;font-weight:400;fill:none;stroke:none;font-family:Sans Serif">
        <path
           d="m 45,322.333 616,0 0,73.3333 -616,0 0,-73.3333"
           vector-effect="non-scaling-stroke"
           id="path221"
           inkscape:connector-curvature="0" />
      </g>
      <clipPath
         id="ViewBox_5_clip">
        <path
           d="m 45,322.333 616,0 0,73.334 -616,0 0,-73.334"
           vector-effect="non-scaling-stroke"
           id="path224"
           inkscape:connector-curvature="0" />
      </clipPath>
      <g
         clip-path="url(#ViewBox_5_clip)"
         id="g226">
        <g
           id="ChildGroup_5"
           style="fill:none;stroke:#000000;stroke-width:1;stroke-linecap:square;stroke-linejoin:bevel">
          <g
             id="InfiniteLine_3"
             style="fill:none;stroke:#000000;stroke-width:1;stroke-linecap:square;stroke-linejoin:bevel">
            <g
               font-size="11.875"
               font-style="normal"
               font-weight="400"
               id="g230"
               style="font-size:11.875px;font-style:normal;font-weight:400;fill:none;stroke:#e6e6af;stroke-width:1;stroke-linecap:square;stroke-linejoin:bevel;stroke-opacity:1;font-family:Sans Serif">
              <polyline
                 points="661.00284908,359.0 44.9999465728,359.0"
                 vector-effect="non-scaling-stroke"
                 id="polyline232"
                 style="fill:none" />
            </g>
          </g>
          <g
             id="PlotDataItem_5">
            <g
               id="PlotCurveItem_5"
               style="fill:none;stroke:#000000;stroke-width:1;stroke-linecap:square;stroke-linejoin:bevel">
              <g
                 font-size="11.875"
                 font-style="normal"
                 font-weight="400"
                 id="g236"
                 style="font-size:11.875px;font-style:normal;font-weight:400;fill:none;stroke:#0000ff;stroke-width:1;stroke-linecap:square;stroke-linejoin:bevel;stroke-opacity:1;font-family:Sans Serif">
                <path
                   d="m 29.4743,351.13782 0.607724,0.84616 0.607724,0.21153 0.607724,-0.66987 0.607724,2.36218 0.607724,-2.60897 0.607724,2.82051 0.607724,0.17628 0.607724,-1.86859 0.607724,1.09295 0.607724,-0.31731 0.607724,0.28206 0.607724,-3.17308 0.607724,2.67949 0.607724,-1.44552 0.607724,1.375 0.607724,2.60898 0.607724,-1.09295 0.607724,-2.04487 0.607724,-1.44552 0.607724,3.63141 0.607724,0.38786 0.607724,-1.86863 0.607724,0.59936 0.607724,-2.64419 0.607724,3.73714 0.607724,-3.73714 0.607724,1.51599 0.607724,0.38782 0.607724,-0.31731 0.607724,2.9968 0.607724,-4.44231 0.607724,5.11218 0.607724,-3.20834 0.607724,0.45834 0.607724,-0.14103 0.607724,-3.34936 0.607724,1.58654 0.607724,1.6218 0.607724,-0.88141 0.607724,1.19871 0.607724,0.77565 0.607724,-1.51603 0.607724,-1.76282 0.607724,2.75 0.607724,1.05769 0.607724,2.67949 0.607724,-5.39423 0.607724,0.28205 0.607724,3.5609 0.607724,-3.03205 0.607724,-0.35257 0.607724,-1.62179 0.607724,2.22115 0.607724,-0.38782 0.607724,-1.65705 0.607724,2.75 0.607724,-0.45833 0.607724,-2.29167 0.607724,4.40705 0.607724,-3.52564 0.607724,3.13782 0.607724,-0.35257 0.607724,-3.38461 0.607724,3.80769 0.607724,-2.00961 0.607724,0.10577 0.607724,1.48076 0.607724,-2.22115 0.607724,0.49359 0.607724,-0.70513 0.607724,0.0353 0.607724,-0.59932 0.607724,1.90381 0.607724,-3.5609 0.607724,1.23397 0.607724,1.58654 0.607724,1.79808 0.607724,-0.45833 0.607724,-3.87821 0.607724,0.56414 0.607724,3.73714 0.607724,-2.85573 0.607724,1.72753 0.607724,0.95192 0.607724,-4.19551 0.607724,2.60897 0.607724,-0.52884 0.607724,0.63461 0.607724,2.11539 0.607724,-1.30449 0.607724,-2.57372 0.607724,3.6667 0.607724,-4.33657 0.607724,2.53846 0.607724,-1.9391 0.607724,3.73721 0.607724,-4.4776 0.607724,2.46795 0.607724,-1.33974 0.607724,2.08013 0.607724,-0.88141 0.607724,-0.91667 0.607724,1.33974 0.607724,0.74039 0.607724,0.17628 0.607724,-0.95192 0.607724,-2.96154 0.607724,3.49038 0.607724,2.25641 0.607724,-2.53846 0.607724,-1.48077 0.607724,1.9391 0.607724,-1.05769 0.607724,-0.10577 0.607724,-0.0705 0.607724,0.95192 0.607726,-0.49359 0.60772,-0.52884 0.60773,1.05769 0.60772,-3.59615 0.60772,1.76282 0.60773,4.6891 0.60772,-5.88782 0.60773,5.04166 0.60772,-3.17307 0.60772,2.96154 0.60773,-2.53846 0.60772,-1.83334 0.60773,1.9391 0.60772,-1.16342 0.60772,1.62176 0.60773,0 0.60772,-2.22116 0.60773,2.39744 0.60772,-0.5641 0.60772,-1.97436 0.60773,3.77247 0.60772,-2.64427 0.60773,1.16347 0.60772,1.72756 0.60772,0.35256 0.60773,-2.08012 0.60772,1.05769 0.60773,-1.16346 0.60772,0.98718 0.60772,1.62179 0.60773,-2.75 0.60772,0.0353 0.60773,-0.59936 0.60772,0.74038 0.60772,3.49039 0.60773,-2.67949 0.60772,-1.02244 0.60773,1.7276 0.60772,-2.8558 0.60772,0.42308 0.60773,3.41987 0.60772,-4.23077 0.60773,4.44231 0.60772,-5.57052 0.60772,3.77244 0.60773,-1.23398 0.60772,1.41026 0.60773,-1.48077 0.60772,-0.17628 0.60772,0.45833 0.60773,0.28205 0.60772,-2.22115 0.60773,2.67949 0.60772,-0.63462 0.60772,1.48077 0.60773,0.21154 0.60772,-0.2468 0.60773,-4.30128 0.60772,1.69231 0.60772,3.41987 0.60773,-4.125 0.60772,-0.81089 0.60773,3.20833 0.60772,1.33974 0.60772,-1.55128 0.60773,0.14103 0.60772,-0.0353 0.60773,-0.84615 0.60772,-0.52885 0.60772,0.45833 0.60773,-0.88141 0.60772,4.44231 0.60773,-2.04487 0.60772,-0.95192 0.60772,-0.49359 0.60773,0.81089 0.60772,0.84616 0.60773,0.52884 0.60772,-0.45833 0.60772,1.19872 0.60773,-2.22116 0.60772,0.59936 0.60773,-1.19872 0.60772,-2.11534 0.60772,2.50317 0.60773,1.05769 0.60772,-2.57372 0.60773,-1.02244 0.60772,1.86859 0.60772,3.24359 0.60773,-3.70192 0.60772,1.55128 0.60773,-0.38782 0.60772,1.12821 0.60772,-1.26923 0.60773,-0.35257 0.60772,0.95192 0.60773,-0.0352 0.60772,0.84615 0.60772,-3.63141 0.60773,2.22116 0.60772,-2.3974 0.60773,2.89099 0.60772,-1.51603 0.60772,2.36218 0.60773,-3.98397 0.60772,3.17307 0.60773,-0.59936 0.60772,1.79808 0.60772,-2.60897 0.60773,-1.44548 0.60772,3.56086 0.60773,-0.8109 0.60772,0.38782 0.60772,-2.92628 0.60773,3.06731 0.60772,0.98718 0.60773,-0.5641 0.60772,-1.48077 0.60772,-0.45834 0.60773,-0.74038 0.60772,1.44551 0.60773,0.74039 0.60772,-1.26923 0.60772,-1.72757 0.60773,4.75962 0.60772,-3.94872 0.60773,2.96157 0.60772,-1.41029 0.60772,0.98718 0.60773,-4.19551 0.60772,1.90384 0.60773,0.35257 0.60772,0.17628 0.60772,-0.35256 0.60773,-0.66988 0.60772,2.04488 0.60773,0.45833 0.60772,-4.54808 0.60772,3.27885 0.60773,0.98718 0.60772,-2.22116 0.60773,3.13786 0.60772,-1.51606 0.60772,0.66987 0.60773,-0.0705 0.60772,2.43269 0.60773,-3.03205 0.60772,3.13782 0.60772,-4.08974 0.60773,-0.56407 0.60772,2.18586 0.60773,-1.55128 0.60772,-0.0353 0.60772,0.8109 0.60773,0.70513 0.60772,-1.58654 0.60773,0.0353 0.60772,5.2532 0.60772,-5.32372 0.60773,2.22116 0.60772,-1.48077 0.60773,0.21154 0.60772,0.49359 0.60772,-1.58654 0.60773,1.62179 0.60772,-1.79807 0.60773,1.97435 0.60772,-1.65705 0.60772,0.38782 0.60773,-1.1282 0.60772,0.42308 0.60773,-0.35257 0.60772,-0.0705 0.60772,2.00961 0.60773,2.32693 0.60772,-1.6218 0.60773,-0.0353 0.60772,-4.47757 0.60772,4.97115 0.60773,-1.72756 0.60772,0.31731 0.60773,-2.00962 0.60772,2.1859 0.60772,0.77564 0.60773,-0.38782 0.60772,1.16346 0.60773,-0.5641 0.60772,-1.86859 0.60772,2.25645 0.60773,-1.37504 0.60772,-0.49359 0.60773,-1.33971 0.60772,0.74035 0.60772,0.74039 0.60773,-0.31731 0.60772,0.21154 0.60773,1.6923 0.60772,-2.22115 0.60772,1.41026 0.60773,-0.0705 0.60772,-2.32692 0.60773,-1.55124 0.60772,2.57368 0.60772,2.15064 0.60773,-1.51603 0.60772,-0.81089 0.60773,-1.09295 0.60772,2.18589 0.60772,-0.21153 0.60773,-1.79808 0.60772,-1.375 0.60773,3.52564 0.60772,-0.88141 0.60772,-0.31731 0.60773,2.85577 0.60772,-2.25641 0.60773,0.0353 0.60772,-0.10577 0.60772,-1.23398 0.60773,2.39744 0.60772,-1.97436 0.60773,-0.0705 0.60772,-0.66987 0.60772,2.5032 0.60773,1.16346 0.60772,-0.66987 0.60773,-1.55128 0.60772,-1.6218 0.60772,3.8077 0.60773,-1.30449 0.60772,-0.21154 0.60773,-2.43269 0.60772,1.65705 0.60772,-1.26923 0.60773,-1.33974 0.60772,2.75 0.60773,-0.2468 0.60772,-0.88137 0.60772,1.23393 0.60773,-1.30445 0.60772,-0.9167 0.60773,-1.26923 0.60772,0.88141 0.60772,-0.98718 0.60773,1.58654 0.60772,0.49359 0.60773,-4.125 0.60772,3.63141 0.60772,-1.55128 0.60773,-0.31731 0.60772,-0.49359 0.60773,2.00962 0.60772,1.16346 0.60772,-1.79804 0.60773,0.14099 0.60772,-1.30449 0.60773,2.43269 0.60772,-5.57051 0.60772,4.47756 0.60773,-1.1282 0.60772,-0.66987 0.60773,-0.28205 0.60772,1.41025 0.60772,-1.02243 0.60773,0.84615 0.60772,-0.52885 0.60773,0 0.60772,-1.86859 0.60772,2.60898 0.60773,0.63461 0.60772,-0.38782 0.60773,-0.74038 0.60772,-0.5641 0.60772,0.21153 0.60773,0.14103 0.60772,-2.11538 0.60773,-0.38782 0.60772,3.94871 0.60772,-3.91346 0.60773,2.25641 0.60772,-3.70192 0.60773,-0.38782 0.60772,1.65705 0.60772,-1.55128 0.60773,2.08013 0.60772,-1.58654 0.60773,-0.21154 0.60772,0.74038 0.60772,-1.97435 0.60773,-0.95193 0.60772,1.12824 0.60773,-1.86862 0.60772,2.25641 0.60772,-0.0353 0.60773,-0.84615 0.60772,1.26923 0.60773,-3.13782 0.60772,0 0.60772,0.0705 0.60773,0.35257 0.60772,0.3173 0.60773,-1.23397 0.60772,-0.31731 0.60772,-0.70513 0.60773,0.66987 0.60772,-1.58653 0.60773,-0.74039 0.60772,-1.23397 0.60772,0.63461 0.60773,-0.24679 0.60772,-0.17628 0.60773,-2.1859 0.60772,1.16346 0.60772,-0.98718 0.60773,0.28205 0.60772,-1.41025 0.60773,-0.88141 0.60772,-0.31731 0.60772,-1.33974 0.60773,-0.0705 0.60772,-0.77564 0.60773,-0.84615 0.60772,-0.2115 0.60772,-1.02247 0.60773,-0.66988 0.60772,-0.14102 0.60773,0.0353 0.60772,-0.81093 0.60772,0.35256 0.60773,0.17632 0.60772,0.31731 0.60773,0.70509 0.60772,2.99679 0.60772,1.33975 0.60773,2.11538 0.60772,4.44231 0.60773,0.5641 0.60772,3.80769 0.60772,4.86538 0.60773,7.86218 0.60772,4.61859 0.60773,-0.77564 0.60772,-1.23398 0.60772,1.16347 0.60773,-1.41026 0.60772,-1.30449 0.60773,-0.38782 0.60772,2.92628 0.60772,-1.79807 0.60773,0.49359 0.60772,1.44551 0.60773,-0.98715 0.60772,-2.36221 0.60772,2.8558 0.60773,-1.55131 0.60772,2.15064 0.60773,-3.98398 0.60772,2.29167 0.60772,-1.76282 0.60773,3.38462 0.60772,0 0.60773,-2.39744 0.60772,4.9359 0.60772,-3.84295 0.60773,1.7276 0.60772,-0.31735 0.60773,-3.34935 0.60772,0.81089 0.60772,3.03205 0.60773,-3.73717 0.60772,3.84294 0.60773,-4.65384 0.60772,-1.23398 0.60772,8.00321 0.60773,-3.98398 0.60772,-1.76282 0.60773,1.72757 0.60772,1.33974 0.60772,-2.29167 0.60773,2.22116 0.60772,-0.88141 0.60773,2.11538 0.60772,0.38782 0.60772,-4.125 0.60773,1.69231 0.60772,-0.5641 0.60773,-1.51603 0.60772,-0.24679 0.60772,2.53849 0.60773,-1.79811 0.60772,4.23077 0.60773,-6.0641 0.60772,0.5641 0.60772,6.41667 0.60773,-2.92628 0.60772,-3.94872 0.60773,2.60897 0.60772,-0.0705 0.60772,2.08013 0.60773,-0.49359 0.60772,-3.24359 0.60773,2.1859 0.60772,-1.76282 0.60772,-0.77561 0.60773,0.49355 0.60772,0.31731 0.60773,1.41026 0.60772,2.46795 0.60772,-5.04167 0.60773,3.3141 0.60772,-0.5641 0.60773,-0.21154 0.60772,0.2468 0.60772,1.02243 0.60773,-4.01923 0.60772,0.28205 0.60773,0.95193 0.60772,1.09295 0.60772,-0.52885 0.60773,-0.0353 0.60772,1.72757 0.60773,-0.56411 0.60772,1.69231 0.60772,-4.6891 0.60773,-2.29167 0.60772,8.07372 0.60773,-3.13782 0.60772,-0.45833 0.60772,0.42307 0.60773,-1.76282 0.60772,2.71475 0.60773,-1.76282 0.60772,2.53846 0.60772,-3.3141 0.60773,1.1282 0.60772,0.31731 0.60773,-1.02244 0.60772,0 0.60772,0.95193 0.60773,3.10256 0.60772,-1.33974 0.60773,-3.06731 0.60772,0.17628 0.60772,0.3526 0.60773,2.18586 0.60772,-1.79808 0.60773,0.91667 0.60772,-3.17307 0.60772,0.98717 0.60773,-0.14099 0.60772,1.76279 0.60773,0.5641 0.60772,-0.91667 0.60772,3.13782 0.60773,-5.57051 0.60772,1.65705 0.60773,4.05449 0.60772,-2.5032 0.60772,0.70512 0.60773,-1.90384 0.60772,3.94871 0.60773,-4.12499 0.60772,-1.02244 0.60772,2.00962 0.60773,-0.70513 0.60772,-2.60898 0.60773,5.25321 0.60772,-1.51603 0.60772,-0.95192 0.60773,1.90384 0.60772,-1.79807 0.60773,-0.45833 0.60772,0.91666 0.60772,-0.24679 0.60773,2.18589 0.60772,-1.9391 0.60773,-2.32692 0.60772,4.4776 0.60772,-3.38465 0.60773,0.77564 0.60772,1.05769 0.60773,3.84295 0.60772,-2.08013 0.60772,-2.57372 0.60773,-0.45833 0.60772,-0.45833 0.60773,2.85577 0.60772,-2.64423 0.60772,-2.1859 0.60773,2.36218 0.60772,2.71474 0.60773,0.35256 0.60772,1.26923 0.60772,-4.26602 0.60773,-2.08013 0.60772,3.73718 0.60773,2.39744 0.60772,-5.28846 0.60772,2.32692 0.60773,-0.5641 0.60772,1.76282 0.60773,-1.79808 0.60772,1.79808 0.60772,-0.84616 0.60773,-2.18589 0.60772,2.32692 0.60773,-4.3718 0.60772,3.70193 0.60772,0.84615 0.60773,1.09298 0.60772,1.19869 0.60773,-4.58334 0.60772,1.83334 0.60772,-2.04487 0.60773,3.20833 0.60772,-0.5641 0.60773,-4.61859 0.60772,3.66666 0.60772,1.69231 0.60773,-1.79808 0.60772,1.79808 0.60773,-1.90385 0.60772,1.48077 0.60772,1.33975 0.60773,-2.25641 0.60772,-1.02244 0.60773,2.04487 0.60772,-4.05448 0.60772,2.08012 0.60773,1.58654 0.60772,-2.29166 0.60773,1.19871 0.60772,-1.51602 0.60772,0.21154 0.60773,2.32695 0.60772,0.10574 0.60773,0.91666 0.60772,0.77565 0.60772,-4.75962 0.60773,-0.5641 0.60772,0.95192 0.60773,2.75 0.60772,-4.33654 0.60772,-0.42307 0.60773,2.99679 0.60772,-1.44548 0.60773,3.70189 0.60772,-4.47756 0.60772,3.77243 0.60773,-1.90384 0.60772,2.46795 0.60773,-0.45834 0.60772,-4.26602 0.60772,5.2532 0.60773,-1.62179 0.60772,1.48077 0.60773,-1.93911 0.60772,0.84616 0.60772,-1.19872 0.60773,1.19872 0.60772,-3.45513 0.60773,2.1859 0.60772,2.04487 0.60772,-2.67949 0.60773,-0.10577 0.60772,1.12821 0.60773,0.45833 0.60772,1.51603 0.60772,-1.55129 0.60773,-0.45833 0.60772,0.42308 0.60773,-0.21154 0.60772,-0.0353 0.60772,0.38782 0.60773,-0.74038 0.60772,5.5 0.60773,-4.61859 0.60772,-3.73718 0.60772,4.16026 0.60773,-4.08975 0.60772,5.60577 0.60773,-2.36218 0.60772,-0.35256 0.60772,-0.95192 0.60773,3.41987 0.60772,-1.58654 0.60773,-1.65705 0.60772,1.48077 0.60772,-0.38782 0.60773,2.64423 0.60772,0.38782 0.60773,-3.66667 0.60772,-2.75 0.60772,4.58333 0.60773,-0.10577 0.60772,-2.08012 0.60773,-1.55129 0.60772,3.91347 0.60772,-1.90385 0.60773,0.45833 0.60772,-1.65705 0.60773,3.03205 0.60772,-2.43269 0.60772,-1.33974 0.60773,2.92628 0.60772,1.26923 0.60773,-1.02244 0.60772,-3.34935 0.60772,2.36217 0.60773,-1.86855 0.60772,2.25641 0.60773,-1.44555 0.60772,0.35257 0.60772,-0.74039 0.60773,2.00962 0.60772,0.10577 0.60773,-3.52564 0.60772,3.13782 0.60772,-4.16022 0.60773,4.86534 0.60772,-3.38461 0.60773,4.9359 0.60772,-1.90382 0.60772,0.88138 0.60773,-3.10256 0.60772,-0.17629 0.60773,0.28206 0.60772,2.15064 0.60772,-0.31731 0.60773,-2.04487 0.60772,2.32695 0.60773,-0.0353 0.60772,0.21154 0.60772,-1.26923 0.60773,-1.375 0.60772,1.6218 0.60773,-2.1859 0.60772,2.89102 0.60772,2.36218 0.60773,-7.15705 0.60772,3.5609 0.60773,-2.32692 0.60772,4.01923 0.60772,1.16349 0.60773,-2.96157 0.60772,0.21154 0.60773,-2.99679 0.60772,3.20833 0.60772,-0.0705 0.60773,2.29167 0.60772,0.21154 0.60773,-0.95192 0.60772,-0.49359 0.60772,-1.23398 0.60773,-0.70513 0.60772,2.82052 0.60773,-2.11539 0.60772,0.49359 0.60772,-0.17628 0.60773,-1.72756 0.60772,3.59615 0.60773,-0.0353 0.60772,-0.24679 0.60772,-0.45833 0.60773,0.49358 0.60772,-2.43269 0.60773,-0.84615 0.60772,3.13785 0.60772,-1.41029 0.60773,2.11539 0.60772,-2.78526 0.60773,0.70513 0.60772,3.59615 0.60772,-1.51602 0.60773,-2.08013 0.60772,-1.69231 0.60773,1.375 0.60772,0.35257 0.60772,1.72756 0.60773,0.42308 0.60772,-3.94872 0.60773,2.67949 0.60772,-4.19552 0.60772,1.76282 0.60773,8.00321 0.60772,-6.27564 0.60773,-1.44551 0.60772,3.49038 0.60772,-1.12821 0.60773,-1.83333 0.60772,0.0353 0.60773,1.90384 0.60772,-0.38782 0.60772,-1.79807 0.60773,-0.74039 0.60772,4.26603 0.60773,2.00961 0.60772,-3.84295 0.60772,-2.53846 0.60773,1.83334 0.60772,3.84294 0.60773,-4.19551 0.60772,-1.33971 0.60772,5.00638 0.60773,-2.25641 0.60772,-0.17628 0.60773,-2.67949 0.60772,1.44551 0.60772,-1.51602 0.60773,4.86538 0.60772,-2.3974 0.60773,-0.3526 0.60772,-0.24679 0.60772,0.3173 0.60773,-2.15064 0.60772,3.63141 0.60773,1.51603 0.60772,-0.49359 0.60772,-2.50321 0.60773,1.58654 0.60772,-1.86859 0.60773,-0.38782 0.60772,1.90385 0.60772,-0.0705 0.60773,0.0705 0.60772,-2.08013 0.60773,1.86862 0.60772,1.79805 0.60772,-2.29164 0.60773,-3.13785 0.60772,1.1282 0.60773,2.64423 0.60772,1.0577 0.60772,-3.13782 0.60773,-0.98718 0.60772,-2.1859 0.60773,6.76923 0.60772,-5.92308 0.60772,4.54808 0.60773,-1.86859 0.60772,-0.95192 0.60773,2.67948 0.60772,-3.70192 0.60772,3.06734 0.60773,-2.2917 0.60772,3.80769 0.60773,-1.72756 0.60772,0.42308 0.60772,-2.46795 0.60773,1.72756 0.60772,0.52888 0.60773,-2.57375 0.60772,4.33654 0.60772,-5.5 0.60773,1.09295 0.60772,1.05769 0.60773,1.02244 0.60772,-0.10577 0.60772,-3.38462 0.60773,4.01923 0.60772,-1.44551 0.60773,-1.58654 0.60772,5.25321 0.60772,-4.30128 0.60773,3.41987 0.60772,-2.75 0.60773,0.38782 0.60772,-3.77244 0.60772,3.63141 0.60773,1.51603 0.60772,-4.83009 0.60773,4.83009 0.60772,-0.66987 0.60772,-0.14103 0.60773,-0.0353 0.60772,-3.80769 0.60773,3.70192 0.60772,1.51603 0.60772,-1.79808 0.60773,1.86859 0.60772,0.2468 0.60773,-3.94872 0.60772,3.20833 0.60772,-1.41025 0.60773,3.94871 0.60772,-1.375 0.60773,-4.26602 0.60772,4.01923 0.60772,-1.86859 0.60773,0.38782 0.60772,-0.66987 0.60773,0.8109 0.60772,-2.92629 0.60772,1.65706 0.60773,-0.52885 0.60772,0.59936 0.60773,0.88141 0.60772,-1.48077 0.60772,2.78526 0.60773,-0.91667 0.60772,0.5641 0.60773,-3.27884 0.60772,2.85576 0.60772,-1.19871 0.60773,-0.98718 0.60772,-1.375 0.60773,2.22115 0.60772,0.84619 0.60772,0.98714 0.60773,-2.18589 0.60772,-2.50321 0.60773,1.09295 0.60772,1.86859 0.60772,-1.26923 0.60773,3.3141 0.60772,0.2468 0.60773,-0.88141 0.60772,-0.91667 0.60772,0.52885 0.60773,-4.05449 0.60772,3.13782 0.60773,1.72756 0.60772,-1.51602 0.60772,-1.02244 0.60773,3.3141 0.60772,-3.24358 0.60773,-2.11539 0.60772,4.125 0.60772,-1.23397 0.60773,2.85576 0.60772,0.63462 0.60773,-1.51603 0.60772,-1.12817 0.60772,3.13779 0.60773,-1.55128 0.60772,-2.92628 0.60773,-0.17625 0.60772,1.33971 0.60772,-2.22116 0.60773,3.06731 0.60772,-4.47756 0.60773,0.24679 0.60772,4.26603 0.60772,-0.91667 0.60773,1.23398 0.60772,-3.38462 0.60773,3.38462 0.60772,-2.85577 0.60772,0.5641 0.60773,-0.49359 0.60772,2.78526 0.60773,-1.86859 0.60772,1.30448 0.60772,-2.04487 0.60773,-1.375 0.60772,0.8109 0.60773,-1.16346 0.60772,6.24038 0.60772,-3.63141 0.60773,1.58654 0.60772,-1.16346 0.60773,-2.43269 0.60772,0.91666 0.60772,1.02244 0.60773,-1.30449 0.60772,4.9359 0.60773,-1.16346 0.60772,-4.51282 0.60772,5.28846 0.60773,-1.65705 0.60772,-1.05766 0.60773,2.60894 0.60772,-0.31731 0.60772,-2.64423 0.60773,-0.38782 0.60772,-0.59936 0.60773,0.77564 0.60772,0.74039 0.60772,-0.0353 0.60773,1.9391 0.60772,-1.375 0.60773,-4.125"
                   vector-effect="non-scaling-stroke"
                   id="path238"
                   inkscape:connector-curvature="0" />
              </g>
            </g>
          </g>
        </g>
      </g>
    </g>
  </g>
  <g
     id="g3716"
     transform="translate(-97.079834,-3.5723166)">
    <path
       sodipodi:nodetypes="cccc"
       inkscape:connector-curvature="0"
       id="path3237-3"
       d="m 373.29581,15.193087 0,266.481093 0,0 0,-0.22152"
       style="fill:none;stroke:#000000;stroke-width:0.56202096;stroke-linecap:butt;stroke-linejoin:miter;stroke-miterlimit:4;stroke-opacity:1;stroke-dasharray:0.56202098, 1.68606294;stroke-dashoffset:0" />
    <text
       sodipodi:linespacing="125%"
       id="text4007-6"
       y="289.73209"
       x="341.36337"
       style="font-size:9px;font-style:normal;font-variant:normal;font-weight:normal;font-stretch:normal;line-height:125%;letter-spacing:0px;word-spacing:0px;fill:#000000;fill-opacity:1;stroke:none;font-family:TeX Gyre Termes;-inkscape-font-specification:TeX Gyre Termes"
       xml:space="preserve"><tspan
         style="font-size:14px"
         y="289.73209"
         x="341.36337"
         id="tspan4009-1"
         sodipodi:role="line">Vehicle at point A</tspan></text>
  </g>
  <text
     xml:space="preserve"
     style="font-size:9px;font-style:normal;font-variant:normal;font-weight:normal;font-stretch:normal;line-height:125%;letter-spacing:0px;word-spacing:0px;fill:#000000;fill-opacity:1;stroke:none;font-family:TeX Gyre Termes;-inkscape-font-specification:TeX Gyre Termes"
     x="6.6652699"
     y="286.15976"
     id="text4011-0"
     sodipodi:linespacing="125%"><tspan
       sodipodi:role="line"
       id="tspan4013-5"
       x="6.6652699"
       y="286.15976"
       style="font-size:14px">Initial position</tspan></text>
  <text
     xml:space="preserve"
     style="font-size:14px;font-style:normal;font-variant:normal;font-weight:normal;font-stretch:normal;line-height:125%;letter-spacing:0px;word-spacing:0px;fill:#000000;fill-opacity:1;stroke:none;font-family:TeX Gyre Termes;-inkscape-font-specification:TeX Gyre Termes"
     x="28.400986"
     y="160.14291"
     id="text4023-1"
     sodipodi:linespacing="125%"><tspan
       sodipodi:role="line"
       id="tspan4025-7"
       x="28.400986"
       y="160.14291">Sensor unit </tspan></text>
  <text
     xml:space="preserve"
     style="font-size:14px;font-style:normal;font-variant:normal;font-weight:normal;font-stretch:normal;line-height:125%;letter-spacing:0px;word-spacing:0px;fill:#000000;fill-opacity:1;stroke:none;font-family:TeX Gyre Termes;-inkscape-font-specification:TeX Gyre Termes"
     x="28.820999"
     y="78.122856"
     id="text4027-4"
     sodipodi:linespacing="125%"><tspan
       sodipodi:role="line"
       id="tspan4029-6"
       x="28.820999"
       y="78.122856">Motor unit</tspan></text>
  <text
     xml:space="preserve"
     style="font-size:14px;font-style:normal;font-variant:normal;font-weight:normal;font-stretch:normal;line-height:125%;letter-spacing:0px;word-spacing:0px;fill:#000000;fill-opacity:1;stroke:none;font-family:TeX Gyre Termes;-inkscape-font-specification:TeX Gyre Termes"
     x="28.736984"
     y="254.22151"
     id="text4031-9"
     sodipodi:linespacing="125%"><tspan
       sodipodi:role="line"
       id="tspan4033-6"
       x="28.736984"
       y="254.22151">Input transducer</tspan></text>
</svg>
