<?xml version="1.0" encoding="UTF-8" standalone="no"?>
<svg
   xmlns:dc="http://purl.org/dc/elements/1.1/"
   xmlns:cc="http://creativecommons.org/ns#"
   xmlns:rdf="http://www.w3.org/1999/02/22-rdf-syntax-ns#"
   xmlns:svg="http://www.w3.org/2000/svg"
   xmlns="http://www.w3.org/2000/svg"
   xmlns:sodipodi="http://sodipodi.sourceforge.net/DTD/sodipodi-0.dtd"
   xmlns:inkscape="http://www.inkscape.org/namespaces/inkscape"
   version="1.2"
   id="svg2"
   inkscape:version="0.48.4 r9939"
   width="635.92017"
   height="290.37598"
   sodipodi:docname="Braiten-1-2-M-M-self-connection-point.3-value.svg">
  <metadata
     id="metadata260">
    <rdf:RDF>
      <cc:Work
         rdf:about="">
        <dc:format>image/svg+xml</dc:format>
        <dc:type
           rdf:resource="http://purl.org/dc/dcmitype/StillImage" />
        <dc:title>pyqtgraph SVG export</dc:title>
      </cc:Work>
    </rdf:RDF>
  </metadata>
  <sodipodi:namedview
     pagecolor="#ffffff"
     bordercolor="#666666"
     borderopacity="1"
     objecttolerance="10"
     gridtolerance="10"
     guidetolerance="10"
     inkscape:pageopacity="0"
     inkscape:pageshadow="2"
     inkscape:window-width="1920"
     inkscape:window-height="1026"
     id="namedview258"
     showgrid="false"
     inkscape:zoom="1.2685914"
     inkscape:cx="430.5084"
     inkscape:cy="52.218536"
     inkscape:window-x="1047"
     inkscape:window-y="-3"
     inkscape:window-maximized="1"
     inkscape:current-layer="svg2"
     fit-margin-top="0"
     fit-margin-left="0"
     fit-margin-right="0"
     fit-margin-bottom="0" />
  <title
     id="title4">pyqtgraph SVG export</title>
  <desc
     id="desc6">Generated with Qt and pyqtgraph</desc>
  <defs
     id="defs8" />
  <g
     id="g3751"
     transform="translate(-25.079834,-1.5723166)">
    <g
       style="fill:none;stroke:#000000;stroke-width:1;stroke-linecap:square;stroke-linejoin:bevel"
       id="PlotItem_1">
      <g
         style="fill:none;stroke:#000000;stroke-width:1;stroke-linecap:square;stroke-linejoin:bevel"
         id="AxisItem_1">
        <g
           style="font-size:11.875px;font-style:normal;font-weight:400;fill:none;stroke:#969696;stroke-width:1;stroke-linecap:square;stroke-linejoin:bevel;stroke-opacity:1;font-family:Sans Serif"
           id="g14"
           font-weight="400"
           font-style="normal"
           font-size="11.875">
          <polyline
             style="fill:none"
             id="polyline16"
             vector-effect="non-scaling-stroke"
             points="45.0,5.0 45.0,79.113566312" />
        </g>
        <g
           style="font-size:11.875px;font-style:normal;font-weight:400;fill:none;stroke:#969696;stroke-width:1;stroke-linecap:square;stroke-linejoin:bevel;stroke-opacity:1;font-family:Sans Serif"
           id="g18"
           font-weight="400"
           font-style="normal"
           font-size="11.875">
          <polyline
             style="fill:none"
             id="polyline20"
             vector-effect="non-scaling-stroke"
             points="45.5,42.056833688 50.5,42.056833688" />
        </g>
        <g
           style="font-size:11.875px;font-style:normal;font-weight:400;fill:none;stroke:#969696;stroke-width:1;stroke-linecap:square;stroke-linejoin:bevel;stroke-opacity:0.49803904;font-family:Sans Serif"
           id="g22"
           font-weight="400"
           font-style="normal"
           font-size="11.875">
          <polyline
             style="fill:none"
             id="polyline24"
             vector-effect="non-scaling-stroke"
             points="45.5,77.688361784 48.8333,77.688361784" />
          <polyline
             style="fill:none"
             id="polyline26"
             vector-effect="non-scaling-stroke"
             points="45.5,6.4252651664 48.8333,6.4252651664" />
        </g>
        <g
           style="font-size:11.875px;font-style:normal;font-weight:400;fill:none;stroke:#969696;stroke-width:1;stroke-linecap:square;stroke-linejoin:bevel;stroke-opacity:0.33333297;font-family:Sans Serif"
           id="g28"
           font-weight="400"
           font-style="normal"
           font-size="11.875">
          <polyline
             style="fill:none"
             id="polyline30"
             vector-effect="non-scaling-stroke"
             points="45.5,70.562035952 48.0,70.562035952" />
          <polyline
             style="fill:none"
             id="polyline32"
             vector-effect="non-scaling-stroke"
             points="45.5,63.43571012 48.0,63.43571012" />
          <polyline
             style="fill:none"
             id="polyline34"
             vector-effect="non-scaling-stroke"
             points="45.5,56.309384288 48.0,56.309384288" />
          <polyline
             style="fill:none"
             id="polyline36"
             vector-effect="non-scaling-stroke"
             points="45.5,49.183058456 48.0,49.183058456" />
          <polyline
             style="fill:none"
             id="polyline38"
             vector-effect="non-scaling-stroke"
             points="45.5,34.930507856 48.0,34.930507856" />
          <polyline
             style="fill:none"
             id="polyline40"
             vector-effect="non-scaling-stroke"
             points="45.5,27.804182024 48.0,27.804182024" />
          <polyline
             style="fill:none"
             id="polyline42"
             vector-effect="non-scaling-stroke"
             points="45.5,20.677856192 48.0,20.677856192" />
          <polyline
             style="fill:none"
             id="polyline44"
             vector-effect="non-scaling-stroke"
             points="45.5,13.5515707856 48.0,13.5515707856" />
        </g>
        <g
           style="font-size:11.875px;font-style:normal;font-weight:400;fill:none;stroke:#969696;stroke-width:1;stroke-linecap:square;stroke-linejoin:bevel;stroke-opacity:1;font-family:Sans Serif"
           id="g46"
           transform="matrix(1,0,0,1.01064,5.5,5)"
           font-weight="400"
           font-style="normal"
           font-size="11.875">
          <text
             style="font-size:11.875px;font-style:normal;font-weight:400;fill:#969696;fill-opacity:1;stroke:none"
             id="text48"
             y="40.6562"
             xml:space="preserve"
             x="31"
             font-weight="400"
             font-style="normal"
             font-size="11.875">0</text>
          <text
             style="font-size:11.875px;font-style:normal;font-weight:400;fill:#969696;fill-opacity:1;stroke:none"
             id="text50"
             y="75.921898"
             xml:space="preserve"
             x="19"
             font-weight="400"
             font-style="normal"
             font-size="11.875">-10</text>
          <text
             style="font-size:11.875px;font-style:normal;font-weight:400;fill:#969696;fill-opacity:1;stroke:none"
             id="text52"
             y="5.4218798"
             xml:space="preserve"
             x="23"
             font-weight="400"
             font-style="normal"
             font-size="11.875">10</text>
        </g>
      </g>
      <g
         style="fill:none;stroke:#000000;stroke-width:1;stroke-linecap:square;stroke-linejoin:bevel"
         id="ViewBox_1">
        <g
           style="font-size:11.875px;font-style:normal;font-weight:400;fill:none;stroke:none;font-family:Sans Serif"
           id="g55"
           font-weight="400"
           font-style="normal"
           font-size="11.875">
          <path
             inkscape:connector-curvature="0"
             id="path57"
             vector-effect="non-scaling-stroke"
             d="m 45,5 616,0 0,73.3333 -616,0 L 45,5" />
        </g>
        <clipPath
           id="ViewBox_1_clip">
          <path
             inkscape:connector-curvature="0"
             id="path60"
             vector-effect="non-scaling-stroke"
             d="m 45,5 616,0 0,73.3333 -616,0 L 45,5" />
        </clipPath>
        <g
           id="g62"
           clip-path="url(#ViewBox_1_clip)">
          <g
             style="fill:none;stroke:#000000;stroke-width:1;stroke-linecap:square;stroke-linejoin:bevel"
             id="ChildGroup_1">
            <g
               style="fill:none;stroke:#000000;stroke-width:1;stroke-linecap:square;stroke-linejoin:bevel"
               id="InfiniteLine_1">
              <g
                 style="font-size:11.875px;font-style:normal;font-weight:400;fill:none;stroke:#e6e6af;stroke-width:1;stroke-linecap:square;stroke-linejoin:bevel;stroke-opacity:1;font-family:Sans Serif"
                 id="g66"
                 font-weight="400"
                 font-style="normal"
                 font-size="11.875">
                <polyline
                   style="fill:none"
                   id="polyline68"
                   vector-effect="non-scaling-stroke"
                   points="661.00268021,41.6667 44.999982536,41.6667" />
              </g>
            </g>
            <g
               id="PlotDataItem_1">
              <g
                 style="fill:none;stroke:#000000;stroke-width:1;stroke-linecap:square;stroke-linejoin:bevel"
                 id="PlotCurveItem_1">
                <g
                   style="font-size:11.875px;font-style:normal;font-weight:400;fill:none;stroke:#ff0000;stroke-width:1;stroke-linecap:square;stroke-linejoin:bevel;stroke-opacity:1;font-family:Sans Serif"
                   id="g72"
                   font-weight="400"
                   font-style="normal"
                   font-size="11.875">
                  <path
                     inkscape:connector-curvature="0"
                     id="path74"
                     vector-effect="non-scaling-stroke"
                     d="m 29.4743,41.631091 1.21667,-0.06135 1.21667,0.03035 1.21667,-0.03034 1.21667,0.06053 1.21667,-0.03923 1.21667,-0.06427 1.21667,-0.0052 1.21667,0.0785 1.21667,0.03758 1.21667,-0.1595 1.21667,-0.0428 1.21667,-0.05306 1.21667,0.09886 1.21667,0.0094 1.21667,-0.0058 1.21667,-0.01671 1.21667,-0.03783 1.21667,0.09928 1.21667,-0.101045 1.21667,-0.01061 1.21667,-0.07009 1.21667,-0.08878 1.21667,-0.02602 1.21667,0.02694 1.21667,0.02479 1.21667,0.09174 1.21667,0.08796 1.21667,-0.02542 1.21667,-0.02623 1.21667,-0.03861 1.21667,0.01097 1.21667,-0.04813 1.21667,-0.01502 1.21667,-0.03117 1.21667,-0.01403 1.21667,-0.0281 1.21667,0.0018 1.21667,-0.008 1.21667,-0.0051 1.21667,0.09012 1.21667,-0.152201 1.21667,-0.01921 1.21667,-0.08179 1.21667,0.05394 1.21667,-0.03646 1.21667,0.0051 1.21667,0.07506 1.21667,-0.08744 1.21667,-0.04157 1.21667,0.02204 1.21667,0.0691 1.21667,0.02447 1.21667,0.02182 1.21667,0.07577 1.21667,-0.140849 1.21667,0.0189 1.21667,-0.02295 1.21667,-0.113984 1.21667,-0.0058 1.21667,-0.07665 1.21667,0.03991 1.21667,0.0849 1.21667,-0.04802 1.21667,-0.118073 1.21667,-0.07552 1.21667,0.01886 1.21667,0.0054 1.21667,0 1.21667,-0.06413 1.21667,-0.03702 1.21667,-0.104006 1.21667,-0.0096 1.21667,0.04114 1.21667,-0.03822 1.21667,-0.01502 1.21667,-0.06293 1.21667,0.109118 1.21667,-0.02584 1.21667,-0.118179 1.21667,0.02133 1.21667,-0.02789 1.21667,0.04721 1.21667,-0.01051 1.21667,0.019 1.21667,-0.01548 1.21667,-0.02669 1.21667,-0.09153 1.21667,-0.116029 1.21667,-0.07019 1.21667,0.01424 1.21667,-0.150298 1.21667,-0.13884 1.21667,-0.04858 1.21667,0.02514 1.21667,-0.07411 1.21667,-0.03504 1.21667,-0.140638 1.21667,0.02108 1.21667,-0.07742 1.21667,-0.05253 1.21667,-0.09872 1.21667,0.0016 1.21667,-0.006 1.21667,-0.05408 1.21667,-0.04315 1.21667,-0.04996 1.21667,-0.156609 1.21667,-0.05468 1.21667,0.04069 1.21667,-0.144692 1.21667,-0.103196 1.21667,-0.01449 1.21667,-0.07214 1.21667,-0.03878 1.21667,0.01393 1.21667,0.0081 1.21667,-0.03871 1.21667,-0.04125 1.21667,-0.119166 1.21667,0.07936 1.21667,-0.04851 1.21667,0.02468 1.21667,-0.118849 1.21667,-0.03469 1.21667,0.0087 1.21667,0.02553 1.21667,-0.0563 1.21667,0.0312 1.21667,-0.07467 1.21667,-0.03251 1.21667,0.02852 1.21667,-0.09516 1.21667,-0.08359 1.21667,-0.07629 1.21667,-0.184709 1.21667,-0.08317 1.21667,-0.05408 1.21667,-0.118038 1.21667,-0.0049 1.21667,0.03677 1.21667,-0.0574 1.21667,-0.03275 1.21667,-0.08038 1.21667,-0.0196 1.21667,-0.06015 1.21667,-0.05281 1.21667,-0.06815 1.21667,0.06459 1.21667,-0.117933 1.21667,0.113879 1.21667,-0.130625 1.21667,-0.05236 1.21667,-0.08934 1.21667,0.05345 1.21667,-0.102949 1.21667,-0.0397 1.21667,-0.07979 1.21667,0.07887 1.21667,-0.119378 1.21667,-0.0874 1.21667,-0.06639 1.21667,-0.131013 1.21667,-0.07901 1.21667,-0.178503 1.21667,-0.06981 1.21667,0.04612 1.21667,-0.08818 1.21667,-0.05229 1.21667,-0.110564 1.21667,-0.106474 1.21667,-0.04834 1.21667,-0.18559 1.21667,-0.04612 1.21667,-0.05133 1.21667,-0.118885 1.21667,-0.08204 1.21667,-0.110634 1.21667,-0.05937 1.21667,-0.07668 1.21667,-0.138346 1.21667,-0.11074 1.21667,0.03141 1.21667,-0.04925 1.21667,-0.01996 1.21667,-0.118708 1.21667,-0.183157 1.21667,-0.09607 1.21667,-0.0207 1.21667,-0.03737 1.21667,-0.113279 1.21667,-0.06928 1.21667,-0.09477 1.21667,-0.0403 1.21667,-0.0064 1.21667,-0.03899 1.21667,-0.110564 1.21667,-0.123891 1.21667,-0.1155 1.21667,8.81e-4 1.21667,-0.02613 1.21667,-0.03251 1.21667,-0.0064 1.21667,-0.08486 1.21667,-0.08056 1.21667,-0.100516 1.21667,0.0048 1.21667,-0.03903 1.21667,-0.01576 1.21667,-0.04968 1.21667,0.09988 1.21667,0.08024 1.21667,-0.157067 1.21667,-0.12717 1.21667,-0.03797 1.21667,-0.103231 1.21667,-0.117756 1.21667,-0.121599 1.21667,0.0069 1.21667,-0.05969 1.21667,-0.04795 1.21667,0.01029 1.21667,0.0017 1.21667,-0.128897 1.21667,-0.147125 1.21667,-0.04136 1.21667,-0.170183 1.21667,-0.0745 1.21667,-0.02165 1.21667,-0.0069 1.21667,-0.173109 1.21667,-0.04005 1.21667,-0.121141 1.21667,-0.148007 1.21667,-0.0366 1.21667,-0.167186 1.21667,-0.06403 1.21667,-0.08775 1.21667,0.0195 1.21667,-0.06575 1.21667,-0.03226 1.21667,-0.05429 1.21667,-0.136337 1.21667,-0.06198 1.21667,-0.104323 1.21667,-0.0922 1.21667,-0.04756 1.21667,-0.142295 1.21667,-0.01252 1.21667,-0.118849 1.21667,0.05867 1.21667,-0.0789 1.21667,-0.104112 1.21667,-0.07495 1.21667,-0.118427 1.21667,-0.08874 1.21667,-0.115923 1.21667,-0.117897 1.21667,-0.06917 1.21667,-0.123962 1.21667,-0.06202 1.21667,-0.0152 1.21667,-0.07235 1.21667,-0.0263 1.21667,0.07238 1.21667,-0.07344 1.21667,-0.14515 1.21667,-0.08377 1.21667,-0.0844 1.21667,-0.211327 1.21667,-0.08377 1.21667,-0.08317 1.21667,-0.172369 1.21667,-0.07157 1.21667,-0.08028 1.21667,0.02281 1.21667,-0.108942 1.21667,-0.206039 1.21667,-0.09029 1.21667,-0.100869 1.21667,-0.03959 1.21667,-0.284731 1.21667,-0.05659 1.21667,-0.159324 1.21667,-0.10457 1.21667,-0.07795 1.21667,-0.0892 1.21667,-0.01823 1.21667,-0.143494 1.21667,-0.164119 1.21667,-0.09918 1.21667,-0.110282 1.21667,-0.138134 1.21667,-0.0898 1.21667,-0.08969 1.21667,-0.191971 1.21667,-0.174025 1.21667,-0.123327 1.21667,-0.088 1.21667,-0.1106 1.21667,-0.100727 1.21667,-0.07041 1.21667,-0.151356 1.21667,-0.216227 1.21667,-0.03011 1.21667,-0.246725 1.21667,-0.181676 1.21667,-0.15333 1.21667,-0.01999 1.21667,-0.101503 1.21667,-0.179561 1.21667,-0.202866 1.21667,-0.0928 1.21667,-0.107108 1.21667,-0.05733 1.21667,-0.188023 1.21667,-0.09163 1.21667,-0.09294 1.21667,-0.219788 1.21667,-0.07982 1.21667,-0.06078 1.21667,-0.169195 1.21667,-0.140955 1.21667,-0.09685 1.21667,-0.10584 1.21667,-0.152942 1.21667,-0.164788 1.21667,-0.09699 1.21667,-0.169054 1.21667,-0.14501 1.21667,-0.184108 1.21667,-0.180619 1.21667,-0.125936 1.21667,-0.08229 1.21667,-0.204276 1.21667,-0.07312 1.21667,-0.222115 1.21667,-0.124596 1.21667,-0.149946 1.21667,-0.06336 1.21667,-0.03963 1.21667,-0.16031 1.21667,-0.201314 1.21667,-0.157843 1.21667,-0.14843 1.21667,-0.181641 1.21667,-0.199198 1.21667,-0.09812 1.21667,-0.133234 1.21667,-0.09339 1.21667,-0.06956 1.21667,-0.195426 1.21667,-0.167257 1.21667,-0.09516 1.21667,-0.11074 1.21667,-0.123186 1.21667,-0.198775 1.21667,-0.148959 1.21667,-0.135278 1.21667,-0.117299 1.21667,-0.148746 1.21667,-0.10933 1.21667,-0.12858 1.21667,-0.160135 1.21667,-0.240695 1.21667,-0.07633 1.21667,-0.127945 1.21667,-0.138593 1.21667,-0.136689 1.21667,-0.132458 1.21667,-0.183263 1.21667,-0.218907 1.21667,-0.100234 1.21667,-0.161721 1.21667,-0.138029 1.21667,-0.107673 1.21667,-0.173708 1.21667,-0.125584 1.21667,-0.14723 1.21667,-0.141519 1.21667,-0.230754 1.21667,-0.149628 1.21667,-0.113596 1.21667,-0.141836 1.21667,-0.02916 1.21667,-0.09403 1.21667,-0.04086 1.21667,-0.128052 1.21667,-0.123855 1.21667,-0.104113 1.21667,-0.0063 1.21667,-0.134714 1.21667,-0.07739 1.21667,-0.119308 1.21667,-0.146737 1.21667,-0.09956 1.21667,0.02256 1.21667,-0.08331 1.21667,-0.190737 1.21667,-0.179243 1.21667,-0.183651 1.21667,-0.205792 1.21667,-0.06635 1.21667,-0.139263 1.21667,-0.110917 1.21667,-0.110669 1.21667,-0.0537 1.21667,-0.107532 1.21667,-0.08218 1.21667,-0.04129 1.21667,-0.148817 1.21667,-0.107109 1.21667,-0.091 1.21667,-0.234878 1.21667,-0.120577 1.21667,-0.102455 1.21667,-0.122128 1.21667,-0.02542 1.21667,-0.0012 1.21667,0.03141 1.21667,-0.0238 1.21667,-0.110705 1.21667,-0.09054 1.21667,-0.01502 1.21667,-0.06462 1.21667,-0.06794 1.21667,-0.08814 1.21667,-0.1128562 1.21667,-0.2163333 1.21667,-0.034022 1.21667,-0.034904 1.21667,-0.053837 1.21667,-0.054083 1.21667,-0.1108814 1.21667,-0.073051 1.21667,-0.045234 1.21667,-0.2190127 1.21667,-0.1271699 1.21667,-0.1122211 1.21667,-0.132423 1.21667,-0.089974 1.21667,-0.00811 1.21667,-0.039558 1.21667,-0.020061 1.21667,0.00381 1.21667,-0.1757532 1.21667,-0.1147948 1.21667,-0.1146891 1.21667,-0.094417 1.21667,-0.090644 1.21667,0.00871 1.21667,-0.1088012 1.21667,-0.024433 1.21667,-0.083417 1.21667,-0.00458 1.21667,-0.1916185 1.21667,-0.091984 1.21667,0.03991 1.21667,-0.059865 1.21667,-0.142048 1.21667,-0.09283 1.21667,-0.097519 1.21667,-0.041038 1.21667,0.031837 1.21667,-0.026301 1.21667,-0.119766 1.21667,-0.1132083 1.21667,-0.1742372 1.21667,-0.092795 1.21667,-0.061205 1.21667,0.043365 1.21667,-0.035362 1.21667,-0.065753 1.21667,-0.049429 1.21667,-0.017522 1.21667,0 1.21667,0.019003 1.21667,0.041955 1.21667,0.035292 1.21667,0.031519 1.21667,0.028417 1.21667,-0.1561859 1.21667,0 1.21667,0.013433 1.21667,-0.013433 1.21667,0 1.21667,0 1.21667,0.058737 1.21667,0.00829 1.21667,0.07566 1.21667,-0.024926 1.21667,-0.0086 1.21667,-0.053167 1.21667,0.091878 1.21667,-0.084263 1.21667,0.034974 1.21667,-0.082641 1.21667,-0.015936 1.21667,0 1.21667,0" />
                </g>
              </g>
            </g>
          </g>
        </g>
      </g>
    </g>
    <g
       transform="translate(0,-72)"
       style="fill:none;stroke:#000000;stroke-width:1;stroke-linecap:square;stroke-linejoin:bevel"
       id="PlotItem_3">
      <g
         style="fill:none;stroke:#000000;stroke-width:1;stroke-linecap:square;stroke-linejoin:bevel"
         id="AxisItem_2">
        <g
           style="font-size:11.875px;font-style:normal;font-weight:400;fill:none;stroke:#969696;stroke-width:1;stroke-linecap:square;stroke-linejoin:bevel;stroke-opacity:1;font-family:Sans Serif"
           id="g96"
           font-weight="400"
           font-style="normal"
           font-size="11.875">
          <polyline
             style="fill:none"
             id="polyline98"
             vector-effect="non-scaling-stroke"
             points="45.0,163.667 45.0,237.780566312" />
        </g>
        <g
           style="font-size:11.875px;font-style:normal;font-weight:400;fill:none;stroke:#969696;stroke-width:1;stroke-linecap:square;stroke-linejoin:bevel;stroke-opacity:1;font-family:Sans Serif"
           id="g100"
           font-weight="400"
           font-style="normal"
           font-size="11.875">
          <polyline
             style="fill:none"
             id="polyline102"
             vector-effect="non-scaling-stroke"
             points="45.5,200.723833688 50.5,200.723833688" />
        </g>
        <g
           style="font-size:11.875px;font-style:normal;font-weight:400;fill:none;stroke:#969696;stroke-width:1;stroke-linecap:square;stroke-linejoin:bevel;stroke-opacity:0.49803904;font-family:Sans Serif"
           id="g104"
           font-weight="400"
           font-style="normal"
           font-size="11.875">
          <polyline
             style="fill:none"
             id="polyline106"
             vector-effect="non-scaling-stroke"
             points="45.5,236.355361784 48.8333,236.355361784" />
          <polyline
             style="fill:none"
             id="polyline108"
             vector-effect="non-scaling-stroke"
             points="45.5,165.092265166 48.8333,165.092265166" />
        </g>
        <g
           style="font-size:11.875px;font-style:normal;font-weight:400;fill:none;stroke:#969696;stroke-width:1;stroke-linecap:square;stroke-linejoin:bevel;stroke-opacity:0.33333297;font-family:Sans Serif"
           id="g110"
           font-weight="400"
           font-style="normal"
           font-size="11.875">
          <polyline
             style="fill:none"
             id="polyline112"
             vector-effect="non-scaling-stroke"
             points="45.5,229.229035952 48.0,229.229035952" />
          <polyline
             style="fill:none"
             id="polyline114"
             vector-effect="non-scaling-stroke"
             points="45.5,222.10271012 48.0,222.10271012" />
          <polyline
             style="fill:none"
             id="polyline116"
             vector-effect="non-scaling-stroke"
             points="45.5,214.976384288 48.0,214.976384288" />
          <polyline
             style="fill:none"
             id="polyline118"
             vector-effect="non-scaling-stroke"
             points="45.5,207.850058456 48.0,207.850058456" />
          <polyline
             style="fill:none"
             id="polyline120"
             vector-effect="non-scaling-stroke"
             points="45.5,193.597507856 48.0,193.597507856" />
          <polyline
             style="fill:none"
             id="polyline122"
             vector-effect="non-scaling-stroke"
             points="45.5,186.471182024 48.0,186.471182024" />
          <polyline
             style="fill:none"
             id="polyline124"
             vector-effect="non-scaling-stroke"
             points="45.5,179.344856192 48.0,179.344856192" />
          <polyline
             style="fill:none"
             id="polyline126"
             vector-effect="non-scaling-stroke"
             points="45.5,172.218570786 48.0,172.218570786" />
        </g>
        <g
           style="font-size:11.875px;font-style:normal;font-weight:400;fill:none;stroke:#969696;stroke-width:1;stroke-linecap:square;stroke-linejoin:bevel;stroke-opacity:1;font-family:Sans Serif"
           id="g128"
           transform="matrix(1,0,0,1.01064,5.5,163.667)"
           font-weight="400"
           font-style="normal"
           font-size="11.875">
          <text
             style="font-size:11.875px;font-style:normal;font-weight:400;fill:#969696;fill-opacity:1;stroke:none"
             id="text130"
             y="40.6562"
             xml:space="preserve"
             x="31"
             font-weight="400"
             font-style="normal"
             font-size="11.875">0</text>
          <text
             style="font-size:11.875px;font-style:normal;font-weight:400;fill:#969696;fill-opacity:1;stroke:none"
             id="text132"
             y="75.921898"
             xml:space="preserve"
             x="19"
             font-weight="400"
             font-style="normal"
             font-size="11.875">-10</text>
          <text
             style="font-size:11.875px;font-style:normal;font-weight:400;fill:#969696;fill-opacity:1;stroke:none"
             id="text134"
             y="5.4218798"
             xml:space="preserve"
             x="23"
             font-weight="400"
             font-style="normal"
             font-size="11.875">10</text>
        </g>
      </g>
      <g
         style="fill:none;stroke:#000000;stroke-width:1;stroke-linecap:square;stroke-linejoin:bevel"
         id="ViewBox_3">
        <g
           style="font-size:11.875px;font-style:normal;font-weight:400;fill:none;stroke:none;font-family:Sans Serif"
           id="g137"
           font-weight="400"
           font-style="normal"
           font-size="11.875">
          <path
             inkscape:connector-curvature="0"
             id="path139"
             vector-effect="non-scaling-stroke"
             d="m 45,163.667 616,0 0,73.3333 -616,0 0,-73.3333" />
        </g>
        <clipPath
           id="ViewBox_3_clip">
          <path
             inkscape:connector-curvature="0"
             id="path142"
             vector-effect="non-scaling-stroke"
             d="m 45,163.667 616,0 0,73.333 -616,0 0,-73.333" />
        </clipPath>
        <g
           id="g144"
           clip-path="url(#ViewBox_3_clip)">
          <g
             style="fill:none;stroke:#000000;stroke-width:1;stroke-linecap:square;stroke-linejoin:bevel"
             id="ChildGroup_3">
            <g
               style="fill:none;stroke:#000000;stroke-width:1;stroke-linecap:square;stroke-linejoin:bevel"
               id="InfiniteLine_2">
              <g
                 style="font-size:11.875px;font-style:normal;font-weight:400;fill:none;stroke:#e6e6af;stroke-width:1;stroke-linecap:square;stroke-linejoin:bevel;stroke-opacity:1;font-family:Sans Serif"
                 id="g148"
                 font-weight="400"
                 font-style="normal"
                 font-size="11.875">
                <polyline
                   style="fill:none"
                   id="polyline150"
                   vector-effect="non-scaling-stroke"
                   points="661.00268021,200.333 44.999982536,200.333" />
              </g>
            </g>
            <g
               id="PlotDataItem_3">
              <g
                 style="fill:none;stroke:#000000;stroke-width:1;stroke-linecap:square;stroke-linejoin:bevel"
                 id="PlotCurveItem_3">
                <g
                   style="font-size:11.875px;font-style:normal;font-weight:400;fill:none;stroke:#00ff00;stroke-width:1;stroke-linecap:square;stroke-linejoin:bevel;stroke-opacity:1;font-family:Sans Serif"
                   id="g154"
                   font-weight="400"
                   font-style="normal"
                   font-size="11.875">
                  <path
                     inkscape:connector-curvature="0"
                     id="path156"
                     vector-effect="non-scaling-stroke"
                     d="m 29.4743,200.42037 1.21667,-0.0591 1.21667,0.0202 1.21667,-0.0766 1.21667,-0.006 1.21667,-0.0517 1.21667,-0.0182 1.21667,0.11576 1.21667,0.0363 1.21667,-0.0766 1.21667,-0.1344 1.21667,-0.0258 1.21667,-0.0437 1.21667,-0.0762 1.21667,-0.0514 1.21667,-0.1033 1.21667,-0.10129 1.21667,-0.0476 1.21667,-0.0269 1.21667,-0.0418 1.21667,-0.10482 1.21667,-0.001 1.21667,-0.13299 1.21667,-0.0436 1.21667,-0.007 1.21667,-0.1468 1.21667,-0.0147 1.21667,0.0712 1.21667,-0.0391 1.21667,-0.15531 1.21667,-0.13623 1.21667,-0.10788 1.21667,0.0459 1.21667,-0.12354 1.21667,-0.0426 1.21667,-0.13098 1.21667,-0.11902 1.21667,-0.16764 1.21667,-0.11205 1.21667,-0.0649 1.21667,-0.1222 1.21667,-0.17075 1.21667,-0.11684 1.21667,0.0282 1.21667,-0.1296 1.21667,-0.17836 1.21667,-0.005 1.21667,-0.15227 1.21667,-0.0686 1.21667,-0.0788 1.21667,-0.005 1.21667,-0.15354 1.21667,-0.0215 1.21667,-0.0372 1.21667,-0.15481 1.21667,0.0134 1.21667,0.0176 1.21667,-0.11257 1.21667,-0.11539 1.21667,-0.10888 1.21667,-0.0565 1.21667,-0.10299 1.21667,-0.0622 1.21667,-0.018 1.21667,-0.11596 1.21667,-0.0884 1.21667,-0.0861 1.21667,-0.11106 1.21667,-0.0979 1.21667,-0.0952 1.21667,-0.0928 1.21667,-0.12861 1.21667,-0.0343 1.21667,-0.0643 1.21667,-0.14754 1.21667,-0.13056 1.21667,-0.0242 1.21667,-0.0994 1.21667,-0.13465 1.21667,-0.0267 1.21667,-0.0631 1.21667,-0.0654 1.21667,0.0448 1.21667,-0.13581 1.21667,-0.0678 1.21667,-0.141 1.21667,-0.0297 1.21667,-0.12731 1.21667,-0.0826 1.21667,-0.0832 1.21667,-0.045 1.21667,-0.0791 1.21667,0.006 1.21667,-0.0522 1.21667,-0.0594 1.21667,-0.0995 1.21667,0.009 1.21667,-0.0458 1.21667,-0.10965 1.21667,0.0265 1.21667,-0.0337 1.21667,-0.0719 1.21667,-0.0975 1.21667,-0.13179 1.21667,0.002 1.21667,0.009 1.21667,-0.0708 1.21667,-0.0699 1.21667,-0.10567 1.21667,0.0353 1.21667,-0.0509 1.21667,0.0497 1.21667,-0.0415 1.21667,-0.01 1.21667,-0.0186 1.21667,-0.0996 1.21667,-0.17794 1.21667,-0.03 1.21667,0.0326 1.21667,-0.13806 1.21667,-0.0218 1.21667,-0.0785 1.21667,-0.0832 1.21667,-0.0751 1.21667,-0.12608 1.21667,-0.12212 1.21667,-0.0803 1.21667,-0.0309 1.21667,-0.12738 1.21667,-0.008 1.21667,-0.0486 1.21667,-0.0232 1.21667,-0.15439 1.21667,-0.0528 1.21667,-0.0847 1.21667,0.0188 1.21667,-0.0264 1.21667,-0.0156 1.21667,-0.0648 1.21667,-0.13725 1.21667,-0.10775 1.21667,-0.18622 1.21667,-0.0284 1.21667,-0.0372 1.21667,-0.11469 1.21667,-0.13063 1.21667,-0.15001 1.21667,-0.18898 1.21667,-0.1143 1.21667,-0.0755 1.21667,-0.0928 1.21667,-0.0911 1.21667,-0.12135 1.21667,-0.0682 1.21667,-0.0774 1.21667,0.005 1.21667,0.003 1.21667,-0.0644 1.21667,-0.0948 1.21667,-0.10175 1.21667,0.007 1.21667,-0.10214 1.21667,-0.0483 1.21667,-0.0672 1.21667,-0.11179 1.21667,-0.1057 1.21667,-0.003 1.21667,-0.0864 1.21667,-0.0514 1.21667,-0.0528 1.21667,0.022 1.21667,-0.0519 1.21667,0.0103 1.21667,0.002 1.21667,-0.14892 1.21667,0.0559 1.21667,-0.0569 1.21667,-0.0198 1.21667,-0.003 1.21667,0.0656 1.21667,-0.048 1.21667,-0.0653 1.21667,-0.12082 1.21667,0.0194 1.21667,-0.0685 1.21667,-0.0531 1.21667,-0.0383 1.21667,-0.0137 1.21667,-0.0763 1.21667,0.002 1.21667,-0.0667 1.21667,-0.14243 1.21667,-0.005 1.21667,-0.0711 1.21667,-0.0866 1.21667,-0.0808 1.21667,-0.0168 1.21667,-0.0543 1.21667,-0.0475 1.21667,-0.14057 1.21667,-0.0146 1.21667,0.0196 1.21667,-0.0965 1.21667,-0.097 1.21667,-0.058 1.21667,-0.0114 1.21667,-0.10058 1.21667,-0.0196 1.21667,-0.0979 1.21667,-0.17368 1.21667,0.005 1.21667,-0.0628 1.21667,-0.0524 1.21667,-0.0606 1.21667,-0.006 1.21667,-0.22219 1.21667,-0.12272 1.21667,-0.09 1.21667,-0.10006 1.21667,-0.004 1.21667,-0.0301 1.21667,-0.11476 1.21667,-0.0839 1.21667,-0.02 1.21667,-0.12456 1.21667,-0.0446 1.21667,-0.0927 1.21667,-0.1241 1.21667,-0.12083 1.21667,-0.0972 1.21667,-0.0736 1.21667,-0.0476 1.21667,-0.11303 1.21667,0.0204 1.21667,-0.10351 1.21667,-0.0176 1.21667,-0.0643 1.21667,-0.0459 1.21667,-0.15118 1.21667,-0.0721 1.21667,-0.19874 1.21667,0.003 1.21667,-0.10799 1.21667,-0.16796 1.21667,-0.11539 1.21667,-0.0355 1.21667,-0.10369 1.21667,-0.12319 1.21667,-0.0354 1.21667,-0.057 1.21667,-0.13458 1.21667,-0.0948 1.21667,-0.20572 1.21667,-0.0864 1.21667,-0.1144 1.21667,-0.0646 1.21667,-0.14413 1.21667,-0.13859 1.21667,-0.16595 1.21667,-0.14494 1.21667,-0.14871 1.21667,-0.17685 1.21667,-0.11913 1.21667,-0.16165 1.21667,-0.2549 1.21667,-0.17586 1.21667,-0.14889 1.21667,-0.11155 1.21667,-0.16461 1.21667,-0.24832 1.21667,-0.16595 1.21667,-0.11511 1.21667,-0.18319 1.21667,-0.19218 1.21667,-0.26654 1.21667,-0.13489 1.21667,-0.21778 1.21667,-0.17004 1.21667,-0.10993 1.21667,-0.22878 1.21667,-0.13084 1.21667,-0.20131 1.21667,-0.15263 1.21667,-0.21799 1.21667,-0.17773 1.21667,-0.1456 1.21667,-0.24204 1.21667,-0.20078 1.21667,-0.2432 1.21667,-0.22194 1.21667,-0.0768 1.21667,-0.25148 1.21667,-0.0722 1.21667,-0.2052 1.21667,-0.13517 1.21667,-0.11539 1.21667,-0.0988 1.21667,-0.17963 1.21667,-0.10439 1.21667,-0.18778 1.21667,-0.0777 1.21667,-0.11744 1.21667,-0.11148 1.21667,-0.10923 1.21667,-0.0472 1.21667,-0.0372 1.21667,-0.0444 1.21667,-0.13157 1.21667,-0.12143 1.21667,-0.0735 1.21667,-0.0823 1.21667,0.009 1.21667,-0.0456 1.21667,-0.0473 1.21667,-0.0452 1.21667,-0.068 1.21667,-0.1106 1.21667,-0.035 1.21667,-0.0389 1.21667,-0.16472 1.21667,-0.003 1.21667,0.003 1.21667,-0.15467 1.21667,-0.0524 1.21667,0.0251 1.21667,-0.0123 1.21667,-0.0435 1.21667,0.0319 1.21667,-0.0515 1.21667,-0.1566 1.21667,-0.082 1.21667,-0.10495 1.21667,0.009 1.21667,0.0209 1.21667,-0.0682 1.21667,0.008 1.21667,-0.0437 1.21667,-0.0937 1.21667,-0.0312 1.21667,0.0227 1.21667,-0.077 1.21667,-0.0526 1.21667,0.0163 1.21667,-0.0309 1.21667,-0.1032 1.21667,-0.002 1.21667,0.0518 1.21667,0.0141 1.21667,-0.0325 1.21667,0.0969 1.21667,-0.0625 1.21667,0.0236 1.21667,-0.006 1.21667,0.0215 1.21667,0.0383 1.21667,0.047 1.21667,0.0989 1.21667,0.10796 1.21667,-0.059 1.21667,0.0206 1.21667,0.0318 1.21667,-0.009 1.21667,0.0969 1.21667,0.0436 1.21667,-0.0934 1.21667,0.013 1.21667,0.0701 1.21667,-0.006 1.21667,0.0559 1.21667,-0.0129 1.21667,-0.12619 1.21667,-0.0253 1.21667,-0.0106 1.21667,-0.13877 1.21667,0.004 1.21667,0.0856 1.21667,-0.0211 1.21667,-0.0125 1.21667,-0.0249 1.21667,-0.0145 1.21667,-0.0532 1.21667,0.008 1.21667,-0.0103 1.21667,0.088 1.21667,-0.12132 1.21667,0.0256 1.21667,-0.0137 1.21667,0.005 1.21667,0.0356 1.21667,-0.008 1.21667,0.007 1.21667,6.3e-4 1.21667,-0.0834 1.21667,-0.0382 1.21667,-0.0556 1.21667,-0.0137 1.21667,0.12008 1.21667,-0.0811 1.21667,-0.0379 1.21667,0.0231 1.21667,0.0571 1.21667,-4.3e-4 1.21667,-0.0605 1.21667,-0.0317 1.21667,0.0362 1.21667,-0.095 1.21667,0.0163 1.21667,-0.148 1.21667,0.0124 1.21667,0.0169 1.21667,-0.0145 1.21667,0.0615 1.21667,0.0491 1.21667,-0.006 1.21667,-0.0306 1.21667,-0.0113 1.21667,0.0707 1.21667,0.0729 1.21667,-0.0563 1.21667,-0.0468 1.21667,0.0175 1.21667,0.0422 1.21667,-0.0423 1.21667,0.0778 1.21667,-0.0205 1.21667,0.0298 1.21667,-0.0516 1.21667,-0.0957 1.21667,0.0981 1.21667,-0.0293 1.21667,0.0163 1.21667,0.0276 1.21667,0.0207 1.21667,-0.002 1.21667,0.0224 1.21667,0.0566 1.21667,-0.004 1.21667,0.0687 1.21667,-0.0609 1.21667,0.0329 1.21667,0.0423 1.21667,-0.0675 1.21667,-0.0106 1.21667,0.0303 1.21667,0.0156 1.21667,0.0139 1.21667,0.1253 1.21667,-0.0467 1.21667,-0.0739 1.21667,0.0286 1.21667,-0.0597 1.21667,-0.0573 1.21667,0.0732 1.21667,0.0949 1.21667,0.0812 1.21667,0.0516 1.21667,0.0135 1.21667,0.0111 1.21667,-0.0525 1.21667,0.0755 1.21667,0.047 1.21667,-0.0145 1.21667,-0.0751 1.21667,0.0279 1.21667,0.0587 1.21667,-0.0886 1.21667,-0.008 1.21667,-0.021 1.21667,-0.0531 1.21667,-0.0139 1.21667,0.0633 1.21667,-0.0134 1.21667,-0.0539 1.21667,0.11769 1.21667,0.0699 1.21667,0.0212 1.21667,0.03 1.21667,-6.7e-4 1.21667,-0.0558 1.21667,-0.002 1.21667,0.0544 1.21667,-0.0936 1.21667,0.0233 1.21667,0.0441 1.21667,0.0244 1.21667,-0.0517 1.21667,0.003 1.21667,0.11789 1.21667,0.005 1.21667,0.0662 1.21667,-0.0472 1.21667,-5.7e-4 1.21667,0.0486 1.21667,0.0578 1.21667,-0.007 1.21667,-0.0109 1.21667,-0.0233 1.21667,-0.0307 1.21667,0.0357 1.21667,0.17409" />
                </g>
              </g>
            </g>
          </g>
        </g>
      </g>
    </g>
    <g
       transform="translate(0,-142)"
       style="fill:none;stroke:#000000;stroke-width:1;stroke-linecap:square;stroke-linejoin:bevel"
       id="PlotItem_5">
      <g
         style="fill:none;stroke:#000000;stroke-width:1;stroke-linecap:square;stroke-linejoin:bevel"
         id="AxisItem_3">
        <g
           style="font-size:11.875px;font-style:normal;font-weight:400;fill:none;stroke:#969696;stroke-width:1;stroke-linecap:square;stroke-linejoin:bevel;stroke-opacity:1;font-family:Sans Serif"
           id="g178"
           font-weight="400"
           font-style="normal"
           font-size="11.875">
          <polyline
             style="fill:none"
             id="polyline180"
             vector-effect="non-scaling-stroke"
             points="45.0,322.333 45.0,396.446566312" />
        </g>
        <g
           style="font-size:11.875px;font-style:normal;font-weight:400;fill:none;stroke:#969696;stroke-width:1;stroke-linecap:square;stroke-linejoin:bevel;stroke-opacity:1;font-family:Sans Serif"
           id="g182"
           font-weight="400"
           font-style="normal"
           font-size="11.875">
          <polyline
             style="fill:none"
             id="polyline184"
             vector-effect="non-scaling-stroke"
             points="45.5,359.389833688 50.5,359.389833688" />
        </g>
        <g
           style="font-size:11.875px;font-style:normal;font-weight:400;fill:none;stroke:#969696;stroke-width:1;stroke-linecap:square;stroke-linejoin:bevel;stroke-opacity:0.49803904;font-family:Sans Serif"
           id="g186"
           font-weight="400"
           font-style="normal"
           font-size="11.875">
          <polyline
             style="fill:none"
             id="polyline188"
             vector-effect="non-scaling-stroke"
             points="45.5,395.021361784 48.8333,395.021361784" />
          <polyline
             style="fill:none"
             id="polyline190"
             vector-effect="non-scaling-stroke"
             points="45.5,323.758265166 48.8333,323.758265166" />
        </g>
        <g
           style="font-size:11.875px;font-style:normal;font-weight:400;fill:none;stroke:#969696;stroke-width:1;stroke-linecap:square;stroke-linejoin:bevel;stroke-opacity:0.33333297;font-family:Sans Serif"
           id="g192"
           font-weight="400"
           font-style="normal"
           font-size="11.875">
          <polyline
             style="fill:none"
             id="polyline194"
             vector-effect="non-scaling-stroke"
             points="45.5,387.895035952 48.0,387.895035952" />
          <polyline
             style="fill:none"
             id="polyline196"
             vector-effect="non-scaling-stroke"
             points="45.5,380.76871012 48.0,380.76871012" />
          <polyline
             style="fill:none"
             id="polyline198"
             vector-effect="non-scaling-stroke"
             points="45.5,373.642384288 48.0,373.642384288" />
          <polyline
             style="fill:none"
             id="polyline200"
             vector-effect="non-scaling-stroke"
             points="45.5,366.516058456 48.0,366.516058456" />
          <polyline
             style="fill:none"
             id="polyline202"
             vector-effect="non-scaling-stroke"
             points="45.5,352.263507856 48.0,352.263507856" />
          <polyline
             style="fill:none"
             id="polyline204"
             vector-effect="non-scaling-stroke"
             points="45.5,345.137182024 48.0,345.137182024" />
          <polyline
             style="fill:none"
             id="polyline206"
             vector-effect="non-scaling-stroke"
             points="45.5,338.010856192 48.0,338.010856192" />
          <polyline
             style="fill:none"
             id="polyline208"
             vector-effect="non-scaling-stroke"
             points="45.5,330.884570786 48.0,330.884570786" />
        </g>
        <g
           style="font-size:11.875px;font-style:normal;font-weight:400;fill:none;stroke:#969696;stroke-width:1;stroke-linecap:square;stroke-linejoin:bevel;stroke-opacity:1;font-family:Sans Serif"
           id="g210"
           transform="matrix(1,0,0,1.01064,5.5,322.333)"
           font-weight="400"
           font-style="normal"
           font-size="11.875">
          <text
             style="font-size:11.875px;font-style:normal;font-weight:400;fill:#969696;fill-opacity:1;stroke:none"
             id="text212"
             y="40.6562"
             xml:space="preserve"
             x="31"
             font-weight="400"
             font-style="normal"
             font-size="11.875">0</text>
          <text
             style="font-size:11.875px;font-style:normal;font-weight:400;fill:#969696;fill-opacity:1;stroke:none"
             id="text214"
             y="75.921898"
             xml:space="preserve"
             x="19"
             font-weight="400"
             font-style="normal"
             font-size="11.875">-10</text>
          <text
             style="font-size:11.875px;font-style:normal;font-weight:400;fill:#969696;fill-opacity:1;stroke:none"
             id="text216"
             y="5.4218798"
             xml:space="preserve"
             x="23"
             font-weight="400"
             font-style="normal"
             font-size="11.875">10</text>
        </g>
      </g>
      <g
         style="fill:none;stroke:#000000;stroke-width:1;stroke-linecap:square;stroke-linejoin:bevel"
         id="ViewBox_5">
        <g
           style="font-size:11.875px;font-style:normal;font-weight:400;fill:none;stroke:none;font-family:Sans Serif"
           id="g219"
           font-weight="400"
           font-style="normal"
           font-size="11.875">
          <path
             inkscape:connector-curvature="0"
             id="path221"
             vector-effect="non-scaling-stroke"
             d="m 45,322.333 616,0 0,73.3333 -616,0 0,-73.3333" />
        </g>
        <clipPath
           id="ViewBox_5_clip">
          <path
             inkscape:connector-curvature="0"
             id="path224"
             vector-effect="non-scaling-stroke"
             d="m 45,322.333 616,0 0,73.334 -616,0 0,-73.334" />
        </clipPath>
        <g
           id="g226"
           clip-path="url(#ViewBox_5_clip)">
          <g
             style="fill:none;stroke:#000000;stroke-width:1;stroke-linecap:square;stroke-linejoin:bevel"
             id="ChildGroup_5">
            <g
               style="fill:none;stroke:#000000;stroke-width:1;stroke-linecap:square;stroke-linejoin:bevel"
               id="InfiniteLine_3">
              <g
                 style="font-size:11.875px;font-style:normal;font-weight:400;fill:none;stroke:#e6e6af;stroke-width:1;stroke-linecap:square;stroke-linejoin:bevel;stroke-opacity:1;font-family:Sans Serif"
                 id="g230"
                 font-weight="400"
                 font-style="normal"
                 font-size="11.875">
                <polyline
                   style="fill:none"
                   id="polyline232"
                   vector-effect="non-scaling-stroke"
                   points="661.00268021,359.0 44.999982536,359.0" />
              </g>
            </g>
            <g
               id="PlotDataItem_5">
              <g
                 style="fill:none;stroke:#000000;stroke-width:1;stroke-linecap:square;stroke-linejoin:bevel"
                 id="PlotCurveItem_5">
                <g
                   style="font-size:11.875px;font-style:normal;font-weight:400;fill:none;stroke:#0000ff;stroke-width:1;stroke-linecap:square;stroke-linejoin:bevel;stroke-opacity:1;font-family:Sans Serif"
                   id="g236"
                   font-weight="400"
                   font-style="normal"
                   font-size="11.875">
                  <path
                     inkscape:connector-curvature="0"
                     id="path238"
                     vector-effect="non-scaling-stroke"
                     d="m 29.4743,351.80769 1.21667,-1.76282 1.21667,1.44552 1.21667,-0.42308 1.21667,1.05769 1.21667,-2.11538 1.21667,1.33974 1.21667,0.2468 1.21667,1.16346 1.21667,-1.65705 1.21667,0.0705 1.21667,-1.375 1.21667,1.375 1.21667,-2.1859 1.21667,3.27885 1.21667,-2.60898 1.21667,0.21154 1.21667,0.52885 1.21667,-0.49359 1.21667,2.99679 1.21667,-2.36218 1.21667,0.42312 1.21667,0.10573 1.21667,0.0705 1.21667,1.69231 1.21667,-0.38782 1.21667,1.44551 1.21667,-1.26923 1.21667,0.59936 1.21667,-2.15064 1.21667,-0.14103 1.21667,3.10257 1.21667,-1.58654 1.21667,-0.17628 1.21667,-1.19872 1.21667,0.95192 1.21667,-2.04487 1.21667,0.8109 1.21667,-0.0705 1.21667,1.51602 1.21667,-1.05769 1.21667,-0.2468 1.21667,0.49359 1.21667,0.2468 1.21667,0.59936 1.21667,-2.9968 1.21667,2.00962 1.21667,-1.55128 1.21667,1.58653 1.21667,-1.23393 1.21667,1.48073 1.21667,-4.19551 1.21667,4.75961 1.21667,-3.03205 1.21667,3.73718 1.21667,-3.06731 1.21667,3.34936 1.21667,-2.04487 1.21667,1.16346 1.21667,-0.21154 1.21667,-1.375 1.21667,1.09295 1.21667,0 1.21667,-1.02243 1.21667,-1.90385 1.21667,5.64102 1.21667,-4.79487 1.21667,1.55129 1.21667,-0.52885 1.21667,3.06731 1.21667,-3.03205 1.21667,0.91666 1.21667,-1.72756 1.21667,2.11538 1.21667,-1.97436 1.21667,0.49359 1.21667,0.2468 1.21667,5.67628 1.21667,-4.75958 1.21667,0.84612 1.21667,-1.83333 1.21667,0.1058 1.21667,-0.70516 1.21667,2.96153 1.21667,-0.98717 1.21667,-1.76282 1.21667,3.3141 1.21667,-2.96154 1.21667,2.29167 1.21667,0.0705 1.21667,-2.25641 1.21667,0.28205 1.21667,1.58654 1.21667,-1.72757 1.21667,1.93911 1.21667,0.84615 1.21667,-0.21154 1.21667,-1.1282 1.21667,-0.2468 1.21667,-0.74038 1.21667,0.59936 1.21667,-0.98718 1.21667,-0.10574 1.21667,1.16343 1.21667,1.16346 1.21667,-1.48077 1.21667,1.86859 1.21667,-2.92628 1.21667,2.85577 1.21667,-2.82051 1.21667,2.00961 1.21667,-2.99679 1.21667,3.24359 1.21667,-1.55129 1.21667,2.71475 1.21667,-2.71475 1.21667,2.39744 1.21667,-3.91346 1.21667,2.00965 1.21667,1.37496 1.21667,-2.99679 1.21667,3.20833 1.21667,-1.09295 1.21667,-1.55128 1.21667,1.83333 1.21667,-2.82051 1.21667,0.21158 1.21667,2.82047 1.21667,-0.38782 1.21667,-2.71474 1.21667,3.84295 1.21667,-4.33654 1.21667,2.60901 1.21667,0.7756 1.21667,-2.18589 1.21667,2.92628 1.21667,-2.53843 1.21667,-0.70516 1.21667,0.45833 1.21667,-0.84615 1.21667,0.63461 1.21667,2.50321 1.21667,-1.0224 1.21667,0.24676 1.21667,-1.65705 1.21667,0.77564 1.21667,-0.24676 1.21667,-0.66991 1.21667,1.12821 1.21667,-0.42308 1.21667,-0.59936 1.21667,1.48077 1.21667,-0.52885 1.21667,-0.45829 1.21667,0.7756 1.21667,-0.70509 1.21667,-0.21154 1.21667,-0.49362 1.21667,2.36217 1.21667,-2.25641 1.21667,2.1859 1.21667,-0.63461 1.21667,1.16346 1.21667,0.59936 1.21667,-5.7468 1.21667,1.12821 1.21667,2.71478 1.21667,-1.55132 1.21667,1.9391 1.21667,1.12821 1.21667,-0.98718 1.21667,-1.69231 1.21667,1.55128 1.21667,3.24359 1.21667,-6.09936 1.21667,0.70517 1.21667,1.65701 1.21667,-0.7756 1.21667,-0.17632 1.21667,0.74038 1.21667,0.59936 1.21667,0.2468 1.21667,-0.2468 1.21667,0.66987 1.21667,-4.79487 1.21667,2.85577 1.21667,3.63141 1.21667,-2.85577 1.21667,-1.1282 1.21667,-0.14103 1.21667,0.49359 1.21667,0.0353 1.21667,0.24676 1.21667,2.00962 1.21667,-1.19872 1.21667,-1.05766 1.21667,2.04484 1.21667,-3.03205 1.21667,1.48077 1.21667,-0.70513 1.21667,3.63141 1.21667,-3.52564 1.21667,-0.42308 1.21667,0.42308 1.21667,-0.77561 1.21667,-0.70516 1.21667,-0.0353 1.21667,-0.38782 1.21667,2.60898 1.21667,-1.09295 1.21667,0.35256 1.21667,0.70513 1.21667,-1.09295 1.21667,-0.38782 1.21667,-1.30449 1.21667,-0.49358 1.21667,2.82051 1.21667,-1.90385 1.21667,-2.46795 1.21667,3.52568 1.21667,-3.49042 1.21667,2.22115 1.21667,-0.14102 1.21667,-1.90385 1.21667,1.58654 1.21667,-1.48077 1.21667,1.05769 1.21667,-1.33974 1.21667,-0.52885 1.21667,3.10257 1.21667,-1.83334 1.21667,0.74039 1.21667,-1.33974 1.21667,-1.69231 1.21667,0.66987 1.21667,0.70513 1.21667,0.28205 1.21667,-1.48077 1.21667,-1.05769 1.21667,0.10577 1.21667,2.11538 1.21667,-0.77564 1.21667,-1.48077 1.21667,0.63465 1.21667,-1.4808 1.21667,0.0353 1.21667,-0.10576 1.21667,0.95192 1.21667,-0.2468 1.21667,-1.55128 1.21667,-0.28205 1.21667,0.21154 1.21667,-0.14103 1.21667,-1.3397 1.21667,-0.31735 1.21667,2.43269 1.21667,-1.05769 1.21667,-0.0705 1.21667,-0.95192 1.21667,0.45833 1.21667,-1.79808 1.21667,0.0705 1.21667,-0.91667 1.21667,-0.42308 1.21667,0.59936 1.21667,-0.63461 1.21667,-0.35257 1.21667,-1.33974 1.21667,-1.05769 1.21667,0.63461 1.21667,-0.10577 1.21667,-0.52884 1.21667,-1.375 1.21667,0.45833 1.21667,-0.24679 1.21667,-0.38782 1.21667,-0.17629 1.21667,-1.375 1.21667,1.26923 1.21667,-0.91666 1.21667,0 1.21667,0.74038 1.21667,0.38782 1.21667,1.09295 1.21667,0.74039 1.21667,3.52564 1.21667,3.80772 1.21667,7.50958 1.21667,2.78526 1.21667,4.72435 1.21667,4.51282 1.21667,-6.48717 1.21667,2.78525 1.21667,-3.84295 1.21667,7.96795 1.21667,-5.64102 1.21667,2.08012 1.21667,3.03205 1.21667,-4.08974 1.21667,1.55128 1.21667,-2.46795 1.21667,-1.41025 1.21667,0.52884 1.21667,0.38786 1.21667,0.91663 1.21667,0.5641 1.21667,-0.17628 1.21667,-1.05769 1.21667,2.11538 1.21667,-0.59935 1.21667,0.21153 1.21667,-0.98714 1.21667,0.4583 1.21667,0.14102 1.21667,-3.20833 1.21667,4.79487 1.21667,-1.1282 1.21667,0.3173 1.21667,1.26923 1.21667,-2.46794 1.21667,0.95192 1.21667,1.30449 1.21667,-3.98398 1.21667,-0.10577 1.21667,1.16346 1.21667,-0.0353 1.21667,-0.4583 1.21667,2.92625 1.21667,-4.05449 1.21667,4.54808 1.21667,-1.83334 1.21667,2.67949 1.21667,-1.62179 1.21667,3.94871 1.21667,-5.8173 1.21667,0.52884 1.21667,-1.62179 1.21667,0.5641 1.21667,4.51282 1.21667,-6.0641 1.21667,6.59295 1.21667,-6.06411 1.21667,1.16347 1.21667,0.84615 1.21667,1.23397 1.21667,-0.24679 1.21667,-0.2468 1.21667,-0.63461 1.21667,0.66987 1.21667,-1.23397 1.21667,3.10256 1.21667,-3.66667 1.21667,2.89103 1.21667,-2.71474 1.21667,2.67948 1.21667,-1.1282 1.21667,2.29166 1.21667,-0.42307 1.21667,0.5641 1.21667,-3.38458 1.21667,2.32689 1.21667,0.81089 1.21667,-3.20833 1.21667,6.27564 1.21667,-3.38461 1.21667,0.98718 1.21667,-5.81731 1.21667,4.47756 1.21667,-2.18589 1.21667,2.22115 1.21667,-1.48077 1.21667,-2.43269 1.21667,3.59615 1.21667,-0.0705 1.21667,1.33974 1.21667,-2.36218 1.21667,0.59936 1.21667,-1.30449 1.21667,1.58654 1.21667,-1.97432 1.21667,-0.70516 1.21667,0.3173 1.21667,1.69231 1.21667,1.12821 1.21667,-0.8109 1.21667,-1.19872 1.21667,0.74039 1.21667,-0.63462 1.21667,1.33974 1.21667,-1.55128 1.21667,-1.48077 1.21667,1.51603 1.21667,0.21154 1.21667,-0.74039 1.21667,-0.66987 1.21667,1.30449 1.21667,-1.375 1.21667,-0.66987 1.21667,1.55128 1.21667,1.69231 1.21667,-0.52885 1.21667,0.70513 1.21667,-1.51603 1.21667,0.84616 1.21667,0.0353 1.21667,-5.46474 1.21667,6.0641 1.21667,-2.78522 1.21667,-1.30452 1.21667,1.69231 1.21667,0.49359 1.21667,1.83333 1.21667,1.48077 1.21667,-1.69228 1.21667,-1.4808 1.21667,4.6891 1.21667,-2.71471 1.21667,-0.42311 1.21667,2.00962 1.21667,-1.05769 1.21667,-0.88141 1.21667,-2.60898 1.21667,4.01923 1.21667,-4.125 1.21667,-0.38782 1.21667,1.76282 1.21667,-0.77564 1.21667,1.76282 1.21667,0.5641 1.21667,-0.38782 1.21667,1.86859 1.21667,-0.77564 1.21667,-0.88141 1.21667,-0.66987 1.21667,3.66667 1.21667,-2.11539 1.21667,-2.15064 1.21667,1.16346 1.21667,0.38782 1.21667,0.0705 1.21667,-0.95193 1.21667,0.59936 1.21667,-0.42304 1.21667,-1.09298 1.21667,1.23397 1.21667,-1.79808 1.21667,2.36218 1.21667,-1.79807 1.21667,0.35256 1.21667,-1.72756 1.21667,0.70512 1.21667,2.00965 1.21667,1.8333 1.21667,-4.05448 1.21667,-1.16346 1.21667,0.5641 1.21667,-0.45834 1.21667,3.38462 1.21667,-1.09295 1.21667,1.90385 1.21667,-3.10257 1.21667,1.83334 1.21667,-0.21154 1.21667,-2.36218 1.21667,2.57372 1.21667,-3.73718 1.21667,5.18269 1.21667,-2.89103 1.21667,1.51603 1.21667,1.69231 1.21667,-2.67949 1.21667,2.5032 1.21667,-3.66666 1.21667,-0.17628 1.21667,4.51282 1.21667,-2.60898 1.21667,-0.91666 1.21667,-1.51603 1.21667,0.91667 1.21667,0.95192 1.21667,4.97115 1.21667,-4.23077 1.21667,-1.79807 1.21667,0 1.21667,-0.77564 1.21667,3.13782 1.21667,-3.84295 1.21667,1.02243 1.21667,2.96154 1.21667,-1.23397 1.21667,-0.17628 1.21667,-1.86859 1.21667,3.3141 1.21667,1.05769 1.21667,-1.23397 1.21667,1.44554 1.21667,0.77561 1.21667,-3.63141 1.21667,0.5641 1.21667,1.48077" />
                </g>
              </g>
            </g>
          </g>
        </g>
      </g>
    </g>
    <g
       id="g3398"
       transform="translate(30.212685,5.744169)">
      <path
         style="fill:none;stroke:#000000;stroke-width:0.56202096;stroke-linecap:butt;stroke-linejoin:miter;stroke-miterlimit:4;stroke-opacity:1;stroke-dasharray:0.56202098, 1.68606294;stroke-dashoffset:0"
         d="m 343.71295,8.6271374 0,266.4810926 0,0 0,-0.22152"
         id="path3237"
         inkscape:connector-curvature="0"
         sodipodi:nodetypes="cccc" />
      <text
         xml:space="preserve"
         style="font-size:9px;font-style:normal;font-variant:normal;font-weight:normal;font-stretch:normal;line-height:125%;letter-spacing:0px;word-spacing:0px;fill:#000000;fill-opacity:1;stroke:none;font-family:TeX Gyre Termes;-inkscape-font-specification:TeX Gyre Termes"
         x="311.78052"
         y="283.16614"
         id="text4007"
         sodipodi:linespacing="125%"><tspan
           sodipodi:role="line"
           id="tspan4009"
           x="311.78052"
           y="283.16614"
           style="font-size:14px">Vehicle at point A</tspan></text>
      <text
         xml:space="preserve"
         style="font-size:9px;font-style:normal;font-variant:normal;font-weight:normal;font-stretch:normal;line-height:125%;letter-spacing:0px;word-spacing:0px;fill:#000000;fill-opacity:1;stroke:none;font-family:TeX Gyre Termes;-inkscape-font-specification:TeX Gyre Termes"
         x="2.1622429"
         y="283.16614"
         id="text4011"
         sodipodi:linespacing="125%"><tspan
           sodipodi:role="line"
           id="tspan4013"
           x="2.1622429"
           y="283.16614"
           style="font-size:14px">Initial position</tspan></text>
      <text
         xml:space="preserve"
         style="font-size:14px;font-style:normal;font-variant:normal;font-weight:normal;font-stretch:normal;line-height:125%;letter-spacing:0px;word-spacing:0px;fill:#000000;fill-opacity:1;stroke:none;font-family:TeX Gyre Termes;-inkscape-font-specification:TeX Gyre Termes"
         x="23.897961"
         y="157.14928"
         id="text4023"
         sodipodi:linespacing="125%"><tspan
           sodipodi:role="line"
           id="tspan4025"
           x="23.897961"
           y="157.14928">Sensor unit </tspan></text>
      <text
         xml:space="preserve"
         style="font-size:14px;font-style:normal;font-variant:normal;font-weight:normal;font-stretch:normal;line-height:125%;letter-spacing:0px;word-spacing:0px;fill:#000000;fill-opacity:1;stroke:none;font-family:TeX Gyre Termes;-inkscape-font-specification:TeX Gyre Termes"
         x="24.317974"
         y="75.129227"
         id="text4027"
         sodipodi:linespacing="125%"><tspan
           sodipodi:role="line"
           id="tspan4029"
           x="24.317974"
           y="75.129227">Motor unit</tspan></text>
      <text
         xml:space="preserve"
         style="font-size:14px;font-style:normal;font-variant:normal;font-weight:normal;font-stretch:normal;line-height:125%;letter-spacing:0px;word-spacing:0px;fill:#000000;fill-opacity:1;stroke:none;font-family:TeX Gyre Termes;-inkscape-font-specification:TeX Gyre Termes"
         x="24.233959"
         y="251.22786"
         id="text4031"
         sodipodi:linespacing="125%"><tspan
           sodipodi:role="line"
           id="tspan4033"
           x="24.233959"
           y="251.22786">Input transducer</tspan></text>
    </g>
  </g>
</svg>
